<svg height="390" viewBox="0 0 447 390" width="447" xmlns="http://www.w3.org/2000/svg"><path d="m30003.7 21452.2s2111.3-2753.5-3326.4-6357c-5437.8-3603.4-13018.9-4795.7-14527.5-915.2-1508.6 3880.6-100.1 2731.6 5696.2 3395.8 5796.2 664.2 9655.5 6691.2 10587.9 6034.2 932.3-657.1 1569.8-2157.8 1569.8-2157.8" fill="#f9a332" transform="matrix(.02 0 0 -.02 -178.6598 621.4236)"/><path d="m16831.1 12282.8c-1636.4 0-3024.2 386.1-3909.8 1240.1 391.8 185 702 372.8 961.2 529.6 295.4 178.8 534.7 323.6 683.3 323.6 15.9 0 30.8-1.6 44.6-5.1 75.5-19 155-100.8 243-250 254.7-431.5 602.4-667.4 982.7-667.4 15.3 0 30.6.4 46 1.1 402.6 19.5 773.9 311.9 993.3 782.1 130.1 278.8 300 448.2 519.3 517.8 81.3 25.8 172 38.7 271.7 38.7 366.1 0 855-173.6 1458.7-518.8 2.3-1.3 4.4-2.5 6.7-3.8 251-149.1 532.4-239.5 865-248.1 27.2-.8 54.1-1.1 80.5-1.1 920 0 1354.1 420.7 1616.4 674.9 68.3 66.2 171.5 166.2 206.3 169 .4 0 31-4.5 100.2-73.7-308.7-361.7-942.7-1062.7-1911.3-1062.7-415.5 0-892.8 129.2-1432.2 469.5-236.9 149.5-479.5 211.9-698.7 211.9-626.1 0-1061.6-509.6-628.9-955.4 177.9-183.3 535.3-247 946.2-247 664.1 0 1467.6 166.5 1877.3 263.6 822.2 200.8 1660.2 467.6 2493.1 793.3 152.4-67.8 308.2-103.6 455.3-103.6 145.8 0 283 35.1 399.9 109 99.8 63 258.9 205.4 299.8 485.9 992.2 456.3 1963.1 993.4 2876.6 1598.7 2122 1406.3 3094.2 2682.9 3491 3717.1 2.1-162.8-10.3-340-43.2-530.5-53.5-310.1-157.1-624.3-309.3-941-528.8-885.2-1484.3-1902.6-3138.5-2998.8-3092.6-2049.4-6878.4-3318.9-9846.2-3318.9m6796.6 3343c-9.7 21.8-19.8 43.9-30.4 66.4-34.3 72.6-65.3 149.1-93 229.2h13.9c1057.5 0 1459.9 523 1947.4 1156.5 172.3 224 350.5 455.5 579 699.5 412.2 440.2 1043.4 467 1653.8 492.9 401.6 17 786.4 33.4 1079 178-711.3-706.3-1647.8.6-2208.1-886.5-637.2-1009-1203.7-1717.1-2407.4-1858.7-195.6-23-372.8-48.5-534.2-77.3m5639.6 3632.5c2.9 54.5 3 111.5.4 171.1-21.2 480.3-23.8 808.1 28.3 957.6 28.2 80.9 64.7 102.3 257.4 186.3 126.9 55.3 289.3 126.1 492.2 252.8 29.3-89.1 56.4-189.8 77.7-301.5-795.3-191-485.3-385.3-856-1266.3" fill="#cf793a" transform="matrix(.02 0 0 -.02 -180.1182 618.319)"/><path d="m28264.1 23420.4c-54.9 0-191.5-31.4-490-241-347.9-244.3-800.4-647.6-1324.4-1114.5-1919.8-1710.8-4821-4296.2-8576.5-4726.5-1373.2-157.4-2497.3-213.3-3400.6-258.3-1394.4-69.5-2315.6-115.3-2557.6-488.7-231.6-357.1 15.5-1187.6 457.6-2324.8 363.3-934.6 1118.3-1589.6 2244-1947 2914.7-925.2 7931.3 325.8 11928.7 2974.8 2102.8 1393.5 3340.7 2862.1 3579.8 4247.1 187.4 1085.3-291.3 1738.9-311.8 1766.2-11.6 15.4-22 33.3-29.6 51-8.3 19.6-624.5 1447.7-1487.5 2056-.3.2-9 5.7-32.1 5.7m-11428.8-11885.6c-876.7-.1-1671.1 109.5-2363.3 329.3-1270.4 403.2-2126.6 1153.3-2544.9 2229.3-535.2 1376.5-759.5 2223.7-413.2 2758 375.1 578.6 1284.3 623.9 2934.9 706 896.5 44.7 2012.1 100.2 3370 255.8 3605 413.1 6438.2 2937.9 8313 4608.5 1253.7 1117.3 1944.2 1732.8 2439.7 1383.6 920.3-648.6 1549-2024.3 1641.3-2234.6 105.8-152.1 583-916.9 386.4-2092-258.4-1545.6-1533.6-3087.4-3789.9-4582.7-1963-1300.8-4264.5-2325.1-6480.7-2884.1-1259.8-317.7-2436.3-477.1-3493.3-477.1" fill="#6d184e" transform="matrix(.02 0 0 -.02 -178.6632 621.4284)"/><path d="m11151.2 16623.6s-1380.7 212.4-1504.62-725.7c-123.9-938.2 1398.42-566.5 1380.72-1292.3-17.7-725.7-35.4-1681.6 1522.4-1026.7 1557.7 655 1982.5 1485 2478.2 645.1 495.6-839.8 1292.2-698.2 1663.9 98.4 371.8 796.6 1102.5 946.3 2533.9 127.9 765.9-437.8 1181.5 186 1701.4 809.9 451.7 542 982.2 1084 1889.5 929.7 1951.6-331.9 2035.7 610.7 3080.1 1725.9s3239.4-106.2 3168.6 1504.7c-70.8 1610.8 97.3 1004.5 1066.5 1708.2 969.2 703.6 955.9 2349.9-942.6 2203.8-1898.5-146-6620.4-6956.7-18038-6708.9" fill="#48c75a" transform="matrix(.02 0 0 -.02 -176.537 623.108)"/><path d="m29081.6 20768.3c71.6 297.5 413.6 478.6 1123.2 1030.8 125.3 97.6 250.8 259.7 356.1 422.4-25.8-337.9-227.4-696.1-548.1-928.9-265.9-193-462.9-278.9-621.3-347.9-130.5-56.8-231.9-110.3-309.9-176.4" fill="#b6e9bd" transform="matrix(.02 0 0 -.02 -202.185 631.498)"/><path d="m24104.6 16402.9c625.2 338.9 923 1056.2 1616.2 1849.7 873.7 1000.1 2500.4 360.9 3130.5 919.9-18.5-110.4-56.7-196.4-115.3-260.2-183.6-200.2-606.8-218.2-1054.8-237.2-659.5-28-1407-59.8-1932.4-620.8-241.8-258.2-434.4-508.5-604.3-729.3-345.6-449.2-598.9-778.6-1039.9-922.1" fill="#b6e9bd" transform="matrix(.02 0 0 -.02 -193.279 621.614)"/><path d="m11692.9 13562.5c-109.9 0-197.9 21.8-262.1 65.7-221 150.7-209.9 606.3-201 972.5 12 489.6-453.8 634.5-793.8 740.2-449.56 139.8-628.66 226.9-588.57 530.4 21.44 162.3 91.01 285.6 212.67 377.2 160.9 121 394.6 171 607.4 187 603.2-936.9 1525-1457.7 2602.1-1457.7 136.5 0 275.7 8.4 416.8 25.3 1334.4 182.5 2676.4 467.3 4015.9 851.5 52.2-71.2 103.5-141.8 154.1-211.6 135.9-187.1 267.7-368.7 401-538.4-215.4 62.6-412.5 93.7-592.4 93.7-141.4 0-272.3-19.2-392.9-57.6-328.7-104.3-585.7-350.8-763.8-732.6-154.7-331.5-396.1-536.6-645.7-548.7-7.1-.3-14.1-.4-21.2-.4-233.7 0-459.6 164-639 468-147.9 250.6-304.6 389.5-493.1 436.9-47.7 12-95.4 17.6-143.5 17.6-261.1 0-535.2-165.7-893.1-382.3-309.3-187.2-694.2-420.2-1201.6-633.5-321.1-135-583.9-203.2-778.2-203.2m11844.2 2760.7c-44.7 0-90.8 1.1-138.6 3.4-93.1 501.2-77 1093.1 70.3 1711.5 1741.3 805.4 3366 1750.5 4851.1 2823.4 721 539.1 1141.7 1269 1237.3 2091 12.2 2.6 24.1 5 36.1 7.4 103.8-615.5-.7-1418.7-829-2176.4-1663.9-1522.3-3540.3-1929.5-4390-2796.9-512-522.7-567.6-1192.9-530.9-1643.2-93.8-13.3-195.3-20.2-306.3-20.2" fill="#539256" transform="matrix(.02 0 0 -.02 -175.2942 622.874)"/><path d="m10837.4 16441.8c-247.9 0-571.9-38.8-777.3-193.3-121.66-91.6-191.23-214.9-212.67-377.2-40.09-303.5 139.01-390.6 588.57-530.4 340-105.7 805.8-250.6 793.8-740.2-8.9-366.2-20-821.8 201-972.5 177.9-121.4 537.6-73.8 1040.3 137.5 507.4 213.3 892.3 446.3 1201.6 633.5 423.8 256.5 730.2 441.7 1036.6 364.7 188.5-47.4 345.2-186.3 493.1-436.9 184.8-313.1 419-477.8 660.2-467.6 249.6 12.1 491 217.2 645.7 548.7 178.1 381.8 435.1 628.3 763.8 732.6 499.2 158.8 1171.2-9.7 2054.1-514.5 532.2-304.2 819.7 1.9 1323.3 615.7 488.1 595.1 1095.5 1335.8 2201.1 1147.8 1392.1-237 1712.4 179.5 2293.9 935.3 169.9 220.8 362.5 471.1 604.3 729.3 525.4 561 1272.9 592.8 1932.4 620.8 448 19 871.2 37 1054.8 237.2 95.6 104.2 137.1 267.5 126.9 499.3-49.9 1134.9 9.4 1306.9 528.6 1533.1 158.4 69 355.4 154.9 621.3 347.9 438.9 318.7 654.8 872.1 502.1 1287.2-150.2 408.6-615.4 604.6-1310.2 550.7-465.1-35.7-1225.9-599.4-2189.2-1313-1369.4-1014.5-3244.8-2403.9-5828.8-3523.2-3050.2-1321.3-6428.7-1951.8-10039.9-1873.2-8.7.2-17.4 1-26.1 2.2-62.3 9.5-164 18.5-283.3 18.5m853.5-3283.5c-194.3 0-356.4 45.1-488.4 135.2-403.1 274.9-389 852.7-377.7 1317.1 3.8 157.1-123.8 223.6-509.2 343.4-381.73 118.7-958.63 298.2-869.83 970.4 35.96 272.3 161.13 490.6 371.97 648.7 474.06 355.5 1232.86 268.8 1350.06 252.8 8194.1-174 12833.7 3263 15606.5 5317.1 1094.7 811 1817.9 1346.8 2399.4 1391.5 1248.1 95.6 1619.6-537.9 1721.5-814.8 216.5-588.6-54.5-1326.7-644.4-1754.9-301.6-219-530.4-318.7-697.4-391.5-192.7-84-229.2-105.4-257.4-186.3-52.1-149.5-49.5-477.3-28.3-957.6 15.1-344.8-61.1-603.5-233.1-791-297.2-324-801.9-345.4-1336.2-368.1-610.4-25.9-1241.6-52.7-1653.8-492.9-228.5-244-406.7-475.5-579-699.5-586.9-762.8-1050.5-1365.3-2683-1087.7-873.7 148.6-1354.6-437.9-1819.9-1005.2-460.9-562-983.4-1198.8-1837.6-710.5-768.2 439.2-1350.4 600.6-1730.4 480.1-219.3-69.6-389.2-239-519.3-517.8-219.4-470.2-590.7-762.6-993.3-782.1-398.2-19.8-763.7 217.4-1028.7 666.3-88 149.2-167.5 231-243 250-142.6 35.7-400.9-120.5-727.9-318.5-320.6-194-719.6-435.5-1254.3-660.3-371.3-156.1-682-233.9-937.3-233.9" fill="#6d184e" transform="matrix(.02 0 0 -.02 -176.5388 623.1154)"/><path d="m25935.2 26678.3c-246.2-98.5-457.7-253.8-631.5-452.7-1057.2-727.9-3360.1-2193.4-6281.8-3348-2911.3-1180.2-5589.4-1708.5-6856.8-1911.1-263 24-523.3-9.6-769.5-108.1-1123-449.5-1526.72-2079.8-901.7-3641.2 625-1561.4 1866.4-2169.2 3165.1-2013.3 2889.9 395.1 5472.8 1227.2 7585.3 2121.8 2146.3 810.1 4590 1990.1 6954.3 3698.1 1047.6 783.3 1526.7 2079.7 901.7 3641.2-625 1561.4-2042.1 2462.8-3165.1 2013.3" fill="#db2839" transform="matrix(.02 0 0 -.02 -175.4402 630.141)"/><path d="m13261.5 15382.2c-1159.2 0-2087.1 680.2-2579.5 1910.3-37.5 93.7-71.3 188-101.4 282.6 77.2 26.7 156.4 53.2 237.1 78.7-57.2-261.2-66.9-529.7 79-751.5 145.2-220.7 407.6-346 802.1-383.1 57.8-5.4 114.2-8 169.3-8 818.9 0 1345.9 574 1737.3 1000.3 239.7 261 466.1 507.6 651.8 507.6h4.1c108.5-2.2 237-89.9 382-260.8 513.8-606.1 1185.8-935.7 1902.2-935.6 32.2 0 64.6.6 97 2 86.6 3.6 172.3 12.1 256.9 25.3 198.6-214.5 377-432.5 543-648.1-1271.1-357.5-2543.5-624-3807.5-796.9-126.9-15.2-251.4-22.8-373.4-22.8m931 2136.3c-31.5 0-59.3-16.7-85.1-54.1-102.3-148.3-320.8-355.6-550.8-554.6-151.4-131-106.2-373.6 80.1-446.8 333.1-130.9 688.2-194.1 1052.5-194.1 129.1 0 259.4 7.9 390.2 23.6 4 .6 8 1.1 12 1.7 252.8 34.7 312 373.2 87.3 494-572.7 307.9-827.1 730.3-986.2 730.3m9429.7 1039.3c243 687.7 650.5 1385.4 1251.7 2008.4 92.4-7.7 186.2-12.4 280.4-12.4 82 0 164.3 3.6 245.7 11.8-211.1-242.1-395.2-477.6-550.1-690-134.6-184.5 12.2-417.6 208-417.6 37.1 0 76.1 8.4 115.1 27.1 561 268.4 1131 561.9 1705 882.8-1027.8-662-2115.6-1266.7-3255.8-1810.1m3093.5 3226.2c11.9 42.1 22.3 83.3 31.3 123.5 958.1 502.5 1757.1 783.3 2391.6 947.5-8.6-50-18.6-99.6-30-148.7-903.5-54.7-1709.7-429.6-2392.9-922.3" fill="#a92142" transform="matrix(.02 0 0 -.02 -175.622 625.162)"/><path d="m12003.2 20771.4c-185.9 0-364.4-33.8-532.3-101.1-481-192.5-830.8-641.5-985-1264.2-160.2-646.9-90.6-1397.5 196.1-2113.6 544.2-1359.5 1620.3-2047.3 2952.9-1887.5 2502.4 342.2 5037.1 1051.4 7530.4 2107.2 2.4 1.1 4.9 2.1 7.4 3 2533.4 956.2 4857.3 2191.9 6907.3 3672.8 1072.1 801.7 1376.4 2042.3 832.2 3401.7-582.5 1455.3-1884.3 2307.9-2901.7 1900.5l-75.3 188.1 75.3-188.1c-210.8-84.3-397.2-218.2-554.3-397.9-11.1-12.7-23.7-23.9-37.6-33.5-1109.2-763.7-3405.4-2216.9-6322.2-3369.6-2905.1-1177.7-5569.7-1710.2-6899.3-1922.7-16.7-2.7-33.7-3.2-50.4-1.7-48.3 4.3-96.1 6.6-143.5 6.6m1266.4-5793.6c-1323.2-.1-2412.1 786-2963.8 2164.1-317.89 794.3-393.63 1633-213.2 2361.6 186.4 752.7 622.4 1300.7 1227.7 1543 262.9 105.2 544.5 146.7 837.2 124 1320.6 212.4 3936.4 738.7 6788.3 1894.9 2863.4 1131.5 5120.1 2555.6 6222.6 3313.1 196.1 218.6 428.6 382.6 691.5 487.9 1224.9 490.2 2762.9-463.4 3428.5-2126.1 608.5-1520.3 246.5-2970.3-968.5-3878.8-2080.6-1503-4434.9-2755.3-7000.4-3723.9-2525-1069-5093.1-1787.2-7633.1-2134.5-141.1-16.9-280.3-25.3-416.8-25.3" fill="#6d184e" transform="matrix(.02 0 0 -.02 -175.4294 630.1388)"/><path d="m10868 19154.9s-1363.03-548.7-1699.35-1486.9c-199.8-557.3 374.93-246.4 1249.25 64.5 597.6 212.5 1335.1 425 2060.9 360.3 662.7-59 916.8 139.7 1101.3 338.4 313.2 337.4 425.7 674.9 1996.5-249.8 2496-1469.3 2726.1-3912.1 4425.4-3956.3 680.6-17.8 1071.6 201.6 1336.7 420.9 396.9 328.4 511.7 656.7 893.7 189.7 637.3-778.8 1845.4-637.2 1181.6 770.1s-243.4 4505 2765.9 6222.1 4620.1 1345.3 4761.7 1593.1c141.7 247.9-531 1522.4-2672.9 1557.8s-7523.2-5434.4-17400.7-5823.9" fill="#fcaf15" transform="matrix(.02 0 0 -.02 -176.116 626.4506)"/><path d="m20073.7 14426.7c-21.8 0-43.9.3-66.4.8-782.5 20.5-1218.9 621.5-1823 1453.5-245 337.5-516 710.7-845.1 1084.5 424.2 158.9 798.4 445 1075.2 832.6 261.8 366.4 488.6 506.6 768.7 506.6 271.6 0 593.2-131.8 1045.2-317 285.6-116.9 609.2-249.5 986.1-370.9 245.4-79 486.1-117.9 716.1-117.9 408.8 0 783.4 123 1088.4 362.3-41.5-78-78.4-156.4-111.1-234.9-366.7-196.4-727.1-269.3-1073.7-269.3-499.7 0-970.4 151.6-1388.3 303.2-417.9 151.7-783.1 303.3-1071.9 303.3-160.8 0-298-47-407.4-167.1-390.5-428.8-775.7-856.8-1011-988.8 699-951.7 1126-1752.1 2088.8-1777.1 23.5-.6 46.6-.9 69.4-.9 649.9 0 1018.4 244.5 1266.7 489s376.4 489 545.7 489c85 0 180.3-61.6 306.3-215.7 227.3-277.8 527-438.2 788.6-465.9 116-347.4 96.4-595.4-3.6-752.4-197.8 29.6-438.9 159.1-628.2 390.4-111.5 136.3-265.2 294.3-465.9 305.9-7.8.4-15.6.6-23.2.6-195.5 0-338-137.4-488.3-283.1-245.9-238.3-580.2-560.7-1338.1-560.7m-10723.74 3145.5c2.72 8.4 5.82 17.6 9.38 27.5 122.67 342.1 406.05 631.5 699.76 854.7 184.2 3.8 375 18.3 563.9 32.6 116.9 8.9 227.3 17.3 335.6 23.1 10.7.6 20.3.9 28.9.9 27.8 0 45.4-2.7 55.4-5.1 9.9-69.2-45-248.5-90.2-388.9-371.1-103.4-714.1-232.5-1009.49-343.8-207.26-78.1-454.11-171.1-593.25-201" fill="#d18126" transform="matrix(.02 0 0 -.02 -165.934 618.097)"/><path d="m12503.5 18091c1084.6-87.3 1052.3 528.4 1459.7 663.3-771.2 172.9-565.5-574.8-1459.7-663.3" fill="#f8ce36" transform="matrix(.02 0 0 -.02 -157.957 623.3272)"/><path d="m9148.27 17410.8c172.22-266.2 1482.33 610.6 2868.03 688.2-1133.6 68.9-2281.33-511.2-2868.03-688.2" fill="#f8ce36" transform="matrix(.02 0 0 -.02 -150.8856 621.4632)"/><path d="m23101 15321.6c-26.2 0-52.9 1.5-80 4.4-29.1 87-66.7 180.2-113.7 279.8-232 491.9-315.8 1260.4.5 2020.5 27.3 14.6 54.8 30 82.1 46-112.5-800.7-32.2-1574 240.9-2153 26.7-56.6 50.4-111.6 70.9-164.7-61.1-22.1-128.9-33-200.7-33" fill="#fed78a" transform="matrix(.02 0 0 -.02 -184.0046 618.169)"/><path d="m23102 14567.1c-27.1 0-55.4 2.2-84.6 6.5 100 157 119.6 405 3.6 752.4 27.1-2.9 53.8-4.4 80-4.4 71.8 0 139.6 10.9 200.7 33 142-366.4 138-643.8-17.1-741.8-48.3-30.4-111-45.7-182.6-45.7m-194.2 3059.2c32.7 78.5 69.6 156.9 111.1 234.9.4.4.8.7 1.2 1-11.2-63.4-21.3-126.7-30.2-189.9-27.3-16-54.8-31.4-82.1-46" fill="#e8c093" transform="matrix(.02 0 0 -.02 -184.415 617.413)"/><path d="m23716.6 19726.9c-20.1 191.4-60.7 387.6-122.4 585.8-90.5 290.5-37.9 355.8-35.6 358.4 23.6 27.2 86.6 37.5 169.9 37.5 159.2 0 392.6-37.5 567.4-65.6 25.2-4 50.8-8.1 76.9-12.3-266.1-302.3-481.6-607.9-656.2-903.8" fill="#d18126" transform="matrix(.02 0 0 -.02 -186.5512 628.095)"/><path d="m14128 18981.5c315.2 0 776.5-169.4 1551.4-625.6 1236.3-727.7 1939.7-1696.5 2504.9-2474.9 604.1-832 1040.5-1433 1823-1453.5 805-19.3 1151.6 314.7 1404.5 559.9 156.2 151.4 304 293.9 511.5 282.5 200.7-11.6 354.4-169.6 465.9-305.9 291.4-356.1 705.8-470.9 895.4-351.2 177.6 112.3 157 459.6-53.8 906.5-385.8 817.9-386.9 2023.7-2.9 3146.9 331.4 969.4 1095.2 2335.5 2851.6 3337.7 2167.3 1236.6 3635.6 1409.3 4341.2 1492.4 122.2 14.4 257 30.2 331.2 47.1-15.2 69.2-68.7 207.7-221.8 385.1-213.2 247.1-860.7 824.5-2264.8 847.7-651.6 12.7-1682-560.2-3109.4-1350.6-3022.6-1673.3-7587-4200.6-14242.8-4471.6-196.8-85.8-1278.85-587.5-1553.76-1354.3-3.56-9.9-6.66-19.1-9.38-27.5 139.14 29.9 385.99 122.9 593.25 201 678.49 255.6 1608.09 605.3 2553.59 521.5 642.1-57.5 814.6 137.4 997.1 343.5 174.9 197.6 341.8 343.3 634.1 343.3m5949.3-4960c-26.4 0-53.3.3-80.5 1.1-982.4 25.5-1519 764.6-2140.4 1620.4-571.4 786.9-1219 1678.8-2382.5 2363.8-632.9 372.5-1063.5 559.1-1316.3 570.3-163.4 6.2-225-54.5-360.4-207.4-206.9-233.8-490.5-553.6-1336.3-478.6-853.7 76.2-1732.9-255.2-2374.9-497-565.65-213.1-877.32-330.6-1067.26-143.7-158.93 156.4-70.02 404.5-40.79 486 362.84 1012.1 1755.35 1582.7 1814.35 1606.5 21.6 8.6 44.5 13.6 67.7 14.5 6579.6 259.4 11105.1 2764.8 14099.6 4422.7 1482.5 820.7 2553.7 1413.3 3312.4 1401.2 1519.4-25.1 2420.8-666.4 2757.7-1258.2 80.5-141.5 199-408 87.8-602.6-92-161-278.3-182.9-649.4-226.6-679.1-79.9-2092.1-246.2-4187.8-1442-2787.5-1590.5-3355.8-4533.4-2683-5959.7 446.4-946.5 81.3-1309.7-96.4-1421.9-394.6-249.3-1020.7-57.3-1425.3 437.2-122.9 150.2-175.1 157.8-175.6 157.9-34.8-2.8-138-102.8-206.3-169-262.3-254.2-696.4-674.9-1616.4-674.9" fill="#6d184e" transform="matrix(.02 0 0 -.02 -176.1152 626.4498)"/><path d="m21575.3 16541.7s-617.8-1148.9-1531-1008.9c-692.8 106.2 464.9-28.9 765.5 809.8 347.3 969.2 944.3 464.7 765.5 199.1" fill="#f8ce36" transform="matrix(.02 0 0 -.02 -177.9084 617.419)"/><path d="m11717.7 21234.9s-2442.85-132.8-2734.93-1486.9c-292.06-1354.2 982.45-1088.7 1964.93-1035.6 982.4 53.1-929.4-1832.1 770-1991.4 710.4-66.6 1184.1 340.1 1570.6 746.8 538 566.1 906.8 1132.3 1509.5 421.5 1035.5-1221.4 2655.2-1088.7 3451.8 26.5s1460.4 398.3 3027-106.2 2628.7 823.2 2124.2 2442.9c-250.5 804.1 290.9 692 993.9 579.9 713-113.7 1592.2-227.4 1979.9 614.9 770 1672.8-876.2 1964.9 1088.7 2363.2s2814.5 531 2495.9 1606.4-1062.1 1872-3558 809.8c-2495.9-1062-4752.9-5708.7-14683.5-4991.8" fill="#48c75a" transform="matrix(.02 0 0 -.02 -174.6178 632.0962)"/><path d="m11325.3 17952.4c105.3 324.7 194.8 605 40 806.2-80.4 104.6-208.1 157.4-380 157.4-15.8 0-32-.4-48.6-1.3-112.7-6.1-230.4-15-344.3-23.7-205.3-15.6-421.2-32-621.3-32-23.09 0-46.02.3-68.64.7 136.64 488.4 390.74 965.1-63.29 965.1-12.53 0-25.63-.3-39.26-1.1-193.26-10.4-397.73-29-599.4-41.9 104.49 348.6 387.98 601.2 729.29 784 39.04-199.1 84.3-396 135.6-590.4 811.2-410.7 1685.9-690.1 2606.9-846.4-368.4-316.2-752.1-915.3-1347-1176.6m4075.5 184.2c-228.9 0-460.8 38-687.6 116.3-121.1 92.7-242.6 147.3-366.5 165-248.6 139.7-484.9 332.9-696.7 582.7-2.9 3.4-5.8 6.8-8.7 10.2 289.1-22 582-32.9 877.9-32.9 903.6 0 1836.7 101.4 2786.1 297.9-67.2-70.2-134.9-152.6-203.5-248.7-411.8-576.6-1043.6-890.5-1701-890.5m5381.7 675.7c-204.8 0-423.8 34.6-653.7 108.6-720.9 232.2-1250.8 509.4-1690.3 632.3 712.2 200.8 1429.9 452.4 2147.7 752.4 2.9 1.2 5.9 2.4 8.9 3.7.8.3 1.7.7 2.5 1 2.3 1 4.1 1.7 6.4 2.7 1 .4 1.9.8 2.9 1.2 2.1.9 4.4 1.9 6.5 2.8.8.3 1.5.6 2.3.9 2.8 1.2 5.8 2.5 8.6 3.6l.3.2c3.1 1.2 6.3 2.6 9.4 3.9.2.1.3.1.5.2 2.9 1.2 5.6 2.4 8.5 3.6.4.2 1.2.5 1.6.7 2.6 1.1 5.3 2.2 7.9 3.3.4.2.9.4 1.3.6 2.9 1.2 5.9 2.4 8.8 3.7l.3.1c6.3 2.7 12.5 5.3 18.8 8 .2 0 .6.2.8.3 2.9 1.2 5.6 2.4 8.5 3.6.4.2.6.2 1 .4 12.6 5.4 25 10.6 37.6 16l.3.2c28.5 12.1 56.9 24.3 85.3 36.6l.4.2c12.5 5.4 25.1 10.9 37.6 16.3l.4.2c12.5 5.4 24.9 10.8 37.4 16.2l.8.4c12.4 5.5 24.6 10.8 37.1 16.3.3.1.5.2.9.4 2.7 1.2 5.7 2.5 8.4 3.7.4.1.4.1.8.3 9.1 4 18.5 8.2 27.6 12.2l1.2.6c2.6 1.1 5.3 2.3 7.8 3.4.4.2 1.1.5 1.5.7 3.1 1.3 5.7 2.5 8.7 3.8l.1.1c6.1 2.7 12.3 5.4 18.4 8.1.5.3 1 .5 1.6.7 2.4 1.1 5 2.3 7.4 3.3.6.3 1.2.5 1.7.8 2.4 1.1 5.1 2.2 7.5 3.3.5.3 1.1.5 1.7.8 5.9 2.6 11.6 5.2 17.5 7.8.8.4 1.9.9 2.7 1.2 2 .9 4.2 1.9 6.3 2.8.9.5 1.7.8 2.7 1.2 2.1 1 3.9 1.8 6 2.7 1 .5 1.9.9 2.9 1.3 2.2 1 4.7 2.2 7 3.2.5.2 1.1.5 1.7.7 2.8 1.3 5.8 2.6 8.7 3.9.7.4 1.4.7 2.1 1 2.1.9 4.3 1.9 6.4 2.8.9.5 2.3 1.1 3.3 1.5 1.7.8 3.4 1.6 5.2 2.4 1.4.6 2.5 1.1 3.9 1.7 1.5.8 3 1.4 4.6 2.1 1.3.6 2.6 1.2 3.9 1.8 1.5.7 2.8 1.3 4.3 1.9 2.7 1.3 5.7 2.6 8.4 3.8 1.1.5 2.5 1.2 3.6 1.7 1.8.8 3.1 1.4 4.9 2.2l3.3 1.5c1.8.8 3.5 1.6 5.2 2.4 1 .4 2.1.9 3 1.3 2 .9 3.7 1.7 5.6 2.6.2 0 .4.1.6.2 7.2 3.3 14.4 6.6 21.7 9.9.3.1.6.3.9.4 2.3 1.1 4.8 2.2 7.2 3.3l.2.1c390.1 178 769.6 366.6 1137.7 565.4 285.3-1277.4-410.2-2317.2-1533.2-2317.2m3234.4 3053c-139.8 0-281.7 11.4-421.5 28.2 669.2 440.8 1287.6 919.6 1846.8 1433.1-18.2-218.1-78.7-471.3-215.3-768-254-551.8-719-693.3-1210-693.3m2984.9 3196.1c304.1 417.8 573.2 851.8 803.8 1300.4-14.9 32.2-30.1 64.6-45.3 96.6 218.3 43.8 418.7 65.7 600.8 65.7 172.5 0 328.6-19.7 468-59.1 232.6-887.5-387.6-1103.8-1827.3-1403.6" fill="#539256" transform="matrix(.02 0 0 -.02 -173.4328 633.475)"/><path d="m16545.7 17227.8c-6.5 0-13 .1-19.6.1 359 157.5 680.7 413.6 927.7 759.4 327.9 459 634.7 624.8 984.5 624.8 76.5 0 155.2-7.9 236.5-22.5-198.3-103.2-392.9-280.1-590.1-556.1-347.8-486.9-879.6-779.9-1459.1-804-26.7-1.1-53.3-1.7-79.9-1.7" fill="#a4e3ad" transform="matrix(.02 0 0 -.02 -169.599 621.959)"/><path d="m22055 17907.2c789.1 364 1092.3 1359.9 857.4 2556.2-93.1 474.3 113.4 592.4 464.1 592.4 12.7 0 25.5-.1 38.5-.4-62.2-27.4-116.8-66.1-162.6-119-182.6-210.6-113.2-525.6-45.1-744.2 233.5-749.5 108.5-1482.5-326.2-1913-224-221.9-506.2-347.1-826.1-372m3114.4 3052c-44 0-89 1.2-134.8 3.4 417.1 61.9 796.7 261.8 1029.2 766.9 816 1772.7-928.5 2082.2 1153.7 2504.3 1429.7 289.8 2301.8 447.1 2598.8 886.1 20.9-182-18.8-279.6-55.9-341.2-203.7-338.6-976.4-494.7-2146.2-731l-191.2-38.7c-667.3-135.3-965.1-264.6-1098.6-477.3-122.9-195.7-70.5-401.5-15.1-619.4 82-322 184-722.7-118.7-1380.3-203.3-441.6-561-572.8-1021.2-572.8" fill="#a4e3ad" transform="matrix(.02 0 0 -.02 -191.8308 631.541)"/><path d="m10985.3 18916c171.9 0 299.6-52.8 380-157.4 155.9-202.6 64.1-485.5-42.2-813.1-97.2-299.4-207.4-638.9-87.9-820.6 72.3-109.8 240.9-177.8 501.4-202.2 716.3-67 1170.1 426.9 1570.4 862.9 305 332.2 592.2 647.8 962.4 638.6 233-4.6 456.4-136.7 682.9-403.9 454.4-535.9 1048.7-817 1673.3-790.8 579.5 24.1 1111.3 317.1 1459.1 804 702 982.8 1371.1 708.5 2297.2 329.2 278.8-114.2 594.7-243.6 956.8-360.3 614.6-197.8 1162.4-99.6 1542.4 276.8 434.7 430.5 559.7 1163.5 326.2 1913-68.1 218.6-137.5 533.6 45.1 744.2 216.5 249.7 629.5 183.5 1107.7 106.7 847-136 1519.6-186.5 1830.5 488.9 302.7 657.6 200.7 1058.3 118.7 1380.3-55.4 217.9-107.8 423.7 15.1 619.4 133.5 212.7 431.3 342 1098.6 477.3l191.2 38.7c1169.8 236.3 1942.5 392.4 2146.2 731 50.8 84.4 106.6 236.4 4.6 580.6-160.6 542-398.5 871.3-748.8 1036.3-535.7 252.4-1388.9 132.8-2535.7-355.3-591.4-251.6-1188.3-728.8-1879.4-1281.4-1078.8-862.4-2421.5-1935.8-4435.8-2719.8-2355.1-916.6-5118.9-1246-8448.4-1007.3-178.5-12.4-2289.73-184.3-2536.1-1326.6-66.65-309-45.36-528.9 63.31-653.5 214.99-246.7 817.09-201 1348.29-160.7 113.9 8.7 231.6 17.6 344.3 23.7 16.6.9 32.8 1.3 48.6 1.3m882.8-2404.8c-55.1 0-111.5 2.6-169.3 8-394.5 37.1-656.9 162.4-802.1 383.1-226.4 344.2-78.2 801.1 41 1168.3 46.8 144.3 116.2 358.2 105.2 435.3-13.2 3.1-39.1 6.8-84.3 4.2-108.3-5.8-218.7-14.2-335.6-23.1-656.65-49.7-1335.8-101.3-1684.27 298.4-200.02 229.4-250.39 558.3-153.98 1005.3 320.98 1488.2 2815.95 1640.7 2921.95 1646.5 8.5.4 17.1.3 25.6-.3 7397-533.6 10413.2 1877.7 12615.8 3638.5 714.3 571.1 1331.3 1064.4 1973.8 1337.8 1275.4 542.7 2213.2 656.9 2867 348.9 462.3-217.8 768.8-626.9 964.6-1287.7 110.6-373.5 95.6-669.4-45.9-904.6-295.8-491.5-1092.7-652.5-2413.1-919.3l-191-38.6c-494.5-100.2-775.7-199.7-836-295.7-29.1-46.2-5.8-145.6 34.5-304 87.3-343.1 219.3-861.7-143.3-1649.6-464.3-1008.4-1546.6-834.6-2262.8-719.6-266.2 42.7-668.5 107.5-737.3 28.1-2.3-2.6-54.9-67.9 35.6-358.4 282.8-908.1 122.8-1775.8-428-2321.4-485.6-481.1-1197-617.5-1951.8-374.5-376.9 121.4-700.5 254-986.1 370.9-918.3 376.3-1298.4 532-1813.9-189.6-420.9-589.4-1066.8-944.1-1771.9-973.4-752.6-31.1-1462.3 300.3-1999.2 933.6-145 170.9-273.5 258.6-382 260.8-1.3 0-2.7 0-4.1 0-185.7 0-412.1-246.6-651.8-507.6-391.4-426.3-918.4-1000.3-1737.3-1000.3" fill="#6d184e" transform="matrix(.02 0 0 -.02 -174.6182 632.0952)"/><path d="m20586.2 20305.6c3276 1368.9 5887.7 3465.4 7219.4 6056.2-1479.9 3199.3-4693.6 5432.6-8436 5492.8-5199.2 83.7-9524.68-4093-9615.34-9292.1-15.61-895.7 93.88-1763.3 311.14-2587.1 2946.8-1491.7 6734.2-1252.1 10520.8 330.2" fill="#f9a332" transform="matrix(.02 0 0 -.02 -172.744 641.9572)"/><path d="m20658.2 31746.4h-.1zm-9.7 1.5c-.2 0-.3 0-.5 0zm-5.1.7c-.2.1-.1.1-.3.1zm-4.8.8c-.2 0-.4 0-.6.1.2-.1.4-.1.6-.1m-5.1.7-.3.1zm-14.9 2.3c-.3 0-.2 0-.5 0zm-24.5 3.6c-.2 0-.3 0-.5 0zm-4.3.6c-.5.1-.9.1-1.3.2.4-.1.8-.1 1.3-.2m-4.9.7c-.5.1-1.1.2-1.5.2.6-.1.8-.1 1.5-.2m-4.5.7c-.9.1-1.6.2-2.5.3.8-.1 1.7-.2 2.5-.3m-4.9.7c-.9.1-1.7.2-2.6.4 1-.2 1.5-.3 2.6-.4m-5.3.7c-.9.2-1.5.3-2.4.4.8-.1 1.5-.2 2.4-.4m-5.2.8c-.9.1-1.4.2-2.3.3.8-.1 1.4-.2 2.3-.3m-4.9.7c-.9.1-2 .3-2.9.4 1-.2 1.8-.3 2.9-.4m-5.2.7c-.8.1-1.8.3-2.7.4 1.1-.1 1.7-.2 2.7-.4m-5.2.8c-.8.1-1.6.2-2.5.3.8-.1 1.7-.2 2.5-.3m-5.2.7c-.9.1-1.5.2-2.3.3.8-.1 1.5-.2 2.3-.3m-5 .7c-1.1.1-2.2.3-3.3.5 1.2-.2 2-.3 3.3-.5m-5.1.7c-1.5.2-2.6.4-4.2.6 1.5-.2 2.8-.4 4.2-.6m-5.1.7c-1.8.3-3.2.5-5 .7 1.6-.2 3.3-.5 5-.7m-6.1.9c-1.5.2-2.8.3-4.3.5 1.4-.2 2.9-.3 4.3-.5m-5.6.7c-1.3.2-2.5.4-3.9.6 1.5-.2 2.5-.4 3.9-.6m-5.5.8c-1.1.1-2.4.3-3.5.5 1.2-.2 2.3-.3 3.5-.5m-5.6.8c-1.1.1-1.9.2-3 .4 1-.2 2-.3 3-.4m-5.1.7c-1.1.1-2.1.2-3.2.4 1.1-.2 2.1-.3 3.2-.4m-5 .6c-1.1.2-2.5.4-3.6.5 1-.1 2.6-.3 3.6-.5m-4.9.7c-1.3.2-2.6.3-3.9.5 1.4-.2 2.5-.3 3.9-.5m-5.4.7c-1.3.2-2.3.3-3.7.5 1.3-.2 2.5-.3 3.7-.5m-5.1.7c-1.4.2-2.5.3-3.8.5 1.3-.2 2.5-.3 3.8-.5m-5.3.7c-1.3.2-2.7.4-4 .6 1.2-.2 2.8-.4 4-.6m-5 .7c-1.5.2-2.7.3-4.3.5 1.5-.1 2.9-.3 4.3-.5m-5.3.7c-1.8.2-3.2.4-4.9.6 1.6-.2 3.2-.4 4.9-.6m-5 .6c-1.8.3-3.5.5-5.3.7 1.9-.2 3.4-.4 5.3-.7m-5.3.7c-10.6 1.4-21.1 2.8-31.8 4.1 10.6-1.3 21.2-2.7 31.8-4.1m-32.2 4.2c-1.8.2-3.1.4-4.9.6 1.4-.2 3.4-.4 4.9-.6m-5.2.7c-1.8.2-3.3.4-5.1.6 1.7-.2 3.4-.4 5.1-.6m-5.2.6c-3.6.5-6.9.9-10.4 1.3 3.5-.4 6.8-.8 10.4-1.3m-10.8 1.4c-1.7.2-3.3.4-5.1.6 1.9-.2 3.3-.4 5.1-.6m-5.1.6c-1.8.2-3.4.4-5.2.7 1.7-.2 3.5-.5 5.2-.7m-5.4.7c-289.3 35.9-582.5 58.7-879.2 67.9 296.7-9.2 590-32 879.2-67.9m-879.4 67.9c-1.8 0-3.5.1-5.3.1 1.7 0 3.6-.1 5.3-.1m-5.5.1c-1.8.1-3.4.2-5.2.2 1.7 0 3.5-.1 5.2-.2m-5.4.2c-1.8.1-3.3.1-5.1.2 1.5-.1 3.6-.1 5.1-.2m-5.7.2c-1.4 0-3.3.1-4.7.1 1.5 0 3.2-.1 4.7-.1m-5.5.1c-1.4.1-3.3.1-4.6.2 1.4-.1 3.1-.1 4.6-.2m-5.4.2c-1.8 0-3.1.1-4.9.1 1.7 0 3.2-.1 4.9-.1m-5.3.1c-1.6.1-3.4.1-5 .2 1.5-.1 3.5-.1 5-.2m-5.5.2c-10.9.3-21.6.5-32.5.8 10.9-.3 21.6-.5 32.5-.8m-33.2.8c-1.6.1-3.3.1-4.9.1 1.8 0 3.2 0 4.9-.1m-5.2.2c-1.9 0-3.1 0-4.9.1 1.7-.1 3.2-.1 4.9-.1m-6 .1c-1.4 0-2.9.1-4.3.1 1.5-.1 2.8-.1 4.3-.1m-5.5.1c-1.4 0-2.7.1-4.1.1 1.3 0 2.8-.1 4.1-.1m-5.5.1c-1.3.1-2.6.1-3.9.1 1.2 0 2.6 0 3.9-.1m-5.5.1c-1.2.1-2.4.1-3.5.1 1.3 0 2.2 0 3.5-.1m-5.6.1c-1.1.1-2.2.1-3.3.1 1.1 0 2.3 0 3.3-.1m-5.3.2c-1.1 0-2.3 0-3.4 0zm-5.3.1c-1.1 0-2.3 0-3.5 0zm-5.4.1c-1.2 0-2.1 0-3.2 0zm-5.4.1c-1.1 0-2.2 0-3.3 0zm-5.3 0c-1.4.1-2.8.1-4.1.1 1.5 0 2.6 0 4.1-.1m-5.3.1c-1.8.1-3.5.1-5.4.1 1.7 0 3.7 0 5.4-.1m-5.4.1c-4.7.1-9.6.2-14.3.2 4.8 0 9.5-.1 14.3-.2m-226.2 1c12.4.2 24.8.3 37.2.3 1.4 0 2.8-.1 4.2-.1-13.9 0-27.5-.1-41.4-.2" fill="#fff6af" transform="matrix(.02 0 0 -.02 -175.736 658.983)"/><path d="m10704.4 26519.3c1527.4 3127.9 4730.3 5293.8 8403.6 5335.5 11.8.4 23.5.6 35.4.8 13.9.1 27.5.2 41.4.2h2.9 30.4c45.6 0 91.4-.3 137.2-1 4.7 0 9.6-.1 14.3-.2 1.9 0 3.6 0 5.4-.1h1.2c1.3 0 2.7 0 4.1-.1h2 3.3c.6-.1 1.5-.1 2.2-.1h3.2c.6-.1 1.3-.1 1.9-.1h3.5c.7-.1 1.2-.1 1.9-.1h3.4c.7-.1 1.4-.1 2-.1 1.1 0 2.2 0 3.3-.1h2.1c1.1 0 2.3 0 3.5-.1h1.6c1.3 0 2.6 0 3.9-.1h1.4c1.4 0 2.7-.1 4.1-.1h1.2c1.4 0 2.9-.1 4.3-.1h1.1c1.8-.1 3-.1 4.9-.1l.3-.1c1.6 0 3.3 0 4.9-.1h.7c10.9-.3 21.6-.5 32.5-.8h.5c1.6-.1 3.4-.1 5-.2h.4c1.8 0 3.1-.1 4.9-.1h.8c1.3-.1 3.2-.1 4.6-.2h.8c1.4 0 3.3-.1 4.7-.1h.6c1.8-.1 3.3-.1 5.1-.2h.2c1.8 0 3.4-.1 5.2-.2h.2c1.8 0 3.5-.1 5.3-.1h.2c296.7-9.2 589.9-32 879.2-67.9h.2c1.8-.3 3.4-.5 5.2-.7 1.8-.2 3.4-.4 5.1-.6l.4-.1c3.5-.4 6.8-.8 10.4-1.3h.1c1.8-.2 3.3-.4 5.1-.6.2-.1.1-.1.3-.1 1.8-.2 3.1-.4 4.9-.6.2 0 .2 0 .4-.1 10.7-1.3 21.2-2.7 31.8-4.1 1.8-.2 3.5-.4 5.3-.7h.1c1.7-.2 3.1-.4 4.9-.6.2 0 .8-.1 1-.2 1.6-.2 2.8-.3 4.3-.5.4-.1.5-.1 1-.1 1.3-.2 2.7-.4 4-.6.6-.1.9-.1 1.5-.2 1.3-.2 2.4-.3 3.8-.5.4 0 1-.1 1.4-.2 1.4-.2 2.4-.3 3.7-.5.4 0 1.1-.1 1.5-.2 1.3-.2 2.6-.3 3.9-.5.4-.1.9-.1 1.3-.2 1.1-.1 2.5-.3 3.6-.5.6-.1 1.2-.1 1.8-.2 1.1-.2 2.1-.3 3.2-.4.8-.2 1.3-.2 2.1-.3 1.1-.2 1.9-.3 3-.4.7-.1 1.5-.2 2.1-.3 1.1-.2 2.4-.4 3.5-.5.4-.1 1.2-.2 1.6-.2 1.4-.2 2.6-.4 3.9-.6.4 0 .9-.1 1.3-.2 1.5-.2 2.8-.3 4.3-.5.3-.1.9-.2 1.1-.2 1.8-.2 3.2-.4 5-.7.4 0 .5-.1.9-.1 1.6-.2 2.7-.4 4.2-.6.5-.1 1.3-.2 1.8-.2 1.1-.2 2.2-.4 3.3-.5.8-.1 1.8-.3 2.7-.4.8-.1 1.4-.2 2.3-.3.8-.1 1.9-.3 2.7-.4.9-.1 1.7-.2 2.5-.3.9-.2 1.7-.3 2.5-.4.9-.1 1.9-.3 2.7-.4.7-.1 1.7-.2 2.3-.3.9-.1 2-.3 2.9-.4.8-.1 1.7-.3 2.6-.4s1.4-.2 2.3-.3c.8-.1 2-.3 2.8-.4.9-.1 1.5-.2 2.4-.4.8-.1 1.9-.2 2.7-.3.9-.2 1.7-.3 2.6-.4.8-.1 1.6-.3 2.4-.4.9-.1 1.6-.2 2.5-.3.8-.2 2.1-.3 3-.5.4 0 1-.1 1.5-.2 1.2-.2 2.3-.3 3.6-.5.4-.1.8-.1 1.3-.2 1.2-.2 2.6-.4 3.8-.6h.5c7.9-1.2 16.2-2.4 24-3.6h.5c3.3-.5 6.5-1 9.8-1.5 1.7-.3 3.2-.5 4.8-.7l.3-.1c1.4-.2 3-.4 4.5-.6.2-.1.4-.1.6-.1 1.6-.3 2.8-.5 4.5-.7.2 0 .1 0 .3-.1 1.7-.2 2.9-.4 4.6-.7h.5c1.5-.3 3.2-.5 4.7-.8 1.7-.2 3.3-.5 4.9-.7h.1c2960.2-453.4 5468.3-2278.9 6855.6-4806.8-1610.6 2249.5-4116.5 3813.5-6996.7 4172.9-60.9-348-635.9-620.9-1336.5-620.9-688.2 0-1255.1 263.3-1332.7 602.5-1698.4-237-3268.9-898-4597.1-1873.3 2.4 4.4 4.8 8.8 7.1 13.2v-.1c-13.9-12.8-27.7-25.6-41.5-38.5-988.7-732.4-1841.9-1639.7-2512-2676.1" fill="#fcd199" transform="matrix(.02 0 0 -.02 -173.622 652.011)"/><path d="m20586.2 20305.6c3 1.2 5.9 2.4 8.9 3.7-3-1.3-6-2.5-8.9-3.7zm11.4 4.7c2.2 1 4.2 1.8 6.4 2.7-2.3-1-4.1-1.7-6.4-2.7m9.3 3.9c2 .9 4.5 1.9 6.5 2.8-2.1-.9-4.4-1.9-6.5-2.8m8.8 3.7c3 1.3 5.6 2.4 8.6 3.6-2.8-1.1-5.8-2.4-8.6-3.6m8.9 3.8c3.2 1.3 6.2 2.6 9.4 3.9-3.1-1.3-6.3-2.7-9.4-3.9m9.9 4.1c2.8 1.2 5.7 2.4 8.5 3.6-2.9-1.2-5.6-2.4-8.5-3.6m10.1 4.3c2.8 1.1 5.1 2.1 7.9 3.3-2.6-1.1-5.3-2.2-7.9-3.3m9.2 3.9c3 1.2 5.8 2.4 8.8 3.7-2.9-1.3-5.9-2.5-8.8-3.7m9.1 3.8c6.4 2.7 12.4 5.3 18.8 8-6.3-2.7-12.5-5.3-18.8-8m19.6 8.3c2.8 1.2 5.7 2.4 8.5 3.6-2.9-1.2-5.6-2.4-8.5-3.6m9.5 4c12.5 5.3 25 10.7 37.6 16-12.6-5.4-25-10.6-37.6-16m37.9 16.2c28.6 12.2 56.8 24.3 85.3 36.6-28.4-12.3-56.8-24.5-85.3-36.6m85.7 36.8c12.7 5.5 25 10.8 37.6 16.3-12.5-5.4-25.1-10.9-37.6-16.3m38 16.5c12.5 5.4 24.9 10.8 37.4 16.2-12.5-5.4-24.9-10.8-37.4-16.2m38.2 16.6c12.2 5.4 24.8 10.9 37.1 16.3-12.5-5.5-24.7-10.8-37.1-16.3m38 16.7c2.7 1.2 5.6 2.5 8.4 3.7-2.7-1.2-5.7-2.5-8.4-3.7m9.2 4c9 4 18.5 8.2 27.6 12.2-9.1-4-18.5-8.2-27.6-12.2m28.8 12.8c2.8 1.2 5.1 2.2 7.8 3.4-2.5-1.1-5.2-2.3-7.8-3.4m9.3 4.1c3 1.3 5.7 2.5 8.7 3.8-3-1.3-5.6-2.5-8.7-3.8m8.8 3.9c6.1 2.7 12.3 5.4 18.4 8.1-6.1-2.7-12.3-5.4-18.4-8.1m20 8.8c2.4 1.1 5 2.3 7.4 3.3-2.4-1-5-2.2-7.4-3.3m9.1 4.1c2.6 1.1 4.9 2.2 7.5 3.3-2.4-1.1-5.1-2.2-7.5-3.3m9.2 4.1c5.9 2.6 11.6 5.2 17.5 7.8-5.9-2.6-11.6-5.2-17.5-7.8m20.2 9c2.1 1 4.1 1.9 6.3 2.8-2.1-.9-4.3-1.9-6.3-2.8m9 4c2 .9 4 1.8 6 2.7-2.1-.9-3.9-1.7-6-2.7m8.9 4c2.3 1.1 4.6 2.1 7 3.2-2.3-1-4.8-2.2-7-3.2m8.7 3.9c2.7 1.3 5.9 2.7 8.7 3.9-2.9-1.3-5.9-2.6-8.7-3.9m10.8 4.9c2.2 1 4.2 1.9 6.4 2.8-2.1-.9-4.3-1.9-6.4-2.8m9.7 4.3c1.7.8 3.4 1.6 5.2 2.4-1.8-.8-3.5-1.6-5.2-2.4m9.1 4.1c1.5.7 3 1.4 4.6 2.1-1.6-.7-3.1-1.3-4.6-2.1m8.5 3.9c1.4.6 2.9 1.3 4.3 1.9-1.5-.6-2.8-1.2-4.3-1.9m12.7 5.7c1.2.6 2.4 1.1 3.6 1.7-1.1-.5-2.5-1.2-3.6-1.7m8.5 3.9c1 .4 2.4 1.1 3.3 1.5-1.1-.5-2.2-1-3.3-1.5m8.5 3.9c1 .4 2 .9 3 1.3-.9-.4-2-.9-3-1.3m8.6 3.9c.2 0 .4.1.6.2-.2-.1-.4-.2-.6-.2m22.3 10.1c.3.1.5.2.9.4-.3-.1-.6-.3-.9-.4m8.1 3.7.2.1z" fill="#5b6d54" transform="matrix(.02 0 0 -.02 -178.352 628.667)"/><path d="m14520.9 18978.5c-724.8 0-1430.6 65.4-2109.7 199.3-335.1 82.9-663.4 182.5-983.4 301-589.9 218.4-1012.4 741.7-1108.3 1363.4-81.2 526.6-119 1067.5-109.4 1619 46.3 2655.6 1198.1 5043.7 3006.3 6734.2 11.5 8.5 22.9 16.9 34.4 25.4-685.4-1278.4-1086-2731.3-1112.9-4274.7-.5-29-.9-58.1-1.1-87.1-13.7-1619.2 1137.4-3010.3 2728.4-3312.1 657-124.6 1338.3-185.4 2037.6-185.4 1931.2 0 3999.4 463.7 6067 1327.7 1467.6 613.2 2801.2 1372.9 3946.7 2257.1-1345.2-1796.3-3344.4-3289.8-5738.5-4382.2l-.2-.1c-2.4-1.1-4.8-2.2-7.2-3.3-.4-.2-.6-.3-.9-.4-7.3-3.3-14.4-6.6-21.7-9.9-.2-.1-.4-.2-.6-.2-1.9-.9-3.7-1.7-5.6-2.6-1-.4-2-.9-3-1.3-1.7-.8-3.4-1.6-5.2-2.4-.9-.4-2.3-1.1-3.3-1.5-1.8-.8-3.1-1.4-4.9-2.2-1.2-.6-2.4-1.1-3.6-1.7-2.8-1.2-5.6-2.5-8.4-3.8-1.4-.6-2.9-1.3-4.3-1.9-1.2-.6-2.7-1.2-3.9-1.8-1.6-.7-3.1-1.4-4.6-2.1-1.3-.5-2.6-1.1-3.9-1.7-1.8-.8-3.5-1.6-5.2-2.4-1.1-.5-2.2-.9-3.3-1.5-2.2-.9-4.2-1.8-6.4-2.8-.8-.4-1.4-.6-2.1-1-2.8-1.2-6-2.6-8.7-3.9-.7-.3-1.1-.5-1.7-.7-2.4-1.1-4.7-2.1-7-3.2-1-.4-2-.8-2.9-1.3-2-.9-4-1.8-6-2.7-.9-.4-1.8-.8-2.7-1.2-2.2-.9-4.2-1.8-6.3-2.8-.8-.4-1.9-.8-2.7-1.2-5.9-2.6-11.6-5.2-17.5-7.8-.6-.3-1.1-.5-1.7-.8-2.6-1.1-4.9-2.2-7.5-3.3-.6-.3-1.1-.5-1.7-.8-2.4-1-5-2.2-7.4-3.3-.6-.2-1-.4-1.6-.7-6.1-2.7-12.3-5.4-18.4-8.1l-.1-.1c-3-1.3-5.7-2.5-8.7-3.8-.4-.2-1-.5-1.5-.7-2.7-1.2-5-2.2-7.8-3.4-.5-.3-.7-.4-1.2-.6-9.1-4-18.6-8.2-27.6-12.2-.4-.1-.5-.2-.8-.3-2.8-1.2-5.7-2.5-8.4-3.7-.4-.2-.6-.3-.9-.4-12.3-5.4-24.9-10.9-37.1-16.3-.2-.1-.7-.3-.8-.4-12.5-5.4-24.9-10.8-37.4-16.2-.1-.1-.2-.1-.4-.2-12.6-5.5-24.9-10.8-37.6-16.3-.2-.1-.3-.1-.4-.2-28.5-12.3-56.7-24.4-85.3-36.6l-.3-.2c-12.6-5.3-25.1-10.7-37.6-16-.4-.1-.7-.3-1-.4-2.8-1.2-5.7-2.4-8.5-3.6-.2-.1-.6-.3-.8-.3-6.4-2.7-12.4-5.3-18.8-8-.1-.1-.1-.1-.3-.1-3-1.3-5.8-2.5-8.8-3.7-.5-.2-.8-.4-1.3-.6-2.8-1.2-5.1-2.2-7.9-3.3-.5-.2-1.1-.5-1.6-.7-2.8-1.2-5.7-2.4-8.5-3.6-.1 0-.3-.1-.5-.2-3.2-1.3-6.2-2.6-9.4-3.9-.2-.1-.2-.1-.3-.2-3-1.2-5.6-2.3-8.6-3.6-.8-.3-1.5-.6-2.3-.9-2-.9-4.5-1.9-6.5-2.8-.9-.4-2-.8-2.9-1.2-2.2-.9-4.2-1.7-6.4-2.7-.8-.3-1.7-.7-2.5-1-3-1.3-5.9-2.5-8.9-3.7-2067.3-863.9-4134.5-1327.1-6065.3-1327.1" fill="#cf793a" transform="matrix(.02 0 0 -.02 -172.1714 638.443)"/><path d="m13216.4 29195.4c13.8 12.9 27.6 25.7 41.5 38.5v.1c-2.3-4.4-4.7-8.8-7.1-13.2-11.5-8.5-22.9-16.9-34.4-25.4" fill="#d19982" transform="matrix(.02 0 0 -.02 -157.963 652.084)"/><g fill="#fce69f"><path d="m14572.3 28239c-98-308.2-267.3-533.7-375.1-499.4s-115.8 316.1-17.8 624.3c97.9 308.2 267.3 533.7 375.1 499.4 101-32.1 115.6-282.1 33.3-572.7z" transform="matrix(.02 0 0 -.02 -160.9988 649.649)"/><path d="m16172.1 28040.5c-55.3-318.7-192.5-565-304-545.6-111.4 19.3-157.6 297.5-102.3 616.1 55.4 318.7 192.6 565 304 545.6 104.5-18.1 152.8-263.8 110.7-562.9z" transform="matrix(.02 0 0 -.02 -165.2508 649.045)"/><path d="m18237.4 28104.5c45-320.3-10.1-596.8-122.1-612.6-112-15.7-241.2 234.9-286.2 555.2-45 320.2 10.1 596.7 122.1 612.5 105 14.7 226.3-204.3 277.9-501.9z" transform="matrix(.02 0 0 -.02 -170.755 649.045)"/><path d="m19964.5 28766.8c171.1-274.5 232.9-549.5 137-609.4-96-59.8-315.8 116.8-486.9 391.2-171.2 274.5-233 549.5-137 609.4 89.9 56.1 289.7-94.9 457.6-346z" transform="matrix(.02 0 0 -.02 -175.4404 650.5944)"/><path d="m21289.1 29865.2c229.3-228.2 352.2-481.9 272.4-562.1-79.8-80.1-334 41.7-563.3 269.8-229.2 228.2-352.2 481.9-272.4 562.1 74.8 75.1 303.8-26.3 524.6-232.4z" transform="matrix(.02 0 0 -.02 -179.0532 653.4316)"/></g><path d="m14785.3 23008.6c-107.6 0-194.7 87.2-194.7 194.7 0 107.6 87.1 194.8 194.7 194.8 107.5 0 194.7-87.2 194.7-194.8 0-107.5-87.2-194.7-194.7-194.7" fill="#cf793a" transform="matrix(.02 0 0 -.02 -162.096 636.057)"/><path d="m17925.7 24858.5c-107.5 0-194.7 87.2-194.7 194.7 0 107.6 87.2 194.8 194.7 194.8 107.6 0 194.7-87.2 194.7-194.8 0-107.5-87.1-194.7-194.7-194.7" fill="#cf793a" transform="matrix(.02 0 0 -.02 -170.464 640.985)"/><path d="m18569.3 22832.1c-107.6 0-194.7 87.2-194.7 194.7s87.1 194.7 194.7 194.7c107.5 0 194.7-87.2 194.7-194.7s-87.2-194.7-194.7-194.7" fill="#e99335" transform="matrix(.02 0 0 -.02 -172.186 635.586)"/><path d="m20448.4 25215.6c-107.6 0-194.7 87.1-194.7 194.7 0 107.5 87.1 194.7 194.7 194.7 107.5 0 194.7-87.2 194.7-194.7 0-107.6-87.2-194.7-194.7-194.7" fill="#e99335" transform="matrix(.02 0 0 -.02 -177.198 641.936)"/><path d="m22458.4 23621.9c-107.5 0-194.7 87.2-194.7 194.7 0 107.6 87.2 194.7 194.7 194.7 107.6 0 194.8-87.1 194.8-194.7 0-107.5-87.2-194.7-194.8-194.7" fill="#cf793a" transform="matrix(.02 0 0 -.02 -182.559 637.692)"/><path d="m22718.9 26568.2c-107.5 0-194.7 87.2-194.7 194.7 0 107.6 87.2 194.8 194.7 194.8 107.6 0 194.7-87.2 194.7-194.8 0-107.5-87.1-194.7-194.7-194.7" fill="#cf793a" transform="matrix(.02 0 0 -.02 -183.248 645.549)"/><path d="m24118.6 28236.8c-107.6 0-194.8 87.1-194.8 194.7 0 107.5 87.2 194.7 194.8 194.7 107.5 0 194.7-87.2 194.7-194.7 0-107.6-87.2-194.7-194.7-194.7" fill="#cf793a" transform="matrix(.02 0 0 -.02 -186.981 649.99)"/><path d="m14824.3 25031c-107.5 0-194.7 87.2-194.7 194.7s87.2 194.7 194.7 194.7c107.6 0 194.8-87.2 194.8-194.7s-87.2-194.7-194.8-194.7" fill="#e99335" transform="matrix(.02 0 0 -.02 -162.197 641.444)"/><path d="m26028.5 26402.9c-107.5 0-194.7 87.1-194.7 194.7 0 107.5 87.2 194.7 194.7 194.7 107.6 0 194.7-87.2 194.7-194.7 0-107.6-87.1-194.7-194.7-194.7" fill="#cf793a" transform="matrix(.02 0 0 -.02 -192.08 645.102)"/><path d="m24765.8 24276.5c-107.5 0-194.7 87.2-194.7 194.7s87.2 194.7 194.7 194.7 194.7-87.2 194.7-194.7-87.2-194.7-194.7-194.7" fill="#e99335" transform="matrix(.02 0 0 -.02 -188.706 639.434)"/><path d="m19215.2 31653.3c-5031.7 0-9170.4-4048.7-9258.4-9094.4-9.32-535.3 27.39-1072.9 109.2-1597.9 84.4-542 453.6-996.5 963.7-1186.3 2647.7-984.9 6013.8-729.9 9478.4 717.8 2941.8 1229.2 5225.9 2987.9 6605.3 5085.9 315 479 328.6 1103.4 34.6 1590.7-1661.7 2755.4-4570.8 4431.3-7781.6 4483-50.4.7-101 1.2-151.2 1.2zm-4699-12878.2c-1302.8 0-2519.2 207.5-3627.8 619.9-647.3 240.8-1115.85 817-1222.78 1503.7-85.31 547.8-123.64 1108.8-113.9 1667.3 44.78 2568.2 1093.78 4972.3 2953.78 6769.3 1859.5 1796.5 4298.4 2764.6 6867.4 2721.8 1664.9-26.7 3300.3-484.7 4729.5-1324.5 1387.8-815.5 2561-1975.4 3392.6-3354.2 374-620.1 357.1-1414-43-2022.5-1424-2165.8-3771.1-3976.8-6787.7-5237.2-1747.6-730.3-3465.5-1167.9-5106.1-1300.7-353-28.6-700.5-42.9-1042-42.9" fill="#6d184e" transform="matrix(.02 0 0 -.02 -172.4246 641.9556)"/><path d="m25030.8 12801.6c-116.7-629.6-721.7-1045.2-1351.3-928.5-629.5 116.8-1045.2 721.8-928.4 1351.4 68.6 369.9 216.9 285.9 458.8 201.9 169.7-59 385.4-117.9 651.9-20 761.1 279.5 1285.8 24.7 1169-604.8" fill="#fcaf15" transform="matrix(.02 0 0 -.02 -186.3752 608.0056)"/><path d="m23677.5 11873.5c-.1 0-.1 0-.1 0z" fill="#fff6af" transform="matrix(.02 0 0 -.02 -185.809 605.84)"/><path d="m23677.5 11873.5h-.1zm775.5 800.6c28.4 70.6 50.2 145 64.6 222.7 54 290.6-30.1 500.1-209.8 615.3 39.7 3.8 78.1 5.6 115.3 5.6 435.4 0 690-255.8 609-709.1 25.9 144.8 16.4 268.8-21.1 371.7-132-202.8-330.1-389.4-558-506.2m578.3 129.8c0 .2.1.5.1.8 0-.3-.1-.5-.1-.8m.4 2.2c.1.8.2 1.5.4 2.3-.2-.8-.3-1.5-.4-2.3" fill="#fed78a" transform="matrix(.02 0 0 -.02 -187.6344 608.032)"/><path d="m23679.5 11873.1c-.7.2-1.3.3-2 .4.6-.1 1.3-.2 2-.4m1277.3 683.2c33 77.2 58.1 159.3 74 245.3.2.7.3 1.5.5 2.3-.2-.8-.3-1.5-.5-2.3-15.9-86-41-168.1-74-245.3z" fill="#d18126" transform="matrix(.02 0 0 -.02 -187.608 607.08)"/><path d="m22751.1 13224.5c0 .3.1.7.2 1.1-.1-.4-.2-.8-.2-1.1" fill="#6d184e" transform="matrix(.02 0 0 -.02 -183.334 609.441)"/><path d="m23677.4 11873.5c-628.4 117.7-1043 722.1-926.3 1351 0 .3.1.7.2 1.1 35.7 191.4 92.9 260.5 173.5 271.2 116.6-410.4 434.9-849.7 882.9-932.8 53.4-9.9 106.7-14.6 160-14.6 167.9 0 333.3 46.9 485.3 124.7-169.6-420.8-572.8-703.8-1024.5-723.3 78.4-34.1 161.3-60.8 248.9-77.3m1354 931.2c.1.4.2.9.3 1.4-.1-.5-.2-1-.3-1.4m.7 3.7v.2c0-.1 0-.2 0-.2" fill="#d18126" transform="matrix(.02 0 0 -.02 -186.3554 608.003)"/><path d="m23892.3 11853.5h-.1zm7.3 0c460.5 3 877.1 281.3 1057.2 702.8-180.1-421.6-596.7-699.9-1057.2-702.8" fill="#d3b392" transform="matrix(.02 0 0 -.02 -187.8 606.728)"/><path d="m23892.3 11853.5h-.1c-70.1 0-141.3 6.4-212.7 19.6-.7.2-1.4.3-2 .4h-.1c-87.6 16.5-170.5 43.2-248.9 77.3 451.7 19.5 854.9 302.5 1024.5 723.3 227.9 116.8 426 303.4 558 506.2 37.5-102.9 47-226.9 21.1-371.7 0-.1 0-.2 0-.2-.2-.8-.3-1.5-.4-2.3-.1-.5-.2-1-.3-1.4 0-.3-.1-.6-.1-.8-.2-.8-.3-1.6-.5-2.3-15.9-86-41-168.1-74-245.3-180.1-421.5-596.7-699.8-1057.2-702.8-2.5 0-4.9 0-7.3 0" fill="#d29d78" transform="matrix(.02 0 0 -.02 -187.302 607.558)"/><path d="m22977.2 13291.1c-7.4-19.2-17.3-51.5-26.9-103.6-46.6-251.3 7.4-505.6 152.1-716.3 144.7-210.6 362.8-352.2 614-398.9 251.4-46.5 505.7 7.4 716.4 152.2 210.6 144.6 352.2 362.8 398.9 614 22.8 123.2 26.1 290.2-88 386.5-147.4 124.4-458.5 121-812-8.8-363.2-133.4-651-30.5-841.4 37.6-36.1 12.9-81.8 29.3-113.1 37.3zm916.7-1640.4c-83.5 0-167.5 7.7-251.4 23.3-357.6 66.3-668 267.9-874.1 567.8-206 299.8-282.9 661.9-216.5 1019.6 25.8 139.4 74.3 310.1 220.9 394.5 151.9 87.5 312.3 30 453.9-20.6 167.2-59.7 340-121.5 565.3-38.8 504.7 185.4 946.8 162.8 1213-61.9 205.1-173.1 285-446.6 225-770-66.3-357.7-268-668.1-567.8-874.1-229.6-157.7-495.7-239.8-768.3-239.8" fill="#6d184e" transform="matrix(.02 0 0 -.02 -186.371 608.0066)"/><path d="m26538.5 20786.6c81.8-37.6 177.4-28 255 17.5 320.6 188.3 1344.5 810.6 1516.9 1177.7 192.1 409.2-2350.6-929.4-1771.9-1195.2" fill="#e5525f" transform="matrix(.02 0 0 -.02 -195.6942 631.2734)"/></svg>