<svg height="16" viewBox="0 0 204 16" width="204" xmlns="http://www.w3.org/2000/svg"><path d="m3410 1858.61c0-27.62-22.38-50-50-50h-1890c-27.61 0-50 22.38-50 50 0 27.61 22.39 50 50 50h1890c27.62 0 50-22.39 50-50" fill="#d14624" transform="matrix(.1 0 0 -.1 -138.97 194.241)"/><path d="m3410 1858.61h-30c-.02-5.62-2.19-10.43-5.86-14.15-3.71-3.66-8.52-5.84-14.14-5.85h-1890c-5.62.01-10.43 2.19-14.14 5.85-3.67 3.72-5.84 8.53-5.86 14.15.02 5.62 2.19 10.43 5.86 14.14 3.71 3.66 8.52 5.84 14.14 5.86h1890c5.62-.02 10.43-2.2 14.14-5.86 3.67-3.71 5.84-8.52 5.86-14.14h30 30c.01 21.99-9 42.18-23.43 56.57-14.38 14.43-34.57 23.44-56.57 23.43h-1890c-21.99.01-42.18-9-56.57-23.43-14.43-14.38-23.44-34.58-23.43-56.57-.01-22 9-42.19 23.43-56.57 14.39-14.43 34.58-23.45 56.57-23.43h1890c22-.02 42.19 9 56.57 23.43 14.43 14.38 23.44 34.57 23.43 56.57z" fill="#091019" transform="matrix(.1 0 0 -.1 -138.97 194.241)"/><path d="m3329.04 1778.61h-237.04c1.15 5.6 2.27 11.2 3.35 16.82h233.69z" fill="#080d11" transform="matrix(.1 0 0 -.1 -138.962 194.242)"/><path d="m3360 1838.61h-257.1c2.13 13.28 4.06 26.61 5.81 40h251.29c5.62-.02 10.43-2.2 14.14-5.86 3.67-3.71 5.84-8.52 5.86-14.14-.02-5.62-2.19-10.43-5.86-14.15-3.71-3.66-8.52-5.84-14.14-5.85" fill="#bb2f22" transform="matrix(.1 0 0 -.1 -138.965 194.241)"/><g fill="#070c0f" transform="matrix(.1 0 0 -.1 -138.968 194.244)"><path d="m3371.09 1803.33h-274.29c2.18 11.72 4.22 23.48 6.1 35.28h257.1c5.62.01 10.43 2.19 14.14 5.85 3.67 3.72 5.84 8.53 5.86 14.15-.02 5.62-2.19 10.43-5.86 14.14-3.71 3.66-8.52 5.84-14.14 5.86h10c7.9 0 15.63 3.2 21.21 8.78 3.16 3.16 5.55 6.99 7.04 11.16 14.6-9.09 24.31-25.28 24.31-43.75 0-28.42-23.03-51.47-51.47-51.47"/><path d="m3370 1878.61h-261.29c1.2 9.2 2.3 18.42 3.32 27.67h259.06c9.97 0 19.28-2.83 27.16-7.73-1.49-4.17-3.88-8-7.04-11.16-5.58-5.58-13.31-8.78-21.21-8.78"/></g></svg>