<svg height="265" viewBox="0 0 319 265" width="319" xmlns="http://www.w3.org/2000/svg"><path d="m26413.3 16710.6c-196.6-177.9-325.1-394-598.4-504.9-135.3-54.9-268.9-33.4-414.6-51.4-200.7-24.9-331-148.2-418.9-293.9-137-227.4-299.8-421.2-639.8-399.9-344.9 21.6-609.5-34.1-761.6-317.1-86.6-161.4-187.7-349.8-422.4-374.6-91.8-9.7-572.6-51.1-775.5-233.8l-683.1 867.6c1.2 9.4 417 388.8 560.3 439.3 154.2 54.4 316 36.8 473.4 64.6 225.6 39.7 361.8 125.7 497.7 280.2 133.5 151.7 209.4 341.4 466.1 371.6 208.2 24.4 392.9-19.4 587.7 80.6 179.6 92.3 226.3 259.3 363.5 381.5 158.7 141.4 397.7 142.7 616.5 168.3 219.5 25.7 565 230.9 726.3 351.7 97.7-301.2 318.4-585.6 422.8-829.8" fill="#cc5552" transform="matrix(.06 0 0 -.06 -1265.029 1131.372)"/><path d="m26103.3 17278.1c-12.6 24.3-24.8 48.8-36.4 73.4 1.6 1.1 3.2 2.2 4.9 3.3 11.3-25 23.2-49.9 35.5-74.7-1.3-.6-2.7-1.3-4-2" fill="#ffdbd1" transform="matrix(.06 0 0 -.06 -1270.446 1134.777)"/><path d="m23351.6 15919.5c1.9 28.4 5.2 51.6 10.4 65.9 18.8 51.8 36.4 101.7 52.6 148.7 87.7 87.5 181.1 167.6 305.9 213.5 223 81.9 476.6 13 670 180 62.1 53.6 121.5 106.2 183.8 159.4 55 46.9 150.3 148.2 231.7 148.2 5.4 0 10.8-.4 16.1-1.4-10-32.9-52.2-55.5-61.5-87.3 5.7-.8 11.2-1.2 16.7-1.2 45.8 0 85.3 27.1 120.2 56.9 38.9 33.2 36.5 61.7 59.7 100.5 24.8 41.3 102.5 73 163.9 73 18.1 0 34.7-2.7 48.2-8.8 9-4.1 4.7-26.4 19.1-32.9 8.1-3.6 15.4-5 22.4-5 14.5 0 27.8 5.8 43.9 10 56.3 14.4 111.4 42.1 162.5 68.3 94 48.4 176.1 138.1 273.2 172.9 15.5-25.5 22.1-37.9 37.9-37.9 9.2 0 21.6 4.3 40.6 12.5 60.5 26.3 113.4 74.1 170.9 108.5 27.9 16.7 74.5 53.1 127.1 88.2 11.6-24.6 23.8-49.1 36.4-73.4-61.1-30.7-123.3-58.8-181.5-86.7-71.8-34.3-127.7-84.1-193.7-127-52.2-33.8-82.1-19.5-131.8-50.7-54.1-33.9-102.8-77.2-163.3-100.6-66.8-25.7-139.6-32.8-207.5-56.1-48.2-16.4-94.2-37.8-142.8-53.8-36.1-11.8-66-5.6-97.9-11.5-46.3-8.4-111.4-56.1-120.3-108.7-6.8-40 14.6-52.6 43.7-52.6 28.1 0 63.3 11.8 87.4 22 148.5 63.1 292.3 120 444.5 171.6 31.1 10.5 214.8 103.4 280.7 103.4 11.2 0 18.9-2.7 22.1-8.8 39.2-77.1-296.1-179.9-333.5-195.2-147.5-60.3-296.1-130.1-448.4-176.3-38-11.5-70.3-18.3-102.2-18.3-28.5 0-56.6 5.4-88.3 17.6-20.8 8-40.7 11.6-59.9 11.6-100.2 0-180.5-97.2-268-161-125.3-91.4-241.4-79-382.9-111.1-128.7-29.2-255.5-54.2-366.1-129.5-62.4-42.5-115.4-97.6-178.9-138.5-53.5-34.4-108.9-65.5-163.1-98.4" fill="#e6867b" transform="matrix(.06 0 0 -.06 -1266.817 1132.97)"/><path d="m22273.3 14664.6-79.6 101.1c.5 2.2 1.1 4.3 1.7 6.5l82.1-104.4c-1.4-1-2.8-2.1-4.2-3.2" fill="#ffdbd1" transform="matrix(.06 0 0 -.06 -1260.176 1127.854)"/><path d="m22277.5 14667.8-82.1 104.4c.1.4.3.9.4 1.4l82.7-105c-.3-.3-.6-.5-1-.8" fill="#e6867b" transform="matrix(.06 0 0 -.06 -1260.177 1127.862)"/><path d="m26306.3 16919.7c-10.5 18.4-21.2 37-32.1 55.8.5.3.9.6 1.3.9 11-18.8 21.8-37.3 32.4-55.7-.5-.4-1.1-.7-1.6-1" fill="#ffdbd1" transform="matrix(.06 0 0 -.06 -1270.983 1133.793)"/><path d="m23351.5 15213.5c-26.7 0-53.1 3.9-79.4 7.8-26.2 3.9-52.4 7.8-78.6 7.8-4.8 0-9.6-.1-14.3-.4 29 64.6 75.6 132.7 113 200.6 30.1 36.7 47.7 78.7 82.7 114.5 128.1 130.9 278.9 162 452.6 162h3.4.4c34 0 66.8 10.5 98.8 20.9 32.1 10.5 63.5 20.9 94.7 20.9h3.6c61.4-1.6 111.2-55.8 178.9-57.6h3.8c64.6 0 159.9 42.7 179.3 109.9 20.6 71.1-33.9 114-99.6 115-.1 0-.1 0-.2 0-7.9 0-40-4.8-79.6-9.6s-86.7-9.5-124.5-9.5c-57.9 0-94.2 11.1-49 50.6 46.6 40.5 164.5 66.2 266.2 66.2 59.3 0 113.1-8.7 143.9-28.4 38.8-24.7 56.6-76.5 108.8-79.9 2.2-.1 4.5-.2 6.7-.2 77.7 0 135.2 89.5 139.5 157.1 4.4 69.8 7.7 112.5 76.5 151.6 74.1 42 178.9 53.7 262.1 66.6 237.3 37 418.3 210.8 643.9 278.3 127.3 38 232.8 104.3 340.5 182.2 87.9 63.5 147.1 152.8 229 221.8 3.6 3.1 10.6 8 19.6 13.8 10.9-18.8 21.6-37.4 32.1-55.8-7.3-4.8-13.8-9.2-18.8-13.1-35.7-27.8-73.4-55.9-106.1-87.6-118.7-114.8-247.2-226.5-394.1-308.3-163.6-91.3-335.4-153-511-215.5-91.7-32.6-179.5-80.2-269.3-119-63.6-27.6-134.5-55.4-184.2-104.6-45.5-45-20.9-77.1-37.8-129.4-15.3-47.3-76.7-81.4-124.4-91.3-9.1-2-17.8-2.7-26.3-2.7-15.2 0-29.6 2.4-44 4.8-14.3 2.4-28.7 4.8-44 4.8-3.6 0-7.2-.1-10.9-.4-63-5.1-52.9-24.8-58.7-73.2-5.8-48.1-57-72.2-104.9-105.8-47.5-33.3-98.3-57.5-155.3-66.6-39.2-6.3-78.4-8.4-117.6-8.4-77.4 0-155 8.1-233.7 8.3-.5 0-.9 0-1.3 0-92.3 0-178.4-25-260.2-69.1-58.9-31.7-236.6-133.2-239.5-208-2.3-61.7 64.7-29.6 99.7-48.1 68.3-36-19.6-56.8-58.9-66.7-18-4.6-35.9-6.3-53.5-6.3" fill="#e6867b" transform="matrix(.06 0 0 -.06 -1266.855 1131.52)"/><path d="m22382.1 14536.9-103.6 131.7c9.7 7.1 18.2 12.2 25.2 14 50.1 13.1 107.1-4.5 155.6 20.8 74.8 39 139.3 132.9 194.7 193.8 40.5 44.4 49.6 56.6 97.1 56.6 6.8 0 14.4-.3 22.9-.7 11.2-.6 22.5-1 33.7-1 48.1 0 95 7.6 132.4 42.6 45.7 42.9 31.2 83 54.5 129.8 18.5 37.2 82 72.5 119.2 88.8 22 9.7 43.7 14.1 65.4 15.4-9-19.9-16.2-39.4-21.1-58.6-26.3-104.1 77.1-391.1-.5-399.3-91.8-9.7-572.6-51.1-775.5-233.9m-186.3 236.7-22.6 28.7c19.6 17.7 38.1 35.1 55 51.8-12.5-25.6-22.6-52.1-30.5-74.7-.7-1.9-1.3-3.8-1.9-5.8" fill="#b44b49" transform="matrix(.06 0 0 -.06 -1261.3572 1128.288)"/><path d="m23303.1 16277.5c.2 1 .5 2 .8 3 64.7 85.7 126.3 171.1 222 225.6.3-.2.4-.7.5-1.6-96.4-54.6-158.2-140.8-223.3-227" fill="#d7c1c1" transform="matrix(.06 0 0 -.06 -1263.315 1132.318)"/><path d="m22455.5 14901.7c-23.5 0-46.2 7.1-68.5 24.1-24.3 18.5-38.8 32.9-56.6 32.9-5 0-10.2-1.1-16-3.6 82.3 141 95.7 303 152.6 452.2 24.9 65 52.4 121.2 83.6 170.7 53.3 16 107.5 26.1 162.1 28.5 205.2 9 367.6 120.2 529 240.2 35.5 26.3 72.4 50 109.9 72.8-6.2-91.8 1.3-238.1-.1-315.6-1-56.4-26.7-115.4-59.3-174.6-10.9-13.3-23.4-25.9-39.1-37.3-63.4-46.3-123.4-50.9-191.6-72.7-69-22-106-79-181.8-83.9-53.7-3.4-87.1 3.2-131.8-31.1-98.4-75.5-114.5-238.9-224.7-286.4-23.4-10-45.9-16.2-67.7-16.2m270.4 867.6c33.6 25.8 70.3 50.1 110.4 73.6 174.2 102.4 374.8 141.1 453 387.5 5 15.7 9.5 31.5 13.8 47.1 65.1 86.2 126.9 172.4 223.3 227 1.3-17-41.7-166.7-111.8-370.4-93.5-93.2-180.7-194.6-293-271.7-121.5-83.6-258.4-84.4-395.7-93.1" fill="#b44b49" transform="matrix(.06 0 0 -.06 -1261.9946 1130.476)"/><path d="m22550.6 15578c48.2 76.6 105.3 137.5 175.3 191.3 137.3 8.7 274.2 9.5 395.7 93.1 112.3 77.1 199.5 178.5 293 271.7-16.2-47-33.8-96.9-52.6-148.7-5.2-14.3-8.5-37.5-10.4-65.9-37.5-22.8-74.4-46.5-109.9-72.8-161.4-120-323.8-231.2-529-240.2-54.6-2.4-108.8-12.5-162.1-28.5" fill="#c66d65" transform="matrix(.06 0 0 -.06 -1262.166 1130.883)"/><path d="m22278.5 14668.6-82.7 105c.6 2 1.2 3.9 1.9 5.8 7.9 22.6 18 49.1 30.5 74.7 39.5 38.9 70.4 73.9 85.9 100.4.1.2.2.4.3.6 5.8 2.5 11 3.6 16 3.6 17.8 0 32.3-14.4 56.6-32.9 22.3-17 45-24.1 68.5-24.1 21.8 0 44.3 6.2 67.7 16.2 110.2 47.5 126.3 210.9 224.7 286.4 44.7 34.3 78.1 27.7 131.8 31.1 75.8 4.9 112.8 61.9 181.8 83.9 68.2 21.8 128.2 26.4 191.6 72.7 15.7 11.4 28.2 24 39.1 37.3-37.4-67.9-84-136-113-200.6-21.7-1.3-43.4-5.7-65.4-15.4-37.2-16.3-100.7-51.6-119.2-88.8-23.3-46.8-8.8-86.9-54.5-129.8-37.4-35-84.3-42.6-132.4-42.6-11.2 0-22.5.4-33.7 1-8.5.4-16.1.7-22.9.7-47.5 0-56.6-12.2-97.1-56.6-55.4-60.9-119.9-154.8-194.7-193.8-48.5-25.3-105.5-7.7-155.6-20.8-7-1.8-15.5-6.9-25.2-14" fill="#c66d65" transform="matrix(.06 0 0 -.06 -1261.53 1128.737)"/><path d="m23952.6 18869.4c-211.9-159.5-448.4-244.8-608.9-492.1-79.6-122.6-83.7-257.8-129-397.5-62.3-192.3-208-297-367.7-355.7-249.3-91.6-470.3-214.8-513.7-552.6-44-342.8-148.7-592.2-455.4-688-174.8-54.5-378.9-118.1-447.7-343.9-26.9-88.3-158.4-552.7-376.2-717.3l722.7-834.9c9.5-.6 460.7 336 537.4 467.1 82.5 141.2 95.9 303.4 152.9 452.8 81.7 213.9 191.9 331.4 369.3 435.6 174.2 102.4 374.8 141.1 453 387.5 63.4 199.8 55.2 389.4 190.3 561.8 124.6 158.9 297.4 173.2 443.3 284.8 168.9 129.1 215.4 363.6 281.9 573.6 66.7 210.6 333.5 511.1 482.7 646.7-277.3 152.9-514.9 423.3-734.9 572.1" fill="#db5f56" transform="matrix(.06 0 0 -.06 -1261.865 1133.084)"/><path d="m24097.7 18755.8c-88.6-46.1-159.1-142.5-244.5-194.9-117.3-72-247.3-86.5-323.7-207.8-72.4-114.9-85.3-252.1-111.2-382.9-26.5-134.1-95.9-204.1-209.1-275.7-65.8-41.7-147.1-75.3-202.6-130.7-39.8-39.7-50.4-94.6-78.4-142.2-96.7-164.5-289.3-216.9-423.4-338.6-104.3-94.7-103.1-179-114.7-309.7-10.1-114.7-65.4-229.9-147.7-308.2-63.6-60.4-251.7-165.3-243.6-264.7 38.9 4.7 84.1 45.7 118.6 61.4-92.2-298.1-506.8-301.3-678.8-528.3-71.5-94.3-92.8-215.6-146-318.9-18.8-36.5-83-176.2-129.2-226.4l148.4-171.3c4.8 12.5 9.1 24.2 13.2 34.3 43.2 109.3 99.5 240.1 207.7 298.1 82.4 44.1 175.8 51.1 250.8 113 61.9 51.1 116.7 112 178 163.6 38 32 81.7 66.8 109.8 109.1 26.2 39.3 43.3 87.8-26.4 78.2-44.8-6.1-81.4-52-114.7-77.3-32.4-24.6-198.2-195-199.1-74.5-.8 92.9 167.2 180.9 223.8 234 52.5 49.4 101.5 88.4 164.3 122.6 37.1 20.2 78.7 41.1 107.5 71.7 63.3 67.3 89.1 162.1 116.3 245.9 31 95.8 112 130.4 157.8 214.2 28.4 52 12.1 83.1 9 136-3.9 65.9 30.4 113 70.5 163 109 135.9 267.4 217.5 374.1 349.1 73.9 91.3 138.2 182.2 240.3 241.7 116.2 67.6 184.8 164.5 244.5 287.4 66 135.7 147.2 271.2 173.6 422.3 18.1 103.3 104.7 147.5 188.2 207.6 94.9 68.4 186.3 142.3 277.1 215.6 31.9 25.7 82.6 63.3 113 103-31.6 27.5-62.7 54.5-93.4 80.3" fill="#ffb7a4" transform="matrix(.06 0 0 -.06 -1261.345 1133.631)"/><path d="m24135.2 18296.6c-91.7-62.4-190.5-73.8-241.7-188-49.5-110.3-20.7-222.8-107-320.2-62.9-70.9-159.8-132.9-203.7-219.4-21.6-42.5-18.1-87.9-32.7-130.9-13.4-39.4-40.6-77.1-66.8-109.5-23.3-28.8-210.7-216.4-198.6-131.8 11.2 77.9 177.2 115 176.7 194.6-.8 112.3-173-111.3-193.5-134.6-63-71.8-127.4-132.6-204.1-189.6-36.7-27.3-88.5-62.8-88.6-113.7 0-49.8 53.4-80.3 52.5-130.7-.7-43.6-24.4-96.5-47.4-131.8-51.3-78.8-110.5-170.7-170.9-240.6-35.5-41-73.1-33.6-109.2-26.2-37.2 7.6-72.7 15.2-102.7-29.9-21.6-32.6-21.6-78.4-39.1-116.2-23-49.6-59.8-86.7-95.4-126.7-71.4-80.3-121.8-144.9-142.3-248.4-24-122-7.2-231-66.6-348.6-87.9-174.2-248.1-273.9-429.8-325.5-130.3-37-241.6-108.8-290.4-241.7-21.8-59.3-20.7-128.4-18.6-195l100.2-115.8c.5 54.4-9.4 110.5 20.3 160.7 88 148.3 277.2 240.5 419.3 329.1 117.7 73.5 191.9 197.1 273.5 305.9 48.2 64.3 81.5 139.9 97.5 216.6 23.4 111.5 55.3 216.4 135.2 306 59.3 66.6 166.7 110.8 183.8 199.8 7.5 38.7 1.8 93.4 32.5 124.1 30.1 30.1 84.3 29.9 118.2 60.3 67.7 60.6 119.5 139.4 178.9 207.3 80.1 91.8 54 147.8 35.2 251.2-13.1 72.2 19.8 172.1 86.1 213.1 72.9 45 171.8 18.7 249.6 67.8 97.8 61.7 113.8 190.4 158.2 288.7 18.2 40.3 37 85 71.5 113.7 33.6 27.9 70.7 29.5 99.7 64 59.3 70.8 91.3 189.8 109.5 277 15.2 73.3 35.9 183.7 78.5 245.7 43.4 63.2 128.9 101.3 193.5 139.8 24.6 14.6 78.3 42.1 67.8 79.7-15.5 55.5-64.5-13.7-89.1-30.3" fill="#ffb7a4" transform="matrix(.06 0 0 -.06 -1261.867 1132.6344)"/><path d="m23404.4 16973.2c-70.6 0-153 35.3-225.5 64.8 5.4 4.6 11.1 8.8 17.1 12.5 72.9 45 171.8 18.7 249.6 67.8 23.6 14.9 42.5 33.8 58.2 55.2 21 .5 42 .9 63 .9 44.9 0 89.8-1.8 134.7-7.8 139.6-18.6 62.8-96.5-20.7-137.3-75.7-37-191.9-55.9-275.9-56.1-.1 0-.3 0-.5 0m-326.6 104.5c-56.5 23.5-111.8 49.7-169.3 69.3 16.1 16.2 31.5 33.1 45.9 50.9 26.1 32.2 51 64.4 76.7 95.1 28.7-3.3 59.7-4.9 95-7.1-14.5-43.3-42.9-61.8 5.7-89.2 15-8.5 37.9-13.9 63.1-17.4-36.7-36-75.1-69.4-117.1-101.6m-471.9 114.5c-30.2 0-60.1 2.7-85.5 17.4-86.4 49.8-26.4 187 55.7 187h1.9l41.8 26.1c20.2 3.5 39.8 5.3 59 5.3 63.6 0 121.7-19.9 176.2-63.1 6.7-5.3 13.2-10.2 19.7-14.7-60.4-65.1-137.8-110.4-214.2-157.1-.5 0-1 0-1.5 0-8.6 0-17.4-.2-26.3-.5-8.9-.2-17.8-.4-26.8-.4" fill="#e27166" transform="matrix(.06 0 0 -.06 -1262.5516 1134.476)"/><path d="m22908.5 17147c-24.7 8.4-49.8 15.6-75.7 20.9-52.3 10.7-103.2 22.1-156.7 24.8-5.1.3-10.3.4-15.6.4 76.4 46.7 153.8 92 214.2 157.1 53.1-37.3 100.2-50.6 156.4-57.2-25.7-30.7-50.6-62.9-76.7-95.1-14.4-17.8-29.8-34.7-45.9-50.9" fill="#ffb7a4" transform="matrix(.06 0 0 -.06 -1261.798 1134.596)"/><path d="m23178.9 17038c-17.7 7.2-34.8 14.1-51 20-16.9 6.2-33.5 12.9-50.1 19.7 42 32.2 80.4 65.6 117.1 101.6 43.6-5.9 94.5-6.3 125-7.5 18.3-.7 36.5-1 54.7-1 32.2 0 64.3.9 96.3 1.8 11 .3 21.9.6 32.9.9-15.7-21.4-34.6-40.3-58.2-55.2-77.8-49.1-176.7-22.8-249.6-67.8-6-3.7-11.7-7.9-17.1-12.5" fill="#ffb7a4" transform="matrix(.06 0 0 -.06 -1262.988 1134.229)"/><path d="m24215.5 18020.6c-18.6 0-38.2 10.4-58 24.2-49.6 34.6-95.7 75.7-142.3 116.1 38.2 29.9 84.4 53.6 124.9 76.7 34.7-19.2 66.6-40.5 90.7-67.7 30.9-34.7 62-68.4 34-114.9-14.9-24.9-31.6-34.4-49.3-34.4m-247.8 180.7c-13.6 11.3-27.3 22.2-41.3 32.8-45.6 34.4-91.4 65.2-146.3 83.6-8.2 2.8-16.8 5-25.5 6.9 15.3 10.6 30.9 21.2 46.4 32.3 31.3 22.6 62.2 45.7 92.8 69.2 27.5-80 109.5-119.4 190.6-159.7-41.1-21.7-81.6-38.9-116.7-65.1m-410.1 189.4c-50.2 79 63.2 221.1 138.9 244.5l41.8 26.2c20.5 11.4 41.6 18.3 62 18.3 25.5 0 49.8-10.9 69.9-37.8 13-17.3 18.2-36 19.7-55.4-12-9.3-24.2-17.9-36.7-25.6-103.9-63.8-217.8-82.4-295.6-170.2" fill="#e27166" transform="matrix(.06 0 0 -.06 -1264.6376 1137.539)"/><path d="m23754.6 18324.6c-52.6 11.5-112.1 10.3-158.9 33.5-17.5 8.7-29.9 19.8-38.1 32.6 77.8 87.8 191.7 106.4 295.6 170.2 12.5 7.7 24.7 16.3 36.7 25.6 2.8-36.3-7.7-75.3-5.3-113 1.1-17.3 4.3-33 9.2-47.4-30.6-23.5-61.5-46.6-92.8-69.2-15.5-11.1-31.1-21.7-46.4-32.3" fill="#ffb7a4" transform="matrix(.06 0 0 -.06 -1264.142 1137.813)"/><path d="m24015.2 18160.9c-15.7 13.7-31.5 27.2-47.5 40.4 35.1 26.2 75.6 43.4 116.7 65.1 18.8-9.3 37.6-18.8 55.7-28.8-40.5-23.1-86.7-46.8-124.9-76.7" fill="#ffb7a4" transform="matrix(.06 0 0 -.06 -1265.024 1137.179)"/><path d="m22440.3 15750.2c15.2 59.3 35.2 116.2 66.2 169.2 97.3-31.8 128.9-105.9 25.6-149.4-29.8-12.6-60.5-18.7-91.8-19.8m-135.5 20.7c-114 34.8-229.1 104.9-329.6 143.2 45.2 40.7 89.4 74.1 144 103.9 10.2 5.5 20.6 11.1 31.1 16.9 47.5-19.3 58.7-40.1 87.7-75.6 19.3-23.6 51.5-30.9 88.1-32.5-1.9-7.7-3.7-15.6-5.4-23.8-8.9-45.5-12.2-89.2-15.9-132.1m-673.5 166.7c-26.7 0-53 3.7-77.8 15.2-99 45.7 5.4 215.6 5.4 215.6 17.9 16.3 40.5 22.5 64.1 22.5 51.9 0 108.2-30.3 128.1-49.8 71.1-70 128.5-68 220-75.8-61.2-45.4-133.6-80.5-206.7-115.1-5.8-.4-11.7-.8-17.5-1.3-37.6-3.5-77.1-11.3-115.6-11.3" fill="#e27166" transform="matrix(.06 0 0 -.06 -1259.6864 1131.193)"/><g fill="#ffb7a4"><path d="m21975.2 15914.1c-6.9 2.7-13.7 5.1-20.5 7.4-55.7 19.1-108.3 29.4-164.1 29.4-8.7 0-17.4-.2-26.2-.7 73.1 34.6 145.5 69.7 206.7 115.1 5.3-.4 10.8-.9 16.3-1.5 51.3-4.9 102.1-6.8 151.7-24.7 3.9-1.4 7.7-2.8 11.2-4.2-10.5-5.8-20.9-11.4-31.1-16.9-54.6-29.8-98.8-63.2-144-103.9" transform="matrix(.06 0 0 -.06 -1259.431 1131.242)"/><path d="m22429.2 15750c-40.8 0-82.5 8.1-124.4 20.9 3.7 42.9 7 86.6 15.9 132.1 1.7 8.2 3.5 16.1 5.4 23.8 6-.3 12-.4 18.2-.4 14.7 0 29.8.6 44.9 1.2 15.2.6 30.4 1.3 45.1 1.3 23.6 0 46.1-1.6 65.3-7.3 2.4-.7 4.7-1.4 6.9-2.2-31-53-51-109.9-66.2-169.2-3.7-.1-7.3-.2-11.1-.2" transform="matrix(.06 0 0 -.06 -1260.629 1130.847)"/></g></svg>