<?xml version="1.0" encoding="UTF-8" standalone="no" ?>
<!DOCTYPE svg PUBLIC "-//W3C//DTD SVG 1.1//EN" "http://www.w3.org/Graphics/SVG/1.1/DTD/svg11.dtd">
<svg xmlns="http://www.w3.org/2000/svg" xmlns:xlink="http://www.w3.org/1999/xlink" version="1.1" width="319" height="265" viewBox="0 0 319 265" xml:space="preserve">
<desc>Created with Fabric.js 3.6.3</desc>
<defs>
</defs>
<g transform="matrix(1 0 0 1 117 226)"  >
<g style=""   >
		<g transform="matrix(0.06 0 0 -0.06 61.34 -56.89)" id="SvALCciW4Okt8fa2TQidE"  >
<path style="stroke: none; stroke-width: 1; stroke-dasharray: none; stroke-linecap: butt; stroke-dashoffset: 0; stroke-linejoin: miter; stroke-miterlimit: 4; fill: rgb(204,85,82); fill-rule: nonzero; opacity: 1;" vector-effect="non-scaling-stroke"  transform=" translate(-24056.15, -16037.7)" d="M 26413.3 16710.6 C 26216.7 16532.699999999997 26088.2 16316.599999999999 25814.899999999998 16205.699999999999 C 25679.6 16150.8 25545.999999999996 16172.3 25400.3 16154.3 C 25199.6 16129.4 25069.3 16006.099999999999 24981.399999999998 15860.4 C 24844.399999999998 15633 24681.6 15439.199999999999 24341.6 15460.5 C 23996.699999999997 15482.1 23732.1 15426.4 23580 15143.4 C 23493.4 14982 23392.3 14793.6 23157.6 14768.8 C 23065.8 14759.099999999999 22585 14717.699999999999 22382.1 14535 L 21699 15402.6 C 21700.2 15412 22116 15791.4 22259.3 15841.9 C 22413.5 15896.3 22575.3 15878.699999999999 22732.7 15906.5 C 22958.3 15946.2 23094.5 16032.2 23230.4 16186.7 C 23363.9 16338.400000000001 23439.800000000003 16528.100000000002 23696.5 16558.3 C 23904.7 16582.7 24089.4 16538.899999999998 24284.2 16638.899999999998 C 24463.8 16731.199999999997 24510.5 16898.199999999997 24647.7 17020.399999999998 C 24806.4 17161.8 25045.4 17163.1 25264.2 17188.699999999997 C 25483.7 17214.399999999998 25829.2 17419.6 25990.5 17540.399999999998 C 26088.2 17239.199999999997 26308.9 16954.8 26413.3 16710.6" stroke-linecap="round" />
</g>
		<g transform="matrix(0.06 0 0 -0.06 177.78 -130.21)" id="B_4HNJDfAlLhoPyQSCgs9"  >
<path style="stroke: none; stroke-width: 1; stroke-dasharray: none; stroke-linecap: butt; stroke-dashoffset: 0; stroke-linejoin: miter; stroke-miterlimit: 4; fill: rgb(255,219,209); fill-rule: nonzero; opacity: 1;" vector-effect="non-scaling-stroke"  transform=" translate(-26087.1, -17316.45)" d="M 26103.3 17278.1 C 26090.7 17302.399999999998 26078.5 17326.899999999998 26066.899999999998 17351.5 C 26068.499999999996 17352.6 26070.1 17353.7 26071.8 17354.8 C 26083.1 17329.8 26095 17304.899999999998 26107.3 17280.1 C 26106 17279.5 26104.6 17278.8 26103.3 17278.1" stroke-linecap="round" />
</g>
		<g transform="matrix(0.06 0 0 -0.06 99.83 -91.16)" id="L9IOxOV_D_0wkEFd43dpE"  >
<path style="stroke: none; stroke-width: 1; stroke-dasharray: none; stroke-linecap: butt; stroke-dashoffset: 0; stroke-linejoin: miter; stroke-miterlimit: 4; fill: rgb(230,134,123); fill-rule: nonzero; opacity: 1;" vector-effect="non-scaling-stroke"  transform=" translate(-24727.45, -16635.5)" d="M 23351.6 15919.5 C 23353.5 15947.9 23356.8 15971.1 23362 15985.4 C 23380.8 16037.199999999999 23398.4 16087.1 23414.6 16134.1 C 23502.3 16221.6 23595.699999999997 16301.7 23720.5 16347.6 C 23943.5 16429.5 24197.1 16360.6 24390.5 16527.6 C 24452.6 16581.199999999997 24512 16633.8 24574.3 16687 C 24629.3 16733.9 24724.6 16835.2 24806 16835.2 C 24811.4 16835.2 24816.8 16834.8 24822.1 16833.8 C 24812.1 16800.899999999998 24769.899999999998 16778.3 24760.6 16746.5 C 24766.3 16745.7 24771.8 16745.3 24777.3 16745.3 C 24823.1 16745.3 24862.6 16772.399999999998 24897.5 16802.2 C 24936.4 16835.4 24934 16863.9 24957.2 16902.7 C 24982 16944 25059.7 16975.7 25121.100000000002 16975.7 C 25139.2 16975.7 25155.800000000003 16973 25169.300000000003 16966.9 C 25178.300000000003 16962.800000000003 25174.000000000004 16940.5 25188.4 16934 C 25196.5 16930.4 25203.800000000003 16929 25210.800000000003 16929 C 25225.300000000003 16929 25238.600000000002 16934.8 25254.700000000004 16939 C 25311.000000000004 16953.4 25366.100000000006 16981.1 25417.200000000004 17007.3 C 25511.200000000004 17055.7 25593.300000000003 17145.399999999998 25690.400000000005 17180.2 C 25705.900000000005 17154.7 25712.500000000004 17142.3 25728.300000000007 17142.3 C 25737.500000000007 17142.3 25749.900000000005 17146.6 25768.900000000005 17154.8 C 25829.400000000005 17181.1 25882.300000000007 17228.899999999998 25939.800000000007 17263.3 C 25967.700000000008 17280 26014.300000000007 17316.399999999998 26066.900000000005 17351.5 C 26078.500000000004 17326.9 26090.700000000004 17302.4 26103.300000000007 17278.1 C 26042.200000000008 17247.399999999998 25980.000000000007 17219.3 25921.800000000007 17191.399999999998 C 25850.000000000007 17157.1 25794.100000000006 17107.3 25728.100000000006 17064.399999999998 C 25675.900000000005 17030.6 25646.000000000007 17044.899999999998 25596.300000000007 17013.699999999997 C 25542.200000000008 16979.799999999996 25493.500000000007 16936.499999999996 25433.000000000007 16913.1 C 25366.200000000008 16887.399999999998 25293.40000000001 16880.3 25225.500000000007 16857 C 25177.300000000007 16840.6 25131.300000000007 16819.2 25082.700000000008 16803.2 C 25046.60000000001 16791.4 25016.700000000008 16797.600000000002 24984.800000000007 16791.7 C 24938.500000000007 16783.3 24873.400000000005 16735.600000000002 24864.500000000007 16683 C 24857.700000000008 16643 24879.100000000006 16630.4 24908.200000000008 16630.4 C 24936.300000000007 16630.4 24971.500000000007 16642.2 24995.60000000001 16652.4 C 25144.10000000001 16715.5 25287.90000000001 16772.4 25440.10000000001 16824 C 25471.200000000008 16834.5 25654.90000000001 16927.4 25720.80000000001 16927.4 C 25732.00000000001 16927.4 25739.70000000001 16924.7 25742.90000000001 16918.600000000002 C 25782.10000000001 16841.500000000004 25446.80000000001 16738.7 25409.40000000001 16723.4 C 25261.90000000001 16663.100000000002 25113.30000000001 16593.300000000003 24961.000000000007 16547.100000000002 C 24923.000000000007 16535.600000000002 24890.700000000008 16528.800000000003 24858.800000000007 16528.800000000003 C 24830.300000000007 16528.800000000003 24802.200000000008 16534.200000000004 24770.500000000007 16546.4 C 24749.700000000008 16554.4 24729.800000000007 16558 24710.600000000006 16558 C 24610.400000000005 16558 24530.100000000006 16460.8 24442.600000000006 16397 C 24317.300000000007 16305.6 24201.200000000004 16318 24059.700000000004 16285.9 C 23931.000000000004 16256.699999999999 23804.200000000004 16231.699999999999 23693.600000000006 16156.4 C 23631.200000000004 16113.9 23578.200000000004 16058.8 23514.700000000004 16017.9 C 23461.200000000004 15983.5 23405.800000000003 15952.4 23351.600000000006 15919.5" stroke-linecap="round" />
</g>
		<g transform="matrix(0.06 0 0 -0.06 -43.04 18.75)" id="9"  >
<path style="stroke: none; stroke-width: 1; stroke-dasharray: none; stroke-linecap: butt; stroke-dashoffset: 0; stroke-linejoin: miter; stroke-miterlimit: 4; fill: rgb(255,219,209); fill-rule: nonzero; opacity: 1;" vector-effect="non-scaling-stroke"  transform=" translate(-22235.6, -14718.4)" d="M 22273.3 14664.6 L 22193.7 14765.7 C 22194.2 14767.900000000001 22194.8 14770 22195.4 14772.2 L 22277.5 14667.800000000001 C 22276.1 14666.800000000001 22274.7 14665.7 22273.3 14664.6" stroke-linecap="round" />
</g>
		<g transform="matrix(0.06 0 0 -0.06 -42.96 18.62)" id="JNYeYQCs_ASqZ-AA6J9Bd"  >
<path style="stroke: none; stroke-width: 1; stroke-dasharray: none; stroke-linecap: butt; stroke-dashoffset: 0; stroke-linejoin: miter; stroke-miterlimit: 4; fill: rgb(230,134,123); fill-rule: nonzero; opacity: 1;" vector-effect="non-scaling-stroke"  transform=" translate(-22236.95, -14720.7)" d="M 22277.5 14667.8 L 22195.4 14772.199999999999 C 22195.5 14772.599999999999 22195.7 14773.099999999999 22195.800000000003 14773.599999999999 L 22278.500000000004 14668.599999999999 C 22278.200000000004 14668.3 22277.900000000005 14668.099999999999 22277.500000000004 14667.8" stroke-linecap="round" />
</g>
		<g transform="matrix(0.06 0 0 -0.06 189.48 -109.09)" id="dIP9mpWCPmW-QQdPVWMZc"  >
<path style="stroke: none; stroke-width: 1; stroke-dasharray: none; stroke-linecap: butt; stroke-dashoffset: 0; stroke-linejoin: miter; stroke-miterlimit: 4; fill: rgb(255,219,209); fill-rule: nonzero; opacity: 1;" vector-effect="non-scaling-stroke"  transform=" translate(-26291.05, -16948.05)" d="M 26306.3 16919.7 C 26295.8 16938.100000000002 26285.1 16956.7 26274.2 16975.5 C 26274.7 16975.8 26275.100000000002 16976.1 26275.5 16976.4 C 26286.5 16957.600000000002 26297.3 16939.100000000002 26307.9 16920.7 C 26307.4 16920.3 26306.800000000003 16920 26306.300000000003 16919.7" stroke-linecap="round" />
</g>
		<g transform="matrix(0.06 0 0 -0.06 100.71 -60.15)" id="uWFd5LQOtv9h_yXlQQhLL"  >
<path style="stroke: none; stroke-width: 1; stroke-dasharray: none; stroke-linecap: butt; stroke-dashoffset: 0; stroke-linejoin: miter; stroke-miterlimit: 4; fill: rgb(230,134,123); fill-rule: nonzero; opacity: 1;" vector-effect="non-scaling-stroke"  transform=" translate(-24742.75, -16094.5)" d="M 23351.5 15213.5 C 23324.8 15213.5 23298.4 15217.4 23272.1 15221.3 C 23245.899999999998 15225.199999999999 23219.699999999997 15229.099999999999 23193.5 15229.099999999999 C 23188.7 15229.099999999999 23183.9 15228.999999999998 23179.2 15228.699999999999 C 23208.2 15293.3 23254.8 15361.4 23292.2 15429.3 C 23322.3 15466 23339.9 15508 23374.9 15543.8 C 23503 15674.699999999999 23653.800000000003 15705.8 23827.5 15705.8 C 23828.6 15705.8 23829.8 15705.8 23830.9 15705.8 C 23831.100000000002 15705.8 23831.2 15705.8 23831.300000000003 15705.8 C 23865.300000000003 15705.8 23898.100000000002 15716.3 23930.100000000002 15726.699999999999 C 23962.2 15737.199999999999 23993.600000000002 15747.599999999999 24024.800000000003 15747.599999999999 C 24026.000000000004 15747.599999999999 24027.200000000004 15747.599999999999 24028.4 15747.599999999999 C 24089.800000000003 15745.999999999998 24139.600000000002 15691.8 24207.300000000003 15689.999999999998 C 24208.600000000002 15689.999999999998 24209.800000000003 15689.999999999998 24211.100000000002 15689.999999999998 C 24275.7 15689.999999999998 24371.000000000004 15732.699999999999 24390.4 15799.899999999998 C 24411 15870.999999999998 24356.5 15913.899999999998 24290.800000000003 15914.899999999998 C 24290.700000000004 15914.899999999998 24290.700000000004 15914.899999999998 24290.600000000002 15914.899999999998 C 24282.7 15914.899999999998 24250.600000000002 15910.099999999999 24211.000000000004 15905.299999999997 C 24171.400000000005 15900.499999999998 24124.300000000003 15895.799999999997 24086.500000000004 15895.799999999997 C 24028.600000000002 15895.799999999997 23992.300000000003 15906.899999999998 24037.500000000004 15946.399999999998 C 24084.100000000002 15986.899999999998 24202.000000000004 16012.599999999999 24303.700000000004 16012.599999999999 C 24363.000000000004 16012.599999999999 24416.800000000003 16003.899999999998 24447.600000000006 15984.199999999999 C 24486.400000000005 15959.499999999998 24504.200000000004 15907.699999999999 24556.400000000005 15904.3 C 24558.600000000006 15904.199999999999 24560.900000000005 15904.099999999999 24563.100000000006 15904.099999999999 C 24640.800000000007 15904.099999999999 24698.300000000007 15993.599999999999 24702.600000000006 16061.199999999999 C 24707.000000000007 16130.999999999998 24710.300000000007 16173.699999999999 24779.100000000006 16212.8 C 24853.200000000004 16254.8 24958.000000000007 16266.5 25041.200000000004 16279.4 C 25278.500000000004 16316.4 25459.500000000004 16490.2 25685.100000000006 16557.7 C 25812.400000000005 16595.7 25917.900000000005 16662 26025.600000000006 16739.9 C 26113.500000000007 16803.4 26172.700000000004 16892.7 26254.600000000006 16961.7 C 26258.200000000004 16964.8 26265.200000000004 16969.7 26274.200000000004 16975.5 C 26285.100000000006 16956.7 26295.800000000003 16938.1 26306.300000000003 16919.7 C 26299.000000000004 16914.9 26292.500000000004 16910.5 26287.500000000004 16906.600000000002 C 26251.800000000003 16878.800000000003 26214.100000000002 16850.7 26181.400000000005 16819.000000000004 C 26062.700000000004 16704.200000000004 25934.200000000004 16592.500000000004 25787.300000000007 16510.700000000004 C 25623.700000000008 16419.400000000005 25451.900000000005 16357.700000000004 25276.300000000007 16295.200000000004 C 25184.600000000006 16262.600000000004 25096.800000000007 16215.000000000004 25007.000000000007 16176.200000000004 C 24943.40000000001 16148.600000000004 24872.500000000007 16120.800000000005 24822.800000000007 16071.600000000004 C 24777.300000000007 16026.600000000004 24801.900000000005 15994.500000000004 24785.000000000007 15942.200000000004 C 24769.700000000008 15894.900000000005 24708.300000000007 15860.800000000005 24660.600000000006 15850.900000000005 C 24651.500000000007 15848.900000000005 24642.800000000007 15848.200000000004 24634.300000000007 15848.200000000004 C 24619.100000000006 15848.200000000004 24604.700000000008 15850.600000000004 24590.300000000007 15853.000000000004 C 24576.000000000007 15855.400000000003 24561.600000000006 15857.800000000003 24546.300000000007 15857.800000000003 C 24542.700000000008 15857.800000000003 24539.100000000006 15857.700000000003 24535.400000000005 15857.400000000003 C 24472.400000000005 15852.300000000003 24482.500000000004 15832.600000000004 24476.700000000004 15784.200000000003 C 24470.900000000005 15736.100000000002 24419.700000000004 15712.000000000002 24371.800000000003 15678.400000000003 C 24324.300000000003 15645.100000000004 24273.500000000004 15620.900000000003 24216.500000000004 15611.800000000003 C 24177.300000000003 15605.500000000004 24138.100000000002 15603.400000000003 24098.900000000005 15603.400000000003 C 24021.500000000004 15603.400000000003 23943.900000000005 15611.500000000004 23865.200000000004 15611.700000000003 C 23864.700000000004 15611.700000000003 23864.300000000003 15611.700000000003 23863.900000000005 15611.700000000003 C 23771.600000000006 15611.700000000003 23685.500000000004 15586.700000000003 23603.700000000004 15542.600000000002 C 23544.800000000003 15510.900000000001 23367.100000000006 15409.400000000001 23364.200000000004 15334.600000000002 C 23361.900000000005 15272.900000000001 23428.900000000005 15305.000000000002 23463.900000000005 15286.500000000002 C 23532.200000000004 15250.500000000002 23444.300000000007 15229.700000000003 23405.000000000004 15219.800000000001 C 23387.000000000004 15215.2 23369.100000000002 15213.500000000002 23351.500000000004 15213.500000000002" stroke-linecap="round" />
</g>
		<g transform="matrix(0.06 0 0 -0.06 -17.55 9.32)" id="fLWVuWhsBBYf1F9H-Rr4w"  >
<path style="stroke: none; stroke-width: 1; stroke-dasharray: none; stroke-linecap: butt; stroke-dashoffset: 0; stroke-linejoin: miter; stroke-miterlimit: 4; fill: rgb(180,75,73); fill-rule: nonzero; opacity: 1;" vector-effect="non-scaling-stroke"  transform=" translate(-22680.12, -14882.8)" d="M 22382.1 14536.9 L 22278.5 14668.6 C 22288.2 14675.7 22296.7 14680.800000000001 22303.7 14682.6 C 22353.8 14695.7 22410.8 14678.1 22459.3 14703.4 C 22534.1 14742.4 22598.6 14836.3 22654 14897.199999999999 C 22694.5 14941.599999999999 22703.6 14953.8 22751.1 14953.8 C 22757.899999999998 14953.8 22765.5 14953.5 22774 14953.099999999999 C 22785.2 14952.499999999998 22796.5 14952.099999999999 22807.7 14952.099999999999 C 22855.8 14952.099999999999 22902.7 14959.699999999999 22940.100000000002 14994.699999999999 C 22985.800000000003 15037.599999999999 22971.300000000003 15077.699999999999 22994.600000000002 15124.499999999998 C 23013.100000000002 15161.699999999999 23076.600000000002 15196.999999999998 23113.800000000003 15213.299999999997 C 23135.800000000003 15222.999999999998 23157.500000000004 15227.399999999998 23179.200000000004 15228.699999999997 C 23170.200000000004 15208.799999999997 23163.000000000004 15189.299999999997 23158.100000000006 15170.099999999997 C 23131.800000000007 15065.999999999996 23235.200000000004 14778.999999999996 23157.600000000006 14770.799999999997 C 23065.800000000007 14761.099999999997 22585.000000000007 14719.699999999997 22382.100000000006 14536.899999999998 M 22195.800000000007 14773.599999999999 L 22173.200000000008 14802.3 C 22192.800000000007 14820 22211.300000000007 14837.4 22228.200000000008 14854.099999999999 C 22215.700000000008 14828.499999999998 22205.60000000001 14801.999999999998 22197.700000000008 14779.399999999998 C 22197.000000000007 14777.499999999998 22196.40000000001 14775.599999999999 22195.800000000007 14773.599999999999" stroke-linecap="round" />
</g>
		<g transform="matrix(0.06 0 0 -0.06 24.57 -77.19)" id="tFuIuKcEkEHS0BB2Qvuc7"  >
<path style="stroke: none; stroke-width: 1; stroke-dasharray: none; stroke-linecap: butt; stroke-dashoffset: 0; stroke-linejoin: miter; stroke-miterlimit: 4; fill: rgb(215,193,193); fill-rule: nonzero; opacity: 1;" vector-effect="non-scaling-stroke"  transform=" translate(-23414.75, -16391.8)" d="M 23303.1 16277.5 C 23303.3 16278.5 23303.6 16279.5 23303.899999999998 16280.5 C 23368.6 16366.2 23430.199999999997 16451.6 23525.899999999998 16506.1 C 23526.199999999997 16505.899999999998 23526.3 16505.399999999998 23526.399999999998 16504.5 C 23429.999999999996 16449.9 23368.199999999997 16363.7 23303.1 16277.5" stroke-linecap="round" />
</g>
		<g transform="matrix(0.06 0 0 -0.06 -3.77 -37.71)" id="nZBO4ymyWeZh6zLNEIPWP"  >
<path style="stroke: none; stroke-width: 1; stroke-dasharray: none; stroke-linecap: butt; stroke-dashoffset: 0; stroke-linejoin: miter; stroke-miterlimit: 4; fill: rgb(180,75,73); fill-rule: nonzero; opacity: 1;" vector-effect="non-scaling-stroke"  transform=" translate(-22920.41, -15703.1)" d="M 22455.5 14901.7 C 22432 14901.7 22409.3 14908.800000000001 22387 14925.800000000001 C 22362.7 14944.300000000001 22348.2 14958.7 22330.4 14958.7 C 22325.4 14958.7 22320.2 14957.6 22314.4 14955.1 C 22396.7 15096.1 22410.100000000002 15258.1 22467 15407.300000000001 C 22491.9 15472.300000000001 22519.4 15528.500000000002 22550.6 15578.000000000002 C 22603.899999999998 15594.000000000002 22658.1 15604.100000000002 22712.699999999997 15606.500000000002 C 22917.899999999998 15615.500000000002 23080.299999999996 15726.700000000003 23241.699999999997 15846.700000000003 C 23277.199999999997 15873.000000000002 23314.1 15896.700000000003 23351.6 15919.500000000002 C 23345.399999999998 15827.700000000003 23352.899999999998 15681.400000000001 23351.5 15603.900000000001 C 23350.5 15547.500000000002 23324.8 15488.500000000002 23292.2 15429.300000000001 C 23281.3 15416.000000000002 23268.8 15403.400000000001 23253.100000000002 15392.000000000002 C 23189.7 15345.700000000003 23129.7 15341.100000000002 23061.500000000004 15319.300000000001 C 22992.500000000004 15297.300000000001 22955.500000000004 15240.300000000001 22879.700000000004 15235.400000000001 C 22826.000000000004 15232.000000000002 22792.600000000006 15238.600000000002 22747.900000000005 15204.300000000001 C 22649.500000000004 15128.800000000001 22633.400000000005 14965.400000000001 22523.200000000004 14917.900000000001 C 22499.800000000003 14907.900000000001 22477.300000000003 14901.7 22455.500000000004 14901.7 M 22725.900000000005 15769.300000000001 C 22759.500000000004 15795.1 22796.200000000004 15819.400000000001 22836.300000000007 15842.900000000001 C 23010.500000000007 15945.300000000001 23211.100000000006 15984.000000000002 23289.300000000007 16230.400000000001 C 23294.300000000007 16246.100000000002 23298.800000000007 16261.900000000001 23303.100000000006 16277.500000000002 C 23368.200000000004 16363.700000000003 23430.000000000007 16449.9 23526.400000000005 16504.5 C 23527.700000000004 16487.5 23484.700000000004 16337.8 23414.600000000006 16134.1 C 23321.100000000006 16040.9 23233.900000000005 15939.5 23121.600000000006 15862.4 C 23000.100000000006 15778.8 22863.200000000004 15778 22725.900000000005 15769.3" stroke-linecap="round" />
</g>
		<g transform="matrix(0.06 0 0 -0.06 -0.21 -46.48)" id="52"  >
<path style="stroke: none; stroke-width: 1; stroke-dasharray: none; stroke-linecap: butt; stroke-dashoffset: 0; stroke-linejoin: miter; stroke-miterlimit: 4; fill: rgb(198,109,101); fill-rule: nonzero; opacity: 1;" vector-effect="non-scaling-stroke"  transform=" translate(-22982.6, -15856.05)" d="M 22550.6 15578 C 22598.8 15654.6 22655.899999999998 15715.5 22725.899999999998 15769.3 C 22863.199999999997 15778 23000.1 15778.8 23121.6 15862.4 C 23233.899999999998 15939.5 23321.1 16040.9 23414.6 16134.1 C 23398.399999999998 16087.1 23380.8 16037.2 23362 15985.4 C 23356.8 15971.1 23353.5 15947.9 23351.6 15919.5 C 23314.1 15896.7 23277.199999999997 15873 23241.699999999997 15846.7 C 23080.299999999996 15726.7 22917.899999999998 15615.5 22712.699999999997 15606.5 C 22658.1 15604.1 22603.899999999998 15594 22550.6 15578" stroke-linecap="round" />
</g>
		<g transform="matrix(0.06 0 0 -0.06 -13.89 -0.2)" id="lwu9Jjl6CQEh8wlj-ff8l"  >
<path style="stroke: none; stroke-width: 1; stroke-dasharray: none; stroke-linecap: butt; stroke-dashoffset: 0; stroke-linejoin: miter; stroke-miterlimit: 4; fill: rgb(198,109,101); fill-rule: nonzero; opacity: 1;" vector-effect="non-scaling-stroke"  transform=" translate(-22744, -15048.95)" d="M 22278.5 14668.6 L 22195.8 14773.6 C 22196.399999999998 14775.6 22197 14777.5 22197.7 14779.4 C 22205.600000000002 14802 22215.7 14828.5 22228.2 14854.1 C 22267.7 14893 22298.600000000002 14928 22314.100000000002 14954.5 C 22314.2 14954.7 22314.300000000003 14954.9 22314.4 14955.1 C 22320.2 14957.6 22325.4 14958.7 22330.4 14958.7 C 22348.2 14958.7 22362.7 14944.300000000001 22387 14925.800000000001 C 22409.3 14908.800000000001 22432 14901.7 22455.5 14901.7 C 22477.3 14901.7 22499.8 14907.900000000001 22523.2 14917.900000000001 C 22633.4 14965.400000000001 22649.5 15128.800000000001 22747.9 15204.300000000001 C 22792.600000000002 15238.6 22826 15232.000000000002 22879.7 15235.400000000001 C 22955.5 15240.300000000001 22992.5 15297.300000000001 23061.5 15319.300000000001 C 23129.7 15341.1 23189.7 15345.7 23253.1 15392.000000000002 C 23268.8 15403.400000000001 23281.3 15416.000000000002 23292.199999999997 15429.300000000001 C 23254.799999999996 15361.400000000001 23208.199999999997 15293.300000000001 23179.199999999997 15228.7 C 23157.499999999996 15227.400000000001 23135.799999999996 15223 23113.799999999996 15213.300000000001 C 23076.599999999995 15197.000000000002 23013.099999999995 15161.7 22994.599999999995 15124.500000000002 C 22971.299999999996 15077.700000000003 22985.799999999996 15037.600000000002 22940.099999999995 14994.700000000003 C 22902.699999999993 14959.700000000003 22855.799999999996 14952.100000000002 22807.699999999993 14952.100000000002 C 22796.499999999993 14952.100000000002 22785.199999999993 14952.500000000002 22773.999999999993 14953.100000000002 C 22765.499999999993 14953.500000000002 22757.899999999994 14953.800000000003 22751.09999999999 14953.800000000003 C 22703.59999999999 14953.800000000003 22694.499999999993 14941.600000000002 22653.999999999993 14897.200000000003 C 22598.59999999999 14836.300000000003 22534.09999999999 14742.400000000003 22459.299999999992 14703.400000000003 C 22410.799999999992 14678.100000000004 22353.799999999992 14695.700000000003 22303.699999999993 14682.600000000004 C 22296.699999999993 14680.800000000005 22288.199999999993 14675.700000000004 22278.499999999993 14668.600000000004" stroke-linecap="round" />
</g>
		<g transform="matrix(0.06 0 0 -0.06 -6.62 -93.62)" id="Hsuw_lUTnwvLahaviJB97"  >
<path style="stroke: none; stroke-width: 1; stroke-dasharray: none; stroke-linecap: butt; stroke-dashoffset: 0; stroke-linejoin: miter; stroke-miterlimit: 4; fill: rgb(219,95,86); fill-rule: nonzero; opacity: 1;" vector-effect="non-scaling-stroke"  transform=" translate(-22870.75, -16678.4)" d="M 23952.6 18869.4 C 23740.699999999997 18709.9 23504.199999999997 18624.600000000002 23343.699999999997 18377.300000000003 C 23264.1 18254.700000000004 23259.999999999996 18119.500000000004 23214.699999999997 17979.800000000003 C 23152.399999999998 17787.500000000004 23006.699999999997 17682.800000000003 22846.999999999996 17624.100000000002 C 22597.699999999997 17532.500000000004 22376.699999999997 17409.300000000003 22333.299999999996 17071.500000000004 C 22289.299999999996 16728.700000000004 22184.599999999995 16479.300000000003 21877.899999999994 16383.500000000004 C 21703.099999999995 16329.000000000004 21498.999999999993 16265.400000000003 21430.199999999993 16039.600000000004 C 21403.299999999992 15951.300000000005 21271.799999999992 15486.900000000003 21053.999999999993 15322.300000000005 L 21776.699999999993 14487.400000000005 C 21786.199999999993 14486.800000000005 22237.399999999994 14823.400000000005 22314.099999999995 14954.500000000005 C 22396.599999999995 15095.700000000006 22409.999999999996 15257.900000000005 22466.999999999996 15407.300000000005 C 22548.699999999997 15621.200000000004 22658.899999999998 15738.700000000004 22836.299999999996 15842.900000000005 C 23010.499999999996 15945.300000000005 23211.099999999995 15984.000000000005 23289.299999999996 16230.400000000005 C 23352.699999999997 16430.200000000004 23344.499999999996 16619.800000000007 23479.599999999995 16792.200000000004 C 23604.199999999993 16951.100000000006 23776.999999999996 16965.400000000005 23922.899999999994 17077.000000000004 C 24091.799999999996 17206.100000000002 24138.299999999996 17440.600000000002 24204.799999999996 17650.600000000002 C 24271.499999999996 17861.2 24538.299999999996 18161.7 24687.499999999996 18297.300000000003 C 24410.199999999997 18450.200000000004 24172.599999999995 18720.600000000002 23952.599999999995 18869.4" stroke-linecap="round" />
</g>
		<g transform="matrix(0.06 0 0 -0.06 -17.71 -105.55)" id="JNXqw2VmhnMPCKz7CZW-4"  >
<path style="stroke: none; stroke-width: 1; stroke-dasharray: none; stroke-linecap: butt; stroke-dashoffset: 0; stroke-linejoin: miter; stroke-miterlimit: 4; fill: rgb(255,183,164); fill-rule: nonzero; opacity: 1;" vector-effect="non-scaling-stroke"  transform=" translate(-22677.25, -16886.35)" d="M 24097.7 18755.8 C 24009.100000000002 18709.7 23938.600000000002 18613.3 23853.2 18560.899999999998 C 23735.9 18488.899999999998 23605.9 18474.399999999998 23529.5 18353.1 C 23457.1 18238.199999999997 23444.2 18101 23418.3 17970.199999999997 C 23391.8 17836.1 23322.399999999998 17766.1 23209.2 17694.499999999996 C 23143.4 17652.799999999996 23062.100000000002 17619.199999999997 23006.600000000002 17563.799999999996 C 22966.800000000003 17524.099999999995 22956.2 17469.199999999997 22928.2 17421.599999999995 C 22831.5 17257.099999999995 22638.9 17204.699999999993 22504.8 17082.999999999996 C 22400.5 16988.299999999996 22401.7 16903.999999999996 22390.1 16773.299999999996 C 22380 16658.599999999995 22324.699999999997 16543.399999999994 22242.399999999998 16465.099999999995 C 22178.8 16404.699999999993 21990.699999999997 16299.799999999996 21998.8 16200.399999999994 C 22037.7 16205.099999999995 22082.899999999998 16246.099999999995 22117.399999999998 16261.799999999994 C 22025.199999999997 15963.699999999993 21610.6 15960.499999999995 21438.6 15733.499999999995 C 21367.1 15639.199999999995 21345.8 15517.899999999994 21292.6 15414.599999999995 C 21273.8 15378.099999999995 21209.6 15238.399999999994 21163.399999999998 15188.199999999995 L 21311.8 15016.899999999996 C 21316.6 15029.399999999996 21320.899999999998 15041.099999999997 21325 15051.199999999995 C 21368.2 15160.499999999995 21424.5 15291.299999999996 21532.7 15349.299999999996 C 21615.100000000002 15393.399999999996 21708.5 15400.399999999996 21783.5 15462.299999999996 C 21845.4 15513.399999999996 21900.2 15574.299999999996 21961.5 15625.899999999996 C 21999.5 15657.899999999996 22043.2 15692.699999999995 22071.3 15734.999999999996 C 22097.5 15774.299999999996 22114.6 15822.799999999996 22044.899999999998 15813.199999999997 C 22000.1 15807.099999999997 21963.499999999996 15761.199999999997 21930.199999999997 15735.899999999998 C 21897.799999999996 15711.299999999997 21731.999999999996 15540.899999999998 21731.1 15661.399999999998 C 21730.3 15754.299999999997 21898.3 15842.299999999997 21954.899999999998 15895.399999999998 C 22007.399999999998 15944.799999999997 22056.399999999998 15983.799999999997 22119.199999999997 16017.999999999998 C 22156.299999999996 16038.199999999999 22197.899999999998 16059.099999999999 22226.699999999997 16089.699999999999 C 22289.999999999996 16156.999999999998 22315.799999999996 16251.8 22342.999999999996 16335.599999999999 C 22373.999999999996 16431.399999999998 22454.999999999996 16466 22500.799999999996 16549.8 C 22529.199999999997 16601.8 22512.899999999994 16632.899999999998 22509.799999999996 16685.8 C 22505.899999999994 16751.7 22540.199999999997 16798.8 22580.299999999996 16848.8 C 22689.299999999996 16984.7 22847.699999999997 17066.3 22954.399999999994 17197.899999999998 C 23028.299999999996 17289.199999999997 23092.599999999995 17380.1 23194.699999999993 17439.6 C 23310.899999999994 17507.199999999997 23379.499999999993 17604.1 23439.199999999993 17727 C 23505.199999999993 17862.7 23586.399999999994 17998.2 23612.799999999992 18149.3 C 23630.89999999999 18252.6 23717.499999999993 18296.8 23800.999999999993 18356.899999999998 C 23895.899999999994 18425.3 23987.299999999992 18499.199999999997 24078.09999999999 18572.499999999996 C 24109.999999999993 18598.199999999997 24160.69999999999 18635.799999999996 24191.09999999999 18675.499999999996 C 24159.499999999993 18702.999999999996 24128.39999999999 18729.999999999996 24097.69999999999 18755.799999999996" stroke-linecap="round" />
</g>
		<g transform="matrix(0.06 0 0 -0.06 -6.67 -84.1)" id="CVXWbhRKF-P5fYfLLF7i9"  >
<path style="stroke: none; stroke-width: 1; stroke-dasharray: none; stroke-linecap: butt; stroke-dashoffset: 0; stroke-linejoin: miter; stroke-miterlimit: 4; fill: rgb(255,183,164); fill-rule: nonzero; opacity: 1;" vector-effect="non-scaling-stroke"  transform=" translate(-22869.95, -16512.24)" d="M 24135.2 18296.6 C 24043.5 18234.199999999997 23944.7 18222.8 23893.5 18108.6 C 23844 17998.3 23872.8 17885.8 23786.5 17788.399999999998 C 23723.6 17717.499999999996 23626.7 17655.499999999996 23582.8 17568.999999999996 C 23561.2 17526.499999999996 23564.7 17481.099999999995 23550.1 17438.099999999995 C 23536.699999999997 17398.699999999993 23509.5 17360.999999999996 23483.3 17328.599999999995 C 23460 17299.799999999996 23272.6 17112.199999999993 23284.7 17196.799999999996 C 23295.9 17274.699999999997 23461.9 17311.799999999996 23461.4 17391.399999999994 C 23460.600000000002 17503.699999999993 23288.4 17280.099999999995 23267.9 17256.799999999996 C 23204.9 17184.999999999996 23140.5 17124.199999999997 23063.800000000003 17067.199999999997 C 23027.100000000002 17039.899999999998 22975.300000000003 17004.399999999998 22975.200000000004 16953.499999999996 C 22975.200000000004 16903.699999999997 23028.600000000006 16873.199999999997 23027.700000000004 16822.799999999996 C 23027.000000000004 16779.199999999997 23003.300000000003 16726.299999999996 22980.300000000003 16690.999999999996 C 22929.000000000004 16612.199999999997 22869.800000000003 16520.299999999996 22809.4 16450.399999999998 C 22773.9 16409.399999999998 22736.300000000003 16416.8 22700.2 16424.199999999997 C 22663 16431.799999999996 22627.5 16439.399999999998 22597.5 16394.299999999996 C 22575.9 16361.699999999995 22575.9 16315.899999999996 22558.4 16278.099999999995 C 22535.4 16228.499999999995 22498.600000000002 16191.399999999994 22463 16151.399999999994 C 22391.6 16071.099999999995 22341.2 16006.499999999995 22320.7 15902.999999999995 C 22296.7 15780.999999999995 22313.5 15671.999999999995 22254.100000000002 15554.399999999994 C 22166.2 15380.199999999993 22006.000000000004 15280.499999999995 21824.300000000003 15228.899999999994 C 21694.000000000004 15191.899999999994 21582.700000000004 15120.099999999995 21533.9 14987.199999999993 C 21512.100000000002 14927.899999999994 21513.2 14858.799999999994 21515.300000000003 14792.199999999993 L 21615.500000000004 14676.399999999994 C 21616.000000000004 14730.799999999994 21606.100000000002 14786.899999999994 21635.800000000003 14837.099999999995 C 21723.800000000003 14985.399999999994 21913.000000000004 15077.599999999995 22055.100000000002 15166.199999999995 C 22172.800000000003 15239.699999999995 22247.000000000004 15363.299999999996 22328.600000000002 15472.099999999995 C 22376.800000000003 15536.399999999994 22410.100000000002 15611.999999999995 22426.100000000002 15688.699999999995 C 22449.500000000004 15800.199999999995 22481.4 15905.099999999995 22561.300000000003 15994.699999999995 C 22620.600000000002 16061.299999999996 22728.000000000004 16105.499999999995 22745.100000000002 16194.499999999995 C 22752.600000000002 16233.199999999995 22746.9 16287.899999999994 22777.600000000002 16318.599999999995 C 22807.7 16348.699999999995 22861.9 16348.499999999995 22895.800000000003 16378.899999999994 C 22963.500000000004 16439.499999999993 23015.300000000003 16518.299999999996 23074.700000000004 16586.199999999993 C 23154.800000000003 16677.999999999993 23128.700000000004 16733.999999999993 23109.900000000005 16837.399999999994 C 23096.800000000007 16909.599999999995 23129.700000000004 17009.499999999993 23196.000000000004 17050.499999999993 C 23268.900000000005 17095.499999999993 23367.800000000003 17069.199999999993 23445.600000000002 17118.299999999992 C 23543.4 17179.999999999993 23559.4 17308.699999999993 23603.800000000003 17406.999999999993 C 23622.000000000004 17447.299999999992 23640.800000000003 17491.999999999993 23675.300000000003 17520.699999999993 C 23708.9 17548.599999999995 23746.000000000004 17550.199999999993 23775.000000000004 17584.699999999993 C 23834.300000000003 17655.499999999993 23866.300000000003 17774.499999999993 23884.500000000004 17861.699999999993 C 23899.700000000004 17934.999999999993 23920.400000000005 18045.399999999994 23963.000000000004 18107.399999999994 C 24006.400000000005 18170.599999999995 24091.900000000005 18208.699999999993 24156.500000000004 18247.199999999993 C 24181.100000000002 18261.799999999992 24234.800000000003 18289.299999999992 24224.300000000003 18326.899999999994 C 24208.800000000003 18382.399999999994 24159.800000000003 18313.199999999993 24135.200000000004 18296.599999999995" stroke-linecap="round" />
</g>
		<g transform="matrix(0.06 0 0 -0.06 8.15 -123.56)" id="MPInuwc2ocDQFM0Ie70DW"  >
<path style="stroke: none; stroke-width: 1; stroke-dasharray: none; stroke-linecap: butt; stroke-dashoffset: 0; stroke-linejoin: miter; stroke-miterlimit: 4; fill: rgb(226,113,102); fill-rule: nonzero; opacity: 1;" vector-effect="non-scaling-stroke"  transform=" translate(-23128.36, -17200.6)" d="M 23404.4 16973.2 C 23333.800000000003 16973.2 23251.4 17008.5 23178.9 17038 C 23184.300000000003 17042.6 23190 17046.8 23196 17050.5 C 23268.9 17095.5 23367.8 17069.2 23445.6 17118.3 C 23469.199999999997 17133.2 23488.1 17152.1 23503.8 17173.5 C 23524.8 17174 23545.8 17174.4 23566.8 17174.4 C 23611.7 17174.4 23656.6 17172.600000000002 23701.5 17166.600000000002 C 23841.1 17148.000000000004 23764.3 17070.100000000002 23680.8 17029.300000000003 C 23605.1 16992.300000000003 23488.899999999998 16973.4 23404.899999999998 16973.200000000004 C 23404.8 16973.200000000004 23404.6 16973.200000000004 23404.399999999998 16973.200000000004 M 23077.8 17077.700000000004 C 23021.3 17101.200000000004 22966 17127.400000000005 22908.5 17147.000000000004 C 22924.6 17163.200000000004 22940 17180.100000000002 22954.4 17197.900000000005 C 22980.5 17230.100000000006 23005.4 17262.300000000007 23031.100000000002 17293.000000000004 C 23059.800000000003 17289.700000000004 23090.800000000003 17288.100000000002 23126.100000000002 17285.900000000005 C 23111.600000000002 17242.600000000006 23083.2 17224.100000000006 23131.800000000003 17196.700000000004 C 23146.800000000003 17188.200000000004 23169.700000000004 17182.800000000003 23194.9 17179.300000000003 C 23158.2 17143.300000000003 23119.800000000003 17109.9 23077.800000000003 17077.700000000004 M 22605.9 17192.200000000004 C 22575.7 17192.200000000004 22545.800000000003 17194.900000000005 22520.4 17209.600000000006 C 22434 17259.400000000005 22494 17396.600000000006 22576.100000000002 17396.600000000006 C 22576.7 17396.600000000006 22577.4 17396.600000000006 22578.000000000004 17396.600000000006 L 22619.800000000003 17422.700000000004 C 22640.000000000004 17426.200000000004 22659.600000000002 17428.000000000004 22678.800000000003 17428.000000000004 C 22742.4 17428.000000000004 22800.500000000004 17408.100000000002 22855.000000000004 17364.900000000005 C 22861.700000000004 17359.600000000006 22868.200000000004 17354.700000000004 22874.700000000004 17350.200000000004 C 22814.300000000003 17285.100000000006 22736.900000000005 17239.800000000003 22660.500000000004 17193.100000000006 C 22660.000000000004 17193.100000000006 22659.500000000004 17193.100000000006 22659.000000000004 17193.100000000006 C 22650.400000000005 17193.100000000006 22641.600000000002 17192.900000000005 22632.700000000004 17192.600000000006 C 22623.800000000003 17192.400000000005 22614.900000000005 17192.200000000004 22605.900000000005 17192.200000000004" stroke-linecap="round" />
</g>
		<g transform="matrix(0.06 0 0 -0.06 -8.05 -126.32)" id="b7J4ekImc1-6_J5K6JQ-s"  >
<path style="stroke: none; stroke-width: 1; stroke-dasharray: none; stroke-linecap: butt; stroke-dashoffset: 0; stroke-linejoin: miter; stroke-miterlimit: 4; fill: rgb(255,183,164); fill-rule: nonzero; opacity: 1;" vector-effect="non-scaling-stroke"  transform=" translate(-22845.8, -17248.6)" d="M 22908.5 17147 C 22883.8 17155.4 22858.7 17162.6 22832.8 17167.9 C 22780.5 17178.600000000002 22729.6 17190 22676.1 17192.7 C 22671 17193 22665.8 17193.100000000002 22660.5 17193.100000000002 C 22736.9 17239.800000000003 22814.3 17285.100000000002 22874.7 17350.2 C 22927.8 17312.9 22974.9 17299.600000000002 23031.100000000002 17293 C 23005.4 17262.3 22980.500000000004 17230.1 22954.4 17197.9 C 22940 17180.100000000002 22924.600000000002 17163.2 22908.5 17147" stroke-linecap="round" />
</g>
		<g transform="matrix(0.06 0 0 -0.06 17.46 -118.29)" id="6"  >
<path style="stroke: none; stroke-width: 1; stroke-dasharray: none; stroke-linecap: butt; stroke-dashoffset: 0; stroke-linejoin: miter; stroke-miterlimit: 4; fill: rgb(255,183,164); fill-rule: nonzero; opacity: 1;" vector-effect="non-scaling-stroke"  transform=" translate(-23290.8, -17108.65)" d="M 23178.9 17038 C 23161.2 17045.2 23144.100000000002 17052.1 23127.9 17058 C 23111 17064.2 23094.4 17070.9 23077.800000000003 17077.7 C 23119.800000000003 17109.9 23158.200000000004 17143.3 23194.9 17179.3 C 23238.5 17173.399999999998 23289.4 17173 23319.9 17171.8 C 23338.2 17171.1 23356.4 17170.8 23374.600000000002 17170.8 C 23406.800000000003 17170.8 23438.9 17171.7 23470.9 17172.6 C 23481.9 17172.899999999998 23492.800000000003 17173.199999999997 23503.800000000003 17173.5 C 23488.100000000002 17152.1 23469.200000000004 17133.2 23445.600000000002 17118.3 C 23367.800000000003 17069.2 23268.9 17095.5 23196.000000000004 17050.5 C 23190.000000000004 17046.8 23184.300000000003 17042.6 23178.900000000005 17038" stroke-linecap="round" />
</g>
		<g transform="matrix(0.06 0 0 -0.06 52.99 -189.47)" id="dSx8I-s1Ln8BsUpUPppsb"  >
<path style="stroke: none; stroke-width: 1; stroke-dasharray: none; stroke-linecap: butt; stroke-dashoffset: 0; stroke-linejoin: miter; stroke-miterlimit: 4; fill: rgb(226,113,102); fill-rule: nonzero; opacity: 1;" vector-effect="non-scaling-stroke"  transform=" translate(-23910.46, -18350.15)" d="M 24215.5 18020.6 C 24196.9 18020.6 24177.3 18031 24157.5 18044.8 C 24107.9 18079.399999999998 24061.8 18120.5 24015.2 18160.899999999998 C 24053.4 18190.8 24099.600000000002 18214.499999999996 24140.100000000002 18237.6 C 24174.800000000003 18218.399999999998 24206.7 18197.1 24230.800000000003 18169.899999999998 C 24261.700000000004 18135.199999999997 24292.800000000003 18101.499999999996 24264.800000000003 18054.999999999996 C 24249.9 18030.099999999995 24233.200000000004 18020.599999999995 24215.500000000004 18020.599999999995 M 23967.700000000004 18201.299999999996 C 23954.100000000006 18212.599999999995 23940.400000000005 18223.499999999996 23926.400000000005 18234.099999999995 C 23880.800000000007 18268.499999999996 23835.000000000004 18299.299999999996 23780.100000000006 18317.699999999993 C 23771.900000000005 18320.499999999993 23763.300000000007 18322.699999999993 23754.600000000006 18324.599999999995 C 23769.900000000005 18335.199999999993 23785.500000000007 18345.799999999996 23801.000000000007 18356.899999999994 C 23832.300000000007 18379.499999999993 23863.200000000008 18402.599999999995 23893.800000000007 18426.099999999995 C 23921.300000000007 18346.099999999995 24003.300000000007 18306.699999999993 24084.400000000005 18266.399999999994 C 24043.300000000007 18244.699999999993 24002.800000000007 18227.499999999993 23967.700000000004 18201.299999999996 M 23557.600000000006 18390.699999999997 C 23507.400000000005 18469.699999999997 23620.800000000007 18611.799999999996 23696.500000000007 18635.199999999997 L 23738.300000000007 18661.399999999998 C 23758.800000000007 18672.8 23779.900000000005 18679.699999999997 23800.300000000007 18679.699999999997 C 23825.800000000007 18679.699999999997 23850.100000000006 18668.799999999996 23870.200000000008 18641.899999999998 C 23883.200000000008 18624.6 23888.40000000001 18605.899999999998 23889.90000000001 18586.499999999996 C 23877.90000000001 18577.199999999997 23865.700000000008 18568.599999999995 23853.200000000008 18560.899999999998 C 23749.300000000007 18497.1 23635.40000000001 18478.499999999996 23557.60000000001 18390.699999999997" stroke-linecap="round" />
</g>
		<g transform="matrix(0.06 0 0 -0.06 42.4 -195.52)" id="HB3ifE6Oeq9vyMobt89x9"  >
<path style="stroke: none; stroke-width: 1; stroke-dasharray: none; stroke-linecap: butt; stroke-dashoffset: 0; stroke-linejoin: miter; stroke-miterlimit: 4; fill: rgb(255,183,164); fill-rule: nonzero; opacity: 1;" vector-effect="non-scaling-stroke"  transform=" translate(-23725.7, -18455.55)" d="M 23754.6 18324.6 C 23702 18336.1 23642.5 18334.899999999998 23595.699999999997 18358.1 C 23578.199999999997 18366.8 23565.799999999996 18377.899999999998 23557.6 18390.699999999997 C 23635.399999999998 18478.499999999996 23749.3 18497.1 23853.199999999997 18560.899999999998 C 23865.699999999997 18568.6 23877.899999999998 18577.199999999997 23889.899999999998 18586.499999999996 C 23892.699999999997 18550.199999999997 23882.199999999997 18511.199999999997 23884.6 18473.499999999996 C 23885.699999999997 18456.199999999997 23888.899999999998 18440.499999999996 23893.8 18426.099999999995 C 23863.2 18402.599999999995 23832.3 18379.499999999996 23801 18356.899999999994 C 23785.5 18345.799999999996 23769.9 18335.199999999993 23754.6 18324.599999999995" stroke-linecap="round" />
</g>
		<g transform="matrix(0.06 0 0 -0.06 61.21 -181.64)" id="ad9nonmay1b_by1c7gX66"  >
<path style="stroke: none; stroke-width: 1; stroke-dasharray: none; stroke-linecap: butt; stroke-dashoffset: 0; stroke-linejoin: miter; stroke-miterlimit: 4; fill: rgb(255,183,164); fill-rule: nonzero; opacity: 1;" vector-effect="non-scaling-stroke"  transform=" translate(-24053.9, -18213.65)" d="M 24015.2 18160.9 C 23999.5 18174.600000000002 23983.7 18188.100000000002 23967.7 18201.300000000003 C 24002.8 18227.500000000004 24043.3 18244.700000000004 24084.4 18266.4 C 24103.2 18257.100000000002 24122 18247.600000000002 24140.100000000002 18237.600000000002 C 24099.600000000002 18214.500000000004 24053.4 18190.800000000003 24015.2 18160.9" stroke-linecap="round" />
</g>
		<g transform="matrix(0.06 0 0 -0.06 -53.48 -53.04)" id="uCpgcy-JV-VeMYx1_4uiN"  >
<path style="stroke: none; stroke-width: 1; stroke-dasharray: none; stroke-linecap: butt; stroke-dashoffset: 0; stroke-linejoin: miter; stroke-miterlimit: 4; fill: rgb(226,113,102); fill-rule: nonzero; opacity: 1;" vector-effect="non-scaling-stroke"  transform=" translate(-22053.44, -15970.55)" d="M 22440.3 15750.2 C 22455.5 15809.5 22475.5 15866.400000000001 22506.5 15919.400000000001 C 22603.8 15887.600000000002 22635.4 15813.500000000002 22532.1 15770.000000000002 C 22502.3 15757.400000000001 22471.6 15751.300000000001 22440.3 15750.200000000003 M 22304.8 15770.900000000003 C 22190.8 15805.700000000003 22075.7 15875.800000000003 21975.2 15914.100000000004 C 22020.4 15954.800000000005 22064.600000000002 15988.200000000004 22119.2 16018.000000000004 C 22129.4 16023.500000000004 22139.8 16029.100000000004 22150.3 16034.900000000003 C 22197.8 16015.600000000004 22209 15994.800000000003 22238 15959.300000000003 C 22257.3 15935.700000000003 22289.5 15928.400000000003 22326.1 15926.800000000003 C 22324.199999999997 15919.100000000002 22322.399999999998 15911.200000000003 22320.699999999997 15903.000000000004 C 22311.799999999996 15857.500000000004 22308.499999999996 15813.800000000003 22304.799999999996 15770.900000000003 M 21631.299999999996 15937.600000000004 C 21604.599999999995 15937.600000000004 21578.299999999996 15941.300000000005 21553.499999999996 15952.800000000005 C 21454.499999999996 15998.500000000005 21558.899999999998 16168.400000000005 21558.899999999998 16168.400000000005 C 21576.8 16184.700000000004 21599.399999999998 16190.900000000005 21622.999999999996 16190.900000000005 C 21674.899999999998 16190.900000000005 21731.199999999997 16160.600000000006 21751.099999999995 16141.100000000006 C 21822.199999999993 16071.100000000006 21879.599999999995 16073.100000000006 21971.099999999995 16065.300000000007 C 21909.899999999994 16019.900000000007 21837.499999999996 15984.800000000007 21764.399999999994 15950.200000000006 C 21758.599999999995 15949.800000000007 21752.699999999993 15949.400000000007 21746.899999999994 15948.900000000007 C 21709.299999999996 15945.400000000007 21669.799999999996 15937.600000000008 21631.299999999996 15937.600000000008" stroke-linecap="round" />
</g>
		<g transform="matrix(0.06 0 0 -0.06 -58.99 -54.14)" id="EIgdmCBc2gTrD8WVgmNB0"  >
<path style="stroke: none; stroke-width: 1; stroke-dasharray: none; stroke-linecap: butt; stroke-dashoffset: 0; stroke-linejoin: miter; stroke-miterlimit: 4; fill: rgb(255,183,164); fill-rule: nonzero; opacity: 1;" vector-effect="non-scaling-stroke"  transform=" translate(-21957.35, -15989.7)" d="M 21975.2 15914.1 C 21968.3 15916.800000000001 21961.5 15919.2 21954.7 15921.5 C 21899 15940.6 21846.4 15950.9 21790.600000000002 15950.9 C 21781.9 15950.9 21773.2 15950.699999999999 21764.4 15950.199999999999 C 21837.5 15984.8 21909.9 16019.9 21971.100000000002 16065.3 C 21976.4 16064.9 21981.9 16064.4 21987.4 16063.8 C 22038.7 16058.9 22089.5 16057 22139.100000000002 16039.099999999999 C 22143.000000000004 16037.699999999999 22146.800000000003 16036.3 22150.300000000003 16034.899999999998 C 22139.800000000003 16029.099999999999 22129.4 16023.499999999998 22119.200000000004 16017.999999999998 C 22064.600000000006 15988.199999999999 22020.400000000005 15954.799999999997 21975.200000000004 15914.099999999999" stroke-linecap="round" />
</g>
		<g transform="matrix(0.06 0 0 -0.06 -33.29 -45.52)" id="McEv1nLC0HkodZfJqUpiA"  >
<path style="stroke: none; stroke-width: 1; stroke-dasharray: none; stroke-linecap: butt; stroke-dashoffset: 0; stroke-linejoin: miter; stroke-miterlimit: 4; fill: rgb(255,183,164); fill-rule: nonzero; opacity: 1;" vector-effect="non-scaling-stroke"  transform=" translate(-22405.65, -15839.45)" d="M 22429.2 15750 C 22388.4 15750 22346.7 15758.1 22304.8 15770.9 C 22308.5 15813.8 22311.8 15857.5 22320.7 15903 C 22322.4 15911.2 22324.2 15919.1 22326.100000000002 15926.8 C 22332.100000000002 15926.5 22338.100000000002 15926.4 22344.300000000003 15926.4 C 22359.000000000004 15926.4 22374.100000000002 15927 22389.200000000004 15927.6 C 22404.400000000005 15928.2 22419.600000000006 15928.9 22434.300000000003 15928.9 C 22457.9 15928.9 22480.4 15927.3 22499.600000000002 15921.6 C 22502.000000000004 15920.9 22504.300000000003 15920.2 22506.500000000004 15919.4 C 22475.500000000004 15866.4 22455.500000000004 15809.5 22440.300000000003 15750.199999999999 C 22436.600000000002 15750.099999999999 22433.000000000004 15749.999999999998 22429.200000000004 15749.999999999998" stroke-linecap="round" />
</g>
</g>
</g>
</svg>