<?xml version="1.0" encoding="UTF-8" standalone="no" ?>
<!DOCTYPE svg PUBLIC "-//W3C//DTD SVG 1.1//EN" "http://www.w3.org/Graphics/SVG/1.1/DTD/svg11.dtd">
<svg xmlns="http://www.w3.org/2000/svg" xmlns:xlink="http://www.w3.org/1999/xlink" version="1.1" width="204" height="16" viewBox="0 0 204 16" xml:space="preserve">
<desc>Created with Fabric.js 3.6.3</desc>
<defs>
</defs>
<g transform="matrix(1 0 0 1 125 -26)"  >
<g style=""   >
		<g transform="matrix(0.1 0 0 -0.1 -22.47 34.38)" id="Ktobpepqh7Lq10CnB_lKv"  >
<path style="stroke: none; stroke-width: 1; stroke-dasharray: none; stroke-linecap: butt; stroke-dashoffset: 0; stroke-linejoin: miter; stroke-miterlimit: 4; fill: rgb(209,70,36); fill-rule: nonzero; opacity: 1;" vector-effect="non-scaling-stroke"  transform=" translate(-2415, -1858.61)" d="M 3410 1858.61 C 3410 1830.99 3387.62 1808.61 3360 1808.61 L 1470 1808.61 C 1442.39 1808.61 1420 1830.99 1420 1858.61 C 1420 1886.2199999999998 1442.39 1908.61 1470 1908.61 L 3360 1908.61 C 3387.62 1908.61 3410 1886.2199999999998 3410 1858.61" stroke-linecap="round" />
</g>
		<g transform="matrix(0.1 0 0 -0.1 -22.47 34.38)" id="yxltZpJnjkYwIAQG-aep5"  >
<path style="stroke: none; stroke-width: 1; stroke-dasharray: none; stroke-linecap: butt; stroke-dashoffset: 0; stroke-linejoin: miter; stroke-miterlimit: 4; fill: rgb(9,16,25); fill-rule: nonzero; opacity: 1;" vector-effect="non-scaling-stroke"  transform=" translate(-2415, -1858.61)" d="M 3410 1858.61 L 3380 1858.61 C 3379.98 1852.99 3377.81 1848.1799999999998 3374.14 1844.4599999999998 C 3370.43 1840.7999999999997 3365.62 1838.62 3360 1838.61 L 1470 1838.61 C 1464.38 1838.62 1459.57 1840.8 1455.86 1844.4599999999998 C 1452.1899999999998 1848.1799999999998 1450.02 1852.9899999999998 1450 1858.61 C 1450.02 1864.2299999999998 1452.19 1869.04 1455.86 1872.75 C 1459.57 1876.41 1464.3799999999999 1878.59 1470 1878.61 L 3360 1878.61 C 3365.62 1878.59 3370.43 1876.4099999999999 3374.14 1872.75 C 3377.81 1869.04 3379.98 1864.23 3380 1858.61 L 3410 1858.61 L 3440 1858.61 C 3440.01 1880.6 3431 1900.79 3416.57 1915.1799999999998 C 3402.19 1929.61 3382 1938.62 3360 1938.61 L 1470 1938.61 C 1448.01 1938.62 1427.82 1929.61 1413.43 1915.1799999999998 C 1399 1900.7999999999997 1389.99 1880.6 1390 1858.61 C 1389.99 1836.61 1399 1816.4199999999998 1413.43 1802.04 C 1427.8200000000002 1787.61 1448.01 1778.59 1470 1778.61 L 3360 1778.61 C 3382 1778.59 3402.19 1787.61 3416.57 1802.04 C 3431 1816.42 3440.01 1836.61 3440 1858.61 L 3410 1858.61" stroke-linecap="round" />
</g>
		<g transform="matrix(0.1 0 0 -0.1 57.09 41.54)" id="diotw38Qz-oDHG9Nj6cSI"  >
<path style="stroke: none; stroke-width: 1; stroke-dasharray: none; stroke-linecap: butt; stroke-dashoffset: 0; stroke-linejoin: miter; stroke-miterlimit: 4; fill: rgb(8,13,17); fill-rule: nonzero; opacity: 1;" vector-effect="non-scaling-stroke"  transform=" translate(-3210.52, -1787.02)" d="M 3329.04 1778.61 L 3092 1778.61 C 3093.15 1784.2099999999998 3094.27 1789.81 3095.35 1795.4299999999998 L 3329.04 1795.4299999999998 L 3329.04 1778.61" stroke-linecap="round" />
</g>
		<g transform="matrix(0.1 0 0 -0.1 60.18 34.38)" id="K76cFJMOp8pePFqQ13z2A"  >
<path style="stroke: none; stroke-width: 1; stroke-dasharray: none; stroke-linecap: butt; stroke-dashoffset: 0; stroke-linejoin: miter; stroke-miterlimit: 4; fill: rgb(187,47,34); fill-rule: nonzero; opacity: 1;" vector-effect="non-scaling-stroke"  transform=" translate(-3241.45, -1858.61)" d="M 3360 1838.61 L 3102.9 1838.61 C 3105.03 1851.8899999999999 3106.96 1865.2199999999998 3108.71 1878.61 L 3360 1878.61 C 3365.62 1878.59 3370.43 1876.4099999999999 3374.14 1872.75 C 3377.81 1869.04 3379.98 1864.23 3380 1858.61 C 3379.98 1852.99 3377.81 1848.1799999999998 3374.14 1844.4599999999998 C 3370.43 1840.7999999999997 3365.62 1838.62 3360 1838.61" stroke-linecap="round" />
</g>
		<g transform="matrix(0.1 0 0 -0.1 62 35.15)" id="rqQ77y2IsQ6O0QK6QE8ye"  >
<path style="stroke: none; stroke-width: 1; stroke-dasharray: none; stroke-linecap: butt; stroke-dashoffset: 0; stroke-linejoin: miter; stroke-miterlimit: 4; fill: rgb(7,12,15); fill-rule: nonzero; opacity: 1;" vector-effect="non-scaling-stroke"  transform=" translate(-3259.68, -1850.94)" d="M 3371.09 1803.33 L 3096.8 1803.33 C 3098.98 1815.05 3101.02 1826.81 3102.9 1838.61 L 3360 1838.61 C 3365.62 1838.62 3370.43 1840.8 3374.14 1844.4599999999998 C 3377.81 1848.1799999999998 3379.98 1852.9899999999998 3380 1858.61 C 3379.98 1864.2299999999998 3377.81 1869.04 3374.14 1872.75 C 3370.43 1876.41 3365.62 1878.59 3360 1878.61 L 3370 1878.61 C 3377.9 1878.61 3385.63 1881.81 3391.21 1887.3899999999999 C 3394.37 1890.55 3396.76 1894.3799999999999 3398.25 1898.55 C 3412.85 1889.46 3422.56 1873.27 3422.56 1854.8 C 3422.56 1826.3799999999999 3399.5299999999997 1803.33 3371.09 1803.33" stroke-linecap="round" />
</g>
		<g transform="matrix(0.1 0 0 -0.1 61.38 31)" id="WC8jFBNQa6dvN5yRko1L2"  >
<path style="stroke: none; stroke-width: 1; stroke-dasharray: none; stroke-linecap: butt; stroke-dashoffset: 0; stroke-linejoin: miter; stroke-miterlimit: 4; fill: rgb(7,12,15); fill-rule: nonzero; opacity: 1;" vector-effect="non-scaling-stroke"  transform=" translate(-3253.48, -1892.44)" d="M 3370 1878.61 L 3108.71 1878.61 C 3109.91 1887.81 3111.01 1897.03 3112.03 1906.28 L 3112.03 1906.28 L 3112.03 1906.28 L 3371.09 1906.28 C 3381.06 1906.28 3390.3700000000003 1903.45 3398.25 1898.55 C 3396.76 1894.3799999999999 3394.37 1890.55 3391.21 1887.3899999999999 C 3385.63 1881.81 3377.9 1878.61 3370 1878.61" stroke-linecap="round" />
</g>
</g>
</g>
</svg>