<?xml version="1.0" encoding="UTF-8" standalone="no" ?>
<!DOCTYPE svg PUBLIC "-//W3C//DTD SVG 1.1//EN" "http://www.w3.org/Graphics/SVG/1.1/DTD/svg11.dtd">
<svg xmlns="http://www.w3.org/2000/svg" xmlns:xlink="http://www.w3.org/1999/xlink" version="1.1" width="199" height="44" viewBox="0 0 199 44" xml:space="preserve">
<desc>Created with Fabric.js 3.6.3</desc>
<defs>
</defs>
<g transform="matrix(1 0 0 1 91 51)"  >
<g style=""   >
		<g transform="matrix(0.1 0 0 -0.1 8.81 -28.23)" id="5"  >
<path style="stroke: none; stroke-width: 1; stroke-dasharray: none; stroke-linecap: butt; stroke-dashoffset: 0; stroke-linejoin: miter; stroke-miterlimit: 4; fill: rgb(244,173,25); fill-rule: nonzero; opacity: 1;" vector-effect="non-scaling-stroke"  transform=" translate(-2422.37, -1088.61)" d="M 3369.82 970.672 C 3369.82 931.551 3338.1000000000004 898.609 3298.98 898.609 L 1545.75 898.609 C 1506.62 898.609 1474.91 931.551 1474.91 970.672 L 1457.2 1204.33 C 1457.2 1243.4499999999998 1488.91 1278.61 1528.04 1278.61 L 3316.7 1278.61 C 3355.7999999999997 1278.61 3387.54 1243.4499999999998 3387.54 1204.33 L 3369.82 970.6719999999999" stroke-linecap="round" />
</g>
		<g transform="matrix(0.1 0 0 -0.1 8.81 -28.23)" id="26"  >
<path style="stroke: none; stroke-width: 1; stroke-dasharray: none; stroke-linecap: butt; stroke-dashoffset: 0; stroke-linejoin: miter; stroke-miterlimit: 4; fill: rgb(9,16,25); fill-rule: nonzero; opacity: 1;" vector-effect="non-scaling-stroke"  transform=" translate(-2422.37, -1088.61)" d="M 3369.82 970.672 L 3339.82 970.672 C 3339.8300000000004 959.289 3335.2000000000003 948.711 3327.61 940.9300000000001 C 3319.98 933.172 3310.01 928.6210000000001 3298.98 928.609 L 1545.75 928.609 C 1534.72 928.621 1524.75 933.172 1517.12 940.9300000000001 C 1509.53 948.711 1504.8999999999999 959.2890000000001 1504.9099999999999 970.672 L 1504.9099999999999 971.801 L 1487.11 1206.6000000000001 L 1457.1999999999998 1204.3300000000002 L 1487.1999999999998 1204.3300000000002 C 1487.1399999999999 1215.7100000000003 1491.9899999999998 1227.3000000000002 1499.84 1235.6200000000001 C 1503.73 1239.7800000000002 1508.26 1243.0700000000002 1513.02 1245.2600000000002 C 1517.8 1247.4500000000003 1522.76 1248.6000000000001 1528.04 1248.6100000000001 L 3316.7 1248.6100000000001 C 3321.97 1248.6000000000001 3326.9199999999996 1247.45 3331.7 1245.2600000000002 C 3338.8399999999997 1241.9900000000002 3345.49 1236.1600000000003 3350.18 1228.8200000000002 C 3354.8999999999996 1221.4900000000002 3357.5499999999997 1212.88 3357.54 1204.3300000000002 L 3387.54 1204.3300000000002 L 3357.63 1206.6000000000001 L 3339.82 971.8010000000002 L 3339.82 970.6720000000001 L 3369.82 970.6720000000001 L 3399.7400000000002 968.3980000000001 L 3417.5400000000004 1203.19 L 3417.5400000000004 1204.3300000000002 C 3417.4800000000005 1232.0700000000002 3406.4700000000003 1257.6200000000001 3388.6700000000005 1276.65 C 3379.7400000000007 1286.18 3369.0100000000007 1294.1200000000001 3356.8300000000004 1299.75 C 3344.6600000000003 1305.37 3330.9800000000005 1308.61 3316.7000000000003 1308.61 L 1528.04 1308.61 C 1513.75 1308.61 1500.07 1305.37 1487.8999999999999 1299.75 C 1469.61 1291.29 1454.6299999999999 1277.7 1444.04 1261.22 C 1433.47 1244.73 1427.21 1225.1100000000001 1427.2 1204.33 L 1427.2 1203.1999999999998 L 1444.99 968.3979999999998 L 1474.91 970.6719999999998 L 1444.91 970.6719999999998 C 1444.92 942.9219999999998 1456.14 917.4799999999998 1474.19 899.0119999999998 C 1492.19 880.5119999999998 1517.65 868.6019999999999 1545.75 868.6089999999998 L 3298.98 868.6089999999998 C 3327.08 868.6019999999999 3352.53 880.5119999999998 3370.54 898.9999999999998 C 3388.59 917.4799999999998 3399.81 942.9219999999998 3399.82 970.6719999999998 L 3369.82 970.6719999999998 L 3399.7400000000002 968.3979999999998 L 3369.82 970.6719999999998" stroke-linecap="round" />
</g>
		<g transform="matrix(0.1 0 0 -0.1 -38.43 -49.73)" id="whzUd5Nrb9li_rXNaJvQ9"  >
<path style="stroke: none; stroke-width: 1; stroke-dasharray: none; stroke-linecap: butt; stroke-dashoffset: 0; stroke-linejoin: miter; stroke-miterlimit: 4; fill: rgb(28,49,84); fill-rule: nonzero; opacity: 1;" vector-effect="non-scaling-stroke"  transform=" translate(-1950, -1303.61)" d="M 1890 1298.61 L 2010 1298.61 L 2010 1308.61 L 1890 1308.61 z" stroke-linecap="round" />
</g>
		<g transform="matrix(0.1 0 0 -0.1 -18.93 -49.73)" id="bcJkyBq-Iu3zE0AApJup6"  >
<path style="stroke: none; stroke-width: 1; stroke-dasharray: none; stroke-linecap: butt; stroke-dashoffset: 0; stroke-linejoin: miter; stroke-miterlimit: 4; fill: rgb(28,49,84); fill-rule: nonzero; opacity: 1;" vector-effect="non-scaling-stroke"  transform=" translate(-2145, -1303.61)" d="M 2120 1298.61 L 2170 1298.61 L 2170 1308.61 L 2120 1308.61 z" stroke-linecap="round" />
</g>
		<g transform="matrix(0.1 0 0 -0.1 79.83 -48.83)" id="dJ08DKEE8WtgkCgup7qix"  >
<path style="stroke: none; stroke-width: 1; stroke-dasharray: none; stroke-linecap: butt; stroke-dashoffset: 0; stroke-linejoin: miter; stroke-miterlimit: 4; fill: rgb(7,12,15); fill-rule: nonzero; opacity: 1;" vector-effect="non-scaling-stroke"  transform=" translate(-3132.52, -1294.66)" d="M 3384.67 1280.7 L 2880.37 1280.7 C 2886.67 1289.91 2892.88 1299.22 2898.99 1308.6100000000001 L 2930 1308.6100000000001 L 2930 1298.6100000000001 L 3050 1298.6100000000001 L 3050 1304.45 L 3058.3 1304.45 L 3058.3 1308.6100000000001 L 3160 1308.6100000000001 L 3160 1298.6100000000001 L 3210 1298.6100000000001 L 3210 1308.6100000000001 L 3316.7 1308.6100000000001 L 3316.7 1308.6100000000001 C 3316.72 1308.6100000000001 3316.73 1308.6100000000001 3316.75 1308.6100000000001 L 3316.75 1308.6100000000001 C 3331.02 1308.6100000000001 3344.67 1305.3600000000001 3356.83 1299.7500000000002 C 3367.24 1294.9400000000003 3376.6 1288.4300000000003 3384.67 1280.7000000000003" stroke-linecap="round" />
</g>
		<g transform="matrix(0.1 0 0 -0.1 65.57 -49.73)" id="oc6tH4MYEfVg8QIXiG2AC"  >
<path style="stroke: none; stroke-width: 1; stroke-dasharray: none; stroke-linecap: butt; stroke-dashoffset: 0; stroke-linejoin: miter; stroke-miterlimit: 4; fill: rgb(15,28,42); fill-rule: nonzero; opacity: 1;" vector-effect="non-scaling-stroke"  transform=" translate(-2990, -1303.61)" d="M 3050 1298.61 L 2930 1298.61 L 2930 1308.61 L 2939.53 1308.61 L 2939.53 1304.4499999999998 L 3050 1304.4499999999998 L 3050 1298.61" stroke-linecap="round" />
</g>
		<g transform="matrix(0.1 0 0 -0.1 61.13 -28.23)" id="l5I0opXyw_E7aSIFSYwz4"  >
<path style="stroke: none; stroke-width: 1; stroke-dasharray: none; stroke-linecap: butt; stroke-dashoffset: 0; stroke-linejoin: miter; stroke-miterlimit: 4; fill: rgb(243,143,24); fill-rule: nonzero; opacity: 1;" vector-effect="non-scaling-stroke"  transform=" translate(-2945.56, -1088.61)" d="M 3298.98 928.609 L 2533.59 928.609 C 2659.4900000000002 1017.4100000000001 2767.54 1124.08 2857.71 1248.6100000000001 L 3316.7 1248.6100000000001 C 3321.97 1248.6000000000001 3326.9199999999996 1247.45 3331.7 1245.2600000000002 C 3338.8399999999997 1241.9900000000002 3345.49 1236.1600000000003 3350.18 1228.8200000000002 C 3354.71 1221.7700000000002 3357.3399999999997 1213.5500000000002 3357.5299999999997 1205.3200000000002 L 3339.8199999999997 971.8010000000002 L 3339.8199999999997 970.6720000000001 C 3339.83 959.2890000000001 3335.2 948.7110000000001 3327.6099999999997 940.9300000000002 C 3319.9799999999996 933.1720000000001 3310.0099999999998 928.6210000000002 3298.9799999999996 928.6090000000002 M 2980 1208.61 C 2963.43 1208.61 2950 1195.1799999999998 2950 1178.61 C 2950 1162.04 2963.43 1148.61 2980 1148.61 L 3040 1148.61 C 3056.57 1148.61 3070 1162.04 3070 1178.61 C 3070 1195.1799999999998 3056.57 1208.61 3040 1208.61 L 2980 1208.61" stroke-linecap="round" />
</g>
		<g transform="matrix(0.1 0 0 -0.1 60.69 -28.03)" id="cxUfd4ZYRO_dUeBNpsi6D"  >
<path style="stroke: none; stroke-width: 1; stroke-dasharray: none; stroke-linecap: butt; stroke-dashoffset: 0; stroke-linejoin: miter; stroke-miterlimit: 4; fill: rgb(8,12,15); fill-rule: nonzero; opacity: 1;" vector-effect="non-scaling-stroke"  transform=" translate(-2941.18, -1086.7)" d="M 3301.43 900.602 L 2492.38 900.602 C 2506.33 909.73 2520.06 919.059 2533.59 928.6089999999999 L 3298.98 928.6089999999999 C 3310.01 928.6209999999999 3319.98 933.1719999999999 3327.61 940.93 C 3335.2000000000003 948.7109999999999 3339.83 959.289 3339.82 970.6719999999999 L 3339.82 970.6719999999999 L 3339.82 971.8009999999999 L 3357.53 1205.32 C 3357.34 1213.55 3354.71 1221.77 3350.1800000000003 1228.82 C 3345.4900000000002 1236.1599999999999 3338.84 1241.99 3331.7000000000003 1245.26 C 3326.92 1247.45 3321.9700000000003 1248.6 3316.7000000000003 1248.61 L 2857.71 1248.61 C 2863.5 1256.59 2869.21 1264.6499999999999 2874.84 1272.79 L 3319.1400000000003 1272.79 C 3358.2400000000002 1272.79 3389.9800000000005 1241.04 3389.9800000000005 1201.92 L 3372.2700000000004 971.6600000000001 C 3372.2700000000004 932.5390000000001 3340.5500000000006 900.6020000000001 3301.4300000000003 900.6020000000001 M 3387.5400000000004 1204.3300000000002 L 3387.5400000000004 1204.3300000000002" stroke-linecap="round" />
</g>
		<g transform="matrix(0.1 0 0 -0.1 71.99 -50.02)" id="ysBZZGSgLIizGajCzdjyR"  >
<path style="stroke: none; stroke-width: 1; stroke-dasharray: none; stroke-linecap: butt; stroke-dashoffset: 0; stroke-linejoin: miter; stroke-miterlimit: 4; fill: rgb(7,12,15); fill-rule: nonzero; opacity: 1;" vector-effect="non-scaling-stroke"  transform=" translate(-3054.15, -1306.53)" d="M 3050 1304.45 L 3058.3008 1304.45 L 3058.3008 1308.6102 L 3050 1308.6102 Z" stroke-linecap="round" />
</g>
		<g transform="matrix(0.1 0 0 -0.1 66.05 -50.02)" id="Ph1_jaNlu9MbUGaidR1Wk"  >
<path style="stroke: none; stroke-width: 1; stroke-dasharray: none; stroke-linecap: butt; stroke-dashoffset: 0; stroke-linejoin: miter; stroke-miterlimit: 4; fill: rgb(15,28,42); fill-rule: nonzero; opacity: 1;" vector-effect="non-scaling-stroke"  transform=" translate(-2994.76, -1306.53)" d="M 2939.53 1304.45 L 3049.9990000000003 1304.45 L 3049.9990000000003 1308.6102 L 2939.53 1308.6102 Z" stroke-linecap="round" />
</g>
		<g transform="matrix(0.1 0 0 -0.1 85.07 -49.73)" id="JSd4AEQoBwk-LmXClEEZm"  >
<path style="stroke: none; stroke-width: 1; stroke-dasharray: none; stroke-linecap: butt; stroke-dashoffset: 0; stroke-linejoin: miter; stroke-miterlimit: 4; fill: rgb(15,28,42); fill-rule: nonzero; opacity: 1;" vector-effect="non-scaling-stroke"  transform=" translate(-3185, -1303.61)" d="M 3160 1298.61 L 3210 1298.61 L 3210 1308.61 L 3160 1308.61 z" stroke-linecap="round" />
</g>
		<g transform="matrix(0.1 0 0 -0.1 -59.93 -32.23)" id="OkUQScEQ79AkX-Lqx2RrJ"  >
<path style="stroke: none; stroke-width: 1; stroke-dasharray: none; stroke-linecap: butt; stroke-dashoffset: 0; stroke-linejoin: miter; stroke-miterlimit: 4; fill: rgb(238,139,23); fill-rule: nonzero; opacity: 1;" vector-effect="non-scaling-stroke"  transform=" translate(-1735, -1128.61)" d="M 1770 1098.61 L 1700 1098.61 C 1683.43 1098.61 1670 1112.04 1670 1128.61 C 1670 1145.1799999999998 1683.43 1158.61 1700 1158.61 L 1770 1158.61 C 1786.57 1158.61 1800 1145.1799999999998 1800 1128.61 C 1800 1112.04 1786.57 1098.61 1770 1098.61" stroke-linecap="round" />
</g>
		<g transform="matrix(0.1 0 0 -0.1 -26.93 -36.23)" id="HyaDYgCAway7YKGSNWpfW"  >
<path style="stroke: none; stroke-width: 1; stroke-dasharray: none; stroke-linecap: butt; stroke-dashoffset: 0; stroke-linejoin: miter; stroke-miterlimit: 4; fill: rgb(238,139,23); fill-rule: nonzero; opacity: 1;" vector-effect="non-scaling-stroke"  transform=" translate(-2065, -1168.61)" d="M 2100 1138.61 L 2030 1138.61 C 2013.43 1138.61 2000 1152.04 2000 1168.61 C 2000 1185.1799999999998 2013.43 1198.61 2030 1198.61 L 2100 1198.61 C 2116.57 1198.61 2130 1185.1799999999998 2130 1168.61 C 2130 1152.04 2116.57 1138.61 2100 1138.61" stroke-linecap="round" />
</g>
		<g transform="matrix(0.1 0 0 -0.1 67.57 -37.23)" id="r8iRjTNbQbJD8_whDZp7r"  >
<path style="stroke: none; stroke-width: 1; stroke-dasharray: none; stroke-linecap: butt; stroke-dashoffset: 0; stroke-linejoin: miter; stroke-miterlimit: 4; fill: rgb(235,117,23); fill-rule: nonzero; opacity: 1;" vector-effect="non-scaling-stroke"  transform=" translate(-3010, -1178.61)" d="M 3040 1148.61 L 2980 1148.61 C 2963.43 1148.61 2950 1162.04 2950 1178.61 C 2950 1195.1799999999998 2963.43 1208.61 2980 1208.61 L 3040 1208.61 C 3056.57 1208.61 3070 1195.1799999999998 3070 1178.61 C 3070 1162.04 3056.57 1148.61 3040 1148.61" stroke-linecap="round" />
</g>
		<g transform="matrix(0.1 0 0 -0.1 30.07 -35.23)" id="obsxVScrgYEPElAa3RMPW"  >
<path style="stroke: none; stroke-width: 1; stroke-dasharray: none; stroke-linecap: butt; stroke-dashoffset: 0; stroke-linejoin: miter; stroke-miterlimit: 4; fill: rgb(238,139,23); fill-rule: nonzero; opacity: 1;" vector-effect="non-scaling-stroke"  transform=" translate(-2635, -1158.61)" d="M 2670 1128.61 L 2600 1128.61 C 2583.43 1128.61 2570 1142.04 2570 1158.61 C 2570 1175.1699999999998 2583.43 1188.61 2600 1188.61 L 2670 1188.61 C 2686.57 1188.61 2700 1175.1699999999998 2700 1158.61 C 2700 1142.04 2686.57 1128.61 2670 1128.61" stroke-linecap="round" />
</g>
</g>
</g>
</svg>