<svg height="44" viewBox="0 0 199 44" width="199" xmlns="http://www.w3.org/2000/svg"><path d="m3369.82 970.672c0-39.121-31.72-72.063-70.84-72.063h-1753.23c-39.13 0-70.84 32.942-70.84 72.063l-17.71 233.658c0 39.12 31.71 74.28 70.84 74.28h1788.66c39.1 0 70.84-35.16 70.84-74.28z" fill="#f4ad19" transform="matrix(.1 0 0 -.1 -142.427 131.631)"/><path d="m3369.82 970.672h-30c.01-11.383-4.62-21.961-12.21-29.742-7.63-7.758-17.6-12.309-28.63-12.321h-1753.23c-11.03.012-21 4.563-28.63 12.321-7.59 7.781-12.22 18.359-12.21 29.742v1.129l-17.8 234.799-29.91-2.27h30c-.06 11.38 4.79 22.97 12.64 31.29 3.89 4.16 8.42 7.45 13.18 9.64 4.78 2.19 9.74 3.34 15.02 3.35h1788.66c5.27-.01 10.22-1.16 15-3.35 7.14-3.27 13.79-9.1 18.48-16.44 4.72-7.33 7.37-15.94 7.36-24.49h30l-29.91 2.27-17.81-234.799v-1.129h30l29.92-2.274 17.8 234.792v1.14c-.06 27.74-11.07 53.29-28.87 72.32-8.93 9.53-19.66 17.47-31.84 23.1-12.17 5.62-25.85 8.86-40.13 8.86h-1788.66c-14.29 0-27.97-3.24-40.14-8.86-18.29-8.46-33.27-22.05-43.86-38.53-10.57-16.49-16.83-36.11-16.84-56.89v-1.13l17.79-234.802 29.92 2.274h-30c.01-27.75 11.23-53.192 29.28-71.66 18-18.5 43.46-30.41 71.56-30.403h1753.23c28.1-.007 53.55 11.903 71.56 30.391 18.05 18.48 29.27 43.922 29.28 71.672h-30l29.92-2.274z" fill="#091019" transform="matrix(.1 0 0 -.1 -142.427 131.631)"/><path d="m1890 1298.61h120v10h-120z" fill="#1c3154" transform="matrix(.1 0 0 -.1 -142.43 131.631)"/><path d="m2120 1298.61h50v10h-50z" fill="#1c3154" transform="matrix(.1 0 0 -.1 -142.43 131.631)"/><path d="m3384.67 1280.7h-504.3c6.3 9.21 12.51 18.52 18.62 27.91h31.01v-10h120v5.84h8.3v4.16h101.7v-10h50v10h106.7.05c14.27 0 27.92-3.25 40.08-8.86 10.41-4.81 19.77-11.32 27.84-19.05" fill="#070c0f" transform="matrix(.1 0 0 -.1 -142.422 131.636)"/><path d="m3050 1298.61h-120v10h9.53v-4.16h110.47z" fill="#0f1c2a" transform="matrix(.1 0 0 -.1 -142.43 131.631)"/><path d="m3298.98 928.609h-765.39c125.9 88.801 233.95 195.471 324.12 320.001h458.99c5.27-.01 10.22-1.16 15-3.35 7.14-3.27 13.79-9.1 18.48-16.44 4.53-7.05 7.16-15.27 7.35-23.5l-17.71-233.519v-1.129c.01-11.383-4.62-21.961-12.21-29.742-7.63-7.758-17.6-12.309-28.63-12.321m-318.98 280.001c-16.57 0-30-13.43-30-30s13.43-30 30-30h60c16.57 0 30 13.43 30 30s-13.43 30-30 30z" fill="#f38f18" transform="matrix(.1 0 0 -.1 -142.426 131.631)"/><path d="m3301.43 900.602h-809.05c13.95 9.128 27.68 18.457 41.21 28.007h765.39c11.03.012 21 4.563 28.63 12.321 7.59 7.781 12.22 18.359 12.21 29.742v1.129l17.71 233.519c-.19 8.23-2.82 16.45-7.35 23.5-4.69 7.34-11.34 13.17-18.48 16.44-4.78 2.19-9.73 3.34-15 3.35h-458.99c5.79 7.98 11.5 16.04 17.13 24.18h444.3c39.1 0 70.84-31.75 70.84-70.87l-17.71-230.26c0-39.121-31.72-71.058-70.84-71.058" fill="#080c0f" transform="matrix(.1 0 0 -.1 -142.428 131.64)"/><path d="m3050 1304.45h8.3008v4.1602h-8.3008z" fill="#070c0f" transform="matrix(.1 0 0 -.1 -142.425 131.633)"/><path d="m2939.53 1304.45h110.469v4.1602h-110.469z" fill="#0f1c2a" transform="matrix(.1 0 0 -.1 -142.426 131.633)"/><g transform="matrix(.1 0 0 -.1 -142.43 131.631)"><path d="m3160 1298.61h50v10h-50z" fill="#0f1c2a"/><path d="m1770 1098.61h-70c-16.57 0-30 13.43-30 30s13.43 30 30 30h70c16.57 0 30-13.43 30-30s-13.43-30-30-30" fill="#ee8b17"/><path d="m2100 1138.61h-70c-16.57 0-30 13.43-30 30s13.43 30 30 30h70c16.57 0 30-13.43 30-30s-13.43-30-30-30" fill="#ee8b17"/><path d="m3040 1148.61h-60c-16.57 0-30 13.43-30 30s13.43 30 30 30h60c16.57 0 30-13.43 30-30s-13.43-30-30-30" fill="#eb7517"/><path d="m2670 1128.61h-70c-16.57 0-30 13.43-30 30 0 16.56 13.43 30 30 30h70c16.57 0 30-13.44 30-30 0-16.57-13.43-30-30-30" fill="#ee8b17"/></g></svg>