<svg height="90" viewBox="0 0 200 90" width="200" xmlns="http://www.w3.org/2000/svg"><path d="m3398.59 2060.66c-8.24 530.79-441.03 841.96-973.78 841.96s-965.53-311.17-973.8-841.96z" fill="#e98523" transform="matrix(.1 0 0 -.1 -142 293.244)"/><path d="m3398.59 2060.66 30 .46c-2.11 136.72-31.66 260.18-83.69 368.05-78.01 161.88-206.42 288.2-365.88 373.46-159.51 85.32-350.07 129.98-554.21 130-272.14-.02-520.35-79.41-702.6-228.74-91.07-74.65-165.49-166.83-217.49-274.72-52.04-107.87-81.59-231.32-83.71-368.05l-.47-30.46h2008.52l-.47 30.46-30-.46v30h-1947.58v-30l30-.47c2.02 128.68 29.66 243.16 77.75 342.92 72.16 149.57 190.51 266.49 340.15 346.61 149.59 80.06 330.48 122.92 525.9 122.9 260.61.02 495.17-76.18 664.56-215.13 84.75-69.5 153.38-154.63 201.49-254.38 48.08-99.76 75.72-214.24 77.74-342.92l29.99.47v30z" fill="#091019" transform="matrix(.1 0 0 -.1 -142 293.244)"/><g fill="#7b341e"><path d="m1802.83 2309.53 69.8-23.52c15.7-5.29 32.72 3.14 38.01 18.84 5.29 15.71-3.15 32.72-18.85 38.02l-69.8 23.52c-15.7 5.29-32.71-3.15-38.01-18.85-5.29-15.7 3.15-32.72 18.85-38.01" transform="matrix(.1 0 0 -.1 -141.991 293.25)"/><path d="m2984.64 2542.22 55.75-38.91c13.58-9.48 32.28-6.16 41.77 7.43 9.48 13.58 6.16 32.28-7.43 41.77l-55.74 38.91c-13.59 9.48-32.29 6.16-41.77-7.43-9.49-13.58-6.16-32.29 7.42-41.77" transform="matrix(.1 0 0 -.1 -141.999 293.246)"/><path d="m2042.24 2605.67 78.42-31.37c15.39-6.16 32.85 1.32 39 16.71 6.15 15.38-1.33 32.84-16.71 38.99l-78.43 31.38c-15.38 6.16-32.84-1.33-38.99-16.71-6.16-15.38 1.32-32.84 16.71-39" transform="matrix(.1 0 0 -.1 -141.999 293.244)"/><path d="m3066.9 2242.57 59.01 41.62c13.53 9.55 16.77 28.27 7.22 41.81-9.55 13.53-28.27 16.77-41.81 7.22l-59-41.62c-13.54-9.55-16.78-28.27-7.23-41.81s28.27-16.77 41.81-7.22" transform="matrix(.1 0 0 -.1 -141.991 293.249)"/><path d="m2535.93 2290.85 87.4-15.1c16.33-2.82 31.85 8.13 34.67 24.46s-8.13 31.85-24.46 34.67l-87.4 15.1c-16.33 2.82-31.85-8.13-34.67-24.46s8.13-31.85 24.46-34.67" transform="matrix(.1 0 0 -.1 -141.993 293.246)"/><path d="m2172.02 2296.1 86.22 42.85c14.83 7.37 20.88 25.38 13.51 40.22-7.38 14.83-25.38 20.88-40.22 13.51l-86.22-42.85c-14.83-7.38-20.88-25.38-13.51-40.22 7.38-14.84 25.38-20.89 40.22-13.51" transform="matrix(.1 0 0 -.1 -141.998 293.249)"/><path d="m2513.61 2627.12 66.94 35.9c14.6 7.83 20.09 26.02 12.25 40.62-7.83 14.6-26.01 20.09-40.61 12.26l-66.94-35.9c-14.6-7.83-20.09-26.02-12.25-40.62 7.83-14.6 26.01-20.09 40.61-12.26" transform="matrix(.1 0 0 -.1 -142 293.241)"/></g><path d="m3367.22 2098.61h-247.09c-1.68 57.85-6.75 114.78-15.2 170.79l20.98 14.79c13.53 9.55 16.77 28.27 7.22 41.81-5.85 8.28-15.12 12.71-24.54 12.71-5.17 0-10.39-1.34-15.1-4.1-11.18 55.72-25.8 110.51-43.85 164.35 2.59-.71 5.25-1.05 7.89-1.05 9.48-.01 18.79 4.47 24.63 12.83 9.48 13.58 6.16 32.28-7.43 41.77l-55.74 38.91c-1.71 1.19-3.51 2.19-5.35 2.98-23.44 55.79-50.73 110.52-81.86 164.21-.28.46-.55.92-.82 1.38 57.42-28.95 110.52-63.22 158.41-102.5 84.75-69.5 153.38-154.63 201.49-254.38 43.24-89.72 69.95-191.35 76.36-304.5" fill="#e1661c" transform="matrix(.1 0 0 -.1 -141.999 293.25)"/><path d="m3370 2068.61v30h-2.78c-6.41 113.15-33.12 214.78-76.36 304.5-48.11 99.75-116.74 184.88-201.49 254.38-47.89 39.28-100.99 73.55-158.41 102.5-14.71 24.8-30.04 48.97-45.96 72.55 296.5-132.31 500.97-397.81 513.14-753.58-1.49 4.05-3.85 7.78-6.93 10.86-5.58 5.59-13.31 8.79-21.21 8.79z" fill="#080c0f" transform="matrix(.1 0 0 -.1 -141.997 293.248)"/><path d="m3398.59 2060.66h-7.69v3.99h-270.18c-.07 11.36-.27 22.67-.59 33.96h247.09 2.78v-30 30c7.9 0 15.63-3.2 21.21-8.79 3.08-3.08 5.44-6.81 6.93-10.86.21-6.07.36-12.18.45-18.3" fill="#080c0f" transform="matrix(.1 0 0 -.1 -141.996 293.243)"/><path d="m3057.53 2497.91c-2.64 0-5.3.34-7.89 1.05-10.78 32.15-22.78 63.96-36 95.44 1.84-.79 3.64-1.79 5.35-2.98l55.74-38.91c13.59-9.49 16.91-28.19 7.43-41.77-5.84-8.36-15.15-12.84-24.63-12.83" fill="#762818" transform="matrix(.1 0 0 -.1 -142 293.245)"/><path d="m3104.93 2269.4c-3.3 21.88-7.11 43.61-11.44 65.21 4.71 2.76 9.93 4.1 15.1 4.1 9.42 0 18.69-4.43 24.54-12.71 9.55-13.54 6.31-32.26-7.22-41.81z" fill="#762818" transform="matrix(.1 0 0 -.1 -141.995 293.246)"/><path d="m3120.75 2060.66h-.01v.53c0-.18.01-.36.01-.53" fill="#080c0f" transform="matrix(.1 0 0 -.1 -141.994 293.243)"/><path d="m3390.9 2060.66h-270.15c0 .17-.01.35-.01.53 0 1.14-.01 2.32-.02 3.46h270.18z" fill="#080b0c" transform="matrix(.1 0 0 -.1 -141.991 293.245)"/></svg>