<?xml version="1.0" encoding="UTF-8" standalone="no" ?>
<!DOCTYPE svg PUBLIC "-//W3C//DTD SVG 1.1//EN" "http://www.w3.org/Graphics/SVG/1.1/DTD/svg11.dtd">
<svg xmlns="http://www.w3.org/2000/svg" xmlns:xlink="http://www.w3.org/1999/xlink" version="1.1" width="200" height="90" viewBox="0 0 200 90" xml:space="preserve">
<desc>Created with Fabric.js 3.6.3</desc>
<defs>
</defs>
<g transform="matrix(1 0 0 1 108 73)"  >
<g style=""   >
		<g transform="matrix(0.1 0 0 -0.1 -7.52 -27.92)" id="6"  >
<path style="stroke: none; stroke-width: 1; stroke-dasharray: none; stroke-linecap: butt; stroke-dashoffset: 0; stroke-linejoin: miter; stroke-miterlimit: 4; fill: rgb(233,133,35); fill-rule: nonzero; opacity: 1;" vector-effect="non-scaling-stroke"  transform=" translate(-2424.8, -2481.64)" d="M 3398.59 2060.66 C 3390.3500000000004 2591.45 2957.5600000000004 2902.62 2424.8100000000004 2902.62 C 1892.0600000000004 2902.62 1459.2800000000004 2591.45 1451.0100000000004 2060.66 L 3398.59 2060.66" stroke-linecap="round" />
</g>
		<g transform="matrix(0.1 0 0 -0.1 -7.52 -27.92)" id="6"  >
<path style="stroke: none; stroke-width: 1; stroke-dasharray: none; stroke-linecap: butt; stroke-dashoffset: 0; stroke-linejoin: miter; stroke-miterlimit: 4; fill: rgb(9,16,25); fill-rule: nonzero; opacity: 1;" vector-effect="non-scaling-stroke"  transform=" translate(-2424.8, -2481.64)" d="M 3398.59 2060.66 L 3428.59 2061.12 C 3426.48 2197.8399999999997 3396.9300000000003 2321.2999999999997 3344.9 2429.17 C 3266.89 2591.05 3138.48 2717.37 2979.02 2802.63 C 2819.51 2887.9500000000003 2628.95 2932.61 2424.81 2932.63 C 2152.67 2932.61 1904.46 2853.2200000000003 1722.21 2703.8900000000003 C 1631.14 2629.2400000000002 1556.72 2537.0600000000004 1504.72 2429.17 C 1452.68 2321.3 1423.13 2197.85 1421.01 2061.12 L 1420.54 2030.6599999999999 L 3429.06 2030.6599999999999 L 3428.59 2061.12 L 3398.59 2060.66 L 3398.59 2090.66 L 1451.01 2090.66 L 1451.01 2060.66 L 1481.01 2060.19 C 1483.03 2188.87 1510.67 2303.35 1558.76 2403.11 C 1630.92 2552.6800000000003 1749.27 2669.6000000000004 1898.9099999999999 2749.7200000000003 C 2048.5 2829.78 2229.39 2872.6400000000003 2424.81 2872.6200000000003 C 2685.42 2872.6400000000003 2919.98 2796.4400000000005 3089.37 2657.4900000000002 C 3174.12 2587.9900000000002 3242.75 2502.86 3290.8599999999997 2403.11 C 3338.9399999999996 2303.35 3366.5799999999995 2188.87 3368.5999999999995 2060.19 L 3398.5899999999992 2060.66 L 3398.5899999999992 2090.66 L 3398.5899999999992 2060.66" stroke-linecap="round" />
</g>
		<g transform="matrix(0.1 0 0 -0.1 -65.26 -12.37)" id="TirUfX6b_fvIwmZ9Mh5M8"  >
<path style="stroke: none; stroke-width: 1; stroke-dasharray: none; stroke-linecap: butt; stroke-dashoffset: 0; stroke-linejoin: miter; stroke-miterlimit: 4; fill: rgb(123,52,30); fill-rule: nonzero; opacity: 1;" vector-effect="non-scaling-stroke"  transform=" translate(-1847.31, -2326.2)" d="M 1802.83 2309.53 L 1872.6299999999999 2286.01 C 1888.33 2280.7200000000003 1905.35 2289.15 1910.6399999999999 2304.8500000000004 C 1915.9299999999998 2320.5600000000004 1907.4899999999998 2337.57 1891.79 2342.8700000000003 L 1821.99 2366.3900000000003 C 1806.29 2371.6800000000003 1789.28 2363.2400000000002 1783.98 2347.5400000000004 C 1778.69 2331.8400000000006 1787.13 2314.8200000000006 1802.83 2309.53" stroke-linecap="round" />
</g>
		<g transform="matrix(0.1 0 0 -0.1 52.97 -34.49)" id="UsW9V0htjZZYaBZDja7zH"  >
<path style="stroke: none; stroke-width: 1; stroke-dasharray: none; stroke-linecap: butt; stroke-dashoffset: 0; stroke-linejoin: miter; stroke-miterlimit: 4; fill: rgb(123,52,30); fill-rule: nonzero; opacity: 1;" vector-effect="non-scaling-stroke"  transform=" translate(-3029.69, -2547.36)" d="M 2984.64 2542.22 L 3040.39 2503.31 C 3053.97 2493.83 3072.67 2497.15 3082.16 2510.74 C 3091.64 2524.3199999999997 3088.3199999999997 2543.02 3074.73 2552.5099999999998 L 3018.9900000000002 2591.4199999999996 C 3005.4 2600.8999999999996 2986.7000000000003 2597.5799999999995 2977.2200000000003 2583.99 C 2967.7300000000005 2570.41 2971.0600000000004 2551.7 2984.6400000000003 2542.22" stroke-linecap="round" />
</g>
		<g transform="matrix(0.1 0 0 -0.1 -40.74 -41.54)" id="VLQf0ri9VVczAhVk4F1mt"  >
<path style="stroke: none; stroke-width: 1; stroke-dasharray: none; stroke-linecap: butt; stroke-dashoffset: 0; stroke-linejoin: miter; stroke-miterlimit: 4; fill: rgb(123,52,30); fill-rule: nonzero; opacity: 1;" vector-effect="non-scaling-stroke"  transform=" translate(-2092.59, -2617.84)" d="M 2042.24 2605.67 L 2120.66 2574.3 C 2136.0499999999997 2568.1400000000003 2153.5099999999998 2575.6200000000003 2159.66 2591.01 C 2165.81 2606.3900000000003 2158.33 2623.8500000000004 2142.95 2630 L 2064.52 2661.38 C 2049.14 2667.54 2031.68 2660.05 2025.53 2644.67 C 2019.37 2629.29 2026.85 2611.83 2042.24 2605.67" stroke-linecap="round" />
</g>
		<g transform="matrix(0.1 0 0 -0.1 57.92 -8.54)" id="7"  >
<path style="stroke: none; stroke-width: 1; stroke-dasharray: none; stroke-linecap: butt; stroke-dashoffset: 0; stroke-linejoin: miter; stroke-miterlimit: 4; fill: rgb(123,52,30); fill-rule: nonzero; opacity: 1;" vector-effect="non-scaling-stroke"  transform=" translate(-3079.11, -2287.89)" d="M 3066.9 2242.57 L 3125.9100000000003 2284.19 C 3139.4400000000005 2293.7400000000002 3142.6800000000003 2312.46 3133.13 2326 C 3123.58 2339.53 3104.86 2342.77 3091.32 2333.22 L 3032.32 2291.6 C 3018.78 2282.0499999999997 3015.54 2263.33 3025.09 2249.79 C 3034.6400000000003 2236.25 3053.36 2233.02 3066.9 2242.57" stroke-linecap="round" />
</g>
		<g transform="matrix(0.1 0 0 -0.1 8.48 -11.04)" id="2"  >
<path style="stroke: none; stroke-width: 1; stroke-dasharray: none; stroke-linecap: butt; stroke-dashoffset: 0; stroke-linejoin: miter; stroke-miterlimit: 4; fill: rgb(123,52,30); fill-rule: nonzero; opacity: 1;" vector-effect="non-scaling-stroke"  transform=" translate(-2584.73, -2312.86)" d="M 2535.93 2290.85 L 2623.33 2275.75 C 2639.66 2272.93 2655.18 2283.88 2658 2300.21 C 2660.82 2316.54 2649.87 2332.06 2633.54 2334.88 L 2546.14 2349.98 C 2529.81 2352.8 2514.29 2341.85 2511.47 2325.52 C 2508.6499999999996 2309.19 2519.6 2293.67 2535.93 2290.85" stroke-linecap="round" />
</g>
		<g transform="matrix(0.1 0 0 -0.1 -29.82 -14.19)" id="ETzV5atncM_ZLpL-W3OC7"  >
<path style="stroke: none; stroke-width: 1; stroke-dasharray: none; stroke-linecap: butt; stroke-dashoffset: 0; stroke-linejoin: miter; stroke-miterlimit: 4; fill: rgb(123,52,30); fill-rule: nonzero; opacity: 1;" vector-effect="non-scaling-stroke"  transform=" translate(-2201.78, -2344.39)" d="M 2172.02 2296.1 L 2258.24 2338.95 C 2273.0699999999997 2346.3199999999997 2279.12 2364.33 2271.75 2379.1699999999996 C 2264.37 2393.9999999999995 2246.37 2400.0499999999997 2231.53 2392.68 L 2145.3100000000004 2349.83 C 2130.4800000000005 2342.45 2124.4300000000003 2324.45 2131.8 2309.61 C 2139.1800000000003 2294.77 2157.1800000000003 2288.7200000000003 2172.02 2296.1" stroke-linecap="round" />
</g>
		<g transform="matrix(0.1 0 0 -0.1 3.29 -46.91)" id="BHS0LY2lV44tHYhb1U4kq"  >
<path style="stroke: none; stroke-width: 1; stroke-dasharray: none; stroke-linecap: butt; stroke-dashoffset: 0; stroke-linejoin: miter; stroke-miterlimit: 4; fill: rgb(123,52,30); fill-rule: nonzero; opacity: 1;" vector-effect="non-scaling-stroke"  transform=" translate(-2532.9, -2671.51)" d="M 2513.61 2627.12 L 2580.55 2663.02 C 2595.15 2670.85 2600.6400000000003 2689.04 2592.8 2703.64 C 2584.9700000000003 2718.24 2566.79 2723.73 2552.19 2715.9 L 2485.25 2680 C 2470.65 2672.17 2465.16 2653.98 2473 2639.38 C 2480.83 2624.78 2499.01 2619.29 2513.61 2627.12" stroke-linecap="round" />
</g>
		<g transform="matrix(0.1 0 0 -0.1 64.91 -22.68)" id="7"  >
<path style="stroke: none; stroke-width: 1; stroke-dasharray: none; stroke-linecap: butt; stroke-dashoffset: 0; stroke-linejoin: miter; stroke-miterlimit: 4; fill: rgb(225,102,28); fill-rule: nonzero; opacity: 1;" vector-effect="non-scaling-stroke"  transform=" translate(-3149.09, -2429.3)" d="M 3367.22 2098.61 L 3120.1299999999997 2098.61 C 3118.45 2156.46 3113.3799999999997 2213.3900000000003 3104.93 2269.4 L 3125.91 2284.19 C 3139.44 2293.7400000000002 3142.68 2312.46 3133.1299999999997 2326 C 3127.2799999999997 2334.28 3118.0099999999998 2338.71 3108.5899999999997 2338.71 C 3103.4199999999996 2338.71 3098.2 2337.37 3093.49 2334.61 C 3082.31 2390.33 3067.6899999999996 2445.1200000000003 3049.64 2498.96 C 3052.23 2498.25 3054.89 2497.91 3057.5299999999997 2497.91 C 3067.0099999999998 2497.8999999999996 3076.3199999999997 2502.3799999999997 3082.16 2510.74 C 3091.64 2524.3199999999997 3088.3199999999997 2543.02 3074.73 2552.5099999999998 L 3018.9900000000002 2591.4199999999996 C 3017.28 2592.6099999999997 3015.48 2593.6099999999997 3013.6400000000003 2594.3999999999996 C 2990.2000000000003 2650.1899999999996 2962.9100000000003 2704.9199999999996 2931.78 2758.6099999999997 C 2931.5 2759.0699999999997 2931.23 2759.5299999999997 2930.96 2759.99 C 2988.38 2731.04 3041.48 2696.77 3089.37 2657.49 C 3174.12 2587.99 3242.75 2502.8599999999997 3290.8599999999997 2403.1099999999997 C 3334.0999999999995 2313.39 3360.8099999999995 2211.7599999999998 3367.22 2098.6099999999997" stroke-linecap="round" />
</g>
		<g transform="matrix(0.1 0 0 -0.1 64.16 -24.81)" id="gSxt7H0Itwd8UscxgtqhP"  >
<path style="stroke: none; stroke-width: 1; stroke-dasharray: none; stroke-linecap: butt; stroke-dashoffset: 0; stroke-linejoin: miter; stroke-miterlimit: 4; fill: rgb(8,12,15); fill-rule: nonzero; opacity: 1;" vector-effect="non-scaling-stroke"  transform=" translate(-3141.57, -2450.58)" d="M 3370 2068.61 L 3370 2068.61 L 3370 2098.61 L 3367.22 2098.61 C 3360.81 2211.76 3334.1 2313.3900000000003 3290.8599999999997 2403.11 C 3242.7499999999995 2502.86 3174.12 2587.9900000000002 3089.37 2657.4900000000002 C 3041.48 2696.7700000000004 2988.38 2731.0400000000004 2930.96 2759.9900000000002 C 2916.25 2784.7900000000004 2900.92 2808.96 2885 2832.5400000000004 C 3181.5 2700.2300000000005 3385.9700000000003 2434.7300000000005 3398.14 2078.9600000000005 C 3396.65 2083.0100000000007 3394.29 2086.7400000000007 3391.21 2089.8200000000006 C 3385.63 2095.4100000000008 3377.9 2098.6100000000006 3370 2098.6100000000006 L 3370 2068.6100000000006" stroke-linecap="round" />
</g>
		<g transform="matrix(0.1 0 0 -0.1 75.94 12.28)" id="ddR5MLm-RVC7t6h-3t0cD"  >
<path style="stroke: none; stroke-width: 1; stroke-dasharray: none; stroke-linecap: butt; stroke-dashoffset: 0; stroke-linejoin: miter; stroke-miterlimit: 4; fill: rgb(8,12,15); fill-rule: nonzero; opacity: 1;" vector-effect="non-scaling-stroke"  transform=" translate(-3259.36, -2079.63)" d="M 3398.59 2060.66 L 3390.9 2060.66 L 3390.9 2064.6499999999996 L 3120.7200000000003 2064.6499999999996 C 3120.65 2076.0099999999998 3120.4500000000003 2087.3199999999997 3120.13 2098.6099999999997 L 3367.2200000000003 2098.6099999999997 L 3370.0000000000005 2098.6099999999997 L 3370.0000000000005 2068.6099999999997 L 3370.0000000000005 2098.6099999999997 C 3377.9000000000005 2098.6099999999997 3385.6300000000006 2095.41 3391.2100000000005 2089.8199999999997 C 3394.2900000000004 2086.74 3396.6500000000005 2083.0099999999998 3398.1400000000003 2078.9599999999996 C 3398.3500000000004 2072.8899999999994 3398.5000000000005 2066.7799999999997 3398.59 2060.6599999999994" stroke-linecap="round" />
</g>
		<g transform="matrix(0.1 0 0 -0.1 55.06 -34.37)" id="ypONoX6iV4UTCDPck6Esa"  >
<path style="stroke: none; stroke-width: 1; stroke-dasharray: none; stroke-linecap: butt; stroke-dashoffset: 0; stroke-linejoin: miter; stroke-miterlimit: 4; fill: rgb(118,40,24); fill-rule: nonzero; opacity: 1;" vector-effect="non-scaling-stroke"  transform=" translate(-3050.6, -2546.15)" d="M 3057.53 2497.91 C 3054.8900000000003 2497.91 3052.23 2498.25 3049.6400000000003 2498.96 C 3038.86 2531.11 3026.86 2562.92 3013.6400000000003 2594.4 C 3015.4800000000005 2593.61 3017.28 2592.61 3018.9900000000002 2591.42 L 3074.73 2552.51 C 3088.32 2543.0200000000004 3091.64 2524.32 3082.16 2510.7400000000002 C 3076.3199999999997 2502.38 3067.0099999999998 2497.9 3057.5299999999997 2497.9100000000003" stroke-linecap="round" />
</g>
		<g transform="matrix(0.1 0 0 -0.1 61.61 -10.16)" id="ewFzGTVc-Kuul_PuZZi_E"  >
<path style="stroke: none; stroke-width: 1; stroke-dasharray: none; stroke-linecap: butt; stroke-dashoffset: 0; stroke-linejoin: miter; stroke-miterlimit: 4; fill: rgb(118,40,24); fill-rule: nonzero; opacity: 1;" vector-effect="non-scaling-stroke"  transform=" translate(-3116.05, -2304.06)" d="M 3104.93 2269.4 C 3101.6299999999997 2291.28 3097.8199999999997 2313.01 3093.49 2334.61 C 3098.2 2337.3700000000003 3103.4199999999996 2338.71 3108.5899999999997 2338.71 C 3118.0099999999998 2338.71 3127.2799999999997 2334.28 3133.1299999999997 2326 C 3142.68 2312.46 3139.4399999999996 2293.74 3125.91 2284.19 L 3104.93 2269.4" stroke-linecap="round" />
</g>
		<g transform="matrix(0.1 0 0 -0.1 62.08 14.15)" id="Mf1WzUQbjN_BD2RlTvFdl"  >
<path style="stroke: none; stroke-width: 1; stroke-dasharray: none; stroke-linecap: butt; stroke-dashoffset: 0; stroke-linejoin: miter; stroke-miterlimit: 4; fill: rgb(8,12,15); fill-rule: nonzero; opacity: 1;" vector-effect="non-scaling-stroke"  transform=" translate(-3120.74, -2060.93)" d="M 3120.75 2060.66 L 3120.74 2060.66 C 3120.74 2060.8399999999997 3120.74 2061.0099999999998 3120.74 2061.19 C 3120.74 2061.01 3120.75 2060.83 3120.75 2060.66" stroke-linecap="round" />
</g>
		<g transform="matrix(0.1 0 0 -0.1 75.59 13.98)" id="B88WQSIn_d44a1irsNQBx"  >
<path style="stroke: none; stroke-width: 1; stroke-dasharray: none; stroke-linecap: butt; stroke-dashoffset: 0; stroke-linejoin: miter; stroke-miterlimit: 4; fill: rgb(8,11,12); fill-rule: nonzero; opacity: 1;" vector-effect="non-scaling-stroke"  transform=" translate(-3255.81, -2062.65)" d="M 3390.9 2060.66 L 3120.75 2060.66 C 3120.75 2060.83 3120.74 2061.0099999999998 3120.74 2061.19 C 3120.74 2062.33 3120.7299999999996 2063.51 3120.72 2064.65 L 3390.8999999999996 2064.65 L 3390.8999999999996 2060.6600000000003" stroke-linecap="round" />
</g>
</g>
</g>
</svg>