<svg height="171" viewBox="0 0 306 171" width="306" xmlns="http://www.w3.org/2000/svg"><path d="m19531.6 17707.3c-67.1-13.2-164.7-26.5-195.2 19.8s49.5 117.9 103.7 138.9c85.4 33.1 237.8 0 243.9-46.3s-85.3-99.2-152.4-112.4m-293.1-119c-112.1-121-198-178.6-346.5-112.5-84.1 37.5-80.2 165.8-59.1 236.2 33.3 110.9 97.2 186.2 277.1 145.3 107.3-24.4 220.4-169.9 128.5-269m-756.2-697.7c-28-115.2-254.7-185-455.9-226-252.6-51.5-367.5 190.9-225.9 320.3s432.1 125.8 555.5 92.9c123.4-33 136.7-144.4 126.3-187.2m-841.8 1405.3c-63.7 85.9 10 158.8 49.5 178.5 106 52.9 320.4-28.1 494.9-112.4 219.2-105.8 120.2-310.8-77.7-310.8-198 0-403.1 158.7-466.7 244.7m-367.7-648.1c-77.8-13.3-190.9-26.5-226.3 19.8s57.4 117.9 120.2 138.9c99 33.1 275.8 0 282.9-46.3 7-46.3-99-99.2-176.8-112.4m-400.1-137c-31.5-49.4-222.9-145.7-455.8-140.9-232.8 4.9-387.9 48.5-361.6 116.6 54.5 140.8 287.6 181.1 366.6 189.4 277.4 29.1 500.3-87.4 450.8-165.1m708.8 1200.6c-179 18-2440.6-1249.7-2333.3-1418.5 48.3-76.1 583.2-366.7 1181.8-663.9 109.4 88.2 240.9 157.8 376.1 170.8 178 17.1 321.2-71.8 288.5-254.8-10.9-60.5-40.5-130.6-81.7-197.6 548.2-257.5 1035.6-463.9 1132.7-457.3 174.4 11.8 162 246.3 415.3 457 458.9 381.7 971.5 826.4 1343.1 1057.8 137.9 85.9 423.5 156.9 427.7 286.2 5.5 168.3-2349.4 979.9-2750.2 1020.3" fill="#fd3" transform="matrix(.06 0 0 -.06 -913.4566 1123.8962)"/><g fill="#ef9c07"><path d="m20342.8 17688.3c.4 12.9-13.3 29.8-39 49.8-15.3-15.4 3.2-60.8-15-76.4-137.4-118.2-291.4-154.8-455.6-245.5-396-218.9-745.8-510.8-1092.2-801.4-136.1-114.3-242.5-221.1-365.1-355.6-66.2-72.6-90.2-257.7-265.2-291.5-23.6-4.6-74.8 6.5-243.5 6.5 151.7-60.7 188.6-91.5 289.5-87 174.7 7.9 162.1 246.4 415.4 457.1 458.8 381.7 971.4 826.4 1343 1057.8 137.9 85.9 423.5 156.9 427.7 286.2" transform="matrix(.06 0 0 -.06 -916.96 1122.5958)"/><path d="m16076.5 17453.4c54.5 140.8 287.7 181.1 366.6 189.4 201.3 21.1 373.7-34.4 434.4-96.1-21.6 72.7-218.6 154.1-455.6 129.2-79-8.3-312.1-48.6-366.6-189.4-7.4-19.2-.5-36.4 18.5-51.3-.6 5.8.3 11.9 2.7 18.2" transform="matrix(.06 0 0 -.06 -909.9264 1124.5804)"/><path d="m17195 17780c76.2 25.5 198.3 11.8 253.8-17-13.6 44.8-185.1 75.9-282.1 43.5-62.8-21-155.5-92.6-120.2-138.9 5.9-7.7 13.9-13.7 23.5-18.4-20.1 46.2 65.7 111 125 130.8" transform="matrix(.06 0 0 -.06 -911.9956 1125.0524)"/><path d="m19474.6 17834.2c61.1 23.6 156.5 13.4 208.1-11.3-10.2 45.3-159.4 76.9-243.5 44.4-54.2-21-134.2-92.6-103.7-138.9 7-10.7 17.7-18.1 30.6-23.1-14.7 46 58 109.4 108.5 128.9" transform="matrix(.06 0 0 -.06 -918.0344 1125.2082)"/><path d="m18854.1 17676c33.3 110.9 97.2 186.3 277.1 145.4 44.2-10.1 89.4-40.7 120.9-80.2-26.5 60.6-88.8 112.7-149.2 126.5-179.8 40.9-243.8-34.5-277-145.4-18.1-60.1-23.5-162.5 27.8-214.4-19.5 53.6-13.1 122.8.4 168.1" transform="matrix(.06 0 0 -.06 -916.7754 1124.9464)"/><path d="m17664.8 18272.8c-63.7 85.9 10 158.8 49.5 178.5 106 52.9 320.3-28.1 494.9-112.4 20.6-10 38.4-20.8 53.5-32.2-20.1 23.8-49.2 46.2-88.8 65.2-174.6 84.3-388.9 165.4-495 112.5-39.5-19.7-113.1-92.6-49.5-178.6 15.6-21.1 39.8-46.6 70.3-73-14.1 14.3-26 27.9-34.9 40" transform="matrix(.06 0 0 -.06 -913.8354 1126.7418)"/><path d="m17825.5 16949.8c141.6 129.4 432 125.8 555.4 92.8 36.8-9.8 63.7-26.6 83.2-46.5-17.9 36-51.8 70.3-111.5 86.2-123.3 32.9-413.8 36.6-555.4-92.8-81.8-74.8-78-187.2-11.6-259-36.9 69.2-28 157.2 39.9 219.3" transform="matrix(.06 0 0 -.06 -914.2864 1122.8748)"/></g><path d="m16358.6 16850.3c-56.4 0-158.1 80.1-181.6 96.2-103.4 70.8-215.8 118-330.2 172.2-63 29.8-127.9 62.6-194.3 87.1-49.5 18.1-110.9 28.9-154.8 58.2-200.3 133.7 184.5 329.7 286.8 387.2 114.1 64.2 214.9 150.4 326.4 213.7 76.7 43.6 154.5 119.4 240.3 144.4l47.1 44.1c.7-.3 1.4-.5 2.4-.5 7.9 0 26.5 10.1 47 20.2 20.6 10 43.1 20.1 59 20.1h.1c81.8-.1 66.2-51.1 13-87.1-111.3-75.3-228.1-144-343.1-218.2-94.3-60.9-196.6-112.1-278.2-188.4-49.2-46.1-119.1-140.8-133-207.4-19.8-94.8 101.8-137.8 174.4-177.4 98.3-53.5 183.5-125.1 283-176.4 41.7-21.6 187.2-105.2 170.9-162.1-5.3-18.6-18.2-25.9-35.2-25.9" fill="#fce566" transform="matrix(.06 0 0 -.06 -908.6916 1124.355)"/></svg>