<?xml version="1.0" encoding="UTF-8" standalone="no" ?>
<!DOCTYPE svg PUBLIC "-//W3C//DTD SVG 1.1//EN" "http://www.w3.org/Graphics/SVG/1.1/DTD/svg11.dtd">
<svg xmlns="http://www.w3.org/2000/svg" xmlns:xlink="http://www.w3.org/1999/xlink" version="1.1" width="198" height="44" viewBox="0 0 198 44" xml:space="preserve">
<desc>Created with Fabric.js 3.6.3</desc>
<defs>
</defs>
<g transform="matrix(1 0 0 1 98 -2)"  >
<g style=""   >
		<g transform="matrix(0.1 0 0 -0.1 1.13 24.57)" id="u_XrrQ13yT3PxfDapf87P"  >
<path style="stroke: none; stroke-width: 1; stroke-dasharray: none; stroke-linecap: butt; stroke-dashoffset: 0; stroke-linejoin: miter; stroke-miterlimit: 4; fill: rgb(244,209,46); fill-rule: nonzero; opacity: 1;" vector-effect="non-scaling-stroke"  transform=" translate(-2410, -1879.69)" d="M 3370 2068.61 L 1450 2068.61 L 1450 1908.6100000000001 L 1659.85 1908.6100000000001 L 1833.6399999999999 1690.7700000000002 L 2007.4199999999998 1908.6100000000001 L 3370 1908.6100000000001 L 3370 2068.61" stroke-linecap="round" />
</g>
		<g transform="matrix(0.1 0 0 -0.1 1.13 24.57)" id="HLoLGQyuhcGiC1FvOOCgG"  >
<path style="stroke: none; stroke-width: 1; stroke-dasharray: none; stroke-linecap: butt; stroke-dashoffset: 0; stroke-linejoin: miter; stroke-miterlimit: 4; fill: rgb(9,16,25); fill-rule: nonzero; opacity: 1;" vector-effect="non-scaling-stroke"  transform=" translate(-2410, -1879.69)" d="M 3370 2068.61 L 3370 2098.61 L 1450 2098.61 C 1442.1 2098.61 1434.37 2095.4100000000003 1428.79 2089.82 C 1423.2 2084.23 1420 2076.51 1420 2068.61 L 1420 1908.6100000000001 C 1420 1900.71 1423.2 1892.98 1428.79 1887.39 C 1434.37 1881.8100000000002 1442.1 1878.6100000000001 1450 1878.6100000000001 L 1645.41 1878.6100000000001 L 1810.19 1672.0600000000002 C 1815.8700000000001 1664.9500000000003 1824.53 1660.7700000000002 1833.64 1660.7700000000002 C 1842.75 1660.7700000000002 1851.41 1664.9500000000003 1857.0900000000001 1672.0600000000002 L 2021.8600000000001 1878.6100000000001 L 3370 1878.6100000000001 C 3377.9 1878.6100000000001 3385.63 1881.8100000000002 3391.21 1887.39 C 3396.8 1892.98 3400 1900.71 3400 1908.6100000000001 L 3400 2068.61 C 3400 2076.51 3396.8 2084.23 3391.21 2089.82 C 3385.63 2095.4100000000003 3377.9 2098.61 3370 2098.61 L 3370 2068.61 L 3340 2068.61 L 3340 1938.6100000000001 L 2007.42 1938.6100000000001 C 1998.3100000000002 1938.6100000000001 1989.65 1934.44 1983.97 1927.3200000000002 L 1833.64 1738.88 L 1683.3000000000002 1927.3200000000002 C 1677.6200000000001 1934.44 1668.9600000000003 1938.6100000000001 1659.8500000000001 1938.6100000000001 L 1480 1938.6100000000001 L 1480 2038.6100000000001 L 3370 2038.6100000000001 L 3370 2068.61 L 3340 2068.61 L 3370 2068.61" stroke-linecap="round" />
</g>
		<g transform="matrix(0.1 0 0 -0.1 85.48 23.29)" id="DpP3bicj4cvhzCBaiihrO"  >
<path style="stroke: none; stroke-width: 1; stroke-dasharray: none; stroke-linecap: butt; stroke-dashoffset: 0; stroke-linejoin: miter; stroke-miterlimit: 4; fill: rgb(7,12,15); fill-rule: nonzero; opacity: 1;" vector-effect="non-scaling-stroke"  transform=" translate(-3253.48, -1892.44)" d="M 3370 1878.61 L 3108.71 1878.61 C 3109.91 1887.81 3111.01 1897.03 3112.03 1906.28 L 3112.03 1906.28 L 3112.03 1906.28 L 3371.09 1906.28 C 3381.06 1906.28 3390.3700000000003 1903.45 3398.25 1898.55 C 3396.76 1894.3799999999999 3394.37 1890.55 3391.21 1887.3899999999999 C 3385.63 1881.81 3377.9 1878.61 3370 1878.61" stroke-linecap="round" />
</g>
		<g transform="matrix(0.1 0 0 -0.1 86.07 4.57)" id="PdyYuXTSvQlUQ2g9ejO6n"  >
<path style="stroke: none; stroke-width: 1; stroke-dasharray: none; stroke-linecap: butt; stroke-dashoffset: 0; stroke-linejoin: miter; stroke-miterlimit: 4; fill: rgb(8,12,15); fill-rule: nonzero; opacity: 1;" vector-effect="non-scaling-stroke"  transform=" translate(-3259.36, -2079.63)" d="M 3398.59 2060.66 L 3390.9 2060.66 L 3390.9 2064.6499999999996 L 3120.7200000000003 2064.6499999999996 C 3120.65 2076.0099999999998 3120.4500000000003 2087.3199999999997 3120.13 2098.6099999999997 L 3367.2200000000003 2098.6099999999997 L 3370.0000000000005 2098.6099999999997 L 3370.0000000000005 2068.6099999999997 L 3370.0000000000005 2098.6099999999997 C 3377.9000000000005 2098.6099999999997 3385.6300000000006 2095.41 3391.2100000000005 2089.8199999999997 C 3394.2900000000004 2086.74 3396.6500000000005 2083.0099999999998 3398.1400000000003 2078.9599999999996 C 3398.3500000000004 2072.8899999999994 3398.5000000000005 2066.7799999999997 3398.59 2060.6599999999994" stroke-linecap="round" />
</g>
		<g transform="matrix(0.1 0 0 -0.1 72.21 6.44)" id="EsEQx4mT2FJJsOKsp7w9F"  >
<path style="stroke: none; stroke-width: 1; stroke-dasharray: none; stroke-linecap: butt; stroke-dashoffset: 0; stroke-linejoin: miter; stroke-miterlimit: 4; fill: rgb(8,12,15); fill-rule: nonzero; opacity: 1;" vector-effect="non-scaling-stroke"  transform=" translate(-3120.74, -2060.93)" d="M 3120.75 2060.66 L 3120.74 2060.66 C 3120.74 2060.8399999999997 3120.74 2061.0099999999998 3120.74 2061.19 C 3120.74 2061.01 3120.75 2060.83 3120.75 2060.66" stroke-linecap="round" />
</g>
		<g transform="matrix(0.1 0 0 -0.1 82.9 13.67)" id="thftugiGyUXCfhvZIbgeW"  >
<path style="stroke: none; stroke-width: 1; stroke-dasharray: none; stroke-linecap: butt; stroke-dashoffset: 0; stroke-linejoin: miter; stroke-miterlimit: 4; fill: rgb(242,187,33); fill-rule: nonzero; opacity: 1;" vector-effect="non-scaling-stroke"  transform=" translate(-3227.61, -1988.61)" d="M 3340 1938.61 L 3115.22 1938.61 C 3116.1 1948.58 3116.8799999999997 1958.58 3117.5499999999997 1968.61 L 3230 1968.61 C 3241.05 1968.61 3250 1977.56 3250 1988.61 C 3250 1999.6499999999999 3241.05 2008.61 3230 2008.61 L 3119.67 2008.61 C 3120.07 2018.58 3120.35 2028.58 3120.54 2038.61 L 3340 2038.61 L 3340 1938.61" stroke-linecap="round" />
</g>
		<g transform="matrix(0.1 0 0 -0.1 85.28 13.99)" id="FYJVZdP5gqbns1xRiJx3Y"  >
<path style="stroke: none; stroke-width: 1; stroke-dasharray: none; stroke-linecap: butt; stroke-dashoffset: 0; stroke-linejoin: miter; stroke-miterlimit: 4; fill: rgb(8,13,16); fill-rule: nonzero; opacity: 1;" vector-effect="non-scaling-stroke"  transform=" translate(-3251.47, -1985.46)" d="M 3390.9 1906.28 L 3371.09 1906.28 L 3371.09 1906.28 L 3112.03 1906.28 C 3113.21 1917.03 3114.28 1927.8 3115.2200000000003 1938.61 L 3340 1938.61 L 3340 2038.61 L 3120.54 2038.61 C 3120.66 2045.7199999999998 3120.74 2052.8399999999997 3120.7599999999998 2059.98 C 3120.7599999999998 2060.21 3120.7599999999998 2060.43 3120.7499999999995 2060.66 L 3390.8999999999996 2060.66 L 3390.8999999999996 1906.2799999999997 M 3120.74 2061.1899999999996 C 3120.72 2062.3399999999997 3120.68 2063.4799999999996 3120.68 2064.6499999999996 L 3120.72 2064.6499999999996 C 3120.73 2063.5099999999998 3120.74 2062.3299999999995 3120.74 2061.1899999999996" stroke-linecap="round" />
</g>
		<g transform="matrix(0.1 0 0 -0.1 85.72 6.27)" id="rbn2yBVcwY2WdvTvfG4Jt"  >
<path style="stroke: none; stroke-width: 1; stroke-dasharray: none; stroke-linecap: butt; stroke-dashoffset: 0; stroke-linejoin: miter; stroke-miterlimit: 4; fill: rgb(8,11,12); fill-rule: nonzero; opacity: 1;" vector-effect="non-scaling-stroke"  transform=" translate(-3255.81, -2062.65)" d="M 3390.9 2060.66 L 3120.75 2060.66 C 3120.75 2060.83 3120.74 2061.0099999999998 3120.74 2061.19 C 3120.74 2062.33 3120.7299999999996 2063.51 3120.72 2064.65 L 3390.8999999999996 2064.65 L 3390.8999999999996 2060.6600000000003" stroke-linecap="round" />
</g>
		<g transform="matrix(0.1 0 0 -0.1 -5.88 13.67)" id="HgUka5Yh5eOXgAqu5f85N"  >
<path style="stroke: none; stroke-width: 1; stroke-dasharray: none; stroke-linecap: butt; stroke-dashoffset: 0; stroke-linejoin: miter; stroke-miterlimit: 4; fill: rgb(245,223,91); fill-rule: nonzero; opacity: 1;" vector-effect="non-scaling-stroke"  transform=" translate(-2339.84, -1988.61)" d="M 3117.55 1968.61 L 1580 1968.61 C 1568.95 1968.61 1560 1977.56 1560 1988.61 C 1560 1999.6499999999999 1568.95 2008.61 1580 2008.61 L 3119.67 2008.61 C 3119.15 1995.2199999999998 3118.44 1981.8899999999999 3117.55 1968.61" stroke-linecap="round" />
</g>
		<g transform="matrix(0.1 0 0 -0.1 78.51 13.67)" id="KlYLiX7JLtsfUuYxn3I_V"  >
<path style="stroke: none; stroke-width: 1; stroke-dasharray: none; stroke-linecap: butt; stroke-dashoffset: 0; stroke-linejoin: miter; stroke-miterlimit: 4; fill: rgb(244,207,79); fill-rule: nonzero; opacity: 1;" vector-effect="non-scaling-stroke"  transform=" translate(-3183.78, -1988.61)" d="M 3230 1968.61 L 3117.55 1968.61 C 3118.44 1981.8899999999999 3119.15 1995.2199999999998 3119.67 2008.61 L 3230 2008.61 C 3241.05 2008.61 3250 1999.6499999999999 3250 1988.61 C 3250 1977.56 3241.05 1968.61 3230 1968.61" stroke-linecap="round" />
</g>
</g>
</g>
</svg>