<?xml version="1.0" encoding="UTF-8" standalone="no" ?>
<!DOCTYPE svg PUBLIC "-//W3C//DTD SVG 1.1//EN" "http://www.w3.org/Graphics/SVG/1.1/DTD/svg11.dtd">
<svg xmlns="http://www.w3.org/2000/svg" xmlns:xlink="http://www.w3.org/1999/xlink" version="1.1" width="198" height="22" viewBox="0 0 198 22" xml:space="preserve">
<desc>Created with Fabric.js 3.6.3</desc>
<defs>
</defs>
<g transform="matrix(1 0 0 1 99 22)"  >
<g style=""   >
		<g transform="matrix(0.1 0 0 -0.1 -1.25 -10.32)" id="AV8sDm0GskWN42_G0iJzS"  >
<path style="stroke: none; stroke-width: 1; stroke-dasharray: none; stroke-linecap: butt; stroke-dashoffset: 0; stroke-linejoin: miter; stroke-miterlimit: 4; fill: rgb(244,209,46); fill-rule: nonzero; opacity: 1;" vector-effect="non-scaling-stroke"  transform=" translate(0, 0)" d="M 973.80506 80 L -946.19494 80 L -946.19494 -80 C -946.19494 -80 -1111.80947 -80 -631.8094699999999 -80 C -151.80946999999992 -80 973.8050600000001 -80 973.8050600000001 -80 L 973.8050600000001 80" stroke-linecap="round" />
</g>
		<g transform="matrix(0.1 0 0 -0.1 0.13 -10.32)"  >
<path style="stroke: none; stroke-width: 1; stroke-dasharray: none; stroke-linecap: butt; stroke-dashoffset: 0; stroke-linejoin: miter; stroke-miterlimit: 4; fill: rgb(9,16,25); fill-rule: nonzero; opacity: 1;" vector-effect="non-scaling-stroke"  transform=" translate(0, 0)" d="M 960 80 L 960 110 L -960 110 C -967.9 110 -975.63 106.8 -981.21 101.21000000000001 C -986.8000000000001 95.62 -990 87.9 -990 80 L -990 -80 C -990 -87.9 -986.8 -95.63 -981.21 -101.22 C -975.63 -106.8 -967.9000000000001 -110 -960 -110 L -764.59 -110 L -388.14000000000004 -110 C -388.14000000000004 -110 975.6299999999999 -106.8 981.2099999999998 -101.22 C 986.7999999999998 -95.63 989.9999999999998 -87.9 989.9999999999998 -80 L 989.9999999999998 80 C 989.9999999999998 87.9 986.7999999999997 95.62 981.2099999999998 101.21000000000001 C 975.6299999999998 106.80000000000001 967.8999999999999 110 959.9999999999998 110 L 959.9999999999998 80 L 929.9999999999998 80 L 929.9999999999998 -50 L -402.58000000000015 -50 C -411.69000000000017 -50 -420.35000000000014 -54.17 -426.03000000000014 -61.29 L -726.7000000000002 -61.29 C -732.3800000000001 -54.17 -741.0400000000002 -50 -750.1500000000002 -50 L -930.0000000000002 -50 L -930.0000000000002 50 L 959.9999999999998 50 L 959.9999999999998 80 L 929.9999999999998 80 L 959.9999999999998 80" stroke-linecap="round" />
</g>
		<g transform="matrix(0.1 0 0 -0.1 84.48 -0.71)" id="woFfef5YZcZGIJwFG1k5c"  >
<path style="stroke: none; stroke-width: 1; stroke-dasharray: none; stroke-linecap: butt; stroke-dashoffset: 0; stroke-linejoin: miter; stroke-miterlimit: 4; fill: rgb(7,12,15); fill-rule: nonzero; opacity: 1;" vector-effect="non-scaling-stroke"  transform=" translate(-3253.48, -1892.44)" d="M 3370 1878.61 L 3108.71 1878.61 C 3109.91 1887.81 3111.01 1897.03 3112.03 1906.28 L 3112.03 1906.28 L 3112.03 1906.28 L 3371.09 1906.28 C 3381.06 1906.28 3390.3700000000003 1903.45 3398.25 1898.55 C 3396.76 1894.3799999999999 3394.37 1890.55 3391.21 1887.3899999999999 C 3385.63 1881.81 3377.9 1878.61 3370 1878.61" stroke-linecap="round" />
</g>
		<g transform="matrix(0.1 0 0 -0.1 85.07 -19.43)" id="JCz1rwy_aNb3GIcVRC1Xp"  >
<path style="stroke: none; stroke-width: 1; stroke-dasharray: none; stroke-linecap: butt; stroke-dashoffset: 0; stroke-linejoin: miter; stroke-miterlimit: 4; fill: rgb(8,12,15); fill-rule: nonzero; opacity: 1;" vector-effect="non-scaling-stroke"  transform=" translate(-3259.36, -2079.63)" d="M 3398.59 2060.66 L 3390.9 2060.66 L 3390.9 2064.6499999999996 L 3120.7200000000003 2064.6499999999996 C 3120.65 2076.0099999999998 3120.4500000000003 2087.3199999999997 3120.13 2098.6099999999997 L 3367.2200000000003 2098.6099999999997 L 3370.0000000000005 2098.6099999999997 L 3370.0000000000005 2068.6099999999997 L 3370.0000000000005 2098.6099999999997 C 3377.9000000000005 2098.6099999999997 3385.6300000000006 2095.41 3391.2100000000005 2089.8199999999997 C 3394.2900000000004 2086.74 3396.6500000000005 2083.0099999999998 3398.1400000000003 2078.9599999999996 C 3398.3500000000004 2072.8899999999994 3398.5000000000005 2066.7799999999997 3398.59 2060.6599999999994" stroke-linecap="round" />
</g>
		<g transform="matrix(0.1 0 0 -0.1 71.21 -17.56)" id="bdmi_mVjZPPh1VlkZbkgk"  >
<path style="stroke: none; stroke-width: 1; stroke-dasharray: none; stroke-linecap: butt; stroke-dashoffset: 0; stroke-linejoin: miter; stroke-miterlimit: 4; fill: rgb(8,12,15); fill-rule: nonzero; opacity: 1;" vector-effect="non-scaling-stroke"  transform=" translate(-3120.74, -2060.93)" d="M 3120.75 2060.66 L 3120.74 2060.66 C 3120.74 2060.8399999999997 3120.74 2061.0099999999998 3120.74 2061.19 C 3120.74 2061.01 3120.75 2060.83 3120.75 2060.66" stroke-linecap="round" />
</g>
		<g transform="matrix(0.1 0 0 -0.1 81.9 -10.33)" id="NSXjvH0gSCGgO-qkjmfnZ"  >
<path style="stroke: none; stroke-width: 1; stroke-dasharray: none; stroke-linecap: butt; stroke-dashoffset: 0; stroke-linejoin: miter; stroke-miterlimit: 4; fill: rgb(242,187,33); fill-rule: nonzero; opacity: 1;" vector-effect="non-scaling-stroke"  transform=" translate(-3227.61, -1988.61)" d="M 3340 1938.61 L 3115.22 1938.61 C 3116.1 1948.58 3116.8799999999997 1958.58 3117.5499999999997 1968.61 L 3230 1968.61 C 3241.05 1968.61 3250 1977.56 3250 1988.61 C 3250 1999.6499999999999 3241.05 2008.61 3230 2008.61 L 3119.67 2008.61 C 3120.07 2018.58 3120.35 2028.58 3120.54 2038.61 L 3340 2038.61 L 3340 1938.61" stroke-linecap="round" />
</g>
		<g transform="matrix(0.1 0 0 -0.1 84.28 -10.01)" id="mfbSGh5b_PC8Sl7ab-e3D"  >
<path style="stroke: none; stroke-width: 1; stroke-dasharray: none; stroke-linecap: butt; stroke-dashoffset: 0; stroke-linejoin: miter; stroke-miterlimit: 4; fill: rgb(8,13,16); fill-rule: nonzero; opacity: 1;" vector-effect="non-scaling-stroke"  transform=" translate(-3251.47, -1985.46)" d="M 3390.9 1906.28 L 3371.09 1906.28 L 3371.09 1906.28 L 3112.03 1906.28 C 3113.21 1917.03 3114.28 1927.8 3115.2200000000003 1938.61 L 3340 1938.61 L 3340 2038.61 L 3120.54 2038.61 C 3120.66 2045.7199999999998 3120.74 2052.8399999999997 3120.7599999999998 2059.98 C 3120.7599999999998 2060.21 3120.7599999999998 2060.43 3120.7499999999995 2060.66 L 3390.8999999999996 2060.66 L 3390.8999999999996 1906.2799999999997 M 3120.74 2061.1899999999996 C 3120.72 2062.3399999999997 3120.68 2063.4799999999996 3120.68 2064.6499999999996 L 3120.72 2064.6499999999996 C 3120.73 2063.5099999999998 3120.74 2062.3299999999995 3120.74 2061.1899999999996" stroke-linecap="round" />
</g>
		<g transform="matrix(0.1 0 0 -0.1 84.72 -17.73)" id="gZCK6WxcIXF0PD9Y_dfl0"  >
<path style="stroke: none; stroke-width: 1; stroke-dasharray: none; stroke-linecap: butt; stroke-dashoffset: 0; stroke-linejoin: miter; stroke-miterlimit: 4; fill: rgb(8,11,12); fill-rule: nonzero; opacity: 1;" vector-effect="non-scaling-stroke"  transform=" translate(-3255.81, -2062.65)" d="M 3390.9 2060.66 L 3120.75 2060.66 C 3120.75 2060.83 3120.74 2061.0099999999998 3120.74 2061.19 C 3120.74 2062.33 3120.7299999999996 2063.51 3120.72 2064.65 L 3390.8999999999996 2064.65 L 3390.8999999999996 2060.6600000000003" stroke-linecap="round" />
</g>
		<g transform="matrix(0.1 0 0 -0.1 -6.88 -10.33)" id="IPbwmOCJaR17ZYknwRTYf"  >
<path style="stroke: none; stroke-width: 1; stroke-dasharray: none; stroke-linecap: butt; stroke-dashoffset: 0; stroke-linejoin: miter; stroke-miterlimit: 4; fill: rgb(245,223,91); fill-rule: nonzero; opacity: 1;" vector-effect="non-scaling-stroke"  transform=" translate(-2339.84, -1988.61)" d="M 3117.55 1968.61 L 1580 1968.61 C 1568.95 1968.61 1560 1977.56 1560 1988.61 C 1560 1999.6499999999999 1568.95 2008.61 1580 2008.61 L 3119.67 2008.61 C 3119.15 1995.2199999999998 3118.44 1981.8899999999999 3117.55 1968.61" stroke-linecap="round" />
</g>
		<g transform="matrix(0.1 0 0 -0.1 77.51 -10.33)" id="ak2fxMKkWgF6qt0TFNcXb"  >
<path style="stroke: none; stroke-width: 1; stroke-dasharray: none; stroke-linecap: butt; stroke-dashoffset: 0; stroke-linejoin: miter; stroke-miterlimit: 4; fill: rgb(244,207,79); fill-rule: nonzero; opacity: 1;" vector-effect="non-scaling-stroke"  transform=" translate(-3183.78, -1988.61)" d="M 3230 1968.61 L 3117.55 1968.61 C 3118.44 1981.8899999999999 3119.15 1995.2199999999998 3119.67 2008.61 L 3230 2008.61 C 3241.05 2008.61 3250 1999.6499999999999 3250 1988.61 C 3250 1977.56 3241.05 1968.61 3230 1968.61" stroke-linecap="round" />
</g>
		<g transform="matrix(0.1 0 0 -0.1 0.13 -10.32)" id="AV8sDm0GskWN42_G0iJzS"  >
<path style="stroke: none; stroke-width: 1; stroke-dasharray: none; stroke-linecap: butt; stroke-dashoffset: 0; stroke-linejoin: miter; stroke-miterlimit: 4; fill: rgb(244,209,46); fill-rule: nonzero; opacity: 1;" vector-effect="non-scaling-stroke"  transform=" translate(0, 0)" d="M 960 80 L -960 80 L -960 -80 L -750.15 -80 L -402.58 -80 L 960 -80 L 960 80" stroke-linecap="round" />
</g>
		<g transform="matrix(0.1 0 0 -0.1 0.13 -10.32)"  >
<path style="stroke: none; stroke-width: 1; stroke-dasharray: none; stroke-linecap: butt; stroke-dashoffset: 0; stroke-linejoin: miter; stroke-miterlimit: 4; fill: rgb(9,16,25); fill-rule: nonzero; opacity: 1;" vector-effect="non-scaling-stroke"  transform=" translate(0, 0)" d="M 960 80 L 960 110 L -960 110 C -967.9 110 -975.63 106.8 -981.21 101.21000000000001 C -986.8000000000001 95.62 -990 87.9 -990 80 L -990 -80 C -990 -87.9 -986.8 -95.63 -981.21 -101.22 C -975.63 -106.8 -967.9000000000001 -110 -960 -110 L -764.59 -110 L -388.14000000000004 -110 L 960 -110 C 967.9 -110 975.63 -106.8 981.21 -101.22 C 986.8000000000001 -95.63 990 -87.9 990 -80 L 990 80 C 990 87.9 986.8 95.62 981.21 101.21000000000001 C 975.63 106.80000000000001 967.9000000000001 110 960 110 L 960 80 L 930 80 L 930 -50 L -402.5799999999999 -50 C -411.68999999999994 -50 -741.04 -50 -750.1499999999999 -50 L -929.9999999999999 -50 L -929.9999999999999 50 L 960.0000000000001 50 L 960.0000000000001 80 L 930.0000000000001 80 L 960.0000000000001 80" stroke-linecap="round" />
</g>
		<g transform="matrix(0.1 0 0 -0.1 84.48 -0.71)" id="woFfef5YZcZGIJwFG1k5c"  >
<path style="stroke: none; stroke-width: 1; stroke-dasharray: none; stroke-linecap: butt; stroke-dashoffset: 0; stroke-linejoin: miter; stroke-miterlimit: 4; fill: rgb(7,12,15); fill-rule: nonzero; opacity: 1;" vector-effect="non-scaling-stroke"  transform=" translate(-3253.48, -1892.44)" d="M 3370 1878.61 L 3108.71 1878.61 C 3109.91 1887.81 3111.01 1897.03 3112.03 1906.28 L 3112.03 1906.28 L 3112.03 1906.28 L 3371.09 1906.28 C 3381.06 1906.28 3390.3700000000003 1903.45 3398.25 1898.55 C 3396.76 1894.3799999999999 3394.37 1890.55 3391.21 1887.3899999999999 C 3385.63 1881.81 3377.9 1878.61 3370 1878.61" stroke-linecap="round" />
</g>
		<g transform="matrix(0.1 0 0 -0.1 85.07 -19.43)" id="JCz1rwy_aNb3GIcVRC1Xp"  >
<path style="stroke: none; stroke-width: 1; stroke-dasharray: none; stroke-linecap: butt; stroke-dashoffset: 0; stroke-linejoin: miter; stroke-miterlimit: 4; fill: rgb(8,12,15); fill-rule: nonzero; opacity: 1;" vector-effect="non-scaling-stroke"  transform=" translate(-3259.36, -2079.63)" d="M 3398.59 2060.66 L 3390.9 2060.66 L 3390.9 2064.6499999999996 L 3120.7200000000003 2064.6499999999996 C 3120.65 2076.0099999999998 3120.4500000000003 2087.3199999999997 3120.13 2098.6099999999997 L 3367.2200000000003 2098.6099999999997 L 3370.0000000000005 2098.6099999999997 L 3370.0000000000005 2068.6099999999997 L 3370.0000000000005 2098.6099999999997 C 3377.9000000000005 2098.6099999999997 3385.6300000000006 2095.41 3391.2100000000005 2089.8199999999997 C 3394.2900000000004 2086.74 3396.6500000000005 2083.0099999999998 3398.1400000000003 2078.9599999999996 C 3398.3500000000004 2072.8899999999994 3398.5000000000005 2066.7799999999997 3398.59 2060.6599999999994" stroke-linecap="round" />
</g>
		<g transform="matrix(0.1 0 0 -0.1 71.21 -17.56)" id="bdmi_mVjZPPh1VlkZbkgk"  >
<path style="stroke: none; stroke-width: 1; stroke-dasharray: none; stroke-linecap: butt; stroke-dashoffset: 0; stroke-linejoin: miter; stroke-miterlimit: 4; fill: rgb(8,12,15); fill-rule: nonzero; opacity: 1;" vector-effect="non-scaling-stroke"  transform=" translate(-3120.74, -2060.93)" d="M 3120.75 2060.66 L 3120.74 2060.66 C 3120.74 2060.8399999999997 3120.74 2061.0099999999998 3120.74 2061.19 C 3120.74 2061.01 3120.75 2060.83 3120.75 2060.66" stroke-linecap="round" />
</g>
		<g transform="matrix(0.1 0 0 -0.1 81.9 -10.33)" id="NSXjvH0gSCGgO-qkjmfnZ"  >
<path style="stroke: none; stroke-width: 1; stroke-dasharray: none; stroke-linecap: butt; stroke-dashoffset: 0; stroke-linejoin: miter; stroke-miterlimit: 4; fill: rgb(242,187,33); fill-rule: nonzero; opacity: 1;" vector-effect="non-scaling-stroke"  transform=" translate(-3227.61, -1988.61)" d="M 3340 1938.61 L 3115.22 1938.61 C 3116.1 1948.58 3116.8799999999997 1958.58 3117.5499999999997 1968.61 L 3230 1968.61 C 3241.05 1968.61 3250 1977.56 3250 1988.61 C 3250 1999.6499999999999 3241.05 2008.61 3230 2008.61 L 3119.67 2008.61 C 3120.07 2018.58 3120.35 2028.58 3120.54 2038.61 L 3340 2038.61 L 3340 1938.61" stroke-linecap="round" />
</g>
		<g transform="matrix(0.1 0 0 -0.1 84.28 -10.01)" id="mfbSGh5b_PC8Sl7ab-e3D"  >
<path style="stroke: none; stroke-width: 1; stroke-dasharray: none; stroke-linecap: butt; stroke-dashoffset: 0; stroke-linejoin: miter; stroke-miterlimit: 4; fill: rgb(8,13,16); fill-rule: nonzero; opacity: 1;" vector-effect="non-scaling-stroke"  transform=" translate(-3251.47, -1985.46)" d="M 3390.9 1906.28 L 3371.09 1906.28 L 3371.09 1906.28 L 3112.03 1906.28 C 3113.21 1917.03 3114.28 1927.8 3115.2200000000003 1938.61 L 3340 1938.61 L 3340 2038.61 L 3120.54 2038.61 C 3120.66 2045.7199999999998 3120.74 2052.8399999999997 3120.7599999999998 2059.98 C 3120.7599999999998 2060.21 3120.7599999999998 2060.43 3120.7499999999995 2060.66 L 3390.8999999999996 2060.66 L 3390.8999999999996 1906.2799999999997 M 3120.74 2061.1899999999996 C 3120.72 2062.3399999999997 3120.68 2063.4799999999996 3120.68 2064.6499999999996 L 3120.72 2064.6499999999996 C 3120.73 2063.5099999999998 3120.74 2062.3299999999995 3120.74 2061.1899999999996" stroke-linecap="round" />
</g>
		<g transform="matrix(0.1 0 0 -0.1 84.72 -17.73)" id="gZCK6WxcIXF0PD9Y_dfl0"  >
<path style="stroke: none; stroke-width: 1; stroke-dasharray: none; stroke-linecap: butt; stroke-dashoffset: 0; stroke-linejoin: miter; stroke-miterlimit: 4; fill: rgb(8,11,12); fill-rule: nonzero; opacity: 1;" vector-effect="non-scaling-stroke"  transform=" translate(-3255.81, -2062.65)" d="M 3390.9 2060.66 L 3120.75 2060.66 C 3120.75 2060.83 3120.74 2061.0099999999998 3120.74 2061.19 C 3120.74 2062.33 3120.7299999999996 2063.51 3120.72 2064.65 L 3390.8999999999996 2064.65 L 3390.8999999999996 2060.6600000000003" stroke-linecap="round" />
</g>
		<g transform="matrix(0.1 0 0 -0.1 -6.88 -10.33)" id="IPbwmOCJaR17ZYknwRTYf"  >
<path style="stroke: none; stroke-width: 1; stroke-dasharray: none; stroke-linecap: butt; stroke-dashoffset: 0; stroke-linejoin: miter; stroke-miterlimit: 4; fill: rgb(245,223,91); fill-rule: nonzero; opacity: 1;" vector-effect="non-scaling-stroke"  transform=" translate(-2339.84, -1988.61)" d="M 3117.55 1968.61 L 1580 1968.61 C 1568.95 1968.61 1560 1977.56 1560 1988.61 C 1560 1999.6499999999999 1568.95 2008.61 1580 2008.61 L 3119.67 2008.61 C 3119.15 1995.2199999999998 3118.44 1981.8899999999999 3117.55 1968.61" stroke-linecap="round" />
</g>
		<g transform="matrix(0.1 0 0 -0.1 77.51 -10.33)" id="ak2fxMKkWgF6qt0TFNcXb"  >
<path style="stroke: none; stroke-width: 1; stroke-dasharray: none; stroke-linecap: butt; stroke-dashoffset: 0; stroke-linejoin: miter; stroke-miterlimit: 4; fill: rgb(244,207,79); fill-rule: nonzero; opacity: 1;" vector-effect="non-scaling-stroke"  transform=" translate(-3183.78, -1988.61)" d="M 3230 1968.61 L 3117.55 1968.61 C 3118.44 1981.8899999999999 3119.15 1995.2199999999998 3119.67 2008.61 L 3230 2008.61 C 3241.05 2008.61 3250 1999.6499999999999 3250 1988.61 C 3250 1977.56 3241.05 1968.61 3230 1968.61" stroke-linecap="round" />
</g>
</g>
</g>
</svg>