<svg height="22" viewBox="0 0 198 22" width="198" xmlns="http://www.w3.org/2000/svg"><path d="m973.80506 80h-1920v-160h314.38547 1605.61453z" fill="#f4d12e" transform="matrix(.1 0 0 -.1 97.75 11.68)"/><path d="m960 80v30h-1920c-7.9 0-15.63-3.2-21.21-8.79-5.59-5.59-8.79-13.31-8.79-21.21v-160c0-7.9 3.2-15.63 8.79-21.22 5.58-5.58 13.31-8.78 21.21-8.78h195.41 376.45s1363.77 3.2 1369.35 8.78c5.59 5.59 8.79 13.32 8.79 21.22v160c0 7.9-3.2 15.62-8.79 21.21-5.58 5.59-13.31 8.79-21.21 8.79v-30h-30v-130h-1332.58c-9.11 0-17.77-4.17-23.45-11.29h-300.67c-5.68 7.12-14.34 11.29-23.45 11.29h-179.85v100h1890v30h-30z" fill="#091019" transform="matrix(.1 0 0 -.1 99.13 11.68)"/><path d="m3370 1878.61h-261.29c1.2 9.2 2.3 18.42 3.32 27.67h259.06c9.97 0 19.28-2.83 27.16-7.73-1.49-4.17-3.88-8-7.04-11.16-5.58-5.58-13.31-8.78-21.21-8.78" fill="#070c0f" transform="matrix(.1 0 0 -.1 -141.868 210.534)"/><path d="m3398.59 2060.66h-7.69v3.99h-270.18c-.07 11.36-.27 22.67-.59 33.96h247.09 2.78v-30 30c7.9 0 15.63-3.2 21.21-8.79 3.08-3.08 5.44-6.81 6.93-10.86.21-6.07.36-12.18.45-18.3" fill="#080c0f" transform="matrix(.1 0 0 -.1 -141.866 210.533)"/><path d="m3120.75 2060.66h-.01v.53c0-.18.01-.36.01-.53" fill="#080c0f" transform="matrix(.1 0 0 -.1 -141.864 210.533)"/><path d="m3340 1938.61h-224.78c.88 9.97 1.66 19.97 2.33 30h112.45c11.05 0 20 8.95 20 20 0 11.04-8.95 20-20 20h-110.33c.4 9.97.68 19.97.87 30h219.46z" fill="#f2bb21" transform="matrix(.1 0 0 -.1 -141.861 210.531)"/><path d="m3390.9 1906.28h-19.81-259.06c1.18 10.75 2.25 21.52 3.19 32.33h224.78v100h-219.46c.12 7.11.2 14.23.22 21.37 0 .23 0 .45-.01.68h270.15zm-270.16 154.91c-.02 1.15-.06 2.29-.06 3.46h.04c.01-1.14.02-2.32.02-3.46" fill="#080d10" transform="matrix(.1 0 0 -.1 -141.867 210.536)"/><path d="m3390.9 2060.66h-270.15c0 .17-.01.35-.01.53 0 1.14-.01 2.32-.02 3.46h270.18z" fill="#080b0c" transform="matrix(.1 0 0 -.1 -141.861 210.535)"/><path d="m3117.55 1968.61h-1537.55c-11.05 0-20 8.95-20 20 0 11.04 8.95 20 20 20h1539.67c-.52-13.39-1.23-26.72-2.12-40" fill="#f5df5b" transform="matrix(.1 0 0 -.1 -141.864 210.531)"/><path d="m3230 1968.61h-112.45c.89 13.28 1.6 26.61 2.12 40h110.33c11.05 0 20-8.96 20-20 0-11.05-8.95-20-20-20" fill="#f4cf4f" transform="matrix(.1 0 0 -.1 -141.868 210.531)"/><path d="m960 80h-1920v-160h209.85 347.57 1362.58z" fill="#f4d12e" transform="matrix(.1 0 0 -.1 99.13 11.68)"/><path d="m960 80v30h-1920c-7.9 0-15.63-3.2-21.21-8.79-5.59-5.59-8.79-13.31-8.79-21.21v-160c0-7.9 3.2-15.63 8.79-21.22 5.58-5.58 13.31-8.78 21.21-8.78h195.41 376.45 1348.14c7.9 0 15.63 3.2 21.21 8.78 5.59 5.59 8.79 13.32 8.79 21.22v160c0 7.9-3.2 15.62-8.79 21.21-5.58 5.59-13.31 8.79-21.21 8.79v-30h-30v-130h-1332.58c-9.11 0-338.46 0-347.57 0h-179.85v100h1890v30h-30z" fill="#091019" transform="matrix(.1 0 0 -.1 99.13 11.68)"/><path d="m3370 1878.61h-261.29c1.2 9.2 2.3 18.42 3.32 27.67h259.06c9.97 0 19.28-2.83 27.16-7.73-1.49-4.17-3.88-8-7.04-11.16-5.58-5.58-13.31-8.78-21.21-8.78" fill="#070c0f" transform="matrix(.1 0 0 -.1 -141.868 210.534)"/><path d="m3398.59 2060.66h-7.69v3.99h-270.18c-.07 11.36-.27 22.67-.59 33.96h247.09 2.78v-30 30c7.9 0 15.63-3.2 21.21-8.79 3.08-3.08 5.44-6.81 6.93-10.86.21-6.07.36-12.18.45-18.3" fill="#080c0f" transform="matrix(.1 0 0 -.1 -141.866 210.533)"/><path d="m3120.75 2060.66h-.01v.53c0-.18.01-.36.01-.53" fill="#080c0f" transform="matrix(.1 0 0 -.1 -141.864 210.533)"/><path d="m3340 1938.61h-224.78c.88 9.97 1.66 19.97 2.33 30h112.45c11.05 0 20 8.95 20 20 0 11.04-8.95 20-20 20h-110.33c.4 9.97.68 19.97.87 30h219.46z" fill="#f2bb21" transform="matrix(.1 0 0 -.1 -141.861 210.531)"/><path d="m3390.9 1906.28h-19.81-259.06c1.18 10.75 2.25 21.52 3.19 32.33h224.78v100h-219.46c.12 7.11.2 14.23.22 21.37 0 .23 0 .45-.01.68h270.15zm-270.16 154.91c-.02 1.15-.06 2.29-.06 3.46h.04c.01-1.14.02-2.32.02-3.46" fill="#080d10" transform="matrix(.1 0 0 -.1 -141.867 210.536)"/><path d="m3390.9 2060.66h-270.15c0 .17-.01.35-.01.53 0 1.14-.01 2.32-.02 3.46h270.18z" fill="#080b0c" transform="matrix(.1 0 0 -.1 -141.861 210.535)"/><path d="m3117.55 1968.61h-1537.55c-11.05 0-20 8.95-20 20 0 11.04 8.95 20 20 20h1539.67c-.52-13.39-1.23-26.72-2.12-40" fill="#f5df5b" transform="matrix(.1 0 0 -.1 -141.864 210.531)"/><path d="m3230 1968.61h-112.45c.89 13.28 1.6 26.61 2.12 40h110.33c11.05 0 20-8.96 20-20 0-11.05-8.95-20-20-20" fill="#f4cf4f" transform="matrix(.1 0 0 -.1 -141.868 210.531)"/></svg>