<svg height="402" viewBox="0 0 261 402" width="261" xmlns="http://www.w3.org/2000/svg"><path d="m1615.75 2018.78-8.58 1451.67 911.66 435.62 79.32-166.02-806.29-385.27 7.89-1334.9z" fill="#48646f" transform="matrix(.13 0 0 -.13 -86.7558 511.3546)"/><path d="m1615.75 2018.78 30 .18-8.47 1432.63 867.41 414.48 53.46-111.89-779.22-372.33c-10.45-4.99-17.14-15.68-17.07-27.25l7.71-1304.9-154-.92.18-30 30 .18-30-.18.18-30 184 1.1c16.57.09 29.92 13.61 29.82 30.17l-7.78 1315.87 789.12 377.06c14.95 7.14 21.28 25.05 14.13 40l-79.32 166.03c-3.41 7.12-9.63 12.72-17.08 15.35s-15.8 2.19-22.93-1.22l-911.66-435.62c-10.44-4.99-17.13-15.67-17.06-27.25l8.58-1451.67c.05-7.89 3.3-15.6 8.92-21.16 5.61-5.55 13.36-8.7 21.26-8.66z" fill="#091019" transform="matrix(.13 0 0 -.13 -86.7671 511.3546)"/><path d="m2379.21 898.609h-1349.79l-169.674 2080.001h1689.154z" fill="#ec3c26" transform="matrix(.13 0 0 -.13 -88.0816 514.7693)"/><path d="m2379.21 898.609v30h-1322.13l-164.787 2020.001h1624.057l-167.04-2047.559 29.9-2.442v30-30l29.9-2.437 169.69 2079.998c.68 8.32-2.18 16.63-7.84 22.77-5.67 6.14-13.71 9.67-22.06 9.67h-1689.154c-8.351 0-16.398-3.53-22.058-9.67-5.661-6.14-8.52-14.45-7.84-22.77l169.675-2079.998c1.277-15.613 14.237-27.563 29.897-27.563h1349.79c15.66 0 28.63 11.95 29.9 27.563z" fill="#091019" transform="matrix(.13 0 0 -.13 -88.0816 514.7693)"/><path d="m710 2858.61h1950v270h-1950z" fill="#fcfcfc" transform="matrix(.13 0 0 -.13 -88.15 511.2393)"/><path d="m2660 2858.61v30h-1920v210h1890v-240h30v30-30h30v270c0 7.9-3.2 15.62-8.79 21.21-5.58 5.59-13.31 8.79-21.21 8.79h-1950c-7.898 0-15.625-3.2-21.215-8.79-5.586-5.59-8.785-13.31-8.785-21.21v-270c0-7.9 3.199-15.63 8.785-21.22 5.59-5.58 13.317-8.78 21.215-8.78h1950c7.9 0 15.63 3.2 21.21 8.78 5.59 5.59 8.79 13.32 8.79 21.22z" fill="#091019" transform="matrix(.13 0 0 -.13 -88.15 511.2493)"/><path d="m2448.53 1758.61h-428.53v89.8c0 179.34-145.67 324.72-325 324.72-179.34 0-325-145.38-325-324.72v-89.8h-409.906l12.773-160h397.133v-91.56c0-179.34 145.66-324.71 325-324.71 179.33 0 325 145.37 325 324.71v91.56h415.76z" fill="#f4ad19" transform="matrix(.13 0 0 -.13 -88.0903 515.6362)"/><path d="m2448.53 1758.61v20h-408.53v69.8c-.02 190.42-154.63 344.7-345 344.72-190.38-.02-344.98-154.3-345-344.72v-69.8h-389.906c-5.571 0-10.918-2.34-14.696-6.44-3.777-4.09-5.683-9.6-5.242-15.15l12.774-160c.832-10.41 9.496-18.41 19.937-18.41h377.133v-71.56c.02-190.42 154.62-344.7 345-344.71 190.37.01 344.98 154.29 345 344.71v71.56h395.76c10.44 0 19.11 8 19.94 18.41l12.77 160c.44 5.55-1.46 11.06-5.24 15.15s-9.13 6.44-14.7 6.44v-20l-19.93 1.59-11.31-141.59h-397.29c-5.27 0-10.42-2.14-14.14-5.86-3.73-3.73-5.86-8.88-5.86-14.14v-91.56c-.01-84.2-34.14-160.25-89.39-215.46-55.27-55.18-131.41-89.24-215.61-89.25-84.21.01-160.34 34.07-215.62 89.25-55.24 55.21-89.37 131.26-89.38 215.46v91.56c0 5.26-2.13 10.41-5.86 14.14-3.72 3.72-8.87 5.86-14.14 5.86h-378.668l-9.578 120h388.246c5.27 0 10.42 2.13 14.14 5.85 3.73 3.73 5.86 8.88 5.86 14.15v89.8c.01 84.2 34.14 160.25 89.38 215.46 55.28 55.18 131.41 89.25 215.62 89.26 84.2-.01 160.34-34.08 215.61-89.26 55.25-55.21 89.38-131.26 89.39-215.46v-89.8c0-5.27 2.13-10.42 5.86-14.15 3.72-3.72 8.87-5.85 14.14-5.85h428.53v20l-19.93 1.59z" fill="#091019" transform="matrix(.13 0 0 -.13 -88.0903 515.6362)"/><g fill="#f46e46"><path d="m1162.01 2580.45c-17.7 0-32.04 14.34-32.04 32.04 0 17.69 14.34 32.03 32.04 32.03s32.03-14.34 32.03-32.03c0-17.7-14.33-32.04-32.03-32.04" transform="matrix(.13 0 0 -.13 -89.9013 512.5124)"/><path d="m1210.85 2150.57c-17.7 0-32.04 14.34-32.04 32.04s14.34 32.04 32.04 32.04 32.04-14.34 32.04-32.04-14.34-32.04-32.04-32.04" transform="matrix(.13 0 0 -.13 -89.7405 513.9493)"/><path d="m1259.7 1114.97c-17.69 0-32.03 14.34-32.03 32.04s14.34 32.04 32.03 32.04c17.7 0 32.04-14.34 32.04-32.04s-14.34-32.04-32.04-32.04" transform="matrix(.13 0 0 -.13 -89.561 517.4013)"/></g><path d="m730 2998.61h1930z" fill="#ec3c26" transform="matrix(.13 0 0 -.13 -88.12 511.2293)"/><path d="m730 2968.61h1930c16.57 0 30 13.43 30 30s-13.43 30-30 30h-1930c-16.57 0-30-13.43-30-30s13.43-30 30-30" fill="#091019" transform="matrix(.13 0 0 -.13 -88.12 511.2393)"/><path d="m980 1678.61h1440z" fill="#ec3c26" transform="matrix(.13 0 0 -.13 -88.11 515.6293)"/><path d="m980 1658.61h1440c11.05 0 20 8.95 20 20 0 11.04-8.95 20-20 20h-1440c-11.047 0-20-8.96-20-20 0-11.05 8.953-20 20-20" fill="#091019" transform="matrix(.13 0 0 -.13 -88.11 515.6393)"/><path d="m1700 1178.61v990z" fill="#ec3c26" transform="matrix(.13 0 0 -.13 -88.11 515.6493)"/><path d="m1720 1178.61v990c0 11.04-8.95 20-20 20s-20-8.96-20-20v-990c0-11.05 8.95-20 20-20s20 8.95 20 20" fill="#091019" transform="matrix(.13 0 0 -.13 -88.1 515.6493)"/><path d="m1465.9 908.609h-436.48l-8.09 98.671c9.65 1.64 19.29 3.35 28.91 5.15l6.84-83.821h396.9c3.22-7.14 7.24-13.847 11.92-20" fill="#06090a" transform="matrix(.13 0 0 -.13 -89.6306 518.0176)"/><path d="m2630 2916.92c-47.72 7.49-96.67 12.33-146.53 14.46-.76 7.16-1.58 14.51-2.42 21.62-.25 2.07-.48 4.73-.74 6.8-.34 2.85-.7 5.81-1.06 8.81h150.75z" fill="#f8f8f7" transform="matrix(.13 0 0 -.13 -85.2619 511.4101)"/><path d="m2630 3028.61h-159.2c-3.69 23.29-7.83 46.69-12.43 70h171.63z" fill="#f8f8f7" transform="matrix(.13 0 0 -.13 -85.2947 511.0093)"/></svg>