<svg height="873" viewBox="0 0 1047 873" width="1047" xmlns="http://www.w3.org/2000/svg"><path d="m8701.26 2867.17 31.39-728.04-92.01-1237.911-137.69-9.778-167.29 1124.319-231.42 951.39z" fill="#587bc9" transform="matrix(.13 0 0 -.13 -188.3872 969.369)"/><path d="m8507.87 833.441 154.18-63.871 69.16 79.731-79.74 69.16-148.89-10.582z" fill="#2b3342" transform="matrix(.13 0 0 -.13 -187.727 972.9926)"/><path d="m7726.59 3124.8-30.22-550.31 89.66-1636.291 137.86-6.89 206.62 1073.191 182.24 1176.89z" fill="#587bc9" transform="matrix(.13 0 0 -.13 -189.7728 968.9455)"/><path d="m7920.19 873.211-152.81-67.09-70.82 78.27 78.27 70.82 149.09-7.461z" fill="#2b3342" transform="matrix(.13 0 0 -.13 -190.4212 972.8671)"/><path d="m8528.18 4745.97-430.21 46.09s-239.33-25.57-401.72-593.94c-90.34-316.21-117.84-814.42-124.46-1194.24 10.16-54.18 69.19-291.51 318.79-251.25 428.62 69.13 656.76 138.26 843.42 103.7 159.01-34.57 145.56 184.35 128.09 351.42l-63.36 516.91z" fill="#e2e2e2" transform="matrix(.13 0 0 -.13 -189.0474 963.2378)"/><path d="m8445.1 5281.47c-108.43 23.91-220.03 45.32-328.58 23.83-23.78-4.7-49.3-12.98-62.19-33.5-5-7.95-7.64-17.12-10.08-26.19-27.39-101.83-62.14-252.77 4.89-346.58 12.78-17.89 29.95-32.1 48.39-43.62 24.67-15.42 51.97-25.9 80.21-31.47-5.84-25.32-13.97-50.11-24.28-73.95 24.82-37.43 140.62-41.92 162.03-6.04 1.2 31.05 2.4 62.1 3.6 93.15 14.1 5.7 27.72 12.62 40.5 21.04 49.49 32.6 82.1 82.06 101.04 137.4 20.62 60.26 49.64 117.53 68.48 178.95 6.87 22.37 12.28 47.91.51 68.13-12.53 21.54-39.58 28.86-63.89 34.28-6.86 1.53-13.74 3.06-20.63 4.57" fill="#aa6755" transform="matrix(.13 0 0 -.13 -188.8737 959.0775)"/><path d="m8084.18 5223.26c53.6 34.46 134.01 49.3 184.4 45.65 152.36-11.03 208.17-122.92 216.31-263.01 41.98 53.35 120.74 120.45 125.5 189.1 3.89 56.18-3.88 132.8-35.36 181.33-29.45 45.4-104.77 70.34-149.56 96.65-42.22 24.81-84.44 49.61-126.67 74.41-8.78 5.16-17.8 10.41-27.84 12.15-11.86 2.06-23.96-.98-35.62-3.99-99.79-25.79-199.58-51.58-299.37-77.37-19.17-4.96-41.01-12.2-48.07-30.69-4.3-11.26-1.77-23.83.8-35.59 11.33-51.8 33.08-104.75 38.46-157.23 6.1-30.49 24.28-186.75 78.26-168.72 15.85 25.92 18.23 57.85 30.58 85.61 9.12 20.51 26.45 37.72 48.18 51.7" fill="#4f4b47" transform="matrix(.13 0 0 -.13 -188.9585 958.1978)"/><path d="m8097.97 4792.06-159-48.39-580.72-608.37-34.57-200.49 277.62-458.38 74.96 168.02-117.52 338.75 186.66 131.36 248.88 559.97z" fill="#a9b4b9" transform="matrix(.13 0 0 -.13 -190.7479 962.0225)"/><path d="m8784.4 4887.22c-4.15-5.08-8.16-10.29-12.42-15.28-156.21-183.1-365.71-283.94-589.92-283.94-224.2 0-433.71 100.84-589.92 283.94-4.25 4.99-8.26 10.2-12.41 15.28-411.04-187.81-698.48-603.3-698.48-1082.69v-308.87c0-87.05 70.56-157.62 157.62-157.62h2286.39c87.05 0 157.62 70.57 157.62 157.62v308.87c0 479.39-287.45 894.88-698.48 1082.69" fill="#305399" transform="matrix(.13 0 0 -.13 -189.1791 962.0919)"/><path d="m8182.06 4722.96c181.04 0 345.67 81.95 468.64 215.78 135.53 147.5 220.43 358.05 220.43 591.93 0 446.08-308.51 807.7-689.07 807.7s-689.07-361.62-689.07-807.7c0-233.88 84.9-444.43 220.43-591.93 122.97-133.83 287.61-215.78 468.64-215.78" fill="#305399" transform="matrix(.13 0 0 -.13 -189.1778 957.3658)"/><path d="m6929.84 4357.88 85.41 48.69 77.59-141.07-81.5-144.84-130.09 60.21z" fill="#aa6755" transform="matrix(.13 0 0 -.13 -193.1665 961.5893)"/><path d="m9434.28 4424.18-85.41 48.68-77.59-141.06 81.5-144.85 130.1 60.21z" fill="#aa6755" transform="matrix(.13 0 0 -.13 -185.2004 961.3683)"/><g fill="#3b455a"><path d="m3075.53 2808.53-598.14 219.97 123.29-1047.83-71.44-904-1.92-6.02 1.43-.16-.15-1.97 117.99-11.25.03.11 4.38-.49 263.45 805.42 139.46 857.93z" transform="matrix(.13 0 0 -.13 -207.1998 968.9897)"/><path d="m2640.45 1016.07-122.37 3.09-31.25-103.25 3.09-.918-.78-.094 202.3-119.867 96.2-10.691 12.22 109.93-25.99 19.039z" transform="matrix(.13 0 0 -.13 -207.6442 972.7975)"/><path d="m3482.96 2790.53-179.51-1794.069-118.4-5.383-118.94 968.732-206.19 964.77z" transform="matrix(.13 0 0 -.13 -205.8772 969.2779)"/><path d="m3303.14 954.809 156.83-88.918-14.7-74-280.21 42.238 16.49 106.609z" transform="matrix(.13 0 0 -.13 -205.4063 972.8955)"/></g><path d="m3763.39 2339.97c37.85 26.28 38.66 72.04 38.59 117.87-.12 86.06-15.6 174.03-35.32 257.66-37.56 156.88-80.14 345.84-98.87 549.14-48.39 525.41-214.31 877.99-214.31 877.99l-53.54 142.77c-10.64 18.56-21.68 36.92-33.21 55.01-66.87 104.93-182.97 283.25-307.15 312.44-2.59.61-5.2 1.21-7.82 1.78-130.55 28.65-297.84 15.36-415.83-48.11-22.38-12.05-42.29-28.09-62.06-44.03-57.69-46.54-104.73-71.74-129.61-142.66-21.59-61.57-26.61-128.76-38.52-192.57-24.19-129.64-38.62-260.83-57.94-391.22-36.22-244.53-66.97-489.84-105.72-733.99-19.95-125.65-40.03-251.53-49.45-378.5-8.33-112.26-109.61-226.25-166.52-326.86-19.8-35.01 264.62-125.72 290.11-131.66 117.98-27.46 243.48-20.45 365.1-21 266.53-1.21 533.1 7.01 799.05 24.64 88.37 5.85 197.28 22.73 275.69 66.73 2.59 1.45 5.03 2.97 7.33 4.57" fill="#7db5db" transform="matrix(.13 0 0 -.13 -206.7415 964.279)"/><path d="m2905.36 4668.99s-150.13 40.53-170.87-298.22-55.31-1196.01-103.7-1431.06-120.98-696.1-120.98-696.1l459.74-15.97 525.41 41.48s-179.75 331.84-207.4 566.89c-27.66 235.05 20.74 1119.96-96.79 1451.8s-142.19 375.22-285.41 381.18" fill="#7db5db" transform="matrix(.13 0 0 -.13 -206.4507 964.3091)"/><path d="m3584.83 3914.49 34.57-41.48 124.44 172.83-497.76 553.07-186.66 55.31 89.87-241.97z" fill="#826656" transform="matrix(.13 0 0 -.13 -205.1119 961.5893)"/><path d="m3168.8 4057.6-109.24 83.26 33.55 48.24 87.43-40.45 5.28 30.18 84.8-82.63-28.11-54.86z" fill="#eac1a4" transform="matrix(.13 0 0 -.13 -205.9017 962.0886)"/><path d="m3596.72 4078.88-4.9-10.76-340.53 65.68-50.21-111.69 418.32-149.1z" fill="#826656" transform="matrix(.13 0 0 -.13 -205.0812 962.4633)"/><path d="m3114.76 4937.38c22.72-68.21-10.16-140.94-39.02-203.1-25.59-55.12-34.49-91.4 30.48-106.27 36.61-8.38 101.57-24.02 133.68 4.01 24.3 21.24 10.64 86.81-1.18 112.86-9.04 19.89-32.94 29.99-41.44 50.12-3.51 8.29-4.01 17.51-4.14 26.52-.51 36.77 4.58 73.61 15.03 108.88 7.1 23.94 16.72 47.46 18.86 72.34 3.11 36.07-22.4 78.12-35.81 111.27-24.94 61.67-111.76 144.4-184.45 95.99-16.56-11.03-26.19-29.66-34.25-47.84-4.81-10.86-9.39-22.19-9.52-34.06-.56-47.36 42.67-55.35 72.53-77.88 36.82-27.8 64.73-69.31 79.23-112.84" fill="#3b3631" transform="matrix(.13 0 0 -.13 -206.0947 959.399)"/><path d="m2976.5 4671.23c63.05 14.85 112.35 67.79 136.04 128.08s24.93 127.15 18.38 191.6c-21.8 214.45-288.58 200.69-378.92 36.32-78.73-143.25 41.16-399.19 224.5-356" fill="#d5c6ab" transform="matrix(.13 0 0 -.13 -206.6844 959.4366)"/><path d="m2976.43 4694.34c-1.05-24.43-2.11-48.86-3.17-73.29-.15-3.58-.45-7.5-2.95-10.06-2.85-2.92-7.44-2.97-11.52-2.84-19.91.69-39.82 1.38-59.72 2.07-9.87.34-20.13.79-28.83 5.45-19.04 10.22-22.98 36.03-19.94 57.43 3.03 21.4 10.71 42.96 6.17 64.09 41.11-20.25 80.16 25.52 121.27 5.26z" fill="#d5c6ab" transform="matrix(.13 0 0 -.13 -206.7428 960.2109)"/><path d="m2890.4 5362.71c-70.05-23.8-114.97-94.65-183.33-122.94-39.2-16.23-85.59-18.29-117.58-46.17-71.68-62.47-14.07-193.57-72.96-268.22-12.24-15.52-28.75-27.26-41.05-42.74-26.51-33.39-29.98-78.97-32.35-121.55-.53-9.58-.63-20.01 1.03-29.65 9.21-98.32 151.95-92.07 208.65-85.77 62.22 6.91 41.48 41.48 41.48 41.48l-2.26 2.76c-5.97 39.92 10.45 82.49 41.81 107.93 11.64 9.44 25.41 16.95 33.62 29.49 18.41 28.14.83 65.42 3.54 98.94 10.9 135.01 237.5 106.07 301.44 202.2 78.41 117.87-49.75 279.19-182.04 234.24" fill="#3b3631" transform="matrix(.13 0 0 -.13 -207.2267 959.115)"/><path d="m3533.21 4887.22c-4.15-5.08-8.16-10.29-12.41-15.28-156.21-183.1-365.72-283.94-589.92-283.94-224.21 0-433.72 100.84-589.92 283.94-4.26 4.99-8.27 10.2-12.42 15.28-411.04-187.81-698.48-603.3-698.48-1082.69v-308.87c0-87.05 70.57-157.62 157.62-157.62h2286.39c87.05 0 157.62 70.57 157.62 157.62v308.87c0 479.39-287.44 894.88-698.48 1082.69" fill="#305399" transform="matrix(.13 0 0 -.13 -206.6844 962.0919)"/><path d="m2930.88 4722.96c181.03 0 345.67 81.95 468.64 215.78 135.52 147.5 220.42 358.05 220.42 591.93 0 446.08-308.5 807.7-689.06 807.7-380.57 0-689.07-361.62-689.07-807.7 0-233.88 84.9-444.43 220.43-591.93 122.97-133.83 287.6-215.78 468.64-215.78" fill="#305399" transform="matrix(.13 0 0 -.13 -205.1444 970.2858)"/><path d="m1678.66 4357.88 85.41 48.69 77.59-141.07-81.5-144.84-130.1 60.21z" fill="#eac1a4" transform="matrix(.13 0 0 -.13 -210.6718 961.5893)"/><path d="m4183.1 4424.18-85.41 48.68-77.59-141.06 81.5-144.85 130.09 60.21z" fill="#eac1a4" transform="matrix(.13 0 0 -.13 -202.697 961.3683)"/><path d="m6149.77 992.652 11.23-87.343-163.45-109.789-98.56 76.101 76.1 98.57 163.45 109.789z" fill="#363f51" transform="matrix(.13 0 0 -.13 -196.3487 972.6775)"/><path d="m6155.29 1021.97-126.04 1113.83 151.65 1246.94-34.1 265.25-677.39 25.73-24.44-431.72 113.72-1107.91 427.81-1169.051z" fill="#d3d3d3" transform="matrix(.13 0 0 -.13 -197.0809 968.0694)"/><path d="m5405.83 4906.12-340.73-92.8-394.06-698.25 186.67-172.83 262.7 311.1z" fill="#3b455a" transform="matrix(.13 0 0 -.13 -199.6559 961.0534)"/><path d="m4972.38 3548.9-1.78-1124.01 226.24-1446.96 162.85 1.621 89.51 1338.109 209.51 1339.3z" fill="#d3d3d3" transform="matrix(.13 0 0 -.13 -198.7358 968.0785)"/><path d="m5359.44 910.871-175.23-89.801-88.93 87.168 87.18 88.934 176.1 1.758z" fill="#363f51" transform="matrix(.13 0 0 -.13 -199.0268 972.77)"/><path d="m6251 3166.62c-1.55 48.71-4.26 89.36-4.65 103.87-3.48 130.66-15.12 261.04-31.49 390.77-14.65 116.26-33.16 404.88-53.05 520.42-16.43 95.4-73.67 333.52-115.03 422-102.86 220.06-71.08 240.38-522.9 305.72-198.01 28.64-244.82-94.77-406.7-236.68-15.97-13.99-15.09-97.33-18.8-119.4-6.52-38.86-13.51-77.66-21.52-116.27-6.3-30.35-13.25-60.61-21.03-90.66-80.57-311.13-173.23-610.23-192.14-932.73-5.36-90.98-33.34-179.29-30.86-271.09.28-10.55 1.14-21.86 7.71-30.13 27.34-34.47 178.27 18.18 224.13 22.69 116.59 11.47 235.57 18.69 352.81 17.81 120.3-.9 241.1-13.07 359.37-33.47 79.09-13.22 159.8-32.43 230.55-69.39 67.5-35.26 116.22-87.12 184.71-123.63 6.49-3.46 13.6-7.04 20.97-6.02 39.34 5.45 41.19 143.67 37.92 246.19" fill="#3b455a" transform="matrix(.13 0 0 -.13 -197.9794 962.7483)"/><path d="m5523.36 4847.35c22.8-11.26 76.61-15.3 132.74 6.69 11.31 4.43 18.94 15.33 18.78 27.48-.44 34.09-3.19 68.16-8.2 101.88 42.1 14.8 90.74 37 98.08 81.02 2.31 13.86-.09 28.03-2.48 41.88-9.89 57.26-19.79 114.52-29.68 171.77-3.43 19.81-7.06 40.19-17.83 57.16-18.9 29.77-55.58 42.8-90.32 48.83-88.67 15.39-185.28-3.82-254.03-61.89-18.3-15.45-34.84-34.03-42.91-56.58-12.44-34.77-3.13-73.13 6.24-108.84 8.66-32.97 17.31-65.94 25.97-98.91 9.96-37.92 24.33-81.02 60.87-95.24 19.4-7.55 42.3-5.34 59.86-16.52 30.98-19.7 26.8-65.75 42.91-98.73" fill="#d5c6ab" transform="matrix(.13 0 0 -.13 -197.978 958.7584)"/><path d="m5034.35 5420.9c-15.18 142.17 46.91 291.9 163.86 262.12 70.84-18.03 134.24-47.88 205.54-21.25 67.01 25.02 115.41 14.83 185.44-10.16 75.78-27.04 177.52-33.42 246.12-71.6 28.65-15.94 51.51-40.85 69.32-68.37 61.73-95.34 62.07-226.79.84-322.45-13.74-21.46-30.18-41.08-47.45-59.81-35.75-38.77-78.52-86.67-127.7-101.04-1.17 44 38.9 182.74 5.11 218.8-53.62 57.22-174.86 37.26-241.39 23.17-72.56-15.37-137.23-66.75-209.17-77.73-158.83-24.24-236.7 98.91-250.52 228.32" fill="#3b3631" transform="matrix(.13 0 0 -.13 -198.1519 957.9467)"/><path d="m6307.41 5635.52c-4.85-5.95-9.54-12.03-14.52-17.87-182.65-214.1-427.63-332.01-689.79-332.01-262.17 0-507.14 117.91-689.79 332.01-4.98 5.84-9.67 11.92-14.53 17.87-480.62-219.61-816.73-705.44-816.73-1265.99v-361.16c0-101.79 82.52-184.31 184.31-184.31h2673.48c101.79 0 184.31 82.52 184.31 184.31v361.16c0 560.55-336.12 1046.38-816.74 1265.99" fill="#587bc9" transform="matrix(.13 0 0 -.13 -197.773 960.0327)"/><path d="m5603.1 5443.45c211.69 0 404.19 95.82 547.98 252.31 158.47 172.47 257.74 418.67 257.74 692.14 0 521.61-360.73 944.45-805.72 944.45s-805.73-422.84-805.73-944.45c0-273.47 99.28-519.67 257.75-692.14 143.79-156.49 336.3-252.31 547.98-252.31" fill="#587bc9" transform="matrix(.13 0 0 -.13 -197.7717 954.507)"/><path d="m4692.23 3730.78-37.23 90.99 149.93 58.67 133.07-99.56-76.54-121.21z" fill="#eac1a4" transform="matrix(.13 0 0 -.13 -200.465 963.2378)"/><path d="m6366.4 3731.3 36.88 91.13-150.14 58.12-132.71-100.06 77-120.92z" fill="#eac1a4" transform="matrix(.13 0 0 -.13 -195.5805 963.2378)"/></svg>