<?xml version="1.0" encoding="UTF-8" standalone="no" ?>
<!DOCTYPE svg PUBLIC "-//W3C//DTD SVG 1.1//EN" "http://www.w3.org/Graphics/SVG/1.1/DTD/svg11.dtd">
<svg xmlns="http://www.w3.org/2000/svg" xmlns:xlink="http://www.w3.org/1999/xlink" version="1.1" width="238" height="287" viewBox="0 0 238 287" xml:space="preserve">
<desc>Created with Fabric.js 3.6.3</desc>
<defs>
</defs>
<g transform="matrix(1 0 0 1 140 179)"  >
<g style=""   >
		<g transform="matrix(0.13 0 0 -0.13 -19.48 -1.22)" id="pm8U6L-CL3BkwGMlyNkeY"  >
<path style="stroke: none; stroke-width: 1; stroke-dasharray: none; stroke-linecap: butt; stroke-dashoffset: 0; stroke-linejoin: miter; stroke-miterlimit: 4; fill: rgb(202,212,187); fill-rule: nonzero; opacity: 1;" vector-effect="non-scaling-stroke"  transform=" translate(-3216.89, -1704.21)" d="M 3960.6 883.609 L 2470.2 883.609 L 2350.06 2524.82 L 4083.72 2521.89 L 3960.6 883.609" stroke-linecap="round" />
</g>
		<g transform="matrix(0.13 0 0 -0.13 -19.49 -1.22)" id="kzeSS4agSeBN_v7GS7o-c"  >
<path style="stroke: none; stroke-width: 1; stroke-dasharray: none; stroke-linecap: butt; stroke-dashoffset: 0; stroke-linejoin: miter; stroke-miterlimit: 4; fill: rgb(9,16,25); fill-rule: nonzero; opacity: 1;" vector-effect="non-scaling-stroke"  transform=" translate(-3216.89, -1704.21)" d="M 3960.6 883.609 L 3960.6 908.609 L 2493.43 908.609 L 2376.96 2499.78 L 4056.77 2496.9300000000003 L 3935.67 885.4800000000002 L 3960.6 883.6090000000003 L 3960.6 908.6090000000003 L 3960.6 883.6090000000003 L 3985.5299999999997 881.7300000000002 L 4108.65 2520.01 C 4109.17 2526.96 4106.79 2533.7700000000004 4102.0599999999995 2538.8700000000003 C 4097.33 2543.9800000000005 4090.7199999999993 2546.8800000000006 4083.7599999999993 2546.8900000000003 L 2350.0999999999995 2549.82 C 2343.1399999999994 2549.8300000000004 2336.4999999999995 2546.9500000000003 2331.7599999999993 2541.86 C 2327.0199999999995 2536.76 2324.6199999999994 2529.94 2325.1199999999994 2523 L 2445.26 881.781 C 2446.2200000000003 868.6909999999999 2457.07 858.6089999999999 2470.2000000000003 858.6089999999999 L 3960.6000000000004 858.6089999999999 C 3973.6500000000005 858.6089999999999 3984.55 868.7189999999999 3985.53 881.7299999999999 L 3960.6000000000004 883.6089999999999" stroke-linecap="round" />
</g>
		<g transform="matrix(0.13 0 0 -0.13 18.65 -102.29)" id="p5eG5wxJ-HWcWwskC3wxo"  >
<path style="stroke: none; stroke-width: 1; stroke-dasharray: none; stroke-linecap: butt; stroke-dashoffset: 0; stroke-linejoin: miter; stroke-miterlimit: 4; fill: rgb(233,133,35); fill-rule: nonzero; opacity: 1;" vector-effect="non-scaling-stroke"  transform=" translate(-3502.88, -2462.26)" d="M 3561.59 1896.39 L 3672.75 2971.4700000000003 C 3674.84 2991.69 3660.16 3009.7700000000004 3639.94 3011.86 L 3484.37 3027.94 C 3464.16 3030.03 3446.06 3015.34 3443.97 2995.13 L 3332.81 1920.0500000000002 L 3561.59 1896.39" stroke-linecap="round" />
</g>
		<g transform="matrix(0.13 0 0 -0.13 18.65 -102.29)" id="kH74xEAeAn8o3b5kaUfat"  >
<path style="stroke: none; stroke-width: 1; stroke-dasharray: none; stroke-linecap: butt; stroke-dashoffset: 0; stroke-linejoin: miter; stroke-miterlimit: 4; fill: rgb(9,16,25); fill-rule: nonzero; opacity: 1;" vector-effect="non-scaling-stroke"  transform=" translate(-3502.88, -2462.27)" d="M 3561.59 1896.39 L 3586.46 1893.8200000000002 L 3697.62 2968.9 C 3697.8399999999997 2971.05 3697.95 2973.1800000000003 3697.95 2975.3 C 3697.95 2990.96 3692.0099999999998 3005.54 3682.16 3016.52 C 3672.3399999999997 3027.5099999999998 3658.3199999999997 3035.1 3642.5099999999998 3036.73 L 3486.95 3052.81 C 3484.81 3053.0299999999997 3482.6699999999996 3053.14 3480.5499999999997 3053.14 C 3464.8799999999997 3053.14 3450.2999999999997 3047.2 3439.33 3037.35 C 3428.33 3027.5299999999997 3420.73 3013.5099999999998 3419.11 2997.7 L 3307.95 1922.62 C 3306.52 1908.8899999999999 3316.5099999999998 1896.61 3330.24 1895.1799999999998 L 3559.02 1871.5199999999998 C 3565.57 1870.8499999999997 3572.25 1872.8399999999997 3577.36 1876.9899999999998 C 3582.4700000000003 1881.1399999999999 3585.78 1887.2699999999998 3586.46 1893.8199999999997 L 3561.59 1896.3899999999996 L 3564.1600000000003 1921.2599999999995 L 3360.2500000000005 1942.3499999999995 L 3468.8400000000006 2992.5499999999993 C 3469.1800000000007 2995.669999999999 3470.5500000000006 2998.1599999999994 3472.6900000000005 3000.109999999999 C 3474.8600000000006 3002.039999999999 3477.5800000000004 3003.1399999999994 3480.5500000000006 3003.1399999999994 L 3481.8000000000006 3003.0699999999993 L 3637.370000000001 2986.9899999999993 C 3640.4900000000007 2986.6599999999994 3642.980000000001 2985.2799999999993 3644.9300000000007 2983.1399999999994 C 3646.850000000001 2980.9799999999996 3647.9500000000007 2978.2699999999995 3647.9500000000007 2975.2999999999993 L 3647.890000000001 2974.039999999999 L 3536.7200000000007 1898.9599999999991 L 3561.5900000000006 1896.3899999999992 L 3564.1600000000008 1921.259999999999 L 3561.5900000000006 1896.3899999999992" stroke-linecap="round" />
</g>
		<g transform="matrix(0.13 0 0 -0.13 -102.43 -80.76)" id="Tudxr3VpLUJ3f4S_r8ycN"  >
<path style="stroke: none; stroke-width: 1; stroke-dasharray: none; stroke-linecap: butt; stroke-dashoffset: 0; stroke-linejoin: miter; stroke-miterlimit: 4; fill: rgb(233,133,35); fill-rule: nonzero; opacity: 1;" vector-effect="non-scaling-stroke"  transform=" translate(-2594.8, -2300.77)" d="M 2709.8 1741.97 L 2709.8 2822.77 C 2709.8 2843.09 2693.32 2859.57 2673 2859.57 L 2516.59 2859.57 C 2496.27 2859.57 2479.79 2843.09 2479.79 2822.77 L 2479.79 1741.97 L 2709.8 1741.97" stroke-linecap="round" />
</g>
		<g transform="matrix(0.13 0 0 -0.13 -102.43 -80.76)" id="nh0zT8gpAx7lcLHpIyDUs"  >
<path style="stroke: none; stroke-width: 1; stroke-dasharray: none; stroke-linecap: butt; stroke-dashoffset: 0; stroke-linejoin: miter; stroke-miterlimit: 4; fill: rgb(9,16,25); fill-rule: nonzero; opacity: 1;" vector-effect="non-scaling-stroke"  transform=" translate(-2594.8, -2300.77)" d="M 2709.8 1741.97 L 2734.8 1741.97 L 2734.8 2822.77 C 2734.8100000000004 2839.7599999999998 2727.84 2855.36 2716.69 2866.47 C 2705.59 2877.6099999999997 2689.98 2884.58 2673 2884.5699999999997 L 2516.59 2884.5699999999997 C 2499.61 2884.58 2484 2877.6099999999997 2472.9 2866.47 C 2461.75 2855.3599999999997 2454.78 2839.7599999999998 2454.79 2822.77 L 2454.79 1741.97 C 2454.79 1735.38 2457.46 1728.94 2462.12 1724.29 C 2466.77 1719.6299999999999 2473.21 1716.97 2479.79 1716.97 L 2709.8 1716.97 C 2716.38 1716.97 2722.82 1719.63 2727.4700000000003 1724.29 C 2732.13 1728.94 2734.8 1735.3799999999999 2734.8 1741.97 L 2709.8 1741.97 L 2709.8 1766.97 L 2504.79 1766.97 L 2504.79 2822.77 C 2504.81 2826.11 2506.08 2828.9 2508.25 2831.11 C 2510.46 2833.29 2513.26 2834.56 2516.59 2834.57 L 2673 2834.57 C 2676.33 2834.56 2679.13 2833.29 2681.34 2831.11 C 2683.51 2828.9 2684.78 2826.11 2684.79 2822.77 L 2684.79 1741.97 L 2709.8 1741.97 L 2709.8 1766.97 L 2709.8 1741.97" stroke-linecap="round" />
</g>
		<g transform="matrix(0.13 0 0 -0.13 -22.28 -101.79)" id="xXW6bJb1tju4wOfRBlW3K"  >
<path style="stroke: none; stroke-width: 1; stroke-dasharray: none; stroke-linecap: butt; stroke-dashoffset: 0; stroke-linejoin: miter; stroke-miterlimit: 4; fill: rgb(233,133,35); fill-rule: nonzero; opacity: 1;" vector-effect="non-scaling-stroke"  transform=" translate(-3195.9, -2458.49)" d="M 3310.9 1950.29 L 3310.9 2929.9 C 3310.9 2950.2200000000003 3294.42 2966.7000000000003 3274.1 2966.7000000000003 L 3117.7 2966.7000000000003 C 3097.3799999999997 2966.7000000000003 3080.8999999999996 2950.2200000000003 3080.8999999999996 2929.9 L 3080.8999999999996 1950.29 L 3310.8999999999996 1950.29" stroke-linecap="round" />
</g>
		<g transform="matrix(0.13 0 0 -0.13 -22.28 -101.79)" id="KQBuNbFDuzDU626drChNm"  >
<path style="stroke: none; stroke-width: 1; stroke-dasharray: none; stroke-linecap: butt; stroke-dashoffset: 0; stroke-linejoin: miter; stroke-miterlimit: 4; fill: rgb(9,16,25); fill-rule: nonzero; opacity: 1;" vector-effect="non-scaling-stroke"  transform=" translate(-3195.9, -2458.5)" d="M 3310.9 1950.29 L 3335.9 1950.29 L 3335.9 2929.9 C 3335.9100000000003 2946.88 3328.94 2962.4900000000002 3317.8 2973.59 C 3306.7000000000003 2984.7400000000002 3291.09 2991.71 3274.1000000000004 2991.7000000000003 L 3117.7000000000003 2991.7000000000003 C 3100.7200000000003 2991.7100000000005 3085.11 2984.7400000000002 3074.0000000000005 2973.6000000000004 C 3062.8600000000006 2962.4900000000002 3055.8900000000003 2946.8900000000003 3055.9000000000005 2929.9000000000005 L 3055.9000000000005 1950.2900000000004 C 3055.9000000000005 1943.7000000000005 3058.5700000000006 1937.2600000000004 3063.2200000000007 1932.6100000000004 C 3067.8800000000006 1927.9500000000003 3074.310000000001 1925.2900000000004 3080.9000000000005 1925.2900000000004 L 3310.9000000000005 1925.2900000000004 C 3317.4800000000005 1925.2900000000004 3323.9200000000005 1927.9500000000005 3328.5800000000004 1932.6100000000004 C 3333.2300000000005 1937.2600000000004 3335.9000000000005 1943.7000000000003 3335.9000000000005 1950.2900000000004 L 3310.9000000000005 1950.2900000000004 L 3310.9000000000005 1975.2900000000004 L 3105.9000000000005 1975.2900000000004 L 3105.9000000000005 2929.9000000000005 C 3105.9100000000008 2933.2300000000005 3107.1800000000007 2936.0200000000004 3109.3600000000006 2938.2400000000007 C 3111.5700000000006 2940.4200000000005 3114.370000000001 2941.6900000000005 3117.7000000000007 2941.7000000000007 L 3274.100000000001 2941.7000000000007 C 3277.440000000001 2941.6800000000007 3280.230000000001 2940.4200000000005 3282.440000000001 2938.2400000000007 C 3284.620000000001 2936.0300000000007 3285.890000000001 2933.2300000000005 3285.900000000001 2929.9000000000005 L 3285.900000000001 1950.2900000000004 L 3310.900000000001 1950.2900000000004 L 3310.900000000001 1975.2900000000004 L 3310.900000000001 1950.2900000000004" stroke-linecap="round" />
</g>
		<g transform="matrix(0.13 0 0 -0.13 -58.04 -105.14)" id="2"  >
<path style="stroke: none; stroke-width: 1; stroke-dasharray: none; stroke-linecap: butt; stroke-dashoffset: 0; stroke-linejoin: miter; stroke-miterlimit: 4; fill: rgb(233,133,35); fill-rule: nonzero; opacity: 1;" vector-effect="non-scaling-stroke"  transform=" translate(-2927.7, -2483.62)" d="M 3090.79 1991.06 L 2993.67 2965.83 C 2991.66 2986.0499999999997 2973.62 3000.81 2953.4 2998.7999999999997 L 2797.77 2983.2899999999995 C 2777.55 2981.2799999999993 2762.79 2963.2499999999995 2764.8 2943.0199999999995 L 2861.9300000000003 1968.2599999999995 L 3090.7900000000004 1991.0599999999995" stroke-linecap="round" />
</g>
		<g transform="matrix(0.13 0 0 -0.13 -58.04 -105.14)" id="sbALdbm0CkCGfwedqnunL"  >
<path style="stroke: none; stroke-width: 1; stroke-dasharray: none; stroke-linecap: butt; stroke-dashoffset: 0; stroke-linejoin: miter; stroke-miterlimit: 4; fill: rgb(9,16,25); fill-rule: nonzero; opacity: 1;" vector-effect="non-scaling-stroke"  transform=" translate(-2927.71, -2483.62)" d="M 3090.79 1991.06 L 3115.67 1993.54 L 3018.55 2968.31 C 3016.98 2984.17 3009.4100000000003 2998.24 2998.4 3008.11 C 2987.42 3018 2972.8 3023.98 2957.09 3023.98 C 2955.05 3023.98 2952.98 3023.88 2950.9100000000003 3023.67 L 2950.9200000000005 3023.67 L 2795.2900000000004 3008.17 C 2779.4400000000005 3006.6 2765.3600000000006 2999.03 2755.4900000000002 2988.02 C 2745.6000000000004 2977.04 2739.6200000000003 2962.42 2739.6200000000003 2946.71 C 2739.6200000000003 2944.68 2739.7200000000003 2942.61 2739.9300000000003 2940.53 L 2739.9300000000003 2940.55 L 2837.0600000000004 1965.7800000000002 C 2838.4200000000005 1952.0400000000002 2850.6700000000005 1942.0100000000002 2864.4100000000003 1943.38 L 3093.2700000000004 1966.18 C 3099.8200000000006 1966.8300000000002 3105.9600000000005 1970.13 3110.1300000000006 1975.22 C 3114.3100000000004 1980.31 3116.3200000000006 1986.99 3115.6700000000005 1993.54 L 3090.7900000000004 1991.06 L 3088.3100000000004 2015.9299999999998 L 2884.3300000000004 1995.61 L 2789.6800000000003 2945.5 L 2789.6800000000003 2945.52 L 2789.6200000000003 2946.71 C 2789.6200000000003 2949.69 2790.7300000000005 2952.41 2792.6600000000003 2954.58 C 2794.6200000000003 2956.72 2797.1200000000003 2958.09 2800.2500000000005 2958.41 L 2955.8800000000006 2973.92 L 2955.890000000001 2973.92 L 2957.0900000000006 2973.98 C 2960.0700000000006 2973.98 2962.7900000000004 2972.87 2964.9600000000005 2970.94 C 2967.1000000000004 2968.98 2968.4700000000007 2966.4700000000003 2968.7900000000004 2963.35 L 3065.9100000000003 1988.58 L 3090.7900000000004 1991.06 L 3088.3100000000004 2015.9299999999998 L 3090.7900000000004 1991.06" stroke-linecap="round" />
</g>
		<g transform="matrix(0.13 0 0 -0.13 73.88 -77.48)" id="JFjbuUO1GFBOj9jd38X07"  >
<path style="stroke: none; stroke-width: 1; stroke-dasharray: none; stroke-linecap: butt; stroke-dashoffset: 0; stroke-linejoin: miter; stroke-miterlimit: 4; fill: rgb(244,173,25); fill-rule: nonzero; opacity: 1;" vector-effect="non-scaling-stroke"  transform=" translate(-3917.09, -2276.17)" d="M 3983.43 1760.86 L 4079.48 2735.74 C 4081.47 2755.97 4066.7 2773.9799999999996 4046.47 2775.97 L 3890.83 2791.31 C 3870.61 2793.2999999999997 3852.58 2778.5299999999997 3850.6 2758.29 L 3754.5299999999997 1783.4099999999999 L 3983.43 1760.86" stroke-linecap="round" />
</g>
		<g transform="matrix(0.13 0 0 -0.13 73.88 -77.48)" id="cnm5JW1YeMequvqNPDQPV"  >
<path style="stroke: none; stroke-width: 1; stroke-dasharray: none; stroke-linecap: butt; stroke-dashoffset: 0; stroke-linejoin: miter; stroke-miterlimit: 4; fill: rgb(9,16,25); fill-rule: nonzero; opacity: 1;" vector-effect="non-scaling-stroke"  transform=" translate(-3917.1, -2276.18)" d="M 3983.43 1760.86 L 4008.31 1758.4099999999999 L 4104.36 2733.29 L 4104.36 2733.3 C 4104.5599999999995 2735.34 4104.66 2737.38 4104.66 2739.4 C 4104.66 2755.12 4098.68 2769.75 4088.77 2780.73 C 4078.89 2791.73 4064.8 2799.3 4048.92 2800.85 L 3893.28 2816.19 C 3891.2400000000002 2816.39 3889.21 2816.4900000000002 3887.1800000000003 2816.4900000000002 C 3871.4700000000003 2816.4900000000002 3856.8300000000004 2810.51 3845.84 2800.6000000000004 C 3834.83 2790.7200000000003 3827.26 2776.6200000000003 3825.7200000000003 2760.7300000000005 L 3825.7200000000003 2760.7500000000005 L 3729.65 1785.8600000000006 C 3729.01 1779.3100000000006 3731.03 1772.6400000000006 3735.2000000000003 1767.5500000000006 C 3739.38 1762.4600000000007 3745.53 1759.1800000000007 3752.0800000000004 1758.5300000000007 L 3980.9800000000005 1735.9800000000007 C 3987.5300000000007 1735.3400000000006 3994.2000000000003 1737.3600000000008 3999.2900000000004 1741.5400000000006 C 4004.3800000000006 1745.7100000000007 4007.6600000000003 1751.8600000000006 4008.3100000000004 1758.4100000000005 L 3983.4300000000003 1760.8600000000006 L 3985.88 1785.7400000000007 L 3781.86 1805.8400000000006 L 3875.4700000000003 2755.8400000000006 L 3875.4800000000005 2755.8600000000006 C 3875.8000000000006 2758.9800000000005 3877.1600000000003 2761.4800000000005 3879.3100000000004 2763.4500000000007 C 3881.4700000000003 2765.3800000000006 3884.2000000000003 2766.4900000000007 3887.1800000000003 2766.4900000000007 L 3888.38 2766.4300000000007 L 4044.02 2751.0900000000006 C 4047.15 2750.7700000000004 4049.65 2749.4100000000008 4051.62 2747.2600000000007 C 4053.5499999999997 2745.100000000001 4054.66 2742.3800000000006 4054.66 2739.4000000000005 L 4054.6 2738.1900000000005 L 4054.6 2738.2000000000007 L 3958.5499999999997 1763.3100000000009 L 3983.43 1760.8600000000008 L 3985.8799999999997 1785.740000000001 L 3983.43 1760.8600000000008" stroke-linecap="round" />
</g>
		<g transform="matrix(0.13 0 0 -0.13 -81.77 -70.25)" id="9"  >
<path style="stroke: none; stroke-width: 1; stroke-dasharray: none; stroke-linecap: butt; stroke-dashoffset: 0; stroke-linejoin: miter; stroke-miterlimit: 4; fill: rgb(244,173,25); fill-rule: nonzero; opacity: 1;" vector-effect="non-scaling-stroke"  transform=" translate(-2749.73, -2221.95)" d="M 2864.73 1814.95 L 2864.73 2592.17 C 2864.73 2612.4900000000002 2848.25 2628.96 2827.93 2628.96 L 2671.5299999999997 2628.96 C 2651.2099999999996 2628.96 2634.7299999999996 2612.4900000000002 2634.7299999999996 2592.17 L 2634.7299999999996 1814.95 L 2864.7299999999996 1814.95" stroke-linecap="round" />
</g>
		<g transform="matrix(0.13 0 0 -0.13 -81.77 -70.25)" id="_eOYiWlDCKkSvf0yPsgEc"  >
<path style="stroke: none; stroke-width: 1; stroke-dasharray: none; stroke-linecap: butt; stroke-dashoffset: 0; stroke-linejoin: miter; stroke-miterlimit: 4; fill: rgb(9,16,25); fill-rule: nonzero; opacity: 1;" vector-effect="non-scaling-stroke"  transform=" translate(-2749.73, -2221.96)" d="M 2864.73 1814.95 L 2889.73 1814.95 L 2889.73 2592.17 C 2889.7400000000002 2609.15 2882.77 2624.76 2871.63 2635.86 C 2860.52 2647.01 2844.9100000000003 2653.98 2827.9300000000003 2653.96 L 2671.53 2653.96 C 2654.55 2653.98 2638.94 2647.01 2627.8300000000004 2635.87 C 2616.6900000000005 2624.7599999999998 2609.7100000000005 2609.16 2609.7300000000005 2592.17 L 2609.7300000000005 1814.95 C 2609.7300000000005 1808.3700000000001 2612.3900000000003 1801.93 2617.0500000000006 1797.28 C 2621.7000000000007 1792.62 2628.140000000001 1789.95 2634.7300000000005 1789.95 L 2864.7300000000005 1789.95 C 2871.3100000000004 1789.95 2877.7500000000005 1792.6200000000001 2882.4000000000005 1797.28 C 2887.0600000000004 1801.93 2889.7300000000005 1808.37 2889.7300000000005 1814.95 L 2864.7300000000005 1814.95 L 2864.7300000000005 1839.95 L 2659.7300000000005 1839.95 L 2659.7300000000005 2592.17 C 2659.7400000000007 2595.5 2661.0100000000007 2598.29 2663.1800000000003 2600.5 C 2665.4 2602.68 2668.2000000000003 2603.95 2671.53 2603.96 L 2827.9300000000003 2603.96 C 2831.2700000000004 2603.95 2834.0600000000004 2602.68 2836.2700000000004 2600.51 C 2838.4400000000005 2598.2900000000004 2839.7100000000005 2595.5 2839.7300000000005 2592.17 L 2839.7300000000005 1814.95 L 2864.7300000000005 1814.95 L 2864.7300000000005 1839.95 L 2864.7300000000005 1814.95" stroke-linecap="round" />
</g>
		<g transform="matrix(0.13 0 0 -0.13 -48.37 -73.41)" id="ZsNzbg7wJY_A_rT1ysOj4"  >
<path style="stroke: none; stroke-width: 1; stroke-dasharray: none; stroke-linecap: butt; stroke-dashoffset: 0; stroke-linejoin: miter; stroke-miterlimit: 4; fill: rgb(244,173,25); fill-rule: nonzero; opacity: 1;" vector-effect="non-scaling-stroke"  transform=" translate(-3000.22, -2245.63)" d="M 3115.22 1838.62 L 3115.22 2615.83 C 3115.22 2636.15 3098.75 2652.63 3078.43 2652.63 L 2922.02 2652.63 C 2901.7 2652.63 2885.22 2636.15 2885.22 2615.83 L 2885.22 1838.62 L 3115.22 1838.62" stroke-linecap="round" />
</g>
		<g transform="matrix(0.13 0 0 -0.13 -48.37 -73.41)" id="vkQdDhr8v_HH3oHHGqMRb"  >
<path style="stroke: none; stroke-width: 1; stroke-dasharray: none; stroke-linecap: butt; stroke-dashoffset: 0; stroke-linejoin: miter; stroke-miterlimit: 4; fill: rgb(9,16,25); fill-rule: nonzero; opacity: 1;" vector-effect="non-scaling-stroke"  transform=" translate(-3000.22, -2245.63)" d="M 3115.22 1838.62 L 3140.22 1838.62 L 3140.22 2615.83 C 3140.24 2632.8199999999997 3133.27 2648.43 3122.1299999999997 2659.5299999999997 C 3111.0199999999995 2670.68 3095.4199999999996 2677.6499999999996 3078.43 2677.6299999999997 L 2922.02 2677.6299999999997 C 2905.03 2677.6499999999996 2889.43 2670.68 2878.32 2659.5299999999997 C 2867.1800000000003 2648.43 2860.21 2632.8199999999997 2860.2200000000003 2615.83 L 2860.2200000000003 1838.62 C 2860.2200000000003 1832.03 2862.8900000000003 1825.59 2867.55 1820.9399999999998 C 2872.2000000000003 1816.2799999999997 2878.6400000000003 1813.62 2885.2200000000003 1813.62 L 3115.2200000000003 1813.62 C 3121.8100000000004 1813.62 3128.2500000000005 1816.28 3132.9 1820.9399999999998 C 3137.56 1825.59 3140.2200000000003 1832.0299999999997 3140.2200000000003 1838.62 L 3115.2200000000003 1838.62 L 3115.2200000000003 1863.62 L 2910.2200000000003 1863.62 L 2910.2200000000003 2615.83 C 2910.2400000000002 2619.17 2911.51 2621.96 2913.6800000000003 2624.18 C 2915.9 2626.35 2918.6900000000005 2627.62 2922.0200000000004 2627.6299999999997 L 3078.4300000000003 2627.6299999999997 C 3081.76 2627.6199999999994 3084.55 2626.3499999999995 3086.7700000000004 2624.18 C 3088.9400000000005 2621.96 3090.2100000000005 2619.1699999999996 3090.2200000000003 2615.83 L 3090.2200000000003 1838.62 L 3115.2200000000003 1838.62 L 3115.2200000000003 1863.62 L 3115.2200000000003 1838.62" stroke-linecap="round" />
</g>
		<g transform="matrix(0.13 0 0 -0.13 -7.41 -79.38)" id="57"  >
<path style="stroke: none; stroke-width: 1; stroke-dasharray: none; stroke-linecap: butt; stroke-dashoffset: 0; stroke-linejoin: miter; stroke-miterlimit: 4; fill: rgb(244,173,25); fill-rule: nonzero; opacity: 1;" vector-effect="non-scaling-stroke"  transform=" translate(-3307.47, -2290.42)" d="M 3422.47 1920.22 L 3422.47 2623.83 C 3422.47 2644.15 3406 2660.62 3385.6699999999996 2660.62 L 3229.2699999999995 2660.62 C 3208.9399999999996 2660.62 3192.4699999999993 2644.15 3192.4699999999993 2623.83 L 3192.4699999999993 1920.2199999999998 L 3422.4699999999993 1920.2199999999998" stroke-linecap="round" />
</g>
		<g transform="matrix(0.13 0 0 -0.13 -7.41 -79.38)" id="hCc1L73JcOOcm_CWxLE0D"  >
<path style="stroke: none; stroke-width: 1; stroke-dasharray: none; stroke-linecap: butt; stroke-dashoffset: 0; stroke-linejoin: miter; stroke-miterlimit: 4; fill: rgb(9,16,25); fill-rule: nonzero; opacity: 1;" vector-effect="non-scaling-stroke"  transform=" translate(-3307.47, -2290.42)" d="M 3422.47 1920.22 L 3447.47 1920.22 L 3447.47 2623.83 C 3447.48 2640.81 3440.5099999999998 2656.42 3429.37 2667.52 C 3418.27 2678.67 3402.66 2685.64 3385.67 2685.62 L 3229.27 2685.62 C 3212.28 2685.64 3196.67 2678.67 3185.57 2667.52 C 3174.4300000000003 2656.42 3167.46 2640.81 3167.4700000000003 2623.83 L 3167.4700000000003 1920.2199999999998 C 3167.4700000000003 1913.6299999999999 3170.1400000000003 1907.1899999999998 3174.7900000000004 1902.5399999999997 C 3179.4500000000003 1897.8799999999997 3185.8900000000003 1895.2199999999998 3192.4700000000003 1895.2199999999998 L 3422.4700000000003 1895.2199999999998 C 3429.05 1895.2199999999998 3435.4900000000002 1897.8799999999999 3440.15 1902.5399999999997 C 3444.8 1907.1899999999998 3447.4700000000003 1913.6299999999997 3447.4700000000003 1920.2199999999998 L 3422.4700000000003 1920.2199999999998 L 3422.4700000000003 1945.2199999999998 L 3217.4700000000003 1945.2199999999998 L 3217.4700000000003 2623.83 C 3217.4800000000005 2627.16 3218.7500000000005 2629.95 3220.9300000000003 2632.17 C 3223.1400000000003 2634.34 3225.9300000000003 2635.61 3229.2700000000004 2635.62 L 3385.6700000000005 2635.62 C 3389.0100000000007 2635.6099999999997 3391.8000000000006 2634.3399999999997 3394.0100000000007 2632.17 C 3396.1900000000005 2629.9500000000003 3397.4600000000005 2627.16 3397.4700000000007 2623.83 L 3397.4700000000007 1920.2199999999998 L 3422.4700000000007 1920.2199999999998 L 3422.4700000000007 1945.2199999999998 L 3422.4700000000007 1920.2199999999998" stroke-linecap="round" />
</g>
		<g transform="matrix(0.13 0 0 -0.13 -114.3 -83.01)" id="V3hYp_kKJp6HXPmzG-P10"  >
<path style="stroke: none; stroke-width: 1; stroke-dasharray: none; stroke-linecap: butt; stroke-dashoffset: 0; stroke-linejoin: miter; stroke-miterlimit: 4; fill: rgb(244,173,25); fill-rule: nonzero; opacity: 1;" vector-effect="non-scaling-stroke"  transform=" translate(-2505.8, -2317.66)" d="M 2678.58 1974.9 L 2560.27 2668.48 C 2556.85 2688.52 2537.83 2701.9900000000002 2517.8 2698.58 L 2363.6200000000003 2672.2799999999997 C 2343.59 2668.8599999999997 2330.1300000000006 2649.8399999999997 2333.5400000000004 2629.81 L 2451.8600000000006 1936.21 L 2678.5800000000004 1974.9" stroke-linecap="round" />
</g>
		<g transform="matrix(0.13 0 0 -0.13 -114.3 -83.01)" id="9"  >
<path style="stroke: none; stroke-width: 1; stroke-dasharray: none; stroke-linecap: butt; stroke-dashoffset: 0; stroke-linejoin: miter; stroke-miterlimit: 4; fill: rgb(9,16,25); fill-rule: nonzero; opacity: 1;" vector-effect="non-scaling-stroke"  transform=" translate(-2505.8, -2317.66)" d="M 2678.58 1974.9 L 2703.23 1979.1000000000001 L 2584.92 2672.69 L 2584.92 2672.7000000000003 C 2582.36 2687.6800000000003 2574.4700000000003 2700.6800000000003 2563.63 2709.7100000000005 C 2552.8 2718.7700000000004 2538.86 2724.1000000000004 2524.03 2724.1100000000006 C 2520.5800000000004 2724.1100000000006 2517.09 2723.8200000000006 2513.6000000000004 2723.2200000000007 L 2359.4200000000005 2696.9200000000005 C 2344.4300000000007 2694.3700000000003 2331.4300000000007 2686.4800000000005 2322.4000000000005 2675.6300000000006 C 2313.3500000000004 2664.8000000000006 2308.0100000000007 2650.8600000000006 2308.0100000000007 2636.0300000000007 C 2308.0100000000007 2632.580000000001 2308.3000000000006 2629.0900000000006 2308.890000000001 2625.6100000000006 L 2427.210000000001 1932.0100000000007 C 2428.320000000001 1925.5200000000007 2432.030000000001 1919.6200000000006 2437.400000000001 1915.8200000000006 C 2442.770000000001 1912.0100000000007 2449.570000000001 1910.4600000000007 2456.060000000001 1911.5700000000006 L 2682.790000000001 1950.2500000000007 C 2696.400000000001 1952.5700000000006 2705.550000000001 1965.4900000000007 2703.230000000001 1979.1000000000006 L 2678.580000000001 1974.9000000000005 L 2674.380000000001 1999.5400000000006 L 2472.300000000001 1965.0600000000006 L 2358.180000000001 2634.0100000000007 L 2358.010000000001 2636.0300000000007 C 2358.000000000001 2638.8000000000006 2359.010000000001 2641.4600000000005 2360.7700000000013 2643.580000000001 C 2362.5700000000015 2645.690000000001 2364.8800000000015 2647.120000000001 2367.8300000000013 2647.640000000001 L 2522.010000000001 2673.9300000000007 L 2524.030000000001 2674.1100000000006 C 2526.800000000001 2674.1100000000006 2529.450000000001 2673.1100000000006 2531.570000000001 2671.3400000000006 C 2533.680000000001 2669.5500000000006 2535.110000000001 2667.2300000000005 2535.630000000001 2664.2700000000004 L 2535.630000000001 2664.2800000000007 L 2653.940000000001 1970.6900000000005 L 2678.580000000001 1974.9000000000005 L 2674.380000000001 1999.5400000000006 L 2678.580000000001 1974.9000000000005" stroke-linecap="round" />
</g>
		<g transform="matrix(0.13 0 0 -0.13 56.64 -93.27)" id="qekAIhgupJ6AguBCGaXYF"  >
<path style="stroke: none; stroke-width: 1; stroke-dasharray: none; stroke-linecap: butt; stroke-dashoffset: 0; stroke-linejoin: miter; stroke-miterlimit: 4; fill: rgb(233,133,35); fill-rule: nonzero; opacity: 1;" vector-effect="non-scaling-stroke"  transform=" translate(-3787.83, -2394.59)" d="M 3902.83 2088.78 L 3902.83 2663.59 C 3902.83 2683.9100000000003 3886.36 2700.3900000000003 3866.04 2700.3900000000003 L 3709.63 2700.3900000000003 C 3689.31 2700.3900000000003 3672.83 2683.9100000000003 3672.83 2663.59 L 3672.83 2088.78 L 3902.83 2088.78" stroke-linecap="round" />
</g>
		<g transform="matrix(0.13 0 0 -0.13 56.64 -93.27)" id="hI9TuywnRVksZkE2YxrW4"  >
<path style="stroke: none; stroke-width: 1; stroke-dasharray: none; stroke-linecap: butt; stroke-dashoffset: 0; stroke-linejoin: miter; stroke-miterlimit: 4; fill: rgb(9,16,25); fill-rule: nonzero; opacity: 1;" vector-effect="non-scaling-stroke"  transform=" translate(-3787.83, -2394.59)" d="M 3902.83 2088.78 L 3927.83 2088.78 L 3927.83 2663.59 C 3927.84 2680.58 3920.88 2696.1800000000003 3909.73 2707.29 C 3898.63 2718.43 3883.02 2725.4 3866.04 2725.39 L 3709.63 2725.39 C 3692.6400000000003 2725.4 3677.04 2718.43 3665.9300000000003 2707.29 C 3654.7900000000004 2696.18 3647.82 2680.58 3647.8300000000004 2663.59 L 3647.8300000000004 2088.78 C 3647.8300000000004 2082.2000000000003 3650.5000000000005 2075.76 3655.1500000000005 2071.1000000000004 C 3659.8100000000004 2066.4500000000003 3666.2500000000005 2063.78 3672.8300000000004 2063.78 L 3902.8300000000004 2063.78 C 3909.4200000000005 2063.78 3915.8500000000004 2066.4500000000003 3920.51 2071.1000000000004 C 3925.1600000000003 2075.76 3927.8300000000004 2082.2000000000003 3927.8300000000004 2088.78 L 3902.8300000000004 2088.78 L 3902.8300000000004 2113.78 L 3697.8300000000004 2113.78 L 3697.8300000000004 2663.59 C 3697.8400000000006 2666.9300000000003 3699.1100000000006 2669.7200000000003 3701.2900000000004 2671.9300000000003 C 3703.5000000000005 2674.11 3706.2900000000004 2675.38 3709.6300000000006 2675.3900000000003 L 3866.0400000000004 2675.3900000000003 C 3869.3700000000003 2675.38 3872.1600000000003 2674.11 3874.3800000000006 2671.9300000000003 C 3876.5500000000006 2669.7200000000003 3877.8200000000006 2666.9300000000003 3877.8300000000004 2663.59 L 3877.8300000000004 2088.78 L 3902.8300000000004 2088.78 L 3902.8300000000004 2113.78 L 3902.8300000000004 2088.78" stroke-linecap="round" />
</g>
		<g transform="matrix(0.13 0 0 -0.13 32.1 -94.15)" id="ZMur51pQXw4lKgwdDLONi"  >
<path style="stroke: none; stroke-width: 1; stroke-dasharray: none; stroke-linecap: butt; stroke-dashoffset: 0; stroke-linejoin: miter; stroke-miterlimit: 4; fill: rgb(244,173,25); fill-rule: nonzero; opacity: 1;" vector-effect="non-scaling-stroke"  transform=" translate(-3603.74, -2401.17)" d="M 3718.74 1980.36 L 3718.74 2785.17 C 3718.74 2805.5 3702.27 2821.98 3681.9399999999996 2821.98 L 3525.5399999999995 2821.98 C 3505.2099999999996 2821.98 3488.7399999999993 2805.5 3488.7399999999993 2785.17 L 3488.7399999999993 1980.3600000000001 L 3718.7399999999993 1980.3600000000001" stroke-linecap="round" />
</g>
		<g transform="matrix(0.13 0 0 -0.13 32.1 -94.15)" id="T21iYhr3vT_UQe7jZEtUu"  >
<path style="stroke: none; stroke-width: 1; stroke-dasharray: none; stroke-linecap: butt; stroke-dashoffset: 0; stroke-linejoin: miter; stroke-miterlimit: 4; fill: rgb(9,16,25); fill-rule: nonzero; opacity: 1;" vector-effect="non-scaling-stroke"  transform=" translate(-3603.74, -2401.17)" d="M 3718.74 1980.36 L 3743.74 1980.36 L 3743.74 2785.17 C 3743.75 2802.16 3736.7799999999997 2817.77 3725.64 2828.87 C 3714.54 2840.02 3698.93 2846.99 3681.94 2846.98 L 3525.54 2846.98 C 3508.55 2846.9900000000002 3492.94 2840.02 3481.84 2828.87 C 3470.7000000000003 2817.77 3463.73 2802.16 3463.7400000000002 2785.17 L 3463.7400000000002 1980.3600000000001 C 3463.7400000000002 1973.7800000000002 3466.4100000000003 1967.3400000000001 3471.0600000000004 1962.69 C 3475.7200000000003 1958.03 3482.1600000000003 1955.3600000000001 3488.7400000000002 1955.3600000000001 L 3718.7400000000002 1955.3600000000001 C 3725.32 1955.3600000000001 3731.76 1958.0300000000002 3736.42 1962.69 C 3741.07 1967.3400000000001 3743.7400000000002 1973.78 3743.7400000000002 1980.3600000000001 L 3718.7400000000002 1980.3600000000001 L 3718.7400000000002 2005.3600000000001 L 3513.7400000000002 2005.3600000000001 L 3513.7400000000002 2785.17 C 3513.7500000000005 2788.51 3515.0200000000004 2791.3 3517.2000000000003 2793.52 C 3519.4100000000003 2795.69 3522.2000000000003 2796.96 3525.5400000000004 2796.98 L 3681.9400000000005 2796.98 C 3685.2800000000007 2796.96 3688.0700000000006 2795.69 3690.2800000000007 2793.52 C 3692.4600000000005 2791.3 3693.7300000000005 2788.5099999999998 3693.7400000000007 2785.17 L 3693.7400000000007 1980.3600000000001 L 3718.7400000000007 1980.3600000000001 L 3718.7400000000007 2005.3600000000001 L 3718.7400000000007 1980.3600000000001" stroke-linecap="round" />
</g>
		<g transform="matrix(0.13 0 0 -0.13 -19.68 6.76)" id="gHeIaM4kJdrZ3bzuwfAjN"  >
<path style="stroke: none; stroke-width: 1; stroke-dasharray: none; stroke-linecap: butt; stroke-dashoffset: 0; stroke-linejoin: miter; stroke-miterlimit: 4; fill: rgb(252,252,252); fill-rule: nonzero; opacity: 1;" vector-effect="non-scaling-stroke"  transform=" translate(-3215.4, -1644.37)" d="M 3667.19 2389.57 C 3664.6 2374.56 3661.33 2359.6400000000003 3657.27 2344.9 C 3634.61 2264.11 3593.72 2193.96 3534.63 2134.46 C 3445.59 2045.43 3323.38 1994.78 3197.4 1994.78 C 3111.33 1995.04 3031.08 2016.75 2956.7000000000003 2059.89 C 2898.88 2093.75 2849.05 2139.74 2810.2300000000005 2193.68 C 2771.7500000000005 2242.77 2743.8000000000006 2297.99 2726.5500000000006 2359.47 C 2725.2000000000007 2369.5 2723.8600000000006 2379.54 2722.5100000000007 2389.5699999999997 L 2359.8 2389.5699999999997 L 2461 899.172 L 3969.8 899.172 L 4071 2389.57 L 3667.19 2389.57" stroke-linecap="round" />
</g>
		<g transform="matrix(0.13 0 0 -0.13 -19.68 6.76)" id="Q9AH6COa1wDEFqhniPZyO"  >
<path style="stroke: none; stroke-width: 1; stroke-dasharray: none; stroke-linecap: butt; stroke-dashoffset: 0; stroke-linejoin: miter; stroke-miterlimit: 4; fill: rgb(9,16,25); fill-rule: nonzero; opacity: 1;" vector-effect="non-scaling-stroke"  transform=" translate(-3215.4, -1644.37)" d="M 3667.19 2389.57 L 3642.55 2393.82 C 3640.09 2379.55 3636.9900000000002 2365.4300000000003 3633.1600000000003 2351.54 L 3633.1900000000005 2351.65 C 3611.5900000000006 2274.79 3573.0900000000006 2208.7200000000003 3516.8900000000003 2152.07 L 3516.9500000000003 2152.1400000000003 C 3432.67 2067.8300000000004 3316.67 2019.7500000000005 3197.4 2019.7800000000002 L 3197.48 2019.7800000000002 C 3115.56 2020.0800000000002 3040.05 2040.5100000000002 2969.24 2081.51 L 2969.33 2081.46 C 2914.63 2113.5 2867.36 2157.1 2830.5299999999997 2208.29 L 2829.91 2209.11 C 2793.43 2255.6600000000003 2767.04 2307.76 2750.62 2366.2200000000003 L 2726.5499999999997 2359.4700000000003 L 2751.33 2362.7900000000004 C 2749.98 2372.8300000000004 2748.64 2382.8700000000003 2747.29 2392.9000000000005 C 2745.62 2405.3200000000006 2735.0299999999997 2414.5700000000006 2722.5099999999998 2414.5700000000006 L 2359.8 2414.5700000000006 C 2352.84 2414.5700000000006 2346.29 2411.7300000000005 2341.54 2406.640000000001 C 2336.79 2401.560000000001 2334.39 2394.830000000001 2334.86 2387.8800000000006 L 2436.05 897.4800000000005 C 2436.94 884.3910000000004 2447.8700000000003 874.1720000000005 2461 874.1720000000005 L 3969.8 874.1720000000005 C 3982.9300000000003 874.1720000000005 3993.86 884.3910000000005 3994.75 897.4800000000005 L 4095.94 2387.8800000000006 C 4096.41 2394.8300000000004 4094.02 2401.5600000000004 4089.26 2406.640000000001 C 4084.51 2411.730000000001 4077.96 2414.5700000000006 4071 2414.5700000000006 L 3667.19 2414.5700000000006 C 3655.04 2414.5700000000006 3644.62 2405.7900000000004 3642.55 2393.8200000000006 L 3667.19 2389.5700000000006 L 3667.19 2364.5700000000006 L 4044.2400000000002 2364.5700000000006 L 3946.44 924.172 L 2484.36 924.172 L 2386.56 2364.5699999999997 L 2722.5099999999998 2364.5699999999997 L 2722.5099999999998 2389.5699999999997 L 2697.7299999999996 2386.24 C 2699.0799999999995 2376.22 2700.4299999999994 2366.18 2701.7699999999995 2356.14 C 2701.9099999999994 2355.1099999999997 2702.1999999999994 2353.72 2702.4799999999996 2352.71 C 2720.5599999999995 2288.2200000000003 2750.0699999999997 2229.87 2790.5599999999995 2178.26 L 2810.2299999999996 2193.6800000000003 L 2789.9399999999996 2179.0800000000004 C 2830.7499999999995 2122.3800000000006 2883.1299999999997 2074.01 2944.0599999999995 2038.3100000000004 L 2944.1599999999994 2038.2600000000004 C 3022.1199999999994 1992.9900000000005 3107.0899999999992 1970.0100000000004 3197.3299999999995 1969.7800000000004 L 3197.3999999999996 1969.7800000000004 C 3330.0899999999997 1969.8000000000004 3458.4999999999995 2023.0300000000004 3552.2999999999997 2116.7800000000007 L 3552.37 2116.8400000000006 C 3614.35 2179.1900000000005 3657.63 2253.4400000000005 3681.3399999999997 2338.140000000001 L 3681.37 2338.2600000000007 C 3685.66 2353.850000000001 3689.1099999999997 2369.5700000000006 3691.8199999999997 2385.330000000001 L 3667.1899999999996 2389.5700000000006 L 3667.1899999999996 2364.5700000000006 L 3667.1899999999996 2389.5700000000006" stroke-linecap="round" />
</g>
		<g transform="matrix(0.13 0 0 -0.13 -19.68 -20.42)" id="z04XRdsRXF2f0RMUr35ce"  >
<path style="stroke: none; stroke-width: 1; stroke-dasharray: none; stroke-linecap: butt; stroke-dashoffset: 0; stroke-linejoin: miter; stroke-miterlimit: 4; fill: rgb(236,60,38); fill-rule: nonzero; opacity: 1;" vector-effect="non-scaling-stroke"  transform=" translate(-3215.4, -1848.23)" d="M 2849.8 1400.64 C 3080.1600000000003 1437.47 3311.5200000000004 1454.46 3543.4300000000003 1477.3200000000002 C 3666.2500000000005 1489.43 3754.01 1499.0300000000002 3884.0200000000004 1533.14 C 3916.9000000000005 1541.76 3949.6600000000003 1550.98 3981.8300000000004 1561.98 C 3993.1300000000006 1565.84 4004.4000000000005 1569.77 4015.6100000000006 1573.89 L 4071.0000000000005 2389.57 L 3667.1900000000005 2389.57 C 3664.6000000000004 2374.56 3661.3300000000004 2359.6400000000003 3657.2700000000004 2344.9 C 3634.6100000000006 2264.11 3593.7200000000003 2193.96 3534.6300000000006 2134.46 C 3445.5900000000006 2045.43 3323.3800000000006 1994.78 3197.4000000000005 1994.78 C 3111.3300000000004 1995.04 3031.0800000000004 2016.75 2956.7000000000007 2059.89 C 2898.8800000000006 2093.75 2849.0500000000006 2139.74 2810.230000000001 2193.68 C 2771.750000000001 2242.77 2743.800000000001 2297.99 2726.550000000001 2359.47 L 2722.510000000001 2389.5699999999997 L 2359.8 2389.5699999999997 L 2433.3100000000004 1306.8999999999996 C 2569.8300000000004 1349.4899999999996 2711.1400000000003 1378.4699999999996 2849.8 1400.6399999999996" stroke-linecap="round" />
</g>
		<g transform="matrix(0.13 0 0 -0.13 -19.93 -20.42)" id="fqdjIXxHlFvbpDqaRoP0H"  >
<path style="stroke: none; stroke-width: 1; stroke-dasharray: none; stroke-linecap: butt; stroke-dashoffset: 0; stroke-linejoin: miter; stroke-miterlimit: 4; fill: rgb(9,16,25); fill-rule: nonzero; opacity: 1;" vector-effect="non-scaling-stroke"  transform=" translate(-3215.4, -1848.23)" d="M 2849.8 1400.64 L 2853.7400000000002 1375.95 C 3082.7000000000003 1412.57 3313.5600000000004 1429.55 3545.88 1452.44 C 3668.67 1464.53 3758.76 1474.39 3890.37 1508.96 C 3923.5299999999997 1517.66 3956.88 1527.03 3989.91 1538.32 C 4001.31 1542.22 4012.7599999999998 1546.21 4024.24 1550.4199999999998 C 4033.5099999999998 1553.83 4039.89 1562.34 4040.56 1572.1999999999998 L 4095.94 2387.8799999999997 C 4096.41 2394.8299999999995 4094.02 2401.5599999999995 4089.26 2406.64 C 4084.51 2411.73 4077.96 2414.5699999999997 4071 2414.5699999999997 L 3667.19 2414.5699999999997 C 3655.04 2414.5699999999997 3644.62 2405.7899999999995 3642.55 2393.8199999999997 C 3640.09 2379.5499999999997 3636.9900000000002 2365.43 3633.1600000000003 2351.5399999999995 L 3633.1900000000005 2351.6499999999996 C 3611.5900000000006 2274.7899999999995 3573.0900000000006 2208.72 3516.8900000000003 2152.0699999999997 L 3516.9500000000003 2152.14 C 3432.67 2067.83 3316.67 2019.75 3197.4 2019.7799999999997 L 3197.48 2019.7799999999997 C 3115.56 2020.0799999999997 3040.05 2040.5099999999998 2969.24 2081.5099999999998 L 2969.33 2081.4599999999996 C 2914.63 2113.4999999999995 2867.36 2157.0999999999995 2830.5299999999997 2208.2899999999995 L 2829.91 2209.1099999999997 C 2793.43 2255.66 2767.04 2307.7599999999998 2750.62 2366.22 L 2726.5499999999997 2359.47 L 2751.33 2362.79 L 2747.29 2392.9 C 2745.62 2405.31 2735.0299999999997 2414.57 2722.5099999999998 2414.57 L 2359.8 2414.57 C 2352.84 2414.57 2346.29 2411.73 2341.54 2406.6400000000003 C 2336.79 2401.5600000000004 2334.39 2394.8300000000004 2334.86 2387.88 L 2408.3700000000003 1305.2 C 2408.8900000000003 1297.54 2412.8500000000004 1290.6100000000001 2419.1900000000005 1286.27 C 2425.5200000000004 1281.93 2433.4300000000003 1280.75 2440.7600000000007 1283.03 C 2575.6700000000005 1325.1299999999999 2715.830000000001 1353.9099999999999 2853.7400000000007 1375.95 L 2849.8000000000006 1400.64 L 2845.850000000001 1425.3200000000002 C 2706.460000000001 1403.0300000000002 2563.9900000000007 1373.8600000000001 2425.8600000000006 1330.7600000000002 L 2433.3100000000004 1306.9000000000003 L 2458.2500000000005 1308.5900000000004 L 2386.5600000000004 2364.5700000000006 L 2700.6400000000003 2364.5700000000006 L 2701.7700000000004 2356.140000000001 C 2701.9100000000003 2355.100000000001 2702.2000000000003 2353.7200000000007 2702.4800000000005 2352.710000000001 C 2720.5600000000004 2288.220000000001 2750.0700000000006 2229.870000000001 2790.5600000000004 2178.260000000001 L 2810.2300000000005 2193.680000000001 L 2789.9400000000005 2179.0800000000013 C 2830.7500000000005 2122.3800000000015 2883.1300000000006 2074.010000000001 2944.0600000000004 2038.3100000000013 L 2944.1600000000003 2038.2600000000014 C 3022.1200000000003 1992.9900000000014 3107.09 1970.0100000000014 3197.3300000000004 1969.7800000000013 L 3197.4000000000005 1969.7800000000013 C 3330.0900000000006 1969.8000000000013 3458.5000000000005 2023.0300000000013 3552.3000000000006 2116.7800000000016 L 3552.370000000001 2116.8400000000015 C 3614.350000000001 2179.1900000000014 3657.630000000001 2253.4400000000014 3681.3400000000006 2338.1400000000017 L 3681.370000000001 2338.2600000000016 C 3685.6600000000008 2353.8500000000017 3689.1100000000006 2369.5700000000015 3691.8200000000006 2385.3300000000017 L 3667.1900000000005 2389.5700000000015 L 3667.1900000000005 2364.5700000000015 L 4044.2400000000007 2364.5700000000015 L 3990.6700000000005 1575.5800000000015 L 4015.6100000000006 1573.8900000000015 L 4006.9900000000007 1597.3500000000015 C 3996.040000000001 1593.3300000000015 3984.9500000000007 1589.4700000000014 3973.7400000000007 1585.6300000000015 C 3942.4400000000005 1574.9300000000014 3910.270000000001 1565.8700000000015 3877.6800000000007 1557.3200000000015 C 3749.270000000001 1523.6600000000014 3663.830000000001 1514.3300000000015 3540.980000000001 1502.2000000000016 C 3309.4900000000007 1479.3700000000017 3077.610000000001 1462.3700000000017 2845.850000000001 1425.3200000000015 L 2849.8000000000006 1400.6400000000015" stroke-linecap="round" />
</g>
		<g transform="matrix(0.13 0 0 -0.13 -18.53 81.8)" id="ylAEt5Xr9rG9hVeqvmmL2"  >
<path style="stroke: none; stroke-width: 1; stroke-dasharray: none; stroke-linecap: butt; stroke-dashoffset: 0; stroke-linejoin: miter; stroke-miterlimit: 4; fill: rgb(236,60,38); fill-rule: nonzero; opacity: 1;" vector-effect="non-scaling-stroke"  transform=" translate(-3224.01, -1081.55)" d="M 3602.7 1194.17 C 3479.74 1181.0900000000001 3356.33 1173.27 3233.24 1161.6100000000001 C 3173.9399999999996 1155.9900000000002 3114.8199999999997 1149.15 3055.74 1141.5600000000002 C 3048.5099999999998 1140.63 3041.29 1139.68 3034.0699999999997 1138.7300000000002 C 3028.14 1137.9100000000003 3018.99 1136.6700000000003 3016.0399999999995 1136.2400000000002 C 2993.6099999999997 1133.0700000000002 2971.1899999999996 1129.8200000000002 2948.8299999999995 1126.3400000000001 C 2781.4799999999996 1100.2800000000002 2613.6099999999997 1066.3700000000001 2453.4699999999993 1010.0800000000002 L 2461 899.172 L 3969.8 899.172 L 3994.5600000000004 1263.92 C 3866.9900000000002 1228.54 3735.7400000000002 1208.3400000000001 3602.7000000000003 1194.17" stroke-linecap="round" />
</g>
		<g transform="matrix(0.13 0 0 -0.13 -18.54 81.8)" id="Asvvn_R548iviB9O1ZyDR"  >
<path style="stroke: none; stroke-width: 1; stroke-dasharray: none; stroke-linecap: butt; stroke-dashoffset: 0; stroke-linejoin: miter; stroke-miterlimit: 4; fill: rgb(9,16,25); fill-rule: nonzero; opacity: 1;" vector-effect="non-scaling-stroke"  transform=" translate(-3224.01, -1081.55)" d="M 3602.7 1194.17 L 3600.0499999999997 1219.03 C 3477.7999999999997 1206.02 3354.49 1198.21 3230.8799999999997 1186.5 C 3171.24 1180.84 3111.8499999999995 1173.98 3052.5499999999997 1166.35 C 3045.2799999999997 1165.4199999999998 3038.0399999999995 1164.4699999999998 3030.8199999999997 1163.52 L 3030.6499999999996 1163.5 C 3024.7299999999996 1162.68 3015.7 1161.46 3012.4399999999996 1160.98 L 3012.5299999999997 1161 C 2990.0499999999997 1157.81 2967.5199999999995 1154.55 2944.99 1151.04 C 2776.89 1124.86 2607.5199999999995 1090.72 2445.18 1033.67 C 2434.56 1029.94 2427.7599999999998 1019.6100000000001 2428.52 1008.3900000000001 L 2436.05 897.4800000000001 C 2436.94 884.3910000000001 2447.8700000000003 874.1720000000001 2461 874.1720000000001 L 3969.8 874.1720000000001 C 3982.9300000000003 874.1720000000001 3993.86 884.3910000000002 3994.75 897.4800000000001 L 4019.5 1262.23 C 4020.05 1270.31 4016.64 1278.17 4010.36 1283.3 C 4004.07 1288.4199999999998 3995.69 1290.18 3987.88 1288.01 C 3862.21 1253.15 3732.33 1233.12 3600.05 1219.03 L 3602.7000000000003 1194.17 L 3605.34 1169.3100000000002 C 3739.15 1183.5700000000002 3871.77 1203.92 4001.2400000000002 1239.8300000000002 L 3994.5600000000004 1263.92 L 3969.6200000000003 1265.6100000000001 L 3946.4400000000005 924.1720000000001 L 2484.36 924.1720000000001 L 2478.4100000000003 1011.7700000000001 L 2453.4700000000003 1010.08 L 2461.76 986.488 C 2619.7000000000003 1042.02 2786.07 1075.7 2952.6800000000003 1101.64 C 2974.86 1105.0900000000001 2997.17 1108.3200000000002 3019.5400000000004 1111.49 L 3019.6300000000006 1111.5 C 3022.2900000000004 1111.89 3031.5500000000006 1113.15 3037.5000000000005 1113.97 L 3037.3300000000004 1113.95 C 3044.5400000000004 1114.89 3051.7300000000005 1115.8400000000001 3058.9200000000005 1116.76 C 3117.8000000000006 1124.33 3176.6500000000005 1131.1299999999999 3235.6000000000004 1136.73 C 3358.1700000000005 1148.34 3481.6700000000005 1156.16 3605.34 1169.31 L 3602.7000000000003 1194.1699999999998" stroke-linecap="round" />
</g>
		<g transform="matrix(0.13 0 0 -0.13 39.71 106.73)" id="PEhZVZ3ufZL5Vq6S-1WjR"  >
<path style="stroke: none; stroke-width: 1; stroke-dasharray: none; stroke-linecap: butt; stroke-dashoffset: 0; stroke-linejoin: miter; stroke-miterlimit: 4; fill: rgb(6,9,10); fill-rule: nonzero; opacity: 1;" vector-effect="non-scaling-stroke"  transform=" translate(-3660.89, -894.57)" d="M 3960.6 889.969 L 3360.48 889.969 C 3364.04 892.7700000000001 3367.4 895.7890000000001 3370.54 899 C 3370.59 899.059 3370.64 899.121 3370.7 899.172 L 3961.29 899.172 L 3960.6 889.969" stroke-linecap="round" />
</g>
		<g transform="matrix(0.13 0 0 -0.13 48.93 32.19)" id="nNN99xo3ZWmms_0dS1qIr"  >
<path style="stroke: none; stroke-width: 1; stroke-dasharray: none; stroke-linecap: butt; stroke-dashoffset: 0; stroke-linejoin: miter; stroke-miterlimit: 4; fill: rgb(248,248,247); fill-rule: nonzero; opacity: 1;" vector-effect="non-scaling-stroke"  transform=" translate(-3730.01, -1453.67)" d="M 3726.25 1449.87 C 3726.3 1449.9199999999998 3726.34 1449.9599999999998 3726.39 1450.01 C 3726.3399999999997 1449.96 3726.2999999999997 1449.92 3726.25 1449.87 M 3727 1450.62 C 3727.08 1450.6999999999998 3727.14 1450.77 3727.22 1450.84 C 3727.1499999999996 1450.77 3727.0699999999997 1450.6899999999998 3727 1450.62 M 3727.75 1451.37 C 3727.79 1451.4199999999998 3727.85 1451.4799999999998 3727.9 1451.53 C 3727.85 1451.48 3727.79 1451.42 3727.75 1451.37 M 3728.5 1452.1299999999999 C 3728.53 1452.1599999999999 3728.55 1452.1799999999998 3728.58 1452.2099999999998 C 3728.5499999999997 1452.1799999999998 3728.5299999999997 1452.1599999999999 3728.5 1452.1299999999999 M 3729.24 1452.87 C 3729.2999999999997 1452.9399999999998 3729.37 1453 3729.43 1453.07 C 3729.37 1453 3729.2999999999997 1452.9399999999998 3729.24 1452.87 M 3729.99 1453.6299999999999 C 3730.02 1453.6599999999999 3730.04 1453.6799999999998 3730.0699999999997 1453.7099999999998 C 3730.0499999999997 1453.6899999999998 3730.0099999999998 1453.6599999999999 3729.99 1453.6299999999999 M 3730.7299999999996 1454.3799999999999 C 3730.7899999999995 1454.4399999999998 3730.8299999999995 1454.4799999999998 3730.8799999999997 1454.53 C 3730.8299999999995 1454.48 3730.7799999999997 1454.43 3730.7299999999996 1454.3799999999999 M 3731.4799999999996 1455.1399999999999 C 3731.5099999999998 1455.1699999999998 3731.5599999999995 1455.2199999999998 3731.5899999999997 1455.2499999999998 C 3731.5599999999995 1455.2199999999998 3731.5099999999998 1455.1699999999998 3731.4799999999996 1455.1399999999999 M 3732.2199999999993 1455.8899999999999 C 3732.2599999999993 1455.9299999999998 3732.2999999999993 1455.9699999999998 3732.3399999999992 1456.0099999999998 C 3732.2999999999993 1455.9699999999998 3732.2599999999993 1455.9299999999998 3732.2199999999993 1455.8899999999999 M 3732.9699999999993 1456.6499999999999 C 3732.9999999999995 1456.6799999999998 3733.0299999999993 1456.7099999999998 3733.0599999999995 1456.7399999999998 C 3733.0299999999993 1456.7099999999998 3732.9999999999995 1456.6799999999998 3732.9699999999993 1456.6499999999999 M 3733.7199999999993 1457.3999999999999 C 3733.7399999999993 1457.4299999999998 3733.7499999999995 1457.4399999999998 3733.7799999999993 1457.4699999999998 C 3733.7599999999993 1457.4499999999998 3733.729999999999 1457.4199999999998 3733.7199999999993 1457.3999999999999" stroke-linecap="round" />
</g>
		<g transform="matrix(0.13 0 0 -0.13 82.78 -12.14)" id="LURzxC3im_sEu3nawIpFw"  >
<path style="stroke: none; stroke-width: 1; stroke-dasharray: none; stroke-linecap: butt; stroke-dashoffset: 0; stroke-linejoin: miter; stroke-miterlimit: 4; fill: rgb(215,36,36); fill-rule: nonzero; opacity: 1;" vector-effect="non-scaling-stroke"  transform=" translate(-3983.88, -1786.09)" d="M 3981.42 1781.84 C 3983.06 1784.6699999999998 3984.7000000000003 1787.51 3986.33 1790.35 L 3986.3199999999997 1790.32 C 3984.7 1787.48 3983.0599999999995 1784.6599999999999 3981.4199999999996 1781.84" stroke-linecap="round" />
</g>
		<g transform="matrix(0.13 0 0 -0.13 45.3 43.34)" id="f7y_FI4jYp4s8MuPEioTh"  >
<path style="stroke: none; stroke-width: 1; stroke-dasharray: none; stroke-linecap: butt; stroke-dashoffset: 0; stroke-linejoin: miter; stroke-miterlimit: 4; fill: rgb(248,248,247); fill-rule: nonzero; opacity: 1;" vector-effect="non-scaling-stroke"  transform=" translate(-3702.79, -1370.05)" d="M 3417.48 1202.4 L 3417.54 1203.19 L 3417.54 1204.3300000000002 C 3417.54 1205.2900000000002 3417.52 1206.2500000000002 3417.49 1207.2 C 3528.52 1274.7 3631.8599999999997 1355.48 3724.7599999999998 1448.3700000000001 L 3724.7599999999998 1448.3700000000001 C 3725.2599999999998 1448.8700000000001 3725.7499999999995 1449.3700000000001 3726.2499999999995 1449.8700000000001 C 3726.2999999999997 1449.92 3726.3399999999997 1449.96 3726.3899999999994 1450.0100000000002 C 3726.5899999999992 1450.2100000000003 3726.7999999999993 1450.4200000000003 3726.9999999999995 1450.6200000000001 C 3727.0699999999997 1450.69 3727.1499999999996 1450.7700000000002 3727.2199999999993 1450.8400000000001 C 3727.399999999999 1451.0200000000002 3727.5699999999993 1451.19 3727.7499999999995 1451.3700000000001 C 3727.7899999999995 1451.42 3727.8499999999995 1451.48 3727.8999999999996 1451.5300000000002 C 3728.0999999999995 1451.7300000000002 3728.2999999999997 1451.9200000000003 3728.4999999999995 1452.13 C 3728.5299999999997 1452.16 3728.5499999999997 1452.18 3728.5799999999995 1452.21 C 3728.7999999999993 1452.43 3729.0199999999995 1452.65 3729.2399999999993 1452.8700000000001 C 3729.2999999999993 1452.94 3729.3699999999994 1453.0000000000002 3729.4299999999994 1453.0700000000002 C 3729.6199999999994 1453.2500000000002 3729.7999999999993 1453.44 3729.9899999999993 1453.63 C 3730.0099999999993 1453.66 3730.0499999999993 1453.69 3730.0699999999993 1453.71 C 3730.2999999999993 1453.94 3730.5099999999993 1454.15 3730.729999999999 1454.38 C 3730.7799999999993 1454.43 3730.829999999999 1454.48 3730.879999999999 1454.5300000000002 C 3731.079999999999 1454.7400000000002 3731.2799999999993 1454.9300000000003 3731.479999999999 1455.14 C 3731.5099999999993 1455.17 3731.559999999999 1455.22 3731.5899999999992 1455.25 C 3731.809999999999 1455.47 3732.0099999999993 1455.67 3732.2199999999993 1455.89 C 3732.2599999999993 1455.93 3732.2999999999993 1455.97 3732.3399999999992 1456.01 C 3732.5499999999993 1456.22 3732.7599999999993 1456.43 3732.9699999999993 1456.65 C 3732.9999999999995 1456.68 3733.0299999999993 1456.71 3733.0599999999995 1456.74 C 3733.2799999999993 1456.96 3733.4999999999995 1457.18 3733.7199999999993 1457.4 C 3733.7299999999996 1457.42 3733.7599999999993 1457.45 3733.7799999999993 1457.47 C 3740.7199999999993 1464.52 3747.5899999999992 1471.63 3754.399999999999 1478.8 C 3796.4499999999994 1486.28 3840.4099999999994 1495.84 3890.369999999999 1508.96 C 3922.929999999999 1517.5 3955.659999999999 1526.69 3988.099999999999 1537.7 L 3970.829999999999 1283.38 C 3850.479999999999 1251.3600000000001 3726.359999999999 1232.48 3600.0499999999993 1219.0300000000002 L 3600.0499999999993 1219.0300000000002 C 3539.419999999999 1212.5800000000002 3478.5299999999993 1207.4 3417.479999999999 1202.4" stroke-linecap="round" />
</g>
		<g transform="matrix(0.13 0 0 -0.13 83.9 37.34)" id="1"  >
<path style="stroke: none; stroke-width: 1; stroke-dasharray: none; stroke-linecap: butt; stroke-dashoffset: 0; stroke-linejoin: miter; stroke-miterlimit: 4; fill: rgb(6,9,10); fill-rule: nonzero; opacity: 1;" vector-effect="non-scaling-stroke"  transform=" translate(-3992.3, -1415)" d="M 3970.83 1283.38 L 3988.1 1537.7 C 3988.7 1537.91 3989.31 1538.1100000000001 3989.91 1538.32 C 3997.8399999999997 1541.03 4005.7999999999997 1543.79 4013.77 1546.6299999999999 L 3996.2599999999998 1288.86 C 3995.7 1288.8999999999999 3995.1299999999997 1288.9199999999998 3994.56 1288.9199999999998 C 3992.32 1288.9199999999998 3990.08 1288.62 3987.88 1288.0099999999998 C 3982.2000000000003 1286.4399999999998 3976.52 1284.8899999999999 3970.83 1283.3799999999997" stroke-linecap="round" />
</g>
		<g transform="matrix(0.13 0 0 -0.13 45.72 80.14)" id="GdUhXTYzBfgozJAl2Xodr"  >
<path style="stroke: none; stroke-width: 1; stroke-dasharray: none; stroke-linecap: butt; stroke-dashoffset: 0; stroke-linejoin: miter; stroke-miterlimit: 4; fill: rgb(6,9,10); fill-rule: nonzero; opacity: 1;" vector-effect="non-scaling-stroke"  transform=" translate(-3705.91, -1094.05)" d="M 3969.8 899.172 L 3994.5600000000004 1263.92 C 3866.9900000000002 1228.54 3735.7400000000002 1208.3400000000001 3602.7000000000003 1194.17 L 3602.7000000000003 1194.17 L 3602.7000000000003 1194.17 C 3540.4 1187.54 3477.9900000000002 1182.25 3415.5600000000004 1177.14 L 3417.4800000000005 1202.4 C 3478.5300000000007 1207.4 3539.4200000000005 1212.5800000000002 3600.0500000000006 1219.0300000000002 L 3600.0500000000006 1219.0300000000002 C 3726.3600000000006 1232.4800000000002 3850.4800000000005 1251.3600000000001 3970.830000000001 1283.38 C 3976.520000000001 1284.89 3982.2000000000007 1286.44 3987.880000000001 1288.0100000000002 C 3990.080000000001 1288.6200000000001 3992.320000000001 1288.9200000000003 3994.560000000001 1288.9200000000003 C 3995.130000000001 1288.9200000000003 3995.7000000000007 1288.9000000000003 3996.2600000000007 1288.8600000000004 L 3969.8 899.172" stroke-linecap="round" />
</g>
		<g transform="matrix(0.13 0 0 -0.13 84.64 -15.44)" id="YeWgfWmhb_8PVzhE9wkuw"  >
<path style="stroke: none; stroke-width: 1; stroke-dasharray: none; stroke-linecap: butt; stroke-dashoffset: 0; stroke-linejoin: miter; stroke-miterlimit: 4; fill: rgb(215,36,36); fill-rule: nonzero; opacity: 1;" vector-effect="non-scaling-stroke"  transform=" translate(-3997.8, -1810.86)" d="M 3987.71 1792.73 C 3987.7200000000003 1792.75 3987.7200000000003 1792.75 3987.73 1792.77 C 3987.73 1792.76 3987.71 1792.73 3987.71 1792.73 M 3988.15 1793.5 C 3988.1600000000003 1793.51 3988.17 1793.53 3988.17 1793.54 C 3988.17 1793.53 3988.16 1793.51 3988.15 1793.5 M 3988.69 1794.45 C 3988.81 1794.66 3988.93 1794.8700000000001 3989.05 1795.0800000000002 C 3988.9300000000003 1794.8700000000001 3988.8100000000004 1794.66 3988.69 1794.45 M 3989.2000000000003 1795.3300000000002 C 3989.32 1795.5500000000002 3989.44 1795.7600000000002 3989.57 1795.9800000000002 C 3989.44 1795.7600000000002 3989.32 1795.5500000000002 3989.2000000000003 1795.3300000000002 M 3989.6600000000003 1796.15 C 3989.82 1796.42 3989.9700000000003 1796.68 3990.1200000000003 1796.95 C 3989.9700000000003 1796.69 3989.8100000000004 1796.42 3989.6600000000003 1796.15 M 3990.1200000000003 1796.96 C 3996.1600000000003 1807.58 4002.0800000000004 1818.25 4007.8800000000006 1828.99 L 4007.8800000000006 1828.99 C 4002.0800000000004 1818.26 3996.1600000000008 1807.57 3990.1200000000003 1796.96" stroke-linecap="round" />
</g>
		<g transform="matrix(0.13 0 0 -0.13 87.9 -21.59)" id="5"  >
<path style="stroke: none; stroke-width: 1; stroke-dasharray: none; stroke-linecap: butt; stroke-dashoffset: 0; stroke-linejoin: miter; stroke-miterlimit: 4; fill: rgb(6,9,10); fill-rule: nonzero; opacity: 1;" vector-effect="non-scaling-stroke"  transform=" translate(-4022.31, -1856.97)" d="M 4007.88 1828.99 L 4007.88 1828.99 C 4017.85 1847.47 4027.48 1866.13 4036.7400000000002 1884.96 L 4036.7400000000002 1884.96 C 4027.4700000000003 1866.1200000000001 4017.8500000000004 1847.47 4007.88 1828.99" stroke-linecap="round" />
</g>
		<g transform="matrix(0.13 0 0 -0.13 70.26 0.76)" id="2"  >
<path style="stroke: none; stroke-width: 1; stroke-dasharray: none; stroke-linecap: butt; stroke-dashoffset: 0; stroke-linejoin: miter; stroke-miterlimit: 4; fill: rgb(215,36,36); fill-rule: nonzero; opacity: 1;" vector-effect="non-scaling-stroke"  transform=" translate(-3909.14, -1684.99)" d="M 3810.4 1540.98 C 3874.7400000000002 1616.18 3931.9 1696.88 3981.42 1781.8400000000001 C 3983.06 1784.66 3984.7000000000003 1787.4800000000002 3986.32 1790.3200000000002 C 3986.79 1791.1200000000001 3987.2400000000002 1791.92 3987.71 1792.7300000000002 C 3987.71 1792.7300000000002 3987.73 1792.7600000000002 3987.73 1792.7700000000002 C 3987.87 1793.0100000000002 3988.01 1793.2600000000002 3988.15 1793.5000000000002 C 3988.1600000000003 1793.5100000000002 3988.17 1793.5300000000002 3988.17 1793.5400000000002 C 3988.35 1793.8400000000001 3988.52 1794.14 3988.69 1794.4500000000003 C 3988.81 1794.6600000000003 3988.93 1794.8700000000003 3989.05 1795.0800000000004 C 3989.1000000000004 1795.1700000000003 3989.15 1795.2400000000005 3989.2000000000003 1795.3300000000004 C 3989.32 1795.5500000000004 3989.44 1795.7600000000004 3989.57 1795.9800000000005 C 3989.6000000000004 1796.0400000000004 3989.63 1796.1000000000004 3989.6600000000003 1796.1500000000005 C 3989.8100000000004 1796.4200000000005 3989.9700000000003 1796.6900000000005 3990.1200000000003 1796.9500000000005 C 3990.1200000000003 1796.9600000000005 3990.1200000000003 1796.9500000000005 3990.1200000000003 1796.9600000000005 C 3996.1600000000003 1807.5700000000004 4002.0800000000004 1818.2600000000004 4007.8800000000006 1828.9900000000005 L 3992.7900000000004 1606.7600000000004 C 3988.1500000000005 1604.2100000000005 3985.0000000000005 1599.2800000000004 3985.0000000000005 1593.6100000000004 C 3985.0000000000005 1592.2500000000005 3985.1800000000003 1590.9400000000003 3985.5200000000004 1589.6900000000003 C 3981.6100000000006 1588.3300000000004 3977.6800000000003 1586.9800000000002 3973.7400000000002 1585.6300000000003 C 3942.44 1574.9300000000003 3910.2700000000004 1565.8700000000003 3877.6800000000003 1557.3200000000004 C 3853.9600000000005 1551.1000000000004 3831.6900000000005 1545.7100000000005 3810.4 1540.9800000000005" stroke-linecap="round" />
</g>
		<g transform="matrix(0.13 0 0 -0.13 42.61 81.8)" id="ezMvaweTCqQBmpTIYI8_o"  >
<path style="stroke: none; stroke-width: 1; stroke-dasharray: none; stroke-linecap: butt; stroke-dashoffset: 0; stroke-linejoin: miter; stroke-miterlimit: 4; fill: rgb(6,9,10); fill-rule: nonzero; opacity: 1;" vector-effect="non-scaling-stroke"  transform=" translate(-3682.63, -1081.55)" d="M 3969.8 899.172 L 3370.7000000000003 899.172 C 3377.84 906.5120000000001 3383.9 914.941 3388.6200000000003 924.172 L 3946.4400000000005 924.172 L 3967.2500000000005 1230.77 C 3848.6000000000004 1200.42 3727.4600000000005 1182.32 3605.3400000000006 1169.31 L 3602.7000000000007 1194.1699999999998 C 3735.7400000000007 1208.34 3866.9900000000007 1228.5399999999997 3994.560000000001 1263.9199999999998 L 3969.8 899.172 M 3413.65 1151.92 L 3415.56 1177.14 C 3477.99 1182.25 3540.4 1187.5400000000002 3602.7 1194.17 L 3602.7 1194.17 L 3605.3399999999997 1169.3100000000002 C 3541.3599999999997 1162.5100000000002 3477.43 1157.13 3413.6499999999996 1151.92" stroke-linecap="round" />
</g>
		<g transform="matrix(0.13 0 0 -0.13 41.99 82.35)" id="eH4bvnFqhAeylul5FHNXo"  >
<path style="stroke: none; stroke-width: 1; stroke-dasharray: none; stroke-linecap: butt; stroke-dashoffset: 0; stroke-linejoin: miter; stroke-miterlimit: 4; fill: rgb(215,36,36); fill-rule: nonzero; opacity: 1;" vector-effect="non-scaling-stroke"  transform=" translate(-3677.93, -1077.47)" d="M 3946.44 924.172 L 3388.62 924.172 C 3395.5899999999997 937.809 3399.6099999999997 953.211 3399.8199999999997 969.4100000000001 L 3413.6499999999996 1151.92 C 3477.43 1157.13 3541.3599999999997 1162.51 3605.3399999999997 1169.3100000000002 L 3602.7 1194.17 L 3602.7 1194.17 L 3605.3399999999997 1169.3100000000002 C 3727.4599999999996 1182.3200000000002 3848.5999999999995 1200.42 3967.2499999999995 1230.7700000000002 L 3946.4399999999996 924.1720000000003" stroke-linecap="round" />
</g>
		<g transform="matrix(0.13 0 0 -0.12 69.66 -41.26)" id="wQwVYP3dcWa9czLMJaivH"  >
<path style="stroke: none; stroke-width: 1; stroke-dasharray: none; stroke-linecap: butt; stroke-dashoffset: 0; stroke-linejoin: miter; stroke-miterlimit: 4; fill: rgb(244,111,72); fill-rule: nonzero; opacity: 1;" vector-effect="non-scaling-stroke"  transform=" translate(-3935, -2003.61)" d="M 3990 1988.61 L 3880 1988.61 C 3871.72 1988.61 3865 1995.32 3865 2003.61 C 3865 2011.8899999999999 3871.72 2018.61 3880 2018.61 L 3990 2018.61 C 3998.28 2018.61 4005 2011.8899999999999 4005 2003.61 C 4005 1995.32 3998.28 1988.61 3990 1988.61" stroke-linecap="round" />
</g>
		<g transform="matrix(0.13 0 0 -0.13 87.19 13.53)" id="NOObiSvc3aFKSxKAC7UNx"  >
<path style="stroke: none; stroke-width: 1; stroke-dasharray: none; stroke-linecap: butt; stroke-dashoffset: 0; stroke-linejoin: miter; stroke-miterlimit: 4; fill: rgb(12,18,30); fill-rule: nonzero; opacity: 1;" vector-effect="non-scaling-stroke"  transform=" translate(-4016.95, -1593.61)" d="M 4015.94 1578.61 L 4015.94 1578.61 L 4017.9700000000003 1608.61 L 4017.9700000000003 1608.61 L 4015.94 1578.61" stroke-linecap="round" />
</g>
		<g transform="matrix(0.13 0 0 -0.13 85.16 13.53)" id="JCim-vnA1-TWtsuKxYqBC"  >
<path style="stroke: none; stroke-width: 1; stroke-dasharray: none; stroke-linecap: butt; stroke-dashoffset: 0; stroke-linejoin: miter; stroke-miterlimit: 4; fill: rgb(12,18,30); fill-rule: nonzero; opacity: 1;" vector-effect="non-scaling-stroke"  transform=" translate(-4001.74, -1593.61)" d="M 4015.94 1578.61 L 4000 1578.61 C 3993.07 1578.61 3987.24 1583.31 3985.52 1589.6899999999998 C 3987.61 1590.4199999999998 3989.7 1591.1499999999999 3991.78 1591.8899999999999 L 3992.7900000000004 1606.7599999999998 C 3994.9300000000003 1607.9399999999998 3997.3900000000003 1608.6099999999997 4000.0000000000005 1608.6099999999997 L 4017.9700000000003 1608.6099999999997 L 4015.94 1578.6099999999997" stroke-linecap="round" />
</g>
		<g transform="matrix(0.13 0 0 -0.13 35.6 -15.8)" id="Awba43_Bjxw4m1WZJtF9X"  >
<path style="stroke: none; stroke-width: 1; stroke-dasharray: none; stroke-linecap: butt; stroke-dashoffset: 0; stroke-linejoin: miter; stroke-miterlimit: 4; fill: rgb(244,111,72); fill-rule: nonzero; opacity: 1;" vector-effect="non-scaling-stroke"  transform=" translate(-3630, -1813.61)" d="M 3690 1798.61 L 3570 1798.61 C 3561.72 1798.61 3555 1805.32 3555 1813.61 C 3555 1821.8899999999999 3561.72 1828.61 3570 1828.61 L 3690 1828.61 C 3698.28 1828.61 3705 1821.8899999999999 3705 1813.61 C 3705 1805.32 3698.28 1798.61 3690 1798.61" stroke-linecap="round" />
</g>
		<g transform="matrix(0.13 0 0 -0.13 42.35 13.53)"  >
<path style="stroke: none; stroke-width: 1; stroke-dasharray: none; stroke-linecap: butt; stroke-dashoffset: 0; stroke-linejoin: miter; stroke-miterlimit: 4; fill: rgb(244,111,72); fill-rule: nonzero; opacity: 1;" vector-effect="non-scaling-stroke"  transform=" translate(-3680, -1563.61)" d="M 3740 1548.61 L 3620 1548.61 C 3611.72 1548.61 3605 1555.32 3605 1563.61 C 3605 1571.8899999999999 3611.72 1578.61 3620 1578.61 L 3740 1578.61 C 3748.28 1578.61 3755 1571.8899999999999 3755 1563.61 C 3755 1555.32 3748.28 1548.61 3740 1548.61" stroke-linecap="round" />
</g>
		<g transform="matrix(0.13 0 0 -0.13 -32.3 -48.78)" id="ieysr6enojjah1Z5IRiSO"  >
<path style="stroke: none; stroke-width: 1; stroke-dasharray: none; stroke-linecap: butt; stroke-dashoffset: 0; stroke-linejoin: miter; stroke-miterlimit: 4; fill: rgb(8,12,15); fill-rule: nonzero; opacity: 1;" vector-effect="non-scaling-stroke"  transform=" translate(-3120.74, -2060.93)" d="M 3120.75 2060.66 L 3120.74 2060.66 C 3120.74 2060.8399999999997 3120.74 2061.0099999999998 3120.74 2061.19 C 3120.74 2061.01 3120.75 2060.83 3120.75 2060.66" stroke-linecap="round" />
</g>
		<g transform="matrix(0.13 0 0 -0.13 -53.78 37.75)" id="8"  >
<path style="stroke: none; stroke-width: 1; stroke-dasharray: none; stroke-linecap: butt; stroke-dashoffset: 0; stroke-linejoin: miter; stroke-miterlimit: 4; fill: rgb(9,16,25); fill-rule: nonzero; opacity: 1;" vector-effect="non-scaling-stroke"  transform=" translate(-2959.69, -1411.96)" d="M 2957.98 1408.61 L 2957.86 1408.61 C 2959.05 1410.84 2960.23 1413.08 2961.4100000000003 1415.32 L 2961.5200000000004 1415.32 C 2960.3400000000006 1413.08 2959.1600000000003 1410.84 2957.9800000000005 1408.61" stroke-linecap="round" />
</g>
		<g transform="matrix(0.13 0 0 -0.13 -55.24 40.44)" id="tY7SRrIgRMKWcUAedfSf4"  >
<path style="stroke: none; stroke-width: 1; stroke-dasharray: none; stroke-linecap: butt; stroke-dashoffset: 0; stroke-linejoin: miter; stroke-miterlimit: 4; fill: rgb(230,123,72); fill-rule: nonzero; opacity: 1;" vector-effect="non-scaling-stroke"  transform=" translate(-2948.76, -1391.77)" d="M 2939.53 1374.92 L 2939.53 1375.22 C 2945.8 1386.31 2951.9100000000003 1397.44 2957.86 1408.6100000000001 L 2957.98 1408.6100000000001 C 2951.9900000000002 1397.3300000000002 2945.85 1386.1000000000001 2939.53 1374.92" stroke-linecap="round" />
</g>
</g>
</g>
</svg>