<svg height="287" viewBox="0 0 238 287" width="238" xmlns="http://www.w3.org/2000/svg"><path d="m3960.6 883.609h-1490.4l-120.14 1641.211 1733.66-2.93z" fill="#cad4bb" transform="matrix(.13 0 0 -.13 -297.6757 399.3273)"/><path d="m3960.6 883.609v25h-1467.17l-116.47 1591.171 1679.81-2.85-121.1-1611.45 24.93-1.871v25-25l24.93-1.879 123.12 1638.28c.52 6.95-1.86 13.76-6.59 18.86-4.73 5.11-11.34 8.01-18.3 8.02l-1733.66 2.93c-6.96.01-13.6-2.87-18.34-7.96-4.74-5.1-7.14-11.92-6.64-18.86l120.14-1641.219c.96-13.09 11.81-23.172 24.94-23.172h1490.4c13.05 0 23.95 10.11 24.93 23.121z" fill="#091019" transform="matrix(.13 0 0 -.13 -297.6857 399.3273)"/><path d="m3561.59 1896.39 111.16 1075.08c2.09 20.22-12.59 38.3-32.81 40.39l-155.57 16.08c-20.21 2.09-38.31-12.6-40.4-32.81l-111.16-1075.08z" fill="#e98523" transform="matrix(.13 0 0 -.13 -296.7244 396.8038)"/><path d="m3561.59 1896.39 24.87-2.57 111.16 1075.08c.22 2.15.33 4.28.33 6.4 0 15.66-5.94 30.24-15.79 41.22-9.82 10.99-23.84 18.58-39.65 20.21l-155.56 16.08c-2.14.22-4.28.33-6.4.33-15.67 0-30.25-5.94-41.22-15.79-11-9.82-18.6-23.84-20.22-39.65l-111.16-1075.08c-1.43-13.73 8.56-26.01 22.29-27.44l228.78-23.66c6.55-.67 13.23 1.32 18.34 5.47s8.42 10.28 9.1 16.83l-24.87 2.57 2.57 24.87-203.91 21.09 108.59 1050.2c.34 3.12 1.71 5.61 3.85 7.56 2.17 1.93 4.89 3.03 7.86 3.03l1.25-.07 155.57-16.08c3.12-.33 5.61-1.71 7.56-3.85 1.92-2.16 3.02-4.87 3.02-7.84l-.06-1.26-111.17-1075.08 24.87-2.57 2.57 24.87z" fill="#091019" transform="matrix(.13 0 0 -.13 -296.7244 396.8051)"/><path d="m2709.8 1741.97v1080.8c0 20.32-16.48 36.8-36.8 36.8h-156.41c-20.32 0-36.8-16.48-36.8-36.8v-1080.8z" fill="#e98523" transform="matrix(.13 0 0 -.13 -299.754 397.3401)"/><path d="m2709.8 1741.97h25v1080.8c.01 16.99-6.96 32.59-18.11 43.7-11.1 11.14-26.71 18.11-43.69 18.1h-156.41c-16.98.01-32.59-6.96-43.69-18.1-11.15-11.11-18.12-26.71-18.11-43.7v-1080.8c0-6.59 2.67-13.03 7.33-17.68 4.65-4.66 11.09-7.32 17.67-7.32h230.01c6.58 0 13.02 2.66 17.67 7.32 4.66 4.65 7.33 11.09 7.33 17.68h-25v25h-205.01v1055.8c.02 3.34 1.29 6.13 3.46 8.34 2.21 2.18 5.01 3.45 8.34 3.46h156.41c3.33-.01 6.13-1.28 8.34-3.46 2.17-2.21 3.44-5 3.45-8.34v-1080.8h25.01v25z" fill="#091019" transform="matrix(.13 0 0 -.13 -299.754 397.3401)"/><path d="m3310.9 1950.29v979.61c0 20.32-16.48 36.8-36.8 36.8h-156.4c-20.32 0-36.8-16.48-36.8-36.8v-979.61z" fill="#e98523" transform="matrix(.13 0 0 -.13 -297.747 396.8137)"/><path d="m3310.9 1950.29h25v979.61c.01 16.98-6.96 32.59-18.1 43.69-11.1 11.15-26.71 18.12-43.7 18.11h-156.4c-16.98.01-32.59-6.96-43.7-18.1-11.14-11.11-18.11-26.71-18.1-43.7v-979.61c0-6.59 2.67-13.03 7.32-17.68 4.66-4.66 11.09-7.32 17.68-7.32h230c6.58 0 13.02 2.66 17.68 7.32 4.65 4.65 7.32 11.09 7.32 17.68h-25v25h-205v954.61c.01 3.33 1.28 6.12 3.46 8.34 2.21 2.18 5.01 3.45 8.34 3.46h156.4c3.34-.02 6.13-1.28 8.34-3.46 2.18-2.21 3.45-5.01 3.46-8.34v-979.61h25v25z" fill="#091019" transform="matrix(.13 0 0 -.13 -297.747 396.815)"/><path d="m3090.79 1991.06-97.12 974.77c-2.01 20.22-20.05 34.98-40.27 32.97l-155.63-15.51c-20.22-2.01-34.98-20.04-32.97-40.27l97.13-974.76z" fill="#e98523" transform="matrix(.13 0 0 -.13 -298.641 396.7306)"/><path d="m3090.79 1991.06 24.88 2.48-97.12 974.77c-1.57 15.86-9.14 29.93-20.15 39.8-10.98 9.89-25.6 15.87-41.31 15.87-2.04 0-4.11-.1-6.18-.31h.01l-155.63-15.5c-15.85-1.57-29.93-9.14-39.8-20.15-9.89-10.98-15.87-25.6-15.87-41.31 0-2.03.1-4.1.31-6.18v.02l97.13-974.77c1.36-13.74 13.61-23.77 27.35-22.4l228.86 22.8c6.55.65 12.69 3.95 16.86 9.04 4.18 5.09 6.19 11.77 5.54 18.32l-24.88-2.48-2.48 24.87-203.98-20.32-94.65 949.89v.02l-.06 1.19c0 2.98 1.11 5.7 3.04 7.87 1.96 2.14 4.46 3.51 7.59 3.83l155.63 15.51h.01l1.2.06c2.98 0 5.7-1.11 7.87-3.04 2.14-1.96 3.51-4.47 3.83-7.59l97.12-974.77 24.88 2.48-2.48 24.87z" fill="#091019" transform="matrix(.13 0 0 -.13 -298.6423 396.7306)"/><path d="m3983.43 1760.86 96.05 974.88c1.99 20.23-12.78 38.24-33.01 40.23l-155.64 15.34c-20.22 1.99-38.25-12.78-40.23-33.02l-96.07-974.88z" fill="#f4ad19" transform="matrix(.13 0 0 -.13 -295.3417 397.4221)"/><path d="m3983.43 1760.86 24.88-2.45 96.05 974.88v.01c.2 2.04.3 4.08.3 6.1 0 15.72-5.98 30.35-15.89 41.33-9.88 11-23.97 18.57-39.85 20.12l-155.64 15.34c-2.04.2-4.07.3-6.1.3-15.71 0-30.35-5.98-41.34-15.89-11.01-9.88-18.58-23.98-20.12-39.87v.02l-96.07-974.89c-.64-6.55 1.38-13.22 5.55-18.31 4.18-5.09 10.33-8.37 16.88-9.02l228.9-22.55c6.55-.64 13.22 1.38 18.31 5.56 5.09 4.17 8.37 10.32 9.02 16.87l-24.88 2.45 2.45 24.88-204.02 20.1 93.61 950 .01.02c.32 3.12 1.68 5.62 3.83 7.59 2.16 1.93 4.89 3.04 7.87 3.04l1.2-.06 155.64-15.34c3.13-.32 5.63-1.68 7.6-3.83 1.93-2.16 3.04-4.88 3.04-7.86l-.06-1.21v.01l-96.05-974.89 24.88-2.45 2.45 24.88z" fill="#091019" transform="matrix(.13 0 0 -.13 -295.343 397.4234)"/><path d="m2864.73 1814.95v777.22c0 20.32-16.48 36.79-36.8 36.79h-156.4c-20.32 0-36.8-16.47-36.8-36.79v-777.22z" fill="#f4ad19" transform="matrix(.13 0 0 -.13 -299.2349 397.6035)"/><path d="m2864.73 1814.95h25v777.22c.01 16.98-6.96 32.59-18.1 43.69-11.11 11.15-26.72 18.12-43.7 18.1h-156.4c-16.98.02-32.59-6.95-43.7-18.09-11.14-11.11-18.12-26.71-18.1-43.7v-777.22c0-6.58 2.66-13.02 7.32-17.67 4.65-4.66 11.09-7.33 17.68-7.33h230c6.58 0 13.02 2.67 17.67 7.33 4.66 4.65 7.33 11.09 7.33 17.67h-25v25h-205v752.22c.01 3.33 1.28 6.12 3.45 8.33 2.22 2.18 5.02 3.45 8.35 3.46h156.4c3.34-.01 6.13-1.28 8.34-3.45 2.17-2.22 3.44-5.01 3.46-8.34v-777.22h25v25z" fill="#091019" transform="matrix(.13 0 0 -.13 -299.2349 397.6048)"/><path d="m3115.22 1838.62v777.21c0 20.32-16.47 36.8-36.79 36.8h-156.41c-20.32 0-36.8-16.48-36.8-36.8v-777.21z" fill="#f4ad19" transform="matrix(.13 0 0 -.13 -298.3986 397.5219)"/><path d="m3115.22 1838.62h25v777.21c.02 16.99-6.95 32.6-18.09 43.7-11.11 11.15-26.71 18.12-43.7 18.1h-156.41c-16.99.02-32.59-6.95-43.7-18.1-11.14-11.1-18.11-26.71-18.1-43.7v-777.21c0-6.59 2.67-13.03 7.33-17.68 4.65-4.66 11.09-7.32 17.67-7.32h230c6.59 0 13.03 2.66 17.68 7.32 4.66 4.65 7.32 11.09 7.32 17.68h-25v25h-205v752.21c.02 3.34 1.29 6.13 3.46 8.35 2.22 2.17 5.01 3.44 8.34 3.45h156.41c3.33-.01 6.12-1.28 8.34-3.45 2.17-2.22 3.44-5.01 3.45-8.35v-777.21h25v25z" fill="#091019" transform="matrix(.13 0 0 -.13 -298.3986 397.5219)"/><path d="m3422.47 1920.22v703.61c0 20.32-16.47 36.79-36.8 36.79h-156.4c-20.33 0-36.8-16.47-36.8-36.79v-703.61z" fill="#f4ad19" transform="matrix(.13 0 0 -.13 -297.3811 397.3746)"/><path d="m3422.47 1920.22h25v703.61c.01 16.98-6.96 32.59-18.1 43.69-11.1 11.15-26.71 18.12-43.7 18.1h-156.4c-16.99.02-32.6-6.95-43.7-18.1-11.14-11.1-18.11-26.71-18.1-43.69v-703.61c0-6.59 2.67-13.03 7.32-17.68 4.66-4.66 11.1-7.32 17.68-7.32h230c6.58 0 13.02 2.66 17.68 7.32 4.65 4.65 7.32 11.09 7.32 17.68h-25v25h-205v678.61c.01 3.33 1.28 6.12 3.46 8.34 2.21 2.17 5 3.44 8.34 3.45h156.4c3.34-.01 6.13-1.28 8.34-3.45 2.18-2.22 3.45-5.01 3.46-8.34v-703.61h25v25z" fill="#091019" transform="matrix(.13 0 0 -.13 -297.3811 397.3746)"/><path d="m2678.58 1974.9-118.31 693.58c-3.42 20.04-22.44 33.51-42.47 30.1l-154.18-26.3c-20.03-3.42-33.49-22.44-30.08-42.47l118.32-693.6z" fill="#f4ad19" transform="matrix(.13 0 0 -.13 -300.054 397.2858)"/><path d="m2678.58 1974.9 24.65 4.2-118.31 693.59v.01c-2.56 14.98-10.45 27.98-21.29 37.01-10.83 9.06-24.77 14.39-39.6 14.4-3.45 0-6.94-.29-10.43-.89l-154.18-26.3c-14.99-2.55-27.99-10.44-37.02-21.29-9.05-10.83-14.39-24.77-14.39-39.6 0-3.45.29-6.94.88-10.42l118.32-693.6c1.11-6.49 4.82-12.39 10.19-16.19 5.37-3.81 12.17-5.36 18.66-4.25l226.73 38.68c13.61 2.32 22.76 15.24 20.44 28.85l-24.65-4.2-4.2 24.64-202.08-34.48-114.12 668.95-.17 2.02c-.01 2.77 1 5.43 2.76 7.55 1.8 2.11 4.11 3.54 7.06 4.06l154.18 26.29 2.02.18c2.77 0 5.42-1 7.54-2.77 2.11-1.79 3.54-4.11 4.06-7.07v.01l118.31-693.59 24.64 4.21-4.2 24.64z" fill="#091019" transform="matrix(.13 0 0 -.13 -300.054 397.2858)"/><path d="m3902.83 2088.78v574.81c0 20.32-16.47 36.8-36.79 36.8h-156.41c-20.32 0-36.8-16.48-36.8-36.8v-574.81z" fill="#e98523" transform="matrix(.13 0 0 -.13 -295.7779 397.0267)"/><path d="m3902.83 2088.78h25v574.81c.01 16.99-6.95 32.59-18.1 43.7-11.1 11.14-26.71 18.11-43.69 18.1h-156.41c-16.99.01-32.59-6.96-43.7-18.1-11.14-11.11-18.11-26.71-18.1-43.7v-574.81c0-6.58 2.67-13.02 7.32-17.68 4.66-4.65 11.1-7.32 17.68-7.32h230c6.59 0 13.02 2.67 17.68 7.32 4.65 4.66 7.32 11.1 7.32 17.68h-25v25h-205v549.81c.01 3.34 1.28 6.13 3.46 8.34 2.21 2.18 5 3.45 8.34 3.46h156.41c3.33-.01 6.12-1.28 8.34-3.46 2.17-2.21 3.44-5 3.45-8.34v-574.81h25v25z" fill="#091019" transform="matrix(.13 0 0 -.13 -295.7779 397.0267)"/><path d="m3718.74 1980.36v804.81c0 20.33-16.47 36.81-36.8 36.81h-156.4c-20.33 0-36.8-16.48-36.8-36.81v-804.81z" fill="#f4ad19" transform="matrix(.13 0 0 -.13 -296.3862 397.0021)"/><path d="m3718.74 1980.36h25v804.81c.01 16.99-6.96 32.6-18.1 43.7-11.1 11.15-26.71 18.12-43.7 18.11h-156.4c-16.99.01-32.6-6.96-43.7-18.11-11.14-11.1-18.11-26.71-18.1-43.7v-804.81c0-6.58 2.67-13.02 7.32-17.67 4.66-4.66 11.1-7.33 17.68-7.33h230c6.58 0 13.02 2.67 17.68 7.33 4.65 4.65 7.32 11.09 7.32 17.67h-25v25h-205v779.81c.01 3.34 1.28 6.13 3.46 8.35 2.21 2.17 5 3.44 8.34 3.46h156.4c3.34-.02 6.13-1.29 8.34-3.46 2.18-2.22 3.45-5.01 3.46-8.35v-804.81h25v25z" fill="#091019" transform="matrix(.13 0 0 -.13 -296.3862 397.0021)"/><path d="m3667.19 2389.57c-2.59-15.01-5.86-29.93-9.92-44.67-22.66-80.79-63.55-150.94-122.64-210.44-89.04-89.03-211.25-139.68-337.23-139.68-86.07.26-166.32 21.97-240.7 65.11-57.82 33.86-107.65 79.85-146.47 133.79-38.48 49.09-66.43 104.31-83.68 165.79-1.35 10.03-2.69 20.07-4.04 30.1h-362.71l101.2-1490.398h1508.8l101.2 1490.398z" fill="#fcfcfc" transform="matrix(.13 0 0 -.13 -297.682 399.5281)"/><path d="m3667.19 2389.57-24.64 4.25c-2.46-14.27-5.56-28.39-9.39-42.28l.03.11c-21.6-76.86-60.1-142.93-116.3-199.58l.06.07c-84.28-84.31-200.28-132.39-319.55-132.36h.08c-81.92.3-157.43 20.73-228.24 61.73l.09-.05c-54.7 32.04-101.97 75.64-138.8 126.83l-.62.82c-36.48 46.55-62.87 98.65-79.29 157.11l-24.07-6.75 24.78 3.32c-1.35 10.04-2.69 20.08-4.04 30.11-1.67 12.42-12.26 21.67-24.78 21.67h-362.71c-6.96 0-13.51-2.84-18.26-7.93-4.75-5.08-7.15-11.81-6.68-18.76l101.19-1490.4c.89-13.089 11.82-23.308 24.95-23.308h1508.8c13.13 0 24.06 10.219 24.95 23.308l101.19 1490.4c.47 6.95-1.92 13.68-6.68 18.76-4.75 5.09-11.3 7.93-18.26 7.93h-403.81c-12.15 0-22.57-8.78-24.64-20.75l24.64-4.25v-25h377.05l-97.8-1440.398h-1462.08l-97.8 1440.398h335.95v25l-24.78-3.33c1.35-10.02 2.7-20.06 4.04-30.1.14-1.03.43-2.42.71-3.43 18.08-64.49 47.59-122.84 88.08-174.45l19.67 15.42-20.29-14.6c40.81-56.7 93.19-105.07 154.12-140.77l.1-.05c77.96-45.27 162.93-68.25 253.17-68.48h.07c132.69.02 261.1 53.25 354.9 147l.07.06c61.98 62.35 105.26 136.6 128.97 221.3l.03.12c4.29 15.59 7.74 31.31 10.45 47.07l-24.63 4.24v-25z" fill="#091019" transform="matrix(.13 0 0 -.13 -297.682 399.5281)"/><path d="m2849.8 1400.64c230.36 36.83 461.72 53.82 693.63 76.68 122.82 12.11 210.58 21.71 340.59 55.82 32.88 8.62 65.64 17.84 97.81 28.84 11.3 3.86 22.57 7.79 33.78 11.91l55.39 815.68h-403.81c-2.59-15.01-5.86-29.93-9.92-44.67-22.66-80.79-63.55-150.94-122.64-210.44-89.04-89.03-211.25-139.68-337.23-139.68-86.07.26-166.32 21.97-240.7 65.11-57.82 33.86-107.65 79.85-146.47 133.79-38.48 49.09-66.43 104.31-83.68 165.79l-4.04 30.1h-362.71l73.51-1082.67c136.52 42.59 277.83 71.57 416.49 93.74" fill="#ec3c26" transform="matrix(.13 0 0 -.13 -297.682 398.8499)"/><path d="m2849.8 1400.64 3.94-24.69c228.96 36.62 459.82 53.6 692.14 76.49 122.79 12.09 212.88 21.95 344.49 56.52 33.16 8.7 66.51 18.07 99.54 29.36 11.4 3.9 22.85 7.89 34.33 12.1 9.27 3.41 15.65 11.92 16.32 21.78l55.38 815.68c.47 6.95-1.92 13.68-6.68 18.76-4.75 5.09-11.3 7.93-18.26 7.93h-403.81c-12.15 0-22.57-8.78-24.64-20.75-2.46-14.27-5.56-28.39-9.39-42.28l.03.11c-21.6-76.86-60.1-142.93-116.3-199.58l.06.07c-84.28-84.31-200.28-132.39-319.55-132.36h.08c-81.92.3-157.43 20.73-228.24 61.73l.09-.05c-54.7 32.04-101.97 75.64-138.8 126.83l-.62.82c-36.48 46.55-62.87 98.65-79.29 157.11l-24.07-6.75 24.78 3.32-4.04 30.11c-1.67 12.41-12.26 21.67-24.78 21.67h-362.71c-6.96 0-13.51-2.84-18.26-7.93-4.75-5.08-7.15-11.81-6.68-18.76l73.51-1082.68c.52-7.66 4.48-14.59 10.82-18.93 6.33-4.34 14.24-5.52 21.57-3.24 134.91 42.1 275.07 70.88 412.98 92.92l-3.94 24.69-3.95 24.68c-139.39-22.29-281.86-51.46-419.99-94.56l7.45-23.86 24.94 1.69-71.69 1055.98h314.08l1.13-8.43c.14-1.04.43-2.42.71-3.43 18.08-64.49 47.59-122.84 88.08-174.45l19.67 15.42-20.29-14.6c40.81-56.7 93.19-105.07 154.12-140.77l.1-.05c77.96-45.27 162.93-68.25 253.17-68.48h.07c132.69.02 261.1 53.25 354.9 147l.07.06c61.98 62.35 105.26 136.6 128.97 221.3l.03.12c4.29 15.59 7.74 31.31 10.45 47.07l-24.63 4.24v-25h377.05l-53.57-788.99 24.94-1.69-8.62 23.46c-10.95-4.02-22.04-7.88-33.25-11.72-31.3-10.7-63.47-19.76-96.06-28.31-128.41-33.66-213.85-42.99-336.7-55.12-231.49-22.83-463.37-39.83-695.13-76.88z" fill="#091019" transform="matrix(.13 0 0 -.13 -297.932 398.8499)"/><path d="m3602.7 1194.17c-122.96-13.08-246.37-20.9-369.46-32.56-59.3-5.62-118.42-12.46-177.5-20.05-7.23-.93-14.45-1.88-21.67-2.83-5.93-.82-15.08-2.06-18.03-2.49-22.43-3.17-44.85-6.42-67.21-9.9-167.35-26.06-335.22-59.97-495.36-116.26l7.53-110.908h1508.8l24.76 364.748c-127.57-35.38-258.82-55.58-391.86-69.75" fill="#ec3c26" transform="matrix(.13 0 0 -.13 -297.6513 401.4015)"/><path d="m3602.7 1194.17-2.65 24.86c-122.25-13.01-245.56-20.82-369.17-32.53-59.64-5.66-119.03-12.52-178.33-20.15-7.27-.93-14.51-1.88-21.73-2.83l-.17-.02c-5.92-.82-14.95-2.04-18.21-2.52l.09.02c-22.48-3.19-45.01-6.45-67.54-9.96-168.1-26.18-337.47-60.32-499.81-117.37-10.62-3.73-17.42-14.06-16.66-25.28l7.53-110.91c.89-13.089 11.82-23.308 24.95-23.308h1508.8c13.13 0 24.06 10.219 24.95 23.308l24.75 364.75c.55 8.08-2.86 15.94-9.14 21.07-6.29 5.12-14.67 6.88-22.48 4.71-125.67-34.86-255.55-54.89-387.83-68.98l2.65-24.86 2.64-24.86c133.81 14.26 266.43 34.61 395.9 70.52l-6.68 24.09-24.94 1.69-23.18-341.438h-1462.08l-5.95 87.598-24.94-1.69 8.29-23.592c157.94 55.532 324.31 89.212 490.92 115.152 22.18 3.45 44.49 6.68 66.86 9.85l.09.01c2.66.39 11.92 1.65 17.87 2.47l-.17-.02c7.21.94 14.4 1.89 21.59 2.81 58.88 7.57 117.73 14.37 176.68 19.97 122.57 11.61 246.07 19.43 369.74 32.58z" fill="#091019" transform="matrix(.13 0 0 -.13 -297.6613 401.4015)"/><path d="m3960.6 889.969h-600.12c3.56 2.801 6.92 5.82 10.06 9.031.05.059.1.121.16.172h590.59z" fill="#06090a" transform="matrix(.13 0 0 -.13 -296.2057 402.0241)"/><path d="m3726.25 1449.87.14.14c-.05-.05-.09-.09-.14-.14m.75.75c.08.08.14.15.22.22-.07-.07-.15-.15-.22-.22m.75.75c.04.05.1.11.15.16-.05-.05-.11-.11-.15-.16m.75.76c.03.03.05.05.08.08-.03-.03-.05-.05-.08-.08m.74.74c.06.07.13.13.19.2-.06-.07-.13-.13-.19-.2m.75.76c.03.03.05.05.08.08-.02-.02-.06-.05-.08-.08m.74.75c.06.06.1.1.15.15-.05-.05-.1-.1-.15-.15m.75.76c.03.03.08.08.11.11-.03-.03-.08-.08-.11-.11m.74.75c.04.04.08.08.12.12-.04-.04-.08-.08-.12-.12m.75.76c.03.03.06.06.09.09-.03-.03-.06-.06-.09-.09m.75.75c.02.03.03.04.06.07-.02-.02-.05-.05-.06-.07" fill="#f8f8f7" transform="matrix(.13 0 0 -.13 -295.9713 400.1671)"/><path d="m3981.42 1781.84c1.64 2.83 3.28 5.67 4.91 8.51l-.01-.03c-1.62-2.84-3.26-5.66-4.9-8.48" fill="#d72424" transform="matrix(.13 0 0 -.13 -295.1244 399.0517)"/><path d="m3417.48 1202.4.06.79v1.14c0 .96-.02 1.92-.05 2.87 111.03 67.5 214.37 148.28 307.27 241.17.5.5.99 1 1.49 1.5l.14.14.61.61c.07.07.15.15.22.22l.53.53c.04.05.1.11.15.16.2.2.4.39.6.6.03.03.05.05.08.08.22.22.44.44.66.66.06.07.13.13.19.2.19.18.37.37.56.56.02.03.06.06.08.08.23.23.44.44.66.67.05.05.1.1.15.15.2.21.4.4.6.61.03.03.08.08.11.11.22.22.42.42.63.64.04.04.08.08.12.12.21.21.42.42.63.64.03.03.06.06.09.09.22.22.44.44.66.66.01.02.04.05.06.07 6.94 7.05 13.81 14.16 20.62 21.33 42.05 7.48 86.01 17.04 135.97 30.16 32.56 8.54 65.29 17.73 97.73 28.74l-17.27-254.32c-120.35-32.02-244.47-50.9-370.78-64.35-60.63-6.45-121.52-11.63-182.57-16.63" fill="#f8f8f7" transform="matrix(.13 0 0 -.13 -296.0627 400.4465)"/><path d="m3970.83 1283.38 17.27 254.32c.6.21 1.21.41 1.81.62 7.93 2.71 15.89 5.47 23.86 8.31l-17.51-257.77c-.56.04-1.13.06-1.7.06-2.24 0-4.48-.3-6.68-.91-5.68-1.57-11.36-3.12-17.05-4.63" fill="#06090a" transform="matrix(.13 0 0 -.13 -295.099 400.29)"/><path d="m3969.8 899.172 24.76 364.748c-127.57-35.38-258.82-55.58-391.86-69.75-62.3-6.63-124.71-11.92-187.14-17.03l1.92 25.26c61.05 5 121.94 10.18 182.57 16.63 126.31 13.45 250.43 32.33 370.78 64.35 5.69 1.51 11.37 3.06 17.05 4.63 2.2.61 4.44.91 6.68.91.57 0 1.14-.02 1.7-.06z" fill="#06090a" transform="matrix(.13 0 0 -.13 -296.0483 401.3665)"/><path d="m3987.71 1792.73c.01.02.01.02.02.04 0-.01-.02-.04-.02-.04m.44.77c.01.01.02.03.02.04 0-.01-.01-.03-.02-.04m.54.95c.12.21.24.42.36.63-.12-.21-.24-.42-.36-.63m.51.88c.12.22.24.43.37.65-.13-.22-.25-.43-.37-.65m.46.82c.16.27.31.53.46.8-.15-.26-.31-.53-.46-.8m.46.81c6.04 10.62 11.96 21.29 17.76 32.03-5.8-10.73-11.72-21.42-17.76-32.03" fill="#d72424" transform="matrix(.13 0 0 -.13 -295.074 398.9718)"/><path d="m4007.88 1828.99c9.97 18.48 19.6 37.14 28.86 55.97-9.27-18.84-18.89-37.49-28.86-55.97" fill="#06090a" transform="matrix(.13 0 0 -.13 -295.0003 398.8161)"/><path d="m3810.4 1540.98c64.34 75.2 121.5 155.9 171.02 240.86 1.64 2.82 3.28 5.64 4.9 8.48.47.8.92 1.6 1.39 2.41 0 0 .02.03.02.04.14.24.28.49.42.73.01.01.02.03.02.04.18.3.35.6.52.91.12.21.24.42.36.63.05.09.1.16.15.25.12.22.24.43.37.65.03.06.06.12.09.17.15.27.31.54.46.8v.01c6.04 10.61 11.96 21.3 17.76 32.03l-15.09-222.23c-4.64-2.55-7.79-7.48-7.79-13.15 0-1.36.18-2.67.52-3.92-3.91-1.36-7.84-2.71-11.78-4.06-31.3-10.7-63.47-19.76-96.06-28.31-23.72-6.22-45.99-11.61-67.28-16.34" fill="#d72424" transform="matrix(.13 0 0 -.13 -297.9282 398.8087)"/><path d="m3969.8 899.172h-599.1c7.14 7.34 13.2 15.769 17.92 25h557.82l20.81 306.598c-118.65-30.35-239.79-48.45-361.91-61.46l-2.64 24.86c133.04 14.17 264.29 34.37 391.86 69.75zm-556.15 252.748 1.91 25.22c62.43 5.11 124.84 10.4 187.14 17.03l2.64-24.86c-63.98-6.8-127.91-12.18-191.69-17.39" fill="#06090a" transform="matrix(.13 0 0 -.13 -296.1319 401.4015)"/><path d="m3946.44 924.172h-557.82c6.97 13.637 10.99 29.039 11.2 45.238l13.83 182.51c63.78 5.21 127.71 10.59 191.69 17.39l-2.64 24.86 2.64-24.86c122.12 13.01 243.26 31.11 361.91 61.46z" fill="#d72424" transform="matrix(.13 0 0 -.13 -296.1409 401.4211)"/><path d="m3990 1988.61h-110c-8.28 0-15 6.71-15 15 0 8.28 6.72 15 15 15h110c8.28 0 15-6.72 15-15 0-8.29-6.72-15-15-15" fill="#f46f48" transform="matrix(.13 0 0 -.12 -301.89 378.1732)"/><path d="m4015.94 1578.61 2.03 30z" fill="#0c121e" transform="matrix(.13 0 0 -.13 -295.0135 399.6993)"/><path d="m4015.94 1578.61h-15.94c-6.93 0-12.76 4.7-14.48 11.08 2.09.73 4.18 1.46 6.26 2.2l1.01 14.87c2.14 1.18 4.6 1.85 7.21 1.85h17.97z" fill="#0c121e" transform="matrix(.13 0 0 -.13 -295.0662 399.6993)"/><path d="m3690 1798.61h-120c-8.28 0-15 6.71-15 15 0 8.28 6.72 15 15 15h120c8.28 0 15-6.72 15-15 0-8.29-6.72-15-15-15" fill="#f46f48" transform="matrix(.13 0 0 -.13 -296.3 398.9693)"/><path d="m3740 1548.61h-120c-8.28 0-15 6.71-15 15 0 8.28 6.72 15 15 15h120c8.28 0 15-6.72 15-15 0-8.29-6.72-15-15-15" fill="#f46f48" transform="matrix(.13 0 0 -.13 -296.05 395.7993)"/><path d="m3120.75 2060.66h-.01v.53c0-.18.01-.36.01-.53" fill="#080c0f" transform="matrix(.13 0 0 -.13 -297.9962 398.1409)"/><path d="m2957.98 1408.61h-.12c1.19 2.23 2.37 4.47 3.55 6.71h.11c-1.18-2.24-2.36-4.48-3.54-6.71" fill="#091019" transform="matrix(.13 0 0 -.13 -298.5397 400.3048)"/><path d="m2939.53 1374.92v.3c6.27 11.09 12.38 22.22 18.33 33.39h.12c-5.99-11.28-12.13-22.51-18.45-33.69" fill="#e67b48" transform="matrix(.13 0 0 -.13 -298.5788 400.3701)"/></svg>