<svg height="414" viewBox="0 0 365 414" width="365" xmlns="http://www.w3.org/2000/svg"><path d="m1408.16 569.559c-369.4 0-668.836 44.562-668.836 99.543 0 37.578 140 70.296 346.616 87.238-5.16-5.262-10.52-10.508-16.1-15.738-6.97-6.543-8.92-16.891-4.8-25.52l26.52-55.473c3.77-7.89 11.64-12.507 19.85-12.507 3.18 0 6.4.687 9.46 2.16 10.96 5.226 15.6 18.359 10.37 29.316l-19.68 41.16c13.74 13.621 26.22 27.371 37.54 41.153 79.67 4.98 167.21 7.738 259.06 7.738 50.14 0 99-.82 145.99-2.379l-51.19-171.57 89.33 170.129c52.39-2.227 102.19-5.387 148.47-9.34.25-6.399.38-12.918.38-19.547 0-7.172-.15-14.512-.45-21.992-.39-9.559 5.47-18.289 14.46-21.551l57.79-20.988c2.48-.911 5.01-1.332 7.51-1.332 8.98 0 17.41 5.55 20.66 14.48 4.15 11.41-1.74 24.031-13.15 28.172l-42.9 15.578c.04 2.563.05 5.102.05 7.633 0 5.207-.07 10.348-.2 15.43 144.42-14.68 248.21-37.571 281.03-64.153l3.24-33.359c-49.33-47.731-326.5-84.281-661.02-84.281" fill="#5ac9e2" transform="matrix(.13 0 0 -.13 -94.7825 487.2317)"/><path d="m2069.18 653.84-3.24 33.359c7.25-5.867 11.04-11.918 11.04-18.097 0-5.192-2.66-10.282-7.8-15.262" fill="#63cce4" transform="matrix(.13 0 0 -.13 -92.5598 487.2276)"/><path d="m1502.96 594.68 51.19 171.57c12.87-.418 25.57-.898 38.14-1.441z" fill="#63cce4" transform="matrix(.13 0 0 -.13 -94.3119 487.1998)"/><path d="m2828.39 567.832c-308.56 0-568.31 31.09-645.48 73.379l5.34 55.09c49.28 24.179 158.71 44.461 302.37 57-1.05-13.571-1.61-27.602-1.6-42.082 0-2.52.01-5.059.05-7.61l-42.89-15.578c-11.41-4.152-17.3-16.761-13.15-28.172 3.24-8.937 11.68-14.488 20.66-14.488 2.5 0 5.03.43 7.51 1.328l57.79 20.992c8.98 3.27 14.86 12.059 14.46 21.61-.32 7.418-.46 14.719-.46 21.918.01 15.851.73 31.051 2.07 45.633 45.89 3.339 94.7 5.918 145.74 7.628l87.47-161.871-50.74 162.942c36.06.89 73.1 1.359 110.86 1.359 99.9 0 194.71-3.262 279.84-9.109 15.43-20.981 33.42-42.012 54.35-62.75l-19.66-41.16c-5.24-10.961-.61-24.082 10.35-29.321 3.06-1.461 6.29-2.148 9.46-2.148 8.21 0 16.09 4.617 19.86 12.508l26.5 55.468c4.12 8.633 2.17 18.993-4.8 25.524-13.16 12.34-25.11 24.758-35.96 37.187 196.86-17.328 328.89-49.238 328.89-85.738 0-54.98-299.44-99.539-668.83-99.539" fill="#5ac9e2" transform="matrix(.13 0 0 -.13 -89.9991 487.2381)"/><path d="m2182.91 641.211c-15.22 8.328-23.34 17.098-23.34 26.16 0 10.059 10.03 19.77 28.68 28.93z" fill="#63cce4" transform="matrix(.13 0 0 -.13 -92.2183 487.2388)"/><path d="m2768.27 602.609-87.47 161.871c12.12.399 24.38.758 36.73 1.071z" fill="#63cce4" transform="matrix(.13 0 0 -.13 -90.3889 487.1904)"/><path d="m1598.58 1057.09 3.35 4.86-3.39-4.84.04-.02 3.35 4.86-3.39-4.84c.75-.5 36.72-25.95 72.1-78.508 35.39-52.641 70.45-131.993 70.5-242.68 0-7.172-.15-14.512-.45-21.992-.39-9.559 5.47-18.289 14.46-21.551l57.79-20.988c11.41-4.153 24.02 1.738 28.17 13.148s-1.74 24.031-13.15 28.172l-57.8 20.988-7.5-20.66 21.96-.879c.33 8.031.49 15.961.49 23.762.06 122.098-39.81 211.617-79.89 270.008-40.08 58.48-80.14 86.28-81.7 87.37-10 6.88-23.69 4.36-30.58-5.64-6.88-10-4.35-23.69 5.65-30.57z" fill="#351f17" transform="matrix(.13 0 0 -.13 -93.7475 486.5206)"/><path d="m1208.94 1084.98 12.02 2.32-12.03-2.26.01-.06 12.02 2.32-12.03-2.26c0-.01.16-.87.42-2.62.77-5.25 2.33-18.17 2.33-36.73 0-31.28-4.43-78.491-24.31-132.268-19.9-53.801-55.1-114.274-117.53-172.82-6.97-6.543-8.92-16.891-4.8-25.52l26.52-55.473c5.23-10.949 18.36-15.589 29.31-10.347 10.96 5.226 15.6 18.359 10.37 29.316l-26.52 55.461-19.84-9.48 15.04-16.039c67.51 63.261 106.7 130.019 128.7 189.66 22.03 59.66 27.02 112.12 27.02 147.51 0 28.92-3.32 46.51-3.53 47.63-2.31 11.92-13.83 19.71-25.75 17.41-11.93-2.3-19.72-13.83-17.42-25.75z" fill="#351f17" transform="matrix(.13 0 0 -.13 -95.6051 486.5356)"/><path d="m2108.86 1722.61v-.07c0-2.64-2.05-64.57-21.98-123.18-9.86-29.31-24.19-57.47-43.27-77.15-9.53-9.88-20.15-17.72-32.24-23.18-12.11-5.45-25.77-8.62-42.09-8.64-28.61-.04-65.91 10.17-113.14 37.79-10.49 6.12-23.95 2.59-30.08-7.89-6.12-10.49-2.58-23.95 7.9-30.07 51.7-30.2 96.24-43.76 135.32-43.8 22.52-.02 43.05 4.64 61.02 12.91 31.56 14.51 54.59 39.42 71.36 66.99 25.15 41.5 37.4 89.82 44.02 128.11 6.53 38.27 7.11 66.54 7.14 67.29.24 12.14-9.4 22.18-21.54 22.42-12.13.25-22.17-9.39-22.42-21.53z" fill="#351f17" transform="matrix(.13 0 0 -.13 -92.8422 484.1464)"/><path d="m2146.04 1746.01-23.52 34.52c-6.84 10.03-20.51 12.62-30.55 5.78-10.03-6.83-12.62-20.51-5.78-30.54l23.52-34.52c6.84-10.04 20.51-12.63 30.55-5.79 10.03 6.84 12.62 20.51 5.78 30.55" fill="#351f17" transform="matrix(.13 0 0 -.13 -92.4143 483.6357)"/><path d="m2149.21 1728.31 10.11 40.55c2.94 11.78-4.24 23.71-16.02 26.65s-23.71-4.23-26.64-16.02l-10.11-40.55c-2.94-11.78 4.23-23.71 16.01-26.65 11.78-2.93 23.71 4.24 26.65 16.02" fill="#351f17" transform="matrix(.13 0 0 -.13 -92.3609 483.617)"/><path d="m2138.1 1714.16 36.98 19.43c10.75 5.64 14.89 18.93 9.25 29.68-5.65 10.75-18.94 14.89-29.69 9.24l-36.98-19.42c-10.76-5.65-14.89-18.94-9.25-29.69 5.65-10.75 18.94-14.88 29.69-9.24" fill="#351f17" transform="matrix(.13 0 0 -.13 -92.3081 483.6542)"/><path d="m1307.24 1590.11c-22.31 0-38.12 10.4-47 30.89-2.43 5.61-5.08 11.22-7.75 16.86-6.54 13.81-13.3 28.09-17.18 43.12-12.7 49.19-99.57 404.99-125.69 538.72-2.41 12.33-4.9 24.81-7.42 37.38-11.54 57.72-23.47 117.41-29.86 174.94l-.57 5.18c-3.83 34.01-6.36 56.48 28.82 80.74 12.06 8.32 49.03 29.89 74.89 29.89 7.78 0 14.25-1.93 19.25-5.72 11.35-8.64 32.94-89.99 100.38-378.46 15.38-65.8 28.66-122.61 33.94-141.63 9.27-33.35 16.76-67.62 24-100.77 5.27-24.16 10.73-49.15 16.81-73.44l5.99-23.77c11.84-46.77 24.06-95.13 31.72-143.96.48-3.1 1.65-7.77 2.96-13.05 4.95-20.05 8.19-34.96 4.81-44.19-6.8-18.56-30.69-21.01-46.51-22.63-2.76-.28-5.27-.53-7.33-.86-5.77-.9-11.82-2.29-17.97-3.69-11.94-2.73-24.3-5.55-36.29-5.55" fill="#f9ad27" transform="matrix(.13 0 0 -.13 -95.3247 482.5661)"/><path d="m1175.49 2558.13c-34.36 0-80.29-31.38-80.75-31.7-40.27-27.77-37.15-55.4-33.22-90.39l.57-5.14c6.45-58 18.42-117.9 30-175.84 2.51-12.56 5-25.02 7.41-37.35 26.16-133.9 113.12-490.08 125.83-539.31 4.12-15.98 11.1-30.71 17.84-44.95 2.62-5.53 5.23-11.04 7.62-16.55 7.33-16.92 23.07-37.1 56.46-37.1 13.14 0 26.07 2.96 38.58 5.81 6.16 1.4 11.98 2.73 17.27 3.56 1.9.3 4.22.53 6.78.79 17.25 1.77 46.14 4.73 55.14 29.35 4.39 11.99 1.07 27.66-4.48 50.19-1.19 4.79-2.42 9.75-2.79 12.15-7.73 49.33-20.02 97.92-31.91 144.92-1.99 7.91-3.99 15.82-5.98 23.74-6.04 24.15-11.48 49.05-16.74 73.15-7.28 33.28-14.79 67.7-24.14 101.32-5.22 18.81-18.48 75.54-33.84 141.21-79.64 340.69-91.27 374.51-104.18 384.32-6.82 5.19-15.39 7.82-25.47 7.82m0-20.61c5.16 0 9.65-1.08 13-3.62 16.67-12.67 113.35-452.42 130.63-514.64 15.94-57.35 26.29-116.21 40.74-173.96 13.84-55.31 28.68-110.35 37.52-166.82 1.76-11.29 11.9-42.23 8.28-52.09-5.56-15.2-33.24-14.89-45.76-16.85-16.74-2.62-35.8-9.12-52.65-9.12-15.56 0-29.24 5.52-37.54 24.68-8.33 19.22-19.25 38.41-24.42 58.45-12.15 47.05-99.63 405.39-125.55 538.12-13.46 68.8-29.43 141.9-37.15 211.49-4.06 36.81-7.77 54.49 23.85 76.3 12.13 8.37 46.9 28.06 69.05 28.06" fill="#351f17" transform="matrix(.13 0 0 -.13 -95.3247 482.5661)"/><path d="m1208.95 2340.79c-20.1 83.65-39.38 160.29-50.71 193.85 6.13 1.78 12.03 2.87 17.24 2.87 5.17 0 9.66-1.07 13.01-3.61 7.19-5.47 29.27-90.42 53.45-190.26-1.18.15-2.38.27-3.58.35-1.56.1-3.28.16-5.1.16h-.01c-7.62 0-16.01-1.02-24.3-3.36" fill="#f69516" transform="matrix(.13 0 0 -.13 -95.4617 481.3395)"/><path d="m1610.79 1576.8c-21.03 0-34.57 4.84-41.39 14.8-8.06 11.76-2.94 95.74 23.79 390.66 6.11 67.37 11.39 125.56 12.36 145.29 1.69 34.59 5.38 69.49 8.94 103.25 2.6 24.57 5.29 49.98 7.16 74.94l1.77 24.09c3.48 48.23 7.1 98.1 15.24 146.99.49 3.03.84 7.74 1.25 13.09 1.61 20.7 3.21 35.95 9.37 43.67 5.53 6.99 14.2 10.54 25.73 10.54 8.87 0 18.09-2.04 25.49-3.68 2.7-.6 5.16-1.15 7.22-1.49 5.76-.95 11.94-1.54 18.21-2.14 28.37-2.72 67.22-6.46 71.12-50.27 1.88-20.94-27.79-477.93-45.4-615.7-1.61-12.59-3.18-25.34-4.78-38.19-7.19-58.29-14.63-118.56-26.67-175.05l-1.09-5.13c-7.07-33.48-11.75-55.61-52.75-67.55-9.64-2.81-33.66-8.12-55.57-8.12" fill="#f9ad27" transform="matrix(.13 0 0 -.13 -93.8576 482.5998)"/><path d="m1675.02 2554.43h-.01c-18.49 0-28.6-7.86-33.82-14.46-7.97-10.01-9.74-26.01-11.55-49.27-.38-4.84-.77-9.85-1.16-12.24-8.21-49.31-11.84-99.42-15.35-147.89-.57-8.02-1.16-16.04-1.75-24.06-1.87-24.8-4.54-50.13-7.14-74.62-3.58-33.9-7.29-68.96-8.99-103.84-.95-19.52-6.23-77.6-12.32-144.86-31.58-348.3-31.19-384.06-22.02-397.43 8.87-12.96 25.18-19.27 49.87-19.27 23.09 0 48.34 5.58 58.46 8.53 46.93 13.67 52.67 40.88 59.96 75.32l1.07 5.09c12.14 56.95 19.61 117.45 26.84 175.96 1.58 12.83 3.16 25.57 4.76 38.14 16.27 127.25 47.77 592.01 45.45 617.93-4.65 52.34-52.08 56.89-80.41 59.61-6.29.6-12.22 1.18-17.5 2.05-1.91.32-4.18.83-6.68 1.39-7.9 1.74-17.72 3.92-27.71 3.92m-.01-20.61c10.96 0 23.49-3.79 31.03-5.04 32.13-5.33 76.89.2 80.75-43.16 1.86-20.87-28.22-479.3-45.36-613.47-8.89-69.52-16.72-143.94-31.31-212.41-7.75-36.23-9.78-54.19-46.64-64.92-10.08-2.94-32.84-7.71-52.7-7.71-14.56 0-27.57 2.57-32.87 10.31-11.84 17.27 34.77 465.12 37.93 529.62 2.91 59.44 11.63 118.56 16.09 177.93 4.26 56.85 7.5 113.76 16.9 170.16 1.84 11.29 1.97 43.81 8.51 52.04 3.99 5.02 10.49 6.65 17.67 6.65" fill="#351f17" transform="matrix(.13 0 0 -.13 -93.8611 482.5998)"/><path d="m1738.67 2289.65c8.01 117.14 13.64 215.09 12.81 224.48-.31 3.34-.92 6.32-1.69 9.12 18.92-3.94 34.53-12.58 36.94-37.03 0-.01 0-.02 0-.03.01-.04.01-.08.02-.12 0-.01 0-.01 0-.02 0-.04 0-.08.01-.12 0-.01 0-.02 0-.03.01-.03.01-.07.01-.11 0-.01 0-.02 0-.03.01-.04.01-.09.02-.14.05-.62.08-1.63.08-3.01 0-12.07-2.08-52.39-5.45-107.44-21.61-13.32-27.78-34.26-35.09-59l-1.47-4.93c-2.13-7.14-4.19-14.34-6.19-21.59" fill="#f69516" transform="matrix(.13 0 0 -.13 -93.5901 481.4485)"/><path d="m1781.42 2375.17c3.37 55.05 5.45 95.37 5.45 107.44 0-12.07-2.08-52.39-5.45-107.44zm5.35 110.59v.03c0-.01 0-.02 0-.03m-.01.14v.03s0-.02 0-.03m-.01.15v.02s0-.01 0-.02m-.02.14v.03c0-.01 0-.02 0-.03" fill="#361d10" transform="matrix(.13 0 0 -.13 -93.5182 481.361)"/><path d="m1178.59 1438.62c-58.75 0-80.2 117.62-95.86 203.51-2.76 15.15-5.27 28.93-7.69 40.23-1.86 8.62-6.2 27.76-12.22 54.26-33.16 146.1-110.828 488.23-115.359 577.9-3.035 60.73 39.734 95.53 77.289 106.88 6.24 1.89 12.17 2.85 17.66 2.85 43.13 0 57.82-53.93 67.58-140.94 9.8-87.45 44.03-251.34 74.23-395.94 15.51-74.25 30.15-144.38 38.62-191.01 1.16-6.45 2.45-13.31 3.81-20.48 11.03-58.61 26.12-138.88 11.92-193.53-7.07-27.13-35.46-39.69-51.12-42.84-2.97-.6-5.95-.89-8.86-.89" fill="#fbd23d" transform="matrix(.13 0 0 -.13 -95.8179 483.0259)"/><path d="m1042.41 2434.56c-6.49-.01-13.45-1.11-20.65-3.29-41.115-12.43-87.932-50.6-84.592-117.26 4.57-90.57 82.382-433.31 115.602-579.67 6-26.45 10.34-45.54 12.19-54.16 2.36-11.06 4.92-25.07 7.64-39.9 17.21-94.44 38.65-211.97 105.99-211.97 3.59 0 7.25.36 10.88 1.09 18.02 3.62 50.73 18.29 59.08 50.34 14.78 56.9-.56 138.48-11.77 198.04-1.35 7.15-2.64 13.99-3.79 20.42-8.5 46.76-23.16 116.96-38.67 191.27-30.16 144.38-64.33 308.02-74.09 394.99-8.51 75.95-21.53 150.1-77.82 150.1m0-20.62c31.7 0 47-39.56 57.34-131.78 15.09-134.59 88.6-453.52 112.94-587.64 10.63-58.64 31.22-150.65 15.9-209.58-5.71-21.94-29.8-32.64-43.17-35.32-2.33-.47-4.61-.7-6.83-.7-59.85 0-78.42 165.36-93.47 235.59-11.68 54.39-122.034 524.97-127.366 630.53-2.969 59.4 41.242 87.81 69.966 96.5 5.26 1.58 10.15 2.4 14.69 2.4" fill="#351f17" transform="matrix(.13 0 0 -.13 -95.8166 483.0259)"/><path d="m1119.84 2007.2c-22.17 108.25-42.74 214.71-49.95 279.04-8.09 72.25-19.25 112.15-38.93 126.05 4.02 1 7.82 1.5 11.41 1.5 30.53 0 45.92-36.64 56.23-121.82.39-3.2.77-6.47 1.15-9.81 4.7-41.9 15.06-101.69 27.84-168.19-.49-6.3-.97-12.33-1.46-18.05-2.05-24.15-4.14-54.61-6.29-88.72" fill="#f8b417" transform="matrix(.13 0 0 -.13 -95.8651 482.095)"/><path d="m1099.75 2282.16c-.38 3.34-.76 6.61-1.15 9.81.39-3.2.77-6.47 1.15-9.81" fill="#361d10" transform="matrix(.13 0 0 -.13 -95.8021 481.8378)"/><path d="m1384.94 1594.24c-63.57 0-69.77 123.94-74.3 214.44-.78 15.46-1.48 29.51-2.42 41.06-.72 8.87-2.56 28.62-5.11 55.99-13.86 149.03-46.33 498.04-39.13 587.41 4.86 60.59 51.78 89.54 90.49 95.92 3.86.63 7.58.95 11.06.95 12.71 0 23.34-4.26 31.57-12.65 18.48-18.82 25.42-58.31 23.95-136.3-1.66-88.03 10.98-255.03 22.12-402.38 5.72-75.57 11.12-146.96 13.44-194.26.32-6.52.7-13.45 1.11-20.7 3.31-59.58 7.84-141.17-13.36-193.54-10.5-25.98-40.31-34.75-56.26-35.83-1.07-.07-2.12-.11-3.16-.11" fill="#f9ad27" transform="matrix(.13 0 0 -.13 -94.9275 482.4956)"/><path d="m1365.54 2600.32h-.01c-4.05 0-8.32-.37-12.74-1.09-42.37-6.98-93.76-38.74-99.08-105.27-7.28-90.25 25.25-439.88 39.14-589.18 2.55-27.35 4.39-47.11 5.1-55.87.92-11.33 1.63-25.62 2.38-40.74 4.75-94.64 11.23-224.24 84.61-224.24 1.26 0 2.55.04 3.85.13 18.36 1.25 52.71 11.55 65.13 42.26 22.06 54.49 17.45 137.42 14.09 197.98-.39 7.22-.78 14.13-1.1 20.62-2.34 47.45-7.74 118.9-13.46 194.55-11.13 147.11-23.74 313.86-22.08 401.39 1.53 82.14-6.02 122.43-26.91 143.72-10.24 10.45-23.35 15.74-38.92 15.74m-.01-20.61c35.77 0 47.05-40.47 45.22-138.46-2.56-135.43 28.87-461.19 35.57-597.34 2.91-59.53 11.33-153.44-11.52-209.86-8.49-21.02-33.79-28.5-47.4-29.42l-2.46-.08c-63.92 0-60.49 172.7-66.44 246.03-4.5 55.43-52.74 536.38-44.24 641.73 4.74 59.29 52.3 81.7 81.89 86.57 3.3.55 6.43.83 9.38.83" fill="#351f17" transform="matrix(.13 0 0 -.13 -94.9288 482.4969)"/><path d="m1383.26 2360.27c-1.39 34.29-2.02 64.65-1.56 88.91 1.35 72.68-4.51 113.69-22.23 130.04 2.08.23 4.07.35 6 .35 32.61 0 44.94-33.59 45.45-113.88.05-7.72-.01-15.86-.17-24.44-.1-5.29-.15-10.87-.15-16.72.01-16.08.37-34.2 1.03-53.87-10.45-3-20.39-6.9-28.37-10.39" fill="#f69516" transform="matrix(.13 0 0 -.13 -94.8515 481.2296)"/><path d="m1410.6 2424.53c0 5.85.05 11.43.15 16.72.16 8.58.22 16.72.17 24.44.05-7.71-.01-15.86-.17-24.44-.1-5.29-.15-10.87-.15-16.72" fill="#361d10" transform="matrix(.13 0 0 -.13 -94.7601 481.3143)"/><path d="m1135.87 1343.39c-15.7 0-28.01 5.05-36.55 15.02-17.48 20.37-19.62 61.1-7.39 140.59 13.41 87.04 23.21 254.3 31.86 401.88 4.42 75.6 8.61 147.01 12.62 194.17.54 6.45 1.08 13.3 1.65 20.48 4.66 59.54 11.04 141.09 39.11 190.2 11.8 20.73 36.71 28.12 56.07 28.12 1.58 0 3.07-.05 4.46-.15 12.14-.81 22.46-6.05 30.65-15.58 31.81-36.97 23.53-135.41 17.48-207.28-1.29-15.37-2.47-29.35-3.09-40.9-.46-8.81-1.27-28.42-2.39-55.57-6.17-149.69-20.61-500.24-39.68-587.96-12.92-59.37-63.3-81.81-102.52-82.99z" fill="#fbd23d" transform="matrix(.13 0 0 -.13 -95.5105 483.3406)"/><path d="m1233.26 2344.15h-.01c-22.27 0-51.05-8.76-65.05-33.34-29.2-51.08-35.68-133.96-40.43-194.48-.55-7.15-1.09-13.98-1.64-20.41-4.01-47.29-8.2-118.77-12.63-194.44-8.64-147.35-18.42-314.36-31.76-400.91-12.91-83.9-10.18-125.64 9.74-148.87 10.61-12.36 25.53-18.62 44.39-18.62l2.57.03c42.95 1.3 98.12 25.93 112.31 91.1 19.25 88.6 33.72 439.77 39.89 589.73 1.13 27.1 1.94 46.66 2.4 55.46.6 11.32 1.79 25.53 3.06 40.58 8.04 95.53 12.08 177.64-19.93 214.87-9.92 11.53-23 18.15-37.81 19.14-1.56.1-3.28.16-5.1.16m-.02-20.61c1.33 0 2.59-.05 3.75-.12 66.46-4.42 39.42-178.55 35.46-252.93-2.94-55.55-19.4-538.62-41.84-641.89-12.66-58.13-62.77-73.97-92.77-74.88l-1.97-.03c-42.01 0-49.65 40.47-33.75 143.74 20.62 133.87 33.02 460.92 44.56 596.75 5.04 59.38 9.23 153.58 39.43 206.43 10.26 18.01 32.92 22.93 47.13 22.93" fill="#351f17" transform="matrix(.13 0 0 -.13 -95.5066 483.3406)"/><path d="m1253.49 2099.9c.15 3.33.28 6.08.4 8.2 2.71 51.02 16.29 148.92 3.11 206.84 18.99-17.1 24.28-57.87 24.2-103.05-3.95-2.47-6.86-5.35-8.97-8.02-7.93-9.97-9.72-25.88-11.53-49-.39-4.93-.78-10.02-1.19-12.43-2.34-14.14-4.32-28.34-6.02-42.54" fill="#f8b417" transform="matrix(.13 0 0 -.13 -95.2455 482.1046)"/><path d="m1653.38 1569.08c-42.46 0-58.04 53.41-69.41 139.59-11.51 87.25-48.93 250.43-81.96 394.4-16.95 73.94-32.98 143.78-42.35 190.24-1.28 6.35-2.69 13.09-4.16 20.14-12.2 58.46-28.92 138.52-15.76 193.51 6.52 27.3 34.66 40.39 50.27 43.83 3.23.71 6.48 1.07 9.67 1.07 58.09 0 81.72-116.4 98.97-201.39 3.08-15.17 5.87-28.97 8.53-40.26 2.05-8.72 6.87-28.2 13.55-55.17 35.94-145.15 120.11-485.07 126.35-574.38 4.24-60.62-37.84-96.28-75.17-108.39-6.64-2.15-12.7-3.19-18.53-3.19" fill="#f9ad27" transform="matrix(.13 0 0 -.13 -94.1595 482.6011)"/><path d="m1499.69 2562.17c-3.94 0-7.94-.44-11.92-1.32-17.93-3.95-50.36-19.24-58.06-51.51-13.68-57.22 3.3-138.59 15.7-198 1.47-7.03 2.87-13.74 4.14-20.07 9.41-46.59 25.44-116.49 42.42-190.5 32.97-143.75 70.33-306.68 81.79-393.45 9.91-75.16 24.23-148.55 79.62-148.55 6.83 0 14.13 1.24 21.7 3.69 40.88 13.27 86.93 52.36 82.28 118.92-6.3 90.2-90.62 430.73-126.62 576.14-6.68 26.96-11.5 46.43-13.52 55.04-2.61 11.08-5.45 25.1-8.47 39.94-18.95 93.42-42.56 209.67-109.06 209.67m0-20.61c59.35 0 81.05-164.04 97.46-233.71 12.71-54.15 132.28-522.48 139.65-627.91 4.15-59.34-39.5-88.59-68.07-97.86-5.5-1.78-10.61-2.7-15.35-2.7-31.2 0-47.15 39.36-59.18 130.64-17.73 134.28-97.47 451.72-124.43 585.33-11.8 58.42-34.16 150.01-20 209.21 5.26 22.05 29.15 33.23 42.46 36.16 2.55.56 5.04.84 7.46.84" fill="#351f17" transform="matrix(.13 0 0 -.13 -94.1608 482.6011)"/><path d="m1589.07 2345.81c-6.09.93-13.28 1.9-20.6 1.9-.58 0-1.14 0-1.7-.02-11.35 51.78-25.72 141.54-52.94 190.5 34.07-16.43 53.86-91.07 67.81-156.35 2.67-12.5 5.13-24.68 7.43-36.03" fill="#f69516" transform="matrix(.13 0 0 -.13 -94.2985 481.33)"/><path d="m1589.07 2345.81c-2.3 11.35-4.76 23.53-7.43 36.03 2.67-12.51 5.13-24.68 7.43-36.03" fill="#361d10" transform="matrix(.13 0 0 -.13 -94.1868 481.5866)"/><path d="m1733 1420.83c-10.14 0-20.76 3.27-29.31 5.89-2.64.81-5.03 1.55-7.05 2.06-5.66 1.41-11.79 2.49-18 3.6-28.04 4.98-66.46 11.8-66.86 55.78-.05 6.16-.31 12.4-.57 18.65-.63 15.23-1.29 30.98.98 46.3 7.47 50.23 66.08 411.66 94.11 545.13 2.63 12.51 5.23 25.18 7.87 37.94 11.83 57.45 24.05 116.86 40.59 172.13l1.46 4.94c9.69 32.85 16.09 54.56 57.97 63.19 9.99 2.06 27.21 4.13 43.14 4.13 28.5 0 45.82-6.07 52.97-18.56 7.09-12.35-4.7-95.6-54.92-387.24-11.49-66.79-21.43-124.47-23.96-144.08-4.45-34.19-10.88-68.53-17.1-101.75-4.58-24.43-9.32-49.71-13.2-74.59l-3.77-24.35c-7.32-47.63-14.91-96.9-26.88-144.82-.74-2.99-1.47-7.69-2.32-13-3.26-20.49-6.08-35.54-12.81-42.73-5.34-5.72-12.85-8.62-22.34-8.62" fill="#fbd23d" transform="matrix(.13 0 0 -.13 -93.592 483.131)"/><path d="m1857.33 2390.88c-17.8 0-35.47-2.34-45.22-4.34-47.93-9.89-55.8-36.58-65.78-70.37l-1.47-4.93c-16.64-55.68-28.92-115.31-40.8-172.98-2.61-12.75-5.22-25.4-7.85-37.89-28.07-133.66-86.74-495.46-94.22-545.73-2.41-16.31-1.74-32.55-1.07-48.25.25-6.15.51-12.27.55-18.3.47-52.56 47.36-60.88 75.37-65.86 6.23-1.11 12.1-2.15 17.3-3.45 1.87-.47 4.08-1.17 6.52-1.92 8.71-2.67 20.65-6.34 32.35-6.34 15.51 0 24.8 6.47 29.86 11.88 8.75 9.37 11.8 25.15 15.47 48.15.76 4.82 1.55 9.81 2.14 12.17 12.08 48.34 19.7 97.85 27.06 145.71 1.25 8.11 2.5 16.21 3.77 24.32 3.85 24.74 8.57 49.93 13.13 74.29 6.25 33.36 12.71 67.84 17.2 102.32 2.51 19.4 12.42 76.98 23.91 143.66 59.29 344.43 61.75 380.08 53.69 394.14-9.14 15.95-29.4 23.72-61.91 23.72m0-20.62c19.09 0 38.1-3.01 44.03-13.37 10.42-18.15-71.87-460.84-80.17-524.88-7.67-59.03-21.09-117.26-30.25-176.07-8.82-56.33-16.61-112.81-30.47-168.26-2.76-11.1-5.49-43.53-12.66-51.2-3.69-3.94-8.96-5.34-14.8-5.34-11.7 0-25.69 5.59-33.87 7.64-31.6 7.89-76.66 5.95-77.05 49.47-.17 20.95-2.73 42.87.29 63.35 7.15 48.07 66.21 412.17 94.01 544.53 14.43 68.59 28.18 142.15 48.24 209.22 10.57 35.5 14.02 53.24 51.64 61 8.24 1.69 24.69 3.91 41.06 3.91" fill="#351f17" transform="matrix(.13 0 0 -.13 -93.5972 483.131)"/><path d="m1793.93 1868.86c10.17 70.66 73.4 413.95 79.88 500.5 12.59-1.5 23.27-5.12 27.5-12.38 0 0 0 0 0-.01.02-.02.03-.05.05-.08.62-1.08.91-3.67.91-7.59-.03-54.21-56.1-363.46-75.35-480.3z" fill="#f8b417" transform="matrix(.13 0 0 -.13 -93.303 482.4043)"/><path d="m1826.92 1869c19.25 116.84 75.32 426.09 75.35 480.3-.03-54.21-56.1-363.46-75.35-480.3zm74.39 487.97v.01s0 0 0-.01" fill="#361d10" transform="matrix(.13 0 0 -.13 -93.248 482.4187)"/><path d="m1496.61 1398.9c-27.35 0-44.43 11.63-52.22 35.56-1.89 5.82-4 11.65-6.13 17.51-5.2 14.36-10.58 29.21-13.04 44.55-7.07 44.23-60.83 412.45-74.22 548.2-1.23 12.36-2.52 24.88-3.83 37.49-6.06 58.69-12.32 119.38-13.22 177.4l-.09 5.25c-.6 34.2-1 56.8 36.28 77.61 11.44 6.38 46.73 22.91 72.37 22.91 10.12 0 18.08-2.6 23.65-7.73 10.5-9.67 24.29-92.71 64.18-386.29 9.09-66.94 16.96-124.75 20.41-144.18 6.09-34.08 10.3-68.92 14.38-102.61 2.97-24.54 6.04-49.92 9.8-74.67l3.62-23.64c7.4-47.86 15.04-97.36 18.05-146.9.2-3.07.91-7.76 1.71-13.08 3.07-20.52 4.91-35.74.65-44.64-8.53-17.82-32.53-18-48.42-18.13-2.77-.02-5.29-.03-7.38-.16-5.84-.35-12-1.17-18.25-1.98-9.29-1.22-18.91-2.47-28.3-2.47" fill="#fbd23d" transform="matrix(.13 0 0 -.13 -94.5767 483.1882)"/><path d="m1442.52 2375.69h-.01c-33.55 0-76.94-23.96-77.37-24.21-42.7-23.84-42.21-51.62-41.59-86.8l.09-5.23c.91-58.47 7.2-119.38 13.27-178.29 1.31-12.6 2.6-25.1 3.82-37.47 13.41-135.93 67.24-504.53 74.31-548.79 2.62-16.31 8.16-31.63 13.53-46.44 2.08-5.75 4.16-11.48 6.02-17.19 9.21-28.32 30.08-42.68 62.03-42.68 10.04 0 20 1.3 29.62 2.56 6.28.82 12.2 1.59 17.55 1.91 1.93.12 4.26.13 6.83.15 17.33.13 46.33.35 57.64 23.98 5.54 11.58 3.69 27.56.25 50.62-.73 4.82-1.48 9.81-1.63 12.23-3.02 49.96-10.71 99.69-18.13 147.79-1.22 7.87-2.44 15.74-3.63 23.61-3.73 24.6-6.8 49.9-9.76 74.36-4.09 33.84-8.33 68.82-14.46 103.19-3.42 19.22-11.26 76.93-20.34 143.75-47.11 346.72-55.48 381.5-67.42 392.49-7.53 6.94-17.84 10.46-30.62 10.46m-.01-20.61c6.92 0 12.79-1.44 16.67-5.01 15.39-14.19 70.1-461.12 81.43-524.7 10.45-58.59 15.19-118.16 24.13-177.02 8.56-56.37 18.11-112.56 21.57-169.61.72-11.42 7.89-43.17 3.36-52.65-6.99-14.6-34.49-11.68-47.13-12.45-14.49-.88-30.95-4.43-45.92-4.43-18.63 0-34.96 5.49-42.42 28.43-6.49 19.94-15.53 40.06-18.8 60.51-7.67 47.99-60.87 412.99-74.15 547.58-6.91 69.75-15.91 144.03-16.99 214.04-.57 37.03-2.62 54.98 30.91 73.7 12.13 6.76 45.12 21.6 67.34 21.61" fill="#351f17" transform="matrix(.13 0 0 -.13 -94.5767 483.1882)"/><path d="m1509.67 1814.82c-1.6 10.84-3.33 21.66-5.26 32.45-10.11 56.8-54.89 419.63-75.27 506.39 4.7.89 9.24 1.41 13.4 1.41 5.77 0 10.82-1.01 14.58-3.42.74-.47 1.43-1 2.06-1.58 9.58-8.83 34.37-185.2 54.47-332.51-1.34-32.95-2.66-66.94-2.14-100.64.24-15.2-.63-53.88-1.84-102.1" fill="#f8b417" transform="matrix(.13 0 0 -.13 -94.5607 482.5122)"/><path d="m1459.18 2350.07c-.63.58-1.32 1.11-2.06 1.58.74-.47 1.43-1 2.06-1.58" fill="#361d10" transform="matrix(.13 0 0 -.13 -94.6095 481.6318)"/><path d="m1554.95 1367.57c-16.57 0-28.24 4.15-34.67 12.35-8.81 11.23-9.12 95.36-1.42 391.41 1.75 67.61 3.27 126 2.97 145.75-.55 34.55.87 69.55 2.25 103.41 1.02 24.75 2.05 50.35 2.31 75.45l.22 24.54c.38 48.23.78 98.1 5.75 147.29.31 3.08.35 7.84.42 13.23.28 20.72.9 36.01 6.53 44.1 5.63 8.16 15.46 12.31 29.16 12.31 7.55 0 15.29-1.2 21.51-2.16 2.74-.43 5.23-.82 7.32-1.02 5.82-.59 12.03-.78 18.33-.97 28.47-.9 67.47-2.13 74.15-45.6 3.23-20.72 3.06-478.64-5.64-617.34-.79-12.63-1.53-25.42-2.28-38.3-3.43-58.67-6.99-119.34-15.36-176.53l-.74-5.16c-4.91-33.88-8.14-56.26-48.3-70.83-13.24-4.79-40.82-11.93-62.51-11.93" fill="#fbd23d" transform="matrix(.13 0 0 -.13 -94.1302 483.2937)"/><path d="m1568.47 2347.71c-17.3 0-29.96-5.65-37.66-16.78-7.28-10.47-8.03-26.51-8.33-49.79-.07-4.89-.14-9.94-.37-12.36-5.02-49.64-5.42-99.75-5.8-148.22-.08-8.17-.14-16.33-.23-24.5-.25-24.95-1.29-50.47-2.29-75.15-1.39-34-2.81-69.15-2.28-103.99.31-19.53-1.21-77.82-2.96-145.32-9.08-349.63-6.38-385.29 3.62-398.04 8.48-10.82 22.88-16.3 42.79-16.3 24.81 0 54.02 8.21 66.02 12.55 45.95 16.67 49.94 44.19 54.98 79.04l.74 5.13c8.44 57.65 12 118.55 15.45 177.44.74 12.87 1.49 25.64 2.28 38.26 8.03 128.11 9.53 593.91 5.54 619.57-7.99 51.91-55.58 53.41-84.01 54.31-6.33.19-12.29.38-17.62.92-1.94.2-4.25.56-6.78.95-6.58 1.02-14.74 2.28-23.09 2.28m0-20.61c10.05 0 20.98-2.45 27.8-3.13 32.4-3.27 76.71 5.14 83.33-37.88 3.21-20.71 2.72-480.12-5.74-615.12-4.39-69.95-7.41-144.72-17.55-213.99-5.39-36.64-6.27-54.7-42.36-67.78-11.04-4-37.76-11.33-58.99-11.33-11.69 0-21.71 2.22-26.57 8.41-12.92 16.47 4.73 466.39 3.74 530.96-.93 59.51 3.96 119.06 4.57 178.6.6 57 .17 114.01 5.92 170.9 1.13 11.38-.84 43.85 5.15 52.47 4.22 6.12 12.15 7.88 20.7 7.89" fill="#351f17" transform="matrix(.13 0 0 -.13 -94.1215 483.2937)"/><path d="m1673.56 1666.18h-38.65c.6 10.41 1.22 20.74 1.86 30.97 8.46 134.99 8.95 594.42 5.76 615.12-.51 3.32-1.33 6.25-2.27 8.98 14.31-2.02 26.95-6.79 34.07-19.21.01-.02.03-.04.04-.07 2.46-4.31 4.25-9.53 5.23-15.88 1.15-7.44 1.83-71.54 1.83-156.88 0-152.13-2.15-371.76-7.57-458.24-.1-1.59-.2-3.19-.3-4.79" fill="#f8b417" transform="matrix(.13 0 0 -.13 -93.9421 482.8223)"/><path d="m1673.56 1666.18c.1 1.6.2 3.2.3 4.79 5.42 86.48 7.57 306.11 7.57 458.24 0-152.13-2.15-371.76-7.57-458.24-.1-1.59-.2-3.19-.3-4.79m6.04 619.91c-.98 6.35-2.77 11.57-5.23 15.88 2.46-4.31 4.25-9.53 5.23-15.88m-5.23 15.88c-.01.03-.03.05-.04.07.01-.02.03-.04.04-.07" fill="#361d10" transform="matrix(.13 0 0 -.13 -93.8737 482.8543)"/><path d="m1241.81 1240.7c-21.02 0-34.54 4.84-41.37 14.79-8.06 11.78-2.94 95.81 23.81 390.9 6.09 67.26 11.36 125.34 12.33 145.05 1.7 34.52 5.38 69.36 8.94 103.06 2.6 24.64 5.29 50.12 7.17 75.14l1.72 23.66c3.51 48.36 7.12 98.38 15.27 147.42.51 3.11.87 7.91 1.3 13.34 1.61 20.58 3.22 35.73 9.34 43.43 5.53 6.99 14.19 10.53 25.73 10.53 8.85 0 18.07-2.03 25.48-3.67 2.71-.6 5.18-1.15 7.24-1.5 5.77-.95 11.95-1.54 18.22-2.14 28.37-2.73 67.22-6.46 71.09-50.28 1.86-20.97-27.82-478-45.41-615.69-1.62-12.63-3.2-25.42-4.79-38.31-7.19-58.26-14.63-118.5-26.67-174.95l-1.05-5c-7.04-33.54-11.7-55.7-52.77-67.66-9.65-2.81-33.69-8.12-55.58-8.12" fill="#fbd23d" transform="matrix(.13 0 0 -.13 -95.0928 483.7168)"/><path d="m1306.05 2218.33c-18.49 0-28.6-7.86-33.82-14.46-7.93-9.97-9.72-25.88-11.53-49-.39-4.93-.78-10.02-1.19-12.43-8.22-49.54-11.85-99.8-15.37-148.4-.57-7.88-1.14-15.76-1.74-23.63-1.85-24.87-4.54-50.27-7.13-74.83-3.57-33.83-7.27-68.82-8.98-103.63-.97-19.5-6.22-77.48-12.31-144.62-31.59-348.5-31.21-384.28-22.05-397.65 8.89-12.98 25.21-19.29 49.89-19.29 23.04 0 48.32 5.58 58.45 8.53 47 13.69 52.73 40.94 59.98 75.44l1.05 4.98c12.13 56.88 19.6 117.35 26.81 175.82 1.6 12.88 3.17 25.66 4.78 38.28 16.25 127.17 47.76 591.95 45.46 617.91-4.62 52.34-52.04 56.9-80.37 59.62-6.29.6-12.23 1.18-17.51 2.05-1.93.32-4.2.84-6.72 1.39-7.89 1.75-17.71 3.92-27.7 3.92m0-20.61c10.95 0 23.48-3.79 31.04-5.04 32.13-5.33 76.89.2 80.72-43.16 1.86-20.87-28.22-479.3-45.37-613.47-8.89-69.52-16.71-143.95-31.31-212.42-7.69-36.21-9.74-54.17-46.62-64.91-10.09-2.94-32.84-7.71-52.69-7.71-14.57 0-27.57 2.56-32.88 10.31-11.81 17.27 34.76 465.12 37.94 529.61 2.92 59.45 11.64 118.57 16.09 177.94 4.25 56.86 7.51 113.76 16.87 170.16 1.9 11.29 2.01 43.81 8.55 52.04 3.97 5.03 10.48 6.65 17.66 6.65" fill="#351f17" transform="matrix(.13 0 0 -.13 -95.095 483.7168)"/><path d="m1385.38 1666.18h-37.81c16.65 185.74 36.44 494.81 34.93 511.86-.29 3.34-.92 6.31-1.67 9.1 19.05-3.96 34.77-12.71 36.98-37.62.06-.62.08-1.63.08-3.01 0-34.53-17.06-300.33-32.51-480.33" fill="#f8b417" transform="matrix(.13 0 0 -.13 -94.8549 483.0458)"/><path d="m1427.34 988.559c-180.72.011-396.35 41.281-409.3 157.541-14.47 129.74-11.62 358.78-9.34 542.82.7 56.44 1.37 109.76 1.37 151.6 0 6.85 5.54 12.41 12.39 12.45l145.29.65c3.3 0 6.45-1.3 8.78-3.63 2.36-2.34 3.67-5.51 3.67-8.82v-187.43h514.59v189.83c0 6.86 5.54 12.42 12.4 12.45l137.01.61c6.57 0 12.02-5.11 12.42-11.68 4.18-67.31 40.04-659.47 12.09-722.68-40.64-91.87-257.24-133.711-441.3-133.711z" fill="#a3db7b" transform="matrix(.13 0 0 -.13 -94.6578 484.7267)"/><path d="m1844.2 1869.08h-.12l-136.95-.61c-13.7-.06-24.79-11.19-24.79-24.9v-177.39h-489.68v174.99c0 6.62-2.64 12.97-7.34 17.65-4.67 4.64-10.98 7.25-17.57 7.25h-.11l-145.24-.66c-13.7-.06-24.783-11.19-24.783-24.89 0-41.77-.664-95.04-1.367-151.44-2.285-184.38-5.137-413.86 9.41-544.36 8.03-72.04 83.99-111.49 146.3-131.89 72.29-23.682 170.09-36.709 275.38-36.709 194.28 0 409.63 43.629 452.76 141.109 5.34 12.09 19.54 44.19 5.87 392.84-6.66 169.75-16.82 334.02-16.92 335.66-.81 13.13-11.71 23.35-24.85 23.35m0-24.9s40.65-654.62 13.12-716.87c-35.92-81.21-235.7-126.3-429.98-126.3-195.64 0-385.72 45.78-396.93 146.47-18.97 170.17-7.89 519.9-7.89 693.04l145.23.65v-199.88h539.5v202.28z" fill="#351f17" transform="matrix(.13 0 0 -.13 -94.6578 484.728)"/><path d="m1427.39 1001.02c-176.86.01-349.16 37.4-388.93 118.96 74.84-41.35 199.87-60.76 327.3-60.75 194.21 0 393.97 45.08 429.88 126.28 22.49 50.83-.48 496.56-9.66 658.42l58.22.25s22.69-365.35 22.69-576.12c0-71.36-2.6-125.01-9.57-140.75-23.29-52.66-115.48-90.13-230.39-109.97-.12-.02-.25-.04-.37-.06-.05-.01-.09-.02-.13-.02-62.18-10.7-130.93-16.24-199.04-16.24" fill="#85d166" transform="matrix(.13 0 0 -.13 -94.6271 484.728)"/><path d="m1626.43 1017.26c.04 0 .08.01.13.02-.04-.01-.09-.02-.13-.02m.5.08c114.91 19.84 207.1 57.31 230.39 109.97 6.97 15.74 9.57 69.39 9.57 140.75 0-71.36-2.6-125.01-9.57-140.75-23.29-52.66-115.47-90.13-230.39-109.97m159.05 826.59 58.22.25-58.22-.26" fill="#2e2015" transform="matrix(.13 0 0 -.13 -93.6458 484.6936)"/><path d="m1124.59 1592.09c-6.88 0-12.45 5.57-12.45 12.45v236.4c0 6.85 5.54 12.41 12.39 12.45l49.85.23c3.3 0 6.45-1.3 8.78-3.63 2.36-2.33 3.68-5.51 3.68-8.82v-172.3h512.51v175.31c0 6.88 5.57 12.45 12.45 12.45h49.79c6.88 0 12.45-5.57 12.45-12.45v-239.64c0-6.88-5.57-12.45-12.45-12.45z" fill="#ef3644" transform="matrix(.13 0 0 -.13 -94.6517 483.7168)"/><path d="m1761.59 1869.08h-49.79c-13.75 0-24.91-11.15-24.91-24.9v-162.86h-487.61v159.85c0 6.63-2.64 12.97-7.33 17.65-4.66 4.64-10.98 7.25-17.57 7.25h-.11l-49.8-.24c-13.71-.06-24.78-11.19-24.78-24.89v-236.4c0-13.75 11.15-24.9 24.9-24.9h637c13.75 0 24.89 11.15 24.89 24.9v239.64c0 13.75-11.14 24.9-24.89 24.9zm0-24.9v-239.64h-637v236.4l49.79.23v-184.75h537.42v187.76z" fill="#351f17" transform="matrix(.13 0 0 -.13 -94.6617 483.7168)"/><path d="m1443.07 1190.1c-195.46 0-348.57 71.86-348.57 163.6s153.11 163.61 348.57 163.61c195.47 0 348.6-71.87 348.6-163.61s-153.13-163.6-348.6-163.6" fill="#fbd23d" transform="matrix(.13 0 0 -.13 -94.6617 484.951)"/><path d="m1443.07 1529.75c-93.23 0-181.25-16.5-247.87-46.46-72.97-32.8-113.15-78.83-113.15-129.59s40.18-96.78 113.14-129.59c66.63-29.96 154.65-46.46 247.88-46.46 93.24 0 181.28 16.5 247.91 46.46 72.96 32.81 113.14 78.83 113.14 129.59s-40.18 96.79-113.14 129.59c-66.63 29.96-154.67 46.46-247.91 46.46zm0-24.89c185.66 0 336.15-67.68 336.15-151.16s-150.49-151.15-336.15-151.15c-185.63 0-336.12 67.67-336.12 151.15s150.49 151.16 336.12 151.16" fill="#351f17" transform="matrix(.13 0 0 -.13 -94.6604 484.951)"/><path d="m1060.62 1565.65c-7.78 0-15.56 5.02-15.56 15.07v199.19c0 10.03 7.78 15.05 15.56 15.05s15.56-5.02 15.56-15.05c0-66.4 0-132.79 0-199.19 0-10.05-7.78-15.07-15.56-15.07" fill="#daf0c6" transform="matrix(.13 0 0 -.13 -95.9306 483.8703)"/><path d="m1060.62 1478.51c-7.78 0-15.56 5.02-15.56 15.06v2.07c0 10.04 7.78 15.05 15.56 15.05s15.56-5.01 15.56-15.05v-2.07c0-10.04-7.78-15.06-15.56-15.06" fill="#daf0c6" transform="matrix(.13 0 0 -.13 -95.9306 484.488)"/><path d="m993.164 2296.51c-.172 0-.344 0-.519 0-9.942.26-19.598 9.24-18.68 19.65 1.582 18.07 2.461 34.94 10.305 51.61 2.816 5.99 9.418 8.81 15.92 8.81 3.81 0 7.58-.97 10.53-2.83 9.65-6.08 10.43-17 5.96-26.45-4.45-9.52-3.48-21.9-4.37-32.1-.91-10.24-8.48-18.7-19.146-18.69" fill="#feecad" transform="matrix(.13 0 0 -.13 -96.148 481.6802)"/><path d="m1121.15 2425.67c-.17 0-.35.01-.52.01-9.97.25-19.59 9.25-18.7 19.65 1.6 18.07 2.47 34.94 10.31 51.61 2.81 5.99 9.42 8.81 15.92 8.81 3.8 0 7.57-.97 10.51-2.83 9.68-6.08 10.43-17.01 6-26.46-4.48-9.51-3.48-21.89-4.4-32.09-.88-10.24-8.48-18.7-19.12-18.7" fill="#fddb9f" transform="matrix(.13 0 0 -.13 -95.7141 481.2523)"/><path d="m1194.3 2223.37c-.17 0-.35 0-.53.01-9.96.24-19.61 9.24-18.68 19.64 1.59 18.08 2.47 34.94 10.28 51.61 2.81 5.99 9.42 8.81 15.93 8.81 3.81 0 7.58-.97 10.53-2.83 9.65-6.08 10.41-17 5.98-26.45-4.47-9.52-3.47-21.89-4.38-32.1-.91-10.23-8.49-18.69-19.13-18.69" fill="#feecad" transform="matrix(.13 0 0 -.13 -95.4736 481.922)"/><path d="m1309.05 2096.71c-.18 0-.36 0-.54.01-9.96.24-19.6 9.23-18.69 19.64 1.59 18.07 2.47 34.94 10.32 51.61 2.8 5.99 9.41 8.81 15.91 8.81 3.8 0 7.57-.97 10.51-2.83 9.67-6.09 10.43-17 5.99-26.45-4.48-9.52-3.49-21.9-4.38-32.1-.89-10.23-8.48-18.69-19.12-18.69" fill="#feecad" transform="matrix(.13 0 0 -.13 -95.0898 482.3462)"/><path d="m1572.58 2234.87c-.18 0-.35.01-.53.01-9.93.25-19.61 9.24-18.66 19.65 1.57 18.08 2.46 34.94 10.28 51.61 2.81 5.98 9.42 8.8 15.93 8.8 3.81 0 7.58-.96 10.53-2.82 9.66-6.08 10.41-17 5.96-26.45-4.45-9.52-3.47-21.9-4.37-32.1-.9-10.24-8.5-18.7-19.14-18.7" fill="#feecad" transform="matrix(.13 0 0 -.13 -94.2126 481.8883)"/><path d="m1798.5 2272.38c-.18 0-.35 0-.53.01-9.95.24-19.61 9.24-18.68 19.65 1.58 18.07 2.49 34.94 10.3 51.61 2.8 5.98 9.41 8.81 15.92 8.81 3.8 0 7.57-.97 10.52-2.83 9.67-6.09 10.44-17.01 5.98-26.45-4.47-9.53-3.47-21.9-4.38-32.1-.9-10.24-8.48-18.7-19.13-18.7" fill="#feecad" transform="matrix(.13 0 0 -.13 -93.4609 481.7546)"/><path d="m1372.12 2246.13c-.18 0-.36 0-.54.01-9.97.25-19.61 9.23-18.71 19.64 1.58 18.08 2.48 34.94 10.31 51.61 2.81 5.99 9.42 8.81 15.93 8.81 3.8 0 7.57-.97 10.52-2.83 9.67-6.08 10.42-17.01 5.98-26.46-4.48-9.51-3.48-21.89-4.4-32.09-.88-10.24-8.46-18.69-19.09-18.69" fill="#feecad" transform="matrix(.13 0 0 -.13 -94.8776 481.8408)"/><path d="m1317.92 2465.71c-.18 0-.36.01-.54.01-9.96.25-19.62 9.24-18.69 19.65 1.58 18.07 2.44 34.93 10.28 51.6 2.83 5.99 9.44 8.81 15.94 8.81 3.8 0 7.57-.97 10.52-2.83 9.65-6.08 10.41-17 5.97-26.45-4.47-9.52-3.48-21.9-4.39-32.1-.88-10.23-8.45-18.69-19.09-18.69" fill="#fddb9f" transform="matrix(.13 0 0 -.13 -95.0616 481.1162)"/><path d="m1478.17 2443.18c-.17 0-.34 0-.51 0-9.96.26-19.61 9.24-18.69 19.65 1.58 18.07 2.47 34.94 10.31 51.61 2.81 5.98 9.42 8.8 15.92 8.8 3.81 0 7.57-.96 10.52-2.82 9.65-6.08 10.41-17.01 5.96-26.46-4.47-9.51-3.46-21.89-4.38-32.09-.9-10.24-8.47-18.7-19.13-18.69" fill="#fddb9f" transform="matrix(.13 0 0 -.13 -94.528 481.1873)"/><path d="m1678.01 2443.16c-.18 0-.35.01-.53.01-9.94.26-19.6 9.25-18.68 19.66 1.59 18.07 2.47 34.94 10.28 51.61 2.81 5.98 9.43 8.8 15.93 8.8 3.81 0 7.58-.96 10.53-2.82 9.66-6.09 10.42-17.01 5.98-26.46-4.47-9.51-3.47-21.9-4.39-32.09-.88-10.24-8.47-18.71-19.12-18.71" fill="#fddb9f" transform="matrix(.13 0 0 -.13 -93.8659 481.186)"/><path d="m1448.14 1376.27c0-22.08-17.92-39.99-39.98-39.99-22.1 0-39.99 17.91-39.99 39.99s17.89 39.99 39.99 39.99c22.06 0 39.98-17.91 39.98-39.99" fill="#351f17" transform="matrix(.13 0 0 -.13 -94.7708 484.8751)"/><path d="m1403.26 1393.31c0-7.05-5.72-12.77-12.76-12.77-7.05 0-12.77 5.72-12.77 12.77 0 7.06 5.72 12.77 12.77 12.77 7.04 0 12.76-5.71 12.76-12.77" fill="#fff" transform="matrix(.13 0 0 -.13 -94.8337 484.8203)"/><path d="m1402.35 1373.86c0-2.66-2.14-4.81-4.81-4.81-2.64 0-4.79 2.15-4.79 4.81 0 2.64 2.15 4.81 4.79 4.81 2.67 0 4.81-2.17 4.81-4.81" fill="#fff" transform="matrix(.13 0 0 -.13 -94.8115 484.8918)"/><path d="m1411.15 1386.64c0-1.66-1.35-3-2.99-3-1.66 0-3.03 1.34-3.03 3 0 1.67 1.37 3.02 3.03 3.02 1.64 0 2.99-1.35 2.99-3.02" fill="#fff" transform="matrix(.13 0 0 -.13 -94.7682 484.8445)"/><path d="m1421.99 1336.28c0-4.92-15.66-8.91-35-8.91-19.31 0-34.98 3.99-34.98 8.91 0 4.93 15.67 8.91 34.98 8.91 19.34 0 35-3.98 35-8.91" fill="#f2547d" transform="matrix(.13 0 0 -.13 -94.84 485.0164)"/><path d="m1659.48 1376.27c0-22.08-17.91-39.99-39.99-39.99-22.09 0-39.98 17.91-39.98 39.99s17.89 39.99 39.98 39.99c22.08 0 39.99-17.91 39.99-39.99" fill="#351f17" transform="matrix(.13 0 0 -.13 -94.0637 484.8751)"/><path d="m1614.61 1393.31c0-7.05-5.72-12.77-12.76-12.77-7.05 0-12.77 5.72-12.77 12.77 0 7.06 5.72 12.77 12.77 12.77 7.04 0 12.76-5.71 12.76-12.77" fill="#fff" transform="matrix(.13 0 0 -.13 -94.1292 484.8203)"/><path d="m1613.69 1373.86c0-2.66-2.13-4.81-4.8-4.81-2.64 0-4.8 2.15-4.8 4.81 0 2.64 2.16 4.81 4.8 4.81 2.67 0 4.8-2.17 4.8-4.81" fill="#fff" transform="matrix(.13 0 0 -.13 -94.1057 484.8918)"/><path d="m1622.5 1386.64c0-1.66-1.35-3-3.01-3-1.65 0-3.02 1.34-3.02 3 0 1.67 1.37 3.02 3.02 3.02 1.66 0 3.01-1.35 3.01-3.02" fill="#fff" transform="matrix(.13 0 0 -.13 -94.0737 484.8445)"/><path d="m1674.06 1336.28c0-4.92-15.64-8.91-34.98-8.91-19.32 0-34.99 3.99-34.99 8.91 0 4.93 15.67 8.91 34.99 8.91 19.34 0 34.98-3.98 34.98-8.91" fill="#f2547d" transform="matrix(.13 0 0 -.13 -93.9991 485.0164)"/><path d="m1608.52 1441.44.23.08c1.27.44 7.59 2.41 15.88 2.41 10.47-.04 23.84-2.99 35.33-15.87 1.31-1.48 3.58-1.62 5.07-.3 1.48 1.32 1.62 3.59.3 5.07-13.05 14.7-28.9 18.31-40.7 18.27-10.76 0-18.37-2.85-18.62-2.94-1.86-.69-2.8-2.76-2.11-4.62.7-1.85 2.77-2.79 4.63-2.1" fill="#351f17" transform="matrix(.13 0 0 -.13 -94.0148 484.6674)"/><path d="m1420.07 1448.16c-.26.09-7.86 2.94-18.63 2.94-11.8.04-27.66-3.57-40.69-18.27-1.32-1.48-1.18-3.75.3-5.07 1.48-1.31 3.75-1.18 5.07.3 11.47 12.88 24.84 15.83 35.32 15.87 4.74 0 8.83-.64 11.71-1.28 1.44-.31 2.57-.63 3.33-.86l.85-.27.23-.08c1.85-.69 3.92.25 4.62 2.1.69 1.86-.25 3.93-2.1 4.62" fill="#351f17" transform="matrix(.13 0 0 -.13 -94.8256 484.6674)"/><path d="m1513.03 1302.13c-11.02 0-18.24 7.33-19.34 19.6-1.74 19.22.23 28.37 6.34 30 2.28.61 5.36.89 9.68.89 2.24 0 4.54-.08 6.64-.15 1.68-.05 3.22-.1 4.48-.1 10.41 0 10.45-7.27 10.48-12.57 0-1.06.01-2.19.07-3.4l.1-1.92c.49-8.63 1.17-20.43-5.33-27.3-3.16-3.35-7.58-5.05-13.12-5.05" fill="#f2547d" transform="matrix(.13 0 0 -.13 -94.4259 485.0394)"/><path d="m1509.71 1356.2c-4.64 0-8.01-.31-10.6-1.01-10.34-2.76-10.45-17.7-9.02-33.44 1.28-14.44 10.07-23.21 22.94-23.21 6.57 0 11.87 2.08 15.74 6.17 7.55 8 6.83 20.7 6.3 29.97l-.11 1.92c-.06 1.13-.06 2.21-.06 3.22-.03 4.83-.09 16.14-14 16.14-1.3 0-2.8.04-4.44.1-2.12.07-4.47.14-6.75.14zm0-7.17c4.06 0 8.28-.25 11.13-.25h.04.02c8.14 0 6.52-5.08 6.89-12.55.58-11.21 2.72-30.51-14.76-30.51-9.57 0-14.89 6.47-15.76 16.33-.38 4.15-2.39 24.59 3.69 26.21 2.26.6 5.45.77 8.75.77" fill="#351f17" transform="matrix(.13 0 0 -.13 -94.4233 485.0381)"/><path d="m1482.92 1353.09c.62-1.68 1.47-1.94 1.81-2.19l1.33-.45c1.06-.2 2.28-.27 4.12-.38 5.37-.27 14.99-.4 24.4-.4 6.37 0 12.63.06 17.35.19 2.36.06 4.33.14 5.79.23l1.87.18.9.18.81.32c.34.24 1.14.48 1.79 2.08.63 1.88-.38 3.91-2.26 4.55-1.87.63-3.91-.38-4.54-2.26l3.29-1.11-1.61 3.1c-.28-.21-1.05-.41-1.69-1.99l3.3-1.11-1.61 3.1 1.17-2.24-.49 2.5-.68-.26 1.17-2.24-.49 2.5c-.06-.02-1.18-.14-2.61-.2-4.41-.23-12.85-.34-21.46-.34-6.85 0-13.84.07-19.1.21-2.63.07-4.84.16-6.32.26l-1.59.15-.12.02-.34-1.73.62 1.64-.28.09-.34-1.73.62 1.64-1.13-3.02 1.81 2.67-.68.35-1.13-3.02 1.81 2.67-1.97-2.91 3.36 1c-.41 1.25-1.07 1.67-1.39 1.91l-1.97-2.91 3.36 1c-.57 1.9-2.56 2.98-4.46 2.42-1.9-.57-2.98-2.57-2.41-4.47" fill="#351f17" transform="matrix(.13 0 0 -.13 -94.4239 484.9497)"/><path d="m1513.03 1347.17v-19.8" fill="#f2547d" transform="matrix(.13 0 0 -.13 -94.4239 485.0051)"/><g fill="#351f17"><path d="m1509.44 1347.17v-19.8c0-1.99 1.6-3.59 3.59-3.59 1.97 0 3.58 1.6 3.58 3.59v19.8c0 1.98-1.61 3.58-3.58 3.58-1.99 0-3.59-1.6-3.59-3.58" transform="matrix(.13 0 0 -.13 -94.4239 485.0051)"/><path d="m868.313 1056.92.003.07c.047 2.6 3.207 63.79 23.895 121.73 10.254 28.98 24.891 56.85 44.059 76.34 9.585 9.79 20.199 17.56 32.199 22.95 12.015 5.38 25.48 8.51 41.471 8.53 7.6-.01 15.78-.73 24.61-2.33 11.94-2.17 23.38 5.75 25.56 17.7 2.17 11.94-5.76 23.39-17.7 25.56-11.25 2.04-22.07 3.03-32.47 3.03-22.213.02-42.522-4.59-60.335-12.76-31.285-14.34-54.335-38.89-71.32-66.09-25.472-40.95-38.426-88.69-45.64-126.52-7.133-37.82-8.231-65.75-8.266-66.49-.477-12.14 8.976-22.36 21.109-22.83 12.129-.48 22.348 8.98 22.828 21.11" transform="matrix(.13 0 0 -.13 -96.3233 485.5195)"/><path d="m830.703 1034.23 22.86-34.941c6.648-10.16 20.269-13.008 30.429-6.367 10.164 6.648 13.016 20.278 6.363 30.438l-22.859 34.94c-6.644 10.16-20.269 13.01-30.43 6.37-10.164-6.65-13.011-20.28-6.363-30.44" transform="matrix(.13 0 0 -.13 -96.5989 486.034)"/><path d="m827.871 1051.98-10.859-40.34c-3.16-11.718 3.789-23.788 15.511-26.941 11.723-3.16 23.79 3.789 26.946 15.511l10.859 40.34c3.156 11.73-3.789 23.79-15.515 26.95-11.723 3.15-23.79-3.79-26.942-15.52" transform="matrix(.13 0 0 -.13 -96.6571 486.043)"/><path d="m839.238 1065.92-37.324-18.73c-10.851-5.45-15.234-18.66-9.789-29.51 5.449-10.86 18.656-15.24 29.512-9.79l37.324 18.73c10.848 5.44 15.234 18.66 9.789 29.51-5.449 10.85-18.656 15.23-29.512 9.79" transform="matrix(.13 0 0 -.13 -96.6972 486.007)"/><path d="m2114.97 1732.69c.09-1.19 1.23-66.06 23.22-133.3 11.09-33.61 27.38-68.13 53.1-95.46 12.87-13.63 28.2-25.38 46.18-33.63 17.96-8.28 38.5-12.93 61.02-12.91 39.07.04 83.59 13.59 135.32 43.79 10.48 6.12 14.02 19.58 7.89 30.06-6.11 10.49-19.58 14.02-30.06 7.9-47.26-27.62-84.56-37.82-113.15-37.78-16.59.02-30.42 3.29-42.66 8.89-21.32 9.78-38.43 27.37-52.15 49.89-20.58 33.64-32.3 77.52-38.23 112.66-3 17.58-4.64 32.96-5.52 43.86-.44 5.45-.7 9.77-.83 12.69-.08 1.45-.12 2.56-.14 3.28l-.02.78-.01.17c-.25 12.14-10.29 21.78-22.43 21.54-12.13-.25-21.77-10.29-21.52-22.43" transform="matrix(.13 0 0 -.13 -91.8692 484.1138)"/><path d="m2158.06 1732.21 23.51 34.52c6.84 10.04 4.25 23.71-5.78 30.55-10.04 6.83-23.71 4.24-30.55-5.79l-23.52-34.52c-6.84-10.03-4.24-23.71 5.79-30.55 10.03-6.83 23.71-4.24 30.55 5.79" transform="matrix(.13 0 0 -.13 -92.2945 483.5905)"/><path d="m2161.23 1749.9-10.09 40.54c-2.94 11.78-14.87 18.96-26.65 16.02-11.78-2.93-18.95-14.86-16.02-26.64l10.08-40.54c2.94-11.78 14.87-18.95 26.65-16.02s18.96 14.86 16.03 26.64" transform="matrix(.13 0 0 -.13 -92.3505 483.5818)"/><path d="m2150.11 1764.06-36.98 19.42c-10.75 5.65-24.04 1.51-29.68-9.23-5.65-10.75-1.52-24.04 9.24-29.69l36.98-19.43c10.75-5.65 24.04-1.51 29.68 9.24 5.65 10.75 1.51 24.04-9.24 29.69" transform="matrix(.13 0 0 -.13 -92.392 483.6203)"/><path d="m2650.61 1068.62c-1.56-1.1-41.62-28.89-81.71-87.37-40.08-58.398-79.94-147.93-79.88-270.031 0-7.77.15-15.707.5-23.797l21.96.937-7.51 20.661-57.79-20.989c-11.41-4.152-17.3-16.761-13.15-28.172 4.14-11.41 16.76-17.3 28.17-13.16l57.79 20.992c8.98 3.27 14.86 12.059 14.46 21.61-.32 7.418-.46 14.719-.46 21.918.05 112.453 36.23 192.57 72.19 245.179 17.98 26.262 35.94 45.532 49.24 58.112 6.64 6.29 12.12 10.9 15.84 13.87 1.86 1.48 3.28 2.56 4.18 3.23l.97.7.17.12-3.08 4.39 3.04-4.41.04.02-3.08 4.39 3.04-4.41c10 6.88 12.52 20.57 5.64 30.57-6.89 10-20.57 12.52-30.57 5.64z" transform="matrix(.13 0 0 -.13 -90.9394 486.6022)"/><path d="m3022.01 1068.66c-.22-1.13-3.54-18.71-3.55-47.61 0-35.39 4.99-87.851 27.02-147.519 22.01-59.66 61.2-126.429 128.74-189.691l15.04 16.039-19.84 9.48-26.5-55.468c-5.24-10.961-.61-24.082 10.35-29.321 10.96-5.23 24.08-.59 29.32 10.36l26.5 55.468c4.12 8.633 2.17 18.993-4.8 25.524-62.44 58.558-97.65 119.027-117.56 172.84-19.87 53.789-24.3 101.008-24.3 132.288 0 12.76.74 22.85 1.45 29.61.36 3.38.71 5.93.95 7.56l.29 1.75.06.35.01.03-11.91 2.25 11.9-2.31.01.06-11.91 2.25 11.9-2.31c2.3 11.92-5.48 23.46-17.4 25.77-11.93 2.31-23.46-5.48-25.77-17.4z" transform="matrix(.13 0 0 -.13 -89.0805 486.6172)"/></g><path d="m2825.91 922.109c-249.42 0-391.84 101.971-395.89 137.241l-137.37 1482.68c-3.44 29.71 4.74 58.35 22.49 78.26 14.65 16.45 34.64 25.51 56.29 25.51h908.96c21.63 0 41.62-9.06 56.29-25.5 17.74-19.91 25.94-48.54 22.48-78.58l-137.29-1482.06c-4.63-39.91-167.42-137.551-395.96-137.551" fill="#ef3644" transform="matrix(.13 0 0 -.13 -90.0483 483.5235)"/><path d="m3280.39 2659.68h-908.96c-25.65 0-49.32-10.71-66.66-30.16-20.3-22.78-29.75-55.23-25.92-89.07l137.31-1482.08.03-.3.04-.31c4.96-43.14 97.48-85.76 115.98-93.862 57.94-25.398 155.93-55.668 293.7-55.668 230.55 0 403.61 96.99 409.71 149.5l.04.32.03.33 137.3 1482.08c3.81 33.84-5.65 66.3-25.96 89.07-17.32 19.45-40.99 30.15-66.64 30.15m0-27.76c41.37 0 70.59-39.88 64.98-88.61l-137.32-1482.37c-2.84-24.37-146.57-124.952-382.14-124.952-246.84 0-379.3 100.582-382.1 124.952l-137.35 1482.37c-5.62 48.73 23.61 88.61 64.97 88.61z" fill="#351f17" transform="matrix(.13 0 0 -.13 -90.0496 483.5248)"/><path d="m2825.91 935.988c-246.84 0-379.3 100.582-382.1 124.952l-3.27 35.31c64.29-30.17 162.59-58.4 293.35-58.4 235.54 0 379.29 100.57 382.09 124.95l17.65 190.49c34.34 3.84 68.62 8.38 102.76 13.63l-28.34-305.98c-2.84-24.37-146.57-124.952-382.14-124.952m372.99 1121.622 31.73 342.36c4.43.81 8.79 1.63 13.11 2.46 35.2 6.8 65.35 14.19 90.64 22.27l-32.56-351.45-7.21-1.2c-32.41-5.38-64.3-10.19-95.71-14.44" fill="#ed1f2d" transform="matrix(.13 0 0 -.13 -89.8398 483.8642)"/><path d="m2825.91 935.988c-246.84 0-379.3 100.582-382.1 124.952l-3.28 35.31h.01l3.27-35.31c2.8-24.37 135.26-124.952 382.1-124.952 235.57 0 379.3 100.582 382.14 124.952l28.34 305.98-28.34-305.98c-2.84-24.37-146.57-124.952-382.14-124.952m475.91 1137.262 32.56 351.45z" fill="#370f10" transform="matrix(.13 0 0 -.13 -89.8385 483.8642)"/><path d="m2825.91 2382.15c-296.7 0-597.05 43.29-597.05 126.04v112.79c0 7.32 5.92 13.25 13.24 13.25h1167.61c7.31 0 13.24-5.93 13.24-13.25v-112.79c0-38.26-61.14-69.46-181.72-92.76-111.07-21.46-258.56-33.28-415.32-33.28" fill="#bdbcbc" transform="matrix(.13 0 0 -.13 -90.047 481.1047)"/><path d="m3409.71 2647.47h-1167.61c-14.63 0-26.48-11.86-26.48-26.49v-112.79c0-46.79 61.15-80.39 192.45-105.76 111.87-21.62 260.27-33.52 417.84-33.52s305.96 11.9 417.83 33.52c131.3 25.37 192.45 58.97 192.45 105.76v112.79c0 14.63-11.85 26.49-26.48 26.49m0-26.49v-112.79c0-62.29-261.38-112.8-583.8-112.8s-583.81 50.51-583.81 112.8v112.79z" fill="#351f17" transform="matrix(.13 0 0 -.13 -90.047 481.1047)"/><path d="m2825.91 2494.94c-296.7 0-597.05 43.3-597.05 126.04 0 38.26 61.14 69.47 181.73 92.76 111.06 21.46 258.56 33.28 415.32 33.28 296.69 0 597.04-43.29 597.04-126.04 0-38.25-61.14-69.45-181.72-92.75-111.07-21.46-258.57-33.29-415.32-33.29" fill="#f4f4f4" transform="matrix(.13 0 0 -.13 -90.047 480.7274)"/><path d="m2825.91 2760.26c-157.57 0-305.97-11.9-417.84-33.51-131.3-25.37-192.45-58.98-192.45-105.77 0-46.78 61.15-80.39 192.45-105.76 111.87-21.61 260.27-33.52 417.84-33.52s305.96 11.91 417.83 33.52c131.3 25.37 192.45 58.98 192.45 105.76 0 46.79-61.15 80.4-192.45 105.77-111.87 21.61-260.26 33.51-417.83 33.51m0-26.48c322.42 0 583.8-50.5 583.8-112.8 0-62.29-261.38-112.79-583.8-112.79s-583.81 50.5-583.81 112.79c0 62.3 261.39 112.8 583.81 112.8" fill="#351f17" transform="matrix(.13 0 0 -.13 -90.047 480.7274)"/><path d="m2825.91 2562.62c-94.63 0-183.66 4.9-250.7 13.81-99.77 13.27-113.22 29.97-113.22 44.55 0 14.59 13.45 31.29 113.22 44.55 67.05 8.92 156.08 13.82 250.7 13.82s183.65-4.9 250.7-13.82c99.77-13.26 113.21-29.96 113.21-44.55 0-14.58-13.44-31.28-113.21-44.55-67.04-8.91-156.07-13.81-250.7-13.81" fill="#bdbcbc" transform="matrix(.13 0 0 -.13 -90.047 480.7287)"/><path d="m2825.91 2690.87c-95.11 0-184.68-4.94-252.22-13.92-89.82-11.95-123.22-27.11-123.22-55.97 0-28.85 33.4-44.02 123.22-55.96 67.53-8.98 157.1-13.92 252.22-13.92s184.69 4.94 252.22 13.92c89.82 11.94 123.22 27.11 123.22 55.96 0 28.86-33.4 44.02-123.22 55.97-67.54 8.98-157.11 13.92-252.22 13.92m0-23.03c194.62 0 352.4-20.98 352.4-46.86s-157.78-46.85-352.4-46.85-352.4 20.97-352.4 46.85 157.78 46.86 352.4 46.86" fill="#351f17" transform="matrix(.13 0 0 -.13 -90.0483 480.7274)"/><path d="m2955.33 2620.98c0-9.5-57.95-17.21-129.42-17.21-71.46 0-129.41 7.71-129.41 17.21 0 9.51 57.95 17.21 129.41 17.21 71.47 0 129.42-7.7 129.42-17.21" fill="#351f17" transform="matrix(.13 0 0 -.13 -90.0483 480.7274)"/><path d="m2824.63 2620.28c-18.68 0-37.08.69-53.18 2.02-7.21.59-12.76 6.61-12.76 13.84v672.78c0 2.95.29 5.63.68 8.27-3.72 26.34 8.87 52.66 31.85 66.09l430.47 255.59c2.21 1.3 4.65 1.94 7.09 1.94 3.52 0 6.99-1.33 9.65-3.9 4.5-4.36 5.53-11.18 2.52-16.67-.1-.17-12.43-23.55-2.17-41.12 9.43-16.13 36.41-26.14 46-28.63 5.43-1.4 9.49-5.94 10.27-11.49.79-5.54-1.83-11.03-6.64-13.89l-397.82-236.21v-652.76c0-7.23-5.55-13.25-12.76-13.84-16.1-1.33-34.5-2.02-53.2-2.02" fill="#fff" transform="matrix(.13 0 0 -.13 -89.3722 479.0315)"/><path d="m3228.77 3654.7-2.12-.08c-4.54-.35-8.78-1.78-12.44-4.05l-430.17-255.41c-27.09-15.83-42.26-46.71-38.67-77.91-.33-2.57-.56-5.31-.56-8.33v-650.41-22.37c0-14.46 11.09-26.49 25.49-27.67 16.49-1.36 35.27-2.08 54.33-2.08 19.07 0 37.86.72 54.34 2.08 14.41 1.18 25.49 13.21 25.49 27.67v22.37 622.49l391.03 232.18c9.66 5.73 14.9 16.71 13.32 27.82-1.6 11.11-9.73 20.16-20.61 22.95-11.61 3.07-31.64 12.25-37.44 22.18-5.15 8.81.28 23.23 2.09 26.93 2.36 4.08 3.71 8.82 3.71 13.87 0 15.26-12.26 27.64-27.5 27.77zm.01-27.77s-16.5-29.99-1.98-54.82c14.51-24.82 54.52-35.06 54.52-35.06l-404.62-240.25v-638.29-22.37c-15.15-1.25-32.96-1.98-52.07-1.98s-36.91.73-52.05 1.98v22.37 650.41c0 2.85.41 5.6.84 8.31-3.73 20.87 5.45 42.75 24.8 54.06zm0 0h.05z" fill="#351f17" transform="matrix(.13 0 0 -.13 -89.3735 479.0315)"/><path d="m2876.7 2705.7c-1.49 0-2.98.24-4.43.72-38.67 13-74.68 29.85-107.05 50.07-4.06 2.54-6.53 6.99-6.53 11.77v136.23c0 5.45 3.19 10.4 8.16 12.65 1.83.83 3.78 1.24 5.73 1.24 3.3 0 6.56-1.18 9.14-3.44 31.37-27.44 65.16-49.01 100.44-64.1 5.11-2.19 8.43-7.21 8.43-12.77v-118.49c0-4.47-2.16-8.67-5.79-11.28-2.39-1.71-5.23-2.6-8.1-2.6" fill="#ef3644" transform="matrix(.13 0 0 -.13 -90.0532 480.0952)"/><path d="m2772.58 2932.26c-3.89 0-7.79-.81-11.48-2.48-9.91-4.5-16.29-14.39-16.29-25.29v-136.23c0-9.57 4.94-18.47 13.06-23.54 33.28-20.8 70.28-38.11 109.98-51.46 2.89-.97 5.88-1.45 8.85-1.45 5.74 0 11.42 1.79 16.21 5.22 7.25 5.22 11.55 13.61 11.55 22.55v118.49c0 11.12-6.63 21.16-16.84 25.53-33.95 14.52-66.5 35.31-96.76 61.79-5.16 4.52-11.68 6.87-18.28 6.87m0-27.77c32.32-28.28 67.43-50.72 104.12-66.42v-118.49c-36.98 12.43-71.84 28.51-104.12 48.68z" fill="#351f17" transform="matrix(.13 0 0 -.13 -90.0532 480.0952)"/><path d="m2876.7 2969.85c-2.55 0-5.09.7-7.34 2.09-35.33 21.97-69.53 54.48-107.64 102.33-1.95 2.46-3.03 5.5-3.03 8.65v132.17c0 5.54 3.3 10.55 8.39 12.75 1.77.76 3.64 1.13 5.5 1.13 3.47 0 6.9-1.31 9.53-3.79 31.55-29.79 65.3-52.91 100.3-68.71 4.97-2.24 8.18-7.19 8.18-12.65v-160.09c0-5.04-2.74-9.68-7.14-12.13-2.1-1.17-4.43-1.75-6.75-1.75" fill="#ef3644" transform="matrix(.13 0 0 -.13 -90.0532 479.1333)"/><path d="m2772.58 3242.85c-3.71 0-7.45-.74-11-2.26-10.17-4.39-16.77-14.41-16.77-25.5v-132.17c0-6.29 2.13-12.39 6.05-17.3 39.13-49.12 74.45-82.63 111.18-105.47 4.48-2.78 9.56-4.18 14.66-4.18 4.65 0 9.29 1.16 13.48 3.5 8.82 4.89 14.28 14.18 14.28 24.26v160.09c0 10.91-6.39 20.81-16.34 25.3-33.59 15.17-66.05 37.42-96.48 66.16-5.25 4.96-12.11 7.57-19.06 7.57m0-27.76c30.96-29.23 66.05-54.09 104.12-71.27v-160.09c-39.15 24.34-73.24 60.42-104.12 99.19z" fill="#351f17" transform="matrix(.13 0 0 -.13 -90.0532 479.1333)"/><path d="m2936.02 3318.14c-1.17 0-2.34.15-3.48.44-3.58.92-6.64 3.24-8.51 6.43-18.57 31.78-33.22 65.07-43.54 98.95-1.87 6.12.69 12.72 6.19 15.99l123.44 73.28c2.17 1.3 4.63 1.95 7.09 1.95 2.09 0 4.18-.47 6.11-1.42 4.21-2.07 7.09-6.12 7.67-10.77 4.36-35.42 12.23-70.46 23.4-104.13 2.07-6.2-.47-12.98-6.08-16.31l-105.21-62.47c-2.16-1.28-4.61-1.94-7.08-1.94" fill="#ef3644" transform="matrix(.13 0 0 -.13 -89.5737 478.0758)"/><path d="m3017.21 3529.06c-4.93 0-9.83-1.3-14.18-3.89l-123.44-73.29c-11-6.53-16.11-19.73-12.38-31.97 10.64-34.91 25.72-69.2 44.84-101.9 3.73-6.38 9.85-11.02 17.01-12.87 2.29-.59 4.63-.88 6.96-.88 4.94 0 9.84 1.31 14.18 3.89l105.19 62.46c11.23 6.66 16.29 20.24 12.19 32.62-10.89 32.8-18.57 66.94-22.81 101.46-1.16 9.3-6.92 17.4-15.34 21.53-3.86 1.9-8.04 2.84-12.22 2.84m0-27.76c4.47-36.34 12.5-72.12 24.01-106.82l-105.2-62.46c-17.84 30.51-32.14 62.8-42.25 95.99z" fill="#351f17" transform="matrix(.13 0 0 -.13 -89.575 478.0758)"/><path d="m2824.63 2634.16-2.15.01v76.58c14.67-6.42 29.81-12.26 45.37-17.49 2.89-.97 5.88-1.45 8.85-1.45v-33.3-22.37c-15.15-1.25-32.96-1.98-52.07-1.98m52.07 234.35c-18.58 8.76-36.7 19.42-54.22 31.87v88.98c13.17-11.29 26.27-20.94 39.56-29.21 4.48-2.78 9.56-4.18 14.66-4.18z" fill="#d3d2d2" transform="matrix(.13 0 0 -.13 -89.9667 480.0988)"/><path d="m2876.7 2719.58c-18.63 6.26-36.73 13.45-54.22 21.63v125.69c17.57-11.25 35.69-20.9 54.22-28.83z" fill="#c62b37" transform="matrix(.13 0 0 -.13 -89.9667 480.1512)"/><path d="m2876.7 2691.81c-2.97 0-5.96.48-8.85 1.45-15.56 5.23-30.7 11.07-45.37 17.49v30.46c17.49-8.18 35.59-15.37 54.22-21.63v118.49c-18.53 7.93-36.65 17.58-54.22 28.83v33.48c17.52-12.45 35.64-23.11 54.22-31.87z" fill="#2e1b13" transform="matrix(.13 0 0 -.13 -89.9667 480.1417)"/><path d="m2876.7 3174.58c-18.51 9.31-36.63 20.79-54.22 34.32v99.62l71.83 42.65c5.46-11.21 11.37-22.27 17.74-33.16.03-.05.06-.11.1-.16l-35.45-21.05z" fill="#d3d2d2" transform="matrix(.13 0 0 -.13 -89.9103 478.5944)"/><path d="m3065.69 3409.02c-3.95 12.4-7.45 24.97-10.48 37.68l185.42 110.09c17.39-13.73 40.45-19.68 40.69-19.74z" fill="#d3d2d2" transform="matrix(.13 0 0 -.13 -88.9051 477.857)"/><path d="m3065.69 3409.02 215.63 128.03zm215.63 128.03c-.24.06-23.3 6.01-40.69 19.74l.01.01c17.42-13.71 40.45-19.69 40.68-19.75" fill="#2e1b13" transform="matrix(.13 0 0 -.13 -88.8863 477.8583)"/><path d="m2876.7 2983.73c-19.22 11.95-37.22 26.73-54.22 43.27v147.58c17.25-11.87 35.37-22.26 54.22-30.76z" fill="#c62b37" transform="matrix(.13 0 0 -.13 -89.9667 479.1995)"/><path d="m2876.7 2955.97c-5.1 0-10.18 1.4-14.66 4.18-13.29 8.27-26.39 17.92-39.56 29.21v37.64c17-16.54 35-31.32 54.22-43.27v160.09c-18.85 8.5-36.97 18.89-54.22 30.76v34.32c17.59-13.53 35.71-25.01 54.22-34.32z" fill="#2e1b13" transform="matrix(.13 0 0 -.13 -89.9667 479.1972)"/><path d="m2936.02 3332.02c-6.38 10.91-12.31 22.05-17.75 33.37l111.99 66.5c3.21-12.59 6.87-25.07 10.96-37.41z" fill="#c62b37" transform="matrix(.13 0 0 -.13 -89.5362 478.1935)"/><path d="m2912.15 3317.85c-.04.05-.07.11-.1.16-6.37 10.89-12.28 21.95-17.74 33.16l23.96 14.22c5.44-11.32 11.37-22.46 17.75-33.37zm129.07 76.63c-4.09 12.34-7.75 24.82-10.96 37.41l24.95 14.81c3.03-12.71 6.53-25.28 10.48-37.68l-24.47-14.53" fill="#2e1b13" transform="matrix(.13 0 0 -.13 -89.53 478.1951)"/><path d="m3269.87 3521.84c-18.09 0-37.95 17.64-50.57 44.93-15.69 33.94-12.45 65.32 7.67 74.62 3.48 1.61 7.26 2.43 11.23 2.43 18.1 0 37.93-17.64 50.53-44.93 9.91-21.37 12.59-42.99 7.15-57.79-3.65-9.96-10.05-14.65-14.78-16.83-3.48-1.61-7.26-2.43-11.23-2.43" fill="#992128" transform="matrix(.13 0 0 -.13 -88.6226 477.5279)"/><path d="m3238.2 3658.56c-6.13 0-12.01-1.28-17.46-3.81-28.28-13.07-34.41-51.79-14.84-94.16 11.97-25.87 35.06-53.5 63.96-53.5 6.13 0 12 1.28 17.44 3.8 10.24 4.74 18.21 13.65 22.43 25.13 6.85 18.67 4.08 43.86-7.63 69.09-11.92 25.82-34.98 53.45-63.9 53.45zm0-29.49c11.61 0 27.16-14.75 37.14-36.37 11.57-24.95 11.37-49.59-.42-55.04-1.56-.73-3.26-1.07-5.06-1.07-11.63 0-27.18 14.75-37.18 36.37-11.53 24.95-11.33 49.58.47 55.04 1.58.72 3.27 1.07 5.05 1.07" fill="#351f17" transform="matrix(.13 0 0 -.13 -88.6161 477.5279)"/><path d="m2855.04 1351.55c-148.63 0-298.56 13.52-445.63 40.19l-10.37 1.89-62.88 678.35 18.03-3.32c179.68-33.02 343.5-49.07 500.85-49.07 140.21 0 284.74 12.68 441.84 38.76l17.77 2.95-62.8-677.92-10.68-1.67c-127.92-20.02-257.84-30.16-386.13-30.16" fill="#fbd23d" transform="matrix(.13 0 0 -.13 -90.052 483.7588)"/><path d="m2320.64 2088.94 3.39-36.5 60.22-649.6 1.94-20.99 20.74-3.77c147.89-26.82 298.66-40.42 448.11-40.42 129.01 0 259.65 10.21 388.28 30.33l21.36 3.35 1.99 21.52 60.14 649.24 3.32 35.84-35.52-5.89c-156.34-25.96-300.12-38.58-439.57-38.58-156.5 0-319.5 15.98-498.34 48.85zm31.04-33.93c153.89-28.28 324.18-49.3 503.36-49.3 156.48 0 306.19 16.05 444.12 38.95l-60.14-649.24c-120.96-18.92-249.96-29.99-383.98-29.99-156.13 0-305.47 15-443.15 39.97z" fill="#351f17" transform="matrix(.13 0 0 -.13 -90.0494 483.759)"/><path d="m3125.68 1380.45 60 647.43c38.61 4.98 76.47 10.63 113.48 16.78l-60.14-649.24c-1.86-.29-3.72-.58-5.6-.87-.1-.01-.2-.03-.3-.04-.1-.02-.19-.03-.28-.05-35.06-5.39-70.84-10.02-107.16-14.01" fill="#f8b417" transform="matrix(.13 0 0 -.13 -88.7546 483.7628)"/><path d="m3232.84 1394.46c.09.02.18.03.28.05-.1-.02-.19-.03-.28-.05m.58.09c1.88.29 3.74.58 5.6.87l60.14 649.24-60.14-649.24c-1.86-.29-3.73-.58-5.6-.87m-47.74 633.33v.06c38.59 4.98 76.51 10.58 113.48 16.72-37.01-6.15-74.87-11.8-113.48-16.78" fill="#361d10" transform="matrix(.13 0 0 -.13 -88.6546 483.7328)"/><path d="m2462.03 1687.08c-17.39.01-35.88 11.15-37.98 33.27-10.35 109.11-20.7 218.21-31.05 327.32 23.16-3.98 46.67-7.77 70.5-11.32 9.99-105.34 19.98-210.66 29.97-316 2.1-22.23-14.12-33.27-31.44-33.27" fill="#feecad" transform="matrix(.13 0 0 -.13 -91.3229 483.2394)"/><path d="m2460.79 2064.82c-23.24 3.53-46.74 7.36-70.51 11.49-5.72 60.27-11.43 120.56-17.15 180.84-2.11 22.23 14.12 33.27 31.44 33.27 17.39 0 35.88-11.14 37.97-33.27 6.09-64.11 12.17-128.22 18.25-192.33" fill="#f9a89e" transform="matrix(.13 0 0 -.13 -91.4131 482.2106)"/><path d="m2463.5 2036.35c-23.83 3.55-47.34 7.34-70.5 11.32-.91 9.55-1.81 19.09-2.72 28.64 23.77-4.13 47.27-7.96 70.51-11.49.9-9.49 1.81-18.98 2.71-28.47" fill="#9a8376" transform="matrix(.13 0 0 -.13 -91.3757 482.6129)"/><path d="m2467.71 1554.64c-44.78 0-44.78 69.41 0 69.41 44.75 0 44.75-69.41 0-69.41" fill="#feecad" transform="matrix(.13 0 0 -.13 -91.241 484.1655)"/><path d="m2735.55 1649.97c-.03-15.04-12.2-27.2-27.22-27.23-15.03.03-27.2 12.19-27.23 27.23 0 4.53-3.68 8.21-8.21 8.21-4.54 0-8.21-3.68-8.21-8.21 0-24.11 19.54-43.65 43.65-43.65 24.1 0 43.63 19.54 43.64 43.65 0 4.53-3.68 8.21-8.21 8.21-4.54 0-8.21-3.68-8.21-8.21" fill="#351f17" transform="matrix(.13 0 0 -.13 -90.4429 484.0225)"/><path d="m2625.62 1672.12c0-28.14-22.81-50.95-50.95-50.95s-50.95 22.81-50.95 50.95c0 28.13 22.81 50.94 50.95 50.94s50.95-22.81 50.95-50.94" fill="#351f17" transform="matrix(.13 0 0 -.13 -90.8871 483.8943)"/><path d="m2568.46 1693.84c0-8.99-7.3-16.27-16.27-16.27-9 0-16.27 7.28-16.27 16.27 0 8.98 7.27 16.27 16.27 16.27 8.97 0 16.27-7.29 16.27-16.27" fill="#fff" transform="matrix(.13 0 0 -.13 -90.9547 483.8192)"/><path d="m2567.3 1669.05c0-3.38-2.75-6.13-6.14-6.13-3.37 0-6.12 2.75-6.12 6.13s2.75 6.12 6.12 6.12c3.39 0 6.14-2.74 6.14-6.12" fill="#fff" transform="matrix(.13 0 0 -.13 -90.9321 483.9052)"/><path d="m2578.5 1685.34c0-2.12-1.7-3.84-3.83-3.84-2.14 0-3.83 1.72-3.83 3.84s1.69 3.84 3.83 3.84c2.13 0 3.83-1.72 3.83-3.84" fill="#fff" transform="matrix(.13 0 0 -.13 -90.8871 483.8442)"/><path d="m2592.3 1621.17c0-6.27-19.96-11.36-44.58-11.36-24.61 0-44.58 5.09-44.58 11.36 0 6.28 19.97 11.36 44.58 11.36 24.62 0 44.58-5.08 44.58-11.36" fill="#f2547d" transform="matrix(.13 0 0 -.13 -90.9736 484.0621)"/><path d="m2894.9 1672.12c0-28.14-22.81-50.95-50.94-50.95-28.14 0-50.94 22.81-50.94 50.95 0 28.13 22.8 50.94 50.94 50.94 28.13 0 50.94-22.81 50.94-50.94" fill="#351f17" transform="matrix(.13 0 0 -.13 -89.9848 483.8943)"/><path d="m2837.75 1693.84c0-8.99-7.28-16.27-16.29-16.27-8.96 0-16.25 7.28-16.25 16.27 0 8.98 7.29 16.27 16.25 16.27 9.01 0 16.29-7.29 16.29-16.27" fill="#fff" transform="matrix(.13 0 0 -.13 -90.0624 483.8192)"/><path d="m2836.58 1669.05c0-3.38-2.73-6.13-6.13-6.13-3.37 0-6.11 2.75-6.11 6.13s2.74 6.12 6.11 6.12c3.4 0 6.13-2.74 6.13-6.12" fill="#fff" transform="matrix(.13 0 0 -.13 -90.0298 483.9052)"/><path d="m2847.79 1685.34c0-2.12-1.7-3.84-3.83-3.84-2.12 0-3.82 1.72-3.82 3.84s1.7 3.84 3.82 3.84c2.13 0 3.83-1.72 3.83-3.84" fill="#fff" transform="matrix(.13 0 0 -.13 -89.9861 483.8442)"/><path d="m2913.52 1621.17c0-6.27-19.98-11.36-44.59-11.36s-44.59 5.09-44.59 11.36c0 6.28 19.98 11.36 44.59 11.36s44.59-5.08 44.59-11.36" fill="#f2547d" transform="matrix(.13 0 0 -.13 -89.9009 484.0621)"/><path d="m2831.26 1751.75c.48.18 8.54 2.95 19.26 2.93 6.29.01 13.45-.92 20.7-3.73 7.25-2.82 14.62-7.45 21.58-15.26 3.01-3.39 8.2-3.69 11.59-.68 3.39 3.02 3.7 8.21.68 11.6-8.67 9.76-18.42 15.99-27.93 19.66-9.51 3.68-18.74 4.84-26.62 4.84-14.37-.02-24.42-3.78-25.01-3.98-4.25-1.6-6.4-6.33-4.81-10.57 1.59-4.25 6.32-6.4 10.57-4.81" fill="#351f17" transform="matrix(.13 0 0 -.13 -89.9258 483.6226)"/><path d="m2591.14 1767.13c-.59.2-10.65 3.96-25.01 3.98-7.9 0-17.13-1.16-26.64-4.84-9.5-3.67-19.26-9.9-27.93-19.66-3.02-3.39-2.72-8.58.67-11.6 3.4-3.01 8.59-2.71 11.6.68 6.96 7.81 14.33 12.44 21.59 15.26 7.24 2.81 14.41 3.74 20.71 3.73 5.71.01 10.67-.77 14.13-1.53 1.73-.38 3.08-.76 3.97-1.03l.96-.31.2-.07.13.39-.14-.38.01-.01.13.39-.14-.38c4.24-1.59 8.98.56 10.57 4.81 1.59 4.24-.56 8.97-4.81 10.57" fill="#351f17" transform="matrix(.13 0 0 -.13 -90.9574 483.6226)"/><path d="m3384.62 1317.67c-.11 1.18-2.44 65.29-25.31 131.7-11.53 33.19-28.18 67.26-53.93 94.22-12.88 13.43-28.15 25.02-45.98 33.18-17.81 8.17-38.12 12.78-60.33 12.76-10.41 0-21.24-.99-32.46-3.03-11.95-2.18-19.87-13.63-17.69-25.57 2.17-11.95 13.62-19.87 25.57-17.69 8.8 1.6 16.97 2.32 24.58 2.32 16.24-.02 29.88-3.24 42.03-8.78 21.17-9.66 38.39-27.1 52.32-49.39 20.9-33.29 33.24-76.66 39.72-111.38 3.29-17.37 5.19-32.57 6.25-43.33.54-5.39.86-9.66 1.05-12.54.1-1.44.17-2.53.2-3.24l.04-.77.01-.17c.47-12.14 10.69-21.59 22.82-21.11 12.13.47 21.59 10.69 21.11 22.82" fill="#351f17" transform="matrix(.13 0 0 -.13 -88.578 484.6634)"/><path d="m3341.52 1317.34-22.87-34.96c-6.65-10.16-3.8-23.78 6.36-30.43s23.79-3.8 30.43 6.36l22.88 34.95c6.65 10.16 3.79 23.79-6.36 30.44-10.16 6.65-23.79 3.8-30.44-6.36" fill="#351f17" transform="matrix(.13 0 0 -.13 -88.3024 485.1766)"/><path d="m3338.69 1299.6 10.84-40.35c3.15-11.73 15.21-18.68 26.93-15.53 11.73 3.15 18.68 15.21 15.53 26.93l-10.84 40.35c-3.15 11.73-15.21 18.68-26.94 15.53-11.72-3.15-18.67-15.21-15.52-26.93" fill="#351f17" transform="matrix(.13 0 0 -.13 -88.2442 485.1869)"/><path d="m3350.06 1285.65 37.32-18.73c10.86-5.44 24.07-1.06 29.51 9.79 5.45 10.85 1.06 24.06-9.79 29.51l-37.32 18.73c-10.85 5.45-24.06 1.06-29.51-9.79s-1.06-24.06 9.79-29.51" fill="#351f17" transform="matrix(.13 0 0 -.13 -88.2054 485.1522)"/></svg>