<?xml version="1.0" encoding="UTF-8" standalone="no" ?>
<!DOCTYPE svg PUBLIC "-//W3C//DTD SVG 1.1//EN" "http://www.w3.org/Graphics/SVG/1.1/DTD/svg11.dtd">
<svg xmlns="http://www.w3.org/2000/svg" xmlns:xlink="http://www.w3.org/1999/xlink" version="1.1" width="570" height="305" viewBox="0 0 570 305" xml:space="preserve">
<desc>Created with Fabric.js 3.6.3</desc>
<defs>
</defs>
<g transform="matrix(1 0 0 1 293 157)"  >
<g style=""   >
		<g transform="matrix(0.03 0 0 -0.03 -7.44 -107.54)" id="xcEOtltiFvKlebe-F-sFY"  >
<path style="stroke: none; stroke-width: 1; stroke-dasharray: none; stroke-linecap: butt; stroke-dashoffset: 0; stroke-linejoin: miter; stroke-miterlimit: 4; fill: rgb(255,153,51); fill-rule: nonzero; opacity: 1;" vector-effect="non-scaling-stroke"  transform=" translate(-9950, -8782.9)" d="M 19900 10500 L 0 10500 L 0 7065.8 L 19900 7065.8 L 19900 10500" stroke-linecap="round" />
</g>
		<g transform="matrix(0.03 0 0 -0.03 -7.44 -3.92)" id="GMUqZmxkb1CyWy5QAMS8z"  >
<path style="stroke: none; stroke-width: 1; stroke-dasharray: none; stroke-linecap: butt; stroke-dashoffset: 0; stroke-linejoin: miter; stroke-miterlimit: 4; fill: rgb(255,255,255); fill-rule: nonzero; opacity: 1;" vector-effect="non-scaling-stroke"  transform=" translate(-9950, -5250)" d="M 19900 7065.8 L 0 7065.8 L 0 3434.2000000000003 L 19900 3434.2000000000003 L 19900 7065.8" stroke-linecap="round" />
</g>
		<g transform="matrix(0.03 0 0 -0.03 -7.44 99.71)" id="b8xjErCfB7RMQuCWtzHJo"  >
<path style="stroke: none; stroke-width: 1; stroke-dasharray: none; stroke-linecap: butt; stroke-dashoffset: 0; stroke-linejoin: miter; stroke-miterlimit: 4; fill: rgb(18,136,7); fill-rule: nonzero; opacity: 1;" vector-effect="non-scaling-stroke"  transform=" translate(-9950, -1717.1)" d="M 0 3434.2 L 0 0 L 19900 0 L 19900 3434.2 L 0 3434.2" stroke-linecap="round" />
</g>
		<g transform="matrix(0.03 0 0 -0.03 -7.43 -3.92)" id="oAZPrPi5BYC0rQkLpAL5O"  >
<path style="stroke: none; stroke-width: 1; stroke-dasharray: none; stroke-linecap: butt; stroke-dashoffset: 0; stroke-linejoin: miter; stroke-miterlimit: 4; fill: rgb(0,0,136); fill-rule: nonzero; opacity: 1;" vector-effect="non-scaling-stroke"  transform=" translate(-9950.32, -5250)" d="M 10748 4310.1 C 10740.2 4335.06 10717.2 4353.29 10689.9 4353.29 C 10656 4353.29 10628.6 4325.64 10628.6 4291.53 C 10628.6 4269.41 10640.2 4250.13 10657.6 4239.24 C 10600.7 4198.8 10540.5 4162.96 10477 4132.57 C 10473.4 4163.25 10447.8 4187.16 10416.4 4187.16 C 10382.6 4187.16 10355.1 4159.51 10355.1 4125.43 C 10355.1 4110.8 10360.300000000001 4097.56 10368.800000000001 4086.9700000000003 C 10305.400000000001 4063.8100000000004 10239.400000000001 4046.0600000000004 10171.6 4033.6200000000003 C 10172.4 4037.5000000000005 10172.800000000001 4041.5200000000004 10172.800000000001 4045.6400000000003 C 10172.800000000001 4079.7400000000002 10145.300000000001 4107.37 10111.500000000002 4107.37 C 10077.600000000002 4107.37 10050.200000000003 4079.74 10050.200000000003 4045.64 C 10050.200000000003 4035.7 10052.800000000003 4026.46 10056.900000000003 4018.1299999999997 C 10021.700000000003 4015.0799999999995 9986.240000000003 4013.1899999999996 9950.320000000003 4013.1899999999996 C 9917.220000000003 4013.1899999999996 9884.520000000004 4014.8899999999994 9852.050000000003 4017.49 C 9857.170000000004 4026.4799999999996 9860.310000000003 4036.75 9860.310000000003 4047.81 C 9860.310000000003 4081.91 9832.830000000004 4109.57 9798.990000000003 4109.57 C 9765.110000000004 4109.57 9737.670000000004 4081.91 9737.670000000004 4047.8099999999995 C 9737.670000000004 4042.1799999999994 9738.660000000003 4036.8099999999995 9740.110000000004 4031.6199999999994 C 9668.060000000005 4044.1299999999997 9598.060000000005 4062.6999999999994 9530.930000000004 4087.2699999999995 C 9545.710000000005 4098.549999999999 9555.380000000005 4116.24 9555.380000000005 4136.349999999999 C 9555.380000000005 4170.459999999999 9527.940000000004 4198.089999999999 9494.060000000005 4198.089999999999 C 9460.220000000005 4198.089999999999 9432.740000000005 4170.459999999999 9432.740000000005 4136.349999999999 C 9432.740000000005 4133.509999999999 9433.220000000005 4130.7699999999995 9433.610000000006 4127.999999999999 C 9370.560000000007 4157.509999999999 9310.390000000007 4192.169999999999 9253.670000000006 4231.599999999999 C 9277.100000000006 4240.289999999999 9293.870000000006 4262.749999999999 9293.870000000006 4289.36 C 9293.870000000006 4323.44 9266.400000000007 4351.089999999999 9232.560000000007 4351.089999999999 C 9200.170000000007 4351.089999999999 9173.910000000007 4325.69 9171.680000000008 4293.629999999999 C 9113.150000000007 4342.009999999999 9059.260000000007 4395.849999999999 9010.520000000008 4454.199999999999 C 9042.630000000008 4456.1399999999985 9068.190000000008 4482.719999999999 9068.190000000008 4515.579999999999 C 9068.190000000008 4549.679999999999 9040.710000000008 4577.319999999999 9006.870000000008 4577.319999999999 C 8979.670000000007 4577.319999999999 8956.870000000008 4559.3499999999985 8948.850000000008 4534.6399999999985 C 8907.550000000008 4593.1799999999985 8871.030000000008 4655.379999999998 8840.170000000007 4720.879999999998 C 8841.510000000007 4720.799999999998 8842.770000000008 4720.479999999999 8844.110000000008 4720.479999999999 C 8877.990000000007 4720.479999999999 8905.420000000007 4748.1399999999985 8905.420000000007 4782.239999999999 C 8905.420000000007 4816.339999999999 8877.990000000007 4843.979999999999 8844.110000000008 4843.979999999999 C 8825.480000000009 4843.979999999999 8809.000000000007 4835.439999999999 8797.760000000007 4822.239999999999 C 8772.600000000008 4890.959999999999 8753.620000000008 4962.6799999999985 8740.890000000007 5036.519999999999 C 8747.970000000007 5033.629999999998 8755.670000000007 5031.949999999999 8763.810000000007 5031.949999999999 C 8797.680000000008 5031.949999999999 8825.120000000006 5059.609999999999 8825.120000000006 5093.709999999999 C 8825.120000000006 5127.8099999999995 8797.680000000006 5155.449999999999 8763.810000000007 5155.449999999999 C 8750.010000000007 5155.449999999999 8737.390000000007 5150.669999999999 8727.140000000007 5142.919999999999 C 8724.150000000007 5178.249999999999 8722.250000000007 5213.919999999999 8722.250000000007 5250.039999999999 C 8722.250000000007 5285.249999999999 8723.840000000007 5320.069999999999 8726.700000000008 5354.529999999999 C 8736.640000000009 5347.559999999999 8748.630000000008 5343.4299999999985 8761.640000000009 5343.4299999999985 C 8795.490000000009 5343.4299999999985 8822.960000000008 5371.059999999999 8822.960000000008 5405.169999999998 C 8822.960000000008 5439.269999999999 8795.490000000009 5466.919999999998 8761.640000000009 5466.919999999998 C 8754.26000000001 5466.919999999998 8747.25000000001 5465.399999999998 8740.690000000008 5462.979999999999 C 8753.310000000009 5536.209999999998 8772.210000000008 5607.299999999998 8797.100000000008 5675.509999999998 C 8808.300000000008 5661.079999999998 8825.550000000008 5651.609999999999 8845.200000000008 5651.609999999999 C 8879.050000000008 5651.609999999999 8906.520000000008 5679.259999999998 8906.520000000008 5713.369999999999 C 8906.520000000008 5747.469999999999 8879.050000000008 5775.109999999999 8845.200000000008 5775.109999999999 C 8842.810000000009 5775.109999999999 8840.560000000009 5774.669999999999 8838.290000000008 5774.399999999999 C 8869.110000000008 5840.459999999999 8905.350000000008 5903.449999999999 8946.770000000008 5962.529999999999 C 8955.850000000008 5939.829999999999 8977.820000000007 5923.729999999999 9003.610000000008 5923.729999999999 C 9037.490000000007 5923.729999999999 9064.920000000007 5951.3899999999985 9064.920000000007 5985.489999999999 C 9064.920000000007 6017.019999999999 9041.340000000007 6042.749999999999 9011.030000000008 6046.479999999999 C 9055.800000000008 6099.979999999999 9104.980000000009 6149.539999999999 9158.000000000007 6194.709999999998 C 9163.580000000007 6166.4299999999985 9188.350000000008 6145.089999999998 9218.100000000008 6145.089999999998 C 9251.940000000008 6145.089999999998 9279.410000000007 6172.719999999998 9279.410000000007 6206.829999999998 C 9279.410000000007 6231.229999999998 9265.220000000007 6252.109999999998 9244.860000000008 6262.149999999998 C 9304.220000000008 6304.209999999998 9367.380000000008 6341.099999999998 9433.840000000007 6372.179999999998 C 9433.220000000007 6368.679999999998 9432.740000000007 6365.119999999997 9432.740000000007 6361.439999999998 C 9432.740000000007 6327.329999999998 9460.220000000007 6299.699999999998 9494.060000000007 6299.699999999998 C 9527.940000000006 6299.699999999998 9555.380000000006 6327.329999999998 9555.380000000006 6361.439999999998 C 9555.380000000006 6382.449999999998 9544.920000000007 6400.979999999998 9528.960000000006 6412.139999999998 C 9595.510000000006 6436.609999999998 9664.840000000006 6455.119999999997 9736.180000000006 6467.7599999999975 C 9735.940000000006 6465.4699999999975 9735.510000000006 6463.249999999997 9735.510000000006 6460.899999999998 C 9735.510000000006 6426.789999999998 9762.950000000006 6399.139999999998 9796.830000000005 6399.139999999998 C 9830.670000000006 6399.139999999998 9858.100000000006 6426.789999999997 9858.100000000006 6460.899999999998 C 9858.100000000006 6468.589999999997 9856.540000000006 6475.919999999998 9853.980000000005 6482.729999999998 C 9885.780000000004 6485.229999999998 9917.850000000006 6486.889999999998 9950.320000000005 6486.889999999998 C 9986.400000000005 6486.889999999998 10022.000000000005 6484.979999999998 10057.300000000005 6481.909999999998 C 10054.200000000004 6474.449999999998 10052.400000000005 6466.239999999998 10052.400000000005 6457.609999999998 C 10052.400000000005 6423.5099999999975 10079.800000000005 6395.869999999998 10113.700000000004 6395.869999999998 C 10147.600000000004 6395.869999999998 10175.000000000004 6423.509999999998 10175.000000000004 6457.609999999998 C 10175.000000000004 6460.479999999998 10174.500000000004 6463.229999999998 10174.100000000004 6466.0099999999975 C 10244.100000000004 6453.039999999997 10312.000000000004 6434.339999999997 10377.300000000005 6409.939999999998 C 10367.700000000004 6399.039999999998 10361.600000000004 6384.829999999998 10361.600000000004 6369.089999999997 C 10361.600000000004 6334.989999999997 10389.000000000004 6307.329999999997 10422.900000000003 6307.329999999997 C 10455.200000000003 6307.329999999997 10481.300000000003 6332.5099999999975 10483.800000000003 6364.389999999998 C 10545.700000000003 6334.2199999999975 10604.600000000002 6298.699999999998 10660.300000000003 6258.929999999998 C 10641.400000000003 6248.369999999997 10628.600000000002 6228.379999999997 10628.600000000002 6205.139999999998 C 10628.600000000002 6171.059999999998 10656.000000000002 6143.399999999998 10689.900000000001 6143.399999999998 C 10718.2 6143.399999999998 10741.900000000001 6162.899999999998 10748.800000000001 6189.269999999998 C 10800.800000000001 6144.449999999998 10849.000000000002 6095.5099999999975 10892.900000000001 6042.679999999998 C 10868.600000000002 6034.439999999998 10851.000000000002 6011.599999999998 10851.000000000002 5984.409999999997 C 10851.000000000002 5950.299999999997 10878.400000000001 5922.649999999997 10912.300000000001 5922.649999999997 C 10933.300000000001 5922.649999999997 10951.900000000001 5933.359999999997 10962.900000000001 5949.609999999997 C 11001.000000000002 5893.809999999997 11034.600000000002 5834.689999999997 11063.300000000001 5772.789999999997 C 11062.900000000001 5772.809999999998 11062.500000000002 5772.929999999998 11062.000000000002 5772.929999999998 C 11028.200000000003 5772.929999999998 11000.700000000003 5745.269999999998 11000.700000000003 5711.169999999997 C 11000.700000000003 5677.059999999998 11028.200000000003 5649.409999999997 11062.000000000002 5649.409999999997 C 11079.400000000001 5649.409999999997 11095.000000000002 5656.7599999999975 11106.100000000002 5668.419999999997 C 11130.600000000002 5599.7599999999975 11149.100000000002 5528.2599999999975 11161.300000000003 5454.589999999997 C 11154.100000000002 5457.579999999997 11146.300000000003 5459.2599999999975 11138.000000000004 5459.2599999999975 C 11104.100000000004 5459.2599999999975 11076.700000000004 5431.619999999997 11076.700000000004 5397.519999999998 C 11076.700000000004 5363.419999999998 11104.100000000004 5335.7599999999975 11138.000000000004 5335.7599999999975 C 11151.600000000004 5335.7599999999975 11164.000000000004 5340.359999999998 11174.200000000004 5347.879999999997 C 11176.600000000004 5315.579999999997 11178.300000000005 5282.999999999997 11178.300000000005 5250.039999999997 C 11178.300000000005 5214.249999999997 11176.500000000005 5178.929999999998 11173.500000000005 5143.909999999997 C 11164.600000000006 5149.0099999999975 11154.400000000005 5152.159999999997 11143.400000000005 5152.159999999997 C 11109.600000000006 5152.159999999997 11082.100000000006 5124.529999999997 11082.100000000006 5090.429999999998 C 11082.100000000006 5056.319999999998 11109.600000000006 5028.659999999997 11143.400000000005 5028.659999999997 C 11148.700000000004 5028.659999999997 11153.800000000005 5029.559999999997 11158.700000000004 5030.839999999997 C 11146.200000000004 4960.579999999997 11128.200000000004 4892.229999999998 11104.400000000005 4826.589999999997 C 11093.200000000004 4838.589999999997 11077.500000000005 4846.169999999997 11059.900000000005 4846.169999999997 C 11026.000000000005 4846.169999999997 10998.600000000006 4818.519999999998 10998.600000000006 4784.409999999997 C 10998.600000000006 4750.309999999997 11026.000000000005 4722.679999999998 11059.900000000005 4722.679999999998 C 11060.300000000005 4722.679999999998 11060.800000000005 4722.789999999997 11061.300000000005 4722.809999999998 C 11031.800000000005 4660.0099999999975 10997.300000000005 4600.2199999999975 10958.200000000004 4543.739999999998 C 10947.300000000005 4560.649999999998 10928.400000000005 4571.859999999998 10906.900000000005 4571.859999999998 C 10873.000000000005 4571.859999999998 10845.600000000006 4544.2199999999975 10845.600000000006 4510.119999999998 C 10845.600000000006 4482.719999999998 10863.400000000005 4459.759999999998 10887.900000000005 4451.6799999999985 C 10845.100000000006 4400.769999999999 10798.300000000005 4353.449999999999 10748.000000000005 4310.0999999999985 z M 9950.32 6657.900000000001 C 9178.279999999999 6657.900000000001 8552.42 6027.55 8552.42 5250 C 8552.42 4472.45 9178.28 3842.1 9950.32 3842.1 C 10722.3 3842.1 11348.22 4472.45 11348.22 5250 C 11348.22 6027.55 10722.32 6657.9 9950.32 6657.9" stroke-linecap="round" />
</g>
		<g transform="matrix(0.03 0 0 -0.03 -7.44 -3.92)" id="GxgW3Gc2w7NKmlYIaHx2r"  >
<path style="stroke: none; stroke-width: 1; stroke-dasharray: none; stroke-linecap: butt; stroke-dashoffset: 0; stroke-linejoin: miter; stroke-miterlimit: 4; fill: rgb(0,0,136); fill-rule: nonzero; opacity: 1;" vector-effect="non-scaling-stroke"  transform=" translate(-9949.97, -5249.99)" d="M 9950 5492.7 C 9816.91 5492.7 9708.97 5384.03 9708.97 5249.99 C 9708.97 5115.95 9816.91 5007.28 9950 5007.28 C 10083.08 5007.28 10190.98 5115.95 10190.98 5249.99 C 10190.98 5384.03 10083.08 5492.7 9950 5492.7" stroke-linecap="round" />
</g>
		<g transform="matrix(0.03 0 0 -0.03 -7.33 -25.13)" id="oQwpC2aU5mcadTtuSQ0Bb"  >
<path style="stroke: none; stroke-width: 1; stroke-dasharray: none; stroke-linecap: butt; stroke-dashoffset: 0; stroke-linejoin: miter; stroke-miterlimit: 4; fill: rgb(0,0,136); fill-rule: nonzero; opacity: 1;" vector-effect="non-scaling-stroke"  transform=" translate(-9953.85, -5973.32)" d="M 10010 5740.4 L 9953.94 6453.94 L 9953.74 6453.94 L 9897.69 5740.4 L 9953.51 5495.639999999999 L 9953.51 5492.7 L 9953.86 5494.19 L 9954.17 5492.7 L 9954.17 5495.639999999999 L 10010 5740.4" stroke-linecap="round" />
</g>
		<g transform="matrix(0.03 0 0 -0.03 -28.52 -3.78)" id="gO1aoz_Gue5AefPOSqWdU"  >
<path style="stroke: none; stroke-width: 1; stroke-dasharray: none; stroke-linecap: butt; stroke-dashoffset: 0; stroke-linejoin: miter; stroke-miterlimit: 4; fill: rgb(0,0,136); fill-rule: nonzero; opacity: 1;" vector-effect="non-scaling-stroke"  transform=" translate(-9231.35, -5245.41)" d="M 9462.6 5302 L 8754.16 5245.49 L 8754.16 5245.33 L 9462.6 5188.82 L 9705.59 5245.07 L 9708.54 5245.07 L 9707.080000000002 5245.41 L 9708.54 5245.74 L 9705.59 5245.74 L 9462.6 5302" stroke-linecap="round" />
</g>
		<g transform="matrix(0.03 0 0 -0.03 -22.23 -18.96)" id="bmsTHTF7y16gCT8AmH3GR"  >
<path style="stroke: none; stroke-width: 1; stroke-dasharray: none; stroke-linecap: butt; stroke-dashoffset: 0; stroke-linejoin: miter; stroke-miterlimit: 4; fill: rgb(0,0,136); fill-rule: nonzero; opacity: 1;" vector-effect="non-scaling-stroke"  transform=" translate(-9445.94, -5762.99)" d="M 9649.1 5638.4 L 9108.460000000001 6103 L 9108.34 6102.87 L 9569.630000000001 5558.37 L 9780.980000000001 5425.08 L 9783.060000000001 5422.99 L 9782.240000000002 5424.2699999999995 L 9783.530000000002 5423.49 L 9781.450000000003 5425.5599999999995 L 9649.100000000002 5638.4" stroke-linecap="round" />
</g>
		<g transform="matrix(0.03 0 0 -0.03 -25.43 -14.41)" id="zmpZdrfWjYxYdj3SgzA7w"  >
<path style="stroke: none; stroke-width: 1; stroke-dasharray: none; stroke-linecap: butt; stroke-dashoffset: 0; stroke-linejoin: miter; stroke-miterlimit: 4; fill: rgb(0,0,136); fill-rule: nonzero; opacity: 1;" vector-effect="non-scaling-stroke"  transform=" translate(-9336.7, -5607.59)" d="M 9565.4 5541.5 L 8922.13 5845.85 L 8922.05 5845.700000000001 L 9509.75 5443.160000000001 L 9748.49 5370.800000000001 L 9751.01 5369.330000000001 L 9749.9 5370.370000000001 L 9751.359999999999 5369.930000000001 L 9748.8 5371.4000000000015 L 9565.4 5541.500000000002" stroke-linecap="round" />
</g>
		<g transform="matrix(0.03 0 0 -0.03 -27.83 -9.45)" id="zoigXz1esP8Emm2aoxtAm"  >
<path style="stroke: none; stroke-width: 1; stroke-dasharray: none; stroke-linecap: butt; stroke-dashoffset: 0; stroke-linejoin: miter; stroke-miterlimit: 4; fill: rgb(0,0,136); fill-rule: nonzero; opacity: 1;" vector-effect="non-scaling-stroke"  transform=" translate(-9254.95, -5438.59)" d="M 9492.8 5431.8 L 8794.67 5565.7 L 8794.62 5565.5199999999995 L 9463.140000000001 5322.639999999999 L 9712.250000000002 5312.289999999999 L 9715.080000000002 5311.489999999999 L 9713.740000000002 5312.199999999999 L 9715.270000000002 5312.159999999999 L 9712.440000000002 5312.929999999999 L 9492.800000000003 5431.799999999999" stroke-linecap="round" />
</g>
		<g transform="matrix(0.03 0 0 -0.03 -17.99 -22.1)" id="PdFsQt6Lj8oSkL0H1scxI"  >
<path style="stroke: none; stroke-width: 1; stroke-dasharray: none; stroke-linecap: butt; stroke-dashoffset: 0; stroke-linejoin: miter; stroke-miterlimit: 4; fill: rgb(0,0,136); fill-rule: nonzero; opacity: 1;" vector-effect="non-scaling-stroke"  transform=" translate(-9590.45, -5869.76)" d="M 9757.5 5699.2 L 9344.91 6282.0199999999995 L 9344.789999999999 6281.919999999999 L 9661.119999999999 5640.969999999999 L 9834.029999999999 5460.03 L 9835.519999999999 5457.5 L 9835.05 5458.95 L 9836.109999999999 5457.83 L 9834.579999999998 5460.36 L 9757.499999999998 5699.2" stroke-linecap="round" />
</g>
		<g transform="matrix(0.03 0 0 -0.03 -12.69 -24.48)" id="d00DozNAx8o91sk7lC0nx"  >
<path style="stroke: none; stroke-width: 1; stroke-dasharray: none; stroke-linecap: butt; stroke-dashoffset: 0; stroke-linejoin: miter; stroke-miterlimit: 4; fill: rgb(0,0,136); fill-rule: nonzero; opacity: 1;" vector-effect="non-scaling-stroke"  transform=" translate(-9771.09, -5951.09)" d="M 9881.8 5739 L 9654.8 6417.29 L 9654.65 6417.25 L 9772.84 5711.43 L 9886.19 5487.76 L 9886.9 5484.89 L 9886.869999999999 5486.42 L 9887.529999999999 5485.07 L 9886.829999999998 5487.92 L 9881.799999999997 5739" stroke-linecap="round" />
</g>
		<g transform="matrix(0.03 0 0 -0.03 13.83 -3.77)" id="6"  >
<path style="stroke: none; stroke-width: 1; stroke-dasharray: none; stroke-linecap: butt; stroke-dashoffset: 0; stroke-linejoin: miter; stroke-miterlimit: 4; fill: rgb(0,0,136); fill-rule: nonzero; opacity: 1;" vector-effect="non-scaling-stroke"  transform=" translate(-10675.3, -5245.21)" d="M 10444 5301.8 L 11152.5 5245.28 L 11152.5 5245.12 L 10444 5188.62 L 10201 5244.87 L 10198.1 5244.87 L 10199.6 5245.21 L 10198.1 5245.55 L 10201 5245.55 L 10444 5301.8" stroke-linecap="round" />
</g>
		<g transform="matrix(0.03 0 0 -0.03 7.55 -18.96)" id="OLa_umxo692wQCA4jTdIB"  >
<path style="stroke: none; stroke-width: 1; stroke-dasharray: none; stroke-linecap: butt; stroke-dashoffset: 0; stroke-linejoin: miter; stroke-miterlimit: 4; fill: rgb(0,0,136); fill-rule: nonzero; opacity: 1;" vector-effect="non-scaling-stroke"  transform=" translate(-10461.15, -5762.8)" d="M 10258 5638.2 L 10798.6 6102.8 L 10798.7 6102.6900000000005 L 10337.5 5558.17 L 10126.2 5424.88 L 10124.1 5422.79 L 10124.9 5424.07 L 10123.6 5423.28 L 10125.6 5425.36 L 10258 5638.2" stroke-linecap="round" />
</g>
		<g transform="matrix(0.03 0 0 -0.03 10.73 -14.4)" id="udwdossGNeq8StEUl_zwK"  >
<path style="stroke: none; stroke-width: 1; stroke-dasharray: none; stroke-linecap: butt; stroke-dashoffset: 0; stroke-linejoin: miter; stroke-miterlimit: 4; fill: rgb(0,0,136); fill-rule: nonzero; opacity: 1;" vector-effect="non-scaling-stroke"  transform=" translate(-10569.75, -5607.48)" d="M 10341 5541.4 L 10984.3 5845.74 L 10984.4 5845.61 L 10396.699999999999 5443.0599999999995 L 10157.999999999998 5370.69 L 10155.399999999998 5369.23 L 10156.499999999998 5370.259999999999 L 10155.099999999999 5369.82 L 10157.599999999999 5371.29 L 10340.999999999998 5541.4" stroke-linecap="round" />
</g>
		<g transform="matrix(0.03 0 0 -0.03 13.14 -9.44)" id="4"  >
<path style="stroke: none; stroke-width: 1; stroke-dasharray: none; stroke-linecap: butt; stroke-dashoffset: 0; stroke-linejoin: miter; stroke-miterlimit: 4; fill: rgb(0,0,136); fill-rule: nonzero; opacity: 1;" vector-effect="non-scaling-stroke"  transform=" translate(-10651.85, -5438.39)" d="M 10414 5431.6 L 11112.1 5565.5 L 11112.2 5565.32 L 10443.7 5322.429999999999 L 10194.6 5312.079999999999 L 10191.7 5311.289999999999 L 10193.1 5311.999999999999 L 10191.5 5311.939999999999 L 10194.4 5312.739999999999 L 10414 5431.5999999999985" stroke-linecap="round" />
</g>
		<g transform="matrix(0.03 0 0 -0.03 3.29 -22.09)" id="JbufFnZk-JpQPPwBq1WUq"  >
<path style="stroke: none; stroke-width: 1; stroke-dasharray: none; stroke-linecap: butt; stroke-dashoffset: 0; stroke-linejoin: miter; stroke-miterlimit: 4; fill: rgb(0,0,136); fill-rule: nonzero; opacity: 1;" vector-effect="non-scaling-stroke"  transform=" translate(-10315.95, -5869.58)" d="M 10149 5699 L 10561.5 6281.85 L 10561.6 6281.740000000001 L 10245.300000000001 5640.780000000001 L 10072.400000000001 5459.830000000001 L 10070.900000000001 5457.31 L 10071.400000000001 5458.76 L 10070.300000000001 5457.66 L 10071.900000000001 5460.19 L 10149.000000000002 5699" stroke-linecap="round" />
</g>
		<g transform="matrix(0.03 0 0 -0.03 -2 -24.47)" id="3"  >
<path style="stroke: none; stroke-width: 1; stroke-dasharray: none; stroke-linecap: butt; stroke-dashoffset: 0; stroke-linejoin: miter; stroke-miterlimit: 4; fill: rgb(0,0,136); fill-rule: nonzero; opacity: 1;" vector-effect="non-scaling-stroke"  transform=" translate(-10135.7, -5950.88)" d="M 10025 5738.8 L 10252 6417.08 L 10252.1 6417.0199999999995 L 10134 5711.219999999999 L 10020.6 5487.549999999999 L 10019.9 5484.679999999999 L 10019.9 5486.2 L 10019.3 5484.84 L 10020 5487.71 L 10025 5738.8" stroke-linecap="round" />
</g>
		<g transform="matrix(0.03 0 0 -0.03 -7.33 17.37)" id="7"  >
<path style="stroke: none; stroke-width: 1; stroke-dasharray: none; stroke-linecap: butt; stroke-dashoffset: 0; stroke-linejoin: miter; stroke-miterlimit: 4; fill: rgb(0,0,136); fill-rule: nonzero; opacity: 1;" vector-effect="non-scaling-stroke"  transform=" translate(-9953.85, -4524.47)" d="M 10010 4757.4 L 9953.94 4043.8399999999997 L 9953.74 4043.8399999999997 L 9897.69 4757.4 L 9953.51 5002.15 L 9953.51 5005.099999999999 L 9953.86 5003.61 L 9954.17 5005.099999999999 L 9954.17 5002.15 L 10010 4757.4" stroke-linecap="round" />
</g>
		<g transform="matrix(0.03 0 0 -0.03 -22.23 11.19)" id="8"  >
<path style="stroke: none; stroke-width: 1; stroke-dasharray: none; stroke-linecap: butt; stroke-dashoffset: 0; stroke-linejoin: miter; stroke-miterlimit: 4; fill: rgb(0,0,136); fill-rule: nonzero; opacity: 1;" vector-effect="non-scaling-stroke"  transform=" translate(-9445.94, -4734.9)" d="M 9649.1 4859.5 L 9108.460000000001 4394.9 L 9108.34 4395.03 L 9569.630000000001 4939.549999999999 L 9780.980000000001 5072.82 L 9783.060000000001 5074.91 L 9782.240000000002 5073.63 L 9783.530000000002 5074.4400000000005 L 9781.450000000003 5072.34 L 9649.100000000002 4859.5" stroke-linecap="round" />
</g>
		<g transform="matrix(0.03 0 0 -0.03 -25.43 6.64)" id="dooLnmacOi-hbz4Mdkwqf"  >
<path style="stroke: none; stroke-width: 1; stroke-dasharray: none; stroke-linecap: butt; stroke-dashoffset: 0; stroke-linejoin: miter; stroke-miterlimit: 4; fill: rgb(0,0,136); fill-rule: nonzero; opacity: 1;" vector-effect="non-scaling-stroke"  transform=" translate(-9336.7, -4890.19)" d="M 9565.4 4956.3 L 8922.13 4651.93 L 8922.05 4652.09 L 9509.75 5054.62 L 9748.49 5126.98 L 9751.01 5128.45 L 9749.9 5127.42 L 9751.359999999999 5127.85 L 9748.8 5126.39 L 9565.4 4956.3" stroke-linecap="round" />
</g>
		<g transform="matrix(0.03 0 0 -0.03 -27.83 1.68)" id="HbYzuuIOPU6UvtCbkWKPO"  >
<path style="stroke: none; stroke-width: 1; stroke-dasharray: none; stroke-linecap: butt; stroke-dashoffset: 0; stroke-linejoin: miter; stroke-miterlimit: 4; fill: rgb(0,0,136); fill-rule: nonzero; opacity: 1;" vector-effect="non-scaling-stroke"  transform=" translate(-9254.95, -5059.32)" d="M 9492.8 5066.1 L 8794.67 4932.22 L 8794.62 4932.37 L 9463.140000000001 5175.25 L 9712.250000000002 5185.64 L 9715.080000000002 5186.410000000001 L 9713.740000000002 5185.6900000000005 L 9715.270000000002 5185.750000000001 L 9712.440000000002 5184.9800000000005 L 9492.800000000003 5066.1" stroke-linecap="round" />
</g>
		<g transform="matrix(0.03 0 0 -0.03 -17.99 14.32)" id="ti_cers-PBTYh_rrhLa8a"  >
<path style="stroke: none; stroke-width: 1; stroke-dasharray: none; stroke-linecap: butt; stroke-dashoffset: 0; stroke-linejoin: miter; stroke-miterlimit: 4; fill: rgb(0,0,136); fill-rule: nonzero; opacity: 1;" vector-effect="non-scaling-stroke"  transform=" translate(-9590.45, -4628.14)" d="M 9757.5 4798.7 L 9344.91 4215.87 L 9344.789999999999 4215.96 L 9661.119999999999 4856.9 L 9834.029999999999 5037.86 L 9835.519999999999 5040.4 L 9835.05 5038.95 L 9836.109999999999 5040.04 L 9834.579999999998 5037.51 L 9757.499999999998 4798.7" stroke-linecap="round" />
</g>
		<g transform="matrix(0.03 0 0 -0.03 -12.69 16.71)" id="ljVthRucWmZYr3LCE8C2a"  >
<path style="stroke: none; stroke-width: 1; stroke-dasharray: none; stroke-linecap: butt; stroke-dashoffset: 0; stroke-linejoin: miter; stroke-miterlimit: 4; fill: rgb(0,0,136); fill-rule: nonzero; opacity: 1;" vector-effect="non-scaling-stroke"  transform=" translate(-9771.09, -4546.81)" d="M 9881.8 4758.9 L 9654.8 4080.62 L 9654.65 4080.65 L 9772.84 4786.46 L 9886.19 5010.15 L 9886.9 5012.99 L 9886.869999999999 5011.48 L 9887.529999999999 5012.83 L 9886.829999999998 5009.96 L 9881.799999999997 4758.9" stroke-linecap="round" />
</g>
		<g transform="matrix(0.03 0 0 -0.03 7.55 11.19)" id="F1jVbgriH1DIqsQsnzGMo"  >
<path style="stroke: none; stroke-width: 1; stroke-dasharray: none; stroke-linecap: butt; stroke-dashoffset: 0; stroke-linejoin: miter; stroke-miterlimit: 4; fill: rgb(0,0,136); fill-rule: nonzero; opacity: 1;" vector-effect="non-scaling-stroke"  transform=" translate(-10461.15, -4735.11)" d="M 10258 4859.7 L 10798.6 4395.11 L 10798.7 4395.24 L 10337.5 4939.75 L 10126.2 5073.02 L 10124.1 5075.120000000001 L 10124.9 5073.830000000001 L 10123.6 5074.640000000001 L 10125.6 5072.540000000001 L 10258 4859.700000000001" stroke-linecap="round" />
</g>
		<g transform="matrix(0.03 0 0 -0.03 10.73 6.63)" id="LZf4_rdfshRxaoJv_0v6L"  >
<path style="stroke: none; stroke-width: 1; stroke-dasharray: none; stroke-linecap: butt; stroke-dashoffset: 0; stroke-linejoin: miter; stroke-miterlimit: 4; fill: rgb(0,0,136); fill-rule: nonzero; opacity: 1;" vector-effect="non-scaling-stroke"  transform=" translate(-10569.75, -4890.39)" d="M 10341 4956.5 L 10984.3 4652.13 L 10984.4 4652.29 L 10396.699999999999 5054.8099999999995 L 10157.999999999998 5127.179999999999 L 10155.399999999998 5128.639999999999 L 10156.499999999998 5127.619999999999 L 10155.099999999999 5128.059999999999 L 10157.599999999999 5126.5999999999985 L 10340.999999999998 4956.499999999998" stroke-linecap="round" />
</g>
		<g transform="matrix(0.03 0 0 -0.03 13.14 1.67)" id="k8W4pLqx15s_8cjharcKR"  >
<path style="stroke: none; stroke-width: 1; stroke-dasharray: none; stroke-linecap: butt; stroke-dashoffset: 0; stroke-linejoin: miter; stroke-miterlimit: 4; fill: rgb(0,0,136); fill-rule: nonzero; opacity: 1;" vector-effect="non-scaling-stroke"  transform=" translate(-10651.85, -5059.41)" d="M 10414 5066.2 L 11112.1 4932.32 L 11112.2 4932.48 L 10443.7 5175.37 L 10194.6 5185.74 L 10191.7 5186.51 L 10193.1 5185.8 L 10191.5 5185.860000000001 L 10194.4 5185.09 L 10414 5066.2" stroke-linecap="round" />
</g>
		<g transform="matrix(0.03 0 0 -0.03 3.29 14.32)" id="7"  >
<path style="stroke: none; stroke-width: 1; stroke-dasharray: none; stroke-linecap: butt; stroke-dashoffset: 0; stroke-linejoin: miter; stroke-miterlimit: 4; fill: rgb(0,0,136); fill-rule: nonzero; opacity: 1;" vector-effect="non-scaling-stroke"  transform=" translate(-10315.95, -4628.33)" d="M 10149 4798.9 L 10561.5 4216.07 L 10561.6 4216.15 L 10245.300000000001 4857.11 L 10072.400000000001 5038.07 L 10070.900000000001 5040.599999999999 L 10071.400000000001 5039.15 L 10070.300000000001 5040.24 L 10071.900000000001 5037.71 L 10149.000000000002 4798.9" stroke-linecap="round" />
</g>
		<g transform="matrix(0.03 0 0 -0.03 -2 16.7)" id="duHLzaZnIk41oRhP0CmOG"  >
<path style="stroke: none; stroke-width: 1; stroke-dasharray: none; stroke-linecap: butt; stroke-dashoffset: 0; stroke-linejoin: miter; stroke-miterlimit: 4; fill: rgb(0,0,136); fill-rule: nonzero; opacity: 1;" vector-effect="non-scaling-stroke"  transform=" translate(-10135.7, -4547)" d="M 10025 4759.1 L 10252 4080.8100000000004 L 10252.1 4080.8500000000004 L 10134 4786.67 L 10020.6 5010.34 L 10019.9 5013.1900000000005 L 10019.9 5011.6900000000005 L 10019.3 5013.030000000001 L 10020 5010.170000000001 L 10025 4759.100000000001" stroke-linecap="round" />
</g>
</g>
</g>
</svg>