<svg height="305" viewBox="0 0 570 305" width="570" xmlns="http://www.w3.org/2000/svg"><path d="m19900 10500h-19900v-3434.2h19900z" fill="#f93" transform="matrix(.03 0 0 -.03 -12.94 312.947)"/><path d="m19900 7065.8h-19900v-3631.6h19900z" fill="#fff" transform="matrix(.03 0 0 -.03 -12.94 310.58)"/><path d="m0 3434.2v-3434.2h19900v3434.2z" fill="#128807" transform="matrix(.03 0 0 -.03 -12.94 308.223)"/><g fill="#008"><path d="m10748 4310.1c-7.8 24.96-30.8 43.19-58.1 43.19-33.9 0-61.3-27.65-61.3-61.76 0-22.12 11.6-41.4 29-52.29-56.9-40.44-117.1-76.28-180.6-106.67-3.6 30.68-29.2 54.59-60.6 54.59-33.8 0-61.3-27.65-61.3-61.73 0-14.63 5.2-27.87 13.7-38.46-63.4-23.16-129.4-40.91-197.2-53.35.8 3.88 1.2 7.9 1.2 12.02 0 34.1-27.5 61.73-61.3 61.73-33.9 0-61.3-27.63-61.3-61.73 0-9.94 2.6-19.18 6.7-27.51-35.2-3.05-70.66-4.94-106.58-4.94-33.1 0-65.8 1.7-98.27 4.3 5.12 8.99 8.26 19.26 8.26 30.32 0 34.1-27.48 61.76-61.32 61.76-33.88 0-61.32-27.66-61.32-61.76 0-5.63.99-11 2.44-16.19-72.05 12.51-142.05 31.08-209.18 55.65 14.78 11.28 24.45 28.97 24.45 49.08 0 34.11-27.44 61.74-61.32 61.74-33.84 0-61.32-27.63-61.32-61.74 0-2.84.48-5.58.87-8.35-63.05 29.51-123.22 64.17-179.94 103.6 23.43 8.69 40.2 31.15 40.2 57.76 0 34.08-27.47 61.73-61.31 61.73-32.39 0-58.65-25.4-60.88-57.46-58.53 48.38-112.42 102.22-161.16 160.57 32.11 1.94 57.67 28.52 57.67 61.38 0 34.1-27.48 61.74-61.32 61.74-27.2 0-50-17.97-58.02-42.68-41.3 58.54-77.82 120.74-108.68 186.24 1.34-.08 2.6-.4 3.94-.4 33.88 0 61.31 27.66 61.31 61.76s-27.43 61.74-61.31 61.74c-18.63 0-35.11-8.54-46.35-21.74-25.16 68.72-44.14 140.44-56.87 214.28 7.08-2.89 14.78-4.57 22.92-4.57 33.87 0 61.31 27.66 61.31 61.76s-27.44 61.74-61.31 61.74c-13.8 0-26.42-4.78-36.67-12.53-2.99 35.33-4.89 71-4.89 107.12 0 35.21 1.59 70.03 4.45 104.49 9.94-6.97 21.93-11.1 34.94-11.1 33.85 0 61.32 27.63 61.32 61.74 0 34.1-27.47 61.75-61.32 61.75-7.38 0-14.39-1.52-20.95-3.94 12.62 73.23 31.52 144.32 56.41 212.53 11.2-14.43 28.45-23.9 48.1-23.9 33.85 0 61.32 27.65 61.32 61.76 0 34.1-27.47 61.74-61.32 61.74-2.39 0-4.64-.44-6.91-.71 30.82 66.06 67.06 129.05 108.48 188.13 9.08-22.7 31.05-38.8 56.84-38.8 33.88 0 61.31 27.66 61.31 61.76 0 31.53-23.58 57.26-53.89 60.99 44.77 53.5 93.95 103.06 146.97 148.23 5.58-28.28 30.35-49.62 60.1-49.62 33.84 0 61.31 27.63 61.31 61.74 0 24.4-14.19 45.28-34.55 55.32 59.36 42.06 122.52 78.95 188.98 110.03-.62-3.5-1.1-7.06-1.1-10.74 0-34.11 27.48-61.74 61.32-61.74 33.88 0 61.32 27.63 61.32 61.74 0 21.01-10.46 39.54-26.42 50.7 66.55 24.47 135.88 42.98 207.22 55.62-.24-2.29-.67-4.51-.67-6.86 0-34.11 27.44-61.76 61.32-61.76 33.84 0 61.27 27.65 61.27 61.76 0 7.69-1.56 15.02-4.12 21.83 31.8 2.5 63.87 4.16 96.34 4.16 36.08 0 71.68-1.91 106.98-4.98-3.1-7.46-4.9-15.67-4.9-24.3 0-34.1 27.4-61.74 61.3-61.74s61.3 27.64 61.3 61.74c0 2.87-.5 5.62-.9 8.4 70-12.97 137.9-31.67 203.2-56.07-9.6-10.9-15.7-25.11-15.7-40.85 0-34.1 27.4-61.76 61.3-61.76 32.3 0 58.4 25.18 60.9 57.06 61.9-30.17 120.8-65.69 176.5-105.46-18.9-10.56-31.7-30.55-31.7-53.79 0-34.08 27.4-61.74 61.3-61.74 28.3 0 52 19.5 58.9 45.87 52-44.82 100.2-93.76 144.1-146.59-24.3-8.24-41.9-31.08-41.9-58.27 0-34.11 27.4-61.76 61.3-61.76 21 0 39.6 10.71 50.6 26.96 38.1-55.8 71.7-114.92 100.4-176.82-.4.02-.8.14-1.3.14-33.8 0-61.3-27.66-61.3-61.76 0-34.11 27.5-61.76 61.3-61.76 17.4 0 33 7.35 44.1 19.01 24.5-68.66 43-140.16 55.2-213.83-7.2 2.99-15 4.67-23.3 4.67-33.9 0-61.3-27.64-61.3-61.74s27.4-61.76 61.3-61.76c13.6 0 26 4.6 36.2 12.12 2.4-32.3 4.1-64.88 4.1-97.84 0-35.79-1.8-71.11-4.8-106.13-8.9 5.1-19.1 8.25-30.1 8.25-33.8 0-61.3-27.63-61.3-61.73 0-34.11 27.5-61.77 61.3-61.77 5.3 0 10.4.9 15.3 2.18-12.5-70.26-30.5-138.61-54.3-204.25-11.2 12-26.9 19.58-44.5 19.58-33.9 0-61.3-27.65-61.3-61.76 0-34.1 27.4-61.73 61.3-61.73.4 0 .9.11 1.4.13-29.5-62.8-64-122.59-103.1-179.07-10.9 16.91-29.8 28.12-51.3 28.12-33.9 0-61.3-27.64-61.3-61.74 0-27.4 17.8-50.36 42.3-58.44-42.8-50.91-89.6-98.23-139.9-141.58zm-797.68 2347.8c-772.04 0-1397.9-630.35-1397.9-1407.9s625.86-1407.9 1397.9-1407.9c771.98 0 1397.9 630.35 1397.9 1407.9s-625.9 1407.9-1397.9 1407.9" transform="matrix(.03 0 0 -.03 -12.9396 310.58)"/><path d="m9950 5492.7c-133.09 0-241.03-108.67-241.03-242.71s107.94-242.71 241.03-242.71c133.08 0 240.98 108.67 240.98 242.71s-107.9 242.71-240.98 242.71" transform="matrix(.03 0 0 -.03 -12.9391 310.5797)"/><path d="m10010 5740.4-56.06 713.54h-.2l-56.05-713.54 55.82-244.76v-2.94l.35 1.49.31-1.49v2.94z" transform="matrix(.03 0 0 -.03 -12.9455 311.0696)"/><path d="m9462.6 5302-708.44-56.51v-.16l708.44-56.51 242.99 56.25h2.95l-1.46.34 1.46.33h-2.95z" transform="matrix(.03 0 0 -.03 -12.4605 310.5823)"/><path d="m9649.1 5638.4-540.64 464.6-.12-.13 461.29-544.5 211.35-133.29 2.08-2.09-.82 1.28 1.29-.78-2.08 2.07z" transform="matrix(.03 0 0 -.03 -12.6082 310.9297)"/><path d="m9565.4 5541.5-643.27 304.35-.08-.15 587.7-402.54 238.74-72.36 2.52-1.47-1.11 1.04 1.46-.44-2.56 1.47z" transform="matrix(.03 0 0 -.03 -12.531 310.8177)"/><path d="m9492.8 5431.8-698.13 133.9-.05-.18 668.52-242.88 249.11-10.35 2.83-.8-1.34.71 1.53-.04-2.83.77z" transform="matrix(.03 0 0 -.03 -12.4785 310.7077)"/><path d="m9757.5 5699.2-412.59 582.82-.12-.1 316.33-640.95 172.91-180.94 1.49-2.53-.47 1.45 1.06-1.12-1.53 2.53z" transform="matrix(.03 0 0 -.03 -12.7035 310.9928)"/><path d="m9881.8 5739-227 678.29-.15-.04 118.19-705.82 113.35-223.67.71-2.87-.03 1.53.66-1.35-.7 2.85z" transform="matrix(.03 0 0 -.03 -12.8227 311.0527)"/><path d="m10444 5301.8 708.5-56.52v-.16l-708.5-56.5-243 56.25h-2.9l1.5.34-1.5.34h2.9z" transform="matrix(.03 0 0 -.03 -13.429 310.5863)"/><path d="m10258 5638.2 540.6 464.6.1-.11-461.2-544.52-211.3-133.29-2.1-2.09.8 1.28-1.3-.79 2 2.08z" transform="matrix(.03 0 0 -.03 -13.2845 310.924)"/><path d="m10341 5541.4 643.3 304.34.1-.13-587.7-402.55-238.7-72.37-2.6-1.46 1.1 1.03-1.4-.44 2.5 1.47z" transform="matrix(.03 0 0 -.03 -13.3625 310.8244)"/><path d="m10414 5431.6 698.1 133.9.1-.18-668.5-242.89-249.1-10.35-2.9-.79 1.4.71-1.6-.06 2.9.8z" transform="matrix(.03 0 0 -.03 -13.4155 310.7117)"/><path d="m10149 5699 412.5 582.85.1-.11-316.3-640.96-172.9-180.95-1.5-2.52.5 1.45-1.1-1.1 1.6 2.53z" transform="matrix(.03 0 0 -.03 -13.1885 310.9974)"/><path d="m10025 5738.8 227 678.28.1-.06-118.1-705.8-113.4-223.67-.7-2.87v1.52l-.6-1.36.7 2.87z" transform="matrix(.03 0 0 -.03 -13.071 311.0564)"/><path d="m10010 4757.4-56.06-713.56h-.2l-56.05 713.56 55.82 244.75v2.95l.35-1.49.31 1.49v-2.95z" transform="matrix(.03 0 0 -.03 -12.9455 310.1041)"/><path d="m9649.1 4859.5-540.64-464.6-.12.13 461.29 544.52 211.35 133.27 2.08 2.09-.82-1.28 1.29.81-2.08-2.1z" transform="matrix(.03 0 0 -.03 -12.6082 310.237)"/><path d="m9565.4 4956.3-643.27-304.37-.08.16 587.7 402.53 238.74 72.36 2.52 1.47-1.11-1.03 1.46.43-2.56-1.46z" transform="matrix(.03 0 0 -.03 -12.531 310.3457)"/><path d="m9492.8 5066.1-698.13-133.88-.05.15 668.52 242.88 249.11 10.39 2.83.77-1.34-.72 1.53.06-2.83-.77z" transform="matrix(.03 0 0 -.03 -12.4785 310.4596)"/><path d="m9757.5 4798.7-412.59-582.83-.12.09 316.33 640.94 172.91 180.96 1.49 2.54-.47-1.45 1.06 1.09-1.53-2.53z" transform="matrix(.03 0 0 -.03 -12.7035 310.1642)"/><path d="m9881.8 4758.9-227-678.28-.15.03 118.19 705.81 113.35 223.69.71 2.84-.03-1.51.66 1.35-.7-2.87z" transform="matrix(.03 0 0 -.03 -12.8227 310.1143)"/><path d="m10258 4859.7 540.6-464.59.1.13-461.2 544.51-211.3 133.27-2.1 2.1.8-1.29-1.3.81 2-2.1z" transform="matrix(.03 0 0 -.03 -13.2845 310.2433)"/><path d="m10341 4956.5 643.3-304.37.1.16-587.7 402.52-238.7 72.37-2.6 1.46 1.1-1.02-1.4.44 2.5-1.46z" transform="matrix(.03 0 0 -.03 -13.3625 310.3417)"/><path d="m10414 5066.2 698.1-133.88.1.16-668.5 242.89-249.1 10.37-2.9.77 1.4-.71-1.6.06 2.9-.77z" transform="matrix(.03 0 0 -.03 -13.4155 310.4523)"/><path d="m10149 4798.9 412.5-582.83.1.08-316.3 640.96-172.9 180.96-1.5 2.53.5-1.45-1.1 1.09 1.6-2.53z" transform="matrix(.03 0 0 -.03 -13.1885 310.1699)"/><path d="m10025 4759.1 227-678.29.1.04-118.1 705.82-113.4 223.67-.7 2.85v-1.5l-.6 1.34.7-2.86z" transform="matrix(.03 0 0 -.03 -13.071 310.11)"/></g></svg>