<?xml version="1.0" encoding="UTF-8" standalone="no" ?>
<!DOCTYPE svg PUBLIC "-//W3C//DTD SVG 1.1//EN" "http://www.w3.org/Graphics/SVG/1.1/DTD/svg11.dtd">
<svg xmlns="http://www.w3.org/2000/svg" xmlns:xlink="http://www.w3.org/1999/xlink" version="1.1" width="186" height="22" viewBox="0 0 186 22" xml:space="preserve">
<desc>Created with Fabric.js 3.6.3</desc>
<defs>
</defs>
<g transform="matrix(1 0 0 1 93 11)"  >
<g style=""   >
		<g transform="matrix(0.1 0 0 -0.1 0.49 0.61)" id="p-GAXaeDt_v2pXPoTvxBV"  >
<path style="stroke: none; stroke-width: 1; stroke-dasharray: none; stroke-linecap: butt; stroke-dashoffset: 0; stroke-linejoin: miter; stroke-miterlimit: 4; fill: rgb(67,187,79); fill-rule: nonzero; opacity: 1;" vector-effect="non-scaling-stroke"  transform=" translate(-2424.8, -1713.1)" d="M 3329.04 1795.43 L 1520.57 1795.43 L 1520.57 1631.29 C 1593.75 1635.35 1600.19 1662.43 1685.1699999999998 1662.43 C 1777.04 1662.43 1777.04 1630.76 1868.9199999999998 1630.76 C 1960.7699999999998 1630.76 1960.7699999999998 1662.43 2052.64 1662.43 C 2144.5 1662.43 2144.5 1630.76 2236.3599999999997 1630.76 C 2328.22 1630.76 2328.22 1662.43 2420.0799999999995 1662.43 C 2511.9299999999994 1662.43 2511.9299999999994 1630.76 2603.7899999999995 1630.76 C 2695.6399999999994 1630.76 2695.6399999999994 1662.43 2787.4999999999995 1662.43 C 2879.3399999999997 1662.43 2879.3399999999997 1630.76 2971.1699999999996 1630.76 C 3063.0099999999998 1630.76 3063.0099999999998 1662.43 3154.8599999999997 1662.43 C 3243.3999999999996 1662.43 3246.5999999999995 1633 3329.0399999999995 1630.89 L 3329.0399999999995 1795.43" stroke-linecap="round" />
</g>
		<g transform="matrix(0.1 0 0 -0.1 78.24 8.04)" id="xKDELZqzYpWTJigZAKFKg"  >
<path style="stroke: none; stroke-width: 1; stroke-dasharray: none; stroke-linecap: butt; stroke-dashoffset: 0; stroke-linejoin: miter; stroke-miterlimit: 4; fill: rgb(7,11,14); fill-rule: nonzero; opacity: 1;" vector-effect="non-scaling-stroke"  transform=" translate(-3202.31, -1638.76)" d="M 3329.06 1600.89 C 3328.7999999999997 1600.89 3328.54 1600.9 3328.2799999999997 1600.9 C 3303.1299999999997 1601.52 3283.54 1604.63 3267.2 1608.8300000000002 C 3250.85 1613.0200000000002 3238.23 1617.9600000000003 3226.49 1621.7800000000002 C 3218.62 1624.3600000000001 3211 1626.5800000000002 3201.9799999999996 1628.38 C 3189.99 1630.7600000000002 3175.3599999999997 1632.43 3154.8599999999997 1632.43 C 3130.9199999999996 1632.41 3115.0399999999995 1630.17 3101.91 1627.1200000000001 C 3088.79 1624.0600000000002 3077.8599999999997 1619.89 3063.87 1615.19 C 3058.2599999999998 1613.31 3052.21 1611.4 3045.58 1609.6100000000001 C 3053.23 1631.8000000000002 3060.29 1654.13 3066.7799999999997 1676.63 L 3066.8399999999997 1676.63 C 3063.7499999999995 1665.92 3060.5199999999995 1655.24 3057.1699999999996 1644.5900000000001 C 3082.2499999999995 1653.13 3105.0599999999995 1662.43 3154.8599999999997 1662.43 C 3243.3999999999996 1662.43 3246.5999999999995 1633 3329.0399999999995 1630.89 L 3329.0399999999995 1676.63 L 3343.3799999999997 1676.63 C 3348.7799999999997 1676.63 3354.0299999999997 1675.96 3359.0399999999995 1674.68 L 3359.0399999999995 1630.89 C 3359.0399999999995 1627.7800000000002 3358.5699999999997 1624.74 3357.6599999999994 1621.8500000000001 C 3356.1899999999996 1617.18 3353.5799999999995 1612.91 3349.9799999999996 1609.41 C 3344.3499999999995 1603.92 3336.8999999999996 1600.89 3329.0599999999995 1600.89" stroke-linecap="round" />
</g>
		<g transform="matrix(0.1 0 0 -0.1 76.34 -0.19)" id="ov4rEyojgCCd1hkeB_C7F"  >
<path style="stroke: none; stroke-width: 1; stroke-dasharray: none; stroke-linecap: butt; stroke-dashoffset: 0; stroke-linejoin: miter; stroke-miterlimit: 4; fill: rgb(52,156,62); fill-rule: nonzero; opacity: 1;" vector-effect="non-scaling-stroke"  transform=" translate(-3183.39, -1721.03)" d="M 3299.04 1676.63 L 3251.63 1676.63 C 3242.34 1679.8100000000002 3231.9500000000003 1683.18 3219.57 1685.98 C 3202.3500000000004 1689.8700000000001 3181.7200000000003 1692.44 3155.1200000000003 1692.44 C 3155.03 1692.44 3154.9500000000003 1692.44 3154.86 1692.44 C 3154.81 1692.44 3154.75 1692.44 3154.69 1692.44 C 3130.11 1692.44 3110.66 1690.27 3094.25 1686.8600000000001 C 3084.34 1684.8200000000002 3075.61 1682.3400000000001 3067.75 1679.8300000000002 C 3075.83 1708.1200000000001 3082.99 1736.65 3089.22 1765.43 L 3299.04 1765.43 L 3299.04 1676.63" stroke-linecap="round" />
</g>
		<g transform="matrix(0.1 0 0 -0.1 79.06 -6.79)" id="qH-xQ7DBYgg84a8A8cPyg"  >
<path style="stroke: none; stroke-width: 1; stroke-dasharray: none; stroke-linecap: butt; stroke-dashoffset: 0; stroke-linejoin: miter; stroke-miterlimit: 4; fill: rgb(8,13,17); fill-rule: nonzero; opacity: 1;" vector-effect="non-scaling-stroke"  transform=" translate(-3210.52, -1787.02)" d="M 3329.04 1778.61 L 3092 1778.61 C 3093.15 1784.2099999999998 3094.27 1789.81 3095.35 1795.4299999999998 L 3329.04 1795.4299999999998 L 3329.04 1778.61" stroke-linecap="round" />
</g>
		<g transform="matrix(0.1 0 0 -0.1 0.49 0.61)" id="p-GAXaeDt_v2pXPoTvxBV"  >
<path style="stroke: none; stroke-width: 1; stroke-dasharray: none; stroke-linecap: butt; stroke-dashoffset: 0; stroke-linejoin: miter; stroke-miterlimit: 4; fill: rgb(67,187,79); fill-rule: nonzero; opacity: 1;" vector-effect="non-scaling-stroke"  transform=" translate(-2424.8, -1713.1)" d="M 3329.04 1795.43 L 1520.57 1795.43 L 1520.57 1631.29 C 1593.75 1635.35 1600.19 1662.43 1685.1699999999998 1662.43 C 1777.04 1662.43 1777.04 1630.76 1868.9199999999998 1630.76 C 1960.7699999999998 1630.76 1960.7699999999998 1662.43 2052.64 1662.43 C 2144.5 1662.43 2144.5 1630.76 2236.3599999999997 1630.76 C 2328.22 1630.76 2328.22 1662.43 2420.0799999999995 1662.43 C 2511.9299999999994 1662.43 2511.9299999999994 1630.76 2603.7899999999995 1630.76 C 2695.6399999999994 1630.76 2695.6399999999994 1662.43 2787.4999999999995 1662.43 C 2879.3399999999997 1662.43 2879.3399999999997 1630.76 2971.1699999999996 1630.76 C 3063.0099999999998 1630.76 3063.0099999999998 1662.43 3154.8599999999997 1662.43 C 3243.3999999999996 1662.43 3246.5999999999995 1633 3329.0399999999995 1630.89 L 3329.0399999999995 1795.43" stroke-linecap="round" />
</g>
		<g transform="matrix(0.1 0 0 -0.1 0.49 0.6)" id="aOTK30-cKN0RGPmW35mi-"  >
<path style="stroke: none; stroke-width: 1; stroke-dasharray: none; stroke-linecap: butt; stroke-dashoffset: 0; stroke-linejoin: miter; stroke-miterlimit: 4; fill: rgb(9,16,25); fill-rule: nonzero; opacity: 1;" vector-effect="non-scaling-stroke"  transform=" translate(0, 0)" d="M 904.235 82.2701 L 904.235 112.2701 L -904.235 112.2701 C -912.135 112.2701 -919.865 109.0701 -925.455 103.4901 C -931.0350000000001 97.9001 -934.235 90.17009999999999 -934.235 82.2701 L -934.235 -81.86989999999999 C -934.235 -90.10989999999998 -930.845 -97.99989999999998 -924.855 -103.6599 C -918.865 -109.3299 -910.8050000000001 -112.2799 -902.575 -111.81989999999999 C -897.7363200000001 -111.55496 878.325 -111.63989999999998 903.4749999999999 -112.25989999999999 C 911.5949999999999 -112.46989999999998 919.3549999999999 -109.42989999999999 925.175 -103.74989999999998 C 930.995 -98.07989999999998 934.2349999999999 -90.39989999999999 934.2349999999999 -82.26989999999998 L 934.2349999999999 82.27010000000001 C 934.2349999999999 90.17010000000002 931.0349999999999 97.90010000000001 925.4549999999999 103.49010000000001 C 919.8649999999999 109.07010000000001 912.1349999999999 112.27010000000001 904.2349999999999 112.27010000000001 L 904.2349999999999 82.27010000000001 L 874.2349999999999 82.27010000000001 L 874.2349999999999 -82.26989999999998 L 904.2349999999999 -82.26989999999998 L 905.0049999999999 -52.279899999999984 C 886.1449999999999 -51.779899999999984 -862.7550000000001 -43.92989999999998 -874.2350000000001 -47.089899999999986 C -885.7450000000001 -50.25989999999999 -887.3350000000002 -50.85989999999999 -905.9050000000001 -51.909899999999986 L -904.2350000000001 -81.86989999999999 L -874.2350000000001 -81.86989999999999 L -874.2350000000001 52.2701 L 904.2349999999999 52.2701 L 904.2349999999999 82.2701 L 874.2349999999999 82.2701 L 904.2349999999999 82.2701" stroke-linecap="round" />
</g>
		<g transform="matrix(0.1 0 0 -0.1 90.26 8.04)" id="xKDELZqzYpWTJigZAKFKg"  >
<path style="stroke: none; stroke-width: 1; stroke-dasharray: none; stroke-linecap: butt; stroke-dashoffset: 0; stroke-linejoin: miter; stroke-miterlimit: 4; fill: rgb(7,11,14); fill-rule: nonzero; opacity: 1;" vector-effect="non-scaling-stroke"  transform=" translate(0, 0)" d="M 6.5939 -37.87 C 6.3339 -37.87 6.0739 -37.86 5.813899999999999 -37.86 C -19.3361 -37.24 -75.8661 -5.759999999999998 6.573899999999999 -7.870000000000001 L 6.573899999999999 37.870000000000005 L 20.913899999999998 37.870000000000005 C 26.313899999999997 37.870000000000005 31.563899999999997 37.2 36.573899999999995 35.92 L 36.573899999999995 -7.869999999999997 C 36.573899999999995 -10.979999999999997 36.103899999999996 -14.019999999999998 35.19389999999999 -16.909999999999997 C 33.72389999999999 -21.58 31.113899999999994 -25.849999999999994 27.513899999999992 -29.349999999999994 C 21.883899999999993 -34.839999999999996 14.433899999999992 -37.86999999999999 6.593899999999991 -37.86999999999999" stroke-linecap="round" />
</g>
		<g transform="matrix(0.1 0 0 -0.12 76.25 0.75)" id="ov4rEyojgCCd1hkeB_C7F"  >
<path style="stroke: none; stroke-width: 1; stroke-dasharray: none; stroke-linecap: butt; stroke-dashoffset: 0; stroke-linejoin: miter; stroke-miterlimit: 4; fill: rgb(52,156,62); fill-rule: nonzero; opacity: 1;" vector-effect="non-scaling-stroke"  transform=" translate(0, 0)" d="M 115.645 -44.4 C 115.645 -44.4 -107.78500000000001 -38.69 -115.645 -41.199999999999996 C -107.565 -12.909999999999997 -100.405 15.620000000000005 -94.175 44.4 L 115.645 44.4 L 115.645 -44.4" stroke-linecap="round" />
</g>
		<g transform="matrix(0.1 0 0 -0.1 79.06 -6.79)" id="qH-xQ7DBYgg84a8A8cPyg"  >
<path style="stroke: none; stroke-width: 1; stroke-dasharray: none; stroke-linecap: butt; stroke-dashoffset: 0; stroke-linejoin: miter; stroke-miterlimit: 4; fill: rgb(8,13,17); fill-rule: nonzero; opacity: 1;" vector-effect="non-scaling-stroke"  transform=" translate(-3210.52, -1787.02)" d="M 3329.04 1778.61 L 3092 1778.61 C 3093.15 1784.2099999999998 3094.27 1789.81 3095.35 1795.4299999999998 L 3329.04 1795.4299999999998 L 3329.04 1778.61" stroke-linecap="round" />
</g>
		<g transform="matrix(0.1 0 0 -0.1 89.16 6.64)" id="WcUyX-S8curcrQKPWQUbX"  >
<path style="stroke: none; stroke-width: 1; stroke-dasharray: none; stroke-linecap: butt; stroke-dashoffset: 0; stroke-linejoin: miter; stroke-miterlimit: 4; fill: rgb(7,10,11); fill-rule: nonzero; opacity: 1;" vector-effect="non-scaling-stroke"  transform=" translate(0, 0)" d="M 18.32 -22.87 C -64.12 -20.76 18.32 22.87 18.32 22.87 L 18.32 -22.87" stroke-linecap="round" />
</g>
</g>
</g>
</svg>