<svg height="219" viewBox="0 0 352 219" width="352" xmlns="http://www.w3.org/2000/svg"><path d="m32602.6 18846.4c-121.4-76.2-693.4-492.5-693.4-492.5-329.7-150.9-722.1 39.6-1046.7 132.6-247.6 70.9-729.7 395-980.9 192.3-35.8-28.9-53.5-112.8-82.4-130.9-23.9-14.7-77.4-14.6-122.2-14.4-19.4.1-37.1.2-50.1-1-132-11.6-215.3-27.8-310.9-122.7-103.2-102.4-143-109.1-292.5-115.6-187.7-8.1-194.1-39.1-316.6-163.9-73.2-74.7-59.9-66.8-170-58.7-98.6 7.3-202.7 25.2-303.7 6.4-152.2-28.4-380-171.4-422.6-331.7-112.5 9.9-222.2-12.3-313.4-81.7-122.5-93.2-114.6-197.7-177.1-315.8-49.7-94.2-185-115.5-270.1-209.6-112.1-123.9-136.6-304.7-66.7-456.6 29.6-64.4 68.1-66.1 98-113.1 47.6-74.9-186.2-384.2-161.9-468.7 57.7-200.6 309.2-275.1 516.4-302.2 22.8-3 83.9 31.8 147 66.6 75.1 41.5 153 82.9 171.9 60.5 27.2-32.1 9.1-156.8 33.7-206.6 111.2-226.1 430.8-290.5 656.5-306 107.2-7.3 218.7-7.5 323.7 20.3 47.7 12.7 152.9 83.9 203.8 70.5 70.8-18.6 131.8-145.9 210.5-189 272.2-149.2 592.3-134.3 809 116.7 61.9 71.7 103.5 195.1 192.8 238.8 86.4 42.4 122.7-7.1 209.7-11.8 207.7-11 262.2 160.2 319 325.2 160.6-69.2 180.7-112.2 388.3-55 230 63.4 319.6 177.7 402.5 391.8 58.3 150.6 14.8 213.1 178.7 210.6 148.6-2.3 196.2 9.8 257.4 164.4 53.7 135.7 46.3 275.3 38.2 415.8-4.4 75.5-32.2 212.4 22.4 282.3 23.9 30.5 91.2 19.8 121.9 55.5 35 40.8 30.8 89.4 27.8 139.8-7.1 115.5-44 188.7-19.3 307.1 42.8 205.3 217.1 381.8 376.2 520.5 61.5 53.5 238.1 127.9 244.2 218.4 4.2 62.4-111 172.8-149.1 211.4" fill="#89ed29" transform="matrix(.06 0 0 -.06 -1614.8432 1132.1944)"/><path d="m32562 18859.1s-995.2-816.5-2248.2-1372.8c-1574.4-699-2437.1-888-2349-938.4 88.2-50.3 999.5 276.3 2058.9 662.9 2273.8 829.7 2777.6 1409 2777.6 1409s-25.2 100.8-113.4 176.4c-88.1 75.5-125.9 62.9-125.9 62.9" fill="#dbff81" transform="matrix(.06 0 0 -.06 -1616.2988 1133.9798)"/><g fill="#aaf44c"><path d="m27854.8 16016.3c-12.8 0-26.5 5.1-41 16.8-108.2 87.6 33.9 164 92.9 225.2 40.7 42.1 85.5 78.8 127.4 119.6 36.9 36.1 63.4 86.3 100.8 119.7l12.5 12.6c7 2.9 12.5 4.2 16.9 4.2 25.8 0 8.9-45.8.5-67.2-35.1-88.1-114.7-171.9-166.8-252.2-33.9-52.4-78.9-178.7-143.2-178.7" transform="matrix(.06 0 0 -.06 -1609.8902 1130.151)"/><path d="m29112.7 15492.3c-21.7 0-43.4 53.1-66.3 78.3-34.2 37.7-83.7 43.6-125.7 62.8-114.7 52.5-107.5 127.3-79.2 240.7 65.5 261.8 88.9 540.6 86.8 812.4 6.2 4.8 4.3 9.7 11 11.8 73.5-163.2 108.6-371.5 108.7-554.9 0-123.9 22.6-221.1 56.7-338.4 20.3-70.1 62.6-196.8 38.1-270.9-10.1-30.5-20.1-41.8-30.1-41.8" transform="matrix(.06 0 0 -.06 -1612.5918 1129.698)"/><path d="m28391.9 15473.8c-24 0-47.2 3.2-68.1 9.9l-37.8 37.7c-5.3-3.9.1-11.8-9.6-11.8-.5 0-1 0-1.6.1-82.5 84.8 119.5 385.9 160.7 465.2 56.5 108.7 125.3 209.2 176.2 321 33.7 74 40.2 181.7 89.9 245.7 17.4 22.5 34.2 34 47 34 16.5 0 26.4-19.3 22.6-59.1-5-53-42.9-108.5-61.9-157.5-47.3-122.3-90.4-252.7-102.5-382.5-11-119 63.5-269 11.7-379.8-36.7-78.6-137.3-122.9-226.6-122.9" transform="matrix(.06 0 0 -.06 -1611.326 1129.512)"/><path d="m30017.8 15628.5c-53 146.4-49 296.8-63 451.9-13.6 151.6-26.1 305.5-18.9 459.9 8.5 180.3-36.5 469.1 86.5 612.2 12.9 15.1 9.7 23.7 25.8 30.7 26.2-124.1-17.4-276.1-24.2-403.9-10-185.8 41.2-355.3 113.3-523.2 35.5-82.5 67.3-164 108.6-243.3 25.6-49.1 67.1-117.7 68.2-175.1 1.4-69.9-38.8-61.9-94.6-70.8-60.8-9.6-99.4-31.5-140.4-80.3-15.8-18.8-25.6-42.9-36.1-45.5z" transform="matrix(.06 0 0 -.06 -1615.6182 1130.521)"/><path d="m30787.8 16023.1c-38.8 0-87.3 14.3-96.2 27.3l-37.8-12.5c-21.5 153.7-43.6 298.3-44 458.3-.4 153.6 20.5 305.4 48.9 454.8 28.6 149.9 29.3 418.6 152.4 523.4 25.8-21-54.7-247.7-62.6-296.7-19.3-119.8-37.9-248.3-31.8-371.4 6.9-140 23.3-278 43.9-415.8 10.3-69.3 111.4-289.2 74.4-351.2-6.9-11.7-25.6-16.2-47.2-16.2" transform="matrix(.06 0 0 -.06 -1617.227 1131.435)"/><path d="m31561.2 16598.2c-2.3 0-4.5.1-6.8.1h-37.8c-69.1 106.7-49.7 284.1-44.1 407.8 7 150.6 36 308 80.1 453.6 29.6 97.6 67.7 194.9 107.1 291.4 13.5 33.1 36.8 101.1 69.5 121.1 12.8 7.8 22.6 11.2 30 11.2 29 0 19.8-52.6 9.3-88.6-37.7-128.5-100.9-243.2-121.2-377.9-18.4-122.4-1.4-250.2 14.5-369.9 13.9-105.1 47.7-230.9 43.7-335.3-3.2-85.3-77-113.5-144.3-113.5" transform="matrix(.06 0 0 -.06 -1619.6108 1132.748)"/><path d="m27551.9 16569.6c-57 0-115.5 10.3-171.4 17.5-70.2 9.1-163.6 9.4-221.8 55.3l-31.5 18.9c-53.4 44.8 63.6 101.7 100.8 105.7 7.6.8 15.1 1.1 22.5 1.1 61.1 0 118.7-24.8 177.7-38.9 60.2-14.4 124-16.6 188-16.6 14.4 0 28.9.1 43.3.2s28.7.2 43 .2c23 0 45.9-.3 68.5-1.3 7.7-.4 16.7-.5 26.6-.5 5.6 0 11.6.1 17.7.1s12.4.1 18.9.1c58.8 0 129-2.6 156.4-31.2-74.6-76.4-255.9-75.7-352.9-100.8-27.9-7.1-56.6-9.8-85.8-9.8" transform="matrix(.06 0 0 -.06 -1608.7618 1131.221)"/><path d="m28802.3 16928.7c-68.1 0-151.3 27.2-195 34.9-123.9 21.8-243.2 56.9-365.4 92.9-140.1 41.3-289.9 73.9-423.5 133.6-101.2 45.3-339.2 169.7-344.8 302.5l-12.6 18.9c8.8 2.9 36.6 60.8 56.7 82 22.9 24.1 58.9 55.9 89.6 67.5 15.5 5.9 31.9 8.6 48.9 8.6 94 0 203.4-81.4 247.2-151.9 31.6-50.9 41.9-98.2 88-138.7 54.2-47.4 125.1-80.1 188.9-112.9 130.5-67.2 253.3-140.8 394-190.6 93.2-32.9 250.5-45.5 323.3-105.6-17.7-31-53.7-41.2-95.3-41.2" transform="matrix(.06 0 0 -.06 -1610.438 1132.909)"/><path d="m29817.2 17348.2c-76.3 0-168.4 18.7-221.3 24.6-233 25.9-468.7 85.2-692.9 163.9-147.2 51.6-303.3 100.2-445.4 165.1-102.3 46.6-318.1 156.3-329 288.3v18.9c52 31 124.5 45 198.3 45 73.4 0 147.9-13.9 204.7-38.7 123.7-54.2 219.9-170.2 332.4-245.6 228.2-153.2 536-240.7 802.5-300.7 65.5-14.8 130.1-27.9 193.9-40.8 49.7-10.1 126.9-22.3 50.5-63.1-23.3-12.5-56.6-16.9-93.7-16.9" transform="matrix(.06 0 0 -.06 -1612.7204 1133.976)"/><path d="m30196.2 17501.9c-86.6 0-193.4 17.4-235.1 21.8-238 25.4-472.4 182.5-667.5 313.7-106.6 71.6-219.7 124.9-333.8 182.6-47.4 24-102.4 46.5-113.5 102.2-8.2 41.4 17.1 105.9 56.8 119.8l44.1-12.6c9.6 4.8 20.1 7 31.2 7 87 0 213.3-134.6 264.8-183.5 151.6-143.8 299.2-251.3 484.9-347.8 93.7-48.7 185-79.5 284.8-104.1 88.5-21.8 228.9-17.7 301.7-70.5-16.9-21.6-63.6-28.6-118.4-28.6" transform="matrix(.06 0 0 -.06 -1614.1708 1134.437)"/><path d="m30679.7 17908.3c-102.4 0-202.4 14.1-302.8 50.1-112.8 40.5-1030.8 292.8-850.3 497.7l25.2 25.2c34.6 14 95.6 26.9 148 26.9 22.4 0 43.3-2.4 59.8-8 103.3-35.3 174.2-114.4 239.3-195.1 80.6-99.9 242.8-160 360.5-203.2 148.1-54.4 328.2-88.1 484.8-100.6 30.6-2.5 61.2-3.4 91.8-3.4 38.8 0 77.5 1.5 116 3.4 6.3.3 13.9.5 22.1.5 46.3 0 110.6-7.4 52.2-51.1-18.8-14-50.7-16.2-82.3-16.2-6.9 0-13.8.1-20.5.2-6.8.1-13.3.2-19.6.2-10.7 0-20.6-.2-28.9-1.4-56.3-7.4-112.6-13.3-170-18.8-42.3-4.1-84-6.4-125.3-6.4" transform="matrix(.06 0 0 -.06 -1616.1628 1135.335)"/></g><path d="m28004.2 16160.7c-26-59.1-59.2-109.1-98.8-160.6-41.1-53.2-94.4-92.3-104.5-163.3-8.3-57.9 12.5-150.3 75.6-164.7v-27.5c37.1-24.4 95.8-94.7 121.1-16.5 19.2 59.5 3.1 151.6 10.9 214.2 10.7 86.8 18.5 174.9 45.1 258 21.4 66.9 59.6 124.5 52.4 197.3-58.1-23.8-78.5-83.9-101.8-136.9" fill="#69cc2f" transform="matrix(.06 0 0 -.06 -1609.8318 1129.294)"/><path d="m29300.2 16022c-65.1 122.3-73.9 251.9-105.6 381.9-12.1 49.8-22.1 98.2-34.3 146.8-8.4 33.4-10.4 91.7-26.3 120.8-2.4 4.5-5 20.4-6.4 26.5-15.2 1.7-19.4-5.3-26.5-15.5v16.5c-18.6-130.3 19.9-261.7 33-391.1 16.7-167.1 32.9-335.8 64.5-500 19.6-101.7 44.1-202.2 82.4-296.3 41.5-102.1 78.2-153.1 188-169.1 54.6-8 141.4-33.8 191.3-4.5 34.2 103.5-67.7 193.4-125.1 272.2-89.3 122.6-163.2 277-235 411.8" fill="#69cc2f" transform="matrix(.06 0 0 -.06 -1613.6384 1129.4708)"/><path d="m30226.7 16951.6c1.8 37.8 62.9 291.5-16.3 252.6l-16.5 5.5c-57.9-205.1-134.5-436.7-88-654.7 11.2-52.8 90.5-349.3 176.1-295.6 68 42.6-10.2 233.9-22.2 287.2-29.7 131.7-39.7 268.6-33.1 405" fill="#69cc2f" transform="matrix(.06 0 0 -.06 -1615.8212 1131.3886)"/><path d="m27897.1 16469.7c12.9 32.4-16 59.6-48 48.1l-22 10.9c-109.1-30.9-224.9-63.7-340.5-71.3-48.7-3.3-98.4-9-147-4.3-41.9 4-87.9 21.8-133 15.2-95.9-14-115.7-115.8-155.2-190.9-30.2-57.7-121.7-216.7 27.6-186.9 77.7 15.5 155.8 112.6 222 152.8 94.6 57.5 200.2 106 307.8 131.8 72.3 17.4 148.1 26.3 218.3 50.7 20.6 7.1 60.6 20.4 70 43.9" fill="#69cc2f" transform="matrix(.06 0 0 -.06 -1608.4854 1130.2656)"/><path d="m28832.3 16518.3c-65.4 17-81-204.5-86.9-236.7-18.7-101.7-76.6-196.9-94.9-296.5-16.4-89.6 2.8-177.5 11.2-263.6 3.2-33.7 16.5-266.1 82.5-197.7l43.9 5.5c132.6-15.4 15.9 114.6-12.3 164.7-41.9 74.3-50.8 175.4-35.9 259.4 11.1 62.6 171.6 544.2 92.4 564.9" fill="#69cc2f" transform="matrix(.06 0 0 -.06 -1611.9478 1129.485)"/><path d="m32092.7 18000.4c14.2 29.3 76 114.8 72.6 120.9l-54.9-27.5c-69.1-22-139.1-165.2-166.2-229.4-36.2-85.6-59.9-193.2-36.8-286.9 22-89.8 191.6-132.4 144-31.3-23.8 50.3-53.9 54.5-56.3 119.3-1.9 48.6 3.9 91.9 15.1 137.3 17.5 70.7 51 132.6 82.5 197.6" fill="#69cc2f" transform="matrix(.06 0 0 -.06 -1620.7004 1134.2488)"/><path d="m29717.8 17044.2c-2-2.5-4-5.3-5.8-8.2l4.1-2.1c-.3 5.6 11.1 8.2 1.7 10.3" fill="#69cc2f" transform="matrix(.06 0 0 -.06 -1614.5356 1132.213)"/><path d="m29700 16084c-19.1 100.9-61.5 205.1-70.5 307.3-11.1 126.2-4.6 250.8 16.5 373.6 12.1 70.4 24.7 208.3 66 271.1l-17.8 8.9c-70.8-95.2-102.2-217-115.2-335.2-19.4-177.1-34-351.9-27.6-532.5 5.4-153.7 47.1-318.3 100.2-462.7 31.3-85 63.7-260.1 168.9-278.5 242.6-42.5 35.4 322.6-12.5 399.3-51.5 82.5-90 153.2-108 248.7" fill="#69cc2f" transform="matrix(.06 0 0 -.06 -1614.6082 1130.0744)"/><path d="m31070.3 16177.8c-64.4 103.7-53.7 257.4-47.2 381.1 3 57 29.7 153.1-.5 206-44.6 78.4-58-42.9-65-90.6-19.6-134.9-61-258.5-66.3-395.4-2.4-62.1 44.2-341 156.5-263.6h33c46.4-15.1 71 34.6 57.6 82.8-7.5 26.9-52.9 55.1-68.1 79.7" fill="#69cc2f" transform="matrix(.06 0 0 -.06 -1617.9978 1130.4944)"/><path d="m31557.1 17760.5c-32.3-7.3-52.6-36.5-72.7-64.9-154.4-218.2-97.2-545-130-798.9-21.2-164.3-61.9-328.7-67.7-494.3-1.6-43.8-10.6-178.4 58-165.1 46.1 8.9 74.6 141.5 73.8 165.1l41.2 65.9c-43.2 28.9-20.8 221.1-24.5 296.6-5.5 110.3-8.5 224.7-8.5 337.7 0 116.2-2.1 243.7 26.6 354.2 24.7 95.2 117.5 206.7 103.8 303.7" fill="#69cc2f" transform="matrix(.06 0 0 -.06 -1619.0776 1132.0964)"/></svg>