<svg height="22" viewBox="0 0 186 22" width="186" xmlns="http://www.w3.org/2000/svg"><path d="m3329.04 1795.43h-1808.47v-164.14c73.18 4.06 79.62 31.14 164.6 31.14 91.87 0 91.87-31.67 183.75-31.67 91.85 0 91.85 31.67 183.72 31.67 91.86 0 91.86-31.67 183.72-31.67s91.86 31.67 183.72 31.67c91.85 0 91.85-31.67 183.71-31.67 91.85 0 91.85 31.67 183.71 31.67 91.84 0 91.84-31.67 183.67-31.67 91.84 0 91.84 31.67 183.69 31.67 88.54 0 91.74-29.43 174.18-31.54z" fill="#43bb4f" transform="matrix(.1 0 0 -.1 -148.99 182.92)"/><path d="m3329.06 1600.89c-.26 0-.52.01-.78.01-25.15.62-44.74 3.73-61.08 7.93-16.35 4.19-28.97 9.13-40.71 12.95-7.87 2.58-15.49 4.8-24.51 6.6-11.99 2.38-26.62 4.05-47.12 4.05-23.94-.02-39.82-2.26-52.95-5.31-13.12-3.06-24.05-7.23-38.04-11.93-5.61-1.88-11.66-3.79-18.29-5.58 7.65 22.19 14.71 44.52 21.2 67.02h.06c-3.09-10.71-6.32-21.39-9.67-32.04 25.08 8.54 47.89 17.84 97.69 17.84 88.54 0 91.74-29.43 174.18-31.54v45.74h14.34c5.4 0 10.65-.67 15.66-1.95v-43.79c0-3.11-.47-6.15-1.38-9.04-1.47-4.67-4.08-8.94-7.68-12.44-5.63-5.49-13.08-8.52-20.92-8.52" fill="#070b0e" transform="matrix(.1 0 0 -.1 -148.991 182.916)"/><path d="m3299.04 1676.63h-47.41c-9.29 3.18-19.68 6.55-32.06 9.35-17.22 3.89-37.85 6.46-64.45 6.46-.09 0-.17 0-.26 0-.05 0-.11 0-.17 0-24.58 0-44.03-2.17-60.44-5.58-9.91-2.04-18.64-4.52-26.5-7.03 8.08 28.29 15.24 56.82 21.47 85.6h209.82z" fill="#349c3e" transform="matrix(.1 0 0 -.1 -148.999 182.913)"/><path d="m3329.04 1778.61h-237.04c1.15 5.6 2.27 11.2 3.35 16.82h233.69z" fill="#080d11" transform="matrix(.1 0 0 -.1 -148.992 182.912)"/><path d="m3329.04 1795.43h-1808.47v-164.14c73.18 4.06 79.62 31.14 164.6 31.14 91.87 0 91.87-31.67 183.75-31.67 91.85 0 91.85 31.67 183.72 31.67 91.86 0 91.86-31.67 183.72-31.67s91.86 31.67 183.72 31.67c91.85 0 91.85-31.67 183.71-31.67 91.85 0 91.85 31.67 183.71 31.67 91.84 0 91.84-31.67 183.67-31.67 91.84 0 91.84 31.67 183.69 31.67 88.54 0 91.74-29.43 174.18-31.54z" fill="#43bb4f" transform="matrix(.1 0 0 -.1 -148.99 182.92)"/><path d="m904.235 82.2701v30h-1808.47c-7.9 0-15.63-3.2-21.22-8.78-5.58-5.59-8.78-13.32-8.78-21.22v-164.14c0-8.24 3.39-16.13 9.38-21.79 5.99-5.67 14.05-8.62 22.28-8.16 4.83868.26494 1780.9.18 1806.05-.44 8.12-.21 15.88 2.83 21.7 8.51 5.82 5.67 9.06 13.35 9.06 21.48v164.54c0 7.9-3.2 15.63-8.78 21.22-5.59 5.58-13.32 8.78-21.22 8.78v-30h-30v-164.54h30l.77 29.99c-18.86.5-1767.76 8.35-1779.24 5.19-11.51-3.17-13.1-3.77-31.67-4.82l1.67-29.96h30v134.14h1778.47v30h-30z" fill="#091019" transform="matrix(.1 0 0 -.1 93.49 11.6)"/><path d="m6.5939-37.87c-.26 0-.52.01-.78.01-25.15.62-81.68 32.1.76 29.99v45.74h14.34c5.4 0 10.65-.67 15.66-1.95v-43.79c0-3.11-.47-6.15-1.38-9.04-1.47-4.67-4.08-8.94-7.68-12.44-5.63-5.49-13.08-8.52-20.92-8.52" fill="#070b0e" transform="matrix(.1 0 0 -.1 183.26 19.04)"/><path d="m115.645-44.4s-223.43 5.71-231.29 3.2c8.08 28.29 15.24 56.82 21.47 85.6h209.82z" fill="#349c3e" transform="matrix(.1 0 0 -.12 169.25 11.75)"/><path d="m3329.04 1778.61h-237.04c1.15 5.6 2.27 11.2 3.35 16.82h233.69z" fill="#080d11" transform="matrix(.1 0 0 -.1 -148.992 182.912)"/><path d="m18.32-22.87c-82.44 2.11 0 45.74 0 45.74z" fill="#070a0b" transform="matrix(.1 0 0 -.1 182.16 17.64)"/></svg>