<?xml version="1.0" encoding="UTF-8" standalone="no" ?>
<!DOCTYPE svg PUBLIC "-//W3C//DTD SVG 1.1//EN" "http://www.w3.org/Graphics/SVG/1.1/DTD/svg11.dtd">
<svg xmlns="http://www.w3.org/2000/svg" xmlns:xlink="http://www.w3.org/1999/xlink" version="1.1" width="352" height="219" viewBox="0 0 352 219" xml:space="preserve">
<desc>Created with Fabric.js 3.6.3</desc>
<defs>
</defs>
<g transform="matrix(1 0 0 1 176 181)"  >
<g style=""   >
		<g transform="matrix(0.06 0 0 -0.06 -0.76 -70.77)" id="CSbr1aR0mnMFvW70OxB_s"  >
<path style="stroke: none; stroke-width: 1; stroke-dasharray: none; stroke-linecap: butt; stroke-dashoffset: 0; stroke-linejoin: miter; stroke-miterlimit: 4; fill: rgb(137,237,41); fill-rule: nonzero; opacity: 1;" vector-effect="non-scaling-stroke"  transform=" translate(-29834.72, -17032.74)" d="M 32602.6 18846.4 C 32481.199999999997 18770.2 31909.199999999997 18353.9 31909.199999999997 18353.9 C 31579.499999999996 18203 31187.1 18393.5 30862.499999999996 18486.5 C 30614.899999999998 18557.4 30132.799999999996 18881.5 29881.599999999995 18678.8 C 29845.799999999996 18649.899999999998 29828.099999999995 18566 29799.199999999993 18547.899999999998 C 29775.299999999992 18533.199999999997 29721.799999999992 18533.3 29676.999999999993 18533.499999999996 C 29657.59999999999 18533.599999999995 29639.899999999994 18533.699999999997 29626.899999999994 18532.499999999996 C 29494.899999999994 18520.899999999998 29411.599999999995 18504.699999999997 29315.999999999993 18409.799999999996 C 29212.799999999992 18307.399999999994 29172.999999999993 18300.699999999997 29023.499999999993 18294.199999999997 C 28835.799999999992 18286.1 28829.399999999994 18255.1 28706.899999999994 18130.299999999996 C 28633.699999999993 18055.599999999995 28646.999999999993 18063.499999999996 28536.899999999994 18071.599999999995 C 28438.299999999996 18078.899999999994 28334.199999999993 18096.799999999996 28233.199999999993 18077.999999999996 C 28080.999999999993 18049.599999999995 27853.199999999993 17906.599999999995 27810.599999999995 17746.299999999996 C 27698.099999999995 17756.199999999997 27588.399999999994 17733.999999999996 27497.199999999993 17664.599999999995 C 27374.699999999993 17571.399999999994 27382.599999999995 17466.899999999994 27320.099999999995 17348.799999999996 C 27270.399999999994 17254.599999999995 27135.099999999995 17233.299999999996 27049.999999999996 17139.199999999997 C 26937.899999999998 17015.299999999996 26913.399999999998 16834.499999999996 26983.299999999996 16682.6 C 27012.899999999994 16618.199999999997 27051.399999999994 16616.5 27081.299999999996 16569.5 C 27128.899999999994 16494.6 26895.099999999995 16185.3 26919.399999999994 16100.8 C 26977.099999999995 15900.199999999999 27228.599999999995 15825.699999999999 27435.799999999996 15798.599999999999 C 27458.599999999995 15795.599999999999 27519.699999999997 15830.399999999998 27582.799999999996 15865.199999999999 C 27657.899999999994 15906.699999999999 27735.799999999996 15948.099999999999 27754.699999999997 15925.699999999999 C 27781.899999999998 15893.599999999999 27763.799999999996 15768.9 27788.399999999998 15719.099999999999 C 27899.6 15492.999999999998 28219.199999999997 15428.599999999999 28444.899999999998 15413.099999999999 C 28552.1 15405.8 28663.6 15405.599999999999 28768.6 15433.399999999998 C 28816.3 15446.099999999999 28921.5 15517.299999999997 28972.399999999998 15503.899999999998 C 29043.199999999997 15485.299999999997 29104.199999999997 15357.999999999998 29182.899999999998 15314.899999999998 C 29455.1 15165.699999999997 29775.199999999997 15180.599999999999 29991.899999999998 15431.599999999999 C 30053.8 15503.3 30095.399999999998 15626.699999999999 30184.699999999997 15670.399999999998 C 30271.1 15712.799999999997 30307.399999999998 15663.299999999997 30394.399999999998 15658.599999999999 C 30602.1 15647.599999999999 30656.6 15818.8 30713.399999999998 15983.8 C 30873.999999999996 15914.599999999999 30894.1 15871.599999999999 31101.699999999997 15928.8 C 31331.699999999997 15992.199999999999 31421.299999999996 16106.5 31504.199999999997 16320.599999999999 C 31562.499999999996 16471.199999999997 31518.999999999996 16533.699999999997 31682.899999999998 16531.199999999997 C 31831.499999999996 16528.899999999998 31879.1 16540.999999999996 31940.3 16695.6 C 31994 16831.3 31986.6 16970.899999999998 31978.5 17111.399999999998 C 31974.1 17186.899999999998 31946.3 17323.8 32000.9 17393.699999999997 C 32024.800000000003 17424.199999999997 32092.100000000002 17413.499999999996 32122.800000000003 17449.199999999997 C 32157.800000000003 17489.999999999996 32153.600000000002 17538.6 32150.600000000002 17588.999999999996 C 32143.500000000004 17704.499999999996 32106.600000000002 17777.699999999997 32131.300000000003 17896.099999999995 C 32174.100000000002 18101.399999999994 32348.4 18277.899999999994 32507.500000000004 18416.599999999995 C 32569.000000000004 18470.099999999995 32745.600000000002 18544.499999999996 32751.700000000004 18634.999999999996 C 32755.900000000005 18697.399999999998 32640.700000000004 18807.799999999996 32602.600000000006 18846.399999999998" stroke-linecap="round" />
</g>
		<g transform="matrix(0.06 0 0 -0.06 30.5 -109.1)" id="Jr7WyAi54grgi5FJxk_ym"  >
<path style="stroke: none; stroke-width: 1; stroke-dasharray: none; stroke-linecap: butt; stroke-dashoffset: 0; stroke-linejoin: miter; stroke-miterlimit: 4; fill: rgb(219,255,129); fill-rule: nonzero; opacity: 1;" vector-effect="non-scaling-stroke"  transform=" translate(-30379.98, -17701.33)" d="M 32562 18859.1 C 32562 18859.1 31566.8 18042.6 30313.8 17486.3 C 28739.399999999998 16787.3 27876.7 16598.3 27964.8 16547.899999999998 C 28053 16497.6 28964.3 16824.199999999997 30023.7 17210.8 C 32297.5 18040.5 32801.3 18619.8 32801.3 18619.8 C 32801.3 18619.8 32776.100000000006 18720.6 32687.9 18796.2 C 32599.800000000003 18871.7 32562 18859.100000000002 32562 18859.100000000002" stroke-linecap="round" />
</g>
		<g transform="matrix(0.06 0 0 -0.06 -107.32 -26.77)" id="56"  >
<path style="stroke: none; stroke-width: 1; stroke-dasharray: none; stroke-linecap: butt; stroke-dashoffset: 0; stroke-linejoin: miter; stroke-miterlimit: 4; fill: rgb(170,244,76); fill-rule: nonzero; opacity: 1;" vector-effect="non-scaling-stroke"  transform=" translate(-27976.17, -16265.35)" d="M 27854.8 16016.3 C 27842 16016.3 27828.3 16021.4 27813.8 16033.099999999999 C 27705.6 16120.699999999999 27847.7 16197.099999999999 27906.7 16258.3 C 27947.4 16300.4 27992.2 16337.099999999999 28034.100000000002 16377.9 C 28071.000000000004 16414 28097.500000000004 16464.2 28134.9 16497.6 L 28147.4 16510.199999999997 C 28154.4 16513.1 28159.9 16514.399999999998 28164.300000000003 16514.399999999998 C 28190.100000000002 16514.399999999998 28173.200000000004 16468.6 28164.800000000003 16447.199999999997 C 28129.700000000004 16359.099999999997 28050.100000000002 16275.299999999997 27998.000000000004 16194.999999999996 C 27964.100000000002 16142.599999999997 27919.100000000002 16016.299999999996 27854.800000000003 16016.299999999996" stroke-linecap="round" />
</g>
		<g transform="matrix(0.06 0 0 -0.06 -49.37 -17.02)" id="ZensqPOkkBrI-9GJr0kCr"  >
<path style="stroke: none; stroke-width: 1; stroke-dasharray: none; stroke-linecap: butt; stroke-dashoffset: 0; stroke-linejoin: miter; stroke-miterlimit: 4; fill: rgb(170,244,76); fill-rule: nonzero; opacity: 1;" vector-effect="non-scaling-stroke"  transform=" translate(-28987.03, -16095.3)" d="M 29112.7 15492.3 C 29091 15492.3 29069.3 15545.4 29046.4 15570.599999999999 C 29012.2 15608.3 28962.7 15614.199999999999 28920.7 15633.399999999998 C 28806 15685.899999999998 28813.2 15760.699999999997 28841.5 15874.099999999999 C 28907 16135.899999999998 28930.4 16414.699999999997 28928.3 16686.5 C 28934.5 16691.3 28932.6 16696.2 28939.3 16698.3 C 29012.8 16535.1 29047.899999999998 16326.8 29048 16143.4 C 29048 16019.5 29070.6 15922.3 29104.7 15805 C 29125 15734.9 29167.3 15608.2 29142.8 15534.1 C 29132.7 15503.6 29122.7 15492.300000000001 29112.7 15492.300000000001" stroke-linecap="round" />
</g>
		<g transform="matrix(0.06 0 0 -0.06 -76.51 -12.97)" id="Jczo13RH2UzR8mu8ara4L"  >
<path style="stroke: none; stroke-width: 1; stroke-dasharray: none; stroke-linecap: butt; stroke-dashoffset: 0; stroke-linejoin: miter; stroke-miterlimit: 4; fill: rgb(170,244,76); fill-rule: nonzero; opacity: 1;" vector-effect="non-scaling-stroke"  transform=" translate(-28513.6, -16024.7)" d="M 28391.9 15473.8 C 28367.9 15473.8 28344.7 15477 28323.800000000003 15483.699999999999 L 28286.000000000004 15521.4 C 28280.700000000004 15517.5 28286.100000000002 15509.6 28276.400000000005 15509.6 C 28275.900000000005 15509.6 28275.400000000005 15509.6 28274.800000000007 15509.7 C 28192.300000000007 15594.5 28394.300000000007 15895.6 28435.500000000007 15974.900000000001 C 28492.000000000007 16083.600000000002 28560.800000000007 16184.100000000002 28611.700000000008 16295.900000000001 C 28645.40000000001 16369.900000000001 28651.90000000001 16477.600000000002 28701.60000000001 16541.600000000002 C 28719.00000000001 16564.100000000002 28735.80000000001 16575.600000000002 28748.60000000001 16575.600000000002 C 28765.10000000001 16575.600000000002 28775.00000000001 16556.300000000003 28771.200000000008 16516.500000000004 C 28766.200000000008 16463.500000000004 28728.300000000007 16408.000000000004 28709.300000000007 16359.000000000004 C 28662.000000000007 16236.700000000004 28618.900000000005 16106.300000000003 28606.800000000007 15976.500000000004 C 28595.800000000007 15857.500000000004 28670.300000000007 15707.500000000004 28618.500000000007 15596.700000000004 C 28581.800000000007 15518.100000000004 28481.200000000008 15473.800000000005 28391.90000000001 15473.800000000005" stroke-linecap="round" />
</g>
		<g transform="matrix(0.06 0 0 -0.06 15.82 -34.83)" id="TnIVXdy0t236i8FmXMpOL"  >
<path style="stroke: none; stroke-width: 1; stroke-dasharray: none; stroke-linecap: butt; stroke-dashoffset: 0; stroke-linejoin: miter; stroke-miterlimit: 4; fill: rgb(170,244,76); fill-rule: nonzero; opacity: 1;" vector-effect="non-scaling-stroke"  transform=" translate(-30123.97, -16405.85)" d="M 30017.8 15628.5 C 29964.8 15774.9 29968.8 15925.3 29954.8 16080.4 C 29941.2 16232 29928.7 16385.9 29935.899999999998 16540.3 C 29944.399999999998 16720.6 29899.399999999998 17009.399999999998 30022.399999999998 17152.5 C 30035.3 17167.6 30032.1 17176.2 30048.199999999997 17183.2 C 30074.399999999998 17059.100000000002 30030.799999999996 16907.100000000002 30023.999999999996 16779.3 C 30013.999999999996 16593.5 30065.199999999997 16424 30137.299999999996 16256.099999999999 C 30172.799999999996 16173.599999999999 30204.599999999995 16092.099999999999 30245.899999999994 16012.8 C 30271.499999999993 15963.699999999999 30312.999999999993 15895.099999999999 30314.099999999995 15837.699999999999 C 30315.499999999996 15767.8 30275.299999999996 15775.8 30219.499999999996 15766.9 C 30158.699999999997 15757.3 30120.099999999995 15735.4 30079.099999999995 15686.6 C 30063.299999999996 15667.800000000001 30053.499999999996 15643.7 30042.999999999996 15641.1 L 30017.799999999996 15628.5" stroke-linecap="round" />
</g>
		<g transform="matrix(0.06 0 0 -0.06 50.36 -54.49)" id="asKh7FlWonyohMAF9x4RQ"  >
<path style="stroke: none; stroke-width: 1; stroke-dasharray: none; stroke-linecap: butt; stroke-dashoffset: 0; stroke-linejoin: miter; stroke-miterlimit: 4; fill: rgb(170,244,76); fill-rule: nonzero; opacity: 1;" vector-effect="non-scaling-stroke"  transform=" translate(-30726.45, -16748.75)" d="M 30787.8 16023.1 C 30749 16023.1 30700.5 16037.4 30691.6 16050.4 L 30653.8 16037.9 C 30632.3 16191.6 30610.2 16336.199999999999 30609.8 16496.2 C 30609.399999999998 16649.8 30630.3 16801.600000000002 30658.7 16951 C 30687.3 17100.9 30688 17369.6 30811.100000000002 17474.4 C 30836.9 17453.4 30756.4 17226.7 30748.500000000004 17177.7 C 30729.200000000004 17057.9 30710.600000000002 16929.4 30716.700000000004 16806.3 C 30723.600000000006 16666.3 30740.000000000004 16528.3 30760.600000000006 16390.5 C 30770.900000000005 16321.2 30872.000000000007 16101.3 30835.000000000007 16039.3 C 30828.100000000006 16027.599999999999 30809.40000000001 16023.099999999999 30787.800000000007 16023.099999999999" stroke-linecap="round" />
</g>
		<g transform="matrix(0.06 0 0 -0.06 101.72 -82.7)" id="Yh5HlBW30r9MhO9RE3mvX"  >
<path style="stroke: none; stroke-width: 1; stroke-dasharray: none; stroke-linecap: butt; stroke-dashoffset: 0; stroke-linejoin: miter; stroke-miterlimit: 4; fill: rgb(170,244,76); fill-rule: nonzero; opacity: 1;" vector-effect="non-scaling-stroke"  transform=" translate(-31622.18, -17240.8)" d="M 31561.2 16598.2 C 31558.9 16598.2 31556.7 16598.3 31554.4 16598.3 L 31516.600000000002 16598.3 C 31447.500000000004 16705 31466.9 16882.399999999998 31472.500000000004 17006.1 C 31479.500000000004 17156.699999999997 31508.500000000004 17314.1 31552.600000000002 17459.699999999997 C 31582.2 17557.299999999996 31620.300000000003 17654.6 31659.7 17751.1 C 31673.2 17784.199999999997 31696.5 17852.199999999997 31729.2 17872.199999999997 C 31742 17879.999999999996 31751.8 17883.399999999998 31759.2 17883.399999999998 C 31788.2 17883.399999999998 31779 17830.8 31768.5 17794.8 C 31730.8 17666.3 31667.6 17551.6 31647.3 17416.899999999998 C 31628.899999999998 17294.499999999996 31645.899999999998 17166.699999999997 31661.8 17046.999999999996 C 31675.7 16941.899999999998 31709.5 16816.099999999995 31705.5 16711.699999999997 C 31702.3 16626.399999999998 31628.5 16598.199999999997 31561.2 16598.199999999997" stroke-linecap="round" />
</g>
		<g transform="matrix(0.06 0 0 -0.06 -131.64 -49.91)" id="Yk-N6P5dr9eq2jPiqXiYY"  >
<path style="stroke: none; stroke-width: 1; stroke-dasharray: none; stroke-linecap: butt; stroke-dashoffset: 0; stroke-linejoin: miter; stroke-miterlimit: 4; fill: rgb(170,244,76); fill-rule: nonzero; opacity: 1;" vector-effect="non-scaling-stroke"  transform=" translate(-27552.03, -16668.85)" d="M 27551.9 16569.6 C 27494.9 16569.6 27436.4 16579.899999999998 27380.5 16587.1 C 27310.3 16596.199999999997 27216.9 16596.5 27158.7 16642.399999999998 L 27127.2 16661.3 C 27073.8 16706.1 27190.8 16763 27228 16767 C 27235.6 16767.8 27243.1 16768.1 27250.5 16768.1 C 27311.6 16768.1 27369.2 16743.3 27428.2 16729.199999999997 C 27488.4 16714.799999999996 27552.2 16712.6 27616.2 16712.6 C 27630.600000000002 16712.6 27645.100000000002 16712.699999999997 27659.5 16712.8 C 27673.9 16712.899999999998 27688.2 16713 27702.5 16713 C 27725.5 16713 27748.4 16712.7 27771 16711.7 C 27778.7 16711.3 27787.7 16711.2 27797.6 16711.2 C 27803.199999999997 16711.2 27809.199999999997 16711.3 27815.3 16711.3 C 27821.399999999998 16711.3 27827.7 16711.399999999998 27834.2 16711.399999999998 C 27893 16711.399999999998 27963.2 16708.8 27990.600000000002 16680.199999999997 C 27916.000000000004 16603.799999999996 27734.7 16604.499999999996 27637.7 16579.399999999998 C 27609.8 16572.3 27581.100000000002 16569.6 27551.9 16569.6" stroke-linecap="round" />
</g>
		<g transform="matrix(0.06 0 0 -0.06 -95.68 -86.04)" id="6"  >
<path style="stroke: none; stroke-width: 1; stroke-dasharray: none; stroke-linecap: butt; stroke-dashoffset: 0; stroke-linejoin: miter; stroke-miterlimit: 4; fill: rgb(170,244,76); fill-rule: nonzero; opacity: 1;" vector-effect="non-scaling-stroke"  transform=" translate(-28179.3, -17299.15)" d="M 28802.3 16928.7 C 28734.2 16928.7 28651 16955.9 28607.3 16963.600000000002 C 28483.399999999998 16985.4 28364.1 17020.500000000004 28241.899999999998 17056.500000000004 C 28101.8 17097.800000000003 27951.999999999996 17130.400000000005 27818.399999999998 17190.100000000002 C 27717.199999999997 17235.4 27479.199999999997 17359.800000000003 27473.6 17492.600000000002 L 27461 17511.500000000004 C 27469.8 17514.400000000005 27497.6 17572.300000000003 27517.7 17593.500000000004 C 27540.600000000002 17617.600000000002 27576.600000000002 17649.400000000005 27607.3 17661.000000000004 C 27622.8 17666.900000000005 27639.2 17669.600000000002 27656.2 17669.600000000002 C 27750.2 17669.600000000002 27859.600000000002 17588.2 27903.4 17517.7 C 27935 17466.8 27945.300000000003 17419.5 27991.4 17379 C 28045.600000000002 17331.6 28116.5 17298.9 28180.300000000003 17266.1 C 28310.800000000003 17198.899999999998 28433.600000000002 17125.3 28574.300000000003 17075.5 C 28667.500000000004 17042.6 28824.800000000003 17030 28897.600000000002 16969.9 C 28879.9 16938.9 28843.9 16928.7 28802.300000000003 16928.7" stroke-linecap="round" />
</g>
		<g transform="matrix(0.06 0 0 -0.06 -46.57 -109.09)" id="wBUk8FN2qUj4-76stsAnr"  >
<path style="stroke: none; stroke-width: 1; stroke-dasharray: none; stroke-linecap: butt; stroke-dashoffset: 0; stroke-linejoin: miter; stroke-miterlimit: 4; fill: rgb(170,244,76); fill-rule: nonzero; opacity: 1;" vector-effect="non-scaling-stroke"  transform=" translate(-29035.84, -17701.1)" d="M 29817.2 17348.2 C 29740.9 17348.2 29648.8 17366.9 29595.9 17372.8 C 29362.9 17398.7 29127.2 17458 28903 17536.7 C 28755.8 17588.3 28599.7 17636.9 28457.6 17701.8 C 28355.3 17748.399999999998 28139.5 17858.1 28128.6 17990.1 L 28128.6 18009 C 28180.6 18040 28253.1 18054 28326.899999999998 18054 C 28400.3 18054 28474.8 18040.1 28531.6 18015.3 C 28655.3 17961.1 28751.5 17845.1 28864 17769.7 C 29092.2 17616.5 29400 17529 29666.5 17469 C 29732 17454.2 29796.6 17441.1 29860.4 17428.2 C 29910.100000000002 17418.100000000002 29987.300000000003 17405.9 29910.9 17365.100000000002 C 29887.600000000002 17352.600000000002 29854.300000000003 17348.2 29817.2 17348.2" stroke-linecap="round" />
</g>
		<g transform="matrix(0.06 0 0 -0.06 -15.39 -118.88)" id="14"  >
<path style="stroke: none; stroke-width: 1; stroke-dasharray: none; stroke-linecap: butt; stroke-dashoffset: 0; stroke-linejoin: miter; stroke-miterlimit: 4; fill: rgb(170,244,76); fill-rule: nonzero; opacity: 1;" vector-effect="non-scaling-stroke"  transform=" translate(-29579.68, -17871.95)" d="M 30196.2 17501.9 C 30109.600000000002 17501.9 30002.8 17519.300000000003 29961.100000000002 17523.7 C 29723.100000000002 17549.100000000002 29488.7 17706.2 29293.600000000002 17837.4 C 29187.000000000004 17909 29073.9 17962.300000000003 28959.800000000003 18020 C 28912.4 18044 28857.4 18066.5 28846.300000000003 18122.2 C 28838.100000000002 18163.600000000002 28863.4 18228.100000000002 28903.100000000002 18242 L 28947.2 18229.4 C 28956.8 18234.2 28967.3 18236.4 28978.4 18236.4 C 29065.4 18236.4 29191.7 18101.800000000003 29243.2 18052.9 C 29394.8 17909.100000000002 29542.4 17801.600000000002 29728.100000000002 17705.100000000002 C 29821.800000000003 17656.4 29913.100000000002 17625.600000000002 30012.9 17601.000000000004 C 30101.4 17579.200000000004 30241.800000000003 17583.300000000003 30314.600000000002 17530.500000000004 C 30297.7 17508.900000000005 30251.000000000004 17501.900000000005 30196.2 17501.900000000005" stroke-linecap="round" />
</g>
		<g transform="matrix(0.06 0 0 -0.06 27.42 -138.16)" id="FCy4eLMVX6d3lT0UvLhye"  >
<path style="stroke: none; stroke-width: 1; stroke-dasharray: none; stroke-linecap: butt; stroke-dashoffset: 0; stroke-linejoin: miter; stroke-miterlimit: 4; fill: rgb(170,244,76); fill-rule: nonzero; opacity: 1;" vector-effect="non-scaling-stroke"  transform=" translate(-30326.38, -18208.25)" d="M 30679.7 17908.3 C 30577.3 17908.3 30477.3 17922.399999999998 30376.9 17958.399999999998 C 30264.100000000002 17998.899999999998 29346.100000000002 18251.199999999997 29526.600000000002 18456.1 L 29551.800000000003 18481.3 C 29586.4 18495.3 29647.4 18508.2 29699.800000000003 18508.2 C 29722.200000000004 18508.2 29743.100000000002 18505.8 29759.600000000002 18500.2 C 29862.9 18464.9 29933.800000000003 18385.8 29998.9 18305.100000000002 C 30079.5 18205.2 30241.7 18145.100000000002 30359.4 18101.9 C 30507.5 18047.5 30687.600000000002 18013.800000000003 30844.2 18001.300000000003 C 30874.8 17998.800000000003 30905.4 17997.9 30936 17997.9 C 30974.8 17997.9 31013.5 17999.4 31052 18001.300000000003 C 31058.3 18001.600000000002 31065.9 18001.800000000003 31074.1 18001.800000000003 C 31120.399999999998 18001.800000000003 31184.699999999997 17994.4 31126.3 17950.700000000004 C 31107.5 17936.700000000004 31075.6 17934.500000000004 31044 17934.500000000004 C 31037.1 17934.500000000004 31030.2 17934.600000000002 31023.5 17934.700000000004 C 31016.7 17934.800000000003 31010.2 17934.900000000005 31003.9 17934.900000000005 C 30993.2 17934.900000000005 30983.300000000003 17934.700000000004 30975 17933.500000000004 C 30918.7 17926.100000000002 30862.4 17920.200000000004 30805 17914.700000000004 C 30762.7 17910.600000000006 30721 17908.300000000003 30679.7 17908.300000000003" stroke-linecap="round" />
</g>
		<g transform="matrix(0.06 0 0 -0.06 -108.65 -8.4)" id="V3EV9W2tQZvag3RG2ZSYs"  >
<path style="stroke: none; stroke-width: 1; stroke-dasharray: none; stroke-linecap: butt; stroke-dashoffset: 0; stroke-linejoin: miter; stroke-miterlimit: 4; fill: rgb(105,204,47); fill-rule: nonzero; opacity: 1;" vector-effect="non-scaling-stroke"  transform=" translate(-27953.03, -15944.9)" d="M 28004.2 16160.7 C 27978.2 16101.6 27945 16051.6 27905.4 16000.1 C 27864.300000000003 15946.9 27811 15907.800000000001 27800.9 15836.800000000001 C 27792.600000000002 15778.900000000001 27813.4 15686.500000000002 27876.5 15672.1 L 27876.5 15644.6 C 27913.6 15620.2 27972.3 15549.9 27997.6 15628.1 C 28016.8 15687.6 28000.699999999997 15779.7 28008.5 15842.300000000001 C 28019.2 15929.1 28027 16017.2 28053.6 16100.300000000001 C 28075 16167.2 28113.199999999997 16224.800000000001 28106 16297.6 C 28047.9 16273.800000000001 28027.5 16213.7 28004.2 16160.7" stroke-linecap="round" />
</g>
		<g transform="matrix(0.06 0 0 -0.06 -26.74 -12.23)" id="RMOVBUDzwVhtOqm-CP2Xc"  >
<path style="stroke: none; stroke-width: 1; stroke-dasharray: none; stroke-linecap: butt; stroke-dashoffset: 0; stroke-linejoin: miter; stroke-miterlimit: 4; fill: rgb(105,204,47); fill-rule: nonzero; opacity: 1;" vector-effect="non-scaling-stroke"  transform=" translate(-29381.64, -16011.68)" d="M 29300.2 16022 C 29235.100000000002 16144.3 29226.3 16273.9 29194.600000000002 16403.9 C 29182.500000000004 16453.7 29172.500000000004 16502.100000000002 29160.300000000003 16550.7 C 29151.9 16584.100000000002 29149.9 16642.4 29134.000000000004 16671.5 C 29131.600000000002 16676 29129.000000000004 16691.9 29127.600000000002 16698 C 29112.4 16699.7 29108.2 16692.7 29101.100000000002 16682.5 L 29101.100000000002 16699 C 29082.500000000004 16568.7 29121.000000000004 16437.3 29134.100000000002 16307.9 C 29150.800000000003 16140.8 29167.000000000004 15972.1 29198.600000000002 15807.9 C 29218.2 15706.199999999999 29242.7 15605.699999999999 29281.000000000004 15511.6 C 29322.500000000004 15409.5 29359.200000000004 15358.5 29469.000000000004 15342.5 C 29523.600000000002 15334.5 29610.400000000005 15308.7 29660.300000000003 15338 C 29694.500000000004 15441.5 29592.600000000002 15531.4 29535.200000000004 15610.2 C 29445.900000000005 15732.800000000001 29372.000000000004 15887.2 29300.200000000004 16022" stroke-linecap="round" />
</g>
		<g transform="matrix(0.06 0 0 -0.06 20.21 -53.49)" id="vKk_VB_xmUfh4kxR23M9O"  >
<path style="stroke: none; stroke-width: 1; stroke-dasharray: none; stroke-linecap: butt; stroke-dashoffset: 0; stroke-linejoin: miter; stroke-miterlimit: 4; fill: rgb(105,204,47); fill-rule: nonzero; opacity: 1;" vector-effect="non-scaling-stroke"  transform=" translate(-30200.52, -16731.31)" d="M 30226.7 16951.6 C 30228.5 16989.399999999998 30289.600000000002 17243.1 30210.4 17204.199999999997 L 30193.9 17209.699999999997 C 30136 17004.6 30059.4 16772.999999999996 30105.9 16554.999999999996 C 30117.100000000002 16502.199999999997 30196.4 16205.699999999997 30282 16259.399999999996 C 30350 16301.999999999996 30271.8 16493.299999999996 30259.8 16546.599999999995 C 30230.1 16678.299999999996 30220.1 16815.199999999993 30226.7 16951.599999999995" stroke-linecap="round" />
</g>
		<g transform="matrix(0.06 0 0 -0.06 -137.6 -29.2)" id="PoD-fBU0u2pkZ49L6bUpL"  >
<path style="stroke: none; stroke-width: 1; stroke-dasharray: none; stroke-linecap: butt; stroke-dashoffset: 0; stroke-linejoin: miter; stroke-miterlimit: 4; fill: rgb(105,204,47); fill-rule: nonzero; opacity: 1;" vector-effect="non-scaling-stroke"  transform=" translate(-27448.09, -16307.76)" d="M 27897.1 16469.7 C 27910 16502.100000000002 27881.1 16529.3 27849.1 16517.8 L 27827.1 16528.7 C 27718 16497.8 27602.199999999997 16465 27486.6 16457.4 C 27437.899999999998 16454.100000000002 27388.199999999997 16448.4 27339.6 16453.100000000002 C 27297.699999999997 16457.100000000002 27251.699999999997 16474.9 27206.6 16468.300000000003 C 27110.699999999997 16454.300000000003 27090.899999999998 16352.500000000004 27051.399999999998 16277.400000000003 C 27021.199999999997 16219.700000000003 26929.699999999997 16060.700000000003 27078.999999999996 16090.500000000004 C 27156.699999999997 16106.000000000004 27234.799999999996 16203.100000000004 27300.999999999996 16243.300000000003 C 27395.599999999995 16300.800000000003 27501.199999999997 16349.300000000003 27608.799999999996 16375.100000000002 C 27681.099999999995 16392.500000000004 27756.899999999994 16401.4 27827.099999999995 16425.800000000003 C 27847.699999999993 16432.9 27887.699999999993 16446.200000000004 27897.099999999995 16469.700000000004" stroke-linecap="round" />
</g>
		<g transform="matrix(0.06 0 0 -0.06 -63 -12.43)" id="v1zGxkHQ4s_c9-LN9Z_yu"  >
<path style="stroke: none; stroke-width: 1; stroke-dasharray: none; stroke-linecap: butt; stroke-dashoffset: 0; stroke-linejoin: miter; stroke-miterlimit: 4; fill: rgb(105,204,47); fill-rule: nonzero; opacity: 1;" vector-effect="non-scaling-stroke"  transform=" translate(-28749.13, -16015.25)" d="M 28832.3 16518.3 C 28766.899999999998 16535.3 28751.3 16313.8 28745.399999999998 16281.599999999999 C 28726.699999999997 16179.899999999998 28668.8 16084.699999999999 28650.499999999996 15985.099999999999 C 28634.099999999995 15895.499999999998 28653.299999999996 15807.599999999999 28661.699999999997 15721.499999999998 C 28664.899999999998 15687.799999999997 28678.199999999997 15455.399999999998 28744.199999999997 15523.799999999997 L 28788.1 15529.299999999997 C 28920.699999999997 15513.899999999998 28804 15643.899999999998 28775.8 15693.999999999998 C 28733.899999999998 15768.299999999997 28725 15869.399999999998 28739.899999999998 15953.399999999998 C 28750.999999999996 16015.999999999998 28911.499999999996 16497.6 28832.3 16518.3" stroke-linecap="round" />
</g>
		<g transform="matrix(0.06 0 0 -0.06 125.21 -115.02)" id="uIwPrablR9JYY5l8aypil"  >
<path style="stroke: none; stroke-width: 1; stroke-dasharray: none; stroke-linecap: butt; stroke-dashoffset: 0; stroke-linejoin: miter; stroke-miterlimit: 4; fill: rgb(105,204,47); fill-rule: nonzero; opacity: 1;" vector-effect="non-scaling-stroke"  transform=" translate(-32031.84, -17804.48)" d="M 32092.7 18000.4 C 32106.9 18029.7 32168.7 18115.2 32165.3 18121.300000000003 L 32110.399999999998 18093.800000000003 C 32041.3 18071.800000000003 31971.3 17928.600000000002 31944.199999999997 17864.4 C 31907.999999999996 17778.800000000003 31884.299999999996 17671.2 31907.399999999998 17577.5 C 31929.399999999998 17487.7 32098.999999999996 17445.1 32051.399999999998 17546.2 C 32027.6 17596.5 31997.499999999996 17600.7 31995.1 17665.5 C 31993.199999999997 17714.1 31999 17757.4 32010.199999999997 17802.8 C 32027.699999999997 17873.5 32061.199999999997 17935.399999999998 32092.699999999997 18000.399999999998" stroke-linecap="round" />
</g>
		<g transform="matrix(0.06 0 0 -0.06 -7.53 -71.13)" id="CBGN4biRJ6OphXXae-vhn"  >
<path style="stroke: none; stroke-width: 1; stroke-dasharray: none; stroke-linecap: butt; stroke-dashoffset: 0; stroke-linejoin: miter; stroke-miterlimit: 4; fill: rgb(105,204,47); fill-rule: nonzero; opacity: 1;" vector-effect="non-scaling-stroke"  transform=" translate(-29716.76, -17039.05)" d="M 29717.8 17044.2 C 29715.8 17041.7 29713.8 17038.9 29712 17036 L 29716.1 17033.9 C 29715.8 17039.5 29727.199999999997 17042.100000000002 29717.8 17044.2" stroke-linecap="round" />
</g>
		<g transform="matrix(0.06 0 0 -0.06 -6.03 -25.25)" id="axGU6HcBMmLmN1ph8ZUnE"  >
<path style="stroke: none; stroke-width: 1; stroke-dasharray: none; stroke-linecap: butt; stroke-dashoffset: 0; stroke-linejoin: miter; stroke-miterlimit: 4; fill: rgb(105,204,47); fill-rule: nonzero; opacity: 1;" vector-effect="non-scaling-stroke"  transform=" translate(-29742.97, -16238.74)" d="M 29700 16084 C 29680.9 16184.9 29638.5 16289.1 29629.5 16391.3 C 29618.4 16517.5 29624.9 16642.1 29646 16764.899999999998 C 29658.1 16835.3 29670.7 16973.199999999997 29712 17035.999999999996 L 29694.2 17044.899999999998 C 29623.4 16949.699999999997 29592 16827.899999999998 29579 16709.699999999997 C 29559.6 16532.6 29545 16357.799999999997 29551.4 16177.199999999997 C 29556.800000000003 16023.499999999996 29598.5 15858.899999999998 29651.600000000002 15714.499999999996 C 29682.9 15629.499999999996 29715.300000000003 15454.399999999996 29820.500000000004 15435.999999999996 C 30063.100000000002 15393.499999999996 29855.900000000005 15758.599999999997 29808.000000000004 15835.299999999996 C 29756.500000000004 15917.799999999996 29718.000000000004 15988.499999999996 29700.000000000004 16083.999999999996" stroke-linecap="round" />
</g>
		<g transform="matrix(0.06 0 0 -0.06 67 -34.28)" id="qGg6EJ9Lmsdb2gHyRJQyW"  >
<path style="stroke: none; stroke-width: 1; stroke-dasharray: none; stroke-linecap: butt; stroke-dashoffset: 0; stroke-linejoin: miter; stroke-miterlimit: 4; fill: rgb(105,204,47); fill-rule: nonzero; opacity: 1;" vector-effect="non-scaling-stroke"  transform=" translate(-31016.63, -16396.24)" d="M 31070.3 16177.8 C 31005.899999999998 16281.5 31016.6 16435.2 31023.1 16558.899999999998 C 31026.1 16615.899999999998 31052.8 16711.999999999996 31022.6 16764.899999999998 C 30978 16843.3 30964.6 16721.999999999996 30957.6 16674.3 C 30938 16539.399999999998 30896.6 16415.8 30891.3 16278.9 C 30888.899999999998 16216.8 30935.5 15937.9 31047.8 16015.3 L 31080.8 16015.3 C 31127.2 16000.199999999999 31151.8 16049.9 31138.399999999998 16098.099999999999 C 31130.899999999998 16124.999999999998 31085.499999999996 16153.199999999999 31070.3 16177.8" stroke-linecap="round" />
</g>
		<g transform="matrix(0.06 0 0 -0.06 90.24 -68.81)" id="bcZSg8wF158I_ZZyX4a6k"  >
<path style="stroke: none; stroke-width: 1; stroke-dasharray: none; stroke-linecap: butt; stroke-dashoffset: 0; stroke-linejoin: miter; stroke-miterlimit: 4; fill: rgb(105,204,47); fill-rule: nonzero; opacity: 1;" vector-effect="non-scaling-stroke"  transform=" translate(-31421.96, -16998.44)" d="M 31557.1 17760.5 C 31524.8 17753.2 31504.5 17724 31484.399999999998 17695.6 C 31329.999999999996 17477.399999999998 31387.199999999997 17150.6 31354.399999999998 16896.699999999997 C 31333.199999999997 16732.399999999998 31292.499999999996 16567.999999999996 31286.699999999997 16402.399999999998 C 31285.1 16358.599999999999 31276.1 16223.999999999998 31344.699999999997 16237.299999999997 C 31390.799999999996 16246.199999999997 31419.299999999996 16378.799999999997 31418.499999999996 16402.399999999998 L 31459.699999999997 16468.3 C 31416.499999999996 16497.2 31438.899999999998 16689.399999999998 31435.199999999997 16764.899999999998 C 31429.699999999997 16875.199999999997 31426.699999999997 16989.6 31426.699999999997 17102.6 C 31426.699999999997 17218.8 31424.6 17346.3 31453.299999999996 17456.8 C 31477.999999999996 17552 31570.799999999996 17663.5 31557.099999999995 17760.5" stroke-linecap="round" />
</g>
</g>
</g>
</svg>