<?xml version="1.0" encoding="UTF-8" standalone="no" ?>
<!DOCTYPE svg PUBLIC "-//W3C//DTD SVG 1.1//EN" "http://www.w3.org/Graphics/SVG/1.1/DTD/svg11.dtd">
<svg xmlns="http://www.w3.org/2000/svg" xmlns:xlink="http://www.w3.org/1999/xlink" version="1.1" width="186" height="22" viewBox="0 0 186 22" xml:space="preserve">
<desc>Created with Fabric.js 3.6.3</desc>
<defs>
</defs>
<g transform="matrix(1 0 0 1 101 -25)"  >
<g style=""   >
		<g transform="matrix(0.1 0 0 -0.1 -7.51 36.61)" id="X7t-aOVwRXXsEgg4FUygu"  >
<path style="stroke: none; stroke-width: 1; stroke-dasharray: none; stroke-linecap: butt; stroke-dashoffset: 0; stroke-linejoin: miter; stroke-miterlimit: 4; fill: rgb(67,187,79); fill-rule: nonzero; opacity: 1;" vector-effect="non-scaling-stroke"  transform=" translate(-2424.8, -1713.1)" d="M 3329.04 1795.43 L 1520.57 1795.43 L 1520.57 1631.29 C 1593.75 1635.35 1600.19 1662.43 1685.1699999999998 1662.43 C 1777.04 1662.43 1777.04 1630.76 1868.9199999999998 1630.76 C 1960.7699999999998 1630.76 1960.7699999999998 1662.43 2052.64 1662.43 C 2144.5 1662.43 2144.5 1630.76 2236.3599999999997 1630.76 C 2328.22 1630.76 2328.22 1662.43 2420.0799999999995 1662.43 C 2511.9299999999994 1662.43 2511.9299999999994 1630.76 2603.7899999999995 1630.76 C 2695.6399999999994 1630.76 2695.6399999999994 1662.43 2787.4999999999995 1662.43 C 2879.3399999999997 1662.43 2879.3399999999997 1630.76 2971.1699999999996 1630.76 C 3063.0099999999998 1630.76 3063.0099999999998 1662.43 3154.8599999999997 1662.43 C 3243.3999999999996 1662.43 3246.5999999999995 1633 3329.0399999999995 1630.89 L 3329.0399999999995 1795.43" stroke-linecap="round" />
</g>
		<g transform="matrix(0.1 0 0 -0.1 -7.51 36.61)" id="izAgtb49Qfzq6SDAu0Wwu"  >
<path style="stroke: none; stroke-width: 1; stroke-dasharray: none; stroke-linecap: butt; stroke-dashoffset: 0; stroke-linejoin: miter; stroke-miterlimit: 4; fill: rgb(9,16,25); fill-rule: nonzero; opacity: 1;" vector-effect="non-scaling-stroke"  transform=" translate(-2424.8, -1713.09)" d="M 3329.04 1795.43 L 3329.04 1825.43 L 1520.57 1825.43 C 1512.6699999999998 1825.43 1504.9399999999998 1822.23 1499.35 1816.65 C 1493.77 1811.0600000000002 1490.57 1803.3300000000002 1490.57 1795.43 L 1490.57 1631.29 C 1490.57 1623.05 1493.96 1615.1599999999999 1499.95 1609.5 C 1505.94 1603.83 1514 1600.88 1522.23 1601.34 C 1542.32 1602.4399999999998 1558.67 1605.24 1572.6100000000001 1608.8 C 1583.0500000000002 1611.46 1592.0600000000002 1614.48 1600.2 1617.27 C 1612.47 1621.49 1622.64 1625.09 1635.19 1627.8 C 1647.74 1630.49 1663.02 1632.4199999999998 1685.17 1632.43 C 1706.44 1632.42 1721.38 1630.63 1733.64 1628.1100000000001 C 1742.8400000000001 1626.2 1750.65 1623.8400000000001 1758.8700000000001 1621.1000000000001 C 1771.1200000000001 1617.0300000000002 1784.6100000000001 1611.8000000000002 1802.2700000000002 1607.65 C 1819.9200000000003 1603.5 1841.1800000000003 1600.74 1868.9200000000003 1600.75 C 1893.5800000000004 1600.74 1913.0800000000004 1602.91 1929.5300000000002 1606.33 C 1941.8600000000001 1608.87 1952.3500000000001 1612.09 1961.63 1615.1899999999998 C 1975.6200000000001 1619.8899999999999 1986.5500000000002 1624.0599999999997 1999.67 1627.12 C 2012.8100000000002 1630.1699999999998 2028.69 1632.4099999999999 2052.64 1632.4299999999998 C 2073.91 1632.4199999999998 2088.85 1630.6299999999999 2101.1 1628.11 C 2110.31 1626.1999999999998 2118.11 1623.84 2126.33 1621.1 C 2138.5699999999997 1617.03 2152.0699999999997 1611.8 2169.73 1607.6499999999999 C 2187.37 1603.4999999999998 2208.63 1600.7399999999998 2236.36 1600.7499999999998 C 2261.02 1600.7399999999998 2280.52 1602.9099999999999 2296.98 1606.3299999999997 C 2309.3 1608.8699999999997 2319.8 1612.0899999999997 2329.07 1615.1899999999996 C 2343.07 1619.8899999999996 2354 1624.0599999999995 2367.1200000000003 1627.1199999999997 C 2380.26 1630.1699999999996 2396.1400000000003 1632.4099999999996 2420.0800000000004 1632.4299999999996 C 2441.3500000000004 1632.4199999999996 2456.2900000000004 1630.6299999999997 2468.5400000000004 1628.1099999999997 C 2477.7400000000002 1626.1999999999996 2485.5500000000006 1623.8399999999997 2493.7700000000004 1621.0999999999997 C 2506.01 1617.0299999999997 2519.5000000000005 1611.7999999999997 2537.1600000000003 1607.6499999999996 C 2554.8 1603.4999999999995 2576.0600000000004 1600.7399999999996 2603.7900000000004 1600.7499999999995 C 2628.4500000000003 1600.7399999999996 2647.9500000000003 1602.9099999999996 2664.4100000000003 1606.3299999999995 C 2676.7300000000005 1608.8699999999994 2687.2300000000005 1612.0899999999995 2696.5000000000005 1615.1899999999994 C 2710.4900000000002 1619.8899999999994 2721.4200000000005 1624.0599999999993 2734.5400000000004 1627.1199999999994 C 2747.6800000000003 1630.1699999999994 2763.5600000000004 1632.4099999999994 2787.5000000000005 1632.4299999999994 C 2808.7600000000007 1632.4199999999994 2823.7000000000003 1630.6299999999994 2835.9500000000003 1628.1099999999994 C 2845.15 1626.1999999999994 2852.9500000000003 1623.8399999999995 2861.17 1621.0999999999995 C 2873.41 1617.0299999999995 2886.9 1611.7999999999995 2904.55 1607.6499999999994 C 2922.19 1603.4999999999993 2943.4500000000003 1600.7399999999993 2971.17 1600.7499999999993 C 2995.83 1600.7399999999993 3015.33 1602.9099999999994 3031.78 1606.3299999999992 C 3044.1000000000004 1608.8699999999992 3054.6000000000004 1612.0899999999992 3063.8700000000003 1615.1899999999991 C 3077.86 1619.8899999999992 3088.7900000000004 1624.059999999999 3101.9100000000003 1627.1199999999992 C 3115.0400000000004 1630.1699999999992 3130.9200000000005 1632.4099999999992 3154.86 1632.4299999999992 C 3175.36 1632.4299999999992 3189.9900000000002 1630.759999999999 3201.98 1628.3799999999992 C 3211 1626.5799999999992 3218.62 1624.3599999999992 3226.4900000000002 1621.7799999999993 C 3238.23 1617.9599999999994 3250.8500000000004 1613.0199999999993 3267.2000000000003 1608.8299999999992 C 3283.5400000000004 1604.6299999999992 3303.13 1601.5199999999993 3328.28 1600.8999999999992 C 3336.4 1600.6899999999991 3344.1600000000003 1603.729999999999 3349.98 1609.4099999999992 C 3355.8 1615.0799999999992 3359.04 1622.759999999999 3359.04 1630.8899999999992 L 3359.04 1795.4299999999992 C 3359.04 1803.3299999999992 3355.84 1811.0599999999993 3350.2599999999998 1816.6499999999992 C 3344.6699999999996 1822.229999999999 3336.9399999999996 1825.4299999999992 3329.04 1825.4299999999992 L 3329.04 1795.4299999999992 L 3299.04 1795.4299999999992 L 3299.04 1630.8899999999992 L 3329.04 1630.8899999999992 L 3329.81 1660.8799999999992 C 3310.95 1661.3799999999992 3297.57 1663.3499999999992 3286.23 1665.9499999999991 C 3277.71 1667.9099999999992 3270.23 1670.279999999999 3262.21 1672.999999999999 C 3250.25 1677.049999999999 3236.85 1682.079999999999 3219.57 1685.979999999999 C 3202.3 1689.8899999999992 3181.59 1692.4499999999991 3154.86 1692.4399999999991 C 3130.2000000000003 1692.4399999999991 3110.7000000000003 1690.279999999999 3094.25 1686.8599999999992 C 3081.92 1684.3199999999993 3071.43 1681.0999999999992 3062.15 1677.9999999999993 C 3048.1600000000003 1673.2999999999993 3037.23 1669.1299999999994 3024.11 1666.0699999999993 C 3010.98 1663.0199999999993 2995.11 1660.7699999999993 2971.17 1660.7599999999993 C 2949.91 1660.7699999999993 2934.9700000000003 1662.5599999999993 2922.7200000000003 1665.0799999999992 C 2913.5200000000004 1666.9899999999993 2905.7200000000003 1669.3499999999992 2897.5000000000005 1672.0899999999992 C 2885.2600000000007 1676.1599999999992 2871.7700000000004 1681.3899999999992 2854.1200000000003 1685.5399999999993 C 2836.4800000000005 1689.6799999999994 2815.2200000000003 1692.4499999999994 2787.5000000000005 1692.4399999999994 C 2762.8400000000006 1692.4399999999994 2743.3400000000006 1690.2799999999993 2726.8800000000006 1686.8599999999994 C 2714.5600000000004 1684.3199999999995 2704.0600000000004 1681.0999999999995 2694.7900000000004 1677.9999999999995 C 2680.7900000000004 1673.2999999999995 2669.8700000000003 1669.1299999999997 2656.7400000000002 1666.0699999999995 C 2643.61 1663.0199999999995 2627.73 1660.7699999999995 2603.7900000000004 1660.7599999999995 C 2582.5200000000004 1660.7699999999995 2567.5800000000004 1662.5599999999995 2555.3300000000004 1665.0799999999995 C 2546.1200000000003 1666.9899999999996 2538.32 1669.3499999999995 2530.1000000000004 1672.0899999999995 C 2517.8600000000006 1676.1599999999994 2504.3700000000003 1681.3899999999994 2486.7100000000005 1685.5399999999995 C 2469.0700000000006 1689.6799999999996 2447.8100000000004 1692.4499999999996 2420.0800000000004 1692.4399999999996 C 2395.4200000000005 1692.4399999999996 2375.9100000000003 1690.2799999999995 2359.4600000000005 1686.8599999999997 C 2347.1300000000006 1684.3199999999997 2336.6400000000003 1681.0999999999997 2327.3700000000003 1677.9999999999998 C 2313.3700000000003 1673.2999999999997 2302.4400000000005 1669.1299999999999 2289.32 1666.0699999999997 C 2276.1800000000003 1663.0199999999998 2260.3 1660.7699999999998 2236.36 1660.7599999999998 C 2215.09 1660.7699999999998 2200.15 1662.5599999999997 2187.8900000000003 1665.0799999999997 C 2178.6900000000005 1666.9899999999998 2170.88 1669.3499999999997 2162.6600000000003 1672.0899999999997 C 2150.4200000000005 1676.1599999999996 2136.9300000000003 1681.3899999999996 2119.2700000000004 1685.5399999999997 C 2101.6300000000006 1689.6799999999998 2080.3700000000003 1692.4499999999998 2052.6400000000003 1692.4399999999998 C 2027.9700000000003 1692.4399999999998 2008.4700000000003 1690.2799999999997 1992.0100000000002 1686.86 C 1979.6900000000003 1684.32 1969.1900000000003 1681.1 1959.9200000000003 1678 C 1945.9200000000003 1673.3 1934.9900000000002 1669.13 1921.8700000000003 1666.07 C 1908.7400000000002 1663.02 1892.8600000000004 1660.77 1868.9200000000003 1660.76 C 1847.6400000000003 1660.77 1832.6900000000003 1662.56 1820.4400000000003 1665.08 C 1811.2300000000002 1666.99 1803.4300000000003 1669.35 1795.2000000000003 1672.09 C 1782.9600000000003 1676.1599999999999 1769.4600000000003 1681.3899999999999 1751.8000000000002 1685.54 C 1734.16 1689.68 1712.9 1692.45 1685.17 1692.44 C 1662.3500000000001 1692.44 1643.96 1690.6000000000001 1628.29 1687.6100000000001 C 1616.55 1685.39 1606.4099999999999 1682.5300000000002 1597.42 1679.65 C 1583.8700000000001 1675.2900000000002 1573.18 1671.14 1561.7 1667.98 C 1550.19 1664.81 1537.47 1662.3 1518.9 1661.25 L 1520.5700000000002 1631.29 L 1550.5700000000002 1631.29 L 1550.5700000000002 1765.4299999999998 L 3329.04 1765.4299999999998 L 3329.04 1795.4299999999998 L 3299.04 1795.4299999999998 L 3329.04 1795.4299999999998" stroke-linecap="round" />
</g>
		<g transform="matrix(0.1 0 0 -0.1 70.24 44.04)" id="CEvPLB00TjyJAhlREEJYv"  >
<path style="stroke: none; stroke-width: 1; stroke-dasharray: none; stroke-linecap: butt; stroke-dashoffset: 0; stroke-linejoin: miter; stroke-miterlimit: 4; fill: rgb(7,11,14); fill-rule: nonzero; opacity: 1;" vector-effect="non-scaling-stroke"  transform=" translate(-3202.31, -1638.76)" d="M 3329.06 1600.89 C 3328.7999999999997 1600.89 3328.54 1600.9 3328.2799999999997 1600.9 C 3303.1299999999997 1601.52 3283.54 1604.63 3267.2 1608.8300000000002 C 3250.85 1613.0200000000002 3238.23 1617.9600000000003 3226.49 1621.7800000000002 C 3218.62 1624.3600000000001 3211 1626.5800000000002 3201.9799999999996 1628.38 C 3189.99 1630.7600000000002 3175.3599999999997 1632.43 3154.8599999999997 1632.43 C 3130.9199999999996 1632.41 3115.0399999999995 1630.17 3101.91 1627.1200000000001 C 3088.79 1624.0600000000002 3077.8599999999997 1619.89 3063.87 1615.19 C 3058.2599999999998 1613.31 3052.21 1611.4 3045.58 1609.6100000000001 C 3053.23 1631.8000000000002 3060.29 1654.13 3066.7799999999997 1676.63 L 3066.8399999999997 1676.63 C 3063.7499999999995 1665.92 3060.5199999999995 1655.24 3057.1699999999996 1644.5900000000001 C 3082.2499999999995 1653.13 3105.0599999999995 1662.43 3154.8599999999997 1662.43 C 3243.3999999999996 1662.43 3246.5999999999995 1633 3329.0399999999995 1630.89 L 3329.0399999999995 1676.63 L 3343.3799999999997 1676.63 C 3348.7799999999997 1676.63 3354.0299999999997 1675.96 3359.0399999999995 1674.68 L 3359.0399999999995 1630.89 C 3359.0399999999995 1627.7800000000002 3358.5699999999997 1624.74 3357.6599999999994 1621.8500000000001 C 3356.1899999999996 1617.18 3353.5799999999995 1612.91 3349.9799999999996 1609.41 C 3344.3499999999995 1603.92 3336.8999999999996 1600.89 3329.0599999999995 1600.89" stroke-linecap="round" />
</g>
		<g transform="matrix(0.1 0 0 -0.1 68.34 35.81)" id="g2PR2Rldjl1crceuIpU_Z"  >
<path style="stroke: none; stroke-width: 1; stroke-dasharray: none; stroke-linecap: butt; stroke-dashoffset: 0; stroke-linejoin: miter; stroke-miterlimit: 4; fill: rgb(52,156,62); fill-rule: nonzero; opacity: 1;" vector-effect="non-scaling-stroke"  transform=" translate(-3183.39, -1721.03)" d="M 3299.04 1676.63 L 3251.63 1676.63 C 3242.34 1679.8100000000002 3231.9500000000003 1683.18 3219.57 1685.98 C 3202.3500000000004 1689.8700000000001 3181.7200000000003 1692.44 3155.1200000000003 1692.44 C 3155.03 1692.44 3154.9500000000003 1692.44 3154.86 1692.44 C 3154.81 1692.44 3154.75 1692.44 3154.69 1692.44 C 3130.11 1692.44 3110.66 1690.27 3094.25 1686.8600000000001 C 3084.34 1684.8200000000002 3075.61 1682.3400000000001 3067.75 1679.8300000000002 C 3075.83 1708.1200000000001 3082.99 1736.65 3089.22 1765.43 L 3299.04 1765.43 L 3299.04 1676.63" stroke-linecap="round" />
</g>
		<g transform="matrix(0.1 0 0 -0.1 69.8 35.15)" id="V1tc8qdafIiyS_4UCSmeA"  >
<path style="stroke: none; stroke-width: 1; stroke-dasharray: none; stroke-linecap: butt; stroke-dashoffset: 0; stroke-linejoin: miter; stroke-miterlimit: 4; fill: rgb(8,13,17); fill-rule: nonzero; opacity: 1;" vector-effect="non-scaling-stroke"  transform=" translate(-3197.94, -1727.62)" d="M 3329.04 1676.63 L 3299.04 1676.63 L 3299.04 1765.43 L 3089.22 1765.43 C 3090.16 1769.8200000000002 3091.0899999999997 1774.21 3092 1778.6100000000001 L 3329.04 1778.6100000000001 L 3329.04 1676.63 M 3251.63 1676.63 L 3066.84 1676.63 C 3067.1400000000003 1677.7 3067.4500000000003 1678.7600000000002 3067.75 1679.8300000000002 C 3075.61 1682.3400000000001 3084.34 1684.8200000000002 3094.25 1686.8600000000001 C 3110.66 1690.2700000000002 3130.11 1692.44 3154.69 1692.44 C 3154.75 1692.44 3154.81 1692.44 3154.86 1692.44 C 3154.9500000000003 1692.44 3155.03 1692.44 3155.1200000000003 1692.44 C 3181.7200000000003 1692.44 3202.3500000000004 1689.8700000000001 3219.57 1685.98 C 3231.9500000000003 1683.18 3242.34 1679.81 3251.63 1676.63" stroke-linecap="round" />
</g>
		<g transform="matrix(0.1 0 0 -0.1 71.06 29.21)" id="eDK63_3hGQb9NbWzKU7_9"  >
<path style="stroke: none; stroke-width: 1; stroke-dasharray: none; stroke-linecap: butt; stroke-dashoffset: 0; stroke-linejoin: miter; stroke-miterlimit: 4; fill: rgb(8,13,17); fill-rule: nonzero; opacity: 1;" vector-effect="non-scaling-stroke"  transform=" translate(-3210.52, -1787.02)" d="M 3329.04 1778.61 L 3092 1778.61 C 3093.15 1784.2099999999998 3094.27 1789.81 3095.35 1795.4299999999998 L 3329.04 1795.4299999999998 L 3329.04 1778.61" stroke-linecap="round" />
</g>
		<g transform="matrix(0.1 0 0 -0.1 77.54 40.91)" id="mnDA0FTnac9TUKN8__tX0"  >
<path style="stroke: none; stroke-width: 1; stroke-dasharray: none; stroke-linecap: butt; stroke-dashoffset: 0; stroke-linejoin: miter; stroke-miterlimit: 4; fill: rgb(33,88,42); fill-rule: nonzero; opacity: 1;" vector-effect="non-scaling-stroke"  transform=" translate(-3275.34, -1670.06)" d="M 3299.04 1663.48 C 3294.42 1664.2 3290.2 1665.04 3286.23 1665.95 C 3277.71 1667.91 3270.23 1670.28 3262.21 1673 C 3258.82 1674.15 3255.31 1675.38 3251.63 1676.63 L 3299.04 1676.63 L 3299.04 1663.48" stroke-linecap="round" />
</g>
		<g transform="matrix(0.1 0 0 -0.1 69.32 42.54)" id="pA-L7toz24d4E36pCmTIf"  >
<path style="stroke: none; stroke-width: 1; stroke-dasharray: none; stroke-linecap: butt; stroke-dashoffset: 0; stroke-linejoin: miter; stroke-miterlimit: 4; fill: rgb(7,10,11); fill-rule: nonzero; opacity: 1;" vector-effect="non-scaling-stroke"  transform=" translate(-3193.11, -1653.76)" d="M 3329.04 1630.89 C 3246.6 1633 3243.4 1662.43 3154.86 1662.43 C 3105.06 1662.43 3082.25 1653.13 3057.17 1644.5900000000001 C 3060.52 1655.2400000000002 3063.75 1665.92 3066.84 1676.63 L 3251.63 1676.63 C 3255.31 1675.38 3258.82 1674.15 3262.21 1673 C 3270.23 1670.28 3277.71 1667.91 3286.23 1665.95 C 3290.2 1665.04 3294.42 1664.2 3299.04 1663.48 L 3299.04 1676.63 L 3329.04 1676.63 L 3329.04 1630.89" stroke-linecap="round" />
</g>
</g>
</g>
</svg>