<svg height="224" viewBox="0 0 326 224" width="326" xmlns="http://www.w3.org/2000/svg"><g fill="#040606"><path d="m3981.88 2737.15h-2755.39v783.34h2547.02v-559.99h-49.59v510.4h-2447.84v-684.16h2705.8z" transform="matrix(.11 0 0 -.11 -111.6309 387.7502)"/><path d="m1067.71 1975.43h-49.59v297.55h24.82c113.72 0 170.4 56.68 230.43 116.69 64.54 64.53 131.27 131.24 265.52 131.24 134.26 0 200.98-66.71 265.51-131.24 60.03-60.03 116.74-116.72 230.45-116.72 113.69 0 170.37 56.69 230.4 116.72 64.51 64.53 131.24 131.24 265.49 131.24s200.96-66.71 265.46-131.24c60.03-60.03 116.72-116.72 230.41-116.72 113.68 0 170.37 56.69 230.4 116.72 64.5 64.53 131.24 131.24 265.49 131.24 105.09 0 168.41-42.88 211.86-80.28l18.78-16.17-32.35-37.58-18.79 16.18c-39.23 33.76-91.24 68.26-179.5 68.26-113.71 0-170.4-56.69-230.43-116.72-64.5-64.53-131.22-131.24-265.46-131.24-134.25 0-200.96 66.71-265.47 131.24-60.03 60.03-116.72 116.72-230.4 116.72-113.71 0-170.4-56.69-230.43-116.72-64.5-64.53-131.21-131.24-265.46-131.24-134.27 0-200.98 66.71-265.51 131.24-60.03 60.03-116.74 116.72-230.45 116.72-113.72 0-170.43-56.69-230.46-116.72-60.41-60.41-122.79-122.74-240.72-130.42z" transform="matrix(.11 0 0 -.11 -111.4793 387.1687)"/><path d="m3773.51 1479.51h-2547.02v297.52h49.59v-247.93h2447.84v446.33h-2705.8v49.59h2755.39z" transform="matrix(.11 0 0 -.11 -111.4902 386.8286)"/><path d="m1962.32 3013.32h57.15v57.14h-57.15zm106.74-49.6h-156.33v156.33h156.33z" transform="matrix(.11 0 0 -.11 -111.2179 387.6879)"/><path d="m2216.87 3217.88h57.15v57.14h-57.15zm106.74-49.59h-156.33v156.33h156.33z" transform="matrix(.11 0 0 -.11 -111.3884 387.8295)"/><path d="m2980.53 3013.32h57.12v57.14h-57.12zm106.71-49.6h-156.3v156.33h156.3z" transform="matrix(.11 0 0 -.11 -111.8999 387.6879)"/><path d="m2722.21 3214.13h57.12v57.12h-57.12zm106.71-49.59h-156.3v156.3h156.3z" transform="matrix(.11 0 0 -.11 -111.7247 387.8259)"/><path d="m2471.42 3013.32h57.14v57.14h-57.14zm106.73-49.6h-156.33v156.33h156.33z" transform="matrix(.11 0 0 -.11 -111.5589 387.6879)"/></g></svg>