<svg height="149" viewBox="0 0 314 149" width="314" xmlns="http://www.w3.org/2000/svg"><path d="m13521.2 7087.5c-375.9 183.6-3914.6 236.3-4348.84-31.9-402.32-255.4-402.32-785.5-389.54-989.8 12.77-204.4 261.82-1060.1 2599.08-1021.8 2337.3 38.4 2517.3 733.9 2586.3 862.2 89.4 166 102.2 913.1-447 1181.3" fill="#893c29" transform="matrix(.06 0 0 -.06 -526.1536 452.1546)"/><path d="m11171.2 7541c-1545.37-19.5-2286.21-510.9-2286.21-1034.6 0-486 894.03-842.9 2222.31-881.2 1328.3-38.3 2624.6 319.3 2720.4 849.3 93.2 515.5-625.8 1092-2656.5 1066.5" fill="#c25739" transform="matrix(.06 0 0 -.06 -526.0586 453.3266)"/><path d="m8974.39 6480.9c6.39-217.1 223.52-472.6 791.86-619.5 1136.65-293.7 2582.95-170.5 2541.65-108.5-51.1 76.6-611.9-165.5-2318.14 153.3-277.89 51.9-510.84 142.7-657.75 261.8-160.3 129.9-221.98 289.1-223.51 364-6.39 312.9 217.13 395.9 134.11 434.2-46.75 21.6-279.49-101.8-268.22-485.3" fill="#f9735d" transform="matrix(.06 0 0 -.06 -524.1428 452.6384)"/><g fill="#893c29"><path d="m10121.8 7377.7c-59-3.7-200.02-155.5-447.17-460.9-247.14-305.5-476.63-583.1-376.6-616.5 100.04-33.3 358.95 322.1 517.83 538.7s482.54 549.8 305.94 538.7" transform="matrix(.06 0 0 -.06 -521.693 454.0124)"/><path d="m10877.4 7426.7c-63.9-5.3-375.6-393.1-634.5-716.6-259.02-323.5-528.7-658.9-419.17-691 109.52-32 408.77 384.9 574.67 613.9 165.9 228.9 670.2 809.8 479 793.7" transform="matrix(.06 0 0 -.06 -523.391 453.7014)"/><path d="m11714 7432.5c-63.7-7-389.8-486.2-633.9-819s-566.7-727-407-727c115.1 0 410.5 420.8 565.9 655.7 155.3 234.9 736.8 919.1 475 890.3" transform="matrix(.06 0 0 -.06 -525.6372 453.5364)"/><path d="m12584.4 7350.9c-63.9 5.5-395.7-425.1-649.2-752.2-253.4-327-587.2-713.6-427.6-717.3 115.1-2.7 422.5 411.1 584.5 642.4 162 231.2 677.1 811.3 492.3 827.1" transform="matrix(.06 0 0 -.06 -527.877 453.4202)"/><path d="m13317.8 7127.2c-51.4 3.1-308.5-344.1-504.9-607.7s-456-576-327.7-575.9c92.5.1 330.3 333.5 455.3 519.6 125.1 186.1 526.1 655 377.3 664" transform="matrix(.06 0 0 -.06 -530.1626 453.2046)"/><path d="m9333.68 6818.3c16.87 8 35.96 11.8 53.66 17.6 19.48 6.4 11.14 37.2-8.49 30.8-20.46-6.7-41.77-11.5-61.29-20.8-18.59-8.8-2.38-36.3 16.12-27.6" transform="matrix(.06 0 0 -.06 -520.7028 454.026)"/><path d="m9357.55 6956.6c16.5-.3 31.43-6.9 46.84-12.2 19.56-6.6 27.88 24.2 8.5 30.8-18.37 6.3-35.67 12.9-55.34 13.4-20.6.4-20.56-31.5 0-32" transform="matrix(.06 0 0 -.06 -520.7806 454.3524)"/><path d="m9499.53 7076.3c14.84-14.5 32.28-23.1 51.74-29.7 19.56-6.6 27.88 24.2 8.49 30.8-14.18 4.8-26.84 10.9-37.66 21.4-14.74 14.4-37.34-8.1-22.57-22.5" transform="matrix(.06 0 0 -.06 -521.185 454.643)"/><path d="m9504.43 6918.3c20.22 0 40.42.1 59.14 8.6 7.93 3.6 9.78 14.9 5.73 21.8-4.73 8.1-13.91 9.3-21.84 5.8-12.81-5.8-29.38-4.2-43.03-4.2-20.59-.1-20.59-32 0-32" transform="matrix(.06 0 0 -.06 -521.1808 454.2798)"/><path d="m9668.32 7065.8c22.24 7.8 41.77 20.5 61.29 33.5 17.04 11.4 1.07 39-16.12 27.6-17.02-11.4-34.24-23.5-53.66-30.3-19.27-6.9-10.97-37.7 8.49-30.8" transform="matrix(.06 0 0 -.06 -521.6134 454.702)"/><path d="m9653.45 7212.6c24.22-8 47.05-12 72.35-6.3 20.09 4.4 11.57 35.2-8.5 30.8-19.55-4.4-36.81.2-55.37 6.3-19.59 6.6-27.92-24.3-8.48-30.8" transform="matrix(.06 0 0 -.06 -521.5998 455.0382)"/><path d="m9855.65 7244c6.09 0 11.91.6 17.48 3.2 7.39 3.6 10.9 11.4 11.26 19.2.41 8.7-7.57 15.9-15.96 15.9-9.02 0-15.56-7.3-15.97-15.9.16 3.2 2 6.2 5.68 9-1.75-1.3 4.37 1.3.67.4 5.22 1.2 1.88.2.29.2-1.15-.1-2.3-.1-3.45-.1-8.7 0-15.96-7.2-15.96-15.9s7.26-16 15.96-16" transform="matrix(.06 0 0 -.06 -522.063 455.139)"/><path d="m9226.64 6583.1c.35-18.6 11.03-31.2 27.07-39.4 7.75-3.9 17.26-2.1 21.84 5.8 4.2 7.1 2.02 17.9-5.73 21.8-2.19 1.1-4.34 2.3-6.44 3.6-.53.3-4.03 3-.97.5-.94.8-1.77 1.6-2.61 2.5-2.68 2.7 1.81-2.8-.23.4-.55.8-1.68 4.1-.28.2-.41 1.2-.64 2.4-.87 3.5.8-4 .16.2.15 1.1-.16 8.7-7.14 15.9-15.96 15.9-8.58 0-16.14-7.2-15.97-15.9" transform="matrix(.06 0 0 -.06 -520.439 453.3016)"/><path d="m9250.47 6718.7c8.69-8.3 18.73-11.1 30.45-11.1 8.7 0 15.96 7.3 15.96 16s-7.26 15.9-15.96 15.9c-1.07 0-2.13 0-3.19.1-1.14 0-5.85.7-1.08-.1-1.11.2-5.24 2-1.51.2l-2.13 1.3c1.46-1.1 1.48-1 .04.2-6.32 6-16.3 6.3-22.58 0-6.02-6-6.32-16.6 0-22.5" transform="matrix(.06 0 0 -.06 -520.4916 453.7126)"/><path d="m9823.73 6662.9h38.31c20.59 0 20.59 31.9 0 31.9-12.77 0-25.54 0-38.31 0-20.6 0-20.6-31.9 0-31.9" transform="matrix(.06 0 0 -.06 -522.0128 453.591)"/><path d="m9904.6 6816.7c18.82 5.9 38.65 6.9 57.48 12.8 19.59 6.1 11.23 36.9-8.49 30.8-18.82-5.9-38.65-6.9-57.48-12.8-19.6-6.1-11.23-36.9 8.49-30.8" transform="matrix(.06 0 0 -.06 -522.2354 454.01)"/><path d="m10234.6 6874.2c17.9-6 36.2-12.7 55.3-13.4 20.6-.6 20.5 31.3 0 32-15.9.5-31.9 7.2-46.8 12.2-19.6 6.5-28-24.3-8.5-30.8" transform="matrix(.06 0 0 -.06 -523.1352 454.1304)"/><path d="m10131.7 6993.2c6.4-6.3 12.8-12.7 19.2-19.1 6.1-6.2 16.4-6.2 22.6 0 6.1 6.1 6.1 16.4 0 22.6-6.4 6.3-12.8 12.7-19.2 19.1-6.1 6.2-16.4 6.2-22.6 0-6.1-6.1-6.1-16.4 0-22.6" transform="matrix(.06 0 0 -.06 -522.836 454.427)"/><path d="m10040.8 7039.7c12.8.7 21.9 8.8 30.5 17.4 6.2 6.2 6.1 16.4 0 22.6-6.2 6.1-16.4 6.1-22.6 0-2.4-2.4-4.8-4.8-7.4-7.1-1.5-1.2-1.5-1.2 0 0l-2.1-1.3c-1.6-.8-1.4-.7.6.2-1.8-.4-1.4-.4 1 .1-8.6-.5-15.9-6.9-15.9-16 0-8.3 7.2-16.4 15.9-15.9" transform="matrix(.06 0 0 -.06 -522.5646 454.6088)"/><path d="m10149.4 7161h95.8c20.6 0 20.6 31.9 0 31.9-31.9 0-63.9 0-95.8 0-20.6 0-20.6-31.9 0-31.9" transform="matrix(.06 0 0 -.06 -522.958 454.917)"/><path d="m10238.8 7307.9c16.3 0 31.2-.9 46.9-5.8 19.6-6.3 28 24.5 8.4 30.7-18.1 5.8-36.4 7-55.3 7-20.6 0-20.6-31.9 0-31.9" transform="matrix(.06 0 0 -.06 -523.128 455.3018)"/><path d="m10411.2 7410h63.9c20.6 0 20.6 32 0 32-21.3 0-42.6 0-63.9 0-20.6 0-20.6-32 0-32" transform="matrix(.06 0 0 -.06 -523.609 455.58)"/><path d="m10534 7331.7c12-11.6 26.4-20.3 38.4-31.9 14.7-14.4 37.3 8.2 22.5 22.5-11.9 11.7-26.3 20.3-38.3 32-14.7 14.3-37.3-8.2-22.6-22.6" transform="matrix(.06 0 0 -.06 -523.9388 455.3218)"/><path d="m10406.3 7267.8c13.8-14 24.6-30.6 38.3-44.7 14.5-14.7 37 7.9 22.6 22.6-13.7 14.1-24.6 30.6-38.3 44.7-14.4 14.8-37-7.8-22.6-22.6" transform="matrix(.06 0 0 -.06 -523.5956 455.1268)"/><path d="m10321.8 7058.8h51.1c20.6 0 20.6 31.9 0 31.9-17 0-34 0-51.1 0-20.6 0-20.6-31.9 0-31.9" transform="matrix(.06 0 0 -.06 -523.351 454.645)"/><path d="m10500.6 7135.4h44.7c20.6 0 20.6 32 0 32-14.9 0-29.8 0-44.7 0-20.6 0-20.6-32 0-32" transform="matrix(.06 0 0 -.06 -523.827 454.844)"/><path d="m10668.3 7265.3c9.5 4.5 20.1 4.2 30.3 4.3 20.6 0 20.6 31.9 0 31.9-16.3 0-31.4-1.6-46.4-8.6-7.9-3.7-9.8-14.9-5.7-21.8 4.7-8.1 13.9-9.4 21.8-5.8" transform="matrix(.06 0 0 -.06 -524.2432 455.197)"/><path d="m10679.4 7410h57.5c20.6 0 20.6 32 0 32-19.1 0-38.3 0-57.5 0-20.5 0-20.5-32 0-32" transform="matrix(.06 0 0 -.06 -524.3214 455.58)"/><path d="m10992.4 7473.9c17.8 0 33.9-.9 49.4-10.6 17.5-10.9 33.5 16.7 16.1 27.6-20.2 12.6-42.2 14.9-65.5 14.9-20.6 0-20.6-31.9 0-31.9" transform="matrix(.06 0 0 -.06 -525.1508 455.728)"/><path d="m10997.1 7361.1c13.6-7.2 24.3-18.6 35.1-29.4 14.5-14.6 37.1 8 22.5 22.6-12.6 12.6-25.5 26-41.5 34.4-18.2 9.6-34.4-18-16.1-27.6" transform="matrix(.06 0 0 -.06 -525.1644 455.4004)"/><path d="m10851.9 7154.6c16.3 0 31.2-.8 46.8-5.8 19.7-6.3 28 24.6 8.5 30.8-18.2 5.8-36.4 6.9-55.3 6.9-20.6 0-20.6-31.9 0-31.9" transform="matrix(.06 0 0 -.06 -524.7728 454.8838)"/><path d="m10658.6 6939.7c12.4-5.8 26.1-7.1 38.3-12.8 7.9-3.7 17.2-2.3 21.9 5.7 4.1 7 2.1 18.2-5.8 21.9-12.3 5.7-26.1 7-38.3 12.7-7.9 3.7-17.1 2.3-21.8-5.7-4.1-7-2.2-18.2 5.7-21.8" transform="matrix(.06 0 0 -.06 -524.2604 454.303)"/><path d="m10982.8 6972.6c0-25.2 1.1-49.8 6.9-74.5 4.8-20 35.6-11.5 30.8 8.5-5.2 21.9-5.8 43.6-5.8 66 0 20.6-31.9 20.6-31.9 0" transform="matrix(.06 0 0 -.06 -525.104 454.2722)"/><path d="m10874.2 7049.2c0-10.6 0-21.3 0-31.9 0-20.6 31.9-20.6 31.9 0v31.9c0 20.6-31.9 20.6-31.9 0" transform="matrix(.06 0 0 -.06 -524.799 454.535)"/><path d="m10792.7 6837.5c18.7-9 38.4-14.5 59.2-15 20.6-.4 20.5 31.5 0 32-15 .3-29.6 4.1-43.1 10.6-18.4 8.9-34.6-18.7-16.1-27.6" transform="matrix(.06 0 0 -.06 -524.6352 454.0302)"/><path d="m11201.4 6978c12.4-5.8 26.1-7.1 38.3-12.8 7.9-3.7 17.2-2.3 21.9 5.7 4.1 7 2.1 18.2-5.8 21.9-12.3 5.7-26.1 7.1-38.3 12.7-7.9 3.7-17.1 2.3-21.8-5.7-4.1-7-2.2-18.1 5.7-21.8" transform="matrix(.06 0 0 -.06 -525.7084 454.401)"/><path d="m11056.2 7109.9c18.9 0 37.2 1.2 55.3 7 19.6 6.2 11.2 37-8.4 30.7-15.7-4.9-30.6-5.8-46.9-5.8-20.6 0-20.6-31.9 0-31.9" transform="matrix(.06 0 0 -.06 -525.312 454.7902)"/><path d="m11211 7274.2c14.8-14.4 32.2-23 51.7-29.6 19.6-6.7 27.9 24.2 8.5 30.8-14.2 4.8-26.8 10.9-37.7 21.4-14.7 14.4-37.3-8.2-22.5-22.6" transform="matrix(.06 0 0 -.06 -525.742 455.1724)"/><path d="m11175.9 7418.6c12.3-5.7 26.1-7.1 38.3-12.8 7.9-3.6 17.1-2.3 21.8 5.8 4.1 6.9 2.2 18.1-5.7 21.8-12.3 5.8-26.1 7.1-38.3 12.8-7.9 3.7-17.2 2.3-21.9-5.8-4-6.9-2.1-18.1 5.8-21.8" transform="matrix(.06 0 0 -.06 -525.6354 455.5812)"/><path d="m11392 7466.5c6.5-20.8 7.8-42.8 12.8-63.9 4.8-20 35.6-11.5 30.8 8.5-5 21.1-6.3 43.1-12.8 63.9-6.1 19.5-36.9 11.2-30.8-8.5" transform="matrix(.06 0 0 -.06 -526.1996 455.609)"/><path d="m11557.5 7451.6c0-12.8 0-25.6 0-38.4 0-20.6 31.9-20.6 31.9 0v38.4c0 20.5-31.9 20.5-31.9 0" transform="matrix(.06 0 0 -.06 -526.627 455.5916)"/><path d="m11396.2 7306.2c14.8-14.5 32.2-23.1 51.7-29.7 19.6-6.6 27.9 24.2 8.5 30.8-14.2 4.8-26.9 10.9-37.7 21.4-14.7 14.4-37.3-8.2-22.5-22.5" transform="matrix(.06 0 0 -.06 -526.244 455.257)"/><path d="m10585.1 6686.7c6.4-6.4 12.8-12.8 19.2-19.1 6.1-6.2 16.4-6.2 22.6 0 6.1 6.1 6.1 16.4 0 22.5-6.4 6.4-12.8 12.8-19.2 19.2-6.1 6.1-16.4 6.1-22.6 0-6.1-6.2-6.1-16.4 0-22.6" transform="matrix(.06 0 0 -.06 -524.04 453.6146)"/><path d="m10470.2 6501.5c8.7-8.2 18.7-11 30.4-11 8.7 0 16 7.2 16 15.9s-7.3 16-16 16c-1 0-2.1 0-3.2 0s-5.8.8-1 0c-1.1.2-5.3 2-1.5.2l-2.2 1.3c1.5-1.1 1.5-1.1.1.2-6.4 6-16.3 6.3-22.6 0-6-6-6.3-16.6 0-22.6" transform="matrix(.06 0 0 -.06 -523.7354 453.1366)"/><path d="m10683.7 6395.2c32.3 6 65.2 5.9 97.9 5.9 20.6 0 20.6 31.9 0 31.9-35.6 0-71.2-.5-106.4-7-20.2-3.7-11.6-34.5 8.5-30.8" transform="matrix(.06 0 0 -.06 -524.3716 452.877)"/><path d="m10826.3 6669.3h38.3c20.6 0 20.6 31.9 0 31.9-12.7 0-25.5 0-38.3 0-20.6 0-20.6-31.9 0-31.9" transform="matrix(.06 0 0 -.06 -524.687 453.605)"/><path d="m11056.2 6669.3c-2.4.4-2.8.5-1 .1 1.6-.6 1.4-.4-.7.4 1.9-.8 3.6-1.7 5.4-2.6 5.1-2.5 9.7-4 15.5-4.3 8.7-.5 15.9 7.6 15.9 15.9 0 9.1-7.2 15.5-15.9 16 2.4-.4 2.8-.5 1-.1-1.6.6-1.4.4.6-.4-1.8.8-3.5 1.7-5.3 2.6-5.1 2.5-9.8 4-15.5 4.3-8.7.5-16-7.6-16-16 0-9 7.3-15.5 16-15.9" transform="matrix(.06 0 0 -.06 -525.265 453.593)"/><path d="m9473.98 6258.9c8.6-8.6 17.91-16.1 28.78-21.7 7.74-4 17.26-2.1 21.84 5.7 4.21 7.2 2.01 17.9-5.73 21.9-2.77 1.4-5.47 2.9-8.12 4.5-.93.6-1.85 1.2-2.76 1.9-.17.1-4.23 3.2-1.62 1.1-3.49 2.8-6.65 6-9.81 9.1-14.58 14.6-37.16-8-22.58-22.5" transform="matrix(.06 0 0 -.06 -521.0894 452.4684)"/><path d="m9627.25 6431.3c10.43-10.4 21.72-17.1 36.83-17.5 8.7-.2 15.96 7.4 15.96 16 0 8.9-7.27 15.8-15.96 16-1.16 0-2.33 0-3.48.1 1.57-.1 1.44-.1-.4.3-.94.2-1.86.5-2.76.9 3.3-1.2-.51.5-1.03.8-1.49 1.1-1.47 1 .04-.2l-1.98 1.7c-1.62 1.4-3.13 2.9-4.65 4.5-14.58 14.5-37.16-8.1-22.57-22.6" transform="matrix(.06 0 0 -.06 -521.4974 452.9408)"/><path d="m9791.8 6228.6c16.34.1 31.4 1.6 46.37 8.6 7.89 3.7 9.81 14.9 5.73 21.9-4.7 8-13.95 9.3-21.84 5.7-9.49-4.4-20.04-4.2-30.26-4.2-20.59 0-20.59-32 0-32" transform="matrix(.06 0 0 -.06 -521.9202 452.439)"/><path d="m9938.67 6516h44.7c20.63 0 20.63 31.9 0 31.9-14.9 0-29.8 0-44.7 0-20.59 0-20.59-31.9 0-31.9" transform="matrix(.06 0 0 -.06 -522.3218 453.197)"/><path d="m10224.4 6211.7c2.6-1.4 5.1-2.8 7.6-4.4.5-.3 4-2.9 1-.6 1-.7 1.9-1.6 2.9-2.5.9-.8 1.7-1.8 2.5-2.7 2.9-3.2-1.8 2.7.7-.9 2-2.7 3.6-5.8 5.1-8.8 3.9-7.7 14.6-9.9 21.8-5.7 7.9 4.6 9.7 14.1 5.8 21.9-7.1 13.8-17.4 24.2-31.3 31.2-7.8 4-17.3 2.1-21.9-5.7-4.2-7.2-2-17.9 5.8-21.8" transform="matrix(.06 0 0 -.06 -523.0784 452.3372)"/><path d="m10157.9 6044c23.4-6.5 40.2-23.9 56.9-40.6 14.5-14.5 37.1 8 22.5 22.6-20.6 20.7-42 40.7-70.9 48.8-19.8 5.6-28.3-25.2-8.5-30.8" transform="matrix(.06 0 0 -.06 -522.9498 451.876)"/><path d="m10494.2 6024.3h63.9c20.6 0 20.6 31.9 0 31.9-21.3 0-42.6 0-63.9 0-20.5 0-20.5-31.9 0-31.9" transform="matrix(.06 0 0 -.06 -523.8314 451.885)"/><path d="m10392.1 6343.6h3.2c1.1-.1 5.8-.8 1 0 1.2-.2 5.3-2 1.6-.2l2.1-1.3c-1.5 1.1-1.5 1.1-.1-.2 6.4-6 16.3-6.3 22.6 0 6 6 6.3 16.6 0 22.6-8.7 8.2-18.7 11-30.4 11-8.7 0-16-7.2-16-15.9 0-8.8 7.3-16 16-16" transform="matrix(.06 0 0 -.06 -523.4966 452.7234)"/><path d="m11734.6 7146.5c17.8-16.5 42.1-22.3 64.5-29.6 19.6-6.5 28 24.4 8.5 30.7-16.6 5.5-37.2 9.2-50.4 21.5-15.1 14-37.7-8.6-22.6-22.6" transform="matrix(.06 0 0 -.06 -527.159 454.8256)"/><path d="m11843.2 7325.3c20.3-19.9 43.2-35 70.9-42.4 19.9-5.3 28.3 25.5 8.5 30.8-22.6 6-40.4 18-56.9 34.2-14.7 14.4-37.2-8.1-22.5-22.6" transform="matrix(.06 0 0 -.06 -527.459 455.2946)"/><path d="m11780 7442.5c21.9-6.7 45.3-6.9 68.1-6.9 20.6 0 20.6 31.9 0 31.9-20.1 0-40.3-.1-59.6 5.8-19.8 6.1-28.2-24.7-8.5-30.8" transform="matrix(.06 0 0 -.06 -527.2696 455.651)"/><path d="m12028.5 7386.7c14.5 6.5 32.2 6.4 47.3 11.1 19.6 6.2 11.2 37-8.5 30.8-18.2-5.7-37.4-6.4-54.9-14.4-7.9-3.5-9.7-14.9-5.7-21.8 4.7-8.1 13.9-9.3 21.8-5.7" transform="matrix(.06 0 0 -.06 -527.888 455.526)"/><path d="m12079.6 7207.9c25.6 12.7 51.1 25.5 76.7 38.3 18.4 9.2 2.2 36.7-16.1 27.6-25.6-12.8-51.1-25.6-76.7-38.4-18.4-9.2-2.2-36.7 16.1-27.5" transform="matrix(.06 0 0 -.06 -528.054 455.0898)"/><path d="m12161 7250.4c20.6 0 20.6 31.9 0 31.9s-20.6-31.9 0-31.9" transform="matrix(.06 0 0 -.06 -528.19 455.151)"/><path d="m11924.7 7007.7c13.7 0 30.2 1.6 43-4.2 8-3.6 17.1-2.3 21.9 5.7 4 7 2.2 18.3-5.8 21.9-18.7 8.5-38.9 8.5-59.1 8.6-20.6 0-20.6-32 0-32" transform="matrix(.06 0 0 -.06 -527.627 454.499)"/><path d="m11915.7 7172.7c9.5-25.4 31.7-35 55.8-43.1 19.6-6.5 28 24.3 8.5 30.8-11.5 3.9-28.7 8-33.5 20.8-3.1 8.1-10.7 13.6-19.7 11.1-7.8-2.1-14.1-11.4-11.1-19.6" transform="matrix(.06 0 0 -.06 -527.6306 454.8686)"/><path d="m12124.2 7114.6c14-13.8 30.6-24.6 44.6-38.3 14.8-14.4 37.4 8.1 22.6 22.5-14 13.8-30.6 24.6-44.7 38.4-14.7 14.3-37.3-8.2-22.5-22.6" transform="matrix(.06 0 0 -.06 -528.188 454.7232)"/><path d="m12231.2 7231.2h63.9c20.6 0 20.6 32 0 32-21.3 0-42.6 0-63.9 0-20.6 0-20.6-32 0-32" transform="matrix(.06 0 0 -.06 -528.459 455.102)"/><path d="m12384.5 7314.2c25.2.1 49.8 1.2 74.5 7 20 4.8 11.5 35.5-8.5 30.8-21.9-5.2-43.6-5.8-66-5.8-20.6 0-20.6-32 0-32" transform="matrix(.06 0 0 -.06 -528.8838 455.3304)"/><path d="m12146.5 7418.6c18.8-8.5 39-8.6 59.2-8.6 20.6 0 20.6 32 0 32-13.7 0-30.2-1.6-43 4.2-8 3.6-17.2 2.3-21.9-5.8-4-6.9-2.2-18.2 5.7-21.8" transform="matrix(.06 0 0 -.06 -528.237 455.583)"/><path d="m12395.6 7393.1c15-7 30-8.6 46.4-8.6 20.6 0 20.6 31.9 0 31.9-10.3 0-20.8-.2-30.3 4.2-7.9 3.7-17.1 2.3-21.8-5.7-4.1-7-2.2-18.2 5.7-21.8" transform="matrix(.06 0 0 -.06 -528.8872 455.5212)"/><path d="m11587.9 6811.9c13.5 6.5 28.1 10.3 43 10.6 20.6.5 20.7 32.4 0 32-20.7-.5-40.5-6-59.1-15-18.5-9-2.3-36.5 16.1-27.6" transform="matrix(.06 0 0 -.06 -526.7106 453.9998)"/><path d="m11618.2 6943.9h57.4c20.6 0 20.6 31.9 0 31.9-19.1 0-38.3 0-57.4 0-20.6 0-20.6-31.9 0-31.9" transform="matrix(.06 0 0 -.06 -526.824 454.331)"/><path d="m11869.4 6893.3c18.8-6.2 36.9-13 53.6-23.9 17.4-11.2 33.4 16.5 16.1 27.6-18.9 12.3-39.9 20-61.2 27.1-19.6 6.6-28-24.3-8.5-30.8" transform="matrix(.06 0 0 -.06 -527.5058 454.164)"/><path d="m11737.8 6716.2c6.3-3 12.6-5.3 19.2-7.2 2.6-.7 5.2-1.5 7.7-2.3.9-.3 2.9-1.8 1.8-.8 6.5-5.8 16.2-6.4 22.6 0 5.9 5.9 6.5 16.8 0 22.6-10.3 9.1-23.2 9.6-35.1 15.2-7.9 3.7-17.2 2.3-21.9-5.7-4.1-7-2.1-18.1 5.7-21.8" transform="matrix(.06 0 0 -.06 -527.1334 453.7088)"/><path d="m11311.7 6535.2h31.9c20.6 0 20.6 31.9 0 31.9-10.7 0-21.3 0-31.9 0-20.6 0-20.6-31.9 0-31.9" transform="matrix(.06 0 0 -.06 -525.969 453.249)"/><path d="m11439.4 6669.3h51.1c20.5 0 20.5 31.9 0 31.9-17.1 0-34.1 0-51.1 0-20.6 0-20.6-31.9 0-31.9" transform="matrix(.06 0 0 -.06 -526.3346 453.605)"/><path d="m11337.2 6292.5h44.7c20.6 0 20.6 31.9 0 31.9-14.9 0-29.8 0-44.7 0-20.6 0-20.6-31.9 0-31.9" transform="matrix(.06 0 0 -.06 -526.053 452.597)"/><path d="m11102.4 6233.3c13.4-12.8 31.4-19.2 44.7-31.9 14.9-14.2 37.5 8.3 22.6 22.6-13.4 12.8-31.4 19.2-44.7 31.9-14.9 14.2-37.5-8.4-22.6-22.6" transform="matrix(.06 0 0 -.06 -525.453 452.3884)"/><path d="m11009.8 5988.2c18.8-8.5 39-8.6 59.2-8.6 20.6 0 20.6 31.9 0 31.9-13.7 0-30.2-1.6-43 4.2-8 3.6-17.2 2.4-21.9-5.7-4-6.9-2.2-18.3 5.7-21.8" transform="matrix(.06 0 0 -.06 -525.205 451.7766)"/><path d="m11203.1 5877.4c19.7.5 36.9 7.1 55.3 13.4 19.4 6.5 11.1 37.4-8.5 30.7-15.4-5.2-30.3-11.8-46.8-12.2-20.6-.4-20.6-32.3 0-31.9" transform="matrix(.06 0 0 -.06 -525.7024 451.5152)"/><path d="m11471.3 6094.5c23.3.1 45.3 2.3 65.5 15 17.4 10.9 1.4 38.5-16.1 27.6-15.5-9.8-31.6-10.6-49.4-10.6-20.6-.1-20.6-32 0-32" transform="matrix(.06 0 0 -.06 -526.4248 452.093)"/><path d="m11601.2 6369.7c15.9-5.3 32.1-10.2 47.2-17.5 18.5-9 34.7 18.6 16.2 27.5-17.7 8.6-36.4 14.6-55 20.8-19.5 6.5-27.9-24.3-8.4-30.8" transform="matrix(.06 0 0 -.06 -526.7764 452.7746)"/><path d="m11667.6 6556.5c23.6-14.5 51.4-14.9 78.3-14.9 20.6-.1 20.6 31.9 0 31.9-21.2 0-43.5-.9-62.2 10.6-17.6 10.8-33.6-16.9-16.1-27.6" transform="matrix(.06 0 0 -.06 -526.9914 453.2848)"/><path d="m11969.4 6771.4h38.3c20.6 0 20.6 32 0 32-12.8 0-25.5 0-38.3 0-20.6 0-20.6-32 0-32" transform="matrix(.06 0 0 -.06 -527.733 453.874)"/><path d="m12529.7 6901.3c19.5-9.2 40.8-14 61.3-20.7 19.6-6.4 27.9 24.4 8.5 30.8-17.7 5.8-36.8 9.5-53.7 17.5-18.5 8.8-34.7-18.7-16.1-27.6" transform="matrix(.06 0 0 -.06 -529.27 454.1902)"/><path d="m12642.1 7021.1c24.1-7.9 49-13 74.5-13.4 20.6-.3 20.5 31.6 0 32-22.7.3-44.5 5.1-66 12.2-19.7 6.4-28-24.5-8.5-30.8" transform="matrix(.06 0 0 -.06 -529.58 454.5238)"/><path d="m12895.4 7071.6h76.6c20.6 0 20.6 31.9 0 31.9-25.5 0-51.1 0-76.6 0-20.6 0-20.6-31.9 0-31.9" transform="matrix(.06 0 0 -.06 -530.252 454.683)"/><path d="m12714.4 7161.6c17.5 5.4 35.1 5.8 53.2 5.8 20.6 0 20.6 31.9 0 31.9-20.8 0-41.6-.7-61.7-7-19.6-6-11.2-36.9 8.5-30.7" transform="matrix(.06 0 0 -.06 -529.734 454.9224)"/><path d="m12703.8 7263.2h57.5c20.6 0 20.6 31.9 0 31.9-19.2 0-38.4 0-57.5 0-20.6 0-20.6-31.9 0-31.9" transform="matrix(.06 0 0 -.06 -529.713 455.189)"/><path d="m12659.1 7333.4c19.9-.4 39-6.3 55.8-17 17.4-11 33.4 16.6 16.1 27.6-21.4 13.6-46.6 20.9-71.9 21.3-20.6.4-20.6-31.5 0-31.9" transform="matrix(.06 0 0 -.06 -529.603 455.3448)"/><path d="m12912.9 7259c18.2-9.4 35.4-20.3 54.9-27.2 19.4-6.9 27.7 24 8.4 30.8-16.7 5.9-31.5 15.8-47.2 23.9-18.3 9.4-34.5-18.1-16.1-27.5" transform="matrix(.06 0 0 -.06 -530.2888 455.1372)"/><path d="m13136.4 7156.8c14.4-8 23.7-25.7 32.5-39 11.4-17 39.1-1.1 27.6 16.1-12 18-24.5 39.7-44 50.5-18.1 9.9-34.2-17.7-16.1-27.6" transform="matrix(.06 0 0 -.06 -530.871 454.8412)"/><path d="m13022.1 7130.6c7.9-14.9 22.6-23.7 34.4-35.2 14.7-14.4 37.3 8.2 22.6 22.6-9.7 9.5-23.4 17.4-29.5 28.7-4.1 7.7-14.5 10-21.8 5.7-7.7-4.5-9.8-14.1-5.7-21.8" transform="matrix(.06 0 0 -.06 -530.5676 454.7696)"/><path d="m13005.4 6935.8 1.8-2c3.1-3.5-1.7 2.5 1.2-1.5 1.6-2.2 3-4.5 4.5-6.8 3.6-5.3 7.2-10.6 11.7-15.3 6-6.3 16.5-6 22.5 0 6.3 6.3 6.1 16.3 0 22.6l-1.8 2c-3.1 3.5 1.8-2.5-1.1 1.5-1.6 2.2-3.1 4.5-4.6 6.7-3.5 5.3-7.2 10.7-11.6 15.3-6 6.3-16.5 6.1-22.6 0-6.2-6.2-6-16.2 0-22.5" transform="matrix(.06 0 0 -.06 -530.4974 454.2662)"/><path d="m12287.7 6712.5c-11.8-27.2 10.6-46.3 31.3-60.2 7.2-4.9 17.6-1.4 21.8 5.7 4.6 7.9 1.5 17-5.7 21.9-5.6 3.7-10.8 7.7-15.6 12.5-1.6 1.5-2.6 3.1-3.7 5.1.4-1.1.3-.7-.2 1.1.2-1.1.1-1.3-.3-2.3 3.4 8 2.4 17.1-5.8 21.9-6.8 4-18.3 2.2-21.8-5.7" transform="matrix(.06 0 0 -.06 -528.602 453.5984)"/><path d="m12430.7 6788.9c16.6-16.1 36.3-28.3 58.1-36 19.5-6.9 27.8 23.9 8.5 30.8-16.5 5.8-31.5 15.6-44 27.8-14.8 14.3-37.4-8.2-22.6-22.6" transform="matrix(.06 0 0 -.06 -529.0042 453.8694)"/><path d="m12435.6 6541.6c18.1 0 36 .9 52.7 8.5 8 3.6 9.8 14.9 5.8 21.9-4.8 8-14 9.3-21.9 5.7-11-5.1-24.8-4.2-36.6-4.2-20.6 0-20.6-32 0-31.9" transform="matrix(.06 0 0 -.06 -528.979 453.276)"/><path d="m12665.5 6573.5h63.8c20.6 0 20.6 31.9 0 31.9-21.3 0-42.5 0-63.8 0-20.6 0-20.6-31.9 0-31.9" transform="matrix(.06 0 0 -.06 -529.624 453.347)"/><path d="m12674 6752.9c20.1-6.3 40.8-7 61.7-7 20.6 0 20.6 31.9 0 31.9-18.1 0-35.7.4-53.2 5.9-19.7 6.1-28.1-24.8-8.5-30.8" transform="matrix(.06 0 0 -.06 -529.65 453.822)"/><path d="m12810.7 6926.9c12.3-5.8 26.1-7.1 38.3-12.8 7.9-3.7 17.1-2.3 21.8 5.7 4.1 7 2.2 18.2-5.7 21.9-12.3 5.7-26.1 7.1-38.3 12.8-7.9 3.6-17.2 2.2-21.8-5.8-4.1-6.9-2.2-18.1 5.7-21.8" transform="matrix(.06 0 0 -.06 -529.994 454.2656)"/><path d="m12869.8 6771.4c10.2 0 20.8.3 30.3-4.2 7.9-3.6 17.1-2.3 21.8 5.8 4.1 6.9 2.2 18.1-5.7 21.8-15 7-30 8.6-46.4 8.6-20.6 0-20.6-31.9 0-32" transform="matrix(.06 0 0 -.06 -530.1308 453.871)"/><path d="m12007.7 6190.3h38.3c20.6 0 20.6 32 0 32-12.7 0-25.5 0-38.3 0-20.6 0-20.6-32 0-32" transform="matrix(.06 0 0 -.06 -527.831 452.328)"/><path d="m12133.8 6390.5c16.7-7.7 34.6-8.6 52.7-8.6 20.6 0 20.6 31.9 0 31.9-11.8 0-25.6-.8-36.6 4.2-7.9 3.7-17.1 2.4-21.9-5.7-4-6.9-2.1-18.2 5.8-21.8" transform="matrix(.06 0 0 -.06 -528.1976 452.8464)"/><path d="m12371.7 6286.1h57.5c20.6 0 20.6 31.9 0 31.9-19.2 0-38.3 0-57.5 0-20.6 0-20.6-31.9 0-31.9" transform="matrix(.06 0 0 -.06 -528.827 452.583)"/><path d="m12226.5 6039.2c16.8 10.9 34.8 17.7 53.7 24 19.4 6.5 11.1 37.3-8.5 30.8-21.4-7.2-42.3-14.9-61.3-27.2-17.2-11.1-1.2-38.8 16.1-27.6" transform="matrix(.06 0 0 -.06 -528.4178 451.9544)"/><path d="m11799.1 5922.7c20.2-6.7 40.3-12.9 61.7-13.4 20.6-.4 20.6 31.5 0 32-18.4.4-35.8 6.4-53.2 12.2-19.6 6.5-27.9-24.3-8.5-30.8" transform="matrix(.06 0 0 -.06 -527.3196 451.591)"/><path d="m12180.1 5871h44.7c20.6 0 20.6 32 0 32-14.9 0-29.8 0-44.7 0-20.5 0-20.5-32 0-32" transform="matrix(.06 0 0 -.06 -528.2994 451.48)"/><path d="m12823 5973.8c21.9 5.5 43.2 11.8 66 12.2 20.5.3 20.6 32.2 0 31.9-25.7-.4-49.8-7.1-74.5-13.3-20-5.1-11.5-35.9 8.5-30.8" transform="matrix(.06 0 0 -.06 -530.035 451.7642)"/><path d="m12869.8 6132.9c27.3 0 54.2.7 80.9 6.9 20.1 4.6 11.5 35.4-8.5 30.8-23.9-5.5-48-5.8-72.4-5.8-20.6 0-20.6-32 0-31.9" transform="matrix(.06 0 0 -.06 -530.185 452.1788)"/><path d="m13177.8 6233.3c15.4-15.3 31.1-28.7 51.8-36 19.4-6.9 27.7 23.9 8.5 30.8-15.2 5.4-26.5 16.6-37.7 27.8-14.6 14.6-37.1-8-22.6-22.6" transform="matrix(.06 0 0 -.06 -530.9936 452.3876)"/><path d="m13136.4 6096.7c9.8-5.2 14.3-15.3 19.8-26.2 3.9-7.8 14.7-9.9 21.8-5.7 7.9 4.6 9.6 14 5.7 21.8-7.4 14.9-16 29.6-31.2 37.7-7.7 4.1-17.3 2-21.9-5.7-4.2-7.3-1.9-17.8 5.8-21.9" transform="matrix(.06 0 0 -.06 -530.8472 452.0312)"/><path d="m12984.8 6381.9c18.4 0 35.8.6 52.7 8.6 7.9 3.7 9.9 14.8 5.8 21.8-4.7 8-14 9.4-21.9 5.7-11.2-5.2-24.6-4.2-36.6-4.2-20.6 0-20.6-31.9 0-31.9" transform="matrix(.06 0 0 -.06 -530.4516 452.8452)"/><path d="m13246.6 6471.3c22.4 0 44.1-.6 66-5.8 20-4.8 28.5 26 8.5 30.8-24.7 5.8-49.3 6.9-74.5 6.9-20.6 0-20.6-31.9 0-31.9" transform="matrix(.06 0 0 -.06 -531.1798 453.066)"/><path d="m13170 6337.2c16.3 0 31.4 1.6 46.3 8.6 7.9 3.6 9.8 14.8 5.8 21.8-4.7 8-14 9.4-21.9 5.7-9.5-4.4-20-4.2-30.2-4.2-20.6 0-20.6-31.9 0-31.9" transform="matrix(.06 0 0 -.06 -530.9304 452.7232)"/><path d="m13494.2 6271.6c10.8 10.6 23.4 16.7 37.6 21.5 19.4 6.5 11.1 37.4-8.5 30.8-19.4-6.6-36.9-15.2-51.7-29.7-14.8-14.4 7.8-36.9 22.6-22.6" transform="matrix(.06 0 0 -.06 -531.778 452.5652)"/><path d="m13628.3 6424.9c14.2 13.8 31.3 22.7 50.4 27.8 19.9 5.3 11.4 36.1-8.5 30.8-24.3-6.5-46.4-18.4-64.5-36-14.8-14.4 7.8-37 22.6-22.6" transform="matrix(.06 0 0 -.06 -532.147 452.982)"/><path d="m13510.6 6561.3c30.7-7.7 59.9-12 91.5-6.4 20.2 3.6 11.6 34.3-8.5 30.8-25.6-4.5-49.7.2-74.6 6.4-19.9 5-28.4-25.8-8.4-30.8" transform="matrix(.06 0 0 -.06 -531.914 453.3)"/><path d="m13241.7 6757c12.8-12.8 25.5-25.6 38.3-38.3 14.6-14.6 37.2 8 22.6 22.5-12.8 12.8-25.6 25.6-38.3 38.3-14.6 14.6-37.2-8-22.6-22.5" transform="matrix(.06 0 0 -.06 -531.159 453.776)"/><path d="m13162.6 6651.6c12.7-19.1 25.5-38.3 38.3-57.4 11.3-17.1 39-1.1 27.5 16.1-12.7 19.1-25.5 38.3-38.3 57.5-11.3 17-39 1-27.5-16.2" transform="matrix(.06 0 0 -.06 -530.95 453.4582)"/><path d="m13416.4 6744.9c9.1-26.4 23-50.8 42.4-71 14.3-14.8 36.9 7.8 22.6 22.6-15.6 16.1-26.9 35.7-34.2 56.8-6.7 19.4-37.5 11.1-30.8-8.4" transform="matrix(.06 0 0 -.06 -531.6326 453.6826)"/><path d="m13363.7 6867.8c26.4-8.9 52.6-18.9 80.9-19.7 20.6-.6 20.5 31.3 0 31.9-25.1.7-48.9 10.6-72.4 18.6-19.6 6.6-27.9-24.2-8.5-30.8" transform="matrix(.06 0 0 -.06 -531.5104 454.1086)"/><path d="m13431.8 7007.7c12.6-.3 25.4-5.1 36.6-10.6 18.5-8.9 34.7 18.6 16.1 27.6-16.4 8-34.3 14.4-52.7 15-20.6.5-20.6-31.4 0-32" transform="matrix(.06 0 0 -.06 -531.6424 454.4918)"/><path d="m13620.7 6853.4c14.5-34.9 33.3-67.3 52.7-99.6 10.6-17.6 38.2-1.6 27.6 16.1-17.9 29.9-36.2 59.8-49.5 92-7.7 18.8-38.6 10.5-30.8-8.5" transform="matrix(.06 0 0 -.06 -532.1946 453.9304)"/><path d="m13511.6 6889.6c0-19.3 2-41.5 20.7-52.1 17.9-10.2 34 17.4 16.1 27.6-1.7 1-2.1 1.2-1.1.6-1.4 1.3-1.7 1.6-.8.9-1.1 1.7-1.5 3.7-2.1 6.6-1 4.2-.9 10.9-.9 16.4 0 20.6-31.9 20.6-31.9 0" transform="matrix(.06 0 0 -.06 -531.854 454.0996)"/><path d="m13589.8 6703.4c20.7-13.8 41.6-27.1 63.8-38.3 18.3-9.3 34.5 18.2 16.1 27.5-22.2 11.3-43.1 24.5-63.8 38.3-17.2 11.5-33.2-16.2-16.1-27.5" transform="matrix(.06 0 0 -.06 -532.109 453.6352)"/><path d="m13741.5 6640.5c.5-29.5 7.5-58.4 13.3-87.2 4.1-20.2 34.9-11.6 30.8 8.5-5.2 26-11.7 52-12.2 78.7-.3 20.6-32.2 20.6-31.9 0" transform="matrix(.06 0 0 -.06 -532.4644 453.3716)"/><path d="m10947.7 7244c20.2 0 39.8-1.1 59.6-5.8 20-4.8 28.5 26 8.5 30.8-22.6 5.3-45.1 6.9-68.1 6.9-20.6 0-20.6-31.9 0-31.9" transform="matrix(.06 0 0 -.06 -525.0438 455.128)"/><path d="m11191.8 7165.7c17-17 34.4-33.6 54.3-47.2 17.1-11.7 33 16 16.1 27.5-17.6 12.1-32.8 27.2-47.8 42.2-14.6 14.6-37.2-8-22.6-22.5" transform="matrix(.06 0 0 -.06 -525.7044 454.858)"/><path d="m11348.3 7195.1c11.3-6 19.6-18.9 31.9-25.5 7.7-4.1 17.3-2 21.9 5.7 4.2 7.3 1.9 17.7-5.8 21.8-11.3 6.1-19.5 19-31.9 25.6-7.7 4.1-17.3 2-21.8-5.8-4.3-7.2-2-17.7 5.7-21.8" transform="matrix(.06 0 0 -.06 -526.0886 454.969)"/><path d="m11203.1 7480.3h76.6c20.6 0 20.6 31.9 0 31.9-25.5 0-51.1 0-76.6 0-20.6 0-20.6-31.9 0-31.9" transform="matrix(.06 0 0 -.06 -525.734 455.765)"/><path d="m11285.1 7411.6c6.4-12.8 12.8-25.6 19.2-38.4 3.8-7.7 14.7-9.9 21.8-5.7 7.9 4.6 9.6 14.1 5.7 21.9-6.4 12.7-12.7 25.5-19.1 38.3-3.9 7.8-14.7 9.9-21.9 5.7-7.8-4.6-9.6-14.1-5.7-21.8" transform="matrix(.06 0 0 -.06 -525.9176 455.5176)"/><path d="m10564.5 7448.4h57.5c20.6 0 20.6 31.9 0 31.9-19.2 0-38.3 0-57.5 0-20.6 0-20.6-31.9 0-31.9" transform="matrix(.06 0 0 -.06 -524.005 455.681)"/><path d="m10324 7225.4c17.6-6.3 31.9-19.9 47.2-30.3 17.1-11.6 33.1 16.1 16.2 27.6-18.1 12.2-34.1 26-54.9 33.5-19.5 7-27.8-23.9-8.5-30.8" transform="matrix(.06 0 0 -.06 -523.3686 455.0462)"/><path d="m10194.1 7231.2h44.7c20.6 0 20.6 32 0 32-14.9 0-29.8 0-44.7 0-20.6 0-20.6-32 0-32" transform="matrix(.06 0 0 -.06 -523.007 455.102)"/><path d="m10219.7 7397.3c31.5 0 62.5 1.1 93.6 6.9 20.2 3.8 11.6 34.6-8.5 30.8-28.2-5.3-56.5-5.8-85.1-5.8-20.6 0-20.6-31.9 0-31.9" transform="matrix(.06 0 0 -.06 -523.1324 455.5486)"/><path d="m11984.3 7302.1c24.2-7.9 49.1-13 74.5-13.4 20.6-.3 20.6 31.6 0 31.9-22.7.4-44.5 5.2-66 12.2-19.6 6.4-28-24.4-8.5-30.7" transform="matrix(.06 0 0 -.06 -527.8244 455.2708)"/><path d="m11924.7 7435.6c17.3.4 33.8 6 51.1 6.4 20.5.4 20.6 32.3 0 31.9-17.3-.4-33.9-6-51.1-6.4-20.6-.4-20.6-32.4 0-31.9" transform="matrix(.06 0 0 -.06 -527.6238 455.655)"/><path d="m11783.2 7245.5c9.8-18.4 29.1-26.5 47.9-32.9 19.5-6.6 27.8 24.3 8.4 30.8-6.7 2.3-13.1 4.7-19.3 8.3-4.6 2.7-6.9 5.1-9.4 9.9-9.7 18.2-37.3 2.1-27.6-16.1" transform="matrix(.06 0 0 -.06 -527.271 455.0784)"/><path d="m12497.3 6944.4c27.7 7 54.7 14.8 80.4 27.2 18.6 8.9 2.4 36.5-16.1 27.6-23.2-11.2-47.9-17.7-72.8-24-20-5-11.5-35.8 8.5-30.8" transform="matrix(.06 0 0 -.06 -529.1796 454.374)"/><path d="m12605.9 7104.1c21.5 7 43.3 11.8 66 12.2 20.5.3 20.6 32.3 0 31.9-25.5-.4-50.4-5.5-74.5-13.3-19.5-6.4-11.2-37.2 8.5-30.8" transform="matrix(.06 0 0 -.06 -529.458 454.7832)"/><path d="m12771.4 7064.2c8.5-23.2 25.3-41.1 42.4-58.2 14.6-14.6 37.2 8 22.6 22.6-12.8 12.8-27.8 26.6-34.2 44-7 19.2-37.9 10.9-30.8-8.4" transform="matrix(.06 0 0 -.06 -529.9138 454.5534)"/><path d="m12946.5 7020.5h51c20.6 0 20.6 31.9 0 31.9-17 0-34 0-51 0-20.6 0-20.6-31.9 0-31.9" transform="matrix(.06 0 0 -.06 -530.36 454.537)"/><path d="m12835.3 7198.3c9.3-25.5 30.9-40.8 55.8-49.5 19.5-6.8 27.8 24.1 8.5 30.8-13.4 4.6-28.4 13.1-33.5 27.1-7.1 19.2-37.9 10.9-30.8-8.4" transform="matrix(.06 0 0 -.06 -530.094 454.9326)"/><path d="m12801.7 7321.2c17.2-5.9 33.9-13.3 51.1-19.1 19.6-6.7 27.9 24.1 8.5 30.7-17.2 5.9-33.9 13.3-51.1 19.2-19.5 6.7-27.9-24.2-8.5-30.8" transform="matrix(.06 0 0 -.06 -529.9806 455.313)"/><path d="m13076.3 7238.2c30.6-12.6 59.1-29.9 85.6-49.5 16.6-12.2 32.5 15.5 16.1 27.6-29 21.4-59.9 39-93.2 52.7-19 7.8-27.2-23.1-8.5-30.8" transform="matrix(.06 0 0 -.06 -530.7592 455.0576)"/><path d="m13369.4 7101.8c12-11.9 25.6-23.1 43.2-23.8 8.7-.4 16 7.5 16 15.9 0 9-7.3 15.6-16 16-2.8.1-6 2.1-10.3 5-2.6 1.8-7.2 6.3-10.3 9.5-14.6 14.5-37.2-8-22.6-22.6" transform="matrix(.06 0 0 -.06 -531.4884 454.7218)"/></g><g fill="#c25739"><path d="m9043.63 6025.8c11.9-21.6 36.89-37 56.81-50.4 17.15-11.5 33.11 16.1 16.12 27.5-15.29 10.3-36.22 22.4-45.36 39-9.93 18.1-37.5 2-27.57-16.1" transform="matrix(.06 0 0 -.06 -519.9796 451.8044)"/><path d="m8964.81 5950.8c.83-37.6 12.29-71.7 26.12-106.4 7.54-18.8 38.43-10.6 30.79 8.5-12.72 31.9-24.21 63.3-24.97 97.9-.46 20.6-32.38 20.7-31.94 0" transform="matrix(.06 0 0 -.06 -519.7422 451.5118)"/><path d="m9106.83 5841.3c14.46-8 23.74-25.7 32.58-39 11.37-17 39.04-1.1 27.58 16.1-12 18-24.49 39.7-44.05 50.4-18.05 10-34.16-17.6-16.11-27.5" transform="matrix(.06 0 0 -.06 -520.1192 451.3294)"/><path d="m9132.37 5649.7c33-19.2 69.18-31.9 102.18-51.1 17.84-10.4 33.9 17.2 16.11 27.6-32.99 19.2-69.18 31.9-102.17 51.1-17.84 10.3-33.91-17.3-16.12-27.6" transform="matrix(.06 0 0 -.06 -520.2712 450.8158)"/><path d="m9421.41 5532.6h95.79c20.59 0 20.59 31.9 0 31.9-31.93 0-63.86 0-95.79 0-20.59 0-20.59-31.9 0-31.9" transform="matrix(.06 0 0 -.06 -521.0086 450.573)"/><path d="m9306.46 5679.5c30.69-.1 61.28-.3 91.55-5.9 20.12-3.7 28.72 27.1 8.49 30.8-33.14 6.2-66.42 7-100.04 7-20.59 0-20.59-31.9 0-31.9" transform="matrix(.06 0 0 -.06 -520.7118 450.951)"/><path d="m9278.78 5846.1c25.54 6.4 51.58 12.9 74.06 27.1 17.34 11 1.33 38.6-16.12 27.6-20.19-12.8-43.5-18.2-66.43-24-19.96-5-11.49-35.7 8.49-30.7" transform="matrix(.06 0 0 -.06 -520.586 451.437)"/><path d="m9515.53 5790.2c28.51-14.8 53.76-36 73.4-61.4 12.58-16.2 35.01 6.5 22.58 22.6-21.09 27.3-49.25 50.5-79.86 66.4-18.26 9.4-34.41-18.1-16.12-27.6" transform="matrix(.06 0 0 -.06 -521.2592 451.1688)"/><path d="m9505.91 5677.7c17.01-17 34.41-33.6 54.32-47.2 17.06-11.6 33.01 16.1 16.12 27.6-17.62 12-32.82 27.2-47.86 42.2-14.57 14.6-37.15-8-22.58-22.6" transform="matrix(.06 0 0 -.06 -521.2122 450.8922)"/><path d="m9617.24 5341.6c27.67 6.9 54.66 14.7 80.44 27.1 18.54 9 2.34 36.5-16.12 27.6-23.21-11.2-47.91-17.7-72.81-23.9-19.97-5-11.49-35.8 8.49-30.8" transform="matrix(.06 0 0 -.06 -521.4972 450.093)"/><path d="m9466.11 5430.4h38.32c20.59 0 20.59 31.9 0 31.9-12.77 0-25.54 0-38.32 0-20.59 0-20.59-31.9 0-31.9" transform="matrix(.06 0 0 -.06 -521.0562 450.301)"/><path d="m9719.41 5494.8c25.89 6.1 52.33 5.8 78.77 5.8 20.59 0 20.59 32 0 32-29.33 0-58.55-.3-87.26-7-20.05-4.7-11.54-35.5 8.49-30.8" transform="matrix(.06 0 0 -.06 -521.773 450.4776)"/><path d="m9736.46 5648.1c27.57-6.9 55.17-13.5 83.02-19.2 20.1-4 28.66 26.7 8.49 30.8-27.85 5.7-55.45 12.3-83.02 19.2-19.98 5-28.46-25.8-8.49-30.8" transform="matrix(.06 0 0 -.06 -521.8468 450.8594)"/><path d="m9901.84 5665c13.44-11.7 32.79-11.1 49.61-11.1 20.59 0 20.59 31.9 0 31.9-5.73 0-11.45.1-17.17.4-2.23.2-4.22.4-6.33.8-2.41.5-4.99 1.8-3.53.5-6.57 5.7-16.1 6.5-22.58 0-5.82-5.8-6.58-16.8 0-22.5" transform="matrix(.06 0 0 -.06 -522.2424 450.9094)"/><path d="m10168.6 5500.6c24.4 0 48.5-.2 72.4-5.8 20-4.6 28.5 26.2 8.4 30.8-26.6 6.2-53.6 7-80.8 7-20.6 0-20.6-31.9 0-32" transform="matrix(.06 0 0 -.06 -522.9812 450.4782)"/><path d="m9951.45 5385.7h70.25c20.6 0 20.6 31.9 0 31.9-23.42 0-46.84 0-70.25 0-20.6 0-20.6-31.9 0-31.9" transform="matrix(.06 0 0 -.06 -522.3948 450.179)"/><path d="m9905.07 5292.1c26.69-20 53.78-38.9 86.83-46.3 20.1-4.6 28.6 26.2 8.5 30.8-30.36 6.8-54.74 24.7-79.21 43.1-16.5 12.3-32.39-15.4-16.12-27.6" transform="matrix(.06 0 0 -.06 -522.3042 449.8636)"/><path d="m10241 5220.2c25.2-5.8 51.3-6.9 76.6-12.7 20-4.7 28.5 26.1 8.5 30.8-25.3 5.8-51.4 6.9-76.7 12.7-20 4.7-28.5-26.1-8.4-30.8" transform="matrix(.06 0 0 -.06 -523.1806 449.725)"/><path d="m10372.9 5372.9c21.5.4 42.4 6.1 63.9 6.4 20.5.3 20.6 32.3 0 31.9-21.5-.3-42.4-5.9-63.9-6.3-20.5-.5-20.6-32.4 0-32" transform="matrix(.06 0 0 -.06 -523.511 450.153)"/><path d="m10558.1 5481.5c20.9 0 41.6.7 61.7 6.9 19.6 6.1 11.3 36.9-8.5 30.8-17.4-5.4-35-5.8-53.2-5.8-20.6 0-20.6-31.9 0-31.9" transform="matrix(.06 0 0 -.06 -523.9886 450.445)"/><path d="m10270.7 5609.2h63.9c20.6 0 20.6 31.9 0 31.9-21.3 0-42.6 0-63.9 0-20.5 0-20.5-31.9 0-31.9" transform="matrix(.06 0 0 -.06 -523.2414 450.779)"/><path d="m10933.2 5253.8c24.1-11 56.9-15.4 82.6-8 19.7 5.7 11.3 36.5-8.5 30.8-17-4.9-41.8-2.7-58 4.7-18.6 8.5-34.8-19-16.1-27.5" transform="matrix(.06 0 0 -.06 -525.0376 449.8118)"/><path d="m10613.9 5189.9c29.3-20.9 64.6-32.6 99.6-39.9 20.1-4.2 28.6 26.6 8.5 30.8-32.6 6.8-64.6 17.1-92 36.7-16.8 12-32.7-15.7-16.1-27.6" transform="matrix(.06 0 0 -.06 -524.2208 449.6018)"/><path d="m10730.5 5341c27.4.8 49.7 12.9 71.9 27.7 17.1 11.4 1.1 39-16.1 27.6-17.3-11.5-34.4-22.7-55.8-23.4-20.5-.6-20.6-32.5 0-31.9" transform="matrix(.06 0 0 -.06 -524.464 450.1)"/><path d="m10960.4 5487.9c32.1.4 63.8 5.9 95.8 6.4 20.6.3 20.6 32.2 0 31.9-32-.5-63.7-5.9-95.8-6.4-20.5-.3-20.6-32.2 0-31.9" transform="matrix(.06 0 0 -.06 -525.1192 450.463)"/><path d="m11335.5 5477.3c21.8-13.8 47.1-20.7 70.3-31.9 18.4-9 34.6 18.5 16.1 27.5-23.1 11.2-48.5 18.2-70.3 32-17.4 11-33.4-16.6-16.1-27.6" transform="matrix(.06 0 0 -.06 -526.1036 450.3818)"/><path d="m11262.7 5322.4c13.2-4.2 28.3-5.2 40.9-11.2 7.9-3.7 17.2-2.2 21.8 5.8 4.1 7 2.2 18.1-5.7 21.8-15.5 7.3-32.3 9.2-48.5 14.4-19.7 6.3-28-24.5-8.5-30.8" transform="matrix(.06 0 0 -.06 -525.863 449.9996)"/><path d="m11255.8 5126.1c12.9 5.8 29.4 4.2 43.1 4.2 20.6 0 20.6 31.9 0 31.9-20.2 0-40.4-.1-59.2-8.6-7.9-3.6-9.7-14.9-5.7-21.8 4.7-8.1 13.9-9.3 21.8-5.7" transform="matrix(.06 0 0 -.06 -525.819 449.4914)"/><path d="m11777.8 5334.6c25.7.4 49.8 7.1 74.5 13.3 20 5.1 11.5 35.9-8.5 30.8-21.9-5.5-43.2-11.8-66-12.2-20.5-.3-20.6-32.2 0-31.9" transform="matrix(.06 0 0 -.06 -527.263 450.0658)"/><path d="m8824.9 6246.7c7.64-21.7 19.54-41.4 25.54-63.8 5.33-19.9 36.13-11.4 30.79 8.5-6.01 22.4-17.9 42.1-25.55 63.8-6.78 19.3-37.64 11-30.78-8.5" transform="matrix(.06 0 0 -.06 -519.3728 452.3616)"/><path d="m9300.08 5749.7c34.55.5 67.81 7.3 100.03 19.7 19 7.3 10.75 38.2-8.49 30.8-29.65-11.4-59.7-18.1-91.54-18.6-20.57-.3-20.6-32.2 0-31.9" transform="matrix(.06 0 0 -.06 -520.6856 451.1812)"/><path d="m9228.35 5703.3c14.4 16.1 16.41 40.2 10.49 60.2-5.81 19.7-36.63 11.3-30.79-8.5 2.61-8.8 3.21-23-2.28-29.1-13.68-15.3 8.82-38 22.58-22.6" transform="matrix(.06 0 0 -.06 -520.3538 451.0764)"/><path d="m9305.45 5559.6c12.81-26.8 19.1-56.1 31.93-83 8.87-18.6 36.4-2.3 27.57 16.1-12.81 26.8-19.1 56.2-31.93 83.1-8.87 18.5-36.4 2.3-27.57-16.2" transform="matrix(.06 0 0 -.06 -520.652 450.5108)"/><path d="m9581.06 5443.2h76.63c20.59 0 20.59 31.9 0 31.9-25.54 0-51.09 0-76.63 0-20.59 0-20.59-31.9 0-31.9" transform="matrix(.06 0 0 -.06 -521.4128 450.339)"/><path d="m9593.83 5539c31.81.4 64.12 8 87.92 30.2 15.09 14.1-7.55 36.6-22.58 22.6-17.43-16.3-42.28-20.6-65.34-20.9-20.57-.3-20.6-32.2 0-31.9" transform="matrix(.06 0 0 -.06 -521.4536 450.6266)"/><path d="m9673.09 5652.9c5.74 22.9 11.14 46.2 23.93 66.4 11.05 17.4-16.59 33.4-27.57 16.1-14.24-22.5-20.76-48.5-27.16-74.1-5-19.9 25.8-28.4 30.8-8.4" transform="matrix(.06 0 0 -.06 -521.5496 450.9596)"/><path d="m9757.72 5558.7c23.4 7.4 50.28 11.6 74.54 6.4 20.06-4.4 28.6 26.4 8.48 30.8-29.86 6.4-62.54 2.7-91.5-6.4-19.57-6.2-11.21-37 8.48-30.8" transform="matrix(.06 0 0 -.06 -521.8796 450.65)"/><path d="m9786.43 5374.4c15.47 20.1 36.01 37 60.7 43.8 19.83 5.4 11.4 36.3-8.49 30.8-33.23-9.1-59.11-31.7-79.79-58.4-12.58-16.3 15.18-32.2 27.58-16.2" transform="matrix(.06 0 0 -.06 -521.9124 450.2026)"/><path d="m9791.8 5289.9c20.59 0 20.59 31.9 0 31.9s-20.59-31.9 0-31.9" transform="matrix(.06 0 0 -.06 -521.868 449.931)"/><path d="m9798.18 5289.9h38.32c20.59 0 20.59 31.9 0 31.9-12.77 0-25.55 0-38.32 0-20.59 0-20.59-31.9 0-31.9" transform="matrix(.06 0 0 -.06 -521.9404 449.931)"/><path d="m9887.59 5507c23.59-.3 48.26-4.3 68.57-17 17.53-10.9 33.54 16.8 16.12 27.6-24.98 15.6-55.66 20.9-84.69 21.4-20.61.3-20.58-31.7 0-32" transform="matrix(.06 0 0 -.06 -522.2282 450.475)"/><path d="m10028.1 5590h76.6c20.6 0 20.6 32 0 32-25.5 0-51.1 0-76.6 0-20.6 0-20.6-32 0-32" transform="matrix(.06 0 0 -.06 -522.604 450.73)"/><path d="m10117.5 5411.2c23.6-.3 46.6-6 70.2-6.3 20.6-.4 20.6 31.6 0 31.9-23.6.4-46.6 6-70.2 6.4-20.6.3-20.6-31.6 0-32" transform="matrix(.06 0 0 -.06 -522.836 450.243)"/><path d="m10094.1 5284.1c17-5.8 32.2-14 47.3-23.9 17.2-11.4 33.2 16.2 16.1 27.5-17.3 11.5-35.3 20.5-54.9 27.2-19.6 6.6-27.9-24.2-8.5-30.8" transform="matrix(.06 0 0 -.06 -522.7564 449.8796)"/><path d="m10379.3 5283.5c16.4 0 31.4 1.6 46.4 8.6 7.9 3.7 9.8 14.9 5.7 21.8-4.7 8.1-13.9 9.4-21.8 5.8-9.5-4.5-20.1-4.2-30.3-4.3-20.6 0-20.6-31.9 0-31.9" transform="matrix(.06 0 0 -.06 -523.4908 449.923)"/><path d="m10404.8 5500.6c-2.8.6-3.5.7-1.9.3l-2.6 1.1c1.3-.8.8-.4-1.7 1.4 1-.8 1.8-1.7 2.7-2.6 4.7-4.2 10-6.2 16.3-6.5 8.7-.4 16 7.5 16 15.9 0 9-7.3 15.6-16 16 2.9-.6 3.5-.6 2-.3l2.6-1.1c-1.4.9-.8.4 1.7-1.4-1 .8-1.8 1.8-2.7 2.6-4.7 4.2-10 6.3-16.4 6.6-8.7.4-15.9-7.6-15.9-16 0-9 7.3-15.6 15.9-16" transform="matrix(.06 0 0 -.06 -523.525 450.477)"/><path d="m10224.4 5324c18.6-9 38.3-14.5 59.1-14.9 20.6-.5 20.6 31.4 0 31.9-14.9.3-29.6 4.1-43 10.6-18.5 8.9-34.7-18.6-16.1-27.6" transform="matrix(.06 0 0 -.06 -523.1136 449.9932)"/><path d="m12269.5 5583.7h57.5c20.6 0 20.6 31.9 0 31.9-19.1 0-38.3 0-57.5 0-20.5 0-20.5-31.9 0-31.9" transform="matrix(.06 0 0 -.06 -528.5574 450.709)"/><path d="m12408.5 5262.7c12.8 12.7 25.6 25.5 38.4 38.3 14.5 14.5-8 37.1-22.6 22.5-12.8-12.7-25.6-25.5-38.3-38.3-14.6-14.5 8-37.1 22.5-22.5" transform="matrix(.06 0 0 -.06 -528.8758 449.896)"/><path d="m12068.4 5197.3c0 1 0 2 .1 3.1-.4-5-.1-1.1.3.2 1 4.1-1.3-2.2-.1 0 1.9 3.5-1.9-2-.2-.2 2 2.1-3.3-2.3-.9-.6 3.4 2.2-2.7-.8-.2.1 1.1.4 2.3.6 3.5.8-5.1-.9-.6-.2.7-.2 8.7.1 15.9 7.2 15.9 16 0 8.6-7.2 16.1-15.9 15.9-9.6-.1-18.6-2.7-25.7-9.4-6.9-6.6-9.3-16.5-9.4-25.7-.2-8.7 7.3-16 15.9-16 8.8 0 15.9 7.3 16 16" transform="matrix(.06 0 0 -.06 -527.93 449.661)"/><path d="m12865.6 5597c15.9-5.3 32.1-10.2 47.3-17.5 18.4-9 34.6 18.6 16.1 27.5-17.7 8.6-36.4 14.6-54.9 20.8-19.6 6.5-28-24.3-8.5-30.8" transform="matrix(.06 0 0 -.06 -530.151 450.7226)"/><path d="m13046.5 5737.5c18.8 5.8 38.6 6.9 57.5 12.8 19.6 6.1 11.2 36.9-8.5 30.8-18.8-5.9-38.7-7-57.5-12.8-19.6-6.1-11.2-36.9 8.5-30.8" transform="matrix(.06 0 0 -.06 -530.62 451.138)"/><path d="m9170.69 5522c19.21-12.8 37.71-26 54.24-42.2 14.7-14.5 37.29 8.1 22.58 22.6-18.42 18-39.29 32.9-60.71 47.2-17.18 11.4-33.15-16.3-16.11-27.6" transform="matrix(.06 0 0 -.06 -520.311 450.4832)"/><path d="m9032.88 5681c20.19 26.4 43.66 50.1 63.86 76.6 12.5 16.4-15.26 32.3-27.57 16.1-20.19-26.4-43.66-50.2-63.86-76.6-12.5-16.4 15.26-32.3 27.57-16.1" transform="matrix(.06 0 0 -.06 -519.8918 451.051)"/><path d="m9178.75 5928.5c21.65-.6 37.65-12.6 52.57-27.3 14.7-14.4 37.28 8.2 22.58 22.6-21.13 20.8-44.82 35.8-75.15 36.6-20.61.6-20.56-31.4 0-31.9" transform="matrix(.06 0 0 -.06 -520.3194 451.59)"/><path d="m9402.26 5590h57.47c20.59 0 20.59 32 0 32-19.16 0-38.32 0-57.47 0-20.6 0-20.6-32 0-32" transform="matrix(.06 0 0 -.06 -520.9094 450.73)"/><path d="m9462.35 5723.1c5.86 25.3 6.91 51.3 12.77 76.6 4.65 20.1-26.14 28.6-30.79 8.5-5.86-25.3-6.91-51.3-12.77-76.6-4.65-20 26.14-28.6 30.79-8.5" transform="matrix(.06 0 0 -.06 -520.9704 451.1496)"/><path d="m9747.09 5711.4c20.19 0 40.18.3 59.62-5.8 19.71-6.2 28.07 24.6 8.49 30.7-22.08 7-45.19 7-68.11 7-20.59 0-20.59-31.9 0-31.9" transform="matrix(.06 0 0 -.06 -521.84 451.0424)"/><path d="m9491.66 5366.5h76.63c20.59 0 20.59 32 0 32-25.55 0-51.09 0-76.63 0-20.6 0-20.6-32 0-32" transform="matrix(.06 0 0 -.06 -521.1782 450.13)"/></g></svg>