<svg height="29" viewBox="0 0 202 29" width="202" xmlns="http://www.w3.org/2000/svg"><path d="m3390 1491.96c0-34.99-18.48-63.35-53.48-63.35h-1833.29c-34.99 0-73.23 28.36-73.23 63.35v113.3c0 34.99 38.24 63.35 73.23 63.35h1833.29c35 0 53.48-28.36 53.48-63.35z" fill="#7b341e" transform="matrix(.1 0 0 -.1 -139.5 169.981)"/><path d="m3390 1491.96h-30c.05-12.32-3.42-21.61-7.22-26.28-1.92-2.42-3.8-3.91-6.15-5.07-2.37-1.12-5.39-1.98-10.11-2h-1833.29c-4.69-.02-10.2.99-15.62 3.05-8.17 3.02-15.94 8.48-20.78 14.27-2.44 2.89-4.19 5.79-5.27 8.47-1.09 2.69-1.55 5.11-1.56 7.56v113.3c.01 3.24.83 6.52 2.86 10.3 2.98 5.6 9.12 11.86 16.81 16.24 7.63 4.45 16.53 6.86 23.56 6.81h1833.29c4.72-.02 7.74-.89 10.11-2.01 3.44-1.72 6.21-4.26 8.89-9.42 2.59-5.09 4.5-12.74 4.48-21.92v-113.3h30 30v113.3c-.05 22.67-5.82 45.06-20.01 63.31-7.07 9.05-16.37 16.83-27.33 22.09-10.93 5.29-23.35 7.97-36.14 7.95h-1833.29c-12.81-.02-25.2-2.55-36.78-6.91-17.36-6.59-33.1-17.2-45.39-31.63-6.12-7.22-11.35-15.46-15.1-24.69-3.74-9.21-5.97-19.45-5.96-30.12v-113.3c-.01-14.26 3.95-27.64 10.18-39.02 9.42-17.14 23.51-30.23 39.52-39.5 16.06-9.21 34.31-14.78 53.53-14.83h1833.29c12.79-.02 25.21 2.66 36.14 7.95 16.52 7.89 28.93 21.41 36.44 36.48 7.59 15.13 10.88 31.86 10.9 48.92z" fill="#091019" transform="matrix(.1 0 0 -.1 -139.5 169.981)"/><path d="m1603.92 1536.88c-9.98 0-18.08 8.08-18.08 18.06 0 9.99 8.1 18.08 18.08 18.08s18.08-8.09 18.08-18.08c0-9.98-8.1-18.06-18.08-18.06" fill="#370f12" transform="matrix(.1 0 0 -.1 -139.492 169.985)"/><path d="m2015.69 1497.28c-9.98 0-18.07 8.08-18.07 18.07 0 9.98 8.09 18.08 18.07 18.08s18.07-8.1 18.07-18.08c0-9.99-8.09-18.07-18.07-18.07" fill="#370f12" transform="matrix(.1 0 0 -.1 -139.499 169.986)"/><g fill="#ae6f45"><path d="m2189.91 1513.12c-9.98 0-18.08 8.08-18.08 18.07 0 9.98 8.1 18.07 18.08 18.07 9.97 0 18.07-8.09 18.07-18.07 0-9.99-8.1-18.07-18.07-18.07" transform="matrix(.1 0 0 -.1 -139.49 169.989)"/><path d="m2934.28 1528.95c-9.98 0-18.09 8.09-18.09 18.07 0 10 8.11 18.09 18.09 18.09 9.96 0 18.06-8.09 18.06-18.09 0-9.98-8.1-18.07-18.06-18.07" transform="matrix(.1 0 0 -.1 -139.497 169.983)"/><path d="m1786.05 1505.21c-9.98 0-18.07 8.07-18.07 18.05 0 9.99 8.09 18.08 18.07 18.08s18.07-8.09 18.07-18.08c0-9.98-8.09-18.05-18.07-18.05" transform="matrix(.1 0 0 -.1 -139.495 169.988)"/></g><path d="m2427.46 1552.71c-9.97 0-18.07 8.09-18.07 18.07s8.1 18.08 18.07 18.08c9.98 0 18.09-8.1 18.09-18.08s-8.11-18.07-18.09-18.07" fill="#370f12" transform="matrix(.1 0 0 -.1 -139.497 169.988)"/><path d="m2752.13 1497.28c-9.98 0-18.07 8.08-18.07 18.07 0 9.98 8.09 18.08 18.07 18.08s18.06-8.1 18.06-18.08c0-9.99-8.08-18.07-18.06-18.07" fill="#370f12" transform="matrix(.1 0 0 -.1 -139.493 169.986)"/><path d="m3354.76 1468.61h-366.74c21.91 46.25 41.09 93.26 57.56 141 6.63 1.79 12.68 3.7 18.29 5.58 13.99 4.7 24.92 8.87 38.04 11.93 13.13 3.05 29.01 5.29 52.95 5.31 20.5 0 35.13-1.67 47.12-4.05 9.02-1.8 16.64-4.02 24.51-6.6 11.74-3.82 24.36-8.76 40.71-12.95 16.34-4.2 35.93-7.31 61.08-7.93.26 0 .52-.01.78-.01 7.84 0 15.29 3.03 20.92 8.52 3.6 3.5 6.21 7.77 7.68 12.44 1.43-4.56 2.35-10.2 2.34-16.59v-113.3c.04-10.13-2.3-18.2-5.24-23.35m-48.31 72.73c-9.99 0-18.07-8.09-18.07-18.08 0-9.98 8.08-18.05 18.07-18.05 9.96 0 18.06 8.07 18.06 18.05 0 9.99-8.1 18.08-18.06 18.08m-144.79 13.6c0-9.98 8.11-18.06 18.09-18.06s18.06 8.08 18.06 18.06c0 9.99-8.08 18.08-18.06 18.08s-18.09-8.09-18.09-18.08z" fill="#591e16" transform="matrix(.1 0 0 -.1 -139.491 169.982)"/><path d="m3370 1439.08v29.53h-15.24c2.94 5.15 5.28 13.22 5.24 23.35v113.3c.01 6.39-.91 12.03-2.34 16.59.91 2.89 1.38 5.93 1.38 9.04v43.79c27.41-6.97 47.68-31.82 47.68-61.4v-118.77c0-14.26-4.71-27.41-12.66-38-.86 1.17-1.81 2.28-2.85 3.31-5.58 5.59-13.31 8.79-21.21 8.79z" fill="#070b0e" transform="matrix(.1 0 0 -.1 -139.494 169.988)"/><path d="m2969.7 1431.16h-.09c6.34 12.43 12.47 24.91 18.41 37.45h366.74 15.24v-29.53h-396.29c-1.33-2.65-2.66-5.29-4.01-7.92m404.37 7.92h-4.07v29.53c7.9 0 15.63-3.2 21.21-8.79 1.04-1.03 1.99-2.14 2.85-3.31-5.34-7.12-12.16-13.09-19.99-17.43" fill="#070b0e" transform="matrix(.1 0 0 -.1 -139.494 169.989)"/><path d="m3306.45 1505.21c-9.99 0-18.07 8.07-18.07 18.05 0 9.99 8.08 18.08 18.07 18.08 9.96 0 18.06-8.09 18.06-18.08 0-9.98-8.1-18.05-18.06-18.05" fill="#804229" transform="matrix(.1 0 0 -.1 -139.494 169.988)"/><path d="m3343.38 1431.16h-373.68c1.35 2.63 2.68 5.27 4.01 7.92h396.29v-.47.47h4.07c-9.1-5.05-19.56-7.92-30.69-7.92" fill="#07090a" transform="matrix(.1 0 0 -.1 -139.499 169.982)"/><path d="m3179.75 1536.88c-9.98 0-18.09 8.08-18.09 18.06 0 9.99 8.11 18.08 18.09 18.08s18.06-8.09 18.06-18.08c0-9.98-8.08-18.06-18.06-18.06" fill="#1b0b0c" transform="matrix(.1 0 0 -.1 -139.493 169.985)"/><path d="m2957.98 1408.61h-.12c1.19 2.23 2.37 4.47 3.55 6.71h.11c-1.18-2.24-2.36-4.48-3.54-6.71" fill="#091019" transform="matrix(.1 0 0 -.1 -139.499 169.986)"/><path d="m2939.53 1374.92v.3c6.27 11.09 12.38 22.22 18.33 33.39h.12c-5.99-11.28-12.13-22.51-18.45-33.69" fill="#e67b48" transform="matrix(.1 0 0 -.1 -139.496 169.987)"/><path d="m3058.3 1408.61h-100.32c1.18 2.23 2.36 4.47 3.54 6.71h96.78z" fill="#070c0f" transform="matrix(.1 0 0 -.1 -139.494 169.986)"/></svg>