<?xml version="1.0" encoding="UTF-8" standalone="no" ?>
<!DOCTYPE svg PUBLIC "-//W3C//DTD SVG 1.1//EN" "http://www.w3.org/Graphics/SVG/1.1/DTD/svg11.dtd">
<svg xmlns="http://www.w3.org/2000/svg" xmlns:xlink="http://www.w3.org/1999/xlink" version="1.1" width="235" height="130" viewBox="0 0 235 130" xml:space="preserve">
<desc>Created with Fabric.js 3.6.3</desc>
<defs>
</defs>
<g transform="matrix(1 0 0 1 74 130)"  >
<g style=""   >
		<g transform="matrix(0.06 0 0 -0.06 67.06 -106.76)" id="pWo4cV_3xoY_TKY3_0B1g"  >
<path style="stroke: none; stroke-width: 1; stroke-dasharray: none; stroke-linecap: butt; stroke-dashoffset: 0; stroke-linejoin: miter; stroke-miterlimit: 4; fill: rgb(153,69,117); fill-rule: nonzero; opacity: 1;" vector-effect="non-scaling-stroke"  transform=" translate(-23823.35, -8293.35)" d="M 24865.9 8357.6 L 24303.800000000003 8565.800000000001 L 23505.000000000004 8598.400000000001 L 22927.100000000002 8474.000000000002 L 22606.800000000003 8197.600000000002 L 22677.100000000002 7988.300000000002 C 22677.100000000002 7988.300000000002 22662.9 8095.200000000002 22783.2 8201.100000000002 C 22903.600000000002 8307.000000000002 23053.5 8445.800000000003 23483.5 8449.600000000002 C 23986.1 8454.100000000002 24371.2 8425.600000000002 24585.2 8347.200000000003 C 24769.7 8279.600000000002 24979.7 8120.700000000003 24982.3 8097.500000000003 C 24985 8074.300000000003 25039.899999999998 8150.700000000003 25039.899999999998 8150.700000000003 L 24865.899999999998 8357.600000000002" stroke-linecap="round" />
</g>
		<g transform="matrix(0.06 0 0 -0.06 67.94 -74.31)" id="QE9CWVGYUBJoTBvO-OhrK"  >
<path style="stroke: none; stroke-width: 1; stroke-dasharray: none; stroke-linecap: butt; stroke-dashoffset: 0; stroke-linejoin: miter; stroke-miterlimit: 4; fill: rgb(153,69,117); fill-rule: nonzero; opacity: 1;" vector-effect="non-scaling-stroke"  transform=" translate(-23838.61, -7727.25)" d="M 25114 8165.5 L 24951.1 7812.3 L 24375.8 7522.6 L 23578.6 7523 L 22955.699999999997 7696.6 L 22689.299999999996 7863.3 L 22540.699999999997 8113.2 L 22492.699999999997 7912.3 C 22492.699999999997 7912.3 22471.1 7809.3 22683.899999999998 7625.6 C 22863.499999999996 7470.6 23597.399999999998 7242.900000000001 24133.6 7297.200000000001 C 25285.3 7413.700000000001 25182.8 7942.6 25182.8 7942.6 L 25114 8165.5" stroke-linecap="round" />
</g>
		<g transform="matrix(0.06 0 0 -0.06 67.97 -92.56)" id="qrLzCQ3ijkcQ-FH2upetV"  >
<path style="stroke: none; stroke-width: 1; stroke-dasharray: none; stroke-linecap: butt; stroke-dashoffset: 0; stroke-linejoin: miter; stroke-miterlimit: 4; fill: rgb(236,206,237); fill-rule: nonzero; opacity: 1;" vector-effect="non-scaling-stroke"  transform=" translate(-23839.19, -8045.67)" d="M 24957.2 7962.8 C 24835.7 7706.400000000001 24359.9 7519.8 23673.5 7585.900000000001 C 23157.6 7635.500000000001 22674.6 7765.000000000001 22657.3 8091.200000000001 C 22638 8454.900000000001 23257.8 8555.6 23625.7 8566.900000000001 C 24690.2 8599.500000000002 25101.5 8267.000000000002 24957.2 7962.800000000001 z M 23592.3 8639.3 C 23197.3 8627.099999999999 22521.6 8471.4 22542.3 8080.9 C 22560.8 7730.7 23109.399999999998 7543 23660.6 7468.2 C 24359.399999999998 7373.2 24979.699999999997 7666.2 25110.199999999997 7941.4 C 25264.999999999996 8268 24734.999999999996 8674.3 23592.299999999996 8639.3" stroke-linecap="round" />
</g>
		<g transform="matrix(0.06 0 0 -0.06 11.32 -67.95)" id="-WzUVMegg0ewse-uvQkm7"  >
<path style="stroke: none; stroke-width: 1; stroke-dasharray: none; stroke-linecap: butt; stroke-dashoffset: 0; stroke-linejoin: miter; stroke-miterlimit: 4; fill: rgb(193,89,154); fill-rule: nonzero; opacity: 1;" vector-effect="non-scaling-stroke"  transform=" translate(-22851.15, -7616.45)" d="M 22847 7668.8 C 22851 7631.5 22825.9 7598.6 22830 7560.8 C 22831.6 7546.1 22856.9 7549.5 22855.3 7564.1 C 22851.3 7601.400000000001 22876.399999999998 7634.400000000001 22872.3 7672.1 C 22870.8 7686.8 22845.399999999998 7683.400000000001 22847 7668.8" stroke-linecap="round" />
</g>
		<g transform="matrix(0.06 0 0 -0.06 21.36 -63.44)" id="A_xAHEbSvMR5ZjZ3Jgcbc"  >
<path style="stroke: none; stroke-width: 1; stroke-dasharray: none; stroke-linecap: butt; stroke-dashoffset: 0; stroke-linejoin: miter; stroke-miterlimit: 4; fill: rgb(193,89,154); fill-rule: nonzero; opacity: 1;" vector-effect="non-scaling-stroke"  transform=" translate(-23026.26, -7537.72)" d="M 23030 7590.7 C 23020.7 7558 23008.7 7525.9 22998.6 7493.4 C 22994.3 7479.4 23018.3 7470.599999999999 23022.6 7484.7 C 23032.699999999997 7517.2 23044.699999999997 7549.2 23054 7582 C 23057.9 7596 23034 7604.9 23030 7590.7" stroke-linecap="round" />
</g>
		<g transform="matrix(0.06 0 0 -0.06 30.07 -60.24)" id="VP_hYoXxwlnisOlskrNne"  >
<path style="stroke: none; stroke-width: 1; stroke-dasharray: none; stroke-linecap: butt; stroke-dashoffset: 0; stroke-linejoin: miter; stroke-miterlimit: 4; fill: rgb(193,89,154); fill-rule: nonzero; opacity: 1;" vector-effect="non-scaling-stroke"  transform=" translate(-23178.13, -7481.96)" d="M 23174.1 7539.8 C 23170.399999999998 7502.900000000001 23170.399999999998 7465.5 23157.3 7430.2 C 23152.2 7416.3 23176.2 7407.599999999999 23181.3 7421.5 C 23195.2 7458.8 23195.7 7498 23199.6 7537 C 23201.1 7551.6 23175.5 7554.4 23174.1 7539.8" stroke-linecap="round" />
</g>
		<g transform="matrix(0.06 0 0 -0.06 49.4 -56.29)" id="CBEB1efUg2SZ_fcV2sn_T"  >
<path style="stroke: none; stroke-width: 1; stroke-dasharray: none; stroke-linecap: butt; stroke-dashoffset: 0; stroke-linejoin: miter; stroke-miterlimit: 4; fill: rgb(193,89,154); fill-rule: nonzero; opacity: 1;" vector-effect="non-scaling-stroke"  transform=" translate(-23515.33, -7413.13)" d="M 23502.6 7467.2 C 23503.699999999997 7432 23504.899999999998 7396.9 23501.399999999998 7361.9 C 23499.899999999998 7347.299999999999 23525.499999999996 7344.5 23526.999999999996 7359.099999999999 C 23530.499999999996 7394.099999999999 23529.299999999996 7429.2 23528.199999999997 7464.4 C 23527.699999999997 7478.9 23502.1 7481.799999999999 23502.6 7467.2" stroke-linecap="round" />
</g>
		<g transform="matrix(0.06 0 0 -0.06 71.87 -54.49)" id="J3gYQ_DtGcvCEYHfbsbWx"  >
<path style="stroke: none; stroke-width: 1; stroke-dasharray: none; stroke-linecap: butt; stroke-dashoffset: 0; stroke-linejoin: miter; stroke-miterlimit: 4; fill: rgb(193,89,154); fill-rule: nonzero; opacity: 1;" vector-effect="non-scaling-stroke"  transform=" translate(-23907.23, -7381.59)" d="M 23887.3 7419.2 C 23902 7394.7 23895.399999999998 7364 23903 7337.8 C 23907.1 7323.6 23932.5 7326.7 23928.3 7341.1 C 23920 7369.5 23926.7 7401.5 23910.7 7428.200000000001 C 23902.9 7441.200000000001 23879.4 7432.400000000001 23887.3 7419.200000000001" stroke-linecap="round" />
</g>
		<g transform="matrix(0.06 0 0 -0.06 89.85 -55.4)" id="IrMawspNGlYtiw9LfCvMm"  >
<path style="stroke: none; stroke-width: 1; stroke-dasharray: none; stroke-linecap: butt; stroke-dashoffset: 0; stroke-linejoin: miter; stroke-miterlimit: 4; fill: rgb(193,89,154); fill-rule: nonzero; opacity: 1;" vector-effect="non-scaling-stroke"  transform=" translate(-24220.69, -7397.52)" d="M 24208.8 7440.1 C 24205.8 7411.900000000001 24202.1 7382.5 24210.3 7354.5 C 24214.399999999998 7340.3 24239.8 7343.4 24235.6 7357.8 C 24227.899999999998 7384 24231.5 7411 24234.399999999998 7437.3 C 24235.999999999996 7451.900000000001 24210.399999999998 7454.7 24208.8 7440.1" stroke-linecap="round" />
</g>
		<g transform="matrix(0.06 0 0 -0.06 104.45 -57.88)" id="kPoB8NEcKx0cikhaTOeRb"  >
<path style="stroke: none; stroke-width: 1; stroke-dasharray: none; stroke-linecap: butt; stroke-dashoffset: 0; stroke-linejoin: miter; stroke-miterlimit: 4; fill: rgb(193,89,154); fill-rule: nonzero; opacity: 1;" vector-effect="non-scaling-stroke"  transform=" translate(-24475.47, -7440.68)" d="M 24461.9 7478 C 24465.600000000002 7452.2 24461.300000000003 7426 24463.7 7400 C 24465.100000000002 7385.3 24490.4 7388.7 24489.100000000002 7403.3 C 24486.600000000002 7429.3 24490.9 7455.400000000001 24487.300000000003 7481.400000000001 C 24485.200000000004 7496.000000000001 24459.9 7492.700000000001 24461.9 7478.000000000001" stroke-linecap="round" />
</g>
		<g transform="matrix(0.06 0 0 -0.06 123.38 -65.39)" id="mJmMYu-Op3QrD6i7VVgM7"  >
<path style="stroke: none; stroke-width: 1; stroke-dasharray: none; stroke-linecap: butt; stroke-dashoffset: 0; stroke-linejoin: miter; stroke-miterlimit: 4; fill: rgb(193,89,154); fill-rule: nonzero; opacity: 1;" vector-effect="non-scaling-stroke"  transform=" translate(-24805.65, -7571.7)" d="M 24798.3 7622.9 C 24794.7 7589.7 24791 7556.5 24787.399999999998 7523.299999999999 C 24785.8 7508.699999999999 24811.399999999998 7505.9 24812.999999999996 7520.499999999999 C 24816.599999999995 7553.699999999999 24820.199999999997 7586.899999999999 24823.899999999998 7620.099999999999 C 24825.499999999996 7634.7 24799.899999999998 7637.499999999999 24798.3 7622.9" stroke-linecap="round" />
</g>
		<g transform="matrix(0.06 0 0 -0.06 -6.51 -82.66)" id="FcKyqFW0_Ey80DR7rlLCz"  >
<path style="stroke: none; stroke-width: 1; stroke-dasharray: none; stroke-linecap: butt; stroke-dashoffset: 0; stroke-linejoin: miter; stroke-miterlimit: 4; fill: rgb(193,89,154); fill-rule: nonzero; opacity: 1;" vector-effect="non-scaling-stroke"  transform=" translate(-22540.06, -7872.89)" d="M 22538.2 7925.6 C 22534 7890.700000000001 22525.3 7856.700000000001 22516.600000000002 7822.6 C 22512.9 7808.400000000001 22538.500000000004 7805.8 22542.100000000002 7819.8 C 22550.9 7853.900000000001 22559.600000000002 7887.900000000001 22563.800000000003 7922.8 C 22565.500000000004 7937.400000000001 22540.000000000004 7940.2 22538.200000000004 7925.6" stroke-linecap="round" />
</g>
		<g transform="matrix(0.06 0 0 -0.06 -0.34 -75.13)" id="1"  >
<path style="stroke: none; stroke-width: 1; stroke-dasharray: none; stroke-linecap: butt; stroke-dashoffset: 0; stroke-linejoin: miter; stroke-miterlimit: 4; fill: rgb(193,89,154); fill-rule: nonzero; opacity: 1;" vector-effect="non-scaling-stroke"  transform=" translate(-22647.66, -7741.67)" d="M 22641.5 7781.5 C 22638.8 7756.8 22636.4 7731.8 22628.7 7708 C 22624.2 7694.1 22648.2 7685.3 22652.7 7699.3 C 22661.100000000002 7725.1 22664.100000000002 7751.900000000001 22667.100000000002 7778.7 C 22668.7 7793.2 22643.100000000002 7796.099999999999 22641.500000000004 7781.5" stroke-linecap="round" />
</g>
		<g transform="matrix(0.06 0 0 -0.06 6.09 -70.79)" id="H6dQOFH_grQ4pqWmEegHP"  >
<path style="stroke: none; stroke-width: 1; stroke-dasharray: none; stroke-linecap: butt; stroke-dashoffset: 0; stroke-linejoin: miter; stroke-miterlimit: 4; fill: rgb(193,89,154); fill-rule: nonzero; opacity: 1;" vector-effect="non-scaling-stroke"  transform=" translate(-22759.95, -7665.84)" d="M 22748.7 7704.4 C 22757.5 7679.9 22746.2 7648.299999999999 22743.2 7623.7 C 22741.5 7609.099999999999 22767.100000000002 7606.3 22768.8 7620.9 C 22772.399999999998 7650.799999999999 22782.8 7683.599999999999 22772 7713.4 C 22766.9 7727.5 22743.6 7718.299999999999 22748.7 7704.4" stroke-linecap="round" />
</g>
		<g transform="matrix(0.06 0 0 -0.06 17.21 -64.95)" id="xAr1fP3lxlVt0cwAXqOGj"  >
<path style="stroke: none; stroke-width: 1; stroke-dasharray: none; stroke-linecap: butt; stroke-dashoffset: 0; stroke-linejoin: miter; stroke-miterlimit: 4; fill: rgb(193,89,154); fill-rule: nonzero; opacity: 1;" vector-effect="non-scaling-stroke"  transform=" translate(-22953.9, -7564.19)" d="M 22949.1 7608.8 C 22941.199999999997 7581.2 22937.399999999998 7553.2 22934.3 7524.900000000001 C 22932.7 7510.3 22958.3 7507.500000000001 22959.899999999998 7522.1 C 22962.8 7548.3 22965.8 7574.5 22973.1 7600 C 22977.199999999997 7614 22953.199999999997 7622.9 22949.1 7608.8" stroke-linecap="round" />
</g>
		<g transform="matrix(0.06 0 0 -0.06 26.36 -61.7)" id="PEjHzGrBA9RNKLf5Ir8Ek"  >
<path style="stroke: none; stroke-width: 1; stroke-dasharray: none; stroke-linecap: butt; stroke-dashoffset: 0; stroke-linejoin: miter; stroke-miterlimit: 4; fill: rgb(193,89,154); fill-rule: nonzero; opacity: 1;" vector-effect="non-scaling-stroke"  transform=" translate(-23113.46, -7507.46)" d="M 23098 7549.7 C 23104.6 7520.7 23102 7491.3 23103.9 7462 C 23104.800000000003 7447.3 23130.100000000002 7450.8 23129.2 7465.3 C 23127.3 7494.6 23130 7523.900000000001 23123.3 7553 C 23120 7567.5 23094.6 7564.2 23098 7549.7" stroke-linecap="round" />
</g>
		<g transform="matrix(0.06 0 0 -0.06 34.3 -59.01)" id="p3dvthSNEDFaOKzgBWRVS"  >
<path style="stroke: none; stroke-width: 1; stroke-dasharray: none; stroke-linecap: butt; stroke-dashoffset: 0; stroke-linejoin: miter; stroke-miterlimit: 4; fill: rgb(193,89,154); fill-rule: nonzero; opacity: 1;" vector-effect="non-scaling-stroke"  transform=" translate(-23251.91, -7460.42)" d="M 23238.7 7511.4 C 23244.600000000002 7477.299999999999 23237 7443.299999999999 23237.4 7409.2 C 23237.600000000002 7394.599999999999 23263.2 7391.7 23263 7406.4 C 23262.5 7442.599999999999 23270.2 7478.5 23264 7514.7 C 23261.5 7529.3 23236.2 7526 23238.7 7511.4" stroke-linecap="round" />
</g>
		<g transform="matrix(0.06 0 0 -0.06 39.33 -57.65)" id="Nw0Dk_DE_XAJlKQj3crez"  >
<path style="stroke: none; stroke-width: 1; stroke-dasharray: none; stroke-linecap: butt; stroke-dashoffset: 0; stroke-linejoin: miter; stroke-miterlimit: 4; fill: rgb(193,89,154); fill-rule: nonzero; opacity: 1;" vector-effect="non-scaling-stroke"  transform=" translate(-23339.63, -7436.73)" d="M 23329.2 7490.8 C 23325.2 7454.7 23321.5 7418.6 23328.100000000002 7382.5 C 23330.800000000003 7367.9 23356.100000000002 7371.2 23353.4 7385.8 C 23347.2 7419.900000000001 23351 7454 23354.7 7487.900000000001 C 23356.3 7502.500000000001 23330.8 7505.400000000001 23329.2 7490.8" stroke-linecap="round" />
</g>
		<g transform="matrix(0.06 0 0 -0.06 42.26 -56.81)" id="b4ERlJ_U1L5jXpAS5BlZR"  >
<path style="stroke: none; stroke-width: 1; stroke-dasharray: none; stroke-linecap: butt; stroke-dashoffset: 0; stroke-linejoin: miter; stroke-miterlimit: 4; fill: rgb(193,89,154); fill-rule: nonzero; opacity: 1;" vector-effect="non-scaling-stroke"  transform=" translate(-23390.69, -7422.07)" d="M 23378.8 7471.6 C 23375.6 7438.6 23377.1 7405.5 23378.8 7372.3 C 23379.5 7357.7 23404.8 7361.1 23404.1 7375.6 C 23402.5 7406.8 23401.399999999998 7437.8 23404.399999999998 7468.8 C 23405.8 7483.400000000001 23380.3 7486.2 23378.8 7471.6" stroke-linecap="round" />
</g>
		<g transform="matrix(0.06 0 0 -0.06 93.85 -116.82)" id="BqCsNxu21wKQ2KE9UZFda"  >
<path style="stroke: none; stroke-width: 1; stroke-dasharray: none; stroke-linecap: butt; stroke-dashoffset: 0; stroke-linejoin: miter; stroke-miterlimit: 4; fill: rgb(193,89,154); fill-rule: nonzero; opacity: 1;" vector-effect="non-scaling-stroke"  transform=" translate(-24290.55, -8468.8)" d="M 24278.9 8504.4 C 24276.800000000003 8481.699999999999 24278.7 8458.699999999999 24276.600000000002 8436 C 24275.2 8421.4 24300.800000000003 8418.5 24302.2 8433.2 C 24304.3 8455.900000000001 24302.4 8478.900000000001 24304.5 8501.6 C 24305.9 8516.2 24280.3 8519.1 24278.9 8504.4" stroke-linecap="round" />
</g>
		<g transform="matrix(0.06 0 0 -0.06 97.06 -116.22)" id="TwW7Fcq_QMhGgrVvToS66"  >
<path style="stroke: none; stroke-width: 1; stroke-dasharray: none; stroke-linecap: butt; stroke-dashoffset: 0; stroke-linejoin: miter; stroke-miterlimit: 4; fill: rgb(193,89,154); fill-rule: nonzero; opacity: 1;" vector-effect="non-scaling-stroke"  transform=" translate(-24346.56, -8458.37)" d="M 24329.7 8479.3 C 24335.600000000002 8464 24334.8 8446.5 24338.600000000002 8430.699999999999 C 24342.100000000002 8416.3 24367.4 8419.499999999998 24363.9 8433.999999999998 C 24359.600000000002 8451.999999999998 24359.800000000003 8470.799999999997 24353 8488.299999999997 C 24347.6 8502.399999999998 24324.3 8493.299999999997 24329.7 8479.299999999997" stroke-linecap="round" />
</g>
		<g transform="matrix(0.06 0 0 -0.06 100.36 -115.32)" id="RRPqv-bFkk8hmBitxYD2i"  >
<path style="stroke: none; stroke-width: 1; stroke-dasharray: none; stroke-linecap: butt; stroke-dashoffset: 0; stroke-linejoin: miter; stroke-miterlimit: 4; fill: rgb(193,89,154); fill-rule: nonzero; opacity: 1;" vector-effect="non-scaling-stroke"  transform=" translate(-24404.15, -8442.6)" d="M 24393.6 8464.4 C 24392.1 8450.8 24390.6 8437.199999999999 24389.1 8423.6 C 24387.5 8409 24413.1 8406.2 24414.699999999997 8420.800000000001 C 24416.199999999997 8434.400000000001 24417.699999999997 8448.000000000002 24419.199999999997 8461.6 C 24420.799999999996 8476.2 24395.199999999997 8479 24393.6 8464.4" stroke-linecap="round" />
</g>
		<g transform="matrix(0.06 0 0 -0.06 108.57 -113.37)" id="2"  >
<path style="stroke: none; stroke-width: 1; stroke-dasharray: none; stroke-linecap: butt; stroke-dashoffset: 0; stroke-linejoin: miter; stroke-miterlimit: 4; fill: rgb(193,89,154); fill-rule: nonzero; opacity: 1;" vector-effect="non-scaling-stroke"  transform=" translate(-24547.27, -8408.56)" d="M 24534.8 8430.6 C 24533.2 8415.800000000001 24532.2 8401 24535.6 8386.2 C 24539 8371.800000000001 24564.3 8375 24560.899999999998 8389.5 C 24557.899999999998 8402.4 24558.999999999996 8414.9 24560.399999999998 8427.8 C 24561.999999999996 8442.4 24536.399999999998 8445.199999999999 24534.8 8430.599999999999" stroke-linecap="round" />
</g>
		<g transform="matrix(0.06 0 0 -0.06 114.2 -111.46)" id="FJeEGs83Zsn0T_aOPx47r"  >
<path style="stroke: none; stroke-width: 1; stroke-dasharray: none; stroke-linecap: butt; stroke-dashoffset: 0; stroke-linejoin: miter; stroke-miterlimit: 4; fill: rgb(193,89,154); fill-rule: nonzero; opacity: 1;" vector-effect="non-scaling-stroke"  transform=" translate(-24645.45, -8375.2)" d="M 24626 8396.5 C 24632.5 8380.6 24635.9 8363.6 24640 8347.3 C 24643.7 8332.9 24669.1 8336.099999999999 24665.4 8350.599999999999 C 24660.7 8368.899999999998 24656.600000000002 8387.699999999999 24649.4 8405.499999999998 C 24643.7 8419.399999999998 24620.4 8410.299999999997 24626 8396.499999999998" stroke-linecap="round" />
</g>
		<g transform="matrix(0.06 0 0 -0.06 118.84 -109.49)" id="KOrEpZxbbThrNrzYrMvMo"  >
<path style="stroke: none; stroke-width: 1; stroke-dasharray: none; stroke-linecap: butt; stroke-dashoffset: 0; stroke-linejoin: miter; stroke-miterlimit: 4; fill: rgb(193,89,154); fill-rule: nonzero; opacity: 1;" vector-effect="non-scaling-stroke"  transform=" translate(-24726.42, -8340.84)" d="M 24713.5 8360.6 C 24712.1 8347.2 24711.6 8334.1 24714.8 8320.800000000001 C 24718.3 8306.300000000001 24743.6 8309.6 24740.1 8324.1 C 24737.3 8335.6 24737.8 8346.2 24739.1 8357.800000000001 C 24740.699999999997 8372.400000000001 24715.1 8375.2 24713.5 8360.6" stroke-linecap="round" />
</g>
		<g transform="matrix(0.06 0 0 -0.06 125.08 -105.42)" id="GijN4KJFniUmdkLJ6bI78"  >
<path style="stroke: none; stroke-width: 1; stroke-dasharray: none; stroke-linecap: butt; stroke-dashoffset: 0; stroke-linejoin: miter; stroke-miterlimit: 4; fill: rgb(193,89,154); fill-rule: nonzero; opacity: 1;" vector-effect="non-scaling-stroke"  transform=" translate(-24835.16, -8269.91)" d="M 24822.5 8281 C 24826.1 8276.4 24824.7 8262.4 24821.5 8255.6 C 24815.3 8242.1 24839.3 8233.4 24845.5 8246.9 C 24852.1 8261.199999999999 24852.9 8281.6 24842.3 8295 C 24832.7 8307.2 24812.899999999998 8293.1 24822.5 8281" stroke-linecap="round" />
</g>
		<g transform="matrix(0.06 0 0 -0.06 87.61 -118.16)" id="E2Vg2Q2yoiwuz11UAXYTF"  >
<path style="stroke: none; stroke-width: 1; stroke-dasharray: none; stroke-linecap: butt; stroke-dashoffset: 0; stroke-linejoin: miter; stroke-miterlimit: 4; fill: rgb(193,89,154); fill-rule: nonzero; opacity: 1;" vector-effect="non-scaling-stroke"  transform=" translate(-24181.8, -8492.2)" d="M 24172.5 8525.3 C 24170.2 8504.099999999999 24167.9 8483 24165.5 8461.9 C 24163.9 8447.3 24189.5 8444.5 24191.1 8459.1 C 24193.399999999998 8480.2 24195.8 8501.300000000001 24198.1 8522.5 C 24199.699999999997 8537.1 24174.1 8539.9 24172.5 8525.3" stroke-linecap="round" />
</g>
		<g transform="matrix(0.06 0 0 -0.06 81.85 -118.43)" id="KKogeVtSvfmXY9SdOmAhz"  >
<path style="stroke: none; stroke-width: 1; stroke-dasharray: none; stroke-linecap: butt; stroke-dashoffset: 0; stroke-linejoin: miter; stroke-miterlimit: 4; fill: rgb(193,89,154); fill-rule: nonzero; opacity: 1;" vector-effect="non-scaling-stroke"  transform=" translate(-24081.3, -8496.78)" d="M 24074 8512.4 C 24072.4 8513.6 24073.3 8512.199999999999 24073.3 8510.8 C 24073.2 8507.099999999999 24072.3 8503.4 24071.5 8499.8 C 24069.8 8491.699999999999 24066.7 8483.9 24064 8476.099999999999 C 24059.2 8462.199999999999 24083.2 8453.399999999998 24088 8467.3 C 24094 8484.9 24109.4 8515.599999999999 24089 8530.599999999999 C 24076 8540.099999999999 24061.1 8521.899999999998 24074 8512.399999999998" stroke-linecap="round" />
</g>
		<g transform="matrix(0.06 0 0 -0.06 78.15 -118.67)" id="sTV168X0ZD2YjPTxLxeUE"  >
<path style="stroke: none; stroke-width: 1; stroke-dasharray: none; stroke-linecap: butt; stroke-dashoffset: 0; stroke-linejoin: miter; stroke-miterlimit: 4; fill: rgb(193,89,154); fill-rule: nonzero; opacity: 1;" vector-effect="non-scaling-stroke"  transform=" translate(-24016.67, -8501.14)" d="M 24008.6 8537.1 C 24000.1 8514.7 23998.699999999997 8491.4 24001 8467.7 C 24002.4 8453 24027.7 8456.400000000001 24026.3 8471 C 24024.399999999998 8490.5 24025.6 8510 24032.6 8528.4 C 24037.8 8542.199999999999 24013.8 8550.9 24008.6 8537.1" stroke-linecap="round" />
</g>
		<g transform="matrix(0.06 0 0 -0.06 73.16 -118.96)" id="KfJaFWJRe8yxc5ozfOz1c"  >
<path style="stroke: none; stroke-width: 1; stroke-dasharray: none; stroke-linecap: butt; stroke-dashoffset: 0; stroke-linejoin: miter; stroke-miterlimit: 4; fill: rgb(193,89,154); fill-rule: nonzero; opacity: 1;" vector-effect="non-scaling-stroke"  transform=" translate(-23929.73, -8506.13)" d="M 23913.8 8526.1 C 23912.6 8512.2 23916.6 8499.300000000001 23920.1 8485.7 C 23923.899999999998 8471.400000000001 23949.3 8474.6 23945.5 8489.1 C 23942.5 8500.4 23938.3 8511.6 23939.3 8523.300000000001 C 23940.6 8537.900000000001 23915 8540.800000000001 23913.8 8526.1" stroke-linecap="round" />
</g>
		<g transform="matrix(0.06 0 0 -0.06 68.45 -118.42)" id="UmzT7DoOaB1iH-t30GrCH"  >
<path style="stroke: none; stroke-width: 1; stroke-dasharray: none; stroke-linecap: butt; stroke-dashoffset: 0; stroke-linejoin: miter; stroke-miterlimit: 4; fill: rgb(193,89,154); fill-rule: nonzero; opacity: 1;" vector-effect="non-scaling-stroke"  transform=" translate(-23847.5, -8496.69)" d="M 23835.5 8521 C 23833.8 8504.8 23832.1 8488.3 23835.8 8472.1 C 23839.1 8457.6 23864.5 8460.9 23861.1 8475.4 C 23857.899999999998 8489.6 23859.6 8504 23861.1 8518.199999999999 C 23862.699999999997 8532.8 23837.1 8535.599999999999 23835.5 8520.999999999998" stroke-linecap="round" />
</g>
		<g transform="matrix(0.06 0 0 -0.06 4.64 -83.23)" id="fEXd4-YzmNZEcjCxZG5p5"  >
<path style="stroke: none; stroke-width: 1; stroke-dasharray: none; stroke-linecap: butt; stroke-dashoffset: 0; stroke-linejoin: miter; stroke-miterlimit: 4; fill: rgb(153,69,117); fill-rule: nonzero; opacity: 1;" vector-effect="non-scaling-stroke"  transform=" translate(-22734.6, -7882.85)" d="M 23750.9 8142.7 L 23169.4 8307.4 L 22371.800000000003 8245.699999999999 L 21810.9 8034.699999999999 L 21522.7 7684.699999999999 L 21615.4 7458.299999999999 C 21615.4 7458.299999999999 21589.600000000002 7576.699999999999 21697.7 7710.499999999999 C 21805.8 7844.299999999999 21939.600000000002 8018.599999999999 22366.7 8075.799999999999 C 22865.8 8142.699999999999 23251.8 8158.199999999999 23473 8096.4 C 23663.8 8043.2 23889.9 7890.599999999999 23895 7864.9 C 23900.1 7839.099999999999 23946.5 7931.799999999999 23946.5 7931.799999999999 L 23750.9 8142.699999999999" stroke-linecap="round" />
</g>
		<g transform="matrix(0.06 0 0 -0.06 7.22 -54.79)" id="Jd0s5WT6bKiM90_GdN3Od"  >
<path style="stroke: none; stroke-width: 1; stroke-dasharray: none; stroke-linecap: butt; stroke-dashoffset: 0; stroke-linejoin: miter; stroke-miterlimit: 4; fill: rgb(153,69,117); fill-rule: nonzero; opacity: 1;" vector-effect="non-scaling-stroke"  transform=" translate(-22779.57, -7386.85)" d="M 24018.5 7957.5 L 23895 7540.7 L 23354.7 7144.4 L 22562.2 7046.7 L 21924.100000000002 7165 L 21641.100000000002 7319.4 L 21466.100000000002 7581.799999999999 L 21440.4 7350.299999999999 C 21440.4 7350.299999999999 21430.100000000002 7231.9 21661.7 7051.799999999999 C 21857.100000000002 6899.799999999999 22611.5 6734.4 23138.600000000002 6861.4 C 24270.600000000002 7134.099999999999 24111.100000000002 7715.599999999999 24111.100000000002 7715.599999999999 L 24018.500000000004 7957.499999999999" stroke-linecap="round" />
</g>
		<g transform="matrix(0.06 0 0 -0.06 -47.28 -36.17)" id="2"  >
<path style="stroke: none; stroke-width: 1; stroke-dasharray: none; stroke-linecap: butt; stroke-dashoffset: 0; stroke-linejoin: miter; stroke-miterlimit: 4; fill: rgb(193,89,154); fill-rule: nonzero; opacity: 1;" vector-effect="non-scaling-stroke"  transform=" translate(-21828.92, -7062.1)" d="M 21819.1 7120.4 C 21827.1 7079 21805.8 7038.9 21813.899999999998 6996.9 C 21817.1 6980.7 21841.899999999998 6987.599999999999 21838.8 7003.799999999999 C 21830.7 7045.199999999999 21852.1 7085.299999999999 21843.899999999998 7127.299999999999 C 21840.699999999997 7143.499999999999 21815.899999999998 7136.599999999999 21819.1 7120.4" stroke-linecap="round" />
</g>
		<g transform="matrix(0.06 0 0 -0.06 -36.81 -32.34)" id="LKTEKp6oP1QjQx2GYKO5X"  >
<path style="stroke: none; stroke-width: 1; stroke-dasharray: none; stroke-linecap: butt; stroke-dashoffset: 0; stroke-linejoin: miter; stroke-miterlimit: 4; fill: rgb(193,89,154); fill-rule: nonzero; opacity: 1;" vector-effect="non-scaling-stroke"  transform=" translate(-22011.57, -6995.2)" d="M 22009.5 7055.2 C 22003.8 7017.3 21995.4 6979.8 21988.9 6942 C 21986.100000000002 6925.8 22010.9 6918.8 22013.7 6935.2 C 22020.2 6973 22028.7 7010.4 22034.3 7048.4 C 22036.7 7064.599999999999 22011.899999999998 7071.599999999999 22009.5 7055.2" stroke-linecap="round" />
</g>
		<g transform="matrix(0.06 0 0 -0.06 -27.78 -29.82)" id="gguIjP6F9zFNbRSbQ55lw"  >
<path style="stroke: none; stroke-width: 1; stroke-dasharray: none; stroke-linecap: butt; stroke-dashoffset: 0; stroke-linejoin: miter; stroke-miterlimit: 4; fill: rgb(193,89,154); fill-rule: nonzero; opacity: 1;" vector-effect="non-scaling-stroke"  transform=" translate(-22169.11, -6951.36)" d="M 22158.3 7015.8 C 22158.6 6973.900000000001 22162.7 6931.8 22153.6 6890.6 C 22150 6874.400000000001 22174.8 6867.5 22178.399999999998 6883.700000000001 C 22188.1 6927.400000000001 22184.3 6971.500000000001 22183.999999999996 7015.800000000001 C 22183.899999999998 7032.4000000000015 22158.099999999995 7032.4000000000015 22158.299999999996 7015.800000000001" stroke-linecap="round" />
</g>
		<g transform="matrix(0.06 0 0 -0.06 -8.19 -27.76)" id="GcghgymhrdjeplZJjZ3Vi"  >
<path style="stroke: none; stroke-width: 1; stroke-dasharray: none; stroke-linecap: butt; stroke-dashoffset: 0; stroke-linejoin: miter; stroke-miterlimit: 4; fill: rgb(193,89,154); fill-rule: nonzero; opacity: 1;" vector-effect="non-scaling-stroke"  transform=" translate(-22510.69, -6915.36)" d="M 22492.7 6974.6 C 22497.7 6935.200000000001 22502.7 6896 22503 6856.3 C 22503.2 6839.7 22528.9 6839.7 22528.8 6856.3 C 22528.399999999998 6896 22523.399999999998 6935.2 22518.5 6974.6 C 22516.4 6990.8 22490.7 6991.1 22492.7 6974.6" stroke-linecap="round" />
</g>
		<g transform="matrix(0.06 0 0 -0.06 14.38 -28.5)" id="oa7Hs8s_s1l3hO51zuYDx"  >
<path style="stroke: none; stroke-width: 1; stroke-dasharray: none; stroke-linecap: butt; stroke-dashoffset: 0; stroke-linejoin: miter; stroke-miterlimit: 4; fill: rgb(193,89,154); fill-rule: nonzero; opacity: 1;" vector-effect="non-scaling-stroke"  transform=" translate(-22904.38, -6928.37)" d="M 22880.4 6968.1 C 22897.7 6942.5 22894.4 6907.1 22904.9 6878.6 C 22910.5 6863.1 22935.4 6869.8 22929.7 6885.400000000001 C 22918.3 6916.3 22921.5 6953.1 22902.7 6981.1 C 22893.5 6994.8 22871.2 6981.900000000001 22880.4 6968.1" stroke-linecap="round" />
</g>
		<g transform="matrix(0.06 0 0 -0.06 32.24 -31.75)" id="x97pgAKyxOvyVv8Y_0QNX"  >
<path style="stroke: none; stroke-width: 1; stroke-dasharray: none; stroke-linecap: butt; stroke-dashoffset: 0; stroke-linejoin: miter; stroke-miterlimit: 4; fill: rgb(193,89,154); fill-rule: nonzero; opacity: 1;" vector-effect="non-scaling-stroke"  transform=" translate(-23215.92, -6985.03)" d="M 23197.7 7031.2 C 23197.7 6999.2 23197.3 6965.7 23208.5 6935.2 C 23214.1 6919.7 23239 6926.4 23233.3 6942 C 23222.899999999998 6970.5 23223.5 7001.3 23223.5 7031.2 C 23223.5 7047.8 23197.7 7047.8 23197.7 7031.2" stroke-linecap="round" />
</g>
		<g transform="matrix(0.06 0 0 -0.06 46.39 -36.32)" id="PHqxxLaxeRfw7MLWR-dMu"  >
<path style="stroke: none; stroke-width: 1; stroke-dasharray: none; stroke-linecap: butt; stroke-dashoffset: 0; stroke-linejoin: miter; stroke-miterlimit: 4; fill: rgb(193,89,154); fill-rule: nonzero; opacity: 1;" vector-effect="non-scaling-stroke"  transform=" translate(-23462.7, -7064.63)" d="M 23445.2 7105 C 23451.600000000002 7076.4 23450.2 7046.4 23455.5 7017.5 C 23458.5 7001.2 23483.3 7008.1 23480.3 7024.4 C 23475 7053.299999999999 23476.399999999998 7083.099999999999 23470 7111.799999999999 C 23466.4 7127.999999999999 23441.6 7121.199999999999 23445.2 7104.999999999999" stroke-linecap="round" />
</g>
		<g transform="matrix(0.06 0 0 -0.06 64.38 -47.09)" id="fWs_xqrE-QTGRoHrBwEmn"  >
<path style="stroke: none; stroke-width: 1; stroke-dasharray: none; stroke-linecap: butt; stroke-dashoffset: 0; stroke-linejoin: miter; stroke-miterlimit: 4; fill: rgb(193,89,154); fill-rule: nonzero; opacity: 1;" vector-effect="non-scaling-stroke"  transform=" translate(-23776.65, -7252.5)" d="M 23763.8 7309.1 C 23763.8 7271.400000000001 23763.8 7233.6 23763.8 7195.900000000001 C 23763.8 7179.3 23789.5 7179.3 23789.5 7195.900000000001 C 23789.5 7233.6 23789.5 7271.400000000001 23789.5 7309.1 C 23789.5 7325.700000000001 23763.8 7325.700000000001 23763.8 7309.1" stroke-linecap="round" />
</g>
		<g transform="matrix(0.06 0 0 -0.06 -66.61 -50.49)" id="PcJHFj15iXyisTNrehJsk"  >
<path style="stroke: none; stroke-width: 1; stroke-dasharray: none; stroke-linecap: butt; stroke-dashoffset: 0; stroke-linejoin: miter; stroke-miterlimit: 4; fill: rgb(193,89,154); fill-rule: nonzero; opacity: 1;" vector-effect="non-scaling-stroke"  transform=" translate(-21491.84, -7311.78)" d="M 21484.2 7370.8 C 21483.8 7331.1 21478.8 7291.900000000001 21473.9 7252.5 C 21471.800000000003 7236.1 21497.5 7236.3 21499.600000000002 7252.5 C 21504.600000000002 7291.9 21509.500000000004 7331.1 21509.9 7370.8 C 21510 7387.5 21484.300000000003 7387.400000000001 21484.2 7370.8" stroke-linecap="round" />
</g>
		<g transform="matrix(0.06 0 0 -0.06 -59.67 -42.8)" id="ZBGu1XlXZO_Q5Nof-CAk6"  >
<path style="stroke: none; stroke-width: 1; stroke-dasharray: none; stroke-linecap: butt; stroke-dashoffset: 0; stroke-linejoin: miter; stroke-miterlimit: 4; fill: rgb(193,89,154); fill-rule: nonzero; opacity: 1;" vector-effect="non-scaling-stroke"  transform=" translate(-21612.87, -7177.72)" d="M 21602.5 7221.6 C 21602.5 7193.6 21602.9 7165.200000000001 21597.8 7137.6 C 21594.8 7121.3 21619.6 7114.400000000001 21622.6 7130.700000000001 C 21628.1 7160.800000000001 21628.199999999997 7191.200000000001 21628.199999999997 7221.6 C 21628.199999999997 7238.200000000001 21602.499999999996 7238.200000000001 21602.499999999996 7221.6" stroke-linecap="round" />
</g>
		<g transform="matrix(0.06 0 0 -0.06 -52.82 -38.7)" id="-NKywQDQ117uzjSUzvorB"  >
<path style="stroke: none; stroke-width: 1; stroke-dasharray: none; stroke-linecap: butt; stroke-dashoffset: 0; stroke-linejoin: miter; stroke-miterlimit: 4; fill: rgb(193,89,154); fill-rule: nonzero; opacity: 1;" vector-effect="non-scaling-stroke"  transform=" translate(-21732.38, -7106.26)" d="M 21717.5 7148.2 C 21728.9 7121.8 21721.1 7084.9 21720.9 7057 C 21720.7 7040.4 21746.5 7040.4 21746.600000000002 7057 C 21746.9 7090.9 21753.600000000002 7129.1 21739.7 7161.2 C 21733.100000000002 7176.4 21710.9 7163.3 21717.5 7148.2" stroke-linecap="round" />
</g>
		<g transform="matrix(0.06 0 0 -0.06 -41.09 -33.53)" id="oHaRawfxFxzj0DFmIoWGW"  >
<path style="stroke: none; stroke-width: 1; stroke-dasharray: none; stroke-linecap: butt; stroke-dashoffset: 0; stroke-linejoin: miter; stroke-miterlimit: 4; fill: rgb(193,89,154); fill-rule: nonzero; opacity: 1;" vector-effect="non-scaling-stroke"  transform=" translate(-21936.89, -7015.95)" d="M 21927.2 7065.5 C 21922.2 7033.6 21921.600000000002 7001.7 21921.600000000002 6969.5 C 21921.500000000004 6952.9 21947.300000000003 6952.9 21947.300000000003 6969.5 C 21947.300000000003 6999.3 21947.4 7029.1 21952.000000000004 7058.7 C 21954.500000000004 7074.9 21929.700000000004 7081.9 21927.200000000004 7065.5" stroke-linecap="round" />
</g>
		<g transform="matrix(0.06 0 0 -0.06 -31.66 -31)" id="QZfkDT4-d68EyqAzEE5rH"  >
<path style="stroke: none; stroke-width: 1; stroke-dasharray: none; stroke-linecap: butt; stroke-dashoffset: 0; stroke-linejoin: miter; stroke-miterlimit: 4; fill: rgb(193,89,154); fill-rule: nonzero; opacity: 1;" vector-effect="non-scaling-stroke"  transform=" translate(-22101.42, -6971.9)" d="M 22081.5 7017.5 C 22091.3 6985.7 22091.9 6952.4 22097 6919.7 C 22099.5 6903.4 22124.3 6910.4 22121.8 6926.599999999999 C 22116.7 6959.299999999999 22116.2 6992.499999999999 22106.3 7024.4 C 22101.5 7040.2 22076.6 7033.4 22081.5 7017.5" stroke-linecap="round" />
</g>
		<g transform="matrix(0.06 0 0 -0.06 -23.53 -28.95)" id="v62KZhAi76jplOfeM3gA6"  >
<path style="stroke: none; stroke-width: 1; stroke-dasharray: none; stroke-linecap: butt; stroke-dashoffset: 0; stroke-linejoin: miter; stroke-miterlimit: 4; fill: rgb(193,89,154); fill-rule: nonzero; opacity: 1;" vector-effect="non-scaling-stroke"  transform=" translate(-22243.22, -6936.17)" d="M 22225.6 6991.8 C 22235.1 6954.3 22231.3 6915.1 22235.399999999998 6876.8 C 22237.199999999997 6860.5 22262.999999999996 6860.400000000001 22261.199999999997 6876.8 C 22256.799999999996 6917.400000000001 22260.499999999996 6958.7 22250.399999999998 6998.6 C 22246.3 7014.700000000001 22221.499999999996 7007.900000000001 22225.6 6991.8" stroke-linecap="round" />
</g>
		<g transform="matrix(0.06 0 0 -0.06 -18.22 -28.06)" id="G02-O1UrWQqK8U_c6mSYC"  >
<path style="stroke: none; stroke-width: 1; stroke-dasharray: none; stroke-linecap: butt; stroke-dashoffset: 0; stroke-linejoin: miter; stroke-miterlimit: 4; fill: rgb(193,89,154); fill-rule: nonzero; opacity: 1;" vector-effect="non-scaling-stroke"  transform=" translate(-22335.8, -6920.56)" d="M 22317.8 6979.8 C 22317.8 6938.8 22318.1 6897.8 22328.5 6858 C 22332.8 6842 22357.6 6848.8 22353.3 6864.8 C 22343.399999999998 6902.5 22343.5 6941.1 22343.5 6979.8 C 22343.5 6996.400000000001 22317.8 6996.400000000001 22317.8 6979.8" stroke-linecap="round" />
</g>
		<g transform="matrix(0.06 0 0 -0.06 -15.28 -27.46)" id="-njZmgk2LbltNgBtzHC00"  >
<path style="stroke: none; stroke-width: 1; stroke-dasharray: none; stroke-linecap: butt; stroke-dashoffset: 0; stroke-linejoin: miter; stroke-miterlimit: 4; fill: rgb(193,89,154); fill-rule: nonzero; opacity: 1;" vector-effect="non-scaling-stroke"  transform=" translate(-22387.08, -6910.14)" d="M 22369.2 6964.3 C 22369.600000000002 6926.900000000001 22374.7 6889.900000000001 22380 6852.8 C 22382.3 6836.5 22407.1 6843.5 22404.8 6859.7 C 22399.8 6894.5 22395.399999999998 6929.2 22395 6964.3 C 22394.8 6980.900000000001 22369.1 6980.900000000001 22369.2 6964.3" stroke-linecap="round" />
</g>
		<g transform="matrix(0.06 0 0 -0.06 29.43 -101.23)" id="e3k-bAFv_nKy9HzIux-bR"  >
<path style="stroke: none; stroke-width: 1; stroke-dasharray: none; stroke-linecap: butt; stroke-dashoffset: 0; stroke-linejoin: miter; stroke-miterlimit: 4; fill: rgb(193,89,154); fill-rule: nonzero; opacity: 1;" vector-effect="non-scaling-stroke"  transform=" translate(-23166.85, -8196.78)" d="M 23151.4 8235.4 C 23151.800000000003 8209.5 23156.2 8184 23156.600000000002 8158.2 C 23156.800000000003 8141.599999999999 23182.500000000004 8141.599999999999 23182.300000000003 8158.2 C 23181.9 8184 23177.500000000004 8209.5 23177.100000000002 8235.4 C 23176.9 8251.9 23151.2 8252 23151.4 8235.4" stroke-linecap="round" />
</g>
		<g transform="matrix(0.06 0 0 -0.06 32.69 -100.95)" id="cmztnq25K9iSCyY8aTtef"  >
<path style="stroke: none; stroke-width: 1; stroke-dasharray: none; stroke-linecap: butt; stroke-dashoffset: 0; stroke-linejoin: miter; stroke-miterlimit: 4; fill: rgb(193,89,154); fill-rule: nonzero; opacity: 1;" vector-effect="non-scaling-stroke"  transform=" translate(-23223.79, -8192.03)" d="M 23204.6 8213.4 C 23212.199999999997 8196.9 23213.3 8177.2 23218.8 8159.9 C 23223.8 8144.2 23248.6 8150.9 23243.6 8166.7 C 23237.3 8186.4 23235.5 8207.6 23226.8 8226.4 C 23220 8241.5 23197.8 8228.4 23204.6 8213.4" stroke-linecap="round" />
</g>
		<g transform="matrix(0.06 0 0 -0.06 36.07 -100.34)" id="naCg_0YmMEO13KAx0MbTV"  >
<path style="stroke: none; stroke-width: 1; stroke-dasharray: none; stroke-linecap: butt; stroke-dashoffset: 0; stroke-linejoin: miter; stroke-miterlimit: 4; fill: rgb(193,89,154); fill-rule: nonzero; opacity: 1;" vector-effect="non-scaling-stroke"  transform=" translate(-23282.65, -8181.35)" d="M 23269.8 8204.5 C 23269.8 8189 23269.8 8173.6 23269.8 8158.2 C 23269.8 8141.599999999999 23295.5 8141.599999999999 23295.5 8158.2 C 23295.5 8173.599999999999 23295.5 8189 23295.5 8204.5 C 23295.5 8221.1 23269.8 8221.1 23269.8 8204.5" stroke-linecap="round" />
</g>
		<g transform="matrix(0.06 0 0 -0.06 44.48 -99.16)" id="yVDeo2I5TSgNRonANWDsS"  >
<path style="stroke: none; stroke-width: 1; stroke-dasharray: none; stroke-linecap: butt; stroke-dashoffset: 0; stroke-linejoin: miter; stroke-miterlimit: 4; fill: rgb(193,89,154); fill-rule: nonzero; opacity: 1;" vector-effect="non-scaling-stroke"  transform=" translate(-23429.42, -8160.77)" d="M 23413.9 8183.9 C 23413.9 8167.099999999999 23414.4 8150.4 23419.5 8134.2 C 23424.4 8118.4 23449.2 8125.099999999999 23444.3 8141 C 23439.899999999998 8155.1 23439.6 8169.3 23439.6 8183.9 C 23439.6 8200.5 23413.8 8200.5 23413.899999999998 8183.9" stroke-linecap="round" />
</g>
		<g transform="matrix(0.06 0 0 -0.06 50.24 -97.71)" id="wVi85PvL6fjDdeiHTOhXB"  >
<path style="stroke: none; stroke-width: 1; stroke-dasharray: none; stroke-linecap: butt; stroke-dashoffset: 0; stroke-linejoin: miter; stroke-miterlimit: 4; fill: rgb(193,89,154); fill-rule: nonzero; opacity: 1;" vector-effect="non-scaling-stroke"  transform=" translate(-23529.93, -8135.4)" d="M 23508.2 8156.8 C 23516.4 8139.8 23521.600000000002 8121.1 23527.5 8103.3 C 23532.7 8087.6 23557.6 8094.3 23552.3 8110.1 C 23545.7 8130.1 23539.6 8150.8 23530.5 8169.8 C 23523.3 8184.8 23501.1 8171.7 23508.2 8156.8" stroke-linecap="round" />
</g>
		<g transform="matrix(0.06 0 0 -0.06 55.1 -96.07)" id="qiEsQB6vJ3fsFXgHJ5Fsk"  >
<path style="stroke: none; stroke-width: 1; stroke-dasharray: none; stroke-linecap: butt; stroke-dashoffset: 0; stroke-linejoin: miter; stroke-miterlimit: 4; fill: rgb(193,89,154); fill-rule: nonzero; opacity: 1;" vector-effect="non-scaling-stroke"  transform=" translate(-23614.64, -8106.76)" d="M 23599.1 8127.3 C 23599.1 8112 23600.1 8097.3 23604.699999999997 8082.7 C 23609.699999999997 8067 23634.6 8073.7 23629.499999999996 8089.599999999999 C 23625.499999999996 8102.099999999999 23624.799999999996 8114.2 23624.799999999996 8127.299999999999 C 23624.799999999996 8143.9 23599.099999999995 8143.9 23599.099999999995 8127.299999999999" stroke-linecap="round" />
</g>
		<g transform="matrix(0.06 0 0 -0.06 61.66 -92.25)" id="M5K1rOqgQOv98XY3i5EZ1"  >
<path style="stroke: none; stroke-width: 1; stroke-dasharray: none; stroke-linecap: butt; stroke-dashoffset: 0; stroke-linejoin: miter; stroke-miterlimit: 4; fill: rgb(193,89,154); fill-rule: nonzero; opacity: 1;" vector-effect="non-scaling-stroke"  transform=" translate(-23729.08, -8040.23)" d="M 23716.1 8051.3 C 23720.199999999997 8046.6 23720.3 8030.7 23717.899999999998 8022.7 C 23713.199999999997 8006.7 23737.999999999996 7999.9 23742.699999999997 8015.8 C 23747.699999999997 8032.7 23746.299999999996 8055.7 23734.299999999996 8069.5 C 23723.399999999994 8082 23705.199999999997 8063.8 23716.099999999995 8051.3" stroke-linecap="round" />
</g>
		<g transform="matrix(0.06 0 0 -0.06 23.08 -101.96)" id="HoY2ODDATu68kXageq5DR"  >
<path style="stroke: none; stroke-width: 1; stroke-dasharray: none; stroke-linecap: butt; stroke-dashoffset: 0; stroke-linejoin: miter; stroke-miterlimit: 4; fill: rgb(193,89,154); fill-rule: nonzero; opacity: 1;" vector-effect="non-scaling-stroke"  transform=" translate(-23056.25, -8209.61)" d="M 23043.4 8245.7 C 23043.4 8221.6 23043.4 8197.6 23043.4 8173.6 C 23043.4 8157 23069.100000000002 8157 23069.100000000002 8173.6 C 23069.100000000002 8197.6 23069.100000000002 8221.6 23069.100000000002 8245.7 C 23069.100000000002 8262.2 23043.4 8262.2 23043.4 8245.7" stroke-linecap="round" />
</g>
		<g transform="matrix(0.06 0 0 -0.06 17.37 -101.54)" id="5"  >
<path style="stroke: none; stroke-width: 1; stroke-dasharray: none; stroke-linecap: butt; stroke-dashoffset: 0; stroke-linejoin: miter; stroke-miterlimit: 4; fill: rgb(193,89,154); fill-rule: nonzero; opacity: 1;" vector-effect="non-scaling-stroke"  transform=" translate(-22956.62, -8202.16)" d="M 22946.8 8219.1 C 22945.1 8220.2 22946.2 8218.7 22946.3 8217.2 C 22946.7 8213 22946.2 8208.7 22945.8 8204.6 C 22944.899999999998 8195.300000000001 22942.7 8186.1 22940.899999999998 8177 C 22937.699999999997 8160.8 22962.499999999996 8153.9 22965.699999999997 8170.2 C 22969.799999999996 8190.599999999999 22981.699999999997 8227 22959.799999999996 8241.3 C 22945.899999999994 8250.4 22932.999999999996 8228.099999999999 22946.799999999996 8219.099999999999" stroke-linecap="round" />
</g>
		<g transform="matrix(0.06 0 0 -0.06 13.54 -101.37)" id="I0-Fop8pYe2sJnqCdtNQT"  >
<path style="stroke: none; stroke-width: 1; stroke-dasharray: none; stroke-linecap: butt; stroke-dashoffset: 0; stroke-linejoin: miter; stroke-miterlimit: 4; fill: rgb(193,89,154); fill-rule: nonzero; opacity: 1;" vector-effect="non-scaling-stroke"  transform=" translate(-22889.72, -8199.31)" d="M 22879.1 8238.8 C 22873.199999999997 8212.599999999999 22874.3 8186.199999999999 22879.1 8159.9 C 22882.199999999997 8143.599999999999 22907 8150.5 22904 8166.7 C 22899.9 8188.3 22899 8210.4 22904 8231.9 C 22907.6 8248.1 22882.8 8255 22879.1 8238.8" stroke-linecap="round" />
</g>
		<g transform="matrix(0.06 0 0 -0.06 8.64 -101.08)" id="Q9_Tk58WEnKVj9Zq4PJmn"  >
<path style="stroke: none; stroke-width: 1; stroke-dasharray: none; stroke-linecap: butt; stroke-dashoffset: 0; stroke-linejoin: miter; stroke-miterlimit: 4; fill: rgb(193,89,154); fill-rule: nonzero; opacity: 1;" vector-effect="non-scaling-stroke"  transform=" translate(-22804.23, -8194.27)" d="M 22786.1 8214.8 C 22786.399999999998 8198.9 22791.8 8184.999999999999 22796.8 8170.199999999999 C 22802.1 8154.5999999999985 22827 8161.299999999999 22821.6 8176.999999999999 C 22817.399999999998 8189.499999999999 22812.1 8201.5 22811.8 8214.8 C 22811.399999999998 8231.3 22785.7 8231.4 22786.1 8214.8" stroke-linecap="round" />
</g>
		<g transform="matrix(0.06 0 0 -0.06 4.06 -99.9)" id="cAriUcMk2gEZWUwaoIjd2"  >
<path style="stroke: none; stroke-width: 1; stroke-dasharray: none; stroke-linecap: butt; stroke-dashoffset: 0; stroke-linejoin: miter; stroke-miterlimit: 4; fill: rgb(193,89,154); fill-rule: nonzero; opacity: 1;" vector-effect="non-scaling-stroke"  transform=" translate(-22724.42, -8173.62)" d="M 22708.9 8199.3 C 22708.9 8180.999999999999 22709 8162.199999999999 22714.5 8144.499999999999 C 22719.3 8128.699999999999 22744.2 8135.399999999999 22739.3 8151.299999999999 C 22734.5 8166.9 22734.6 8183.199999999999 22734.6 8199.3 C 22734.6 8215.9 22708.899999999998 8215.9 22708.899999999998 8199.3" stroke-linecap="round" />
</g>
		<g transform="matrix(0.06 0 0 -0.06 85.97 -67.69)" id="GFCzJoP2bmOIiQbZQUDmL"  >
<path style="stroke: none; stroke-width: 1; stroke-dasharray: none; stroke-linecap: butt; stroke-dashoffset: 0; stroke-linejoin: miter; stroke-miterlimit: 4; fill: rgb(153,69,117); fill-rule: nonzero; opacity: 1;" vector-effect="non-scaling-stroke"  transform=" translate(-24153.05, -7611.77)" d="M 25221.3 7467 L 24739.899999999998 7832.3 L 23974.699999999997 8065.6 L 23375.499999999996 8073.6 L 22979.599999999995 7852.900000000001 L 22983.299999999996 7608.200000000001 C 22983.299999999996 7608.200000000001 23002.399999999994 7727.800000000001 23151.899999999994 7813.000000000001 C 23301.299999999996 7898.200000000001 23489.499999999993 8011.700000000001 23907.999999999993 7909.400000000001 C 24397.199999999993 7789.700000000001 24762.199999999993 7663.3 24945.699999999993 7525.200000000001 C 25103.899999999994 7406.1 25258.799999999992 7181.500000000001 25254.199999999993 7155.700000000001 C 25249.599999999995 7129.900000000001 25326.499999999993 7199.200000000001 25326.499999999993 7199.200000000001 L 25221.299999999992 7467.000000000001" stroke-linecap="round" />
</g>
		<g transform="matrix(0.06 0 0 -0.06 82.2 -39.72)" id="oHSrnzAHAehWqOaDhHchS"  >
<path style="stroke: none; stroke-width: 1; stroke-dasharray: none; stroke-linecap: butt; stroke-dashoffset: 0; stroke-linejoin: miter; stroke-miterlimit: 4; fill: rgb(153,69,117); fill-rule: nonzero; opacity: 1;" vector-effect="non-scaling-stroke"  transform=" translate(-24087.46, -7123.97)" d="M 25403 7196.9 L 25136 6853.799999999999 L 24488.4 6681.9 L 23714.9 6879.7 L 23163.800000000003 7222.599999999999 L 22956.600000000002 7469.499999999999 L 22889.300000000003 7777.599999999999 L 22780.9 7571.4 C 22780.9 7571.4 22728.2 7464.9 22878.2 7212.799999999999 C 23004.7 7000.099999999999 23646.9 6570.999999999999 24184 6497.099999999999 C 25337.6 6338.299999999999 25401 6937.999999999999 25401 6937.999999999999 L 25403 7196.899999999999" stroke-linecap="round" />
</g>
		<g transform="matrix(0.06 0 0 -0.06 85.02 -55.23)" id="oZ2rVpCUnIO2HKBovCno8"  >
<path style="stroke: none; stroke-width: 1; stroke-dasharray: none; stroke-linecap: butt; stroke-dashoffset: 0; stroke-linejoin: miter; stroke-miterlimit: 4; fill: rgb(236,206,237); fill-rule: nonzero; opacity: 1;" vector-effect="non-scaling-stroke"  transform=" translate(-24136.63, -7394.56)" d="M 25188.3 7015.7 C 24991.399999999998 6767.5 24472.2 6682.7 23826.3 6924.5 C 23341 7106.2 22912.1 7366.5 22995.8 7724.9 C 23089.1 8124.599999999999 23721.6 8080.299999999999 24082.2 8001.4 C 25125.4 7773.2 25422.100000000002 7310.299999999999 25188.3 7015.7 z M 24072 8088.3 C 23684.9 8173 22981.2 8171.2 22881 7742.2 C 22791.1 7357.4 23265.6 7017.8 23777.5 6799.9 C 24426.5 6523.7 25118.8 6688.2 25330.2 6954.599999999999 C 25581.100000000002 7270.9 25191.8 7843.299999999999 24072 8088.299999999999" stroke-linecap="round" />
</g>
		<g transform="matrix(0.06 0 0 -0.06 22.02 -41.87)" id="d9oM437lgx3NQhs3tV0SB"  >
<path style="stroke: none; stroke-width: 1; stroke-dasharray: none; stroke-linecap: butt; stroke-dashoffset: 0; stroke-linejoin: miter; stroke-miterlimit: 4; fill: rgb(193,89,154); fill-rule: nonzero; opacity: 1;" vector-effect="non-scaling-stroke"  transform=" translate(-23037.7, -7161.44)" d="M 23049.8 7219.3 C 23042.2 7177.8 23007.7 7148.2 23000 7106.2 C 22997 7089.9 23022.6 7087.3 23025.5 7103.5 C 23033.2 7145 23067.7 7174.6 23075.4 7216.7 C 23078.4 7233 23052.7 7235.599999999999 23049.800000000003 7219.3" stroke-linecap="round" />
</g>
		<g transform="matrix(0.06 0 0 -0.06 30.37 -34.48)" id="aZkYPJVT7MF5BQGOUmS6I"  >
<path style="stroke: none; stroke-width: 1; stroke-dasharray: none; stroke-linecap: butt; stroke-dashoffset: 0; stroke-linejoin: miter; stroke-miterlimit: 4; fill: rgb(193,89,154); fill-rule: nonzero; opacity: 1;" vector-effect="non-scaling-stroke"  transform=" translate(-23183.34, -7032.58)" d="M 23203.3 7089.2 C 23184.2 7055.9 23162.7 7024.099999999999 23142.899999999998 6991.3 C 23134.399999999998 6977.2 23154.899999999998 6961.7 23163.499999999996 6975.900000000001 C 23183.299999999996 7008.700000000001 23204.799999999996 7040.500000000001 23223.899999999998 7073.8 C 23232.1 7088 23211.499999999996 7103.5 23203.3 7089.2" stroke-linecap="round" />
</g>
		<g transform="matrix(0.06 0 0 -0.06 37.85 -28.85)" id="sq8vmVKxGb-9W7WSazE0N"  >
<path style="stroke: none; stroke-width: 1; stroke-dasharray: none; stroke-linecap: butt; stroke-dashoffset: 0; stroke-linejoin: miter; stroke-miterlimit: 4; fill: rgb(193,89,154); fill-rule: nonzero; opacity: 1;" vector-effect="non-scaling-stroke"  transform=" translate(-23313.71, -6934.35)" d="M 23327.4 6998.2 C 23312.5 6959.099999999999 23301 6918.4 23277.4 6883.3 C 23268.2 6869.6 23288.800000000003 6854.2 23298 6867.900000000001 C 23323 6905.000000000001 23335.6 6947.500000000001 23351.4 6988.900000000001 C 23357.300000000003 7004.3 23333.4 7013.700000000001 23327.4 6998.200000000001" stroke-linecap="round" />
</g>
		<g transform="matrix(0.06 0 0 -0.06 55.34 -19.79)" id="UKdKFgNbyd4lobbCSY9Ga"  >
<path style="stroke: none; stroke-width: 1; stroke-dasharray: none; stroke-linecap: butt; stroke-dashoffset: 0; stroke-linejoin: miter; stroke-miterlimit: 4; fill: rgb(193,89,154); fill-rule: nonzero; opacity: 1;" vector-effect="non-scaling-stroke"  transform=" translate(-23618.86, -6776.45)" d="M 23623.9 6838 C 23614.2 6799.5 23604.5 6761.1 23590.300000000003 6724 C 23584.4 6708.5 23608.4 6699.1 23614.300000000003 6714.6 C 23628.500000000004 6751.8 23638.100000000002 6790.1 23647.9 6828.6 C 23651.9 6844.400000000001 23628 6854 23623.9 6838" stroke-linecap="round" />
</g>
		<g transform="matrix(0.06 0 0 -0.06 76.69 -12.24)" id="u9xMRNMivOR6MQ-1HN9QP"  >
<path style="stroke: none; stroke-width: 1; stroke-dasharray: none; stroke-linecap: butt; stroke-dashoffset: 0; stroke-linejoin: miter; stroke-miterlimit: 4; fill: rgb(193,89,154); fill-rule: nonzero; opacity: 1;" vector-effect="non-scaling-stroke"  transform=" translate(-23991.29, -6644.67)" d="M 23982.5 6690.6 C 23989.3 6660.400000000001 23973.3 6628.6 23972.7 6598.3 C 23972.3 6581.8 23997.9 6579 23998.2 6595.6 C 23999 6628.5 24015.3 6661.6 24008 6694.6 C 24004.4 6710.700000000001 23978.9 6706.8 23982.5 6690.6" stroke-linecap="round" />
</g>
		<g transform="matrix(0.06 0 0 -0.06 94.45 -8.76)" id="AHAliZrI-hNgqoA0p05TT"  >
<path style="stroke: none; stroke-width: 1; stroke-dasharray: none; stroke-linecap: butt; stroke-dashoffset: 0; stroke-linejoin: miter; stroke-miterlimit: 4; fill: rgb(193,89,154); fill-rule: nonzero; opacity: 1;" vector-effect="non-scaling-stroke"  transform=" translate(-24300.98, -6584.03)" d="M 24301 6633.7 C 24289.3 6603.8 24276.7 6572.8 24276 6540.3 C 24275.6 6523.900000000001 24301.2 6521 24301.6 6537.6 C 24302.3 6567.900000000001 24314.1 6596.400000000001 24325 6624.3 C 24331 6639.7 24307.1 6649.1 24301 6633.7" stroke-linecap="round" />
</g>
		<g transform="matrix(0.06 0 0 -0.06 109.29 -7.86)" id="g0y8_jsbRsM5t7tG2B2SR"  >
<path style="stroke: none; stroke-width: 1; stroke-dasharray: none; stroke-linecap: butt; stroke-dashoffset: 0; stroke-linejoin: miter; stroke-miterlimit: 4; fill: rgb(193,89,154); fill-rule: nonzero; opacity: 1;" vector-effect="non-scaling-stroke"  transform=" translate(-24559.91, -6568.23)" d="M 24558.3 6612.1 C 24553.899999999998 6583.1 24541.6 6555.8 24536 6526.900000000001 C 24532.9 6510.6 24558.5 6508.1 24561.6 6524.200000000001 C 24567.199999999997 6553.1 24579.5 6580.400000000001 24583.899999999998 6609.500000000001 C 24586.399999999998 6625.800000000001 24560.8 6628.500000000001 24558.3 6612.100000000001" stroke-linecap="round" />
</g>
		<g transform="matrix(0.06 0 0 -0.06 129.98 -11.32)" id="ityi8535KwZBVZhEay9DL"  >
<path style="stroke: none; stroke-width: 1; stroke-dasharray: none; stroke-linecap: butt; stroke-dashoffset: 0; stroke-linejoin: miter; stroke-miterlimit: 4; fill: rgb(193,89,154); fill-rule: nonzero; opacity: 1;" vector-effect="non-scaling-stroke"  transform=" translate(-24920.75, -6628.64)" d="M 24929.4 6686 C 24915.600000000002 6650.9 24901.9 6615.8 24888.100000000002 6580.6 C 24882.100000000002 6565.200000000001 24906.000000000004 6555.8 24912.100000000002 6571.200000000001 C 24925.800000000003 6606.400000000001 24939.600000000002 6641.500000000001 24953.4 6676.700000000001 C 24959.4 6692.1 24935.4 6701.500000000001 24929.4 6686.000000000001" stroke-linecap="round" />
</g>
		<g transform="matrix(0.06 0 0 -0.06 9.22 -62.25)" id="CPEZOr01haBxOhjM18OJc"  >
<path style="stroke: none; stroke-width: 1; stroke-dasharray: none; stroke-linecap: butt; stroke-dashoffset: 0; stroke-linejoin: miter; stroke-miterlimit: 4; fill: rgb(193,89,154); fill-rule: nonzero; opacity: 1;" vector-effect="non-scaling-stroke"  transform=" translate(-22814.47, -7517.02)" d="M 22829.2 7574.6 C 22814.4 7537.700000000001 22795.4 7503 22776.4 7468.200000000001 C 22768.5 7453.6 22792.600000000002 7444.400000000001 22800.4 7458.800000000001 C 22819.4 7493.700000000001 22838.300000000003 7528.4000000000015 22853.100000000002 7565.200000000001 C 22859.300000000003 7580.6 22835.4 7590.000000000001 22829.2 7574.6" stroke-linecap="round" />
</g>
		<g transform="matrix(0.06 0 0 -0.06 12.91 -52.55)" id="FeiBKyqEQuIot9_kysRSg"  >
<path style="stroke: none; stroke-width: 1; stroke-dasharray: none; stroke-linecap: butt; stroke-dashoffset: 0; stroke-linejoin: miter; stroke-miterlimit: 4; fill: rgb(193,89,154); fill-rule: nonzero; opacity: 1;" vector-effect="non-scaling-stroke"  transform=" translate(-22878.89, -7347.69)" d="M 22885 7392.5 C 22874.8 7366.4 22864.8 7339.9 22850 7315.9 C 22841.3 7301.9 22861.9 7286.4 22870.6 7300.5 C 22886.699999999997 7326.5 22897.8 7354.8 22908.899999999998 7383.1 C 22914.999999999996 7398.6 22890.999999999996 7408 22884.999999999996 7392.5" stroke-linecap="round" />
</g>
		<g transform="matrix(0.06 0 0 -0.06 17.71 -46.25)" id="Z5-0pQto7MI6eHf8KVa5T"  >
<path style="stroke: none; stroke-width: 1; stroke-dasharray: none; stroke-linecap: butt; stroke-dashoffset: 0; stroke-linejoin: miter; stroke-miterlimit: 4; fill: rgb(193,89,154); fill-rule: nonzero; opacity: 1;" vector-effect="non-scaling-stroke"  transform=" translate(-22962.47, -7237.81)" d="M 22965.3 7282.3 C 22966.3 7253.5 22945.6 7222 22935.2 7196 C 22929 7180.6 22952.9 7171.3 22959.100000000002 7186.7 C 22971.800000000003 7218.2 22992.000000000004 7251.3 22990.7 7286.3 C 22990.100000000002 7302.8 22964.7 7298.7 22965.3 7282.3" stroke-linecap="round" />
</g>
		<g transform="matrix(0.06 0 0 -0.06 26.8 -37.16)" id="bMH3-X4zJSYD26pgvaxt6"  >
<path style="stroke: none; stroke-width: 1; stroke-dasharray: none; stroke-linecap: butt; stroke-dashoffset: 0; stroke-linejoin: miter; stroke-miterlimit: 4; fill: rgb(193,89,154); fill-rule: nonzero; opacity: 1;" vector-effect="non-scaling-stroke"  transform=" translate(-23121.02, -7079.31)" d="M 23130.4 7128.8 C 23114.2 7100.900000000001 23101.9 7071.400000000001 23090.100000000002 7041.400000000001 C 23084.100000000002 7026.000000000001 23108.000000000004 7016.6 23114.100000000002 7032.000000000001 C 23125.000000000004 7059.800000000001 23136.000000000004 7087.500000000001 23151.000000000004 7113.400000000001 C 23159.200000000004 7127.6 23138.700000000004 7143.1 23130.400000000005 7128.8" stroke-linecap="round" />
</g>
		<g transform="matrix(0.06 0 0 -0.06 34.69 -31.37)" id="R53x1ujwBoRjN2kJbapJb"  >
<path style="stroke: none; stroke-width: 1; stroke-dasharray: none; stroke-linecap: butt; stroke-dashoffset: 0; stroke-linejoin: miter; stroke-miterlimit: 4; fill: rgb(193,89,154); fill-rule: nonzero; opacity: 1;" vector-effect="non-scaling-stroke"  transform=" translate(-23258.64, -6978.3)" d="M 23256.6 7027.8 C 23254.199999999997 6994.7 23242.6 6963.400000000001 23235.399999999998 6931.1 C 23231.699999999997 6915 23257.399999999998 6912.400000000001 23260.999999999996 6928.5 C 23268.199999999997 6960.8 23279.799999999996 6991.9 23282.199999999997 7025.1 C 23283.399999999998 7041.6 23257.899999999998 7044.400000000001 23256.6 7027.8" stroke-linecap="round" />
</g>
		<g transform="matrix(0.06 0 0 -0.06 41.51 -26.46)" id="Dp7HGm7VgFfQ9V7zLQnqh"  >
<path style="stroke: none; stroke-width: 1; stroke-dasharray: none; stroke-linecap: butt; stroke-dashoffset: 0; stroke-linejoin: miter; stroke-miterlimit: 4; fill: rgb(193,89,154); fill-rule: nonzero; opacity: 1;" vector-effect="non-scaling-stroke"  transform=" translate(-23377.65, -6892.74)" d="M 23381.4 6951.3 C 23376.600000000002 6912.900000000001 23358.800000000003 6877.8 23348.7 6840.7 C 23344.4 6824.9 23368.3 6815.3 23372.600000000002 6831.3 C 23383.300000000003 6870.7 23401.9 6907.8 23407.000000000004 6948.7 C 23409.100000000002 6965.099999999999 23383.500000000004 6967.8 23381.400000000005 6951.3" stroke-linecap="round" />
</g>
		<g transform="matrix(0.06 0 0 -0.06 46.12 -23.72)" id="XBU0KxASRR4cRBMiA1C90"  >
<path style="stroke: none; stroke-width: 1; stroke-dasharray: none; stroke-linecap: butt; stroke-dashoffset: 0; stroke-linejoin: miter; stroke-miterlimit: 4; fill: rgb(193,89,154); fill-rule: nonzero; opacity: 1;" vector-effect="non-scaling-stroke"  transform=" translate(-23458.09, -6844.93)" d="M 23462.9 6906.5 C 23448 6868.4 23433.2 6830.1 23428.5 6789.2 C 23426.6 6772.8 23452.1 6770 23454.1 6786.5 C 23458.6 6825.2 23472.699999999997 6861.2 23486.8 6897.2 C 23492.899999999998 6912.599999999999 23468.899999999998 6922 23462.899999999998 6906.5" stroke-linecap="round" />
</g>
		<g transform="matrix(0.06 0 0 -0.06 48.64 -22.11)"  >
<path style="stroke: none; stroke-width: 1; stroke-dasharray: none; stroke-linecap: butt; stroke-dashoffset: 0; stroke-linejoin: miter; stroke-miterlimit: 4; fill: rgb(193,89,154); fill-rule: nonzero; opacity: 1;" vector-effect="non-scaling-stroke"  transform=" translate(-23502.07, -6816.8)" d="M 23505.1 6873.4 C 23491.899999999998 6838.4 23483.1 6802.099999999999 23474.5 6765.7 C 23470.7 6749.599999999999 23496.3 6747.099999999999 23500.1 6763 C 23508.199999999997 6797.2 23516.6 6831.1 23529.1 6864 C 23535 6879.5 23511 6888.9 23505.1 6873.4" stroke-linecap="round" />
</g>
		<g transform="matrix(0.06 0 0 -0.06 117.16 -74.48)" id="KDvgFYHDGqLUD-phzpQXq"  >
<path style="stroke: none; stroke-width: 1; stroke-dasharray: none; stroke-linecap: butt; stroke-dashoffset: 0; stroke-linejoin: miter; stroke-miterlimit: 4; fill: rgb(193,89,154); fill-rule: nonzero; opacity: 1;" vector-effect="non-scaling-stroke"  transform=" translate(-24697.15, -7730.21)" d="M 24696.9 7771.8 C 24687.800000000003 7747.6 24682.600000000002 7722.2 24673.5 7698 C 24667.7 7682.5 24691.7 7673.1 24697.5 7688.7 C 24706.5 7712.9 24711.8 7738.2 24720.8 7762.4 C 24726.6 7777.9 24702.7 7787.299999999999 24696.899999999998 7771.799999999999" stroke-linecap="round" />
</g>
		<g transform="matrix(0.06 0 0 -0.06 120.08 -73.02)" id="mnc9sx3IypQBGeYWZJ_vG"  >
<path style="stroke: none; stroke-width: 1; stroke-dasharray: none; stroke-linecap: butt; stroke-dashoffset: 0; stroke-linejoin: miter; stroke-miterlimit: 4; fill: rgb(193,89,154); fill-rule: nonzero; opacity: 1;" vector-effect="non-scaling-stroke"  transform=" translate(-24748.01, -7704.84)" d="M 24738.4 7732 C 24739.4 7713.8 24733.2 7695.1 24732.100000000002 7677 C 24731.000000000004 7660.5 24756.600000000002 7657.7 24757.7 7674.3 C 24759 7694.900000000001 24765 7715.3 24763.8 7736 C 24762.899999999998 7752.5 24737.5 7748.4 24738.399999999998 7732" stroke-linecap="round" />
</g>
		<g transform="matrix(0.06 0 0 -0.06 123.02 -71.23)" id="9"  >
<path style="stroke: none; stroke-width: 1; stroke-dasharray: none; stroke-linecap: butt; stroke-dashoffset: 0; stroke-linejoin: miter; stroke-miterlimit: 4; fill: rgb(193,89,154); fill-rule: nonzero; opacity: 1;" vector-effect="non-scaling-stroke"  transform=" translate(-24799.35, -7673.65)" d="M 24795.8 7699.9 C 24790.2 7685.5 24784.6 7671.2 24778.899999999998 7656.799999999999 C 24772.899999999998 7641.299999999999 24796.8 7631.9 24802.899999999998 7647.4 C 24808.499999999996 7661.799999999999 24814.199999999997 7676.2 24819.8 7690.5 C 24825.8 7706 24801.899999999998 7715.4 24795.8 7699.9" stroke-linecap="round" />
</g>
		<g transform="matrix(0.06 0 0 -0.06 130.42 -67.07)" id="KOwLonT1zqp01ORswx1AM"  >
<path style="stroke: none; stroke-width: 1; stroke-dasharray: none; stroke-linecap: butt; stroke-dashoffset: 0; stroke-linejoin: miter; stroke-miterlimit: 4; fill: rgb(193,89,154); fill-rule: nonzero; opacity: 1;" vector-effect="non-scaling-stroke"  transform=" translate(-24928.47, -7601.09)" d="M 24922.5 7628.2 C 24916.4 7612.5 24910.8 7596.8 24909.6 7579.9 C 24908.399999999998 7563.4 24934 7560.599999999999 24935.199999999997 7577.2 C 24936.199999999997 7591.9 24941.1 7605.2 24946.399999999998 7618.8 C 24952.499999999996 7634.3 24928.499999999996 7643.7 24922.499999999996 7628.2" stroke-linecap="round" />
</g>
		<g transform="matrix(0.06 0 0 -0.06 135.25 -63.6)" id="Ttuam4-98Sp-QsxoCiOSE"  >
<path style="stroke: none; stroke-width: 1; stroke-dasharray: none; stroke-linecap: butt; stroke-dashoffset: 0; stroke-linejoin: miter; stroke-miterlimit: 4; fill: rgb(193,89,154); fill-rule: nonzero; opacity: 1;" vector-effect="non-scaling-stroke"  transform=" translate(-25012.7, -7540.49)" d="M 25000.5 7568.6 C 25001.9 7549.8 24999.9 7530.5 24998.9 7511.700000000001 C 24998.100000000002 7495.200000000001 25023.7 7492.400000000001 25024.5 7509.000000000001 C 25025.6 7530.100000000001 25027.5 7551.500000000001 25025.9 7572.600000000001 C 25024.7 7589.100000000001 24999.300000000003 7585.000000000001 25000.5 7568.600000000001" stroke-linecap="round" />
</g>
		<g transform="matrix(0.06 0 0 -0.06 139.18 -60.32)" id="afBOQUHts_5_yov2oIOY4"  >
<path style="stroke: none; stroke-width: 1; stroke-dasharray: none; stroke-linecap: butt; stroke-dashoffset: 0; stroke-linejoin: miter; stroke-miterlimit: 4; fill: rgb(193,89,154); fill-rule: nonzero; opacity: 1;" vector-effect="non-scaling-stroke"  transform=" translate(-25081.28, -7483.21)" d="M 25074.4 7508 C 25068.800000000003 7493.7 25064.300000000003 7479.7 25063.300000000003 7464.4 C 25062.200000000004 7447.9 25087.800000000003 7445.099999999999 25088.9 7461.7 C 25089.800000000003 7474.9 25093.5 7486.4 25098.300000000003 7498.599999999999 C 25104.4 7513.999999999999 25080.4 7523.4 25074.4 7507.999999999999" stroke-linecap="round" />
</g>
		<g transform="matrix(0.06 0 0 -0.06 143.86 -54.38)" id="YeFJCZARuOgiWYz1t6XM9"  >
<path style="stroke: none; stroke-width: 1; stroke-dasharray: none; stroke-linecap: butt; stroke-dashoffset: 0; stroke-linejoin: miter; stroke-miterlimit: 4; fill: rgb(193,89,154); fill-rule: nonzero; opacity: 1;" vector-effect="non-scaling-stroke"  transform=" translate(-25162.75, -7379.72)" d="M 25155.6 7394.6 C 25157.699999999997 7388.700000000001 25152 7373.8 25146.8 7367.200000000001 C 25136.6 7354.1 25157.3 7338.700000000001 25167.399999999998 7351.800000000001 C 25178.199999999997 7365.700000000001 25185.3 7387.600000000001 25179.199999999997 7404.9000000000015 C 25173.6 7420.500000000002 25149.999999999996 7410.100000000001 25155.6 7394.600000000001" stroke-linecap="round" />
</g>
		<g transform="matrix(0.06 0 0 -0.06 111.52 -77.48)" id="C8s6unrR8vOYmN66uppEZ"  >
<path style="stroke: none; stroke-width: 1; stroke-dasharray: none; stroke-linecap: butt; stroke-dashoffset: 0; stroke-linejoin: miter; stroke-miterlimit: 4; fill: rgb(193,89,154); fill-rule: nonzero; opacity: 1;" vector-effect="non-scaling-stroke"  transform=" translate(-24598.81, -7782.55)" d="M 24600 7820.8 C 24591.2 7798.400000000001 24582.5 7776.1 24573.7 7753.7 C 24567.7 7738.2 24591.600000000002 7728.9 24597.7 7744.3 C 24606.4 7766.7 24615.2 7789 24623.9 7811.400000000001 C 24630 7826.900000000001 24606 7836.200000000001 24600 7820.8" stroke-linecap="round" />
</g>
		<g transform="matrix(0.06 0 0 -0.06 105.94 -79.21)" id="pzGcuO01NITS2d_P974YI"  >
<path style="stroke: none; stroke-width: 1; stroke-dasharray: none; stroke-linecap: butt; stroke-dashoffset: 0; stroke-linejoin: miter; stroke-miterlimit: 4; fill: rgb(193,89,154); fill-rule: nonzero; opacity: 1;" vector-effect="non-scaling-stroke"  transform=" translate(-24501.43, -7812.85)" d="M 24500.4 7831.3 C 24499.300000000003 7832.900000000001 24499.7 7831.1 24499.2 7829.6 C 24498.100000000002 7825.6 24496 7821.8 24494.2 7818.1 C 24490 7809.8 24484.600000000002 7802 24479.600000000002 7794.200000000001 C 24470.7 7780.300000000001 24491.2 7764.900000000001 24500.2 7778.800000000001 C 24511.4 7796.300000000001 24535.8 7825.9000000000015 24520.600000000002 7847.200000000001 C 24511.000000000004 7860.800000000001 24490.800000000003 7844.700000000001 24500.4 7831.300000000001" stroke-linecap="round" />
</g>
		<g transform="matrix(0.06 0 0 -0.06 102.51 -80.39)" id="C38tOvnaa50GIKO1IJeD2"  >
<path style="stroke: none; stroke-width: 1; stroke-dasharray: none; stroke-linecap: butt; stroke-dashoffset: 0; stroke-linejoin: miter; stroke-miterlimit: 4; fill: rgb(193,89,154); fill-rule: nonzero; opacity: 1;" vector-effect="non-scaling-stroke"  transform=" translate(-24441.55, -7833.38)" d="M 24444.6 7874.2 C 24429.5 7852 24420.899999999998 7827.099999999999 24415.8 7800.8 C 24412.7 7784.5 24438.3 7781.900000000001 24441.399999999998 7798.1 C 24445.6 7819.700000000001 24452.8 7840.6 24465.199999999997 7858.8 C 24474.499999999996 7872.5 24453.899999999998 7888 24444.6 7874.2" stroke-linecap="round" />
</g>
		<g transform="matrix(0.06 0 0 -0.06 97.74 -81.93)" id="GCr3L9h7rAZ1HX-vuGSBH"  >
<path style="stroke: none; stroke-width: 1; stroke-dasharray: none; stroke-linecap: butt; stroke-dashoffset: 0; stroke-linejoin: miter; stroke-miterlimit: 4; fill: rgb(193,89,154); fill-rule: nonzero; opacity: 1;" vector-effect="non-scaling-stroke"  transform=" translate(-24358.43, -7860.18)" d="M 24349.2 7885.8 C 24343.7 7870.900000000001 24343.600000000002 7856 24342.9 7840.400000000001 C 24342.2 7823.900000000001 24367.800000000003 7821.1 24368.5 7837.700000000001 C 24369.1 7850.800000000001 24368.5 7864.000000000001 24373.1 7876.500000000001 C 24378.8 7892.000000000001 24354.899999999998 7901.400000000001 24349.199999999997 7885.800000000001" stroke-linecap="round" />
</g>
		<g transform="matrix(0.06 0 0 -0.06 93.06 -82.49)" id="8"  >
<path style="stroke: none; stroke-width: 1; stroke-dasharray: none; stroke-linecap: butt; stroke-dashoffset: 0; stroke-linejoin: miter; stroke-miterlimit: 4; fill: rgb(193,89,154); fill-rule: nonzero; opacity: 1;" vector-effect="non-scaling-stroke"  transform=" translate(-24276.72, -7870.07)" d="M 24271.7 7899.6 C 24265 7882.5 24258.3 7864.900000000001 24256.9 7846.5 C 24255.600000000002 7830 24281.2 7827.2 24282.5 7843.8 C 24283.7 7860 24289.7 7875.2 24295.6 7890.2 C 24301.699999999997 7905.7 24277.699999999997 7915 24271.699999999997 7899.599999999999" stroke-linecap="round" />
</g>
		<g transform="matrix(0.06 0 0 -0.06 28.19 -29.06)" id="3"  >
<path style="stroke: none; stroke-width: 1; stroke-dasharray: none; stroke-linecap: butt; stroke-dashoffset: 0; stroke-linejoin: miter; stroke-miterlimit: 4; fill: rgb(112,52,89); fill-rule: nonzero; opacity: 1;" vector-effect="non-scaling-stroke"  transform=" translate(-23145.35, -6938.05)" d="M 23049.7 7028.3 L 23068.2 6847.8 C 23068.2 6847.8 23117.600000000002 6854 23160 6866.3 C 23202.4 6878.7 23241 6888.7 23241 6888.7 C 23241 6888.7 23173.1 6925.7 23134.6 6953.5 C 23096 6981.3 23049.699999999997 7028.3 23049.699999999997 7028.3" stroke-linecap="round" />
</g>
</g>
</g>
</svg>