<svg height="130" viewBox="0 0 235 130" width="235" xmlns="http://www.w3.org/2000/svg"><path d="m24865.9 8357.6-562.1 208.2-798.8 32.6-577.9-124.4-320.3-276.4 70.3-209.3s-14.2 106.9 106.1 212.8c120.4 105.9 270.3 244.7 700.3 248.5 502.6 4.5 887.7-24 1101.7-102.4 184.5-67.6 394.5-226.5 397.1-249.7 2.7-23.2 57.6 53.2 57.6 53.2z" fill="#994575" transform="matrix(.06 0 0 -.06 -1288.341 520.841)"/><path d="m25114 8165.5-162.9-353.2-575.3-289.7-797.2.4-622.9 173.6-266.4 166.7-148.6 249.9-48-200.9s-21.6-103 191.2-286.7c179.6-155 913.5-382.7 1449.7-328.4 1151.7 116.5 1049.2 645.4 1049.2 645.4z" fill="#994575" transform="matrix(.06 0 0 -.06 -1288.3766 519.325)"/><path d="m24957.2 7962.8c-121.5-256.4-597.3-443-1283.7-376.9-515.9 49.6-998.9 179.1-1016.2 505.3-19.3 363.7 600.5 464.4 968.4 475.7 1064.5 32.6 1475.8-299.9 1331.5-604.1zm-1364.9 676.5c-395-12.2-1070.7-167.9-1050-558.4 18.5-350.2 567.1-537.9 1118.3-612.7 698.8-95 1319.1 198 1449.6 473.2 154.8 326.6-375.2 732.9-1517.9 697.9" fill="#ecceed" transform="matrix(.06 0 0 -.06 -1288.3814 520.1802)"/><g fill="#c1599a"><path d="m22847 7668.8c4-37.3-21.1-70.2-17-108 1.6-14.7 26.9-11.3 25.3 3.3-4 37.3 21.1 70.3 17 108-1.5 14.7-26.9 11.3-25.3-3.3" transform="matrix(.06 0 0 -.06 -1285.749 519.037)"/><path d="m23030 7590.7c-9.3-32.7-21.3-64.8-31.4-97.3-4.3-14 19.7-22.8 24-8.7 10.1 32.5 22.1 64.5 31.4 97.3 3.9 14-20 22.9-24 8.7" transform="matrix(.06 0 0 -.06 -1286.2156 518.8232)"/><path d="m23174.1 7539.8c-3.7-36.9-3.7-74.3-16.8-109.6-5.1-13.9 18.9-22.6 24-8.7 13.9 37.3 14.4 76.5 18.3 115.5 1.5 14.6-24.1 17.4-25.5 2.8" transform="matrix(.06 0 0 -.06 -1286.6178 518.6776)"/><path d="m23502.6 7467.2c1.1-35.2 2.3-70.3-1.2-105.3-1.5-14.6 24.1-17.4 25.6-2.8 3.5 35 2.3 70.1 1.2 105.3-.5 14.5-26.1 17.4-25.6 2.8" transform="matrix(.06 0 0 -.06 -1287.5198 518.4978)"/><path d="m23887.3 7419.2c14.7-24.5 8.1-55.2 15.7-81.4 4.1-14.2 29.5-11.1 25.3 3.3-8.3 28.4-1.6 60.4-17.6 87.1-7.8 13-31.3 4.2-23.4-9" transform="matrix(.06 0 0 -.06 -1288.5638 518.4054)"/><path d="m24208.8 7440.1c-3-28.2-6.7-57.6 1.5-85.6 4.1-14.2 29.5-11.1 25.3 3.3-7.7 26.2-4.1 53.2-1.2 79.5 1.6 14.6-24 17.4-25.6 2.8" transform="matrix(.06 0 0 -.06 -1289.3914 518.4512)"/><path d="m24461.9 7478c3.7-25.8-.6-52 1.8-78 1.4-14.7 26.7-11.3 25.4 3.3-2.5 26 1.8 52.1-1.8 78.1-2.1 14.6-27.4 11.3-25.4-3.4" transform="matrix(.06 0 0 -.06 -1290.0782 518.5608)"/><path d="m24798.3 7622.9c-3.6-33.2-7.3-66.4-10.9-99.6-1.6-14.6 24-17.4 25.6-2.8 3.6 33.2 7.2 66.4 10.9 99.6 1.6 14.6-24 17.4-25.6 2.8" transform="matrix(.06 0 0 -.06 -1290.959 518.912)"/><path d="m22538.2 7925.6c-4.2-34.9-12.9-68.9-21.6-103-3.7-14.2 21.9-16.8 25.5-2.8 8.8 34.1 17.5 68.1 21.7 103 1.7 14.6-23.8 17.4-25.6 2.8" transform="matrix(.06 0 0 -.06 -1284.9136 519.7134)"/><path d="m22641.5 7781.5c-2.7-24.7-5.1-49.7-12.8-73.5-4.5-13.9 19.5-22.7 24-8.7 8.4 25.8 11.4 52.6 14.4 79.4 1.6 14.5-24 17.4-25.6 2.8" transform="matrix(.06 0 0 -.06 -1285.1996 519.3702)"/><path d="m22748.7 7704.4c8.8-24.5-2.5-56.1-5.5-80.7-1.7-14.6 23.9-17.4 25.6-2.8 3.6 29.9 14 62.7 3.2 92.5-5.1 14.1-28.4 4.9-23.3-9" transform="matrix(.06 0 0 -.06 -1285.507 519.1604)"/><path d="m22949.1 7608.8c-7.9-27.6-11.7-55.6-14.8-83.9-1.6-14.6 24-17.4 25.6-2.8 2.9 26.2 5.9 52.4 13.2 77.9 4.1 14-19.9 22.9-24 8.8" transform="matrix(.06 0 0 -.06 -1286.024 518.9014)"/><path d="m23098 7549.7c6.6-29 4-58.4 5.9-87.7.9-14.7 26.2-11.2 25.3 3.3-1.9 29.3.8 58.6-5.9 87.7-3.3 14.5-28.7 11.2-25.3-3.3" transform="matrix(.06 0 0 -.06 -1286.4476 518.7476)"/><path d="m23238.7 7511.4c5.9-34.1-1.7-68.1-1.3-102.2.2-14.6 25.8-17.5 25.6-2.8-.5 36.2 7.2 72.1 1 108.3-2.5 14.6-27.8 11.3-25.3-3.3" transform="matrix(.06 0 0 -.06 -1286.8146 518.6152)"/><path d="m23329.2 7490.8c-4-36.1-7.7-72.2-1.1-108.3 2.7-14.6 28-11.3 25.3 3.3-6.2 34.1-2.4 68.2 1.3 102.1 1.6 14.6-23.9 17.5-25.5 2.9" transform="matrix(.06 0 0 -.06 -1287.0478 518.5538)"/><path d="m23378.8 7471.6c-3.2-33-1.7-66.1 0-99.3.7-14.6 26-11.2 25.3 3.3-1.6 31.2-2.7 62.2.3 93.2 1.4 14.6-24.1 17.4-25.6 2.8" transform="matrix(.06 0 0 -.06 -1287.1814 518.5142)"/><path d="m24278.9 8504.4c-2.1-22.7-.2-45.7-2.3-68.4-1.4-14.6 24.2-17.5 25.6-2.8 2.1 22.7.2 45.7 2.3 68.4 1.4 14.6-24.2 17.5-25.6 2.8" transform="matrix(.06 0 0 -.06 -1289.583 521.308)"/><path d="m24329.7 8479.3c5.9-15.3 5.1-32.8 8.9-48.6 3.5-14.4 28.8-11.2 25.3 3.3-4.3 18-4.1 36.8-10.9 54.3-5.4 14.1-28.7 5-23.3-9" transform="matrix(.06 0 0 -.06 -1289.7336 521.2822)"/><path d="m24393.6 8464.4c-1.5-13.6-3-27.2-4.5-40.8-1.6-14.6 24-17.4 25.6-2.8 1.5 13.6 3 27.2 4.5 40.8 1.6 14.6-24 17.4-25.6 2.8" transform="matrix(.06 0 0 -.06 -1289.889 521.236)"/><path d="m24534.8 8430.6c-1.6-14.8-2.6-29.6.8-44.4 3.4-14.4 28.7-11.2 25.3 3.3-3 12.9-1.9 25.4-.5 38.3 1.6 14.6-24 17.4-25.6 2.8" transform="matrix(.06 0 0 -.06 -1290.2662 521.1436)"/><path d="m24626 8396.5c6.5-15.9 9.9-32.9 14-49.2 3.7-14.4 29.1-11.2 25.4 3.3-4.7 18.3-8.8 37.1-16 54.9-5.7 13.9-29 4.8-23.4-9" transform="matrix(.06 0 0 -.06 -1290.527 521.052)"/><path d="m24713.5 8360.6c-1.4-13.4-1.9-26.5 1.3-39.8 3.5-14.5 28.8-11.2 25.3 3.3-2.8 11.5-2.3 22.1-1 33.7 1.6 14.6-24 17.4-25.6 2.8" transform="matrix(.06 0 0 -.06 -1290.7452 520.9604)"/><path d="m24822.5 8281c3.6-4.6 2.2-18.6-1-25.4-6.2-13.5 17.8-22.2 24-8.7 6.6 14.3 7.4 34.7-3.2 48.1-9.6 12.2-29.4-1.9-19.8-14" transform="matrix(.06 0 0 -.06 -1291.0296 520.7746)"/><path d="m24172.5 8525.3c-2.3-21.2-4.6-42.3-7-63.4-1.6-14.6 24-17.4 25.6-2.8 2.3 21.1 4.7 42.2 7 63.4 1.6 14.6-24 17.4-25.6 2.8" transform="matrix(.06 0 0 -.06 -1289.298 521.372)"/><path d="m24074 8512.4c-1.6 1.2-.7-.2-.7-1.6-.1-3.7-1-7.4-1.8-11-1.7-8.1-4.8-15.9-7.5-23.7-4.8-13.9 19.2-22.7 24-8.8 6 17.6 21.4 48.3 1 63.3-13 9.5-27.9-8.7-15-18.2" transform="matrix(.06 0 0 -.06 -1289.028 521.3768)"/><path d="m24008.6 8537.1c-8.5-22.4-9.9-45.7-7.6-69.4 1.4-14.7 26.7-11.3 25.3 3.3-1.9 19.5-.7 39 6.3 57.4 5.2 13.8-18.8 22.5-24 8.7" transform="matrix(.06 0 0 -.06 -1288.8502 521.3984)"/><path d="m23913.8 8526.1c-1.2-13.9 2.8-26.8 6.3-40.4 3.8-14.3 29.2-11.1 25.4 3.4-3 11.3-7.2 22.5-6.2 34.2 1.3 14.6-24.3 17.5-25.5 2.8" transform="matrix(.06 0 0 -.06 -1288.6238 521.4078)"/><path d="m23835.5 8521c-1.7-16.2-3.4-32.7.3-48.9 3.3-14.5 28.7-11.2 25.3 3.3-3.2 14.2-1.5 28.6 0 42.8 1.6 14.6-24 17.4-25.6 2.8" transform="matrix(.06 0 0 -.06 -1288.4 521.3814)"/></g><path d="m23750.9 8142.7-581.5 164.7-797.6-61.7-560.9-211-288.2-350 92.7-226.4s-25.8 118.4 82.3 252.2 241.9 308.1 669 365.3c499.1 66.9 885.1 82.4 1106.3 20.6 190.8-53.2 416.9-205.8 422-231.5 5.1-25.8 51.5 66.9 51.5 66.9z" fill="#994575" transform="matrix(.06 0 0 -.06 -1285.436 519.741)"/><path d="m24018.5 7957.5-123.5-416.8-540.3-396.3-792.5-97.7-638.1 118.3-283 154.4-175 262.4-25.7-231.5s-10.3-118.4 221.3-298.5c195.4-152 949.8-317.4 1476.9-190.4 1132 272.7 972.5 854.2 972.5 854.2z" fill="#994575" transform="matrix(.06 0 0 -.06 -1285.5542 518.421)"/><path d="m21819.1 7120.4c8-41.4-13.3-81.5-5.2-123.5 3.2-16.2 28-9.3 24.9 6.9-8.1 41.4 13.3 81.5 5.1 123.5-3.2 16.2-28 9.3-24.8-6.9" fill="#c1599a" transform="matrix(.06 0 0 -.06 -1283.0152 517.556)"/><path d="m22009.5 7055.2c-5.7-37.9-14.1-75.4-20.6-113.2-2.8-16.2 22-23.2 24.8-6.8 6.5 37.8 15 75.2 20.6 113.2 2.4 16.2-22.4 23.2-24.8 6.8" fill="#c1599a" transform="matrix(.06 0 0 -.06 -1283.5042 517.372)"/><path d="m22158.3 7015.8c.3-41.9 4.4-84-4.7-125.2-3.6-16.2 21.2-23.1 24.8-6.9 9.7 43.7 5.9 87.8 5.6 132.1-.1 16.6-25.9 16.6-25.7 0" fill="#c1599a" transform="matrix(.06 0 0 -.06 -1283.9266 517.2616)"/><path d="m22492.7 6974.6c5-39.4 10-78.6 10.3-118.3.2-16.6 25.9-16.6 25.8 0-.4 39.7-5.4 78.9-10.3 118.3-2.1 16.2-27.8 16.5-25.8 0" fill="#c1599a" transform="matrix(.06 0 0 -.06 -1284.8314 517.1616)"/><path d="m22880.4 6968.1c17.3-25.6 14-61 24.5-89.5 5.6-15.5 30.5-8.8 24.8 6.8-11.4 30.9-8.2 67.7-27 95.7-9.2 13.7-31.5.8-22.3-13" fill="#c1599a" transform="matrix(.06 0 0 -.06 -1285.8828 517.2022)"/><path d="m23197.7 7031.2c0-32-.4-65.5 10.8-96 5.6-15.5 30.5-8.8 24.8 6.8-10.4 28.5-9.8 59.3-9.8 89.2 0 16.6-25.8 16.6-25.8 0" fill="#c1599a" transform="matrix(.06 0 0 -.06 -1286.7152 517.3518)"/><path d="m23445.2 7105c6.4-28.6 5-58.6 10.3-87.5 3-16.3 27.8-9.4 24.8 6.9-5.3 28.9-3.9 58.7-10.3 87.4-3.6 16.2-28.4 9.4-24.8-6.8" fill="#c1599a" transform="matrix(.06 0 0 -.06 -1287.372 517.5578)"/><path d="m23763.8 7309.1c0-37.7 0-75.5 0-113.2 0-16.6 25.7-16.6 25.7 0v113.2c0 16.6-25.7 16.6-25.7 0" fill="#c1599a" transform="matrix(.06 0 0 -.06 -1288.219 518.06)"/><path d="m21484.2 7370.8c-.4-39.7-5.4-78.9-10.3-118.3-2.1-16.4 23.6-16.2 25.7 0 5 39.4 9.9 78.6 10.3 118.3.1 16.7-25.6 16.6-25.7 0" fill="#c1599a" transform="matrix(.06 0 0 -.06 -1282.1204 518.2168)"/><path d="m21602.5 7221.6c0-28 .4-56.4-4.7-84-3-16.3 21.8-23.2 24.8-6.9 5.5 30.1 5.6 60.5 5.6 90.9 0 16.6-25.7 16.6-25.7 0" fill="#c1599a" transform="matrix(.06 0 0 -.06 -1282.4422 517.8632)"/><path d="m21717.5 7148.2c11.4-26.4 3.6-63.3 3.4-91.2-.2-16.6 25.6-16.6 25.7 0 .3 33.9 7 72.1-6.9 104.2-6.6 15.2-28.8 2.1-22.2-13" fill="#c1599a" transform="matrix(.06 0 0 -.06 -1282.7628 517.6756)"/><path d="m21927.2 7065.5c-5-31.9-5.6-63.8-5.6-96-.1-16.6 25.7-16.6 25.7 0 0 29.8.1 59.6 4.7 89.2 2.5 16.2-22.3 23.2-24.8 6.8" fill="#c1599a" transform="matrix(.06 0 0 -.06 -1283.3034 517.427)"/><path d="m22081.5 7017.5c9.8-31.8 10.4-65.1 15.5-97.8 2.5-16.3 27.3-9.3 24.8 6.9-5.1 32.7-5.6 65.9-15.5 97.8-4.8 15.8-29.7 9-24.8-6.9" fill="#c1599a" transform="matrix(.06 0 0 -.06 -1283.7452 517.314)"/><path d="m22225.6 6991.8c9.5-37.5 5.7-76.7 9.8-115 1.8-16.3 27.6-16.4 25.8 0-4.4 40.6-.7 81.9-10.8 121.8-4.1 16.1-28.9 9.3-24.8-6.8" fill="#c1599a" transform="matrix(.06 0 0 -.06 -1284.1232 517.2202)"/><path d="m22317.8 6979.8c0-41 .3-82 10.7-121.8 4.3-16 29.1-9.2 24.8 6.8-9.9 37.7-9.8 76.3-9.8 115 0 16.6-25.7 16.6-25.7 0" fill="#c1599a" transform="matrix(.06 0 0 -.06 -1284.368 517.1736)"/><path d="m22369.2 6964.3c.4-37.4 5.5-74.4 10.8-111.5 2.3-16.3 27.1-9.3 24.8 6.9-5 34.8-9.4 69.5-9.8 104.6-.2 16.6-25.9 16.6-25.8 0" fill="#c1599a" transform="matrix(.06 0 0 -.06 -1284.5048 517.1484)"/><path d="m23151.4 8235.4c.4-25.9 4.8-51.4 5.2-77.2.2-16.6 25.9-16.6 25.7 0-.4 25.8-4.8 51.3-5.2 77.2-.2 16.5-25.9 16.6-25.7 0" fill="#c1599a" transform="matrix(.06 0 0 -.06 -1286.581 520.5768)"/><path d="m23204.6 8213.4c7.6-16.5 8.7-36.2 14.2-53.5 5-15.7 29.8-9 24.8 6.8-6.3 19.7-8.1 40.9-16.8 59.7-6.8 15.1-29 2-22.2-13" fill="#c1599a" transform="matrix(.06 0 0 -.06 -1286.7374 520.5718)"/><path d="m23269.8 8204.5c0-15.5 0-30.9 0-46.3 0-16.6 25.7-16.6 25.7 0v46.3c0 16.6-25.7 16.6-25.7 0" fill="#c1599a" transform="matrix(.06 0 0 -.06 -1286.889 520.541)"/><path d="m23413.9 8183.9c0-16.8.5-33.5 5.6-49.7 4.9-15.8 29.7-9.1 24.8 6.8-4.4 14.1-4.7 28.3-4.7 42.9 0 16.6-25.8 16.6-25.7 0" fill="#c1599a" transform="matrix(.06 0 0 -.06 -1287.2852 520.4862)"/><path d="m23508.2 8156.8c8.2-17 13.4-35.7 19.3-53.5 5.2-15.7 30.1-9 24.8 6.8-6.6 20-12.7 40.7-21.8 59.7-7.2 15-29.4 1.9-22.3-13" fill="#c1599a" transform="matrix(.06 0 0 -.06 -1287.5558 520.414)"/><path d="m23599.1 8127.3c0-15.3 1-30 5.6-44.6 5-15.7 29.9-9 24.8 6.9-4 12.5-4.7 24.6-4.7 37.7 0 16.6-25.7 16.6-25.7 0" fill="#c1599a" transform="matrix(.06 0 0 -.06 -1287.7784 520.3356)"/><path d="m23716.1 8051.3c4.1-4.7 4.2-20.6 1.8-28.6-4.7-16 20.1-22.8 24.8-6.9 5 16.9 3.6 39.9-8.4 53.7-10.9 12.5-29.1-5.7-18.2-18.2" fill="#c1599a" transform="matrix(.06 0 0 -.06 -1288.0848 520.1638)"/><path d="m23043.4 8245.7c0-24.1 0-48.1 0-72.1 0-16.6 25.7-16.6 25.7 0v72.1c0 16.5-25.7 16.5-25.7 0" fill="#c1599a" transform="matrix(.06 0 0 -.06 -1286.295 520.6166)"/><path d="m22946.8 8219.1c-1.7 1.1-.6-.4-.5-1.9.4-4.2-.1-8.5-.5-12.6-.9-9.3-3.1-18.5-4.9-27.6-3.2-16.2 21.6-23.1 24.8-6.8 4.1 20.4 16 56.8-5.9 71.1-13.9 9.1-26.8-13.2-13-22.2" fill="#c1599a" transform="matrix(.06 0 0 -.06 -1286.0272 520.5896)"/><path d="m22879.1 8238.8c-5.9-26.2-4.8-52.6 0-78.9 3.1-16.3 27.9-9.4 24.9 6.8-4.1 21.6-5 43.7 0 65.2 3.6 16.2-21.2 23.1-24.9 6.9" fill="#c1599a" transform="matrix(.06 0 0 -.06 -1285.8432 520.5886)"/><path d="m22786.1 8214.8c.3-15.9 5.7-29.8 10.7-44.6 5.3-15.6 30.2-8.9 24.8 6.8-4.2 12.5-9.5 24.5-9.8 37.8-.4 16.5-26.1 16.6-25.7 0" fill="#c1599a" transform="matrix(.06 0 0 -.06 -1285.6138 520.5762)"/><path d="m22708.9 8199.3c0-18.3.1-37.1 5.6-54.8 4.8-15.8 29.7-9.1 24.8 6.8-4.8 15.6-4.7 31.9-4.7 48 0 16.6-25.7 16.6-25.7 0" fill="#c1599a" transform="matrix(.06 0 0 -.06 -1285.4052 520.5172)"/><path d="m25221.3 7467-481.4 365.3-765.2 233.3-599.2 8-395.9-220.7 3.7-244.7s19.1 119.6 168.6 204.8c149.4 85.2 337.6 198.7 756.1 96.4 489.2-119.7 854.2-246.1 1037.7-384.2 158.2-119.1 313.1-343.7 308.5-369.5s72.3 43.5 72.3 43.5z" fill="#994575" transform="matrix(.06 0 0 -.06 -1289.213 519.0162)"/><path d="m25403 7196.9-267-343.1-647.6-171.9-773.5 197.8-551.1 342.9-207.2 246.9-67.3 308.1-108.4-206.2s-52.7-106.5 97.3-358.6c126.5-212.7 768.7-641.8 1305.8-715.7 1153.6-158.8 1217 440.9 1217 440.9z" fill="#994575" transform="matrix(.06 0 0 -.06 -1289.0476 517.7182)"/><path d="m25188.3 7015.7c-196.9-248.2-716.1-333-1362-91.2-485.3 181.7-914.2 442-830.5 800.4 93.3 399.7 725.8 355.4 1086.4 276.5 1043.2-228.2 1339.9-691.1 1106.1-985.7zm-1116.3 1072.6c-387.1 84.7-1090.8 82.9-1191-346.1-89.9-384.8 384.6-724.4 896.5-942.3 649-276.2 1341.3-111.7 1552.7 154.7 250.9 316.3-138.4 888.7-1258.2 1133.7" fill="#ecceed" transform="matrix(.06 0 0 -.06 -1289.1778 518.4436)"/><path d="m23049.8 7219.3c-7.6-41.5-42.1-71.1-49.8-113.1-3-16.3 22.6-18.9 25.5-2.7 7.7 41.5 42.2 71.1 49.9 113.2 3 16.3-22.7 18.9-25.6 2.6" fill="#c1599a" transform="matrix(.06 0 0 -.06 -1286.242 517.8164)"/><path d="m23203.3 7089.2c-19.1-33.3-40.6-65.1-60.4-97.9-8.5-14.1 12-29.6 20.6-15.4 19.8 32.8 41.3 64.6 60.4 97.9 8.2 14.2-12.4 29.7-20.6 15.4" fill="#c1599a" transform="matrix(.06 0 0 -.06 -1286.6304 517.4748)"/><path d="m23327.4 6998.2c-14.9-39.1-26.4-79.8-50-114.9-9.2-13.7 11.4-29.1 20.6-15.4 25 37.1 37.6 79.6 53.4 121 5.9 15.4-18 24.8-24 9.3" fill="#c1599a" transform="matrix(.06 0 0 -.06 -1286.9726 517.211)"/><path d="m23623.9 6838c-9.7-38.5-19.4-76.9-33.6-114-5.9-15.5 18.1-24.9 24-9.4 14.2 37.2 23.8 75.5 33.6 114 4 15.8-19.9 25.4-24 9.4" fill="#c1599a" transform="matrix(.06 0 0 -.06 -1287.7916 516.797)"/><path d="m23982.5 6690.6c6.8-30.2-9.2-62-9.8-92.3-.4-16.5 25.2-19.3 25.5-2.7.8 32.9 17.1 66 9.8 99-3.6 16.1-29.1 12.2-25.5-4" fill="#c1599a" transform="matrix(.06 0 0 -.06 -1288.7874 516.4402)"/><path d="m24301 6633.7c-11.7-29.9-24.3-60.9-25-93.4-.4-16.4 25.2-19.3 25.6-2.7.7 30.3 12.5 58.8 23.4 86.7 6 15.4-17.9 24.8-24 9.4" fill="#c1599a" transform="matrix(.06 0 0 -.06 -1289.6088 516.2818)"/><path d="m24558.3 6612.1c-4.4-29-16.7-56.3-22.3-85.2-3.1-16.3 22.5-18.8 25.6-2.7 5.6 28.9 17.9 56.2 22.3 85.3 2.5 16.3-23.1 19-25.6 2.6" fill="#c1599a" transform="matrix(.06 0 0 -.06 -1290.3046 516.2338)"/><path d="m24929.4 6686c-13.8-35.1-27.5-70.2-41.3-105.4-6-15.4 17.9-24.8 24-9.4 13.7 35.2 27.5 70.3 41.3 105.5 6 15.4-18 24.8-24 9.3" fill="#c1599a" transform="matrix(.06 0 0 -.06 -1291.265 516.3984)"/><path d="m22829.2 7574.6c-14.8-36.9-33.8-71.6-52.8-106.4-7.9-14.6 16.2-23.8 24-9.4 19 34.9 37.9 69.6 52.7 106.4 6.2 15.4-17.7 24.8-23.9 9.4" fill="#c1599a" transform="matrix(.06 0 0 -.06 -1285.6482 518.7712)"/><path d="m22885 7392.5c-10.2-26.1-20.2-52.6-35-76.6-8.7-14 11.9-29.5 20.6-15.4 16.1 26 27.2 54.3 38.3 82.6 6.1 15.5-17.9 24.9-23.9 9.4" fill="#c1599a" transform="matrix(.06 0 0 -.06 -1285.8234 518.3114)"/><path d="m22965.3 7282.3c1-28.8-19.7-60.3-30.1-86.3-6.2-15.4 17.7-24.7 23.9-9.3 12.7 31.5 32.9 64.6 31.6 99.6-.6 16.5-26 12.4-25.4-4" fill="#c1599a" transform="matrix(.06 0 0 -.06 -1286.0382 518.0186)"/><path d="m23130.4 7128.8c-16.2-27.9-28.5-57.4-40.3-87.4-6-15.4 17.9-24.8 24-9.4 10.9 27.8 21.9 55.5 36.9 81.4 8.2 14.2-12.3 29.7-20.6 15.4" fill="#c1599a" transform="matrix(.06 0 0 -.06 -1286.4612 517.5986)"/><path d="m23256.6 7027.8c-2.4-33.1-14-64.4-21.2-96.7-3.7-16.1 22-18.7 25.6-2.6 7.2 32.3 18.8 63.4 21.2 96.6 1.2 16.5-24.3 19.3-25.6 2.7" fill="#c1599a" transform="matrix(.06 0 0 -.06 -1286.8284 517.328)"/><path d="m23381.4 6951.3c-4.8-38.4-22.6-73.5-32.7-110.6-4.3-15.8 19.6-25.4 23.9-9.4 10.7 39.4 29.3 76.5 34.4 117.4 2.1 16.4-23.5 19.1-25.6 2.6" fill="#c1599a" transform="matrix(.06 0 0 -.06 -1287.149 517.1044)"/><path d="m23462.9 6906.5c-14.9-38.1-29.7-76.4-34.4-117.3-1.9-16.4 23.6-19.2 25.6-2.7 4.5 38.7 18.6 74.7 32.7 110.7 6.1 15.4-17.9 24.8-23.9 9.3" fill="#c1599a" transform="matrix(.06 0 0 -.06 -1287.3654 516.9758)"/><path d="m23505.1 6873.4c-13.2-35-22-71.3-30.6-107.7-3.8-16.1 21.8-18.6 25.6-2.7 8.1 34.2 16.5 68.1 29 101 5.9 15.5-18.1 24.9-24 9.4" fill="#c1599a" transform="matrix(.06 0 0 -.06 -1287.4842 516.898)"/><path d="m24696.9 7771.8c-9.1-24.2-14.3-49.6-23.4-73.8-5.8-15.5 18.2-24.9 24-9.3 9 24.2 14.3 49.5 23.3 73.7 5.8 15.5-18.1 24.9-23.9 9.4" fill="#c1599a" transform="matrix(.06 0 0 -.06 -1290.669 519.3326)"/><path d="m24738.4 7732c1-18.2-5.2-36.9-6.3-55-1.1-16.5 24.5-19.3 25.6-2.7 1.3 20.6 7.3 41 6.1 61.7-.9 16.5-26.3 12.4-25.4-4" fill="#c1599a" transform="matrix(.06 0 0 -.06 -1290.8006 519.2704)"/><path d="m24795.8 7699.9c-5.6-14.4-11.2-28.7-16.9-43.1-6-15.5 17.9-24.9 24-9.4 5.6 14.4 11.3 28.8 16.9 43.1 6 15.5-17.9 24.9-24 9.4" fill="#c1599a" transform="matrix(.06 0 0 -.06 -1290.941 519.189)"/><path d="m24922.5 7628.2c-6.1-15.7-11.7-31.4-12.9-48.3-1.2-16.5 24.4-19.3 25.6-2.7 1 14.7 5.9 28 11.2 41.6 6.1 15.5-17.9 24.9-23.9 9.4" fill="#c1599a" transform="matrix(.06 0 0 -.06 -1291.2882 518.9954)"/><path d="m25000.5 7568.6c1.4-18.8-.6-38.1-1.6-56.9-.8-16.5 24.8-19.3 25.6-2.7 1.1 21.1 3 42.5 1.4 63.6-1.2 16.5-26.6 12.4-25.4-4" fill="#c1599a" transform="matrix(.06 0 0 -.06 -1291.512 518.8294)"/><path d="m25074.4 7508c-5.6-14.3-10.1-28.3-11.1-43.6-1.1-16.5 24.5-19.3 25.6-2.7.9 13.2 4.6 24.7 9.4 36.9 6.1 15.4-17.9 24.8-23.9 9.4" fill="#c1599a" transform="matrix(.06 0 0 -.06 -1291.6968 518.6726)"/><path d="m25155.6 7394.6c2.1-5.9-3.6-20.8-8.8-27.4-10.2-13.1 10.5-28.5 20.6-15.4 10.8 13.9 17.9 35.8 11.8 53.1-5.6 15.6-29.2 5.2-23.6-10.3" fill="#c1599a" transform="matrix(.06 0 0 -.06 -1291.905 518.4032)"/><path d="m24600 7820.8c-8.8-22.4-17.5-44.7-26.3-67.1-6-15.5 17.9-24.8 24-9.4 8.7 22.4 17.5 44.7 26.2 67.1 6.1 15.5-17.9 24.8-23.9 9.4" fill="#c1599a" transform="matrix(.06 0 0 -.06 -1290.4086 519.473)"/><path d="m24500.4 7831.3c-1.1 1.6-.7-.2-1.2-1.7-1.1-4-3.2-7.8-5-11.5-4.2-8.3-9.6-16.1-14.6-23.9-8.9-13.9 11.6-29.3 20.6-15.4 11.2 17.5 35.6 47.1 20.4 68.4-9.6 13.6-29.8-2.5-20.2-15.9" fill="#c1599a" transform="matrix(.06 0 0 -.06 -1290.1458 519.561)"/><path d="m24444.6 7874.2c-15.1-22.2-23.7-47.1-28.8-73.4-3.1-16.3 22.5-18.9 25.6-2.7 4.2 21.6 11.4 42.5 23.8 60.7 9.3 13.7-11.3 29.2-20.6 15.4" fill="#c1599a" transform="matrix(.06 0 0 -.06 -1289.983 519.6128)"/><path d="m24349.2 7885.8c-5.5-14.9-5.6-29.8-6.3-45.4-.7-16.5 24.9-19.3 25.6-2.7.6 13.1 0 26.3 4.6 38.8 5.7 15.5-18.2 24.9-23.9 9.3" fill="#c1599a" transform="matrix(.06 0 0 -.06 -1289.7658 519.6808)"/><path d="m24271.7 7899.6c-6.7-17.1-13.4-34.7-14.8-53.1-1.3-16.5 24.3-19.3 25.6-2.7 1.2 16.2 7.2 31.4 13.1 46.4 6.1 15.5-17.9 24.8-23.9 9.4" fill="#c1599a" transform="matrix(.06 0 0 -.06 -1289.5432 519.7142)"/><path d="m23049.7 7028.3 18.5-180.5s49.4 6.2 91.8 18.5c42.4 12.4 81 22.4 81 22.4s-67.9 37-106.4 64.8c-38.6 27.8-84.9 74.8-84.9 74.8" fill="#703459" transform="matrix(.06 0 0 -.06 -1286.531 517.223)"/></svg>