<?xml version="1.0" encoding="UTF-8" standalone="no" ?>
<!DOCTYPE svg PUBLIC "-//W3C//DTD SVG 1.1//EN" "http://www.w3.org/Graphics/SVG/1.1/DTD/svg11.dtd">
<svg xmlns="http://www.w3.org/2000/svg" xmlns:xlink="http://www.w3.org/1999/xlink" version="1.1" width="573" height="303" viewBox="0 0 573 303" xml:space="preserve">
<desc>Created with Fabric.js 3.6.3</desc>
<defs>
</defs>
<g transform="matrix(1 0 0 1 289 152)"  >
<g style=""   >
		<g transform="matrix(0.03 0 0 -0.03 0.82 76.85)" id="cz_phMEi67CJ0A8vQhk61"  >
<path style="stroke: none; stroke-width: 1; stroke-dasharray: none; stroke-linecap: butt; stroke-dashoffset: 0; stroke-linejoin: miter; stroke-miterlimit: 4; fill: rgb(204,23,44); fill-rule: nonzero; opacity: 1;" vector-effect="non-scaling-stroke"  transform=" translate(-9978.1, -2630.07)" d="M 8633.6 5260.2 L 8650.5 5249.95 L 56.100000000000364 -0.0500000000001819 L 19900.1 -0.0500000000001819 L 19900.1 5260.15 L 8634.099999999999 5260.15" stroke-linecap="round" />
</g>
		<g transform="matrix(0.03 0 0 -0.03 0 -77.14)" id="rCRR1sOCQCuisBWS4RRaW"  >
<path style="stroke: none; stroke-width: 1; stroke-dasharray: none; stroke-linecap: butt; stroke-dashoffset: 0; stroke-linejoin: miter; stroke-miterlimit: 4; fill: rgb(7,60,165); fill-rule: nonzero; opacity: 1;" vector-effect="non-scaling-stroke"  transform=" translate(-9950, -7880.1)" d="M 19900 10500 L 0 10500 L 0 10497.4 L 8633.6 5260.2 L 19899.6 5260.2 L 19899.6 10500" stroke-linecap="round" />
</g>
		<g transform="matrix(0.03 0 0 -0.03 -164.99 0.04)" id="4"  >
<path style="stroke: none; stroke-width: 1; stroke-dasharray: none; stroke-linecap: butt; stroke-dashoffset: 0; stroke-linejoin: miter; stroke-miterlimit: 4; fill: rgb(255,255,255); fill-rule: nonzero; opacity: 1;" vector-effect="non-scaling-stroke"  transform=" translate(-4325.22, -5248.7)" d="M 0 10497 L 0 0 L 56.066 0 L 8650.466 5250 L -0.033999999999650754 10497.4" stroke-linecap="round" />
</g>
		<g transform="matrix(0.03 0 0 -0.03 -199.33 -0.21)" id="lD-XsuBRQgZJj2bIHol61"  >
<path style="stroke: none; stroke-width: 1; stroke-dasharray: none; stroke-linecap: butt; stroke-dashoffset: 0; stroke-linejoin: miter; stroke-miterlimit: 4; fill: rgb(251,208,54); fill-rule: nonzero; opacity: 1;" vector-effect="non-scaling-stroke"  transform=" translate(-3154.59, -5257.4)" d="M 4141.8 5257.4 C 4141.8 4680.9 3699.79 4213.599999999999 3154.59 4213.599999999999 C 2609.38 4213.599999999999 2167.37 4680.919999999999 2167.37 5257.4 C 2167.37 5833.87 2609.38 6301.2 3154.59 6301.2 C 3699.79 6301.2 4141.8 5833.9 4141.8 5257.4" stroke-linecap="round" />
</g>
		<g transform="matrix(0.03 0 0 -0.03 -199.7 -47.85)" id="dcRZ04mbQzbLCan2VusPw"  >
<path style="stroke: none; stroke-width: 1; stroke-dasharray: none; stroke-linecap: butt; stroke-dashoffset: 0; stroke-linejoin: miter; stroke-miterlimit: 4; fill: rgb(251,208,54); fill-rule: nonzero; opacity: 1;" vector-effect="non-scaling-stroke"  transform=" translate(-3141.93, -6881.44)" d="M 3150.3 7478.3 L 3011.8 7331.87 L 3083.17 6297.87 L 3213.26 6284.58 L 3272.05 7345.18 L 3150.3 7478.31" stroke-linecap="round" />
</g>
		<g transform="matrix(0.03 0 0 -0.03 -192.44 -44.14)" id="nzDPZxONqt-ig8se1Eiwx"  >
<path style="stroke: none; stroke-width: 1; stroke-dasharray: none; stroke-linecap: butt; stroke-dashoffset: 0; stroke-linejoin: miter; stroke-miterlimit: 4; fill: rgb(251,208,54); fill-rule: nonzero; opacity: 1;" vector-effect="non-scaling-stroke"  transform=" translate(-3389.57, -6754.97)" d="M 3398 7238.7 L 3280.45 6280.12 L 3326.6299999999997 6271.23 L 3498.6899999999996 7123.299999999999 L 3397.9999999999995 7238.699999999999" stroke-linecap="round" />
</g>
		<g transform="matrix(0.03 0 0 -0.03 -206.6 -44.01)" id="vIAK1q3xu5X4tFZETV_a-"  >
<path style="stroke: none; stroke-width: 1; stroke-dasharray: none; stroke-linecap: butt; stroke-dashoffset: 0; stroke-linejoin: miter; stroke-miterlimit: 4; fill: rgb(251,208,54); fill-rule: nonzero; opacity: 1;" vector-effect="non-scaling-stroke"  transform=" translate(-2906.89, -6750.58)" d="M 2898.5 7234.3 L 3016.02 6275.71 L 2969.84 6266.86 L 2797.77 7118.9 L 2898.5 7234.299999999999" stroke-linecap="round" />
</g>
		<g transform="matrix(0.03 0 0 -0.03 -168.19 -33.02)" id="gvnz5jGDKrMa7nZVlMCjM"  >
<path style="stroke: none; stroke-width: 1; stroke-dasharray: none; stroke-linecap: butt; stroke-dashoffset: 0; stroke-linejoin: miter; stroke-miterlimit: 4; fill: rgb(251,208,54); fill-rule: nonzero; opacity: 1;" vector-effect="non-scaling-stroke"  transform=" translate(-4216.22, -6375.65)" d="M 4636.9 6818.2 L 4441.009999999999 6819.45 L 3795.539999999999 6039.07 L 3878.009999999999 5931.849999999999 L 4632.879999999999 6633.08 L 4636.9 6818.2" stroke-linecap="round" />
</g>
		<g transform="matrix(0.03 0 0 -0.03 -166.14 -26.41)" id="ckNJuF58FSdlSEuc-4xLw"  >
<path style="stroke: none; stroke-width: 1; stroke-dasharray: none; stroke-linecap: butt; stroke-dashoffset: 0; stroke-linejoin: miter; stroke-miterlimit: 4; fill: rgb(251,208,54); fill-rule: nonzero; opacity: 1;" vector-effect="non-scaling-stroke"  transform=" translate(-4285.95, -6150.38)" d="M 4649.7 6463.5 L 3922.21 5878.18 L 3948.69 5837.25 L 4642.88 6306.64 L 4649.7 6463.5" stroke-linecap="round" />
</g>
		<g transform="matrix(0.03 0 0 -0.03 -174.67 -35.34)" id="dXP51e_1zoJoFTA0fjvJx"  >
<path style="stroke: none; stroke-width: 1; stroke-dasharray: none; stroke-linecap: butt; stroke-dashoffset: 0; stroke-linejoin: miter; stroke-miterlimit: 4; fill: rgb(251,208,54); fill-rule: nonzero; opacity: 1;" vector-effect="non-scaling-stroke"  transform=" translate(-3995.35, -6455.07)" d="M 4295.7 6836.1 L 3733.41 6074.030000000001 L 3695 6102.51 L 4147.27 6830.77 L 4295.700000000001 6836.1" stroke-linecap="round" />
</g>
		<g transform="matrix(0.03 0 0 -0.03 -154.71 -0.18)" id="4"  >
<path style="stroke: none; stroke-width: 1; stroke-dasharray: none; stroke-linecap: butt; stroke-dashoffset: 0; stroke-linejoin: miter; stroke-miterlimit: 4; fill: rgb(251,208,54); fill-rule: nonzero; opacity: 1;" vector-effect="non-scaling-stroke"  transform=" translate(-4675.74, -5256.36)" d="M 5240.4 5246.6 L 5102.73 5393.97 L 4124.42 5324.71 L 4111.04 5187.25 L 5113.84 5118.75 L 5240.45 5246.6" stroke-linecap="round" />
</g>
		<g transform="matrix(0.03 0 0 -0.03 -158.25 7.39)" id="jDC8hTh0d7kRObN8qF2G8"  >
<path style="stroke: none; stroke-width: 1; stroke-dasharray: none; stroke-linecap: butt; stroke-dashoffset: 0; stroke-linejoin: miter; stroke-miterlimit: 4; fill: rgb(251,208,54); fill-rule: nonzero; opacity: 1;" vector-effect="non-scaling-stroke"  transform=" translate(-4555.06, -4998.3)" d="M 5012.3 4986.2 L 4106.46 5116.22 L 4097.82 5067.47 L 4902.59 4880.38 L 5012.3 4986.2" stroke-linecap="round" />
</g>
		<g transform="matrix(0.03 0 0 -0.03 -158.3 -7.58)" id="X0kTie035b1rEHYSf2jb2"  >
<path style="stroke: none; stroke-width: 1; stroke-dasharray: none; stroke-linecap: butt; stroke-dashoffset: 0; stroke-linejoin: miter; stroke-miterlimit: 4; fill: rgb(251,208,54); fill-rule: nonzero; opacity: 1;" vector-effect="non-scaling-stroke"  transform=" translate(-4553.41, -5508.65)" d="M 5011.1 5514.3 L 4103.860000000001 5395.820000000001 L 4095.7100000000005 5444.6900000000005 L 4902.570000000001 5621.4800000000005 L 5011.1 5514.3" stroke-linecap="round" />
</g>
		<g transform="matrix(0.03 0 0 -0.03 -168.74 32.86)" id="5"  >
<path style="stroke: none; stroke-width: 1; stroke-dasharray: none; stroke-linecap: butt; stroke-dashoffset: 0; stroke-linejoin: miter; stroke-miterlimit: 4; fill: rgb(251,208,54); fill-rule: nonzero; opacity: 1;" vector-effect="non-scaling-stroke"  transform=" translate(-4197.54, -4130.01)" d="M 4616.1 3685.2 L 4617.27 3892.31 L 3879.1800000000003 4574.83 L 3777.8100000000004 4487.6 L 4441.05 3689.4700000000003 L 4616.1 3685.2000000000003" stroke-linecap="round" />
</g>
		<g transform="matrix(0.03 0 0 -0.03 -174.99 35.02)" id="8"  >
<path style="stroke: none; stroke-width: 1; stroke-dasharray: none; stroke-linecap: butt; stroke-dashoffset: 0; stroke-linejoin: miter; stroke-miterlimit: 4; fill: rgb(251,208,54); fill-rule: nonzero; opacity: 1;" vector-effect="non-scaling-stroke"  transform=" translate(-3984.53, -4056.3)" d="M 4280.7 3671.7 L 3727.1299999999997 4440.9 L 3688.3699999999994 4412.91 L 4132.349999999999 3678.91 L 4280.7 3671.7" stroke-linecap="round" />
</g>
		<g transform="matrix(0.03 0 0 -0.03 -166.54 26)" id="h9mqeitDa0xrhq5YpvFp6"  >
<path style="stroke: none; stroke-width: 1; stroke-dasharray: none; stroke-linecap: butt; stroke-dashoffset: 0; stroke-linejoin: miter; stroke-miterlimit: 4; fill: rgb(251,208,54); fill-rule: nonzero; opacity: 1;" vector-effect="non-scaling-stroke"  transform=" translate(-4272.6, -4363.59)" d="M 4633 4046 L 3912.21 4640.57 L 3939.18 4681.179999999999 L 4627.96 4202.929999999999 L 4633 4045.9999999999995" stroke-linecap="round" />
</g>
		<g transform="matrix(0.03 0 0 -0.03 -230.65 32.68)" id="WpP8I-KzQXQzyh4o3U36Y"  >
<path style="stroke: none; stroke-width: 1; stroke-dasharray: none; stroke-linecap: butt; stroke-dashoffset: 0; stroke-linejoin: miter; stroke-miterlimit: 4; fill: rgb(251,208,54); fill-rule: nonzero; opacity: 1;" vector-effect="non-scaling-stroke"  transform=" translate(-2086.68, -4136.1)" d="M 1666 3693.5 L 1861.85 3692.3 L 2507.3599999999997 4472.68 L 2424.8499999999995 4579.900000000001 L 1670.0099999999993 3878.6300000000006 L 1665.9999999999993 3693.5000000000005" stroke-linecap="round" />
</g>
		<g transform="matrix(0.03 0 0 -0.03 -232.7 26.07)" id="a0vsx5op4ZgWG3VAb9alJ"  >
<path style="stroke: none; stroke-width: 1; stroke-dasharray: none; stroke-linecap: butt; stroke-dashoffset: 0; stroke-linejoin: miter; stroke-miterlimit: 4; fill: rgb(251,208,54); fill-rule: nonzero; opacity: 1;" vector-effect="non-scaling-stroke"  transform=" translate(-2016.85, -4361.32)" d="M 1653.1 4048.2 L 2380.59 4633.48 L 2354.1200000000003 4674.45 L 1659.9600000000005 4205.0599999999995 L 1653.1000000000006 4048.1999999999994" stroke-linecap="round" />
</g>
		<g transform="matrix(0.03 0 0 -0.03 -224.18 35.01)" id="iG_73xwoB2aaCnK-QIW1u"  >
<path style="stroke: none; stroke-width: 1; stroke-dasharray: none; stroke-linecap: butt; stroke-dashoffset: 0; stroke-linejoin: miter; stroke-miterlimit: 4; fill: rgb(251,208,54); fill-rule: nonzero; opacity: 1;" vector-effect="non-scaling-stroke"  transform=" translate(-2307.57, -4056.65)" d="M 2007.2 3675.6 L 2569.53 4437.71 L 2607.94 4409.24 L 2155.63 3680.9799999999996 L 2007.2 3675.5999999999995" stroke-linecap="round" />
</g>
		<g transform="matrix(0.03 0 0 -0.03 -244.51 0.05)" id="IIeV8MPHZogZ9um_P0e6u"  >
<path style="stroke: none; stroke-width: 1; stroke-dasharray: none; stroke-linecap: butt; stroke-dashoffset: 0; stroke-linejoin: miter; stroke-miterlimit: 4; fill: rgb(251,208,54); fill-rule: nonzero; opacity: 1;" vector-effect="non-scaling-stroke"  transform=" translate(-1614.19, -5248.55)" d="M 1049.5 5258.3 L 1187.2 5110.95 L 2165.51 5180.16 L 2178.88 5317.67 L 1176.18 5386.15 L 1049.54 5258.299999999999" stroke-linecap="round" />
</g>
		<g transform="matrix(0.03 0 0 -0.03 -240.97 -7.52)" id="Mu_TjVsc6MeVmzBhKk_P9"  >
<path style="stroke: none; stroke-width: 1; stroke-dasharray: none; stroke-linecap: butt; stroke-dashoffset: 0; stroke-linejoin: miter; stroke-miterlimit: 4; fill: rgb(251,208,54); fill-rule: nonzero; opacity: 1;" vector-effect="non-scaling-stroke"  transform=" translate(-1734.86, -5506.61)" d="M 1277.6 5518.7 L 2183.49 5388.69 L 2192.12 5437.429999999999 L 1387.35 5624.53 L 1277.6 5518.7" stroke-linecap="round" />
</g>
		<g transform="matrix(0.03 0 0 -0.03 -240.93 7.45)" id="BMnOKCRih4Xb_tKfbeCSu"  >
<path style="stroke: none; stroke-width: 1; stroke-dasharray: none; stroke-linecap: butt; stroke-dashoffset: 0; stroke-linejoin: miter; stroke-miterlimit: 4; fill: rgb(251,208,54); fill-rule: nonzero; opacity: 1;" vector-effect="non-scaling-stroke"  transform=" translate(-1736.49, -4996.25)" d="M 1278.8 4990.6 L 2186.08 5109.08 L 2194.19 5060.22 L 1387.33 4883.42 L 1278.8 4990.6" stroke-linecap="round" />
</g>
		<g transform="matrix(0.03 0 0 -0.03 -230.11 -33.39)" id="VXnLx5gLeTzYlvbpWAyZX"  >
<path style="stroke: none; stroke-width: 1; stroke-dasharray: none; stroke-linecap: butt; stroke-dashoffset: 0; stroke-linejoin: miter; stroke-miterlimit: 4; fill: rgb(251,208,54); fill-rule: nonzero; opacity: 1;" vector-effect="non-scaling-stroke"  transform=" translate(-2105.26, -6388.59)" d="M 1686.7 6833.4 L 1685.53 6626.32 L 2423.59 5943.79 L 2525 6030.99 L 1861.8 6829.15 L 1686.7 6833.4" stroke-linecap="round" />
</g>
		<g transform="matrix(0.03 0 0 -0.03 -223.86 -35.56)" id="uhEhypJsbF-Joxtq5dGgy"  >
<path style="stroke: none; stroke-width: 1; stroke-dasharray: none; stroke-linecap: butt; stroke-dashoffset: 0; stroke-linejoin: miter; stroke-miterlimit: 4; fill: rgb(251,208,54); fill-rule: nonzero; opacity: 1;" vector-effect="non-scaling-stroke"  transform=" translate(-2318.37, -6462.3)" d="M 2022.2 6846.9 L 2575.78 6077.709999999999 L 2614.53 6105.699999999999 L 2170.55 6839.699999999999 L 2022.2000000000003 6846.899999999999" stroke-linecap="round" />
</g>
		<g transform="matrix(0.03 0 0 -0.03 -232.31 -26.54)" id="1"  >
<path style="stroke: none; stroke-width: 1; stroke-dasharray: none; stroke-linecap: butt; stroke-dashoffset: 0; stroke-linejoin: miter; stroke-miterlimit: 4; fill: rgb(251,208,54); fill-rule: nonzero; opacity: 1;" vector-effect="non-scaling-stroke"  transform=" translate(-2030.19, -6155.03)" d="M 1669.8 6472.6 L 2390.58 5878.070000000001 L 2363.65 5837.460000000001 L 1674.88 6315.660000000001 L 1669.8000000000002 6472.6" stroke-linecap="round" />
</g>
		<g transform="matrix(0.03 0 0 -0.03 -199.41 46.91)" id="cJSTUXFDi6FsBMJd-Wll9"  >
<path style="stroke: none; stroke-width: 1; stroke-dasharray: none; stroke-linecap: butt; stroke-dashoffset: 0; stroke-linejoin: miter; stroke-miterlimit: 4; fill: rgb(251,208,54); fill-rule: nonzero; opacity: 1;" vector-effect="non-scaling-stroke"  transform=" translate(-3151.88, -3651.05)" d="M 3142.7 3054 L 3282.02 3199.55 L 3216.56 4233.950000000001 L 3086.5099999999998 4248.090000000001 L 3021.7299999999996 3187.8900000000012 L 3142.6999999999994 3054.0000000000014" stroke-linecap="round" />
</g>
		<g transform="matrix(0.03 0 0 -0.03 -206.57 43.16)" id="GZs3o7D5_8_uQiWnJXPdv"  >
<path style="stroke: none; stroke-width: 1; stroke-dasharray: none; stroke-linecap: butt; stroke-dashoffset: 0; stroke-linejoin: miter; stroke-miterlimit: 4; fill: rgb(251,208,54); fill-rule: nonzero; opacity: 1;" vector-effect="non-scaling-stroke"  transform=" translate(-2907.84, -3778.67)" d="M 2896.4 3295.2 L 3019.37 4253.0199999999995 L 2973.27 4262.15 L 2796.31 3411.24 L 2896.4 3295.2" stroke-linecap="round" />
</g>
		<g transform="matrix(0.03 0 0 -0.03 -192.41 43.11)" id="Zbk8Cj9tm-EsKdgGMM9cp"  >
<path style="stroke: none; stroke-width: 1; stroke-dasharray: none; stroke-linecap: butt; stroke-dashoffset: 0; stroke-linejoin: miter; stroke-miterlimit: 4; fill: rgb(251,208,54); fill-rule: nonzero; opacity: 1;" vector-effect="non-scaling-stroke"  transform=" translate(-3390.57, -3780.34)" d="M 3395.9 3296.4 L 3283.84 4255.6900000000005 L 3330.06 4264.27 L 3497.31 3411.1400000000003 L 3395.9 3296.4000000000005" stroke-linecap="round" />
</g>
		<g transform="matrix(0.03 0 0 -0.03 -267.47 -111.17)" id="jh8GUYNgOZAlLJkxAtAf1"  >
<path style="stroke: none; stroke-width: 1; stroke-dasharray: none; stroke-linecap: butt; stroke-dashoffset: 0; stroke-linejoin: miter; stroke-miterlimit: 4; fill: rgb(251,208,54); fill-rule: nonzero; opacity: 1;" vector-effect="non-scaling-stroke"  transform=" translate(-831.66, -9040.22)" d="M 571.27 9585.4 L 871.0699999999999 9300.94 L 1219.59 9514.5 L 1056.35 9125.1 L 1356.1899999999998 8840.630000000001 L 955.4799999999998 8884.45 L 792.2399999999998 8495.04 L 707.8029999999998 8911.52 L 307.12299999999976 8955.35 L 655.6829999999998 9168.92 L 571.2849999999997 9585.4" stroke-linecap="round" />
</g>
		<g transform="matrix(0.03 0 0 -0.03 -267.75 111.31)" id="-TlFNxtD8Zj-bOl0FJaBn"  >
<path style="stroke: none; stroke-width: 1; stroke-dasharray: none; stroke-linecap: butt; stroke-dashoffset: 0; stroke-linejoin: miter; stroke-miterlimit: 4; fill: rgb(251,208,54); fill-rule: nonzero; opacity: 1;" vector-effect="non-scaling-stroke"  transform=" translate(-822.16, -1455.34)" d="M 295.64 1559.5 L 697.87 1582.54 L 801.48 1994.1299999999999 L 946.45 1596.7599999999998 L 1348.69 1619.7499999999998 L 1036.08 1351.1399999999999 L 1181.05 953.7699999999999 L 842.8399999999999 1185.12 L 530.1999999999999 916.55 L 633.8399999999999 1328.15 L 295.62999999999994 1559.5" stroke-linecap="round" />
</g>
		<g transform="matrix(0.03 0 0 -0.03 -82.33 -0.44)" id="ZsI5KZ-aM3l6iKQQJPRLo"  >
<path style="stroke: none; stroke-width: 1; stroke-dasharray: none; stroke-linecap: butt; stroke-dashoffset: 0; stroke-linejoin: miter; stroke-miterlimit: 4; fill: rgb(251,208,54); fill-rule: nonzero; opacity: 1;" vector-effect="non-scaling-stroke"  transform=" translate(-7143.45, -5265.07)" d="M 7242 5821.8 L 7263.75 5396.46 L 7653.02 5286.9 L 7277.1900000000005 5133.62 L 7298.9400000000005 4708.33 L 7044.900000000001 5038.86 L 6669.070000000001 4885.57 L 6887.910000000001 5243.17 L 6633.880000000001 5573.74 L 7023.160000000001 5464.19 L 7242.000000000001 5821.799999999999" stroke-linecap="round" />
</g>
</g>
</g>
</svg>