<svg height="303" viewBox="0 0 573 303" width="573" xmlns="http://www.w3.org/2000/svg"><path d="m8633.6 5260.2 16.9-10.25-8594.4-5250h19844v5260.2h-11266" fill="#cc172c" transform="matrix(.03 0 0 -.03 -9.523 307.7521)"/><path d="m19900 10500h-19900v-2.6l8633.6-5237.2h11266v5239.8" fill="#073ca5" transform="matrix(.03 0 0 -.03 -9.5 311.263)"/><path d="m0 10497v-10497h56.066l8594.4 5250-8650.5 5247.4" fill="#fff" transform="matrix(.03 0 0 -.03 -5.7466 309.501)"/><g fill="#fbd036"><path d="m4141.8 5257.4c0-576.5-442.01-1043.8-987.21-1043.8-545.21 0-987.22 467.32-987.22 1043.8 0 576.47 442.01 1043.8 987.22 1043.8 545.2 0 987.21-467.3 987.21-1043.8" transform="matrix(.03 0 0 -.03 -4.9677 309.512)"/><path d="m3150.3 7478.3-138.5-146.43 71.37-1034 130.09-13.29 58.79 1060.6-121.75 133.13" transform="matrix(.03 0 0 -.03 -4.9579 310.5932)"/><path d="m3398 7238.7-117.55-958.58 46.18-8.89 172.06 852.07z" transform="matrix(.03 0 0 -.03 -5.1271 310.5091)"/><path d="m2898.5 7234.3 117.52-958.59-46.18-8.85-172.07 852.04z" transform="matrix(.03 0 0 -.03 -4.8067 310.5074)"/><path d="m4636.9 6818.2-195.89 1.25-645.47-780.38 82.47-107.22 754.87 701.23z" transform="matrix(.03 0 0 -.03 -5.6766 310.2495)"/><path d="m4649.7 6463.5-727.49-585.32 26.48-40.93 694.19 469.39z" transform="matrix(.03 0 0 -.03 -5.7185 310.1014)"/><path d="m4295.7 6836.1-562.29-762.07-38.41 28.48 452.27 728.26z" transform="matrix(.03 0 0 -.03 -5.5305 310.3121)"/><path d="m5240.4 5246.6-137.67 147.37-978.31-69.26-13.38-137.46 1002.8-68.5 126.61 127.85" transform="matrix(.03 0 0 -.03 -5.9822 309.5108)"/><path d="m5012.3 4986.2-905.84 130.02-8.64-48.75 804.77-187.09z" transform="matrix(.03 0 0 -.03 -5.9018 309.339)"/><path d="m5011.1 5514.3-907.24-118.48-8.15 48.87 806.86 176.79z" transform="matrix(.03 0 0 -.03 -5.9023 309.6795)"/><path d="m4616.1 3685.2 1.17 207.11-738.09 682.52-101.37-87.23 663.24-798.13z" transform="matrix(.03 0 0 -.03 -5.6662 308.7603)"/><path d="m4280.7 3671.7-553.57 769.2-38.76-27.99 443.98-734z" transform="matrix(.03 0 0 -.03 -5.5259 308.709)"/><path d="m4633 4046-720.79 594.57 26.97 40.61 688.78-478.25z" transform="matrix(.03 0 0 -.03 -5.718 308.9077)"/><path d="m1666 3693.5 195.85-1.2 645.51 780.38-82.51 107.22-754.84-701.27z" transform="matrix(.03 0 0 -.03 -4.2504 308.763)"/><path d="m1653.1 4048.2 727.49 585.28-26.47 40.97-694.16-469.39z" transform="matrix(.03 0 0 -.03 -4.2055 308.9096)"/><path d="m2007.2 3675.6 562.33 762.11 38.41-28.47-452.31-728.26z" transform="matrix(.03 0 0 -.03 -4.4071 308.7095)"/><path d="m1049.5 5258.3 137.7-147.35 978.31 69.21 13.37 137.51-1002.7 68.48-126.64-127.85" transform="matrix(.03 0 0 -.03 -3.9357 309.5065)"/><path d="m1277.6 5518.7 905.89-130.01 8.63 48.74-804.77 187.1z" transform="matrix(.03 0 0 -.03 -4.0158 309.6783)"/><path d="m1278.8 4990.6 907.28 118.48 8.11-48.86-806.86-176.8z" transform="matrix(.03 0 0 -.03 -4.0247 309.3375)"/><path d="m1686.7 6833.4-1.17-207.08 738.06-682.53 101.41 87.2-663.2 798.16z" transform="matrix(.03 0 0 -.03 -4.2678 310.2677)"/><path d="m2022.2 6846.9 553.58-769.19 38.75 27.99-443.98 734z" transform="matrix(.03 0 0 -.03 -4.4111 310.309)"/><path d="m1669.8 6472.6 720.78-594.53-26.93-40.61-688.77 478.2z" transform="matrix(.03 0 0 -.03 -4.2157 310.1109)"/><path d="m3142.7 3054 139.32 145.55-65.46 1034.4-130.05 14.14-64.78-1060.2z" transform="matrix(.03 0 0 -.03 -4.9664 308.4415)"/><path d="m2896.4 3295.2 122.97 957.82-46.1 9.13-176.96-850.91z" transform="matrix(.03 0 0 -.03 -4.8052 308.5201)"/><path d="m3395.9 3296.4-112.06 959.29 46.22 8.58 167.25-853.13z" transform="matrix(.03 0 0 -.03 -5.1271 308.5202)"/><path d="m571.27 9585.4 299.8-284.46 348.52 213.56-163.24-389.4 299.84-284.47-400.71 43.82-163.24-389.41-84.437 416.48-400.68 43.83 348.56 213.57-84.398 416.48" transform="matrix(.03 0 0 -.03 -3.4198 312.0366)"/><path d="m295.64 1559.5 402.23 23.04 103.61 411.59 144.97-397.37 402.24 22.99-312.61-268.61 144.97-397.37-338.21 231.35-312.64-268.57 103.64 411.6-338.21 231.35" transform="matrix(.03 0 0 -.03 -3.4148 306.9702)"/><path d="m7242 5821.8 21.75-425.34 389.27-109.56-375.83-153.28 21.75-425.29-254.04 330.53-375.83-153.29 218.84 357.6-254.03 330.57 389.28-109.55z" transform="matrix(.03 0 0 -.03 -7.6335 309.5121)"/></g></svg>