<svg height="182" viewBox="0 0 146 182" width="146" xmlns="http://www.w3.org/2000/svg"><path d="m1218.17 3667.53h469.97c12.55 0 22.49-10.69 21.59-23.21-11.47-158.86-142.99-158.86-256.62-158.86-113.32 0-244.42 8.83-256.52 158.78-1.01 12.54 9 23.29 21.58 23.29" fill="#f6c114" transform="matrix(.13 0 0 -.13 -103.7195 572.1437)"/><path d="m1218.17 3654.13c-3.14 0-5.15-1.68-6.08-2.69-.89-.97-2.38-3.07-2.13-6.12 10.89-135.14 126.09-146.45 243.15-146.45 114.39 0 232.68 0 243.24 146.41.23 3.11-1.28 5.23-2.19 6.2-.92.99-2.91 2.65-6.02 2.65zm234.94-182.08c-95.78 0-256.08 0-269.87 171.12-.79 9.65 2.55 19.3 9.15 26.46 6.63 7.19 16.02 11.31 25.78 11.31h469.97c9.69 0 19.04-4.09 25.65-11.19 6.62-7.11 10-16.73 9.3-26.4-12.36-171.3-155.2-171.3-269.98-171.3" fill="#232323" transform="matrix(.13 0 0 -.13 -103.7195 572.1437)"/><path d="m1671.18 3723.17h-436.05c-30.29 0-48.78 33.4-32.63 59.03 52.39 83.18 145.03 138.46 250.65 138.46s198.27-55.28 250.66-138.46c16.14-25.63-2.34-59.03-32.63-59.03" fill="#f6c114" transform="matrix(.13 0 0 -.13 -103.7195 571.3283)"/><path d="m1453.15 3907.26c-97.71 0-187.17-49.42-239.31-132.21-4.93-7.83-5.2-17.36-.72-25.47 4.49-8.14 12.71-12.99 22-12.99h436.06c9.28 0 17.52 4.85 22.01 12.99 4.48 8.11 4.21 17.64-.72 25.47-52.14 82.79-141.61 132.21-239.32 132.21zm218.03-197.49h-436.06c-19.19 0-36.19 10.04-45.48 26.86-9.26 16.79-8.71 36.5 1.51 52.72 57.08 90.62 155.03 144.72 262 144.72 106.98 0 204.93-54.1 262.01-144.72 10.22-16.22 10.77-35.93 1.51-52.72-9.29-16.82-26.29-26.86-45.49-26.86" fill="#232323" transform="matrix(.13 0 0 -.13 -103.7208 571.3296)"/><path d="m1272.57 3803.38c-2.52 0-5.04.94-6.98 2.82-3.99 3.87-4.11 10.23-.25 14.22 42.16 43.64 95.88 72.1 155.37 82.31 5.48.87 10.67-2.73 11.61-8.21.94-5.46-2.74-10.67-8.21-11.61-55.25-9.48-105.14-35.92-144.3-76.45-1.97-2.06-4.61-3.08-7.24-3.08" fill="#fff" transform="matrix(.13 0 0 -.13 -104.0637 571.2256)"/><path d="m1703.9 3675.68h-501.49c-15.21 0-26.52 14.06-23.27 28.91 2.39 10.94 12.07 18.73 23.27 18.73h501.49c15.61 0 27-14.77 23.03-29.87-2.75-10.47-12.21-17.77-23.03-17.77" fill="#f6c114" transform="matrix(.13 0 0 -.13 -103.7195 571.735)"/><path d="m1202.41 3709.92c-4.86 0-9.14-3.45-10.18-8.19-.92-4.24.9-7.3 2.07-8.76 1.16-1.45 3.77-3.87 8.11-3.87h501.48c4.74 0 8.88 3.19 10.08 7.75.83 3.15.16 6.43-1.83 9.01s-5 4.06-8.25 4.06zm501.48-47.65h-501.48c-11.33 0-21.9 5.07-29 13.88-7.1 8.83-9.79 20.24-7.37 31.3 3.71 16.97 19 29.28 36.37 29.28h501.48c11.63 0 22.38-5.29 29.48-14.49 7.11-9.22 9.49-20.95 6.54-32.2-4.31-16.35-19.11-27.77-36.02-27.77" fill="#232323" transform="matrix(.13 0 0 -.13 -103.7208 571.735)"/><path d="m1178.58 3667.07c0-3.5 2.69-6.39 6.18-6.72 39.68-3.75 41.73-43.5 85.34-43.5 45.74 0 45.74 43.78 91.49 43.78 45.76 0 45.76-43.78 91.53-43.78 45.76 0 45.76 43.78 91.52 43.78 45.78 0 45.78-43.78 91.55-43.78 43.61 0 45.67 39.75 85.36 43.5 3.48.33 6.18 3.22 6.18 6.72 0 3.75-3.04 6.79-6.78 6.79h-535.59c-3.74 0-6.78-3.04-6.78-6.79" fill="#f6c114" transform="matrix(.13 0 0 -.13 -103.7195 571.9168)"/><g fill="#232323"><path d="m1185.99 3673.7h.04zm534.3 0h-.03zm.65-13.25h.1zm-501.04 0c5.21-3.89 9.65-8.14 13.71-12.02 10.6-10.15 18.99-18.16 36.48-18.16 17.5 0 25.88 8.01 36.49 18.17 4.08 3.91 8.5 8.13 13.69 12.01zm183.02 0c5.19-3.88 9.61-8.1 13.7-12.01 10.61-10.16 18.99-18.17 36.49-18.17 17.51 0 25.89 8.01 36.5 18.17 4.09 3.91 8.51 8.13 13.7 12.01zm183.06 0c5.2-3.88 9.62-8.1 13.7-12.01 10.62-10.16 19-18.17 36.51-18.17s25.89 8.01 36.5 18.17c4.06 3.87 8.5 8.12 13.71 12.01zm50.21-57c-28.27 0-43.12 14.2-55.04 25.61-10.62 10.15-19 18.17-36.51 18.17-17.5 0-25.88-8.02-36.49-18.17-11.92-11.41-26.77-25.61-55.04-25.61-28.26 0-43.11 14.2-55.03 25.61-10.61 10.15-18.99 18.17-36.49 18.17-17.49 0-25.87-8.02-36.48-18.17-11.92-11.41-26.76-25.61-55.02-25.61-28.25 0-43.09 14.2-55.02 25.61-9.69 9.27-17.35 16.61-31.57 17.95-10.44.96-18.33 9.59-18.33 20.06 0 11.14 9.05 20.2 20.19 20.2h535.58c11.14 0 20.2-9.06 20.2-20.2 0-10.47-7.89-19.1-18.36-20.06-14.19-1.34-21.86-8.68-31.55-17.95-11.93-11.41-26.78-25.61-55.04-25.61" transform="matrix(.13 0 0 -.13 -103.7208 571.9168)"/><path d="m1368.51 3793.71c-3.46-5.28-10.55-6.76-15.84-3.31-5.29 3.47-6.77 10.56-3.31 15.85s20.12 21.38 25.41 17.92c5.28-3.46-2.8-25.17-6.26-30.46" transform="matrix(.13 0 0 -.13 -104.02 571.378)"/><path d="m1294.68 3779.84c-4.03-4.87-11.25-5.55-16.12-1.53-4.86 4.03-5.55 11.24-1.52 16.11 4.03 4.88 22.37 19.02 27.24 14.99s-5.57-24.7-9.6-29.57" transform="matrix(.13 0 0 -.13 -104.2574 571.4283)"/><path d="m1457.07 3773.61c-.4-6.31-5.84-11.1-12.15-10.7-6.3.4-11.1 5.83-10.7 12.14s6.94 28.53 13.25 28.13c6.3-.39 9.99-23.26 9.6-29.57" transform="matrix(.13 0 0 -.13 -103.7445 571.4652)"/><path d="m1445.47 3847.52c-2.53-5.79-9.28-8.43-15.07-5.9s-8.43 9.27-5.9 15.06 16.27 24.45 22.06 21.91c5.79-2.53 1.44-25.28-1.09-31.07" transform="matrix(.13 0 0 -.13 -103.7724 571.2062)"/><path d="m1546.82 3861.25c3.92-4.96 3.08-12.15-1.88-16.08-4.96-3.92-12.16-3.08-16.07 1.88-3.92 4.96-13.92 25.85-8.96 29.78 4.95 3.92 22.99-10.62 26.91-15.58" transform="matrix(.13 0 0 -.13 -103.4496 571.203)"/><path d="m1547.17 3766.29c1.7-6.09-1.86-12.4-7.95-14.09-6.09-1.7-12.4 1.86-14.09 7.95-1.7 6.08-2.84 29.21 3.25 30.91s17.09-18.68 18.79-24.77" transform="matrix(.13 0 0 -.13 -103.4397 571.5011)"/><path d="m1623.49 3807.15c3.75-5.09 2.65-12.25-2.45-16-5.09-3.74-12.25-2.65-15.99 2.45s-12.99 26.33-7.9 30.08c5.1 3.74 22.6-11.43 26.34-16.53" transform="matrix(.13 0 0 -.13 -103.1897 571.378)"/></g><path d="m1258.38 3783.05c0-5.07-4.1-9.17-9.17-9.17-5.06 0-9.16 4.1-9.16 9.17 0 5.06 4.1 9.16 9.16 9.16 5.07 0 9.17-4.1 9.17-9.16" fill="#fff" transform="matrix(.13 0 0 -.13 -104.3986 571.4565)"/><path d="m1399.01 3694.63h-192.94c-3.7 0-6.7 3-6.7 6.7s3 6.7 6.7 6.7h192.94c3.7 0 6.7-3 6.7-6.7s-3-6.7-6.7-6.7" fill="#fff" transform="matrix(.13 0 0 -.13 -104.2202 571.7329)"/><path d="m1468.62 3694.63h-44.34c-3.7 0-6.7 3-6.7 6.7s3 6.7 6.7 6.7h44.34c3.7 0 6.7-3 6.7-6.7s-3-6.7-6.7-6.7" fill="#fff" transform="matrix(.13 0 0 -.13 -103.7385 571.7329)"/><path d="m1043.75 3906.1s-35.83 231.09-86.738 317.11l-1.539 2.55c-37.68 60.85-131.602 19.08-112.348-49.86l159.445-570.99z" fill="#fff" transform="matrix(.13 0 0 -.13 -105.4195 570.9678)"/><path d="m904.336 4233.78c-6.273 0-12.34-1.46-17.504-3.72-15.062-6.61-30.156-23.25-23.121-48.42l131.672-471.51 26.757 195.73c-4.41 27.28-38.367 230.16-83.519 306.46l-1.281 2.11c-8.844 14.29-21.305 19.35-33.004 19.35zm105.434-734.09-187.247 670.45c-11.468 41.13 7.903 81.87 47.133 99.07 38.918 17.07 81.692 3.84 103.989-32.2l1.781-2.94c52.384-88.52 87.954-315.09 89.454-324.69l.48-3.08-.43-3.09z" fill="#232323" transform="matrix(.13 0 0 -.13 -105.4203 571.1082)"/><path d="m1059.9 3940.8s2.02 233.85-34.31 326.97c-.36.93-.73 1.85-1.1 2.75-27.342 66.16-126.787 40.12-118.939-31.02l65-589.27z" fill="#fff" transform="matrix(.13 0 0 -.13 -105.2876 570.8085)"/><path d="m1059.9 3940.8h.1zm-91.404 346.47c-3.851 0-7.598-.51-11.055-1.4-15.925-4.08-33.503-18.06-30.632-44.03l53.671-486.61 58.05 188.83c.06 27.64-.63 233.32-32.86 315.94l-.93 2.35c-7.674 18.55-22.611 24.92-36.244 24.92zm-7.871-742.04-76.316 691.91c-4.68 42.45 21.027 79.52 62.515 90.15 41.18 10.6 81.226-9.44 97.416-48.6l1.32-3.29c37.33-95.72 35.8-325.06 35.71-334.78l-.02-3.11-.91-2.99z" fill="#232323" transform="matrix(.13 0 0 -.13 -105.2889 570.9471)"/><path d="m1101.49 3980.69s53.59 227.63 38.72 326.47c-.15.99-.3 1.97-.47 2.93-12.06 70.56-114.79 67.12-122.85-4l-66.699-589.08z" fill="#fff" transform="matrix(.13 0 0 -.13 -105.075 570.6069)"/><path d="m950.219 3695.63-2.43.14c-11.734 1.33-20.168 11.92-18.844 23.64l66.707 589.07c4.798 42.44 38.058 72.9 80.878 74.11l2.6.05c41.29 0 74.69-28.03 81.68-68.94l.52-3.21c15.33-101.89-36.8-325.24-39.03-334.69-2.72-11.51-14.26-18.63-25.7-15.91-11.49 2.7-18.62 14.2-15.92 25.7.53 2.24 52.48 224.76 38.4 318.39l-.41 2.49c-4.33 25.39-25.08 33.84-40.93 33.39-16.43-.47-36.67-10.22-39.61-36.17l-66.704-589.08c-1.231-10.92-10.488-18.98-21.207-18.98" fill="#232323" transform="matrix(.13 0 0 -.13 -105.0724 570.6069)"/><path d="m1071.7 3957.31c47.86 41.91 107.23 71.5 173.55 83.12 20.38 3.58 43.86 5.96 43.86 5.96 89.23 9.81 122.07-34.51 122.07-34.51 3.41-4.61 16.11-22.31 13.63-45.65-.54-5.11-3.2-23.55-17.8-35.91-14.74-12.49-33.67-12.03-43.65-11.91-58.59.74-111.04-6.14-126.89-8.93-50.06-8.84-84-38.54-95.36-48.48-52.32-45.8-76.45-119.22-73.21-185.22 6.83-139.5 129.36-242.43 266.11-227.4 28.72 3.15 55.69 11.25 80.16 23.35 30.32 14.99 66.99.85 80.17-30.3 12.17-28.75.04-62.21-27.91-76.11-29.83-14.83-62.1-25.63-96.2-31.59-213.86-37.37-452.875 75.5-462.867 292.36-2.398 52.06 16.813 158.14 66.899 193.54z" fill="#fff" transform="matrix(.13 0 0 -.13 -104.5543 571.7812)"/><path d="m1288.61 3305.34c-105.87-.01-209.85 33.22-284.9 93.4-72.874 58.44-113.569 136.71-117.702 226.37-2.203 48.04 13.851 168.11 75.922 211.98 9.648 6.8 22.992 4.52 29.8-5.13 6.805-9.64 4.52-22.98-5.125-29.8-39.558-27.95-60.382-120.81-57.89-175.09 3.551-77.03 38.726-144.45 101.735-194.98 85.94-68.89 214.72-98.46 336.1-77.31 31.38 5.49 61.78 15.48 90.36 29.69 17.75 8.83 25.55 30.19 17.74 48.63-4.14 9.79-11.9 17.22-21.84 20.91-9.67 3.59-20.02 3.1-29.16-1.44-27.31-13.5-56.68-22.07-87.3-25.45-71.3-7.83-143.65 14.4-198.31 61.02-55.42 47.27-87.92 113.54-91.5 186.59-3.82 78.01 27.02 155.54 80.48 202.34 12.33 10.8 49.81 43.59 105.74 53.46 19.95 3.52 72.9 9.99 130.88 9.26 8.66-.16 21.14-.3 29.55 6.84 8.2 6.94 10 18.49 10.36 21.85 1.37 12.84-4.43 23.77-9.55 30.68-.9 1.11-28.3 34.16-102.55 25.98-.4-.04-23.16-2.38-42.51-5.76-60.44-10.59-116.86-37.62-163.15-78.15-8.88-7.76-22.4-6.89-30.17 2-7.78 8.88-6.88 22.38 2 30.16 52.18 45.7 115.79 76.16 183.95 88.1 20.88 3.66 44.39 6.07 45.38 6.17 100.12 11.07 139.77-40.84 141.41-43.06 13.62-18.41 19.91-39.94 17.71-60.63-1-9.44-5.46-33.21-25.24-49.97-20.64-17.46-45.44-17.14-57.32-16.96-57.3.65-108.37-5.99-123.32-8.62-44.18-7.79-74.9-34.68-84.99-43.5-43.89-38.42-69.16-102.83-65.95-168.1 3-61.15 30.17-116.61 76.53-156.14 46.39-39.57 105.33-57.73 165.89-51.05 25.63 2.82 50.2 9.97 73.03 21.27 19.81 9.78 42.17 10.91 63 3.18 20.79-7.72 37.68-23.88 46.32-44.32 16.6-39.2-.12-84.7-38.07-103.58-32.28-16.04-66.59-27.31-102.03-33.51-28.22-4.93-56.84-7.33-85.31-7.33" fill="#232323" transform="matrix(.13 0 0 -.13 -104.5456 571.7751)"/><path d="m1213.87 3347.18c1.05-25 14.2-129.22 14.2-129.22l-207.42-25.98-111.181 410.29s90.691-28.18 119.581-60.09 184.82-195 184.82-195" fill="#fff" transform="matrix(.13 0 0 -.13 -105.0001 572.7469)"/><path d="m1004.87 3168.47-116.038 428.2c-3.086 11.41 3.656 23.14 15.047 26.23 11.457 3.07 23.137-3.66 26.226-15.03l106.315-392.37 167.81 21.02c-3.93 32.13-10.93 91.08-11.71 109.78-.49 11.79 8.66 21.75 20.47 22.24 12.14.32 21.75-8.68 22.24-20.47.8-19.06 9.54-91.68 14.05-127.44l2.68-21.21z" fill="#232323" transform="matrix(.13 0 0 -.13 -104.9926 572.7478)"/><path d="m969.652 3036.46 360.608 39.63-16.27 148.12-360.611-39.62z" fill="#232323" transform="matrix(.13 0 0 -.13 -104.7566 573.6342)"/><path d="m976.965 3165.68 11.605-105.64 318.12 34.96-11.61 105.63zm-26.223-152.8-20.937 190.62 403.105 44.3 20.94-190.63z" fill="#232323" transform="matrix(.13 0 0 -.13 -104.7579 573.6342)"/><path d="m1024.89 3117.49c1.26-11.46 11.57-19.72 23.03-18.46s19.72 11.56 18.46 23.02c-1.25 11.46-11.56 19.73-23.02 18.47s-19.73-11.57-18.47-23.03" fill="#fff" transform="matrix(.13 0 0 -.13 -105.0732 573.6701)"/><path d="m1045.63 3120.28h-.05l-20.69-2.79 21.25 2.35zm-.03-42.76c-21.23 0-39.57 16.03-41.96 37.62v.03c-2.53 23.16 14.25 44.06 37.39 46.6 11.28 1.21 22.24-1.99 31.04-9.04 8.81-7.06 14.33-17.13 15.56-28.35 1.23-11.21-1.97-22.23-9.04-31.04-7.05-8.8-17.12-14.32-28.34-15.57-1.56-.16-3.11-.25-4.65-.25" fill="#fff" transform="matrix(.13 0 0 -.13 -105.0732 573.6701)"/><path d="m1612.31 3978.28c-8.45 0-15.37 6.91-15.37 15.36v111.77c0 8.45 6.92 15.37 15.37 15.37s15.36-6.92 15.36-15.37v-111.77c0-8.45-6.91-15.36-15.36-15.36" fill="#232323" transform="matrix(.13 0 0 -.13 -103.189 570.5689)"/><path d="m1704.1 3938.27c-6.36 5.57-7 15.33-1.43 21.68l73.68 84.06c5.57 6.35 15.32 6.99 21.68 1.42 6.35-5.57 6.99-15.32 1.42-21.68l-73.67-84.05c-5.57-6.36-15.33-7-21.68-1.43" fill="#232323" transform="matrix(.13 0 0 -.13 -102.7278 570.7605)"/><path d="m1772.07 3852.14c-.74 8.42 5.54 15.92 13.96 16.66l111.34 9.8c8.42.74 15.91-5.54 16.65-13.96s-5.54-15.91-13.96-16.65l-111.34-9.8c-8.42-.74-15.91 5.53-16.65 13.95" fill="#232323" transform="matrix(.13 0 0 -.13 -102.4165 571.2107)"/></svg>