<?xml version="1.0" encoding="UTF-8" standalone="no" ?>
<!DOCTYPE svg PUBLIC "-//W3C//DTD SVG 1.1//EN" "http://www.w3.org/Graphics/SVG/1.1/DTD/svg11.dtd">
<svg xmlns="http://www.w3.org/2000/svg" xmlns:xlink="http://www.w3.org/1999/xlink" version="1.1" width="109" height="76" viewBox="0 0 109 76" xml:space="preserve">
<desc>Created with Fabric.js 3.6.3</desc>
<defs>
</defs>
<g transform="matrix(1 0 0 1 60 57)"  >
<g style=""   >
		<g transform="matrix(0.02 0 0 -0.02 30.59 -20.11)" id="fyc-1Gy63oXLX99PZxbAq"  >
<path style="stroke: none; stroke-width: 1; stroke-dasharray: none; stroke-linecap: butt; stroke-dashoffset: 0; stroke-linejoin: miter; stroke-miterlimit: 4; fill: rgb(255,255,255); fill-rule: nonzero; opacity: 1;" vector-effect="non-scaling-stroke"  transform=" translate(-12565.03, -10818.11)" d="M 13487.8 10350.3 C 13487.8 10350.3 13458.4 11264.599999999999 12578.3 11309.5 C 11581.8 11360.4 11643 10324.9 11643 10324.9 C 11643 10324.9 11919 10462.5 12504.5 10446.4 C 13175.3 10428 13487.8 10350.3 13487.8 10350.3" stroke-linecap="round" />
</g>
		<g transform="matrix(0.02 0 0 -0.02 33.05 -50.3)" id="VLxYqZMujeYHYPSldo6R5"  >
<path style="stroke: none; stroke-width: 1; stroke-dasharray: none; stroke-linecap: butt; stroke-dashoffset: 0; stroke-linejoin: miter; stroke-miterlimit: 4; fill: rgb(35,31,32); fill-rule: nonzero; opacity: 1;" vector-effect="non-scaling-stroke"  transform=" translate(-12680.36, -12233.21)" d="M 13299.4 12145.4 C 13254.3 12336.699999999999 13027.199999999999 12153.3 12634.5 12264.8 C 12307.1 12357.8 12200.5 12602.4 12090.6 12517.699999999999 C 11980.7 12432.999999999998 12133.9 12154.099999999999 12603.9 11994.4 C 12953.6 11875.6 13351.8 11923.3 13299.4 12145.4" stroke-linecap="round" />
</g>
		<g transform="matrix(0.02 0 0 -0.02 -42.91 -50.3)" id="EnZqqKNeJKovrVx_IRwVq"  >
<path style="stroke: none; stroke-width: 1; stroke-dasharray: none; stroke-linecap: butt; stroke-dashoffset: 0; stroke-linejoin: miter; stroke-miterlimit: 4; fill: rgb(35,31,32); fill-rule: nonzero; opacity: 1;" vector-effect="non-scaling-stroke"  transform=" translate(-9119.59, -12233.24)" d="M 8514.16 12082.8 C 8542.58 12277.3 8784.71 12114.199999999999 9166.22 12259.3 C 9484.349999999999 12380.3 9569.439999999999 12633.199999999999 9686.25 12558.3 C 9803.05 12483.4 9674.58 12192.3 9220.14 11992.5 C 8882 11843.9 8481.17 11857 8514.16 12082.8" stroke-linecap="round" />
</g>
		<g transform="matrix(0.02 0 0 -0.02 -40.55 -20.43)" id="LKJxINuzwHpunThaMIcnq"  >
<path style="stroke: none; stroke-width: 1; stroke-dasharray: none; stroke-linecap: butt; stroke-dashoffset: 0; stroke-linejoin: miter; stroke-miterlimit: 4; fill: rgb(255,255,255); fill-rule: nonzero; opacity: 1;" vector-effect="non-scaling-stroke"  transform=" translate(-9230.17, -10833.4)" d="M 8307.36 10384.3 C 8307.36 10384.3 8348.900000000001 11298.099999999999 9229.54 11331.4 C 10226.7 11369 10151.7 10334.4 10151.7 10334.4 C 10151.7 10334.4 9877.570000000002 10475.699999999999 9291.86 10467.3 C 8620.92 10457.8 8307.36 10384.3 8307.36 10384.3" stroke-linecap="round" />
</g>
		<g transform="matrix(0.02 0 0 -0.02 40.94 -20.11)" id="ZQOY-RBhQLvAqe8azT8zt"  >
<path style="stroke: none; stroke-width: 1; stroke-dasharray: none; stroke-linecap: butt; stroke-dashoffset: 0; stroke-linejoin: miter; stroke-miterlimit: 4; fill: rgb(239,239,239); fill-rule: nonzero; opacity: 1;" vector-effect="non-scaling-stroke"  transform=" translate(-13050.14, -10818.15)" d="M 12630.6 11316.9 C 13131 11134.9 13157.7 10560.3 13156 10410.6 C 13366.9 10371.5 13468.4 10319.4 13468.4 10319.4 C 13468.4 10319.4 13538.9 11294.5 12630.6 11316.9" stroke-linecap="round" />
</g>
		<g transform="matrix(0.02 0 0 -0.02 -29.82 -20.43)" id="RhmEmy0CjRkQBV-KHrU99"  >
<path style="stroke: none; stroke-width: 1; stroke-dasharray: none; stroke-linecap: butt; stroke-dashoffset: 0; stroke-linejoin: miter; stroke-miterlimit: 4; fill: rgb(239,239,239); fill-rule: nonzero; opacity: 1;" vector-effect="non-scaling-stroke"  transform=" translate(-9733.45, -10833.4)" d="M 9313.93 11332.1 C 9814.300000000001 11150.2 9841.07 10575.6 9839.33 10425.9 C 10050.3 10386.8 10151.7 10334.699999999999 10151.7 10334.699999999999 C 10151.7 10334.699999999999 10222.300000000001 11309.699999999999 9313.93 11332.099999999999" stroke-linecap="round" />
</g>
		<g transform="matrix(0.02 0 0 -0.02 -40.55 -18.41)" id="6"  >
<path style="stroke: none; stroke-width: 1; stroke-dasharray: none; stroke-linecap: butt; stroke-dashoffset: 0; stroke-linejoin: miter; stroke-miterlimit: 4; fill: rgb(35,31,32); fill-rule: nonzero; opacity: 1;" vector-effect="non-scaling-stroke"  transform=" translate(-9230.18, -10738.75)" d="M 9712.97 10554.5 C 9712.97 10821.2 9496.82 11037.3 9230.179999999998 11037.3 C 8963.539999999999 11037.3 8747.389999999998 10821.199999999999 8747.389999999998 10554.5 C 8747.389999999998 10515.1 8752.229999999998 10476.8 8761.139999999998 10440.2 C 8903.249999999998 10451.6 9079.609999999997 10461.1 9291.849999999999 10464.1 C 9450.619999999999 10466.300000000001 9586.289999999999 10457.5 9700.009999999998 10443.6 C 9708.399999999998 10479.2 9712.969999999998 10516.300000000001 9712.969999999998 10554.5" stroke-linecap="round" />
</g>
		<g transform="matrix(0.02 0 0 -0.02 -42.91 -18.41)" id="uvR9u982v9pQyC3cwj7f7"  >
<path style="stroke: none; stroke-width: 1; stroke-dasharray: none; stroke-linecap: butt; stroke-dashoffset: 0; stroke-linejoin: miter; stroke-miterlimit: 4; fill: rgb(255,255,255); fill-rule: nonzero; opacity: 1;" vector-effect="non-scaling-stroke"  transform=" translate(-9119.6, -10738.7)" d="M 9275.5 10738.7 C 9275.5 10652.6 9205.7 10582.800000000001 9119.59 10582.800000000001 C 9033.49 10582.800000000001 8963.69 10652.6 8963.69 10738.7 C 8963.69 10824.800000000001 9033.49 10894.6 9119.59 10894.6 C 9205.7 10894.6 9275.5 10824.800000000001 9275.5 10738.7" stroke-linecap="round" />
</g>
		<g transform="matrix(0.02 0 0 -0.02 30.64 -17.88)" id="sXDfYKUpdEX75rYmAEF_v"  >
<path style="stroke: none; stroke-width: 1; stroke-dasharray: none; stroke-linecap: butt; stroke-dashoffset: 0; stroke-linejoin: miter; stroke-miterlimit: 4; fill: rgb(35,31,32); fill-rule: nonzero; opacity: 1;" vector-effect="non-scaling-stroke"  transform=" translate(-12567.35, -10713.87)" d="M 12084.6 10539.2 C 12088.1 10805.800000000001 12307.1 11019.1 12573.800000000001 11015.5 C 12840.400000000001 11012 13053.6 10792.9 13050.1 10526.3 C 13049.6 10486.9 13044.2 10448.699999999999 13034.800000000001 10412.199999999999 C 12892.900000000001 10425.499999999998 12716.7 10437.3 12504.500000000002 10443.099999999999 C 12345.800000000001 10447.499999999998 12210.000000000002 10440.499999999998 12096.100000000002 10428.099999999999 C 12088.200000000003 10463.8 12084.100000000002 10500.999999999998 12084.600000000002 10539.199999999999" stroke-linecap="round" />
</g>
		<g transform="matrix(0.02 0 0 -0.02 33.05 -17.92)" id="zQCAt0Z6i27DypICAlVOg"  >
<path style="stroke: none; stroke-width: 1; stroke-dasharray: none; stroke-linecap: butt; stroke-dashoffset: 0; stroke-linejoin: miter; stroke-miterlimit: 4; fill: rgb(255,255,255); fill-rule: nonzero; opacity: 1;" vector-effect="non-scaling-stroke"  transform=" translate(-12680.4, -10715.5)" d="M 12524.5 10717.6 C 12523.3 10631.5 12592.2 10560.7 12678.3 10559.6 C 12764.4 10558.4 12835.099999999999 10627.300000000001 12836.3 10713.4 C 12837.4 10799.5 12768.5 10870.199999999999 12682.4 10871.4 C 12596.3 10872.5 12525.6 10803.699999999999 12524.5 10717.6" stroke-linecap="round" />
</g>
		<g transform="matrix(0.02 0 0 -0.02 -0.62 8.44)" id="bTLVaUOBUGjDN72dS7FLX"  >
<path style="stroke: none; stroke-width: 1; stroke-dasharray: none; stroke-linecap: butt; stroke-dashoffset: 0; stroke-linejoin: miter; stroke-miterlimit: 4; fill: rgb(35,31,32); fill-rule: nonzero; opacity: 1;" vector-effect="non-scaling-stroke"  transform=" translate(-11102.23, -9480.05)" d="M 12482.2 9137.8 C 12466.1 9137.8 12450.400000000001 9145.5 12440.7 9159.8 C 12439.800000000001 9161.099999999999 12341.6 9302.8 12126.800000000001 9442.099999999999 C 11929.400000000001 9570.099999999999 11590.2 9722.3 11093.500000000002 9722.3 C 11091.400000000001 9722.3 11089.300000000001 9722.3 11087.200000000003 9722.199999999999 C 10328.100000000002 9720.3 9763.070000000003 9171.999999999998 9757.460000000003 9166.499999999998 C 9737.790000000003 9147.099999999999 9706.140000000003 9147.299999999997 9686.750000000004 9166.999999999998 C 9667.370000000004 9186.599999999999 9667.560000000003 9218.199999999999 9687.190000000004 9237.599999999999 C 9693.240000000003 9243.599999999999 9838.220000000005 9385.699999999999 10083.300000000005 9529.499999999998 C 10309.800000000005 9662.499999999998 10667.900000000005 9821.199999999999 11087.000000000005 9822.199999999999 C 11089.200000000006 9822.3 11091.400000000005 9822.3 11093.500000000005 9822.3 C 11617.600000000006 9822.3 11976.700000000006 9659.599999999999 12186.000000000005 9522.8 C 12415.800000000005 9372.599999999999 12519.200000000006 9222.199999999999 12523.500000000005 9215.8 C 12539.000000000005 9193 12533.000000000005 9161.9 12510.200000000006 9146.4 C 12501.600000000006 9140.6 12491.800000000007 9137.8 12482.200000000006 9137.8" stroke-linecap="round" />
</g>
		<g transform="matrix(0.02 0 0 -0.02 -34 14.72)" id="aRXZ2SE4XcWcmI0WohDHd"  >
<path style="stroke: none; stroke-width: 1; stroke-dasharray: none; stroke-linecap: butt; stroke-dashoffset: 0; stroke-linejoin: miter; stroke-miterlimit: 4; fill: rgb(35,31,32); fill-rule: nonzero; opacity: 1;" vector-effect="non-scaling-stroke"  transform=" translate(-9537.24, -9185.38)" d="M 9549.1 9403.1 C 9470.390000000001 9276.5 9455.83 9112.300000000001 9512.87 8974.300000000001 C 9518.02 8961.800000000001 9529.45 8952.900000000001 9543.62 8956.800000000001 C 9555.410000000002 8960.000000000002 9566.27 8975.000000000002 9561.08 8987.6 C 9508.75 9114.2 9519.82 9261.4 9592.27 9377.9 C 9609.310000000001 9405.3 9566.07 9430.4 9549.1 9403.1 L 9549.1 9403.1" stroke-linecap="round" />
</g>
		<g transform="matrix(0.02 0 0 -0.02 31.64 14.66)" id="h0i3iwRgqYiMlIaVM9jDa"  >
<path style="stroke: none; stroke-width: 1; stroke-dasharray: none; stroke-linecap: butt; stroke-dashoffset: 0; stroke-linejoin: miter; stroke-miterlimit: 4; fill: rgb(35,31,32); fill-rule: nonzero; opacity: 1;" vector-effect="non-scaling-stroke"  transform=" translate(-12614.17, -9188.18)" d="M 12539.1 9363.8 C 12634.2 9271.4 12670.5 9127.3 12630.9 9000.699999999999 C 12621.3 8969.9 12669.6 8956.8 12679.199999999999 8987.4 C 12723.8 9130.4 12681.8 9294.9 12574.4 9399.199999999999 C 12551.3 9421.599999999999 12515.9 9386.3 12539.1 9363.8 L 12539.1 9363.8" stroke-linecap="round" />
</g>
		<g transform="matrix(0.02 0 0 -0.02 -40.79 -14.73)" id="VvcVIU0BDmdJEE6hNhURD"  >
<path style="stroke: none; stroke-width: 1; stroke-dasharray: none; stroke-linecap: butt; stroke-dashoffset: 0; stroke-linejoin: miter; stroke-miterlimit: 4; fill: rgb(126,205,236); fill-rule: nonzero; opacity: 1;" vector-effect="non-scaling-stroke"  transform=" translate(-9219, -10566.12)" d="M 9979.21 10601.8 C 9966.449999999999 10613.4 9953.13 10625.199999999999 9936.869999999999 10631 C 9912.3 10639.8 9884.919999999998 10633.8 9859.249999999998 10638.5 C 9800.949999999999 10649.1 9766.919999999998 10709.7 9716.339999999998 10740.6 C 9642.659999999998 10785.6 9540.96 10758.4 9480.439999999999 10696.800000000001 C 9443.06 10658.800000000001 9409.569999999998 10605.2 9356.269999999999 10603.400000000001 C 9330.899999999998 10602.500000000002 9306.96 10614.400000000001 9281.929999999998 10618.600000000002 C 9218.139999999998 10629.300000000003 9157.889999999998 10590.000000000002 9095.099999999999 10574.600000000002 C 9034.949999999999 10559.800000000003 8969.509999999998 10567.500000000002 8914.519999999999 10596.100000000002 C 8847.909999999998 10630.600000000002 8783.169999999998 10696.400000000001 8711.3 10674.900000000001 C 8642.75 10654.300000000001 8615.859999999999 10563.900000000001 8548.59 10539.500000000002 C 8500.26 10522.000000000002 8443.07 10543.600000000002 8396.72 10521.400000000001 C 8349.47 10498.7 8332.9 10440.900000000001 8321.38 10389.800000000001 L 9230.179999999998 10466.300000000001 L 10116.599999999999 10369.300000000001 C 10117.8 10462.2 10047.8 10539.2 9979.21 10601.800000000001" stroke-linecap="round" />
</g>
		<g transform="matrix(0.02 0 0 -0.02 -40.55 -20.43)" id="kgSxyl3hWb1B9UwLLFz0L"  >
<path style="stroke: none; stroke-width: 1; stroke-dasharray: none; stroke-linecap: butt; stroke-dashoffset: 0; stroke-linejoin: miter; stroke-miterlimit: 4; fill: rgb(35,31,32); fill-rule: nonzero; opacity: 1;" vector-effect="non-scaling-stroke"  transform=" translate(-9230.28, -10833.37)" d="M 9341.79 10504.6 C 9761.570000000002 10504.6 10013.7 10428.9 10115.900000000001 10389.800000000001 C 10114.800000000001 10518.300000000001 10089.7 10852.900000000001 9874.250000000002 11075.6 C 9723.680000000002 11231.300000000001 9507.180000000002 11305 9230.930000000002 11294.5 C 8879.970000000003 11281.3 8624.270000000002 11124.4 8470.960000000003 10828.4 C 8387.570000000003 10667.4 8358.560000000003 10507.4 8348.850000000002 10430.199999999999 C 8461.660000000002 10450.999999999998 8766.770000000002 10496.8 9291.330000000002 10504.199999999999 C 9308.380000000001 10504.499999999998 9325.250000000002 10504.599999999999 9341.79 10504.599999999999 z M 10151.7 10297.5 C 10145.900000000001 10297.5 10140.1 10298.9 10134.800000000001 10301.6 C 10132.2 10303 9859.79 10438.5 9292.37 10430.5 C 8634.480000000001 10421.1 8318.880000000001 10349.1 8315.77 10348.4 C 8304.52 10345.699999999999 8292.68 10348.5 8283.79 10355.9 C 8274.910000000002 10363.3 8269.990000000002 10374.4 8270.51 10385.9 C 8270.95 10395.6 8282.68 10625.199999999999 8405.45 10862.3 C 8519.87 11083.3 8755.480000000001 11350.4 9228.150000000001 11368.199999999999 C 9526.510000000002 11379.499999999998 9761.850000000002 11298.199999999999 9927.640000000001 11126.599999999999 C 10220.500000000002 10823.399999999998 10190.000000000002 10351.699999999999 10188.500000000002 10331.8 C 10187.600000000002 10319.4 10180.600000000002 10308.3 10169.800000000001 10302.3 C 10164.2 10299.099999999999 10158.000000000002 10297.5 10151.7 10297.5" stroke-linecap="round" />
</g>
		<g transform="matrix(0.02 0 0 -0.02 30.58 -14.3)" id="m06eCmJ5oOzx8aXYfNTxT"  >
<path style="stroke: none; stroke-width: 1; stroke-dasharray: none; stroke-linecap: butt; stroke-dashoffset: 0; stroke-linejoin: miter; stroke-miterlimit: 4; fill: rgb(126,205,236); fill-rule: nonzero; opacity: 1;" vector-effect="non-scaling-stroke"  transform=" translate(-12564.43, -10545.96)" d="M 11846.6 10562.8 C 11914.300000000001 10571.5 11981.7 10533.4 12049.4 10542.699999999999 C 12111.4 10551.3 12160.6 10597.4 12215.9 10626.8 C 12278.8 10660.099999999999 12352.8 10672 12422.9 10660 C 12521.9 10643.1 12615.1 10580.5 12714.4 10595.2 C 12803 10608.2 12870.4 10679.2 12950.8 10718.6 C 13055.8 10770.1 13186.9 10763.9 13286.5 10702.800000000001 C 13386.2 10641.7 13451.2 10527.7 13452.9 10410.800000000001 C 13453 10402.2 13452.6 10392.900000000001 13447.3 10386.2 C 13440.199999999999 10377.300000000001 13427.5 10376.1 13416.199999999999 10376.2 C 13375.3 10376.300000000001 13334.8 10383.5 13294.4 10390 C 12945 10446.4 12589.199999999999 10453.2 12235.5 10440.4 C 12141.1 10437 12046.4 10432.1 11952.9 10417.3 C 11857.199999999999 10402.199999999999 11769.1 10355.599999999999 11677.199999999999 10338.599999999999 C 11664.199999999999 10430.199999999999 11754.599999999999 10551.099999999999 11846.599999999999 10562.8" stroke-linecap="round" />
</g>
		<g transform="matrix(0.02 0 0 -0.02 30.59 -20.11)" id="jM5O7SxywcoYMO7zq_1qD"  >
<path style="stroke: none; stroke-width: 1; stroke-dasharray: none; stroke-linecap: butt; stroke-dashoffset: 0; stroke-linejoin: miter; stroke-miterlimit: 4; fill: rgb(35,31,32); fill-rule: nonzero; opacity: 1;" vector-effect="non-scaling-stroke"  transform=" translate(-12564.96, -10818.19)" d="M 12508.8 11274.4 C 12264.599999999999 11274.4 12070.199999999999 11203.3 11930.3 11062.4 C 11711.9 10842.6 11682.4 10508.3 11679.5 10379.8 C 11786.3 10419.099999999999 12055.5 10495.699999999999 12505.5 10483.3 C 13029.9 10468.9 13334.3 10419 13446.9 10396.8 C 13438.1 10474.599999999999 13410.9 10636.3 13329 10798.699999999999 C 13179.5 11095.4 12926.3 11254.8 12576.4 11272.699999999999 C 12553.5 11273.9 12530.9 11274.4 12508.8 11274.4 z M 11643 10288.1 C 11636.6 10288.1 11630.2 10289.7 11624.4 10293.1 C 11613.8 10299.300000000001 11606.9 10310.4 11606.1 10322.7 C 11605 10342.7 11580.7 10814.800000000001 11877.6 11114 C 12045.6 11283.4 12282 11361.7 12580.2 11346.4 C 13052.6 11322.3 13284.6 11052 13396.1 10829.6 C 13515.7 10590.9 13524.4 10361.1 13524.7 10351.4 C 13525.1 10339.9 13520 10328.8 13511 10321.6 C 13502 10314.300000000001 13490.2 10311.7 13478.9 10314.4 C 13475.8 10315.199999999999 13161.199999999999 10391.5 12503.5 10409.5 C 11936.2 10425.1 11662 10293.2 11659.3 10291.9 C 11654.199999999999 10289.3 11648.599999999999 10288.1 11643 10288.1" stroke-linecap="round" />
</g>
</g>
</g>
</svg>