<svg height="76" viewBox="0 0 109 76" width="109" xmlns="http://www.w3.org/2000/svg"><path d="m13487.8 10350.3s-29.4 914.3-909.5 959.2c-996.5 50.9-935.3-984.6-935.3-984.6s276 137.6 861.5 121.5c670.8-18.4 983.3-96.1 983.3-96.1" fill="#fff" transform="matrix(.02 0 0 -.02 -160.7106 253.2522)"/><path d="m13299.4 12145.4c-45.1 191.3-272.2 7.9-664.9 119.4-327.4 93-434 337.6-543.9 252.9s43.3-363.6 513.3-523.3c349.7-118.8 747.9-71.1 695.5 151" fill="#231f20" transform="matrix(.02 0 0 -.02 -160.5572 251.3642)"/><path d="m8514.16 12082.8c28.42 194.5 270.55 31.4 652.06 176.5 318.13 121 403.22 373.9 520.03 299 116.8-74.9-11.67-366-466.11-565.8-338.14-148.6-738.97-135.5-705.98 90.3" fill="#231f20" transform="matrix(.02 0 0 -.02 -165.3018 251.3648)"/><path d="m8307.36 10384.3s41.54 913.8 922.18 947.1c997.16 37.6 922.16-997 922.16-997s-274.13 141.3-859.84 132.9c-670.94-9.5-984.5-83-984.5-83" fill="#fff" transform="matrix(.02 0 0 -.02 -165.1534 253.238)"/><path d="m12630.6 11316.9c500.4-182 527.1-756.6 525.4-906.3 210.9-39.1 312.4-91.2 312.4-91.2s70.5 975.1-837.8 997.5" fill="#efefef" transform="matrix(.02 0 0 -.02 -160.0628 253.253)"/><path d="m9313.93 11332.1c500.37-181.9 527.14-756.5 525.4-906.2 210.97-39.1 312.37-91.2 312.37-91.2s70.6 975-837.77 997.4" fill="#efefef" transform="matrix(.02 0 0 -.02 -164.489 253.238)"/><path d="m9712.97 10554.5c0 266.7-216.15 482.8-482.79 482.8s-482.79-216.1-482.79-482.8c0-39.4 4.84-77.7 13.75-114.3 142.11 11.4 318.47 20.9 530.71 23.9 158.77 2.2 294.44-6.6 408.16-20.5 8.39 35.6 12.96 72.7 12.96 110.9" fill="#231f20" transform="matrix(.02 0 0 -.02 -165.1536 253.365)"/><path d="m9275.5 10738.7c0-86.1-69.8-155.9-155.91-155.9-86.1 0-155.9 69.8-155.9 155.9s69.8 155.9 155.9 155.9c86.11 0 155.91-69.8 155.91-155.9" fill="#fff" transform="matrix(.02 0 0 -.02 -165.302 253.364)"/><path d="m12084.6 10539.2c3.5 266.6 222.5 479.9 489.2 476.3 266.6-3.5 479.8-222.6 476.3-489.2-.5-39.4-5.9-77.6-15.3-114.1-141.9 13.3-318.1 25.1-530.3 30.9-158.7 4.4-294.5-2.6-408.4-15-7.9 35.7-12 72.9-11.5 111.1" fill="#231f20" transform="matrix(.02 0 0 -.02 -160.707 253.3974)"/><path d="m12524.5 10717.6c-1.2-86.1 67.7-156.9 153.8-158 86.1-1.2 156.8 67.7 158 153.8 1.1 86.1-67.8 156.8-153.9 158-86.1 1.1-156.8-67.7-157.9-153.8" fill="#fff" transform="matrix(.02 0 0 -.02 -160.558 253.39)"/><g fill="#231f20"><path d="m12482.2 9137.8c-16.1 0-31.8 7.7-41.5 22-.9 1.3-99.1 143-313.9 282.3-197.4 128-536.6 280.2-1033.3 280.2-2.1 0-4.2 0-6.3-.1-759.1-1.9-1324.13-550.2-1329.74-555.7-19.67-19.4-51.32-19.2-70.71.5-19.38 19.6-19.19 51.2.44 70.6 6.05 6 151.03 148.1 396.11 291.9 226.5 133 584.6 291.7 1003.7 292.7 2.2.1 4.4.1 6.5.1 524.1 0 883.2-162.7 1092.5-299.5 229.8-150.2 333.2-300.6 337.5-307 15.5-22.8 9.5-53.9-13.3-69.4-8.6-5.8-18.4-8.6-28-8.6" transform="matrix(.02 0 0 -.02 -162.6646 255.041)"/><path d="m9549.1 9403.1c-78.71-126.6-93.27-290.8-36.23-428.8 5.15-12.5 16.58-21.4 30.75-17.5 11.79 3.2 22.65 18.2 17.46 30.8-52.33 126.6-41.26 273.8 31.19 390.3 17.04 27.4-26.2 52.5-43.17 25.2z" transform="matrix(.02 0 0 -.02 -164.7448 255.4276)"/><path d="m12539.1 9363.8c95.1-92.4 131.4-236.5 91.8-363.1-9.6-30.8 38.7-43.9 48.3-13.3 44.6 143 2.6 307.5-104.8 411.8-23.1 22.4-58.5-12.9-35.3-35.4z" transform="matrix(.02 0 0 -.02 -160.6434 255.4236)"/></g><path d="m9979.21 10601.8c-12.76 11.6-26.08 23.4-42.34 29.2-24.57 8.8-51.95 2.8-77.62 7.5-58.3 10.6-92.33 71.2-142.91 102.1-73.68 45-175.38 17.8-235.9-43.8-37.38-38-70.87-91.6-124.17-93.4-25.37-.9-49.31 11-74.34 15.2-63.79 10.7-124.04-28.6-186.83-44-60.15-14.8-125.59-7.1-180.58 21.5-66.61 34.5-131.35 100.3-203.22 78.8-68.55-20.6-95.44-111-162.71-135.4-48.33-17.5-105.52 4.1-151.87-18.1-47.25-22.7-63.82-80.5-75.34-131.6l908.8 76.5 886.42-97c1.2 92.9-68.8 169.9-137.39 232.5" fill="#7ecdec" transform="matrix(.02 0 0 -.02 -165.17 253.5924)"/><path d="m9341.79 10504.6c419.78 0 671.91-75.7 774.11-114.8-1.1 128.5-26.2 463.1-241.65 685.8-150.57 155.7-367.07 229.4-643.32 218.9-350.96-13.2-606.66-170.1-759.97-466.1-83.39-161-112.4-321-122.11-398.2 112.81 20.8 417.92 66.6 942.48 74 17.05.3 33.92.4 50.46.4zm809.91-207.1c-5.8 0-11.6 1.4-16.9 4.1-2.6 1.4-275.01 136.9-842.43 128.9-657.89-9.4-973.49-81.4-976.6-82.1-11.25-2.7-23.09.1-31.98 7.5-8.88 7.4-13.8 18.5-13.28 30 .44 9.7 12.17 239.3 134.94 476.4 114.42 221 350.03 488.1 822.7 505.9 298.36 11.3 533.7-70 699.49-241.6 292.86-303.2 262.36-774.9 260.86-794.8-.9-12.4-7.9-23.5-18.7-29.5-5.6-3.2-11.8-4.8-18.1-4.8" fill="#231f20" transform="matrix(.02 0 0 -.02 -165.1556 253.2374)"/><path d="m11846.6 10562.8c67.7 8.7 135.1-29.4 202.8-20.1 62 8.6 111.2 54.7 166.5 84.1 62.9 33.3 136.9 45.2 207 33.2 99-16.9 192.2-79.5 291.5-64.8 88.6 13 156 84 236.4 123.4 105 51.5 236.1 45.3 335.7-15.8 99.7-61.1 164.7-175.1 166.4-292 .1-8.6-.3-17.9-5.6-24.6-7.1-8.9-19.8-10.1-31.1-10-40.9.1-81.4 7.3-121.8 13.8-349.4 56.4-705.2 63.2-1058.9 50.4-94.4-3.4-189.1-8.3-282.6-23.1-95.7-15.1-183.8-61.7-275.7-78.7-13 91.6 77.4 212.5 169.4 224.2" fill="#7ecdec" transform="matrix(.02 0 0 -.02 -160.7086 253.6192)"/><path d="m12508.8 11274.4c-244.2 0-438.6-71.1-578.5-212-218.4-219.8-247.9-554.1-250.8-682.6 106.8 39.3 376 115.9 826 103.5 524.4-14.4 828.8-64.3 941.4-86.5-8.8 77.8-36 239.5-117.9 401.9-149.5 296.7-402.7 456.1-752.6 474-22.9 1.2-45.5 1.7-67.6 1.7zm-865.8-986.3c-6.4 0-12.8 1.6-18.6 5-10.6 6.2-17.5 17.3-18.3 29.6-1.1 20-25.4 492.1 271.5 791.3 168 169.4 404.4 247.7 702.6 232.4 472.4-24.1 704.4-294.4 815.9-516.8 119.6-238.7 128.3-468.5 128.6-478.2.4-11.5-4.7-22.6-13.7-29.8-9-7.3-20.8-9.9-32.1-7.2-3.1.8-317.7 77.1-975.4 95.1-567.3 15.6-841.5-116.3-844.2-117.6-5.1-2.6-10.7-3.8-16.3-3.8" fill="#231f20" transform="matrix(.02 0 0 -.02 -160.7092 253.2538)"/></svg>