<svg height="971" viewBox="0 0 977 971" width="977" xmlns="http://www.w3.org/2000/svg" xmlns:xlink="http://www.w3.org/1999/xlink"><clipPath id="a"><path d="m16545.5 9052.7h461.5v739.703h-461.5z" transform="matrix(20 0 0 -20 -352778.4 201806.37)"/></clipPath><clipPath id="b"><path d="m12028.1 11047.3h.4c-.2 0-.3 0-.4 0m.7 0h.5c-.2 0-.4 0-.5 0m1.1 0h.1s0 0-.1 0" transform="matrix(20 0 0 -20 -253277.2 232742)"/></clipPath><clipPath id="c"><path d="m18248.1 5571.5h-6264.6v338.4h6264.6zm-6323.5 0h-6236.72v338.4h6236.72zm-6295.56 0h-5629.04v338.4h5629.04z" transform="matrix(20 0 0 -20 -192388.4 131704)"/></clipPath><path d="m16150.1 14691.7-3487.7 623.1h-2336.2l-3515.07-623.1v-1007.4h9366.37v1007.4z" fill="#f5f3f4" transform="matrix(.05 0 0 -.05 -3.576 994.0575)"/><path d="m11019 9052.7h5988v739.703h-5988z" fill="#13375b" transform="matrix(.05 0 0 -.05 -8.61 983.8975)"/><path d="m11019 4187.5h5988v4865.2h-5988z" fill="#f5f3f4" transform="matrix(.05 0 0 -.05 -8.61 978.295)"/><path d="m11662.2 4479.4h4701.7v2672.6h-4701.7z" fill="#96d9c9" transform="matrix(.05 0 0 -.05 -8.6125 976.685)"/><path d="m16363.9 8249.7h-4701.7v207.4h4701.7z" fill="#13375b" transform="matrix(.05 0 0 -.05 -8.6125 981.76)"/><path d="m11019 8906.5h5988v146.199h-5988z" fill="#174972" transform="matrix(.05 0 0 -.05 -8.61 983.01)"/><path d="m5235.09 9792.4h-5235.09v-739.7h5235.09z" fill="#13375b" transform="matrix(.05 0 0 -.05 14.1825 983.8975)"/><path d="m0 4187.5h5249.56v4865.2h-5249.56z" fill="#f5f3f4" transform="matrix(.05 0 0 -.05 14.161 978.295)"/><path d="m5235.09 8906.5h-5235.09v146.2h5235.09z" fill="#174972" transform="matrix(.05 0 0 -.05 14.1825 983.01)"/><path d="m11019 9792.4h-5987.91v-739.7h5987.91z" fill="#13375b" transform="matrix(.05 0 0 -.05 3.3675 983.8975)"/><path d="m5031.09 4187.5h5987.91v4865.2h-5987.91z" fill="#f5f3f4" transform="matrix(.05 0 0 -.05 3.3675 978.295)"/><path d="m0 4479.4h4703.88v2672.6h-4703.88z" fill="#96d9c9" transform="matrix(.05 0 0 -.05 14.713 976.685)"/><path d="m10375.9 8249.7h-4701.68v207.4h4701.68z" fill="#13375b" transform="matrix(.05 0 0 -.05 3.367 981.76)"/><path d="m11019 8906.5h-5987.91v146.2h5987.91z" fill="#174972" transform="matrix(.05 0 0 -.05 3.3675 983.01)"/><g clip-path="url(#a)" transform="matrix(.05 0 0 -.05 824.67 512.77)"><path d="m16545.5 9052.7h461.5v739.703h-461.5z" fill="#0f2e51" transform="translate(-16776.25 -9422.55)"/></g><path d="m16545.5 6249.4h461.5v2657.1h-461.5z" fill="#becdda" transform="matrix(.05 0 0 -.05 -14.1425 980.2075)"/><path d="m16545.5 8906.5h461.5v146.199h-461.5z" fill="#123e66" transform="matrix(.05 0 0 -.05 -14.1425 983.01)"/><path d="m3393.42 18493.2h327.41c26.1 0 47.27-21.1 47.27-47.2v-208.3c0-26.2-21.17-47.3-47.27-47.3h-327.41c-26.12 0-47.28 21.1-47.28 47.3v208.3c0 26.1 21.16 47.2 47.28 47.2" fill="#86b1f2" transform="matrix(.05 0 0 -.05 12.304 1001.74)"/><path d="m3245.39 17124.9h626.02c4.18 0 7.56 3.3 7.56 7.5v33.4c0 4.1-3.38 7.5-7.56 7.5h-626.02c-4.18 0-7.57-3.4-7.57-7.5v-33.4c0-4.2 3.39-7.5 7.57-7.5" fill="#f47458" transform="matrix(.05 0 0 -.05 12.3005 999.355)"/><path d="m3239.38 18132.5h37.86v41.1c0 8.5-6.86 15.3-15.31 15.3h-.01c-8.45 0-15.31 6.9-15.31 15.3v64c0 8.5 6.86 15.3 15.31 15.3h590.4c8.46 0 15.31-6.8 15.31-15.3v-64c0-8.4-6.85-15.3-15.31-15.3-8.45 0-15.31-6.8-15.31-15.3v-41.1h37.86c62.24 0 112.71-50.4 112.71-112.7v-758c0-62.2-50.47-112.7-112.71-112.7h-635.49c-62.26 0-112.73 50.5-112.73 112.7v758c0 62.3 50.47 112.7 112.73 112.7" fill="#f7cc7f" transform="matrix(.05 0 0 -.05 12.304 1000.485)"/><path d="m3837.82 17509.8h-561.4c-36.67 0-66.39 29.7-66.39 66.4v292.6c0 36.6 29.72 66.4 66.39 66.4h561.4c36.66 0 66.4-29.8 66.4-66.4v-292.6c0-36.7-29.74-66.4-66.4-66.4" fill="#fbe6bf" transform="matrix(.05 0 0 -.05 12.3035 1000.495)"/><path d="m3858.8 18190.4h-603.36c-5.21 2.4-8.83 7.7-8.83 13.8v64c0 8.5 6.85 15.3 15.31 15.3h590.4c8.46 0 15.31-6.8 15.31-15.3v-64c0-6.1-3.62-11.4-8.83-13.8" fill="#f47458" transform="matrix(.05 0 0 -.05 12.304 1001.5275)"/><path d="m2311.86 18493.2h327.41c26.11 0 47.27-21.1 47.27-47.2v-208.3c0-26.2-21.16-47.3-47.27-47.3h-327.41c-26.11 0-47.28 21.1-47.28 47.3v208.3c0 26.1 21.17 47.2 47.28 47.2" fill="#f7cc7f" transform="matrix(.05 0 0 -.05 14.462 1001.74)"/><path d="m2163.83 17124.9h626.02c4.18 0 7.57 3.3 7.57 7.5v33.4c0 4.1-3.39 7.5-7.57 7.5h-626.02c-4.18 0-7.57-3.4-7.57-7.5v-33.4c0-4.2 3.39-7.5 7.57-7.5" fill="#86b1f2" transform="matrix(.05 0 0 -.05 14.458 999.355)"/><path d="m2157.83 18132.5h37.84v41.1c0 8.5-6.84 15.3-15.3 15.3s-15.31 6.9-15.31 15.3v64c0 8.5 6.85 15.3 15.31 15.3h590.4c8.45 0 15.3-6.8 15.3-15.3v-64c0-8.4-6.85-15.3-15.3-15.3-8.47 0-15.32-6.8-15.32-15.3v-41.1h37.86c62.25 0 112.72-50.4 112.72-112.7v-758c0-62.2-50.47-112.7-112.72-112.7h-635.48c-62.26 0-112.73 50.5-112.73 112.7v758c0 62.3 50.47 112.7 112.73 112.7" fill="#f47458" transform="matrix(.05 0 0 -.05 14.462 1000.485)"/><path d="m2756.27 17509.8h-561.4c-36.67 0-66.39 29.7-66.39 66.4v292.6c0 36.6 29.72 66.4 66.38 66.4h561.41c36.66 0 66.39-29.8 66.39-66.4v-292.6c0-36.7-29.73-66.4-66.39-66.4" fill="#fabaac" transform="matrix(.05 0 0 -.05 14.4615 1000.495)"/><path d="m2777.24 18190.4h-603.35c-5.22 2.4-8.84 7.7-8.84 13.8v64c0 8.5 6.86 15.3 15.32 15.3h590.39c8.46 0 15.31-6.8 15.31-15.3v-64c0-6.1-3.61-11.4-8.83-13.8" fill="#86b1f2" transform="matrix(.05 0 0 -.05 14.462 1001.5275)"/><path d="m1246.14 18493.2h327.41c26.11 0 47.28-21.1 47.28-47.2v-208.3c0-26.2-21.17-47.3-47.28-47.3h-327.41c-26.11 0-47.27 21.1-47.27 47.3v208.3c0 26.1 21.16 47.2 47.27 47.2" fill="#f47458" transform="matrix(.05 0 0 -.05 16.5975 1001.74)"/><path d="m1098.12 17124.9h626.02c4.18 0 7.56 3.3 7.56 7.5v33.4c0 4.1-3.38 7.5-7.56 7.5h-626.02c-4.19 0-7.57-3.4-7.57-7.5v-33.4c0-4.2 3.38-7.5 7.57-7.5" fill="#f7cc7f" transform="matrix(.05 0 0 -.05 16.5935 999.355)"/><path d="m1092.1 18132.5h37.86v41.1c0 8.5-6.86 15.3-15.31 15.3-8.46 0-15.32 6.9-15.32 15.3v64c0 8.5 6.86 15.3 15.32 15.3h590.4c8.45 0 15.31-6.8 15.31-15.3v-64c0-8.4-6.86-15.3-15.31-15.3-8.46 0-15.32-6.8-15.32-15.3v-41.1h37.86c62.26 0 112.72-50.4 112.72-112.7v-758c0-62.2-50.46-112.7-112.72-112.7h-635.49c-62.25 0-112.713 50.5-112.713 112.7v758c0 62.3 50.463 112.7 112.713 112.7" fill="#86b1f2" transform="matrix(.05 0 0 -.05 16.5975 1000.485)"/><path d="m1690.54 17509.8h-561.39c-36.67 0-66.4 29.7-66.4 66.4v292.6c0 36.6 29.73 66.4 66.4 66.4h561.39c36.68 0 66.4-29.8 66.4-66.4v-292.6c0-36.7-29.72-66.4-66.4-66.4" fill="#c3d8f9" transform="matrix(.05 0 0 -.05 16.5975 1000.495)"/><path d="m1711.53 18190.4h-603.36c-5.22 2.4-8.83 7.7-8.83 13.8v64c0 8.5 6.85 15.3 15.31 15.3h590.4c8.46 0 15.31-6.8 15.31-15.3v-64c0-6.1-3.62-11.4-8.83-13.8" fill="#f7cc7f" transform="matrix(.05 0 0 -.05 16.5975 1001.5275)"/><path d="m5705.88 18680.2v815.8h-203.35v-815.8c-82.66 0-149.67-67.4-149.67-150.4v-1404.9h502.71v1404.9c0 83-67.02 150.4-149.69 150.4" fill="#eafcfc" transform="matrix(.05 0 0 -.05 8.209 1001.6725)"/><path d="m5855.57 17124.9h-104.62v1404.9c0 83-67.02 150.4-149.69 150.4v815.8h104.62v-815.8c82.67 0 149.69-67.4 149.69-150.4z" fill="#d0eefb" transform="matrix(.05 0 0 -.05 7.9595 1001.6725)"/><path d="m5705.88 19100.2h-203.34v395.8h203.34z" fill="#f47458" transform="matrix(.05 0 0 -.05 8.1995 1003.655)"/><path d="m5855.57 17326.7h-502.72v714.9h502.72z" fill="#96d9c9" transform="matrix(.05 0 0 -.05 8.1995 1000.4275)"/><path d="m4995.58 18680.2v815.8h-203.35v-815.8c-82.66 0-149.67-67.4-149.67-150.4v-1404.9h502.7v1404.9c0 83-67.02 150.4-149.68 150.4" fill="#eafcfc" transform="matrix(.05 0 0 -.05 9.6245 1001.6725)"/><path d="m5145.26 17124.9h-104.62v1404.9c0 83-67.01 150.4-149.68 150.4v815.8h104.62v-815.8c82.66 0 149.68-67.4 149.68-150.4z" fill="#98b5d9" transform="matrix(.05 0 0 -.05 9.3745 1001.6725)"/><path d="m4995.58 19100.2h-203.34v395.8h203.34z" fill="#f47458" transform="matrix(.05 0 0 -.05 9.6245 1003.655)"/><path d="m5145.26 17326.7h-502.71v714.9h502.71z" fill="#f7cc7f" transform="matrix(.05 0 0 -.05 9.6245 1000.4275)"/><path d="m19608 4479.4-1014.9 6.8h1019.4z" fill="#f8d18c" transform="matrix(.05 0 0 -.05 -63.26 987.86)"/><path d="m25973.8 9052.7h-206c-78.9 82.6-159.4 155.9-255.5 211.3v528.4h461.5z" fill="#0f2e51" transform="matrix(.05 0 0 -.05 -618.4825 686.0175)"/><path d="m25852.4 4869.7h-340.1v224c106.5-75.6 220.4-151.3 340.1-224m121.4 3958.9c-24.7 26.2-48.5 52.2-71.8 77.9h71.8z" fill="#becdda" transform="matrix(.05 0 0 -.05 -618.4825 680.955)"/><path d="m25973.8 8906.5h-71.8c-45.9 50.6-89.8 99.9-134.2 146.2h206z" fill="#123e66" transform="matrix(.05 0 0 -.05 -618.73 685.13)"/><path d="m10326.2 15314.8h2336.2v4685.21h-2336.2z" fill="#f5f3f4" transform="matrix(.05 0 0 -.05 -3.575 1000.37)"/><path d="m10326.2 15314.8h1168.1v4685.21h-1168.1z" fill="#becdda" transform="matrix(.05 0 0 -.05 -2.4025 1000.37)"/><path d="m16267.8 13434.3h-9547.01v250h9547.01z" fill="#13375b" transform="matrix(.05 0 0 -.05 -3.5745 992.175)"/><path d="m12535.1 13885.9h-2081.6v147.2h2081.6z" fill="#13375b" transform="matrix(.05 0 0 -.05 -3.575 992.975)"/><path d="m12301 12644h-4249.94v74h4249.94z" fill="#f47458" transform="matrix(.05 0 0 -.05 -.9415 990.42)"/><path d="m9351.67 10454.1c-53.49 0-96.85 43.4-96.85 96.9s43.36 96.9 96.85 96.9c53.5 0 96.86-43.4 96.86-96.9s-43.36-96.9-96.86-96.9zm121.25 1348.4c-50.41 50.4-116.87 81.6-187.84 88.1l-430.3 39.3v-1606.3h463.21c134.89 0 244.23 109.3 244.23 244.2v1019.1c0 80.9-32.12 158.5-89.3 215.6" fill="#eafcfc" transform="matrix(.05 0 0 -.05 .995 987.3075)"/><path d="m9065.33 12871.3h-210.55v-961.9h210.55z" fill="#13375b" transform="matrix(.05 0 0 -.05 1.497 989.8375)"/><path d="m9802.83 10979.1v1153.7l168.44-2.1v-808.5s-29.48-343.1-168.44-343.1" fill="#eafcfc" transform="matrix(.05 0 0 -.05 -.3625 988.1675)"/><path d="m9893.36 12878.2h-90.53v-745.4h90.53z" fill="#13375b" transform="matrix(.05 0 0 -.05 -.285 990.065)"/><path d="m8261.61 12148.6v-1690.5s277.92 569.9 269.5 1690.5z" fill="#eafcfc" transform="matrix(.05 0 0 -.05 2.6175 987.6575)"/><path d="m8390.04 12893.9h-128.43v-745.3h128.43z" fill="#13375b" transform="matrix(.05 0 0 -.05 2.7685 990.0925)"/><path d="m10341.8 12148.6v-1690.5s278 569.9 269.5 1690.5z" fill="#eafcfc" transform="matrix(.05 0 0 -.05 -1.5425 987.6575)"/><path d="m10470.3 12893.9h-128.5v-745.3h128.5z" fill="#13375b" transform="matrix(.05 0 0 -.05 -1.4025 990.0925)"/><path d="m11054.5 12834.9h-59v-1572.8h59z" fill="#eafcfc" transform="matrix(.05 0 0 -.05 -2.63 989.155)"/><path d="m11080.7 12945.3h-111.4v-745.3h111.4z" fill="#13375b" transform="matrix(.05 0 0 -.05 -2.63 990.2025)"/><path d="m11179.9 10842.1c0-11.9-9.6-21.5-21.4-21.5s-21.4 9.6-21.4 21.5v355.9c0 11.9 9.6 21.4 21.4 21.4s21.4-9.5 21.4-21.4zm-89 0c0-11.9-9.6-21.5-21.4-21.5s-21.4 9.6-21.4 21.5v355.9c0 11.9 9.6 21.4 21.4 21.4s21.4-9.5 21.4-21.4zm-89 0c0-11.9-9.6-21.5-21.4-21.5s-21.4 9.6-21.4 21.5v355.9c0 11.9 9.6 21.4 21.4 21.4s21.4-9.5 21.4-21.4zm-89 0c0-11.9-9.6-21.5-21.4-21.5s-21.4 9.6-21.4 21.5v355.9c0 11.9 9.6 21.4 21.4 21.4s21.4-9.5 21.4-21.4zm265.3 454.8h-306.4c-36.9 0-66.8-29.9-66.8-66.7v-425.2c0-36.9 29.9-66.8 66.8-66.8h306.4c36.9 0 66.8 29.9 66.8 66.8v425.2c0 36.8-29.9 66.7-66.8 66.7" fill="#eafcfc" transform="matrix(.05 0 0 -.05 -2.63 987.0875)"/><path d="m12054.7 12834.9h-58.9v-1572.8h58.9z" fill="#eafcfc" transform="matrix(.05 0 0 -.05 -4.6325 989.155)"/><path d="m12081 12945.3h-111.5v-745.3h111.5z" fill="#13375b" transform="matrix(.05 0 0 -.05 -4.6325 990.2025)"/><path d="m11542 12834.9h-33.7v-1572.8h33.7z" fill="#eafcfc" transform="matrix(.05 0 0 -.05 -3.6375 989.155)"/><path d="m11567.2 12945.3h-84.2v-745.3h84.2z" fill="#13375b" transform="matrix(.05 0 0 -.05 -3.635 990.2025)"/><path d="m11525.1 11307.6c-192.4-27.7-77.5-487.8-77.5-487.8-6.9 395.2 77.5 395.2 77.5 395.2s84.4 0 77.6-395.2c0 0 114.9 460.1-77.6 487.8" fill="#eafcfc" transform="matrix(.05 0 0 -.05 -3.637 987.185)"/><path d="m12025.2 11047.3c137.9 0 249.7 111.7 249.7 249.6h-499.3c0-137.9 111.8-249.6 249.6-249.6" fill="#eafcfc" transform="matrix(.05 0 0 -.05 -4.6325 987.395)"/><g clip-path="url(#b)" transform="matrix(.05 0 0 -.05 596.81 434.79)"><path d="m12028.1 11047.3h1.898v.03h-1.898z" fill="#e9d8b2" transform="translate(-12029.05 -11047.31)"/></g><path d="m12025.2 11047.3c-137.8 0-249.6 111.7-249.6 249.6h99.9c0-120.8 85.7-221.5 199.7-244.6-14.6-3-29.7-4.7-45.2-5 0 0 0 0-.1 0-.2 0-.4 0-.6 0s-.3 0-.5 0c-.1 0-.2 0-.3 0-.2 0-.3 0-.4 0-1 0-1.9 0-2.9 0z" fill="#daf4fb" transform="matrix(.05 0 0 -.05 -4.44 987.395)"/><path d="m1398.01 15501.9h1149.43c108 0 195.56 87.5 195.56 195.5v935.5h-1540.55v-935.5c0-108 87.55-195.5 195.56-195.5" fill="#f7cc7f" transform="matrix(.05 0 0 -.05 15.474 997.19)"/><path d="m2422.33 15916.9h320.668v715.961h-320.668z" fill="#dbc17e" transform="matrix(.05 0 0 -.05 14.247 997.604)"/><path d="m1071.66 16520.8 229.57-150.1c5.72-3.7 13.39-2.1 17.12 3.6l18.48 28.3c3.74 5.7 2.13 13.3-3.59 17.1l-229.58 150c-5.72 3.8-13.38 2.2-17.12-3.5l-18.47-28.3c-3.74-5.7-2.13-13.4 3.59-17.1" fill="#f7cc7f" transform="matrix(.05 0 0 -.05 17.0075 997.992)"/><path d="m2873.79 16520.8-229.58-150.1c-5.71-3.7-13.38-2.1-17.12 3.6l-18.47 28.3c-3.74 5.7-2.13 13.3 3.59 17.1l229.57 150c5.72 3.8 13.39 2.2 17.13-3.5l18.47-28.3c3.74-5.7 2.13-13.4-3.59-17.1" fill="#f7cc7f" transform="matrix(.05 0 0 -.05 13.93 997.992)"/><path d="m1334.98 14395.9h1275.48c7.81 0 14.15 6.3 14.15 14.1v38.6c0 7.8-6.34 14.2-14.15 14.2h-1275.48c-7.81 0-14.14-6.4-14.14-14.2v-38.6c0-7.8 6.33-14.1 14.14-14.1" fill="#13375b" transform="matrix(.05 0 0 -.05 15.474 993.9175)"/><path d="m1351.65 14462.8h1242.15c203.95 0 369.28 165.3 369.28 369.3v1084.8h-1980.713v-1084.8c0-204 165.333-369.3 369.283-369.3" fill="#86b1f2" transform="matrix(.05 0 0 -.05 15.474 995.4325)"/><path d="m2595.35 14462.8h-1.55c203.95 0 369.28 165.3 369.28 369.3v1084.8-1086.4c0-203.1-164.64-367.7-367.73-367.7" fill="#ded3b1" transform="matrix(.05 0 0 -.05 13.858 995.4325)"/><path d="m2595.35 14462.8h-412.29 410.74z" fill="#11345a" transform="matrix(.05 0 0 -.05 14.64 993.98)"/><path d="m2593.8 14462.8h-410.74c203.1 0 367.73 164.6 367.73 367.7v1086.4h412.29v-1084.8c0-204-165.33-369.3-369.28-369.3z" fill="#77a7f1" transform="matrix(.05 0 0 -.05 14.2665 995.4325)"/><path d="m814.211 15772.8 295.169-193c7.35-4.8 17.21-2.7 22.01 4.7l23.75 36.3c4.81 7.3 2.74 17.2-4.61 22l-295.171 192.9c-7.351 4.9-17.211 2.8-22.015-4.6l-23.75-36.3c-4.805-7.4-2.739-17.2 4.617-22" fill="#86b1f2" transform="matrix(.05 0 0 -.05 17.4515 996.4695)"/><path d="m3131.24 15772.8-295.17-193c-7.35-4.8-17.21-2.7-22.01 4.7l-23.75 36.3c-4.81 7.3-2.75 17.2 4.61 22l295.17 192.9c7.35 4.9 17.2 2.8 22.01-4.6l23.75-36.3c4.81-7.4 2.74-17.2-4.61-22" fill="#86b1f2" transform="matrix(.05 0 0 -.05 13.486 996.4695)"/><path d="m1166.89 16715.1h1611.66c9.6 0 17.38-7.8 17.38-17.4v-47.4c0-9.6-7.78-17.4-17.38-17.4h-1611.66c-9.6 0-17.37 7.8-17.37 17.4v47.4c0 9.6 7.77 17.4 17.37 17.4" fill="#c6e3fd" transform="matrix(.05 0 0 -.05 15.4735 998.4)"/><path d="m4677.01 15501.9h1149.45c108 0 195.56 87.5 195.56 195.5v935.5h-1540.56v-935.5c0-108 87.55-195.5 195.55-195.5" fill="#96d9c9" transform="matrix(.05 0 0 -.05 8.913 997.19)"/><path d="m5701.34 15916.9h320.68v715.961h-320.68z" fill="#85cdc8" transform="matrix(.05 0 0 -.05 7.686 997.604)"/><path d="m4350.67 16520.8 229.57-150.1c5.72-3.7 13.39-2.1 17.13 3.6l18.46 28.3c3.75 5.7 2.14 13.3-3.58 17.1l-229.57 150c-5.72 3.8-13.39 2.2-17.13-3.5l-18.47-28.3c-3.74-5.7-2.13-13.4 3.59-17.1" fill="#96d9c9" transform="matrix(.05 0 0 -.05 10.447 997.992)"/><path d="m6152.8 16520.8-229.57-150.1c-5.73-3.7-13.39-2.1-17.13 3.6l-18.47 28.3c-3.74 5.7-2.13 13.3 3.59 17.1l229.58 150c5.71 3.8 13.38 2.2 17.12-3.5l18.47-28.3c3.74-5.7 2.13-13.4-3.59-17.1" fill="#96d9c9" transform="matrix(.05 0 0 -.05 7.3695 997.992)"/><path d="m4614 14395.9h1275.48c7.8 0 14.13 6.3 14.13 14.1v38.6c0 7.8-6.33 14.2-14.13 14.2h-1275.48c-7.82 0-14.14-6.4-14.14-14.2v-38.6c0-7.8 6.32-14.1 14.14-14.1" fill="#13375b" transform="matrix(.05 0 0 -.05 8.9135 993.9175)"/><path d="m4630.67 14462.8h1242.13c203.95 0 369.29 165.3 369.29 369.3v1084.8h-1980.72v-1084.8c0-204 165.35-369.3 369.3-369.3" fill="#f47458" transform="matrix(.05 0 0 -.05 8.9135 995.4325)"/><path d="m5874.36 14462.8h-1.56c203.95 0 369.29 165.3 369.29 369.3v1084.8-1086.4c0-203.1-164.64-367.7-367.73-367.7" fill="#ded3b1" transform="matrix(.05 0 0 -.05 7.298 995.4325)"/><path d="m5874.36 14462.8h-412.29 410.73z" fill="#11345a" transform="matrix(.05 0 0 -.05 8.079 993.98)"/><path d="m5872.8 14462.8h-410.73c203.09 0 367.73 164.6 367.73 367.7v1086.4h412.29v-1084.8c0-204-165.34-369.3-369.29-369.3z" fill="#d86d57" transform="matrix(.05 0 0 -.05 7.706 995.4325)"/><path d="m4093.22 15772.8 295.17-193c7.35-4.8 17.21-2.7 22.01 4.7l23.75 36.3c4.81 7.3 2.74 17.2-4.61 22l-295.17 192.9c-7.35 4.9-17.21 2.8-22.02-4.6l-23.74-36.3c-4.81-7.4-2.75-17.2 4.61-22" fill="#f47458" transform="matrix(.05 0 0 -.05 10.891 996.4695)"/><path d="m6410.25 15772.8-295.17-193c-7.35-4.8-17.21-2.7-22.01 4.7l-23.75 36.3c-4.81 7.3-2.74 17.2 4.61 22l295.17 192.9c7.35 4.9 17.21 2.8 22.01-4.6l23.75-36.3c4.81-7.4 2.74-17.2-4.61-22" fill="#f47458" transform="matrix(.05 0 0 -.05 6.9355 996.4695)"/><path d="m4445.91 16715.1h1611.65c9.6 0 17.38-7.8 17.38-17.4v-47.4c0-9.6-7.78-17.4-17.38-17.4h-1611.65c-9.6 0-17.38 7.8-17.38 17.4v47.4c0 9.6 7.78 17.4 17.38 17.4" fill="#c6e3fd" transform="matrix(.05 0 0 -.05 8.9135 998.4)"/><path d="m13757.3 10505.6h-45.6v856h45.6z" fill="#f47458" transform="matrix(.05 0 0 -.05 -8.055 986.92)"/><path d="m13801.3 10743.1h-881.1v-290.2c0-338.9 130.3-613.7 291.1-613.7h478.4 111.6 478.4c160.7 0 291 274.8 291 613.7v290.2z" fill="#eafcfc" transform="matrix(.05 0 0 -.05 -8.0825 985.6375)"/><path d="m13399.9 9839.2h-188.6c-160.8 0-291.1 274.8-291.1 613.7v290.2h188.7v-290.2c0-338.9 130.3-613.7 291-613.7" fill="#d0eefb" transform="matrix(.05 0 0 -.05 -6.9025 985.6375)"/><path d="m14018 11371.9h-545v146.7h545z" fill="#13375b" transform="matrix(.05 0 0 -.05 -8.075 987.9425)"/><path d="m13925.8 11298.5h-360.6v146.8h360.6z" fill="#13375b" transform="matrix(.05 0 0 -.05 -8.075 987.795)"/><path d="m13292.9 12533.2h2674.8s276.7 83.9 385.7-545 234.8-1878.2 192.9-2339.4h-3857.1v327h293.5v-134.2h1459l134.1 134.2h553.4l167.7 1752.5h-972.6v-260h-1106.9z" fill="#f5f3f4" transform="matrix(.05 0 0 -.05 -9.834 987.243)"/><path d="m16238.8 11029.2h-835.5v269.3h835.5z" fill="#13375b" transform="matrix(.05 0 0 -.05 -12.2325 987.3825)"/><path d="m16238.8 10858.6h-835.5v77.4h835.5z" fill="#96d9c9" transform="matrix(.05 0 0 -.05 -12.2325 986.855)"/><path d="m15532.7 11445.3c0-29.3-23.7-53-52.9-53-29.3 0-53 23.7-53 53 0 29.2 23.7 52.9 53 52.9 29.2 0 52.9-23.7 52.9-52.9" fill="#f47458" transform="matrix(.05 0 0 -.05 -11.5475 987.9425)"/><path d="m15696 11445.3c0-29.3-23.7-53-52.9-53-29.3 0-53 23.7-53 53 0 29.2 23.7 52.9 53 52.9 29.2 0 52.9-23.7 52.9-52.9" fill="#96d9c9" transform="matrix(.05 0 0 -.05 -11.8725 987.9425)"/><path d="m15859.3 11445.3c0-29.3-23.7-53-53-53-29.2 0-52.9 23.7-52.9 53 0 29.2 23.7 52.9 52.9 52.9 29.3 0 53-23.7 53-52.9" fill="#f47458" transform="matrix(.05 0 0 -.05 -12.1975 987.9425)"/><path d="m16022.6 11445.3c0-29.3-23.8-53-53-53s-52.9 23.7-52.9 53c0 29.2 23.7 52.9 52.9 52.9s53-23.7 53-52.9" fill="#96d9c9" transform="matrix(.05 0 0 -.05 -12.5225 987.9425)"/><path d="m16190.9 10424.2c0-183.2-148.5-331.6-331.6-331.6s-331.6 148.4-331.6 331.6c0 183.1 148.5 331.5 331.6 331.5s331.6-148.4 331.6-331.5" fill="#f7cc7f" transform="matrix(.05 0 0 -.05 -12.305 985.9075)"/><path d="m9300.86 6671.9c10.23-177.1 243.44-344.3 478.59-344.3s458.95 175.9 458.95 353.2c0 254.6-131.8 254.2-299.59 240.3-31.92-2.7-65.16-5.7-99.01-7.7-19.95-1.2-40.1-1.9-60.35-1.9-20.97 0-42.14 1-63.31 2.5-25.57 1.9-51.14 4.5-76.31 7.2-188.5 20.3-355.94 43.3-338.97-249.3" fill="#f48c7f" transform="matrix(.05 0 0 -.05 -.122 978.3195)"/><path d="m9900.18 7167.1c-.05-.1.27-.4-1.67.2l.37 1c.94-.6 1.47-1.1 1.3-1.2" fill="#50bfa5" transform="matrix(.05 0 0 -.05 -.388 979.391)"/><path d="m9549.11 7030.7c23.01 23 46.03 0 46.03 0-32.4 0-17.7-38.1 9.37-65.2 16.47-16.4 136.76-11 179-2.1 2.55.5 5.3.9 8.14 1.3-30.61 90.7 7.69 296 127.4 260.1l-20.17-56.5c-2.46 1.6-7.99 4.1-12.94 4.2-50.18 5.5-93.69-136.8-80.17-206.8 72.67 1.6 200.03-37.8 213.83-15.1 17.7 29.2-25.78 35.8-25.78 35.8l-38.34-10.2s36.82 54.3 74.32 41c60.6-21.4 46.9-78 32.5-92.4-11.3-11.4-124.62-11.9-179.92-11.6 19.3-7 80.3-37.8 111.44-86.8 35.58-56-38.34-134.9-38.34-134.9s39.93 78.1-3.04 121c-33.55 33.6-102.65 76.1-131.32 93.1l-4.16-195.3s-42.83 37.5-42.83 112.5c0 49.3 7.35 76.2 12.4 88.9l-39.49-3.4c-23.35-7.2-60.71-20.4-89.29-37.8-44.78-27.3 22.62-100.4 22.62-100.4s-34.34 11.6-52.85 45.6c-35.79 65.9 4.19 83.2 36.66 97.4-25.31 2.9-49.16 1.6-84.61 8-60.27 10.8-53.48 86.6-30.46 109.6" fill="#50bfa5" transform="matrix(.05 0 0 -.05 -.1875 978.9715)"/><path d="m7497.54 6467.9s-273.6 689.7-261.28 807c12.33 117.3 118.32 175.9 179.94 41.9 61.63-134.1 83.81-282.1 130.64-229 46.84 53.1-118.31 608.8 69.02 645.1s66.55-712.1 140.5-695.4c73.94 16.8 113.39 815.4 313.04 751.2 199.66-64.2-130.64-809.8-54.23-809.8s199.66 706.5 421.5 597.6-279.77-652.1-199.66-742.8c80.11-90.8 399.32 575.2 603.9 385.3 204.59-189.8-504.6-574.8-478.19-604.7s606.37 448.4 734.54 266.9-449.38-275.8-414.1-335.1c35.28-59.4 331.34 39.2 313.04-78.2-18.3-117.5-645.8-114.5-645.8-114.5z" fill="#3c8f7c" transform="matrix(.05 0 0 -.05 3.067 979.204)"/><path d="m6328.83 6765.3c60.24 25.7 86.86 70.6 39.48 116.7-59.98 61.5-187.46 48.6-241.15-26.9-40.89-56.4-30.97-138.9 4.16-194.4 17.95-29.5 44.3-53.7 74.6-70.9 34.7-20.7 81.44-30.9 97.29-29.8l-7.72-33c-19.3 3.6-37.42 9.3-55.19 16.5-61.63 25.6-104.57 63.3-131.05 106.8-.16 1-76.37 120.6-8.25 221.3 71.58 108 256.82 115.3 323.98 10.7 41.4-63.9-2.15-131.5-73.92-163.7z" fill="#3c8f7c" transform="matrix(.05 0 0 -.05 6.9065 978.5355)"/><path d="m6452.92 6547.4s438.92 33.6 480.96 47.4c42.04 13.7 31.47 103.6 195.35 134.6 163.89 31 263.45-19.6 283.27-99.6 19.83-80.1-96.47-145.4-138.77-91.5-42.29 53.9-54.62 115.6-149.78 104.3-95.16-11.2-167.41-87.3-167.41-87.3z" fill="#466eb6" transform="matrix(.05 0 0 -.05 5.548 978.3105)"/><path d="m7971.34 6657.2s-52.17-308.8-473.06-262.7c-429.65 47-567.99-94.2-932.88-77.4-294 13.5-675.92 400.7-528.93 879.1 147 478.3 1863.85 641.4 1934.87-539" fill="#f7cc7f" transform="matrix(.05 0 0 -.05 5.438 978.925)"/><path d="m7970.54 6677.8c2.59-23.5-.57-47.3-8.86-69.5-31.23-83.6-137.93-267.9-465.4-232.1-429.64 47.1-566.3-78.8-930.94-59.7-293.81 15.4-679.44 368.6-537.77 798.3 140.33 425.6 1829.64 594.9 1942.97-437" fill="#f47458" transform="matrix(.05 0 0 -.05 5.4515 978.822)"/><path d="m6027.57 7114.8c148.16 392.1 1651.57 546.8 1909.95-292.7 14.58-47.1 25.34-95.4 33.02-144.3-23.1 304.7-195.3 549.1-527.36 685.5-488.77 197.6-1109.44 79.3-1332.35-125.5-37.67-33.6-68.91-75.5-83.26-123" fill="#fae0b2" transform="matrix(.05 0 0 -.05 5.417 979.1995)"/><path d="m6377.75 6480.6s-270.71 128.6-281.24 353.9c-10.52 225.3 195.06 416.4 369.72 454.7 174.65 38.2-34.19-48.4-107.54-332.2-73.35-283.9 162.17-481.6 19.06-476.4" fill="#f48c7f" transform="matrix(.05 0 0 -.05 6.7835 978.8355)"/><path d="m7770.16 6667.6c80.02 2.1 140.67 70.8 128.41 147-10.01 62.3-49.24 141.4-153.89 230.4-253.24 215.4-1009.22 395.2-1073.75 236.5-64.53-158.8 336.85-200.5 392.52-431.8 43.1-179.1 501.8-187.4 706.71-182.1" fill="#f48c7f" transform="matrix(.05 0 0 -.05 4.848 979.0635)"/><path d="m7747.93 6575.2c46.65-9.3 68.1-62.2 39.78-98.7-34.27-44.2-98.41-87.2-216.9-74.2-227.96 25-486.74 6.2-694.79-17.9s-372.79-27-365.47 40c7.33 66.9 398.82 169.6 481.4 226.1 77.83 53.2 564.2-37 755.98-75.3" fill="#f48c7f" transform="matrix(.05 0 0 -.05 5.1015 978.091)"/><path d="m9136.55 6640.3s-.17-252.6-291.21-315.8-769.66 76.7-817.29 129c-39.04 42.8-39.44 89.8-33.17 140.3 5.43 43.7 19.18 18 203 72.1 183.82 54 206.43 7.8 384.32 90.3 177.88 82.5 546.86 54.6 554.35-115.9" fill="#184655" transform="matrix(.05 0 0 -.05 2.289 978.1625)"/><path d="m8095.13 6507.4c-39.36 10.6-71.24 33.7-89.77 63.6l-.27.4c-24.72 39.2-18.9 90.5 164.92 144.5 183.83 54.1 221.03 34.3 398.92 116.8 177.88 82.5 562.63-18.6 570.12-189 0 0 0-12.8-4.28-25.9-48.57-75.5-135.75-150.4-292.12-180.6-215.42-41.6-523.38 9.6-747.52 70.2" fill="#50bfa5" transform="matrix(.05 0 0 -.05 2.2795 978.3415)"/><path d="m9074.87 6584.6c31.38 34.9 34.66 81.5 7 118.4-84.06 112.2-362.31 172.1-498.17 109.1-114.97-53.3-173.16-65.2-246.82-80.4-73.63-15.1-371.79-64.6-305.04-164.7 36.03-54 160.17-60 225.71-73.7 64.2-13.5 129.16-24.8 194.73-33.1 65.16-8.2 146.19-22.5 212-14.3 46.9 5.8 274.77-12.5 410.59 138.7" fill="#fae0b2" transform="matrix(.05 0 0 -.05 2.2885 978.338)"/><path d="m8555.37 6774.4c-131.88-17.8-226.42-91.5-211.16-164.6s134.55-117.9 266.43-100.1c131.89 17.8 226.43 91.5 211.17 164.6-15.27 73.1-134.55 117.9-266.44 100.1" fill="#f47458" transform="matrix(.05 0 0 -.05 2.2495 978.3425)"/><path d="m6630.86 6867c60.24 25.8 86.85 70.7 39.48 116.7-59.99 61.5-187.46 48.6-241.16-26.9-40.89-56.4-30.97-138.9 4.16-194.4 17.96-29.5 44.3-53.7 74.6-70.9 34.7-20.7 81.44-30.9 97.29-29.7l-7.72-33.1c-19.29 3.6-37.42 9.3-55.19 16.5-61.63 25.6-104.56 63.3-131.04 106.8-.17 1-76.38 120.6-8.25 221.3 71.57 108 256.82 115.3 323.98 10.7 41.39-63.9-2.16-131.5-73.92-163.7z" fill="#3c8f7c" transform="matrix(.05 0 0 -.05 6.295 978.7405)"/><path d="m7886.4 6665.3c0 152.9-172.9 276.9-386.17 276.9-155.12 0-288.8-65.6-350.21-160.2-318.63-12.8-564.61-95.6-564.61-195.9 0-46.8 50.07-79.7 89.44-100 72.75-37.7 156.54-57.3 237.82-71.5 101.15-17.6 203.52-29 306.2-35.4 98.6-6.2 199.34-11 297.94-3.3 78.69 6.1 156.71 23.7 225.77 60 57.39 30.2 104.22 75.6 126.82 133.7 11.92 30.6 17 63.2 17 95.7" fill="#13375b" transform="matrix(.05 0 0 -.05 4.945 978.373)"/><path d="m6754.94 6649.1s438.92 33.6 480.96 47.4c42.05 13.7 31.48 103.6 195.35 134.6 163.89 31 263.45-19.6 283.28-99.6 19.82-80-96.48-145.4-138.77-91.5s-54.63 115.6-149.79 104.4c-95.15-11.3-167.41-87.4-167.41-87.4z" fill="#466eb6" transform="matrix(.05 0 0 -.05 4.947 978.516)"/><path d="m6791.59 6666.6-46.31-22.1 37.01-30.6-50.86-15.3 49.27-31.5 1.59-1-55.09-29 44.51-34.7-54.87-23.1 7.29-33.2c-150.56 18.4-179.74 127.4-179.74 127.4-2.43 14.1-2.86 27.2-1.59 39 14.49 136.5 252.06 131.8 252.06 131.8l-36.47-21.7 23.9-7-28.98-22.1z" fill="#3c8f7c" transform="matrix(.05 0 0 -.05 6.076 978.2405)"/><path d="m8824.37 6624.6c8.11-140.5 193.05-273.1 379.54-273.1 186.48 0 363.96 139.5 363.96 280.1 0 201.9-104.55 201.6-237.59 190.6-25.3-2.1-51.67-4.6-78.52-6.1-15.81-1-31.79-1.5-47.85-1.5-16.63 0-33.42.8-50.21 2-20.28 1.4-40.56 3.5-60.52 5.7-149.49 16.1-282.28 34.3-268.81-197.7" fill="#b75742" transform="matrix(.05 0 0 -.05 1.0175 978.2385)"/><path d="m9299.65 7017.3c-.04-.1.22-.3-1.32.1l.29.8z" fill="#3c8f7c" transform="matrix(.05 0 0 -.05 .8205 979.094)"/><path d="m9021.24 6909.1c18.24 18.3 36.49 0 36.49 0-25.68 0-14.03-30.2 7.44-51.7 13.06-13.1 108.46-8.7 141.95-1.7 2.04.5 4.21.8 6.45 1-24.27 72 6.11 234.8 101.04 206.3l-15.99-44.8c-1.95 1.3-6.33 3.3-10.27 3.4-39.79 4.3-74.29-108.5-63.56-164.1 57.62 1.3 158.64-29.9 169.58-11.9 14.04 23.1-20.45 28.4-20.45 28.4l-30.41-8.1s29.2 43 58.97 32.5c47.99-17 37.2-61.9 25.77-73.3-9.01-9-98.86-9.5-142.71-9.2 15.3-5.5 63.68-29.9 88.38-68.8 28.21-44.4-30.41-107-30.41-107s31.66 61.9-2.41 96c-26.61 26.6-81.42 60.3-104.15 73.8l-3.29-154.9s-33.97 29.7-33.97 89.2c0 39.1 5.83 60.4 9.83 70.5l-31.32-2.6c-18.52-5.8-48.15-16.3-70.81-30-35.51-21.7 17.94-79.7 17.94-79.7s-27.23 9.2-41.91 36.2c-28.39 52.2 3.32 66 29.07 77.2-20.07 2.4-38.98 1.3-67.1 6.4-47.79 8.5-42.41 68.7-24.15 86.9" fill="#3c8f7c" transform="matrix(.05 0 0 -.05 .969 978.7605)"/><path d="m5995.9 6222.3h4276.8c144.8 0 262.2 117.4 262.2 262.2h-4801.18c0-144.8 117.38-262.2 262.18-262.2" fill="#f7cc7f" transform="matrix(.05 0 0 -.05 3.1445 977.76)"/><path d="m17897.9 10980.1c610.8-320.4 872.4 218 855 204.8 13.4 11.5 113.4 42.7 177.6 65.8 267.5 96.4 450.6 364.9 473.7 651.4 388.3 180.7 530.3 632.1 305 912.3 106 275.5-195.6 886.6-440.2 1056.5-162.3 353.9-542.5-18.3-835.8-253.4-148.7-119.1-246.7-305.8-264.2-500.1-326.8-95.1-525.2-416.5-488.4-764.7-458-297.7-406.1-1045.7 217.3-1372.6" fill="#13375b" transform="matrix(.05 0 0 -.05 -62.2515 1003.7915)"/><path d="m17197.8 4577s-39.2-397.6-139.9-470.6c-100.6-73-234.9-343.1-167.7-489.1 20.9-45.6 62.9-72 110.6-86.7 141.5-43.5 291.9 29.8 352.1 165 33.7 75.5 63.2 176.2 69.1 303.1 15.1 323.1 115.8 487.3 115.8 487.3z" fill="#f7a491" transform="matrix(.05 0 0 -.05 -14.9975 973.1465)"/><path d="m18744.7 4414.3s31.7-401.2 6-531.6c-13.8-69.8-90.6-213.5-55.4-279.2s75.5-82.2 75.5-82.2l913.1-14.6c49.8-.8 16.9 31.1-23.2 60.5-65.7 48.2-118.6 80.1-328.3 181.3-13.7 6.6-63.5 38.2-81.4 49.1-45.6 27.8-91.3 71.5-130.7 115.2-65.5 72.8-71.3 426.1-71.3 426.1z" fill="#f7a491" transform="matrix(.05 0 0 -.05 -63.45 986.8145)"/><path d="m19458.4 9747.1s115-651.4 39.5-1078.5c-75.5-427-437.9-4385.3-437.9-4385.3l-402.7-22.7s-84.4 1653.5-69.3 1883.4c15.1 230 134.6 614.8 134.6 614.8l-40.1 1335 508.2 1753.8z" fill="#6a93ce" transform="matrix(.05 0 0 -.05 -63.1645 993.005)"/><path d="m18156.5 9787.7s-198.8-380-274.3-774.1c-75.5-394.2 55.5-1605.7-89.8-2122.2-78.6-279.7-376.6-711.5-421.9-1072.8-45.3-361.4-223-1307.9-223-1307.9l402.5-79.6 935.5 2363.8 733.8 2136.6 188 1100.4z" fill="#86b1f2" transform="matrix(.05 0 0 -.05 -61.62 993.355)"/><path d="m18531.5 12594.1s-277.7-31.5-443.8-212.2c-166.1-180.6 268.5-1632.9 298.7-1862.9 30.2-229.9-247.5-766.3-247.5-766.3s1037.6-191.8 1319.5-5.6c0 0 30.2 1653.5 0 1817.7-30.2 164.3-281.9 832.2-342.3 897.9s-584.6 131.4-584.6 131.4" fill="#86b1f2" transform="matrix(.05 0 0 -.05 -62.5855 1001.157)"/><path d="m18671.3 13154s-2.2-12.3-6.1-33.3c-18.7-100.8-90.8-434.9-139.5-526.8-58.8-111 201.5-465.1 452-421.9 74.6 12.9-63 325.3-56.4 358.4 12.7 63.4 29.8 149.8 47.4 238.5 9.9 50 19.9 100.7 29.4 148.3 26.8 135.4 48.6 246.1 48.6 246.1z" fill="#f7a491" transform="matrix(.05 0 0 -.05 -62.62 1004.2315)"/><path d="m18665.2 13120.7c3.9 21 6.1 33.3 6.1 33.3l375.4 9.3s-21.8-110.7-48.6-246.1c-9.4-47.4-19.4-97.8-29.2-147.5-58 8.5-118.6 36.6-179.3 89.7-66.2 57.8-109.6 127.3-135.8 201.5 4.6 23.7 8.5 44.1 11.4 59.8" fill="#f47458" transform="matrix(.05 0 0 -.05 -62.7625 1004.825)"/><path d="m18897.1 14046.3s-153.1-21.2-264-164.4c-111-143.2-230.5-585.9 45-826.7 275.6-240.7 547.9 31.8 588.2 320.7 40.4 288.9 32.2 680.9-369.2 670.4" fill="#f7a491" transform="matrix(.05 0 0 -.05 -62.8505 1005.9)"/><path d="m19346.7 13447.2c-17.4-69.6-63-116.7-102-105.1-38.9 11.7-56.3 77.5-38.9 147.2 17.3 69.6 63 116.7 101.9 105.1s56.4-77.5 39-147.2" fill="#f7a491" transform="matrix(.05 0 0 -.05 -63.612 1005.8325)"/><path d="m17380.4 3766.7c-219.4-40-365.4 88.1-441.3 184-55.8-108.6-90-244.2-48.9-333.4 36.1-78.6 134.4-100.1 217.5-103.2 87.9-3.2 170.1 42.7 213.7 119.1 20.4 35.7 41.4 80.1 59 133.5" fill="#13375b" transform="matrix(.05 0 0 -.05 -14.832 972.516)"/><path d="m19250.8 3797.7c-241.5-61.8-420-19.8-519.8 20.4-25.8-72.8-59.9-164.2-41.8-216.9 22.1-64.5 53.7-79.1 81.6-79.9 220.6-5.7 808-13.6 976.2-15.8 23.5-.3 36.4 27.1 21.3 45.1-41.7 49.7-499.5 236.1-517.5 247.1" fill="#13375b" transform="matrix(.05 0 0 -.05 -63.523 986.22)"/><path d="m18525.7 12593.9 59.3 175.8s224.8-140.3 369.2-74.1l-32.9-165.2 100.3-89.8 16.1-331-363.2-38.1-220.6 395.5z" fill="#86b1f2" transform="matrix(.05 0 0 -.05 -62.55 1003.73)"/><path d="m19198.3 9846.8-51.3 1.6c.4 11.9 37.9 1191.2 26.3 1570.1-10.5 348.6-230.7 918.4-263.7 1002.1l-408.3 168.8 33.5 28.5 414.1-157.3 4.2-10.4c10.6-26.2 259.9-645.8 271.6-1030.1 11.6-380.5-26-1561.4-26.4-1573.3" fill="#6a93ce" transform="matrix(.05 0 0 -.05 -62.7855 1001.3575)"/><path d="m19718.2 10642.8s-190.8 424.7-182.2 496.9 82.5 108.3 125.5 25.8c43-82.6 58.5-173.7 91.1-141 32.7 32.7-82.5 374.8 48.2 397.2 130.6 22.3 46.4-438.5 98-428.2 51.6 10.4 79.1 502.1 218.3 462.6 139.3-39.6-91.1-498.7-37.8-498.7s139.3 435.1 294 368c154.8-67.1-195.1-401.5-139.2-457.4s278.5 354.2 421.2 237.3-352-354-333.5-372.4c18.4-18.4 422.9 276.1 512.4 164.4 89.4-111.8-313.5-169.8-288.9-206.4 24.6-36.5 231.1 24.2 218.4-48.1-12.8-72.4-450.5-70.5-450.5-70.5z" fill="#3c8f7c" transform="matrix(.05 0 0 -.05 -65.442 1000.9265)"/><path d="m20490.7 10791.5h-928.4c-75 0-135.9-33.9-135.9-75.7s60.9-75.6 135.9-75.6h928.4c75.1 0 135.9 33.8 135.9 75.6s-60.8 75.7-135.9 75.7" fill="#f48c7f" transform="matrix(.05 0 0 -.05 -65.115 1000.3225)"/><path d="m20490.7 10934.2h-928.4c-75 0-135.9-33.8-135.9-75.6s60.9-75.7 135.9-75.7h928.4c75.1 0 135.9 33.9 135.9 75.7s-60.8 75.6-135.9 75.6" fill="#f48c7f" transform="matrix(.05 0 0 -.05 -65.115 1000.6175)"/><path d="m19533.1 10885.6-380-106.1c29.3-104.9 138.1-166.2 243-136.9 105 29.3 166.3 138.1 137 243" fill="#b75742" transform="matrix(.05 0 0 -.05 -63.758 1000.412)"/><g fill="#f7cc7f"><path d="m19431.1 10811.9c1.5 4.4-1.5 9.4-6.6 11.1s-20.8.5-21.9-4 11.5-10.3 16.6-12 10.5.5 11.9 4.9" transform="matrix(.05 0 0 -.05 -63.8905 1000.524)"/><path d="m19482.4 10831.6c-.6 4.6-5.4 7.8-10.7 7.1-5.4-.8-19-8.6-18-13.1.9-4.6 14.8-4.3 20.2-3.6 5.3.7 9.1 5 8.5 9.6" transform="matrix(.05 0 0 -.05 -63.9925 1000.56)"/><path d="m19448.7 10722.2c2.8 3.7 1.5 9.4-2.8 12.6s-19.5 7.1-22 3.1c-2.5-3.9 7.6-13.4 11.9-16.6 4.4-3.2 10.1-2.8 12.9.9" transform="matrix(.05 0 0 -.05 -63.932 1000.3485)"/><path d="m19403.9 10728.7c4.6 1 7.3 6.2 6.1 11.4-1.3 5.3-10.4 18.1-14.8 16.7s-2.8-15.2-1.6-20.5c1.2-5.2 5.8-8.6 10.3-7.6" transform="matrix(.05 0 0 -.05 -63.8645 1000.376)"/><path d="m19343.3 10700.9c4.6 1.1 7.3 6.2 6 11.5-1.2 5.2-10.3 18-14.7 16.6s-2.9-15.2-1.6-20.4c1.2-5.3 5.8-8.7 10.3-7.7" transform="matrix(.05 0 0 -.05 -63.742 1000.326)"/><path d="m19326.8 10742.1c4.3-1.8 9.4.9 11.4 5.9s1.8 20.7-2.7 22.1c-4.4 1.4-10.9-10.8-12.9-15.8-2-5.1-.2-10.5 4.2-12.2" transform="matrix(.05 0 0 -.05 -63.72 1000.404)"/><path d="m19246 10736.2c3.3-3.3 9-2.7 12.8 1.1 3.8 3.9 9.5 18.5 6 21.5-3.6 2.9-14.3-5.9-18.1-9.8-3.7-3.8-4.1-9.6-.7-12.8" transform="matrix(.05 0 0 -.05 -63.569 1000.3855)"/><path d="m19253.6 10768.6c1.5-4.4 6.9-6.6 12-4.8 5.1 1.7 16.9 12 15.1 16.3s-15.4 1.3-20.5-.4-8.1-6.7-6.6-11.1" transform="matrix(.05 0 0 -.05 -63.5925 1000.437)"/><path d="m20681.7 10432.4h-2019.2v210.4h2101.2v-128.4c0-45.3-36.7-82-82-82" transform="matrix(.05 0 0 -.05 -64.485 999.97)"/></g><path d="m19623.3 10473.3c22.9 32.8 81.2 20.4 164 45.6 83 25.2 188.5 93.1 194 72.8 4.3-15.8-37.5-81.7-105.8-118.8 20.8 3.6 57.4 26.7 58.7 14.7 5.8-50.4-263.7-188.9-502.1-230.3-238.4-41.5-1713.5-148.9-1712.1 90.7.5 88.1 59.3 379.4 79.4 566.5l428.7-37.2-42.9-255.3c380.6-95.1 893.8-133.4 919.7-134.6 69.6-3.3 142.3 85.7 162.6 99.6 111.5 76.4 256.5 172.1 305.4 149.9 48.8-22.2-64.8-77.6-115.1-137.6-50.2-60 265.1-89.9 472.9 64.1 207.7 154.1 25.4-101.3-58.5-128.3-83.9-27.1-255.1-70.9-248.9-61.8" fill="#f7a491" transform="matrix(.05 0 0 -.05 -62.8025 1000.011)"/><path d="m18218.1 10642.8 191.6 581.6c159.6 360.4 118.4 780-114.1 1098.3-62.1 84.9-119.2 136.2-157 111.7 0 0-132.9-63-249.8-335.3-111.1-258.8-305.8-1748.5-229.7-1801.7 76-53.3 127.5-190.2 1214.2-121.7l56 380.1z" fill="#6a93ce" transform="matrix(.05 0 0 -.05 -61.6305 1001.496)"/><path d="m18248.8 9988.9s824-82.3 1204.8 0c0 0 351.8-1376.3 86.8-3156.1 0 0-981.5-89.9-1490.4 221.3l296.9 2714.7-170.8 59.2s-35.4 112.9 72.7 160.9" fill="#c0d8fc" transform="matrix(.05 0 0 -.05 -62.751 995.701)"/><path d="m19282.3 13861.2s-463-306-832.4-230.2c0 0 42.6 120.8 67.4 129.4 24.8 8.5 512.5 182.5 552.5 176.8 39.9-5.7 212.5-76 212.5-76" fill="#13375b" transform="matrix(.05 0 0 -.05 -62.795 1006.4465)"/><path d="m19336.5 14240.3c88 44.9 149.4 122.3 175.3 206.5 15.9 52 18.9 108-1.2 159.1-27.6 70.5-98.1 126.3-180.1 153.1-81.9 26.9-173.9 26.7-258.6 8.1-68.1-14.9-137.4-41.6-206.2-28-23.9 4.8-46.2 14.2-69.1 21.8-72.9 24.1-112.8 78.4-190.8 83.5-97.1 6.4-249.7-41.6-311.2-104.9-43.3-44.5-46.9-108.7-84.5-156.8-57.4-73.5-176.9-91.3-253.1-151.4-90.8-71.5-100.3-204.6-20.4-286 71.1-72.4 188.3-96.3 297.2-114.9 65.8-11.2 133.3-22 199.5-13.2 100.6 13.5 184.1 70.3 277.5 104.1 98.4 35.5 229.1 68.5 334.8 82.6 104.3 13.9 191.3-14.5 290.9 36.4" fill="#c0d8fc" transform="matrix(.05 0 0 -.05 -62.465 1007.7535)"/><path d="m19202.9 14347.3c-14.1 31.9-46.9 55.2-86.5 61.4-142.1 22.6-488.8 50.8-744.7-149.1-26.7-20.8-38.6-52.1-33.2-82.7l111.4-545.9s51.4 105.1 203.9 177.2c327.2 154.7 628.5 53 628.5 53 68.3 10.7-79.4 486.1-79.4 486.1" fill="#86b1f2" transform="matrix(.05 0 0 -.05 -62.699 1006.948)"/><path d="m18786.7 13203.6 218.4 3.4s-3.7-83-99.7-87.3c-117.1-5.2-118.7 83.9-118.7 83.9" fill="#fff" transform="matrix(.05 0 0 -.05 -62.855 1005.222)"/><path d="m2534.45 11231.6c-154.19 3.1-293.23 69.8-386.93 170.4-57.82 62.1-100.21 138.7-106.92 224.3-9.24 117.8 51.72 244.2 148.48 337.8 96.75 93.6 226.09 156.1 357.68 187.7 105.9 25.5 221.33 35.3 308.68 101.3 30.37 23 55.17 51.4 82.15 77.6 85.97 83.7 104.97 187.2 210.95 247.5 132.02 75.2 379.02 111.8 508.59 64.9 91.21-33 139.92-120.6 225.54-162.6 130.81-64.1 310.75-7.5 458.79-39.9 176.29-38.6 280.36-219 223.62-387.8-50.44-150.1-198.79-263.6-338.98-363.9-84.77-60.6-172.22-122-271.11-154.6-150.46-49.7-306.45-26.9-460.78-43.2-162.41-17.2-368.37-60-526.38-112.3-156.07-51.6-258.83-150.7-433.38-147.2" fill="#c0d8fc" transform="matrix(.05 0 0 -.05 12.7925 988.9475)"/><path d="m2649.17 11473c-2.03 54.3 28.19 109.4 79.42 145.2 184.22 128.6 651.82 404.6 1147.51 298.4 51.77-11.1 89.7-46.8 102.96-93.4l215.98-842.6s-143.98 112.5-407.24 109.8c-564.93-5.9-918.7-354.2-918.7-354.2-103.24-31.6-219.93 736.8-219.93 736.8" fill="#86b1f2" transform="matrix(.05 0 0 -.05 12.567 987.7315)"/><path d="m4634.42 7003.2s535.76-567.7 544.43-563.1c72.88 38.3 477.2-2966.7 437.27-3166.5-97.42-487.1-1145.96-2972.299-1145.96-2972.299l-566.7 67.902 738.48 2975.497-271.75 1197.6-384.55 2367.4z" fill="#6a93ce" transform="matrix(.05 0 0 -.05 9.8915 972.3625)"/><path d="m3479.15 6696.5-139.35-515.2-259.11-2669-1107.97-2503.7s155.86-364.299 385.77-415.498l1763.42 2570.598 850.94 3291.6-10.74 547.9z" fill="#86b1f2" transform="matrix(.05 0 0 -.05 12.471 972.6475)"/><path d="m6512.96 9576.5 297.23-228.1c57.27 44.2 182.5 230 263.62 288l-271.52 296.2c-22.39 16.4-34.44 43.4-31.76 71 1.89 19.5 4.67 37.9 7.48 45.6 8.46 23.5 16.05 51.4 24.51 74.8 8.47 23.4-47.6 70.5-77.05 78.9-29.44 8.4-39.22-104.6-51.98-138.1-38.55-101.3-84.92-378.5-93.78-424.4z" fill="#f48c7f" transform="matrix(.05 0 0 -.05 5.8305 984.6035)"/><path d="m6842.3 9377.4c-83.46 89-201.27 139.1-288.66 231.6l-1319.02-908.3s-1019.73 1205.9-1573.46 778.6c242.34-408.1 534.47-799.1 684.86-985.4 338.67-419.3 855.74-619.4 956.71-573.1 113.73 52.2 1509.97 1420.7 1539.57 1456.6" fill="#6a93ce" transform="matrix(.05 0 0 -.05 8.9135 982.5815)"/><path d="m1073.23 12396c43.63-116.2 119.09-299.1 119.09-299.1 2.13-52.5 12.97-270.9 26.8-538.5l371.13 203.3s-56.99 431.8-42.79 460.4c12.01 24.2 40.11-.8 138.96 184.8 28.53 53.5 24.32 142.5 24.32 142.5s-6.03 109.5-31.64 116.7c-25.61 7.1-51.62-12.5-58.18-32.3-6.56-19.9 1-63.3-5.56-83.1-6.56-19.9-60.24-49.3-84.13-51-23.9-1.7-35.91 321.6-35.91 321.6s2.28 92.4 5.41 122.9c2.67 26 16.74 103 16.74 103s14.02 111-20.42 115.2c-20.31 2.5-59.96-91.1-83.16-188.2-24.99-104.5-33.18-213.1-43.95-213-25.32.4-33.36 177.4-33.36 177.4s15.09 83.4 9.88 121.3c17.81 49.3 22.92 137.4-19.19 139.5-7.78.4-48.91-115.7-48.91-115.7s-12.04-79.7-20.14-117.2c-14.28-66.3-5.45-167.1-11.56-212.7-5.09-38-15.54-23.9-19.28-25.9-2.9-1.6-3.72 49.9-6.09 120.4-1.19 35.6-10.14 75.6-5.15 116.9 4.62 38.2 3.42 91.9 1.9 124.2-4.29 91.6-60.32 75.4-70.03-10-3.7-32.5-7.45-68-11.11-103.9-14.22-139.8 2.51-270.8-12.03-273.6-18.87-3.8-35.22 236.4-35.22 236.4s-45.22 128.6-59.41 2.5c-16.47-146.4 1.09-261.9 2.16-267 7.28-34.4-2.8-161.6 40.83-277.8" fill="#f8a492" transform="matrix(.05 0 0 -.05 16.6855 989.815)"/><path d="m3677.06 11285.3s-223.84 185.2-352.69-88.7c0 0-131.35 54.2-202.77-79.3 0 0-230.34 40-244.07-298.8 0 0-116.97 7.8-115.63-130 1.35-137.8 81.36-220 81.36-220s-58.41-56-14.11-177.4c37.68-103.3 127.56-108.8 127.56-108.8s45.4-176.3 129.61-220.8c84.2-44.5 186.8-5.9 186.8-5.9s39.8-93.7 129.38-74.1c89.57 19.6 191.33 119.5 297.44 93 106.11-26.6 364.39 46.2 364.39 46.2s279.67 167.4 154.65 458.8c0 0 138.38 159-17.92 310.9 0 0 67.4 275.2-147.74 406.8-215.15 131.6-376.26 88.1-376.26 88.1" fill="#07345a" transform="matrix(.05 0 0 -.05 12.3755 986.283)"/><path d="m3854.98 9615.4s-404.67-59.1-454.87-65.2c-50.22-6-158.78-1359.8-27.4-2391.2 11.96-93.9-47.01-1027-47.01-1027s659.38-66.7 1129.2 32.9c488.53 103.5 723.95 275.2 723.95 275.2s-71.85 1526-206 1932.9c-48.68 147.7-149.24 320.9-257.63 481.7-217.32 322.3-514.53 582.8-860.24 760.7" fill="#86b1f2" transform="matrix(.05 0 0 -.05 10.925 980.7785)"/><path d="m3815.46 9860.3 68.2-262.3s126.97-374.3 32.37-460.9-497.16 415.8-497.16 415.8l-46.16 679.8z" fill="#f7a491" transform="matrix(.05 0 0 -.05 12.096 984.414)"/><path d="m3387.71 10012.4c113.42-220.1 334.3-337 485.57-374.5l-57.82 222.4-442.75 372.4z" fill="#f47458" transform="matrix(.05 0 0 -.05 12.1705 984.925)"/><path d="m3526.14 10971.4c201.41 97.7 442.32-14.8 500.6-227.5 25.34-92.5 52.28-209.4 70.3-338.5 43.34-310.7-81.19-633.3-222.58-650.4s-556.54 137.2-624.17 577.5c-41.75 271.9 64.5 536.3 275.85 638.9" fill="#f7a491" transform="matrix(.05 0 0 -.05 12.062 985.818)"/><path d="m3358.7 10310.2c8.31-68.7-30.49-129.9-86.65-136.7-56.17-6.8-108.44 43.4-116.75 112.1-8.31 68.6 30.48 129.8 86.65 136.6s108.44-43.4 116.75-112" fill="#f7a491" transform="matrix(.05 0 0 -.05 12.9 985.6525)"/><path d="m4119.95 11200.4c160.05-98 232.5-267.6 161.83-378.8s-257.71-121.9-417.76-23.8c-160.05 98-232.5 267.6-161.83 378.8s257.71 121.8 417.76 23.8" fill="#07345a" transform="matrix(.05 0 0 -.05 11.431 987.054)"/><path d="m3749.58 11059.3c6.09-50.2-49.69-98.4-124.58-107.4-74.89-9.1-140.53 24.3-146.61 74.6-6.09 50.3 49.69 98.4 124.58 107.5 74.89 9 140.53-24.4 146.61-74.7" fill="#07345a" transform="matrix(.05 0 0 -.05 12.191 987.137)"/><path d="m4199.9 10721.2c7.82-64.6-37.66-123.3-101.59-131-63.93-7.8-122.1 38.4-129.93 103-7.82 64.7 37.66 123.4 101.6 131.1 63.93 7.7 122.09-38.4 129.92-103.1" fill="#07345a" transform="matrix(.05 0 0 -.05 11.243 986.472)"/><path d="m3975.7 10132-302.14-33.2s20.14-115.8 153.45-105.1c162.56 13 148.69 138.3 148.69 138.3" fill="#fff" transform="matrix(.05 0 0 -.05 11.761 985.185)"/><path d="m6267.05 11556.6c25.26-40.4 13.02-93.6-27.33-118.9-40.35-25.2-93.54-13-118.81 27.4-25.26 40.3-13.03 93.5 27.32 118.8 40.36 25.2 93.55 13 118.82-27.3zm575.03-727.8-481.31 768.8c-63.7 101.7-197.84 132.6-299.6 68.8l-349.45-218.7 758.67-1211.8 306.03 232.9c50.48 38.4 85.9 93.3 100.12 155.1 16.14 70.2 3.74 143.8-34.46 204.9" fill="#eafcfc" transform="matrix(.05 0 0 -.05 6.821 986.988)"/><path d="m7073.81 9625.2-158.84-99.5-454.28 725.7 158.84 99.4z" fill="#13375b" transform="matrix(.05 0 0 -.05 5.8775 984.9325)"/><path d="m7129.28 9769.4c-4.14 22.5-11.33 45.5-20.62 68.5-10.58 24.5-27.68 54.1-39.34 62.8-7.43 5.5-12.88 23.3-19.94 41.5-2.28 5.8-5.22 11.4-8.89 16.5l-.25.3c-10.65 14.7-24.08 27-38.89 37.6-14.05 10-26.29 23.1-41.92 45.5-12.14 17.3-28.03 32.1-47.07 41.4-18.74 9.2-33.15 9.4-39.87-2.1-31.1-53.4-186.62-224-123.62-306.4 52.71-69 121.44-140.8 135.63-173.4 19.46-44.8 87.82-41.7 128.71-26.1 76.95 29.4 137.4 77.9 116.07 193.9" fill="#f7a491" transform="matrix(.05 0 0 -.05 5.55 984.712)"/><path d="m1562.22 12058.4 359.88-1307.6 1496.77-1197.9 405.91-1150.3-452.07-609.7-754.04 1330.2s-1196.82 1129.9-1264.54 1377.5-279.33 1586.2-279.33 1586.2z" fill="#86b1f2" transform="matrix(.05 0 0 -.05 14.5205 984.9325)"/><path d="m3418.87 9552.9-14.44 212.7s312.73-134.6 451.74-61.9l29.68-112.3 113.35-172.2s33.57-343.8 33.57-351.9c0-8-116.84-145-175.93-126.2s-154.44-81.9-267.25 63.1c-112.81 145.1-196.07 223-208.16 295.5-12.08 72.5 37.44 253.2 37.44 253.2" fill="#86b1f2" transform="matrix(.05 0 0 -.05 12.0025 983.74)"/><path d="m4622.76 6194.5c.42 12.6 45.68 1267.5-168.41 1990.1-188.31 635.4-597.09 1066.7-700.06 1167.9l178.74 220.8-42.49 22.1-233.14-251.9 24.44-22c4.96-4.4 493.69-451.3 702.96-1157.5 210.69-711.1 165.94-1954.2 165.44-1966.7z" fill="#6a93ce" transform="matrix(.05 0 0 -.05 11.129 980.8475)"/><path d="m3384.27 6624.8s1247.86 57.7 1794.58 198.3c0 0 608.77-1530 397.79-3545.6 0 0-1421.18-226.5-2193.2 54.4l165.36 3060.5-254.69 43.9s-62.64 121.2 90.16 188.5" fill="#c0d8fc" transform="matrix(.05 0 0 -.05 10.518 975.0675)"/><path d="m0 0h18248.1v5909.9h-18248.1z" fill="#efede8" transform="matrix(.05 0 0 -.05 1.1675 970.9675)"/><path d="m20701 3146.2c-33.8 71.9 322.5 169.7 334 247.1s-466.2 33.8-490.2 98.3c-44.1 118.7 520.3 79.9 503.4 135.9-16.8 55.9-596.8 124.6-545.7 228.9s594-134 602.6-65.9c8.6 68-524.8 176.1-530.6 322.8-3.2 78.4 888.2-300.4 981.6-247.9s-147.5 397.4-75.3 459.8 385-659 441.5-680.1c56.3-20.9 1279.5-390.8 1695.4-452.1 35.2 140.9 347.9 915.8 378 1048.7 244.2-138.3 555.3 28.1 805.3-95.1-125.8-443.7-408.3-1905.1-521.2-1970.9-343.8-200.3-2152.3 755-2451.2 924.1-299.2 169.2-452 88.5-647 131.5-194.9 43-446.9-157-480.6-85.1" fill="#f7a491" transform="matrix(.05 0 0 -.05 -612.298 673.6515)"/><path d="m23919.1 7451.2c-91 413.5-183.2 870.5 56.7 1324.8 194 367.6 532.6 538.3 920.9 584.4 1100.2 130.6 779.8-926.8 2317.5-1149.1 477.8-69.1 1007-105.3 1405.9-342.9 720.4-429.1 992.3-1117.4 514.6-2238.8-1169.8-2745.8-3968.9-359.8-4395.8 125.9-423.7 481.9-761.3 1429.5-819.8 1695.7" fill="#f47458" transform="matrix(.05 0 0 -.05 -620.191 680.8805)"/><path d="m26432.4 0c-163.9 346.602-539.4 1627.5-491.4 1992.6 60.4 460 929.8 3365.6 597.5 3727-332.3 361.5-887.8 424.6-887.8 424.6s-1048.8-131.5-1169.6-262.9-624.3-1467.8-684.8-1796.4c-51.6-281-39.4-3325.697-30-4084.9z" fill="#86b1f2" transform="matrix(.05 0 0 -.05 -617.3665 673.325)"/><path d="m25371.1 7266s4.3-24.7 12.1-66.7c37.5-201.5 181.7-870.1 279.1-1053.9 117.7-222.1-403.1-930.5-904.3-844-149.3 25.7 126.1 650.9 112.9 717.1-25.4 126.8-59.7 299.7-94.9 477-19.8 100-39.9 201.5-58.7 296.8-53.7 270.9-97.4 492.4-97.4 492.4z" fill="#f7a491" transform="matrix(.05 0 0 -.05 -617.2955 679.7605)"/><path d="m24761 6571.3c-5 25.1-9.9 50.2-14.9 75.1 5-24.9 9.9-50 14.9-75.1" fill="#f47458" transform="matrix(.05 0 0 -.05 -616.4975 680.3925)"/><path d="m24775.7 6497.2c-4.9 24.6-9.8 49.4-14.7 74.1-5 25.1-9.9 50.2-14.9 75.1-9.8 49.5-19.5 98.4-28.8 145.9-53.7 270.9-97.4 492.4-97.4 492.4l751.2-18.7s4.3-24.7 12.1-66.7c5.8-31.2 13.5-72.1 22.8-119.5-52.4-148.4-139.2-287.5-271.7-403.2-121.5-106.1-242.6-162.4-358.6-179.4" fill="#f58c74" transform="matrix(.05 0 0 -.05 -617.0175 680.9575)"/><path d="m24919.2 9051.3s306.3-42.5 528.3-329c221.9-286.4 461.1-1172.3-90.2-1653.9s-1096 63.6-1176.8 641.6c-80.7 578-64.4 1362.1 738.7 1341.3" fill="#f7a491" transform="matrix(.05 0 0 -.05 -616.839 683.115)"/><path d="m24019.8 7852.7c34.8-139.4 126.1-233.5 203.9-210.3 77.9 23.2 112.8 155 78 294.4-34.7 139.3-126 233.5-203.9 210.3-77.8-23.3-112.8-155.1-78-294.4" fill="#f7a491" transform="matrix(.05 0 0 -.05 -615.318 682.9675)"/><path d="m24579 9048.7s719.9-826.4 1058.3-865.4c338.3-38.9 382.8-486.5 382.8-486.5s-121 1031.4-456 1230.3-985.1 121.6-985.1 121.6" fill="#f47458" transform="matrix(.05 0 0 -.05 -617.5975 683.937)"/><path d="m25526.6 7982.6c-27.5-149.6 27.8-286.8 123.6-306.4s195.8 85.7 223.3 235.3-27.8 286.8-123.6 306.4c-95.8 19.7-195.8-85.7-223.3-235.3" fill="#f7a491" transform="matrix(.05 0 0 -.05 -618.3925 683.073)"/><path d="m23801.8 3637c-2.1 14.2 7.7 27.3 21.9 29.4l970.3 142c14.2 2 27.4-7.8 29.5-22l14.7-100.8-1021.6-149.5z" fill="#13375b" transform="matrix(.05 0 0 -.05 -615.633 674.519)"/><path d="m24215.2 3692.6c-7.9 54.2 29.6 104.6 83.8 112.5s104.5-29.6 112.5-83.8c7.9-54.2-29.6-104.5-83.8-112.5-54.2-7.9-104.6 29.6-112.5 83.8zm-54.9-8c12.4-84.5 90.9-143 175.4-130.7 84.5 12.4 143 90.9 130.6 175.5-12.3 84.5-90.9 143-175.4 130.6s-143-90.9-130.6-175.4" fill="#13375b" transform="matrix(.05 0 0 -.05 -615.625 674.588)"/><path d="m23814 3662.9c-8.6-5.2-13.7-15.3-12.2-25.9l14.8-100.9 1021.6 149.5c10.2-69.9-38.1-134.8-108-145l-768.6-112.5c-69.9-10.2-134.8 38.2-145 108l-14.8 100.9c-1.5 10.6 3.6 20.7 12.2 25.9" fill="#355389" transform="matrix(.05 0 0 -.05 -615.6375 674.2885)"/><path d="m24247.1 5003.4 309.3-78c11.7-3 24 1.6 31.1 11.4 12 16.8 3.3 40.5-16.7 45.6l-309.3 78c-11.7 2.9-24-1.6-31.1-11.4-12-16.9-3.3-40.6 16.7-45.6" fill="#184655" transform="matrix(.05 0 0 -.05 -615.8175 677.164)"/><path d="m23527.5 356.199c9.5-66 68.6-113.297 135.2-108.199l2355.9 181.902 9.4 1.297c69.9 10.301 118.3 75.301 108.1 145.203l-454.1 3103.498c-10.2 69.9-75.2 118.3-145.1 108.1l-2326.2-340.4c-70-10.2-118.4-75.2-108.1-145.1z" fill="#184655" transform="matrix(.05 0 0 -.05 -616.237 671.2145)"/><path d="m24525.2 7423.6 523.5 2.8s-11-198.9-241.2-206.8c-280.6-9.6-282.3 204-282.3 204" fill="#fff" transform="matrix(.05 0 0 -.05 -616.5675 681.822)"/><path d="m27168.9 2994.3-842.9-86.1s13.8-715.4-.7-797.6c0 0-1441.3-399.5-2043.7-507.9 0 0-274.3 155.4-385.3 204.9-110.9 49.4-409.2 103.3-475.2 112-65.9 8.6-43.4-63.7 13.2-88.9 56.7-25.3 203.2-94.3 244.8-178.9 0 0-119-13-181.9 15.1-63 28-149.7 87.4-151.1 118.2s-15.7 105-36.3 101c-5.3-1-12.3-25.4-19.4-50.9-6.7-24.2-13.8-49-19.7-73.5-10.6-43.8-22.8-107.9-27.5-136.7-10.8-65.7 29.4-246.9 35-311.3 10.3-117.5 43.9-169.7 105.9-199.6 100.1-34.9 205.9-57.1 362.3-73.3 286.7-29.6 550.3 52.9 665.2 65.9 115 12.9 1950.3 194.9 1950.3 194.9s729.7 105 778.1 230.6c48.4 125.5 28.9 1462.1 28.9 1462.1" fill="#f7a491" transform="matrix(.05 0 0 -.05 -617.4035 671.2085)"/><path d="m26436.7 5826.4s266-126.1 499.9-670.9c222.2-517.8 287.5-3101.6 287.5-3101.6l-983 163.8-346.7 1187.9c-319.4 721-236.9 1560.6 228.3 2197.3 124.2 169.8 238.5 272.4 314 223.5" fill="#6a93ce" transform="matrix(.05 0 0 -.05 -619.9225 675.073)"/><path d="m23884.8 9946.3c-202.1 83.9-363.7 266.8-454.5 483.4-56.1 133.7-87.1 283.8-68.1 430.7 26 202.3 147.3 383.1 305.2 490.8s348.6 146.3 532.2 132.3c147.8-11.4 303.1-53.9 439.6 12.3 47.5 23 89.4 57.9 133.5 88.2 140.4 96.4 199 260.3 358.2 307.4 198.4 58.7 535.8-6 691.3-150.7 109.5-101.9 145.2-273.8 244.4-387.9 151.6-174.3 407-171.3 591.6-301.2 219.8-154.7 298.4-510.5 168.9-764.6-115.2-226-347.5-340.6-564.8-437.3-131.3-58.4-266.5-116.6-407.4-120.9-214.4-6.5-412.5 111.4-621.2 162.8-219.6 54-504.8 87.3-730 80.4-222.4-6.9-390-120.7-618.9-25.7" fill="#c0d8fc" transform="matrix(.05 0 0 -.05 -617.238 688.8175)"/><path d="m24114.3 10292.6c15 92.2 72.7 169.1 151.8 203 284.5 121.7 990.2 345.8 1608.9-85.2 64.6-45.1 103-124.4 105.4-209.4v-1374.1s-142 112.9-489.8 242.7c-746.3 278.5-1386.3-101.6-1386.3-101.6-146.3-.2 10 1324.6 10 1324.6" fill="#86b1f2" transform="matrix(.05 0 0 -.05 -617.0145 686.6665)"/><path d="m0 5909.9h18484.9v339.496h-18484.9z" fill="#13375b" transform="matrix(.05 0 0 -.05 .9275 977.2125)"/><g clip-path="url(#c)" transform="matrix(.05 0 0 -.05 457.37 689.5)"><path d="m0 5571.5h18248.1v338.402h-18248.1z" fill="#e0dcd3" transform="translate(-9124.05 -5740.7)"/></g><path d="m18248.1 5909.9h-6264.6v1.1h6264.6zm-6323.5 0h-6236.72v1.1h6236.72zm-6295.56 0h-5629.04v1.1h5629.04z" fill="#123353" transform="matrix(.05 0 0 -.05 1.1675 976.8725)"/><path d="m11924.6 0h58.898v5571.5h-58.898z" fill="#adb6bd" transform="matrix(.05 0 0 -.05 -4.4925 970.6275)"/><path d="m11924.6 5911h58.898v247.398h-58.898z" fill="#13375b" transform="matrix(.05 0 0 -.05 -4.4925 977.125)"/><path d="m11924.6 5571.5h58.898v338.402h-58.898z" fill="#a2aaaf" transform="matrix(.05 0 0 -.05 -4.4925 976.535)"/><path d="m11924.6 5909.9h58.898v1.0977h-58.898z" fill="#123455" transform="matrix(.05 0 0 -.05 -4.4925 976.8725)"/><path d="m5687.88 0h-58.84v5571.5h58.84z" fill="#adb6bd" transform="matrix(.05 0 0 -.05 8.097 970.6275)"/><path d="m5629.04 5911h58.8398v247.398h-58.8398z" fill="#13375b" transform="matrix(.05 0 0 -.05 8.097 977.125)"/><path d="m5629.04 5571.5h58.8398v338.402h-58.8398z" fill="#a2aaaf" transform="matrix(.05 0 0 -.05 8.097 976.535)"/><path d="m5629.04 5909.9h58.8398v1.0977h-58.8398z" fill="#123455" transform="matrix(.05 0 0 -.05 8.097 976.8725)"/><path d="m0 3049.8h5629.04v58.8008h-5629.04z" fill="#adb6bd" transform="matrix(.05 0 0 -.05 13.784 971.21)"/><path d="m13392.6 5072.7h3477.3v-376.6h-47.1v247.1h-3430.2v-247.1h-47.1v247.1 129.5z" fill="#13375b" transform="matrix(.05 0 0 -.05 -10.795 974.82)"/><path d="m930.906 5072.7h3477.274v-376.6h-47.08v247.1h-3430.194v-247.1h-47.066v247.1 129.5z" fill="#13375b" transform="matrix(.05 0 0 -.05 14.1195 974.82)"/><path d="m930.906 2776.7h3477.274v-376.6h-47.08v247.1h-3430.194v-247.1h-47.066v247.1 129.5z" fill="#13375b" transform="matrix(.05 0 0 -.05 14.1195 970.23)"/><path d="m6160.05 3231.1h5365.95v2082.8h-5365.95z" fill="#13375b" transform="matrix(.05 0 0 -.05 1.729 973.605)"/><path d="m10332.9 4486.2h418.4c241.3 0 436.8 195.6 436.8 436.8h-1292.04c0-241.2 195.54-436.8 436.84-436.8" fill="#eafcfc" transform="matrix(.05 0 0 -.05 -1.664 974.46)"/><path d="m11129.7 4704.6h-167.1c37.1 64.3 58.4 138.8 58.4 218.4h167.1c0-79.6-21.2-154.1-58.4-218.4" fill="#d0eefb" transform="matrix(.05 0 0 -.05 -2.7375 974.68)"/><path d="m8807.94 4486.2h418.42c241.25 0 436.82 195.6 436.82 436.8h-1292.05c0-241.2 195.56-436.8 436.81-436.8" fill="#eafcfc" transform="matrix(.05 0 0 -.05 1.3825 974.46)"/><path d="m9604.74 4704.6h-167.11c37.17 64.3 58.44 138.8 58.44 218.4h167.11c0-79.6-21.26-154.1-58.44-218.4" fill="#d0eefb" transform="matrix(.05 0 0 -.05 .31 974.68)"/><path d="m8819.72 4267.8h418.41c241.25 0 436.82 195.6 436.82 436.8h-1292.05c0-241.2 195.57-436.8 436.82-436.8" fill="#f47458" transform="matrix(.05 0 0 -.05 1.354 974.03)"/><path d="m9577.1 4429.1h-167.12c61.18 75.1 97.85 171 97.85 275.5h167.12c0-104.5-36.67-200.4-97.85-275.5" fill="#9d7187" transform="matrix(.05 0 0 -.05 .3265 974.1925)"/><path d="m8807.94 3992.2h418.42c241.25 0 436.82 195.6 436.82 436.9h-1292.05c0-241.3 195.56-436.9 436.81-436.9" fill="#eafcfc" transform="matrix(.05 0 0 -.05 1.3825 973.4725)"/><path d="m9572.15 4162.1h-167.12c57.07 73.8 91.04 166.4 91.04 267h167.11c0-100.6-33.97-193.2-91.03-267" fill="#d0eefb" transform="matrix(.05 0 0 -.05 .345 973.65)"/><path d="m8819.72 3725.3h418.41c241.25 0 436.82 195.6 436.82 436.8h-1292.05c0-241.2 195.57-436.8 436.82-436.8" fill="#f47458" transform="matrix(.05 0 0 -.05 1.354 972.945)"/><path d="m9576.87 3886.3h-167.12c61.32 75.2 98.08 171.2 98.08 275.8h167.12c0-104.6-36.76-200.6-98.08-275.8" fill="#9d7187" transform="matrix(.05 0 0 -.05 .3325 973.1)"/><path d="m8807.94 3449.5h418.42c241.25 0 436.82 195.5 436.82 436.8h-1292.05c0-241.3 195.56-436.8 436.81-436.8" fill="#eafcfc" transform="matrix(.05 0 0 -.05 1.3825 972.395)"/><path d="m9604.74 3667.9h-167.11c37.16 64.2 58.44 138.8 58.44 218.4h167.11c0-79.6-21.27-154.2-58.44-218.4" fill="#d0eefb" transform="matrix(.05 0 0 -.05 .31 972.605)"/><path d="m8819.72 3231.1h418.41c241.25 0 436.82 195.5 436.82 436.8h-1292.05c0-241.3 195.57-436.8 436.82-436.8" fill="#f47458" transform="matrix(.05 0 0 -.05 1.354 971.955)"/><path d="m9238.13 3231.1h-167.12c241.25 0 436.82 195.5 436.82 436.8h167.12c0-241.3-195.57-436.8-436.82-436.8z" fill="#9d7187" transform="matrix(.05 0 0 -.05 .671 971.955)"/><path d="m10344.7 4267.8h418.4c241.2 0 436.8 195.6 436.8 436.8h-1292.07c0-241.2 195.57-436.8 436.87-436.8" fill="#f7cc7f" transform="matrix(.05 0 0 -.05 -1.693 974.03)"/><path d="m11102 4429.1h-167.1c61.2 75.1 97.9 171 97.9 275.5h167.1c0-16-.9-31.8-2.6-47.4-9.2-86-43.5-164.5-95.3-228.1" fill="#9e9d9b" transform="matrix(.05 0 0 -.05 -2.72 974.1925)"/><path d="m6164.46 693.801h5365.94v2082.9h-5365.94z" fill="#13375b" transform="matrix(.05 0 0 -.05 1.7185 968.5225)"/><path d="m10332.9 3992.2h418.4c241.3 0 436.8 195.6 436.8 436.9h-1292.04c0-241.3 195.54-436.9 436.84-436.9" fill="#eafcfc" transform="matrix(.05 0 0 -.05 -1.664 973.4725)"/><path d="m11097.1 4162.1h-167.1c57 73.8 91 166.4 91 267h167.1c0-100.6-33.9-193.2-91-267" fill="#d0eefb" transform="matrix(.05 0 0 -.05 -2.7025 973.65)"/><path d="m7067.3 3231.1h-167.91v1136.3c0 67.2-54.2 121.7-121.07 121.7v659.9h-164.48v-659.9c-66.86 0-121.07-54.5-121.07-121.7v-1136.3h-328.31v2082.8h1106.14v-164.9h-82.24v-659.9c-66.87 0-121.06-54.5-121.06-121.7z" fill="#0e2e52" transform="matrix(.05 0 0 -.05 5.9835 973.605)"/><path d="m10344.7 3725.3h418.4c241.2 0 436.8 195.6 436.8 436.8h-1292.07c0-241.2 195.57-436.8 436.87-436.8" fill="#f7cc7f" transform="matrix(.05 0 0 -.05 -1.693 972.945)"/><path d="m11101.8 3886.3h-167.1c61.3 75.2 98.1 171.2 98.1 275.8h167.1c0-16-.9-31.8-2.6-47.4-9.3-86.1-43.6-164.7-95.5-228.4" fill="#9e9d9b" transform="matrix(.05 0 0 -.05 -2.715 973.1)"/><path d="m7270.6 693.801h-1106.14v2082.899h1106.14v-204.2h-154.6v-601.3h-184.82v-918.1c0-167.401 135.71-303.1 303.12-303.1h-4.73c-7.81 0-14.14-6.301-14.14-14.199v-27.801c0-7.801 6.33-14.199 14.14-14.199z" fill="#0e2e52" transform="matrix(.05 0 0 -.05 5.9835 968.5225)"/><path d="m10332.9 3449.5h418.4c241.3 0 436.8 195.5 436.8 436.8h-1292.04c0-241.3 195.54-436.8 436.84-436.8" fill="#eafcfc" transform="matrix(.05 0 0 -.05 -1.664 972.395)"/><path d="m11129.7 3667.9h-167.1c37.1 64.2 58.4 138.8 58.4 218.4h167.1c0-79.6-21.3-154.2-58.4-218.4" fill="#d0eefb" transform="matrix(.05 0 0 -.05 -2.7375 972.605)"/><path d="m10344.7 3231.1h418.4c241.2 0 436.8 195.5 436.8 436.8h-1292.07c0-241.3 195.57-436.8 436.87-436.8" fill="#f7cc7f" transform="matrix(.05 0 0 -.05 -1.693 971.955)"/><path d="m10763.1 3231.1h-167.2c241.3 0 436.9 195.5 436.9 436.8h167.1c0-16-.9-31.9-2.6-47.4-23.6-219-209-389.4-434.2-389.4" fill="#9e9d9b" transform="matrix(.05 0 0 -.05 -2.385 971.955)"/><path d="m10180.1 811.102h-1059.07c0-64.801 17.53-117.301 39.14-117.301h980.73c21.7 0 39.2 52.5 39.2 117.301" fill="#96d9c9" transform="matrix(.05 0 0 -.05 .1115 966.5625)"/><path d="m10180.1 928.301h-1059.07v-71.598c0-25.203 20.45-45.601 45.67-45.601h1004.7c4.8 0 8.7 3.898 8.7 8.699z" fill="#50bfa5" transform="matrix(.05 0 0 -.05 .1115 966.795)"/><path d="m10180.1 1045.6h-1059.07c0-64.799 17.53-117.299 39.14-117.299h980.73c21.7 0 39.2 52.5 39.2 117.299" fill="#96d9c9" transform="matrix(.05 0 0 -.05 .1115 967.0275)"/><path d="m10180.1 1162.8h-1059.07c0-64.7 17.53-117.2 39.14-117.2h980.73c21.7 0 39.2 52.5 39.2 117.2" fill="#50bfa5" transform="matrix(.05 0 0 -.05 .1115 967.27)"/><path d="m10180.1 1280.1h-1059.07c0-64.8 17.53-117.3 39.14-117.3h980.73c21.7 0 39.2 52.5 39.2 117.3" fill="#96d9c9" transform="matrix(.05 0 0 -.05 .1115 967.4925)"/><path d="m10180.1 1397.3h-1059.07c0-64.7 17.53-117.2 39.14-117.2h980.73c21.7 0 39.2 52.5 39.2 117.2" fill="#50bfa5" transform="matrix(.05 0 0 -.05 .1115 967.735)"/><path d="m10726.4 693.801h-980.8 395.3c21.7 0 39.2 52.5 39.2 117.301h-8.7c4.8 0 8.7 3.898 8.7 8.699v108.5h-39.2c21.7 0 39.2 52.5 39.2 117.299h-39.2c21.7 0 39.2 52.5 39.2 117.2h-39.2c21.7 0 39.2 52.5 39.2 117.3h-39.2c21.7 0 39.2 52.5 39.2 117.2h-473.63 1059.03c0-64.7-17.5-117.2-39.1-117.2h39.1c0-64.8-17.5-117.3-39.1-117.3h39.1c0-64.7-17.5-117.2-39.1-117.2h39.1c0-64.799-17.5-117.299-39.1-117.299h39.1v-73.399c0-24.203-19.6-43.8-43.8-43.8h43.8c0-64.801-17.5-117.301-39.1-117.301" fill="#11345a" transform="matrix(.05 0 0 -.05 -1.0595 967.1475)"/><path d="m10140.9 693.801h-395.3c-21.62 0-39.13 52.5-39.13 117.301h2.79 462.14 8.7c0-64.801-17.5-117.301-39.2-117.301" fill="#85cdc8" transform="matrix(.05 0 0 -.05 -.4745 966.5625)"/><path d="m10171.4 811.102h-462.14c-1.55 0-2.79 1.199-2.79 2.8v114.399h39.13 395.3 39.2v-108.5c0-4.801-3.9-8.699-8.7-8.699z" fill="#47b4a4" transform="matrix(.05 0 0 -.05 -.474 966.795)"/><path d="m10140.9 928.301h-395.3c-21.62 0-39.13 52.5-39.13 117.299h39.13 395.3 39.2c0-64.799-17.5-117.299-39.2-117.299z" fill="#85cdc8" transform="matrix(.05 0 0 -.05 -.474 967.0275)"/><path d="m10140.9 1045.6h-395.3c-21.62 0-39.13 52.5-39.13 117.2h39.13 395.3 39.2c0-64.7-17.5-117.2-39.2-117.2z" fill="#47b4a4" transform="matrix(.05 0 0 -.05 -.474 967.27)"/><path d="m10140.9 1162.8h-395.3c-21.62 0-39.13 52.5-39.13 117.3h39.13 395.3 39.2c0-64.8-17.5-117.3-39.2-117.3z" fill="#85cdc8" transform="matrix(.05 0 0 -.05 -.474 967.4925)"/><path d="m10140.9 1280.1h-395.3c-21.62 0-39.13 52.5-39.13 117.2h473.63c0-64.7-17.5-117.2-39.2-117.2z" fill="#47b4a4" transform="matrix(.05 0 0 -.05 -.474 967.735)"/><path d="m10965.6 811.102h-1059.09c0-64.801 17.52-117.301 39.13-117.301h980.76c21.6 0 39.2 52.5 39.2 117.301" fill="#f47458" transform="matrix(.05 0 0 -.05 -1.463 966.5625)"/><path d="m10965.6 928.301h-1059.09v-58.199c0-32.602 26.43-59 59.05-59h977.94c12.2 0 22.1 9.898 22.1 22z" fill="#eafcfc" transform="matrix(.05 0 0 -.05 -1.463 966.795)"/><path d="m10965.6 1045.6h-1059.09c0-64.799 17.52-117.299 39.13-117.299h980.76c21.6 0 39.2 52.5 39.2 117.299" fill="#f47458" transform="matrix(.05 0 0 -.05 -1.463 967.0275)"/><path d="m10965.6 1162.8h-1059.09c0-64.7 17.52-117.2 39.13-117.2h980.76c21.6 0 39.2 52.5 39.2 117.2" fill="#eafcfc" transform="matrix(.05 0 0 -.05 -1.463 967.27)"/><path d="m10965.6 1280.1h-1059.09c0-64.8 17.52-117.3 39.13-117.3h980.76c21.6 0 39.2 52.5 39.2 117.3" fill="#f47458" transform="matrix(.05 0 0 -.05 -1.463 967.4925)"/><path d="m10965.6 1397.3h-1059.09c0-64.7 17.52-117.2 39.13-117.2h980.76c21.6 0 39.2 52.5 39.2 117.2" fill="#eafcfc" transform="matrix(.05 0 0 -.05 -1.463 967.735)"/><path d="m7311.56 1622.6h902.66c108 0 195.56 87.6 195.56 195.6v754.3h-1293.78v-754.3c0-108 87.56-195.6 195.56-195.6" fill="#96d9c9" transform="matrix(.05 0 0 -.05 3.8855 969.2475)"/><path d="m8140.47 1971.2h269.313v601.301h-269.313z" fill="#85cdc8" transform="matrix(.05 0 0 -.05 2.8635 969.6025)"/><path d="m7007.82 2477.2 189.48-123.8c5.72-3.8 13.39-2.2 17.12 3.6l13.35 20.4c3.74 5.7 2.13 13.4-3.59 17.1l-189.48 123.9c-5.72 3.7-13.39 2.1-17.12-3.6l-13.35-20.4c-3.74-5.8-2.13-13.4 3.59-17.2" fill="#f7cc7f" transform="matrix(.05 0 0 -.05 5.18 969.9235)"/><path d="m8517.95 2477.2-189.48-123.8c-5.72-3.8-13.38-2.2-17.12 3.6l-13.35 20.4c-3.73 5.7-2.13 13.4 3.59 17.1l189.48 123.9c5.72 3.7 13.39 2.1 17.13-3.6l13.34-20.4c3.74-5.8 2.13-13.4-3.59-17.2" fill="#f7cc7f" transform="matrix(.05 0 0 -.05 2.5915 969.9235)"/><path d="m7229.57 693.801h1066.63c7.81 0 14.15 6.398 14.15 14.199v27.801c0 7.898-6.34 14.199-14.15 14.199h-1066.63c-7.81 0-14.14-6.301-14.14-14.199v-27.801c0-7.801 6.33-14.199 14.14-14.199" fill="#f7cc7f" transform="matrix(.05 0 0 -.05 3.8855 966.495)"/><path d="m7234.3 750h1057.17c167.42 0 303.13 135.699 303.13 303.1v918.1h-1663.42v-918.1c0-167.401 135.71-303.1 303.12-303.1" fill="#f47458" transform="matrix(.05 0 0 -.05 3.8855 967.78)"/><path d="m8285.77 750h-346.24c170.56 0 308.82 138.199 308.82 308.8v912.4h346.25v-912.4c0-170.601-138.27-308.8-308.83-308.8" fill="#d86d57" transform="matrix(.05 0 0 -.05 2.8765 967.78)"/><path d="m6792.08 1848.7 243.62-159.2c7.36-4.8 17.22-2.7 22.02 4.6l17.16 26.3c4.81 7.3 2.74 17.2-4.61 22l-243.62 159.2c-7.36 4.8-17.21 2.8-22.02-4.6l-17.15-26.2c-4.81-7.4-2.75-17.2 4.6-22.1" fill="#f7cc7f" transform="matrix(.05 0 0 -.05 5.551 968.648)"/><path d="m8733.69 1848.7-243.62-159.2c-7.36-4.8-17.21-2.7-22.02 4.6l-17.15 26.3c-4.81 7.3-2.75 17.2 4.61 22l243.62 159.2c7.35 4.8 17.21 2.8 22.01-4.6l17.16-26.2c4.81-7.4 2.74-17.2-4.61-22.1" fill="#f7cc7f" transform="matrix(.05 0 0 -.05 2.22 968.648)"/><path d="m7088.93 2641.5h1347.92c9.6 0 17.37-7.8 17.37-17.4v-34.2c0-9.6-7.77-17.4-17.37-17.4h-1347.92c-9.6 0-17.38 7.8-17.38 17.4v34.2c0 9.6 7.78 17.4 17.38 17.4" fill="#c6e3fd" transform="matrix(.05 0 0 -.05 3.8855 970.27)"/><path d="m7927.36 4489.1v659.9h-164.48v-659.9c-66.86 0-121.07-54.5-121.07-121.7v-1136.3h406.63v1136.3c0 67.2-54.21 121.7-121.08 121.7" fill="#eafcfc" transform="matrix(.05 0 0 -.05 3.7235 973.4325)"/><path d="m8048.44 3231.1h-84.63v1136.3c0 67.2-54.2 121.7-121.07 121.7v659.9h84.62v-659.9c66.86 0 121.08-54.5 121.08-121.7z" fill="#d0eefb" transform="matrix(.05 0 0 -.05 3.5205 973.4325)"/><path d="m7927.36 4828.8h-164.47v320.2h164.47z" fill="#f47458" transform="matrix(.05 0 0 -.05 3.7235 975.035)"/><path d="m8048.43 3394.3h-406.61v578.3h406.61z" fill="#96d9c9" transform="matrix(.05 0 0 -.05 3.7235 972.4225)"/><path d="m7352.83 4489.1v659.9h-164.47v-659.9c-66.87 0-121.06-54.5-121.06-121.7v-1136.3h406.61v1136.3c0 67.2-54.21 121.7-121.08 121.7" fill="#eafcfc" transform="matrix(.05 0 0 -.05 4.87 973.4325)"/><path d="m7473.91 3231.1h-84.61v1136.3c0 67.2-54.22 121.7-121.08 121.7v659.9h84.61v-659.9c66.87 0 121.08-54.5 121.08-121.7z" fill="#98b5d9" transform="matrix(.05 0 0 -.05 4.6765 973.4325)"/><path d="m7352.84 4828.8h-164.48v320.2h164.48z" fill="#f47458" transform="matrix(.05 0 0 -.05 4.87 975.035)"/><path d="m7473.91 3394.3h-406.62v578.3h406.62z" fill="#f7cc7f" transform="matrix(.05 0 0 -.05 4.87 972.4225)"/><path d="m6778.32 4489.1v659.9h-164.48v-659.9c-66.86 0-121.07-54.5-121.07-121.7v-1136.3h406.62v1136.3c0 67.2-54.2 121.7-121.07 121.7" fill="#eafcfc" transform="matrix(.05 0 0 -.05 6.026 973.4325)"/><path d="m6899.39 3231.1h-84.62v1136.3c0 67.2-54.21 121.7-121.08 121.7v659.9h84.63v-659.9c66.86 0 121.07-54.5 121.07-121.7z" fill="#d0eefb" transform="matrix(.05 0 0 -.05 5.823 973.4325)"/><path d="m6778.32 4828.8h-164.48v320.2h164.48z" fill="#f47458" transform="matrix(.05 0 0 -.05 6.026 975.035)"/><path d="m6899.39 3394.3h-406.62v578.3h406.62z" fill="#86b1f2" transform="matrix(.05 0 0 -.05 6.026 972.4225)"/><path d="m6280.2 17124.9h-5884.868v-101.9h5884.868z" fill="#13375b" transform="matrix(.05 0 0 -.05 12.7415 999.2075)"/><path d="m6280.2 14407.5h-5884.868v-101.8h5884.868z" fill="#13375b" transform="matrix(.05 0 0 -.05 12.7415 993.77)"/></svg>