<svg height="166" viewBox="0 0 237 166" width="237" xmlns="http://www.w3.org/2000/svg"><path d="m30645.6 10683.8c13.2-8.3 55.9-5.2 117.6-2 170.7 8.6 486.6 17.2 722.8-215.8 104.2-102.9 118.6-396.6 35.4-601-83.2-204.3-374.8-406.6-755-443.7-715.7-69.8-1202.1 214.9-1430.3 382.1-358.8 262.9-439.3 864.4-220.4 1186.9 50.5 74.5 158.7 123.8 244.9 175.2 570.6 340.9 947.3 29.6 1083.6-72.4 201.7-151 131.2-365.2 201.4-409.3" fill="#e22727" transform="matrix(.06 0 0 -.06 -1673.9846 686.332)"/><path d="m30715.2 10859.4c49.7-31.2 408 12 729.4-305.2 208.4-205.6 151.8-883.2-608.7-957.3-715.7-69.8-1202 214.9-1430.3 382.1-441.5 323.5-501.9 994.5-42.4 1268.9 570.6 341 1014.2 122.8 1150.5 20.8 201.8-151 131.2-365.3 201.5-409.3" fill="#ff6a5f" transform="matrix(.06 0 0 -.06 -1674.0214 686.71)"/><path d="m31390.1 10371.4c-176.4 110.9-347.6 151.9-490.8 159.5-84.6 27.4-167.9 43.5-225.7 43.5-19.2 0-35.6-1.8-48.2-5.5-37.4-11.1-209.4-69.7-391.2-140.7-42.8 37.6-89.3 63.9-135.6 75.9-24.2 6.3-47.9 11.5-71.2 15.9 117.6 70.1 221.4 146.5 266.5 210.3 92.5 130.8 50.3 347.8-113.3 435.4-47.4 25.4-116.2 39.8-192.7 39.8-187.4 0-421.1-86.4-500.8-309.2-61.7-172.3-57.9-330-33.4-438.7-71.1-28.4-118.6-53.6-139.4-53.6-.3 0-.6 0-.9 0-37.6 1.4-67.9 47.2-113 99.8-44.7 244.3 35.7 502 252.4 663.9 183.5 137.1 352.4 169.8 497.4 177.9 17.3.9 34.3 1.4 51.1 1.4 234.7 0 416.3-90.7 489.2-165.8 155.2-160 54.9-371.3 117.3-410.2 44.1-27.6 415.8 35.8 701.3-244 37.9-37.1 66.1-91.7 81-155.6" fill="#fa4c44" transform="matrix(.06 0 0 -.06 -1673.9974 687.642)"/><path d="m30361.2 10303.4c-35.5 47-74.3 86.1-113.5 112.5-4.4 4.2-8.9 8.3-13.5 12.3 181.8 71 353.8 129.6 391.2 140.7 12.6 3.7 29 5.5 48.2 5.5 57.8 0 141.1-16.1 225.7-43.5-17.4.9-34.3 1.4-50.8 1.4-121.1 0-217.9-23-274.2-43.4-116-41.8-174.4-117-213.1-185.5" fill="#f94840" transform="matrix(.06 0 0 -.06 -1674.735 686.524)"/><path d="m29453.7 10457.6c-24.5 108.7-28.3 266.4 33.4 438.7 79.7 222.8 313.4 309.2 500.8 309.2 76.5 0 145.3-14.4 192.7-39.8 163.6-87.6 205.8-304.6 113.3-435.4-45.1-63.8-148.9-140.2-266.5-210.3-64.8 12.2-125.9 17.3-183.1 17.3-146.3 0-266.9-33.4-356.8-66.7-11.8-4.3-23-8.7-33.8-13m87.8 112.2c-28.1 0-55.1-6.6-63.8-21.6-16.4-28.3 9.1-39.1 42.6-39.1 34.7 0 78 11.7 92 27.5l3.2 10.3c-8.5 14.3-41.9 22.9-74 22.9m-4.6 109.7c-27.8 0-52.2-8.7-54.2-31.6-1.8-21.7 20-29.4 46.3-29.4 30.3 0 66.8 10.2 80.8 21l7.8 12.8c-10.2 15-47.8 27.2-80.7 27.2m-10.4 117.5c-20.8 0-37-6.8-40.1-25.6-5.2-32.4 33.8-47.6 72.7-47.6 30.6 0 61.1 9.4 69.9 27.1l6.7 9.3c-10.6 11.1-68.6 36.8-109.2 36.8m756.9 39c-5.7 0-13.1-1.7-22.5-5.8-24.1-10.6-58.5-34-46.6-63.9 2.2-.3 4.5-.4 6.7-.4 27.6 0 60.7 20.8 74.4 43.3 6 .9 10.3 26.8-12 26.8m-733.2 69.3c-18.8 0-31.3-8.2-28-31.3 4.1-29.1 38.4-40.8 72.7-40.8 26.2 0 52.4 6.8 65.1 18l-4.8 9c.2.2.5.3.9.3.7 0 1.7-.4 2.6-.9.8-.5 1.6-1 2-1s.4.7-.7 2.9c-14.6 13.4-73.8 43.8-109.8 43.8m722.5 63.8c-29.3 0-75.5-40.7-74.2-66 .7-16 10.3-22.4 23.2-22.4 31 0 81.4 37.1 74.9 68.2l-1.1-3.5c-2 17-11 23.7-22.8 23.7m-693 18.1c-9.2 0-15.9-3.3-18.5-11.4-11.3-35.5 66.6-62.2 106.8-62.2 9.4 0 16.7 1.5 20.4 4.6l6.7 9.4c-11.1 12-80.7 59.6-115.4 59.6m648.8 91.3c-38.4 0-80-99.8-48.8-113.2 2.3-1 4.8-1.4 7.4-1.4 35.8 0 87.7 93.1 70.5 117.9l-11.2-11.7c-5.7 5.8-11.8 8.4-17.9 8.4m-571.7-17.6c-8.5 0-15.7-3.9-20.2-13.5-14.5-30.9 57.6-76.1 92.7-76.1 6.8 0 12.2 1.7 15.3 5.5l4.6 2.4c-5 22.7-59.3 81.7-92.4 81.7m94.1 62.9c-1.9 0-3.9 0-6-.2-10.7-28.6 15.9-70.9 36.1-90.6 12.9-12.6 37.2-21.9 53.5-21.9 16.6 0 24.9 9.7 4.2 35.5l-.3 11.4c-25.1 21.5-41.2 65.8-87.5 65.8m372.3 28.3c-48.3 0-56-115.7-23.6-124.9 1.8-.5 3.5-.7 5.2-.7 36.9 0 50.9 117 33.5 125.6l-11.6-.2c-1.2.1-2.3.2-3.5.2m-236.8 11.3c-8.5 0-15.2-7.7-17.2-27.8-2.6-25.4 6.9-51.6 29.2-68.7 8.1-6.1 26-13.2 38.8-13.2 11.7 0 19 6 10.3 24.1l-4.9 9c2 23.2-33.6 76.6-56.2 76.6m134.2 21.5c-.7 0-1.3-.1-1.9-.2l-10.2-8.2c-42.4-10.9-25-121.8 16.8-121.8 3.6 0 7.3.8 11.2 2.5 32.5 14.5 14.4 127.7-15.9 127.7" fill="#f94840" transform="matrix(.06 0 0 -.06 -1672.9354 687.573)"/><path d="m30221 10765.9c-2.2 0-4.5.1-6.7.4-11.9 29.9 22.5 53.3 46.6 63.9 9.4 4.1 16.8 5.8 22.5 5.8 22.3 0 18-25.9 12-26.8-13.7-22.5-46.8-43.3-74.4-43.3" fill="#f58161" transform="matrix(.06 0 0 -.06 -1673.9124 687.497)"/><path d="m30221.7 10880.7c-12.9 0-22.5 6.4-23.2 22.4-1.3 25.3 44.9 66 74.2 66 11.8 0 20.8-6.7 22.8-23.7l1.1 3.5c6.5-31.1-43.9-68.2-74.9-68.2" fill="#f58161" transform="matrix(.06 0 0 -.06 -1673.8892 687.824)"/><path d="m30187.1 10963.9c-2.6 0-5.1.4-7.4 1.4-31.2 13.4 10.4 113.2 48.8 113.2 6.1 0 12.2-2.6 17.9-8.4l11.2 11.7c17.2-24.8-34.7-117.9-70.5-117.9" fill="#f58161" transform="matrix(.06 0 0 -.06 -1673.8028 688.081)"/><path d="m30104.8 11026.5c-1.7 0-3.4.2-5.2.7-32.4 9.2-24.7 124.9 23.6 124.9 1.2 0 2.3-.1 3.5-.2l11.6.2c17.4-8.6 3.4-125.6-33.5-125.6" fill="#f58161" transform="matrix(.06 0 0 -.06 -1673.5316 688.258)"/><path d="m30025.3 11054.7c-41.8 0-59.2 110.9-16.8 121.8l10.2 8.2c.6.1 1.2.2 1.9.2 30.3 0 48.4-113.2 15.9-127.7-3.9-1.7-7.6-2.5-11.2-2.5" fill="#f58161" transform="matrix(.06 0 0 -.06 -1673.274 688.338)"/><path d="m29937.2 11053.7c-12.8 0-30.7 7.1-38.8 13.2-22.3 17.1-31.8 43.3-29.2 68.7 2 20.1 8.7 27.8 17.2 27.8 22.6 0 58.2-53.4 56.2-76.6l4.9-9c8.7-18.1 1.4-24.1-10.3-24.1" fill="#f58161" transform="matrix(.06 0 0 -.06 -1672.983 688.313)"/><path d="m29834.5 11011.1c-16.3 0-40.6 9.3-53.5 21.9-20.2 19.7-46.8 62-36.1 90.6 2.1.2 4.1.2 6 .2 46.3 0 62.4-44.3 87.5-65.8l.3-11.4c20.7-25.8 12.4-35.5-4.2-35.5" fill="#f58161" transform="matrix(.06 0 0 -.06 -1672.6826 688.197)"/><path d="m29729.3 10971.3c-35.1 0-107.2 45.2-92.7 76.1 4.5 9.6 11.7 13.5 20.2 13.5 33.1 0 87.4-59 92.4-81.7l-4.6-2.4c-3.1-3.8-8.5-5.5-15.3-5.5" fill="#f58161" transform="matrix(.06 0 0 -.06 -1672.407 688.066)"/><path d="m29668 10913.6c-40.2 0-118.1 26.7-106.8 62.2 2.6 8.1 9.3 11.4 18.5 11.4 34.7 0 104.3-47.6 115.4-59.6l-6.7-9.4c-3.7-3.1-11-4.6-20.4-4.6" fill="#f58161" transform="matrix(.06 0 0 -.06 -1672.236 687.894)"/><path d="m29594.9 10833.2c-34.3 0-68.6 11.7-72.7 40.8-3.3 23.1 9.2 31.3 28 31.3 36 0 95.2-30.4 109.8-43.8 1.1-2.2 1.1-2.9.7-2.9s-1.2.5-2 1c-.9.5-1.9.9-2.6.9-.4 0-.7-.1-.9-.3l4.8-9c-12.7-11.2-38.9-18-65.1-18" fill="#f58161" transform="matrix(.06 0 0 -.06 -1672.1386 687.675)"/><path d="m29559.1 10723.8c-38.9 0-77.9 15.2-72.7 47.6 3.1 18.8 19.3 25.6 40.1 25.6 40.6 0 98.6-25.7 109.2-36.8l-6.7-9.3c-8.8-17.7-39.3-27.1-69.9-27.1" fill="#f58161" transform="matrix(.06 0 0 -.06 -1672.0492 687.384)"/><path d="m29529 10618.5c-26.3 0-48.1 7.7-46.3 29.4 2 22.9 26.4 31.6 54.2 31.6 32.9 0 70.5-12.2 80.7-27.2l-7.8-12.8c-14-10.8-50.5-21-80.8-21" fill="#f58161" transform="matrix(.06 0 0 -.06 -1672.026 687.09)"/><path d="m29520.3 10509.1c-33.5 0-59 10.8-42.6 39.1 8.7 15 35.7 21.6 63.8 21.6 32.1 0 65.5-8.6 74-22.9l-3.2-10.3c-14-15.8-57.3-27.5-92-27.5" fill="#f58161" transform="matrix(.06 0 0 -.06 -1672.013 686.787)"/><path d="m30275.3 9968.1c-21-5.7-90.3 26.5-189.7 58.7-169.2 54.8-425.4 109.6-678.1-22.5-130-68-230.6-344.7-211.5-564.3 19.1-219.5 238.1-497.7 590.7-643.8 663.6-274.9 1212.7-144.1 1480.4-50.6 420.7 146.9 675.4 698.5 561.5 1070.6-26.3 85.8-115.2 164.4-182.3 238.7-444.9 491.9-897 303.8-1057.4 246-237.5-85.7-233.4-311.1-313.6-332.8" fill="#e22727" transform="matrix(.06 0 0 -.06 -1674.6238 684.044)"/><path d="m30260.7 10156.2c-17.7-4.8-61.9 6.1-126.5 16.9-142.7 24-385 47.9-661.1-96.5-260-136-406.1-800.2 299-1092.3 663.6-274.9 1212.7-144.1 1480.4-50.6 517.7 180.8 773.8 804.7 415.7 1200.8-444.9 491.9-933.5 412.3-1093.9 354.4-237.5-85.6-233.4-311-313.6-332.7" fill="#ff6a5f" transform="matrix(.06 0 0 -.06 -1674.6866 684.4856)"/><path d="m30577.3 8906.1c-207.7 0-448.7 35.9-709.9 141.9 68.1 37.7 137 80.5 206.1 129.3 162.7-57.1 317.8-77.8 452.5-77.8 239 0 413.4 65.4 449.4 109.1 44.5 54-265.5 308-493.1 481.4 32.1 92.3 43 180.6 32 256.6-13.2 90.7-48.8 186.3-96 269.8 25.9 65.7 67.6 135.4 152.3 182.1 55 30.3 148.8 54.6 263.5 54.6 90.5 0 194.1-15.2 301.7-54.6 136.2-49.9 288.1-130.2 423-314.6 277.9-380.1 72.9-918.3-386.2-1077.3-130.9-45.3-337.5-100.5-595.3-100.5m339.8 1392.5c-19.7 0-38.1-1.7-54.8-5-182.3-36.1-286.8-231.4-237-383.4 66.5-202.6 524.1-623.4 612.5-623.4 2.8 0 5.3.4 7.4 1.3 65.6 29 213.9 241.9 200.5 546.2-13.2 302.3-333.4 464.3-528.6 464.3" fill="#fb544b" transform="matrix(.06 0 0 -.06 -1675.2972 684.496)"/><path d="m30260.7 9852.4c76-50.3 780.3-564.3 714.7-643.8-65.7-79.6-590.7-231.5-1130.4 72.3-314.8 177.3-328.1 463-175 549.8 153.2 86.8 503.2 79.5 590.7 21.7" fill="#ff6a5f" transform="matrix(.06 0 0 -.06 -1673.965 684.012)"/><path d="m30625.3 9910.2c68.6-209.1 554.3-651 619.9-622.1 65.6 29 213.9 241.9 200.5 546.2-14.5 332.7-401.1 495.5-583.4 459.3-182.3-36.1-286.8-231.4-237-383.4" fill="#ff6a5f" transform="matrix(.06 0 0 -.06 -1675.9738 684.799)"/><path d="m30178.6 9169.9c-28.3 0-39.1 28.4-37.6 57.9 28.6 23 55.7 46.7 81.2 71.2 36.1-2.4 28.5-101.5-16.1-122.1-10.6-4.8-19.7-7-27.5-7" fill="#f89270" transform="matrix(.06 0 0 -.06 -1673.7376 683.307)"/><path d="m30358.2 9139.7c-70.4 0-57.9 121.4 1 123.1l25.5-7.2c35.1-16.9 39.8-111.3-21.9-115.8-1.6-.1-3.1-.1-4.6-.1" fill="#f89270" transform="matrix(.06 0 0 -.06 -1674.1926 683.225)"/><path d="m30532.8 9136c-42.3 0-66.8 92-35.1 105.1l14.6 3.6c3.7 1.9 7.4 2.7 10.9 2.7 37.1 0 65-90 22.7-108.5-4.5-2-8.9-2.9-13.1-2.9" fill="#f89270" transform="matrix(.06 0 0 -.06 -1674.6326 683.202)"/><path d="m30660.1 9128.7c-48 0-84.4 96.4-42.1 126.9h7.3c1.7.3 3.3.5 5 .5 41.5 0 86.8-104.7 46.1-123.7-5.5-2.5-11-3.7-16.3-3.7" fill="#f89270" transform="matrix(.06 0 0 -.06 -1674.9504 683.204)"/><path d="m30812.3 9169.4c-36.5 0-96.5 71.4-74.1 103.8 1.7.8 2.8 1.2 3.6 1.2 2.6 0 1.4-3.6 3.8-4.4l11 7.3c24.2-4.2 116.1-71 68.4-104.2-3.7-2.6-8-3.7-12.7-3.7" fill="#f89270" transform="matrix(.06 0 0 -.06 -1675.3258 683.281)"/><path d="m30712 9921.6c-28.5 4.6-57.8 36.9-64.8 64.6-4.9 2.3-2.6 23.1 13 23.1 6.4 0 15-3.5 26.2-13.1 19.9-17.1 45.9-49.5 25.6-74.6" fill="#f89270" transform="matrix(.06 0 0 -.06 -1675.0478 685.267)"/><path d="m30747.6 10031.6c-30.4.1-77.2 57.8-60.3 88.4v-3.6c5.4 12.2 13 17.1 21.4 17.1 29.3 0 68.3-59.8 58.9-85.8-4.1-11.4-11.4-16.1-20-16.1" fill="#f89270" transform="matrix(.06 0 0 -.06 -1675.1622 685.573)"/><path d="m30802 10101.7c-37.3 0-63.1 114.4-38.1 134.1l7.3-14.5c4.7 2.6 9.1 3.8 13.3 3.8 41.7 0 55.1-119.4 19.5-123.3-.7-.1-1.3-.1-2-.1" fill="#f89270" transform="matrix(.06 0 0 -.06 -1675.325 685.805)"/><path d="m30899.1 10137.7c-.1 0-.2 0-.3 0-42.3.8-20.1 127.2 0 130.6l10.9-3.6c50.8-9.4 23.7-127.1-10.6-127" fill="#f89270" transform="matrix(.06 0 0 -.06 -1675.645 685.89)"/><path d="m30984.8 10141.3c-5.8 0-11.5 2-16.8 6.7-25.6 22.3 20 117.9 49.3 117.9 1.9 0 3.7-.4 5.5-1.2l7.3-10.8c35.1-21.5-6.8-112.7-45.3-112.6" fill="#f89270" transform="matrix(.06 0 0 -.06 -1675.8928 685.896)"/><path d="m31079.1 10113.6c-20.1 0-39.6 6.9-19.9 28.1l7.3 7.2c4.6 21.2 47.8 57.6 71.2 57.6 11.5 0 18.2-8.7 13.5-32.2-5.1-25.1-21.9-47.4-48.3-57.2-5.7-2.1-14.8-3.5-23.8-3.5" fill="#f89270" transform="matrix(.06 0 0 -.06 -1676.1616 685.783)"/><path d="m31167.5 10042.5c-28.2 0-50.6 12.5-13.5 37.7l3.7 10.9c25.8 11.3 50.3 40.4 84.4 40.4 7.6 0 15.7-1.5 24.3-4.9 1.8-30.5-36.1-63.1-61.2-76.1-10.3-5.3-24.6-8-37.7-8" fill="#f89270" transform="matrix(.06 0 0 -.06 -1676.43 685.59)"/><path d="m31256.5 9974c-16.5 0-29.7 3.7-33.2 12.2l-3.6 3.6c10.2 18.2 67.1 52.7 101.5 52.7 13.9 0 24.2-5.6 26.2-20.2 4-28.2-52.6-48.3-90.9-48.3" fill="#f89270" transform="matrix(.06 0 0 -.06 -1676.649 685.375)"/><path d="m31325.5 9897.4c-30.2 0-59.6 6.7-65.7 16.5l-3.7 10.8c11.9 7 70.4 25.8 108.6 25.8 19.4 0 33.6-4.9 33.7-18.7.2-24.9-36.9-34.4-72.9-34.4" fill="#f89270" transform="matrix(.06 0 0 -.06 -1676.765 685.147)"/><path d="m31359.6 9799.6c-35.7 0-79.4 20.7-92.5 41.9l7.3 7.2c-.4.5-1 .7-1.6.7-.7 0-1.5-.2-2.2-.3-.7-.2-1.3-.3-1.7-.3-.8 0-.7.5 1.3 2.6 12.9 6.2 50.5 14 83.4 14 36.6 0 67.3-9.7 52-42.1-8-17.1-25.7-23.7-46-23.7" fill="#f89270" transform="matrix(.06 0 0 -.06 -1676.7916 684.91)"/><path d="m31363.1 9684.5c-39.9 0-91.4 24.3-96 52.1l-3.7 10.9c8.4 4.7 36.2 9.4 65.4 9.4 41.3 0 85.3-9.5 80.6-42.2-3-21.6-22.6-30.2-46.3-30.2" fill="#f89270" transform="matrix(.06 0 0 -.06 -1676.7942 684.612)"/><path d="m31348.9 9576.6c-32.5 0-83 29-96.4 47.9l-3.7 14.5c7.7 6.1 22.7 9.2 39.9 9.2 41.5 0 95.4-17.9 87.8-52.6-3.1-13.7-13.7-19-27.6-19" fill="#f89270" transform="matrix(.06 0 0 -.06 -1676.7306 684.324)"/><path d="m31327.9 9468.9c-35.4 0-96.9 32.9-108.2 58v10.8c6 5.4 17.1 7.8 30.6 7.8 38.5 0 95.4-19.8 101.5-46.7 5-21.6-6.2-29.9-23.9-29.9" fill="#f89270" transform="matrix(.06 0 0 -.06 -1676.651 684.042)"/><path d="m31266.8 9365.8c-29.7 0-84.5 59.1-87.2 85.1 1.2.1 2.7.1 4.2.1 29.8 0 104.9-19.2 101.5-61.6-1.4-16.9-8.5-23.6-18.5-23.6" fill="#f89270" transform="matrix(.06 0 0 -.06 -1676.5106 683.774)"/><path d="m29342.3 10217.6c25.3-.9 102.8 63 217.8 126.9 151.9 84.4 369.4 168.7 619 103.9 142.2-36.9 303.5-283.6 335.2-501.8 31.7-218.1-117.9-538.4-427.8-760.1-583.2-417.3-1148-413.7-1430-383-443.3 48.3-817.8 528-792.1 916 5.9 89.6 74.5 186.1 122.9 273.6 320.5 579.3 803.9 498.1 973.4 477.9 250.9-29.9 298.5-250.3 381.6-253.4" fill="#e22727" transform="matrix(.06 0 0 -.06 -1671.0686 684.3858)"/><path d="m29313.4 10404c23.4-.8 83.1 32.9 174.1 66.6 137.7 51 347.1 102 611.1 33.5 284.4-73.8 578.8-687.8-40.9-1131.1-583.3-417.3-1148-413.8-1430.1-383-545.6 59.4-937.9 609.2-679.9 1075.7 320.6 579.3 814.6 611.9 984.1 591.7 250.9-29.9 298.5-250.3 381.6-253.4" fill="#ff6a5f" transform="matrix(.06 0 0 -.06 -1670.943 684.8708)"/><path d="m28882.7 9068.7c-74.7 0-140.1 4.6-194 10.3-483.5 51.3-806.5 529.3-622.8 962 89.1 210.1 218.5 322.5 339.8 401.8 158.9 103.9 322.3 140.4 440.9 140.4 43.3 0 80.5-4.8 109.5-13 215.2-60.9 235.6-293.6 309.2-296.1h.6c22.2 0 84.6 40.7 177.7 81.5 93 40.7 216.6 81.5 361.1 81.5 60.1 0 123.8-7.1 190.5-24.1 252-64.4 511.9-603.8-38.2-994.7-406.3-288.7-801.9-349.6-1074.3-349.6m957.6 1166.4c-175.1 0-400.2-66.6-457.3-126.9-62.5-66.1-630.6-725.4-548.5-788.1 26.1-19.9 98.9-36.4 200.7-36.4 219 0 572.2 76.6 883.5 361.6 266 243.7 213.5 524.9 44.5 574.9-35 10.3-77.2 14.9-122.9 14.9m-1134.7 167.3c-3.2 0-6.4 0-9.6-.1-185.8-5.9-524.9-251.5-462.9-578.8 56.7-299.4 249.9-473.3 320.4-486.7.9-.2 1.8-.3 2.7-.3 76.9 0 439.8 529.4 458.4 745.8 13.5 156.5-127.8 320.1-309 320.1" fill="#fb544b" transform="matrix(.06 0 0 -.06 -1670.9518 684.897)"/><path d="m29383 10108.2c-62.5-66.1-630.6-725.4-548.5-788.1s628.3-92.3 1084.2 325.2c266 243.7 213.5 524.9 44.5 574.9s-508.2-35.9-580.2-112" fill="#ff6a5f" transform="matrix(.06 0 0 -.06 -1671.805 684.7116)"/><path d="m29014.6 10082.3c-18.8-219.1-390.5-758.9-461.1-745.5-70.5 13.4-263.7 187.3-320.4 486.7-62 327.3 277.1 572.9 462.9 578.8s332.4-160.7 318.6-320" fill="#ff6a5f" transform="matrix(.06 0 0 -.06 -1669.5442 685.01)"/><g fill="#f89270"><path d="m29817.4 10092.4c-9.5 0-18.2 4.2-25.3 14.6-20 29.4 68.7 77.4 110.1 77.4 9 0 15.8-2.2 18.7-7.4l-3.5-.8c-11.3-16.1-62-83.8-100-83.8" transform="matrix(.06 0 0 -.06 -1672.843 685.724)"/><path d="m29905.1 10007.9c-1.5 0-2.9 0-4.3.1-35.3 1.4-71.4 29.2-22.5 47.7l-3.5-.8c25 16.4 78 32.6 108.2 33.3h2.7c43.1 0 67.2-22.6 23.5-47.6-28.2-16.1-69.7-32.7-104.1-32.7" transform="matrix(.06 0 0 -.06 -1673.0752 685.483)"/><path d="m29938.2 9837.4c-31.2 0-78 13.7-97.5 32.2-40.5 38.4-7.3 59.7 31.5 69.5 28.7-1.5 74.9-6.7 99.5-25.1 37.2-27.9 24.7-67.4-20-75.5-4-.7-8.6-1.1-13.5-1.1" transform="matrix(.06 0 0 -.06 -1672.9752 685.055)"/><path d="m29872.2 9939.1h-.1l3.5.8c-1.1-.2-2.3-.5-3.4-.8z" transform="matrix(.06 0 0 -.06 -1672.891 685.19)"/><path d="m29847.2 9697.5c-32 0-75.6 15.4-87.3 37.4-13.3 25 4.2 63.1 31.2 63.1 3.1 0 6.4-.6 9.7-1.7l-13.1 8.1h.9c44.1 0 161.4-74.8 79.7-103.9-5.9-2-13.1-3-21.1-3" transform="matrix(.06 0 0 -.06 -1672.7658 684.697)"/><path d="m29745.1 9552.2c-40.9 0-103.6 57.1-69.6 92.6l8.1 13c3.8 1.2 7.8 1.7 11.9 1.7 48.3 0 117.9-74.5 65.4-103.6-4.6-2.5-10-3.7-15.8-3.7" transform="matrix(.06 0 0 -.06 -1672.4914 684.301)"/><path d="m29607.7 9460.8c-5.1 0-10.6.6-16.8 1.9-51 10.6-81.8 116.2-36.8 116.2 7.8 0 18-3.3 30.8-10.8l-6 9.7c4.6 2.8 9.3 4.1 13.9 4.1 22.7 0 44.3-30.3 51.2-60.5 7-30.3-.6-60.6-36.3-60.6" transform="matrix(.06 0 0 -.06 -1672.1298 684.081)"/><path d="m29438.2 9390.6c-54 0-68.1 85.2-39.2 108.5l23.2 12.7c2.7.6 5.4.9 8.1.9 54.3 0 87.8-110.2 16.5-121.4-3-.5-5.9-.7-8.6-.7" transform="matrix(.06 0 0 -.06 -1671.7228 683.889)"/><path d="m29275.2 9348.4c-2.1 0-4.2.2-6.5.6-47.6 9-38.2 111.4 2.4 111.4 2 0 4-.2 6.1-.7l15-.2c35.7-5.9 30.8-111.1-17-111.1" transform="matrix(.06 0 0 -.06 -1671.2966 683.764)"/><path d="m29151.6 9312.5c-2.8 0-5.6.3-8.5.9-45.8 9.7-22.2 130.5 21.5 131.4l7.1 1.7c51-21.3 33.2-134-20.1-134" transform="matrix(.06 0 0 -.06 -1670.9884 683.7)"/><path d="m28996.7 9318.1c-2.6 0-5.1.4-7.6 1.4-54.1 21.5 20.1 107.3 42.7 116.8l12.3-4.5c2.4 1.4-.2 5.1 3.7 5.1.7 0 1.7-.1 2.9-.4 30.8-27.9-17.5-118.4-54-118.4" transform="matrix(.06 0 0 -.06 -1670.5978 683.69)"/><path d="m29683.7 10097.6c-6.8 0-13.2 2.7-18.7 9.1-20.3 23.5 33.6 90.4 63.5 90.4 1.5 0 3-.2 4.4-.5l3.5.8c25.4-28.3-18.2-99.8-52.7-99.8" transform="matrix(.06 0 0 -.06 -1672.4262 685.75)"/><path d="m29533.5 10070.8c-3.7 0-7.3 1.1-10.8 3.6-49.2 35.8 55.1 92.2 69.2 100.7l7.9-1.9c1.3-21-35.2-102.4-66.3-102.4" transform="matrix(.06 0 0 -.06 -1672.0432 685.687)"/><path d="m28927.6 10073.8c-25.5 19.9-7.5 57.3 7.9 78.4 10.5 14.3 19.3 19.1 26 19.1 12.7 0 18.3-16.9 14.4-19.9-.4-28.5-21.6-66.7-48.3-77.6" transform="matrix(.06 0 0 -.06 -1670.4182 685.683)"/><path d="m28863 10172.5c-6.7 0-13.1 3.4-18.4 11.6-15.9 24.4 11.8 97.4 42.1 97.4 6.8 0 13.8-3.6 20.3-12.4l-.8 3.6c24.8-27.5-12.6-100.2-43.2-100.2" transform="matrix(.06 0 0 -.06 -1670.2272 685.96)"/><path d="m28795 10228.5c-17.9 0-30 31.3-31.8 62.6-1.9 31.3 6.5 62.6 29.6 62.6 2.6 0 5.5-.4 8.6-1.3l3.7 15.7c29.4-13.8 30-135-8.3-139.5-.6-.1-1.2-.1-1.8-.1" transform="matrix(.06 0 0 -.06 -1670.0108 686.148)"/><path d="m28692.4 10241.7c-33.4 0-81.5 101.8-35.9 121.7l9.8 6h.3c20.6 0 70.4-116.9 29.6-127.2-1.2-.3-2.5-.5-3.8-.5" transform="matrix(.06 0 0 -.06 -1669.6886 686.173)"/><path d="m28605.7 10225.6c-37.6 0-91.7 72.8-63.9 100.1l4.6 12.2c2.4 2 5.2 2.8 8.4 2.8 30.1 0 90.8-77.6 71.7-104.1-5.6-7.7-12.8-11-20.8-11" transform="matrix(.06 0 0 -.06 -1669.449 686.109)"/><path d="m28507.6 10175.9c-2 0-3.8 0-5.4.3-28 3.6-49.5 21.5-60.1 44.7-11.9 25.9-3.3 35.2 12.5 35.2 24.7 0 67.2-23 75.7-40.7l8.8-5.4c32-21.6-9.4-34.1-31.5-34.1" transform="matrix(.06 0 0 -.06 -1669.2102 685.93)"/><path d="m28434.3 10086.4c-5.9 0-11.5.6-16.4 1.8-27.5 7-71.9 30.3-77.2 60.4 12.6 8.6 24.8 11.7 36.6 11.7 27.8 0 53.7-17.4 77.5-21.8l6-9.8c52.8-20.4 9.3-42.3-26.5-42.3" transform="matrix(.06 0 0 -.06 -1668.9918 685.681)"/><path d="m28352.4 9998.7c-32 0-64.7 9.2-66.6 30-1.9 20.1 15.1 27.3 37.6 27.3 34.6 0 82.2-17 94.2-30.1l-2.7-4.4c-2.4-14.6-32.1-22.8-62.5-22.8" transform="matrix(.06 0 0 -.06 -1668.8278 685.431)"/><path d="m28299.1 9907.4c-21.3 0-38.7 5.9-42.3 21.7-5.4 24 39.1 30.5 79.8 30.5 27.1 0 52.5-2.9 60.4-5.4l-1-11.3c-5.3-15.6-57.8-35.5-96.9-35.5" transform="matrix(.06 0 0 -.06 -1668.7708 685.18)"/><path d="m28308 9807c-13.2 0-25 4.3-33.3 14.8-35.3 44.5 54.6 59.6 102.7 59.6 9.8 0 17.8-.6 22.7-1.7 6.3-4.1-2.4-1-3.4-3.5l8.7-5.4c-9.1-27.6-59.1-63.8-97.4-63.8" transform="matrix(.06 0 0 -.06 -1668.7924 684.942)"/><path d="m28330.5 9694c-15.8 0-28.8 6.1-34.7 21.2-17.8 45.9 81.4 66 121.6 66 5.8 0 10.3-.4 13.1-1.2l-1-11.4c2.1-32.5-57.8-74.6-99-74.6" transform="matrix(.06 0 0 -.06 -1668.8554 684.656)"/><path d="m28376.9 9593.1c-9.4 0-17.1 3.9-21.6 13.5-18.7 38.9 56.4 74.1 97.3 74.1 6.8 0 12.7-1 17-3.1l-.2-14.9c-9.7-23.7-60.6-69.6-92.5-69.6" transform="matrix(.06 0 0 -.06 -1668.9888 684.384)"/><path d="m28422 9493c-12.2 0-20.5 7.1-20.6 24.9-.2 32.2 69.3 70.6 105.6 70.6 5.7 0 10.5-.9 14.2-2.9l2.5-10.6c-5.9-29.6-68.4-82-101.7-82" transform="matrix(.06 0 0 -.06 -1669.123 684.125)"/><path d="m28510.4 9407c-7.9 0-14.7 5.6-19.2 19.4-13.6 42.6 63.1 79.8 88.9 83.7 3.5-27.3-40.6-103.1-69.7-103.1" transform="matrix(.06 0 0 -.06 -1669.317 683.913)"/></g><path d="m29757.5 8987.9-47.4-155.5-142.2 75.9z" fill="#c62424" transform="matrix(.06 0 0 -.06 -1672.332 682.449)"/></svg>