<?xml version="1.0" encoding="UTF-8" standalone="no" ?>
<!DOCTYPE svg PUBLIC "-//W3C//DTD SVG 1.1//EN" "http://www.w3.org/Graphics/SVG/1.1/DTD/svg11.dtd">
<svg xmlns="http://www.w3.org/2000/svg" xmlns:xlink="http://www.w3.org/1999/xlink" version="1.1" width="198" height="22" viewBox="0 0 198 22" xml:space="preserve">
<desc>Created with Fabric.js 3.6.3</desc>
<defs>
</defs>
<g transform="matrix(1 0 0 1 98 -65)"  >
<g style=""   >
		<g transform="matrix(0.1 0 0 -0.1 1.13 76.67)" id="slqhSUyahz5t3qQYyXIwE"  >
<path style="stroke: none; stroke-width: 1; stroke-dasharray: none; stroke-linecap: butt; stroke-dashoffset: 0; stroke-linejoin: miter; stroke-miterlimit: 4; fill: rgb(209,70,36); fill-rule: nonzero; opacity: 1;" vector-effect="non-scaling-stroke"  transform=" translate(-2410, -1358.61)" d="M 1450 1278.61 L 3370 1278.61 L 3370 1438.61 L 1450 1438.61 Z" stroke-linecap="round" />
</g>
		<g transform="matrix(0.1 0 0 -0.1 1.13 76.67)" id="dMZ1GS9ycNV2V2I1D9oNQ"  >
<path style="stroke: none; stroke-width: 1; stroke-dasharray: none; stroke-linecap: butt; stroke-dashoffset: 0; stroke-linejoin: miter; stroke-miterlimit: 4; fill: rgb(9,16,25); fill-rule: nonzero; opacity: 1;" vector-effect="non-scaling-stroke"  transform=" translate(-2410, -1358.61)" d="M 3370 1438.61 L 3370 1468.61 L 1450 1468.61 C 1442.1 1468.61 1434.37 1465.4099999999999 1428.79 1459.82 C 1423.2 1454.23 1420 1446.51 1420 1438.61 L 1420 1278.61 C 1420 1270.7099999999998 1423.2 1262.9799999999998 1428.79 1257.3899999999999 C 1434.37 1251.81 1442.1 1248.61 1450 1248.61 L 3370 1248.61 C 3377.9 1248.61 3385.63 1251.81 3391.21 1257.3899999999999 C 3396.8 1262.9799999999998 3400 1270.7099999999998 3400 1278.61 L 3400 1438.61 C 3400 1446.51 3396.8 1454.2299999999998 3391.21 1459.82 C 3385.63 1465.4099999999999 3377.9 1468.61 3370 1468.61 L 3370 1438.61 L 3340 1438.61 L 3340 1308.61 L 1480 1308.61 L 1480 1408.61 L 3370 1408.61 L 3370 1438.61 L 3340 1438.61 L 3370 1438.61" stroke-linecap="round" />
</g>
		<g transform="matrix(0.1 0 0 -0.1 -46.37 76.67)" id="sY77jy_DehGlBiAI1yYNU"  >
<path style="stroke: none; stroke-width: 1; stroke-dasharray: none; stroke-linecap: butt; stroke-dashoffset: 0; stroke-linejoin: miter; stroke-miterlimit: 4; fill: rgb(209,70,36); fill-rule: nonzero; opacity: 1;" vector-effect="non-scaling-stroke"  transform=" translate(-1935, -1358.61)" d="M 1450 1278.61 L 2420 1278.61 L 2420 1438.61 L 1450 1438.61 z" stroke-linecap="round" />
</g>
		<g transform="matrix(0.1 0 0 -0.1 -46.37 76.67)" id="qAY741vP78yb67y4d9FA1"  >
<path style="stroke: none; stroke-width: 1; stroke-dasharray: none; stroke-linecap: butt; stroke-dashoffset: 0; stroke-linejoin: miter; stroke-miterlimit: 4; fill: rgb(9,16,25); fill-rule: nonzero; opacity: 1;" vector-effect="non-scaling-stroke"  transform=" translate(-1935, -1358.61)" d="M 2420 1438.61 L 2420 1468.61 L 1450 1468.61 C 1442.1 1468.61 1434.37 1465.4099999999999 1428.79 1459.82 C 1423.2 1454.23 1420 1446.51 1420 1438.61 L 1420 1278.61 C 1420 1270.7099999999998 1423.2 1262.9799999999998 1428.79 1257.3899999999999 C 1434.37 1251.81 1442.1 1248.61 1450 1248.61 L 2420 1248.61 C 2427.9 1248.61 2435.63 1251.81 2441.21 1257.3899999999999 C 2446.8 1262.9799999999998 2450 1270.7099999999998 2450 1278.61 L 2450 1438.61 C 2450 1446.51 2446.8 1454.2299999999998 2441.21 1459.82 C 2435.63 1465.4099999999999 2427.9 1468.61 2420 1468.61 L 2420 1438.61 L 2390 1438.61 L 2390 1308.61 L 1480 1308.61 L 1480 1408.61 L 2420 1408.61 L 2420 1438.61 L 2390 1438.61 L 2420 1438.61" stroke-linecap="round" />
</g>
		<g transform="matrix(0.1 0 0 -0.1 -44.87 76.67)" id="LA1POLCQ25ociDFwisQGJ"  >
<path style="stroke: none; stroke-width: 1; stroke-dasharray: none; stroke-linecap: butt; stroke-dashoffset: 0; stroke-linejoin: miter; stroke-miterlimit: 4; fill: rgb(230,123,72); fill-rule: nonzero; opacity: 1;" vector-effect="non-scaling-stroke"  transform=" translate(-1950, -1358.61)" d="M 1890 1308.61 L 2010 1308.61 L 2010 1408.61 L 1890 1408.61 z" stroke-linecap="round" />
</g>
		<g transform="matrix(0.1 0 0 -0.1 -44.87 82.17)" id="WeTmVgPQ7sqaT34X5ZA2A"  >
<path style="stroke: none; stroke-width: 1; stroke-dasharray: none; stroke-linecap: butt; stroke-dashoffset: 0; stroke-linejoin: miter; stroke-miterlimit: 4; fill: rgb(28,49,84); fill-rule: nonzero; opacity: 1;" vector-effect="non-scaling-stroke"  transform=" translate(-1950, -1303.61)" d="M 1890 1298.61 L 2010 1298.61 L 2010 1308.61 L 1890 1308.61 z" stroke-linecap="round" />
</g>
		<g transform="matrix(0.1 0 0 -0.1 -25.37 76.67)" id="DTGGEua-ehPoVhAWeHBje"  >
<path style="stroke: none; stroke-width: 1; stroke-dasharray: none; stroke-linecap: butt; stroke-dashoffset: 0; stroke-linejoin: miter; stroke-miterlimit: 4; fill: rgb(230,123,72); fill-rule: nonzero; opacity: 1;" vector-effect="non-scaling-stroke"  transform=" translate(-2145, -1358.61)" d="M 2120 1308.61 L 2170 1308.61 L 2170 1408.61 L 2120 1408.61 z" stroke-linecap="round" />
</g>
		<g transform="matrix(0.1 0 0 -0.1 -25.37 82.17)" id="wRcmoOf_jqOqZCBkhm3Ju"  >
<path style="stroke: none; stroke-width: 1; stroke-dasharray: none; stroke-linecap: butt; stroke-dashoffset: 0; stroke-linejoin: miter; stroke-miterlimit: 4; fill: rgb(28,49,84); fill-rule: nonzero; opacity: 1;" vector-effect="non-scaling-stroke"  transform=" translate(-2145, -1303.61)" d="M 2120 1298.61 L 2170 1298.61 L 2170 1308.61 L 2120 1308.61 z" stroke-linecap="round" />
</g>
		<g transform="matrix(0.1 0 0 -0.1 54.53 74.19)" id="KBt6eKqdMLUjnHjX6G9VV"  >
<path style="stroke: none; stroke-width: 1; stroke-dasharray: none; stroke-linecap: butt; stroke-dashoffset: 0; stroke-linejoin: miter; stroke-miterlimit: 4; fill: rgb(230,123,72); fill-rule: nonzero; opacity: 1;" vector-effect="non-scaling-stroke"  transform=" translate(-2943.93, -1383.49)" d="M 2930 1358.37 L 2930 1408.61 L 2957.86 1408.61 C 2951.9100000000003 1397.4399999999998 2945.8 1386.31 2939.53 1375.2199999999998 L 2939.53 1374.9199999999998 C 2936.9700000000003 1370.3899999999999 2934.3900000000003 1365.87 2931.78 1361.36 C 2931.19 1360.36 2930.59 1359.36 2930 1358.37" stroke-linecap="round" />
</g>
		<g transform="matrix(0.1 0 0 -0.1 78.32 67.55)" id="OM2-2_GB9GOSs7OJ4enmy"  >
<path style="stroke: none; stroke-width: 1; stroke-dasharray: none; stroke-linecap: butt; stroke-dashoffset: 0; stroke-linejoin: miter; stroke-miterlimit: 4; fill: rgb(7,11,14); fill-rule: nonzero; opacity: 1;" vector-effect="non-scaling-stroke"  transform=" translate(-3181.84, -1449.89)" d="M 2969.7 1431.16 L 2969.6099999999997 1431.16 C 2975.95 1443.5900000000001 2982.0799999999995 1456.0700000000002 2988.0199999999995 1468.6100000000001 L 3354.7599999999993 1468.6100000000001 L 3369.999999999999 1468.6100000000001 L 3369.999999999999 1439.0800000000002 L 2973.709999999999 1439.0800000000002 C 2972.379999999999 1436.43 2971.0499999999993 1433.7900000000002 2969.699999999999 1431.16 M 3374.069999999999 1439.0800000000002 L 3370 1439.0800000000002 L 3370 1468.6100000000001 C 3377.9 1468.6100000000001 3385.63 1465.41 3391.21 1459.8200000000002 C 3392.25 1458.7900000000002 3393.2 1457.68 3394.06 1456.5100000000002 C 3388.72 1449.3900000000003 3381.9 1443.4200000000003 3374.07 1439.0800000000002" stroke-linecap="round" />
</g>
		<g transform="matrix(0.1 0 0 -0.1 80.05 76.67)" id="b2id-5cw2XlLW8H7LGelF"  >
<path style="stroke: none; stroke-width: 1; stroke-dasharray: none; stroke-linecap: butt; stroke-dashoffset: 0; stroke-linejoin: miter; stroke-miterlimit: 4; fill: rgb(187,47,34); fill-rule: nonzero; opacity: 1;" vector-effect="non-scaling-stroke"  transform=" translate(-3199.15, -1358.61)" d="M 3340 1308.61 L 3316.75 1308.61 L 3316.75 1308.61 C 3316.73 1308.61 3316.72 1308.61 3316.7 1308.61 L 3210 1308.61 L 3210 1408.61 L 3160 1408.61 L 3160 1308.61 L 3058.3 1308.61 L 3058.3 1408.61 L 3340 1408.61 L 3340 1308.61" stroke-linecap="round" />
</g>
		<g transform="matrix(0.1 0 0 -0.1 77.76 76.55)" id="N2ieDvi2Q575jmWBMr1gT"  >
<path style="stroke: none; stroke-width: 1; stroke-dasharray: none; stroke-linecap: butt; stroke-dashoffset: 0; stroke-linejoin: miter; stroke-miterlimit: 4; fill: rgb(7,12,15); fill-rule: nonzero; opacity: 1;" vector-effect="non-scaling-stroke"  transform=" translate(-3176.21, -1359.89)" d="M 3390.9 1280.7 L 3384.67 1280.7 C 3376.6 1288.43 3367.2400000000002 1294.94 3356.83 1299.75 C 3344.67 1305.36 3331.02 1308.61 3316.75 1308.61 L 3340 1308.61 L 3340 1408.61 L 3058.3 1408.61 L 3058.3 1415.32 L 2961.52 1415.32 C 2964.28 1420.59 2967.0099999999998 1425.87 2969.7 1431.1599999999999 L 3343.3799999999997 1431.1599999999999 C 3354.5099999999998 1431.1599999999999 3364.97 1434.0299999999997 3374.0699999999997 1439.08 L 3390.8999999999996 1439.08 L 3390.8999999999996 1280.7" stroke-linecap="round" />
</g>
		<g transform="matrix(0.1 0 0 -0.1 51.58 79.19)" id="Va1v-Q1cUVqnuU53LwCSp"  >
<path style="stroke: none; stroke-width: 1; stroke-dasharray: none; stroke-linecap: butt; stroke-dashoffset: 0; stroke-linejoin: miter; stroke-miterlimit: 4; fill: rgb(187,47,34); fill-rule: nonzero; opacity: 1;" vector-effect="non-scaling-stroke"  transform=" translate(-2914.49, -1333.49)" d="M 2930 1308.61 L 2898.99 1308.61 C 2909.6099999999997 1324.9099999999999 2919.9599999999996 1341.4799999999998 2930 1358.37 L 2930 1308.61" stroke-linecap="round" />
</g>
		<g transform="matrix(0.1 0 0 -0.1 73.39 83.07)"  >
<path style="stroke: none; stroke-width: 1; stroke-dasharray: none; stroke-linecap: butt; stroke-dashoffset: 0; stroke-linejoin: miter; stroke-miterlimit: 4; fill: rgb(7,12,15); fill-rule: nonzero; opacity: 1;" vector-effect="non-scaling-stroke"  transform=" translate(-3132.52, -1294.66)" d="M 3384.67 1280.7 L 2880.37 1280.7 C 2886.67 1289.91 2892.88 1299.22 2898.99 1308.6100000000001 L 2930 1308.6100000000001 L 2930 1298.6100000000001 L 3050 1298.6100000000001 L 3050 1304.45 L 3058.3 1304.45 L 3058.3 1308.6100000000001 L 3160 1308.6100000000001 L 3160 1298.6100000000001 L 3210 1298.6100000000001 L 3210 1308.6100000000001 L 3316.7 1308.6100000000001 L 3316.7 1308.6100000000001 C 3316.72 1308.6100000000001 3316.73 1308.6100000000001 3316.75 1308.6100000000001 L 3316.75 1308.6100000000001 C 3331.02 1308.6100000000001 3344.67 1305.3600000000001 3356.83 1299.7500000000002 C 3367.24 1294.9400000000003 3376.6 1288.4300000000003 3384.67 1280.7000000000003" stroke-linecap="round" />
</g>
		<g transform="matrix(0.1 0 0 -0.1 53.61 78.36)" id="g8ic7FNI4NvGLyipkoMBc"  >
<path style="stroke: none; stroke-width: 1; stroke-dasharray: none; stroke-linecap: butt; stroke-dashoffset: 0; stroke-linejoin: miter; stroke-miterlimit: 4; fill: rgb(208,79,47); fill-rule: nonzero; opacity: 1;" vector-effect="non-scaling-stroke"  transform=" translate(-2934.77, -1341.76)" d="M 2939.53 1308.61 L 2930 1308.61 L 2930 1358.37 C 2930.59 1359.36 2931.19 1360.36 2931.78 1361.36 C 2934.3900000000003 1365.87 2936.9700000000003 1370.3899999999999 2939.53 1374.9199999999998 L 2939.53 1308.61" stroke-linecap="round" />
</g>
		<g transform="matrix(0.1 0 0 -0.1 59.13 82.17)" id="WcVbV7Dpa3VAl7DlKafLH"  >
<path style="stroke: none; stroke-width: 1; stroke-dasharray: none; stroke-linecap: butt; stroke-dashoffset: 0; stroke-linejoin: miter; stroke-miterlimit: 4; fill: rgb(15,28,42); fill-rule: nonzero; opacity: 1;" vector-effect="non-scaling-stroke"  transform=" translate(-2990, -1303.61)" d="M 3050 1298.61 L 2930 1298.61 L 2930 1308.61 L 2939.53 1308.61 L 2939.53 1304.4499999999998 L 3050 1304.4499999999998 L 3050 1298.61" stroke-linecap="round" />
</g>
		<g transform="matrix(0.1 0 0 -0.1 77.32 69.02)" id="cAgA_9A6RGu_-i0AYLLDO"  >
<path style="stroke: none; stroke-width: 1; stroke-dasharray: none; stroke-linecap: butt; stroke-dashoffset: 0; stroke-linejoin: miter; stroke-miterlimit: 4; fill: rgb(7,9,10); fill-rule: nonzero; opacity: 1;" vector-effect="non-scaling-stroke"  transform=" translate(-3171.89, -1435.12)" d="M 3343.38 1431.16 L 2969.7 1431.16 C 2971.0499999999997 1433.7900000000002 2972.3799999999997 1436.43 2973.71 1439.0800000000002 L 3370 1439.0800000000002 L 3370 1438.6100000000001 L 3370 1439.0800000000002 L 3374.07 1439.0800000000002 C 3364.9700000000003 1434.0300000000002 3354.51 1431.16 3343.38 1431.16" stroke-linecap="round" />
</g>
		<g transform="matrix(0.1 0 0 -0.1 56.1 71.34)" id="Kdcqi8rkRgc-qpSv6CDAF"  >
<path style="stroke: none; stroke-width: 1; stroke-dasharray: none; stroke-linecap: butt; stroke-dashoffset: 0; stroke-linejoin: miter; stroke-miterlimit: 4; fill: rgb(9,16,25); fill-rule: nonzero; opacity: 1;" vector-effect="non-scaling-stroke"  transform=" translate(-2959.69, -1411.96)" d="M 2957.98 1408.61 L 2957.86 1408.61 C 2959.05 1410.84 2960.23 1413.08 2961.4100000000003 1415.32 L 2961.5200000000004 1415.32 C 2960.3400000000006 1413.08 2959.1600000000003 1410.84 2957.9800000000005 1408.61" stroke-linecap="round" />
</g>
		<g transform="matrix(0.1 0 0 -0.1 55.01 73.36)" id="DCPBaIsn90ABxSILYeLOI"  >
<path style="stroke: none; stroke-width: 1; stroke-dasharray: none; stroke-linecap: butt; stroke-dashoffset: 0; stroke-linejoin: miter; stroke-miterlimit: 4; fill: rgb(230,123,72); fill-rule: nonzero; opacity: 1;" vector-effect="non-scaling-stroke"  transform=" translate(-2948.76, -1391.77)" d="M 2939.53 1374.92 L 2939.53 1375.22 C 2945.8 1386.31 2951.9100000000003 1397.44 2957.86 1408.6100000000001 L 2957.98 1408.6100000000001 C 2951.9900000000002 1397.3300000000002 2945.85 1386.1000000000001 2939.53 1374.92" stroke-linecap="round" />
</g>
		<g transform="matrix(0.1 0 0 -0.1 60.95 76.67)" id="NKHuafkcb8FqjbWGlBCQ_"  >
<path style="stroke: none; stroke-width: 1; stroke-dasharray: none; stroke-linecap: butt; stroke-dashoffset: 0; stroke-linejoin: miter; stroke-miterlimit: 4; fill: rgb(187,47,34); fill-rule: nonzero; opacity: 1;" vector-effect="non-scaling-stroke"  transform=" translate(-3008.14, -1358.61)" d="M 3058.3 1308.61 L 3050 1308.61 L 3050 1408.61 L 2957.98 1408.61 L 2957.98 1408.61 L 3058.3 1408.61 L 3058.3 1308.61" stroke-linecap="round" />
</g>
		<g transform="matrix(0.1 0 0 -0.1 60.95 71.34)" id="DFJCG6GfPQABDj7dH4vha"  >
<path style="stroke: none; stroke-width: 1; stroke-dasharray: none; stroke-linecap: butt; stroke-dashoffset: 0; stroke-linejoin: miter; stroke-miterlimit: 4; fill: rgb(7,12,15); fill-rule: nonzero; opacity: 1;" vector-effect="non-scaling-stroke"  transform=" translate(-3008.14, -1411.96)" d="M 3058.3 1408.61 L 2957.98 1408.61 C 2959.16 1410.84 2960.34 1413.08 2961.52 1415.32 L 3058.3 1415.32 L 3058.3 1408.61" stroke-linecap="round" />
</g>
		<g transform="matrix(0.1 0 0 -0.1 65.55 81.88)" id="P2hatnW5tj-oL4dMWaT0P"  >
<path style="stroke: none; stroke-width: 1; stroke-dasharray: none; stroke-linecap: butt; stroke-dashoffset: 0; stroke-linejoin: miter; stroke-miterlimit: 4; fill: rgb(7,12,15); fill-rule: nonzero; opacity: 1;" vector-effect="non-scaling-stroke"  transform=" translate(-3054.15, -1306.53)" d="M 3050 1304.45 L 3058.3008 1304.45 L 3058.3008 1308.6102 L 3050 1308.6102 Z" stroke-linecap="round" />
</g>
		<g transform="matrix(0.1 0 0 -0.1 59.61 76.67)" id="TCqF3FfV0KvDrdTNrIUHj"  >
<path style="stroke: none; stroke-width: 1; stroke-dasharray: none; stroke-linecap: butt; stroke-dashoffset: 0; stroke-linejoin: miter; stroke-miterlimit: 4; fill: rgb(208,79,47); fill-rule: nonzero; opacity: 1;" vector-effect="non-scaling-stroke"  transform=" translate(-2994.77, -1358.61)" d="M 3050 1308.61 L 2939.53 1308.61 L 2939.53 1374.9199999999998 C 2945.8500000000004 1386.1 2951.9900000000002 1397.33 2957.98 1408.61 L 3050 1408.61 L 3050 1308.61" stroke-linecap="round" />
</g>
		<g transform="matrix(0.1 0 0 -0.1 59.61 81.88)" id="FTEFCRr2Lr_jrdDCk7uoo"  >
<path style="stroke: none; stroke-width: 1; stroke-dasharray: none; stroke-linecap: butt; stroke-dashoffset: 0; stroke-linejoin: miter; stroke-miterlimit: 4; fill: rgb(15,28,42); fill-rule: nonzero; opacity: 1;" vector-effect="non-scaling-stroke"  transform=" translate(-2994.76, -1306.53)" d="M 2939.53 1304.45 L 3049.9990000000003 1304.45 L 3049.9990000000003 1308.6102 L 2939.53 1308.6102 Z" stroke-linecap="round" />
</g>
		<g transform="matrix(0.1 0 0 -0.1 78.63 76.67)" id="k_kUWO4vCx3vLa2pyGrlD"  >
<path style="stroke: none; stroke-width: 1; stroke-dasharray: none; stroke-linecap: butt; stroke-dashoffset: 0; stroke-linejoin: miter; stroke-miterlimit: 4; fill: rgb(208,79,47); fill-rule: nonzero; opacity: 1;" vector-effect="non-scaling-stroke"  transform=" translate(-3185, -1358.61)" d="M 3160 1308.61 L 3210 1308.61 L 3210 1408.61 L 3160 1408.61 z" stroke-linecap="round" />
</g>
		<g transform="matrix(0.1 0 0 -0.1 78.63 82.17)" id="C4XqhwEJ5riC0rL3ZRgVz"  >
<path style="stroke: none; stroke-width: 1; stroke-dasharray: none; stroke-linecap: butt; stroke-dashoffset: 0; stroke-linejoin: miter; stroke-miterlimit: 4; fill: rgb(15,28,42); fill-rule: nonzero; opacity: 1;" vector-effect="non-scaling-stroke"  transform=" translate(-3185, -1303.61)" d="M 3160 1298.61 L 3210 1298.61 L 3210 1308.61 L 3160 1308.61 z" stroke-linecap="round" />
</g>
</g>
</g>
</svg>