<?xml version="1.0" encoding="UTF-8" standalone="no" ?>
<!DOCTYPE svg PUBLIC "-//W3C//DTD SVG 1.1//EN" "http://www.w3.org/Graphics/SVG/1.1/DTD/svg11.dtd">
<svg xmlns="http://www.w3.org/2000/svg" xmlns:xlink="http://www.w3.org/1999/xlink" version="1.1" width="237" height="166" viewBox="0 0 237 166" xml:space="preserve">
<desc>Created with Fabric.js 3.6.3</desc>
<defs>
</defs>
<g transform="matrix(1 0 0 1 80 150)"  >
<g style=""   >
		<g transform="matrix(0.06 0 0 -0.06 63.11 -85.61)" id="TmeD9Jb6d0J-Bwcrs0crw"  >
<path style="stroke: none; stroke-width: 1; stroke-dasharray: none; stroke-linecap: butt; stroke-dashoffset: 0; stroke-linejoin: miter; stroke-miterlimit: 4; fill: rgb(226,39,39); fill-rule: nonzero; opacity: 1;" vector-effect="non-scaling-stroke"  transform=" translate(-30284.91, -10365.7)" d="M 30645.6 10683.8 C 30658.8 10675.5 30701.5 10678.599999999999 30763.199999999997 10681.8 C 30933.899999999998 10690.4 31249.799999999996 10699 31485.999999999996 10466 C 31590.199999999997 10363.1 31604.599999999995 10069.4 31521.399999999998 9865 C 31438.199999999997 9660.7 31146.6 9458.4 30766.399999999998 9421.3 C 30050.699999999997 9351.5 29564.3 9636.199999999999 29336.1 9803.4 C 28977.3 10066.3 28896.8 10667.8 29115.699999999997 10990.3 C 29166.199999999997 11064.8 29274.399999999998 11114.099999999999 29360.6 11165.5 C 29931.199999999997 11506.4 30307.899999999998 11195.1 30444.199999999997 11093.1 C 30645.899999999998 10942.1 30575.399999999998 10727.9 30645.6 10683.800000000001" stroke-linecap="round" />
</g>
		<g transform="matrix(0.06 0 0 -0.06 63.81 -93.83)" id="dhwfoksVXlAsh-yDd87cY"  >
<path style="stroke: none; stroke-width: 1; stroke-dasharray: none; stroke-linecap: butt; stroke-dashoffset: 0; stroke-linejoin: miter; stroke-miterlimit: 4; fill: rgb(255,106,95); fill-rule: nonzero; opacity: 1;" vector-effect="non-scaling-stroke"  transform=" translate(-30297.19, -10509)" d="M 30715.2 10859.4 C 30764.9 10828.199999999999 31123.2 10871.4 31444.600000000002 10554.199999999999 C 31653.000000000004 10348.599999999999 31596.4 9670.999999999998 30835.9 9596.9 C 30120.2 9527.1 29633.9 9811.8 29405.600000000002 9979 C 28964.100000000002 10302.5 28903.7 10973.5 29363.2 11247.9 C 29933.8 11588.9 30377.4 11370.699999999999 30513.7 11268.699999999999 C 30715.5 11117.699999999999 30644.9 10903.4 30715.2 10859.4" stroke-linecap="round" />
</g>
		<g transform="matrix(0.06 0 0 -0.06 63.36 -113.91)" id="cj7u1bB_cOBB4SVelDJrN"  >
<path style="stroke: none; stroke-width: 1; stroke-dasharray: none; stroke-linecap: butt; stroke-dashoffset: 0; stroke-linejoin: miter; stroke-miterlimit: 4; fill: rgb(250,76,68); fill-rule: nonzero; opacity: 1;" vector-effect="non-scaling-stroke"  transform=" translate(-30289.29, -10859.2)" d="M 31390.1 10371.4 C 31213.699999999997 10482.3 31042.5 10523.3 30899.3 10530.9 C 30814.7 10558.3 30731.399999999998 10574.4 30673.6 10574.4 C 30654.399999999998 10574.4 30638 10572.6 30625.399999999998 10568.9 C 30587.999999999996 10557.8 30415.999999999996 10499.199999999999 30234.199999999997 10428.199999999999 C 30191.399999999998 10465.8 30144.899999999998 10492.099999999999 30098.6 10504.099999999999 C 30074.399999999998 10510.399999999998 30050.699999999997 10515.599999999999 30027.399999999998 10519.999999999998 C 30144.999999999996 10590.099999999999 30248.8 10666.499999999998 30293.899999999998 10730.299999999997 C 30386.399999999998 10861.099999999997 30344.199999999997 11078.099999999997 30180.6 11165.699999999997 C 30133.199999999997 11191.099999999997 30064.399999999998 11205.499999999996 29987.899999999998 11205.499999999996 C 29800.499999999996 11205.499999999996 29566.8 11119.099999999997 29487.1 10896.299999999996 C 29425.399999999998 10723.999999999996 29429.199999999997 10566.299999999996 29453.699999999997 10457.599999999995 C 29382.6 10429.199999999995 29335.1 10403.999999999995 29314.299999999996 10403.999999999995 C 29313.999999999996 10403.999999999995 29313.699999999997 10403.999999999995 29313.399999999994 10403.999999999995 C 29275.799999999996 10405.399999999994 29245.499999999993 10451.199999999995 29200.399999999994 10503.799999999994 C 29155.699999999993 10748.099999999993 29236.099999999995 11005.799999999994 29452.799999999996 11167.699999999993 C 29636.299999999996 11304.799999999994 29805.199999999997 11337.499999999993 29950.199999999997 11345.599999999993 C 29967.499999999996 11346.499999999993 29984.499999999996 11346.999999999993 30001.299999999996 11346.999999999993 C 30235.999999999996 11346.999999999993 30417.599999999995 11256.299999999992 30490.499999999996 11181.199999999993 C 30645.699999999997 11021.199999999993 30545.399999999998 10809.899999999994 30607.799999999996 10770.999999999993 C 30651.899999999994 10743.399999999992 31023.599999999995 10806.799999999992 31309.099999999995 10526.999999999993 C 31346.999999999996 10489.899999999992 31375.199999999993 10435.299999999992 31390.099999999995 10371.399999999992" stroke-linecap="round" />
</g>
		<g transform="matrix(0.06 0 0 -0.06 79.27 -89.81)" id="bjS400z8GqjU3rptXbm77"  >
<path style="stroke: none; stroke-width: 1; stroke-dasharray: none; stroke-linecap: butt; stroke-dashoffset: 0; stroke-linejoin: miter; stroke-miterlimit: 4; fill: rgb(249,72,64); fill-rule: nonzero; opacity: 1;" vector-effect="non-scaling-stroke"  transform=" translate(-30566.75, -10438.9)" d="M 30361.2 10303.4 C 30325.7 10350.4 30286.9 10389.5 30247.7 10415.9 C 30243.3 10420.1 30238.8 10424.199999999999 30234.2 10428.199999999999 C 30416 10499.199999999999 30588 10557.8 30625.4 10568.9 C 30638 10572.6 30654.4 10574.4 30673.600000000002 10574.4 C 30731.4 10574.4 30814.7 10558.3 30899.300000000003 10530.9 C 30881.9 10531.8 30865.000000000004 10532.3 30848.500000000004 10532.3 C 30727.400000000005 10532.3 30630.600000000002 10509.3 30574.300000000003 10488.9 C 30458.300000000003 10447.1 30399.9 10371.9 30361.200000000004 10303.4" stroke-linecap="round" />
</g>
		<g transform="matrix(0.06 0 0 -0.06 40.44 -112.32)" id="GR-nPMXH3BAzZia95nh5U"  >
<path style="stroke: none; stroke-width: 1; stroke-dasharray: none; stroke-linecap: butt; stroke-dashoffset: 0; stroke-linejoin: miter; stroke-miterlimit: 4; fill: rgb(249,72,64); fill-rule: nonzero; opacity: 1;" vector-effect="non-scaling-stroke"  transform=" translate(-29889.59, -10831.55)" d="M 29453.7 10457.6 C 29429.2 10566.300000000001 29425.4 10724 29487.100000000002 10896.300000000001 C 29566.800000000003 11119.1 29800.500000000004 11205.500000000002 29987.9 11205.500000000002 C 30064.4 11205.500000000002 30133.2 11191.100000000002 30180.600000000002 11165.700000000003 C 30344.2 11078.100000000002 30386.4 10861.100000000002 30293.9 10730.300000000003 C 30248.800000000003 10666.500000000004 30145 10590.100000000002 30027.4 10520.000000000004 C 29962.600000000002 10532.200000000004 29901.5 10537.300000000003 29844.300000000003 10537.300000000003 C 29698.000000000004 10537.300000000003 29577.4 10503.900000000003 29487.500000000004 10470.600000000002 C 29475.700000000004 10466.300000000003 29464.500000000004 10461.900000000001 29453.700000000004 10457.600000000002 M 29541.500000000004 10569.800000000003 C 29513.400000000005 10569.800000000003 29486.400000000005 10563.200000000003 29477.700000000004 10548.200000000003 C 29461.300000000003 10519.900000000003 29486.800000000003 10509.100000000002 29520.300000000003 10509.100000000002 C 29555.000000000004 10509.100000000002 29598.300000000003 10520.800000000003 29612.300000000003 10536.600000000002 L 29615.500000000004 10546.900000000001 C 29607.000000000004 10561.2 29573.600000000002 10569.800000000001 29541.500000000004 10569.800000000001 M 29536.900000000005 10679.500000000002 C 29509.100000000006 10679.500000000002 29484.700000000004 10670.800000000001 29482.700000000004 10647.900000000001 C 29480.900000000005 10626.2 29502.700000000004 10618.500000000002 29529.000000000004 10618.500000000002 C 29559.300000000003 10618.500000000002 29595.800000000003 10628.700000000003 29609.800000000003 10639.500000000002 L 29617.600000000002 10652.300000000001 C 29607.4 10667.300000000001 29569.800000000003 10679.500000000002 29536.9 10679.500000000002 M 29526.5 10797.000000000002 C 29505.7 10797.000000000002 29489.5 10790.200000000003 29486.4 10771.400000000001 C 29481.2 10739.000000000002 29520.2 10723.800000000001 29559.100000000002 10723.800000000001 C 29589.7 10723.800000000001 29620.2 10733.2 29629.000000000004 10750.900000000001 L 29635.700000000004 10760.2 C 29625.100000000006 10771.300000000001 29567.100000000006 10797 29526.500000000004 10797 M 30283.400000000005 10836 C 30277.700000000004 10836 30270.300000000007 10834.3 30260.900000000005 10830.2 C 30236.800000000007 10819.6 30202.400000000005 10796.2 30214.300000000007 10766.300000000001 C 30216.500000000007 10766.000000000002 30218.800000000007 10765.900000000001 30221.000000000007 10765.900000000001 C 30248.600000000006 10765.900000000001 30281.700000000008 10786.7 30295.40000000001 10809.2 C 30301.40000000001 10810.1 30305.700000000008 10836 30283.40000000001 10836 M 29550.200000000008 10905.3 C 29531.40000000001 10905.3 29518.90000000001 10897.099999999999 29522.200000000008 10874 C 29526.300000000007 10844.9 29560.60000000001 10833.2 29594.90000000001 10833.2 C 29621.10000000001 10833.2 29647.30000000001 10840 29660.000000000007 10851.2 L 29655.200000000008 10860.2 C 29655.40000000001 10860.400000000001 29655.700000000008 10860.5 29656.10000000001 10860.5 C 29656.80000000001 10860.5 29657.80000000001 10860.1 29658.700000000008 10859.6 C 29659.500000000007 10859.1 29660.300000000007 10858.6 29660.700000000008 10858.6 C 29661.10000000001 10858.6 29661.10000000001 10859.300000000001 29660.000000000007 10861.5 C 29645.40000000001 10874.9 29586.200000000008 10905.3 29550.200000000008 10905.3 M 30272.700000000008 10969.099999999999 C 30243.40000000001 10969.099999999999 30197.200000000008 10928.399999999998 30198.500000000007 10903.099999999999 C 30199.200000000008 10887.099999999999 30208.800000000007 10880.699999999999 30221.700000000008 10880.699999999999 C 30252.700000000008 10880.699999999999 30303.10000000001 10917.8 30296.60000000001 10948.9 L 30295.50000000001 10945.4 C 30293.50000000001 10962.4 30284.50000000001 10969.1 30272.70000000001 10969.1 M 29579.70000000001 10987.2 C 29570.50000000001 10987.2 29563.80000000001 10983.900000000001 29561.20000000001 10975.800000000001 C 29549.900000000012 10940.300000000001 29627.80000000001 10913.6 29668.00000000001 10913.6 C 29677.400000000012 10913.6 29684.70000000001 10915.1 29688.400000000012 10918.2 L 29695.100000000013 10927.6 C 29684.000000000015 10939.6 29614.400000000012 10987.2 29579.70000000001 10987.2 M 30228.50000000001 11078.5 C 30190.10000000001 11078.5 30148.50000000001 10978.7 30179.70000000001 10965.3 C 30182.00000000001 10964.3 30184.50000000001 10963.9 30187.100000000013 10963.9 C 30222.900000000012 10963.9 30274.800000000014 11057 30257.600000000013 11081.8 L 30246.400000000012 11070.099999999999 C 30240.70000000001 11075.899999999998 30234.600000000013 11078.499999999998 30228.50000000001 11078.499999999998 M 29656.80000000001 11060.899999999998 C 29648.30000000001 11060.899999999998 29641.10000000001 11056.999999999998 29636.60000000001 11047.399999999998 C 29622.10000000001 11016.499999999998 29694.200000000008 10971.299999999997 29729.30000000001 10971.299999999997 C 29736.10000000001 10971.299999999997 29741.50000000001 10972.999999999998 29744.60000000001 10976.799999999997 L 29749.200000000008 10979.199999999997 C 29744.200000000008 11001.899999999998 29689.90000000001 11060.899999999998 29656.800000000007 11060.899999999998 M 29750.900000000005 11123.799999999997 C 29749.000000000004 11123.799999999997 29747.000000000004 11123.799999999997 29744.900000000005 11123.599999999997 C 29734.200000000004 11094.999999999996 29760.800000000007 11052.699999999997 29781.000000000004 11032.999999999996 C 29793.900000000005 11020.399999999996 29818.200000000004 11011.099999999997 29834.500000000004 11011.099999999997 C 29851.100000000002 11011.099999999997 29859.400000000005 11020.799999999997 29838.700000000004 11046.599999999997 L 29838.400000000005 11057.999999999996 C 29813.300000000007 11079.499999999996 29797.200000000004 11123.799999999996 29750.900000000005 11123.799999999996 M 30123.200000000004 11152.099999999995 C 30074.900000000005 11152.099999999995 30067.200000000004 11036.399999999994 30099.600000000006 11027.199999999995 C 30101.400000000005 11026.699999999995 30103.100000000006 11026.499999999995 30104.800000000007 11026.499999999995 C 30141.700000000008 11026.499999999995 30155.700000000008 11143.499999999995 30138.300000000007 11152.099999999995 L 30126.700000000008 11151.899999999994 C 30125.500000000007 11151.999999999995 30124.40000000001 11152.099999999995 30123.200000000008 11152.099999999995 M 29886.40000000001 11163.399999999994 C 29877.90000000001 11163.399999999994 29871.200000000008 11155.699999999993 29869.200000000008 11135.599999999995 C 29866.60000000001 11110.199999999995 29876.10000000001 11083.999999999995 29898.40000000001 11066.899999999994 C 29906.500000000007 11060.799999999994 29924.40000000001 11053.699999999993 29937.200000000008 11053.699999999993 C 29948.90000000001 11053.699999999993 29956.200000000008 11059.699999999993 29947.500000000007 11077.799999999994 L 29942.600000000006 11086.799999999994 C 29944.600000000006 11109.999999999995 29909.000000000007 11163.399999999994 29886.400000000005 11163.399999999994 M 30020.600000000006 11184.899999999994 C 30019.900000000005 11184.899999999994 30019.300000000007 11184.799999999994 30018.700000000004 11184.699999999993 L 30008.500000000004 11176.499999999993 C 29966.100000000002 11165.599999999993 29983.500000000004 11054.699999999993 30025.300000000003 11054.699999999993 C 30028.9 11054.699999999993 30032.600000000002 11055.499999999993 30036.500000000004 11057.199999999993 C 30069.000000000004 11071.699999999993 30050.900000000005 11184.899999999994 30020.600000000002 11184.899999999994" stroke-linecap="round" />
</g>
		<g transform="matrix(0.06 0 0 -0.06 61.45 -110.56)" id="1"  >
<path style="stroke: none; stroke-width: 1; stroke-dasharray: none; stroke-linecap: butt; stroke-dashoffset: 0; stroke-linejoin: miter; stroke-miterlimit: 4; fill: rgb(245,129,97); fill-rule: nonzero; opacity: 1;" vector-effect="non-scaling-stroke"  transform=" translate(-30256.04, -10800.95)" d="M 30221 10765.9 C 30218.8 10765.9 30216.5 10766 30214.3 10766.3 C 30202.399999999998 10796.199999999999 30236.8 10819.599999999999 30260.899999999998 10830.199999999999 C 30270.3 10834.3 30277.699999999997 10835.999999999998 30283.399999999998 10835.999999999998 C 30305.699999999997 10835.999999999998 30301.399999999998 10810.099999999999 30295.399999999998 10809.199999999999 C 30281.699999999997 10786.699999999999 30248.6 10765.9 30220.999999999996 10765.9" stroke-linecap="round" />
</g>
		<g transform="matrix(0.06 0 0 -0.06 60.98 -117.67)" id="u4lC_ptcxrg5D-a9nnF3H"  >
<path style="stroke: none; stroke-width: 1; stroke-dasharray: none; stroke-linecap: butt; stroke-dashoffset: 0; stroke-linejoin: miter; stroke-miterlimit: 4; fill: rgb(245,129,97); fill-rule: nonzero; opacity: 1;" vector-effect="non-scaling-stroke"  transform=" translate(-30247.82, -10924.9)" d="M 30221.7 10880.7 C 30208.8 10880.7 30199.2 10887.1 30198.5 10903.1 C 30197.2 10928.4 30243.4 10969.1 30272.7 10969.1 C 30284.5 10969.1 30293.5 10962.4 30295.5 10945.4 L 30296.6 10948.9 C 30303.1 10917.8 30252.699999999997 10880.699999999999 30221.699999999997 10880.699999999999" stroke-linecap="round" />
</g>
		<g transform="matrix(0.06 0 0 -0.06 59.09 -123.29)" id="kDeZg-ZdY0SfyL6fRgglW"  >
<path style="stroke: none; stroke-width: 1; stroke-dasharray: none; stroke-linecap: butt; stroke-dashoffset: 0; stroke-linejoin: miter; stroke-miterlimit: 4; fill: rgb(245,129,97); fill-rule: nonzero; opacity: 1;" vector-effect="non-scaling-stroke"  transform=" translate(-30214.88, -11022.85)" d="M 30187.1 10963.9 C 30184.5 10963.9 30182 10964.3 30179.699999999997 10965.3 C 30148.499999999996 10978.699999999999 30190.1 11078.5 30228.499999999996 11078.5 C 30234.599999999995 11078.5 30240.699999999997 11075.9 30246.399999999998 11070.1 L 30257.6 11081.800000000001 C 30274.8 11057.000000000002 30222.899999999998 10963.900000000001 30187.1 10963.900000000001" stroke-linecap="round" />
</g>
		<g transform="matrix(0.06 0 0 -0.06 53.24 -127.1)" id="kBx3DL8FH1gxwcStitqx8"  >
<path style="stroke: none; stroke-width: 1; stroke-dasharray: none; stroke-linecap: butt; stroke-dashoffset: 0; stroke-linejoin: miter; stroke-miterlimit: 4; fill: rgb(245,129,97); fill-rule: nonzero; opacity: 1;" vector-effect="non-scaling-stroke"  transform=" translate(-30112.86, -11089.3)" d="M 30104.8 11026.5 C 30103.1 11026.5 30101.399999999998 11026.7 30099.6 11027.2 C 30067.199999999997 11036.400000000001 30074.899999999998 11152.1 30123.199999999997 11152.1 C 30124.399999999998 11152.1 30125.499999999996 11152 30126.699999999997 11151.9 L 30138.299999999996 11152.1 C 30155.699999999997 11143.5 30141.699999999997 11026.5 30104.799999999996 11026.5" stroke-linecap="round" />
</g>
		<g transform="matrix(0.06 0 0 -0.06 47.86 -128.85)" id="gp3NSzy661lnLbe3upqEV"  >
<path style="stroke: none; stroke-width: 1; stroke-dasharray: none; stroke-linecap: butt; stroke-dashoffset: 0; stroke-linejoin: miter; stroke-miterlimit: 4; fill: rgb(245,129,97); fill-rule: nonzero; opacity: 1;" vector-effect="non-scaling-stroke"  transform=" translate(-30018.9, -11119.8)" d="M 30025.3 11054.7 C 29983.5 11054.7 29966.1 11165.6 30008.5 11176.5 L 30018.7 11184.7 C 30019.3 11184.800000000001 30019.9 11184.900000000001 30020.600000000002 11184.900000000001 C 30050.9 11184.900000000001 30069.000000000004 11071.7 30036.500000000004 11057.2 C 30032.600000000002 11055.5 30028.900000000005 11054.7 30025.300000000003 11054.7" stroke-linecap="round" />
</g>
		<g transform="matrix(0.06 0 0 -0.06 41.62 -128.2)" id="14"  >
<path style="stroke: none; stroke-width: 1; stroke-dasharray: none; stroke-linecap: butt; stroke-dashoffset: 0; stroke-linejoin: miter; stroke-miterlimit: 4; fill: rgb(245,129,97); fill-rule: nonzero; opacity: 1;" vector-effect="non-scaling-stroke"  transform=" translate(-29910.05, -11108.55)" d="M 29937.2 11053.7 C 29924.4 11053.7 29906.5 11060.800000000001 29898.4 11066.900000000001 C 29876.100000000002 11084.000000000002 29866.600000000002 11110.2 29869.2 11135.600000000002 C 29871.2 11155.700000000003 29877.9 11163.400000000001 29886.4 11163.400000000001 C 29909 11163.400000000001 29944.600000000002 11110.000000000002 29942.600000000002 11086.800000000001 L 29947.500000000004 11077.800000000001 C 29956.200000000004 11059.7 29948.900000000005 11053.7 29937.200000000004 11053.7" stroke-linecap="round" />
</g>
		<g transform="matrix(0.06 0 0 -0.06 35.12 -125.85)" id="DzZj-j2KPxAelEFxnHVE-"  >
<path style="stroke: none; stroke-width: 1; stroke-dasharray: none; stroke-linecap: butt; stroke-dashoffset: 0; stroke-linejoin: miter; stroke-miterlimit: 4; fill: rgb(245,129,97); fill-rule: nonzero; opacity: 1;" vector-effect="non-scaling-stroke"  transform=" translate(-29796.71, -11067.45)" d="M 29834.5 11011.1 C 29818.2 11011.1 29793.9 11020.4 29781 11033 C 29760.8 11052.7 29734.2 11095 29744.9 11123.6 C 29747 11123.800000000001 29749 11123.800000000001 29750.9 11123.800000000001 C 29797.2 11123.800000000001 29813.300000000003 11079.500000000002 29838.4 11058.000000000002 L 29838.7 11046.600000000002 C 29859.4 11020.800000000003 29851.100000000002 11011.100000000002 29834.5 11011.100000000002" stroke-linecap="round" />
</g>
		<g transform="matrix(0.06 0 0 -0.06 29.11 -122.9)" id="aReUug_RhgVrH7qep0Ij6"  >
<path style="stroke: none; stroke-width: 1; stroke-dasharray: none; stroke-linecap: butt; stroke-dashoffset: 0; stroke-linejoin: miter; stroke-miterlimit: 4; fill: rgb(245,129,97); fill-rule: nonzero; opacity: 1;" vector-effect="non-scaling-stroke"  transform=" translate(-29691.95, -11016.1)" d="M 29729.3 10971.3 C 29694.2 10971.3 29622.1 11016.5 29636.6 11047.4 C 29641.1 11057 29648.3 11060.9 29656.8 11060.9 C 29689.899999999998 11060.9 29744.2 11001.9 29749.2 10979.199999999999 L 29744.600000000002 10976.8 C 29741.500000000004 10973 29736.100000000002 10971.3 29729.300000000003 10971.3" stroke-linecap="round" />
</g>
		<g transform="matrix(0.06 0 0 -0.06 25.42 -119.13)" id="vQ8xAES4UMAlBZ4PW-uok"  >
<path style="stroke: none; stroke-width: 1; stroke-dasharray: none; stroke-linecap: butt; stroke-dashoffset: 0; stroke-linejoin: miter; stroke-miterlimit: 4; fill: rgb(245,129,97); fill-rule: nonzero; opacity: 1;" vector-effect="non-scaling-stroke"  transform=" translate(-29627.6, -10950.4)" d="M 29668 10913.6 C 29627.8 10913.6 29549.9 10940.300000000001 29561.2 10975.800000000001 C 29563.8 10983.900000000001 29570.5 10987.2 29579.7 10987.2 C 29614.4 10987.2 29684 10939.6 29695.100000000002 10927.6 L 29688.4 10918.2 C 29684.7 10915.1 29677.4 10913.6 29668 10913.6" stroke-linecap="round" />
</g>
		<g transform="matrix(0.06 0 0 -0.06 23.34 -114.48)" id="aupKoO9hwI5UJgUzeXWN2"  >
<path style="stroke: none; stroke-width: 1; stroke-dasharray: none; stroke-linecap: butt; stroke-dashoffset: 0; stroke-linejoin: miter; stroke-miterlimit: 4; fill: rgb(245,129,97); fill-rule: nonzero; opacity: 1;" vector-effect="non-scaling-stroke"  transform=" translate(-29591.31, -10869.25)" d="M 29594.9 10833.2 C 29560.600000000002 10833.2 29526.300000000003 10844.900000000001 29522.2 10874 C 29518.9 10897.1 29531.4 10905.3 29550.2 10905.3 C 29586.2 10905.3 29645.4 10874.9 29660 10861.5 C 29661.1 10859.3 29661.1 10858.6 29660.7 10858.6 C 29660.3 10858.6 29659.5 10859.1 29658.7 10859.6 C 29657.8 10860.1 29656.8 10860.5 29656.100000000002 10860.5 C 29655.7 10860.5 29655.4 10860.4 29655.2 10860.2 L 29660 10851.2 C 29647.3 10840 29621.1 10833.2 29594.9 10833.2" stroke-linecap="round" />
</g>
		<g transform="matrix(0.06 0 0 -0.06 21.6 -108.24)" id="q48FQ3xXO5ZppujBPqYgT"  >
<path style="stroke: none; stroke-width: 1; stroke-dasharray: none; stroke-linecap: butt; stroke-dashoffset: 0; stroke-linejoin: miter; stroke-miterlimit: 4; fill: rgb(245,129,97); fill-rule: nonzero; opacity: 1;" vector-effect="non-scaling-stroke"  transform=" translate(-29560.82, -10760.4)" d="M 29559.1 10723.8 C 29520.199999999997 10723.8 29481.199999999997 10739 29486.399999999998 10771.4 C 29489.499999999996 10790.199999999999 29505.699999999997 10797 29526.499999999996 10797 C 29567.099999999995 10797 29625.099999999995 10771.3 29635.699999999997 10760.2 L 29628.999999999996 10750.900000000001 C 29620.199999999997 10733.2 29589.699999999997 10723.800000000001 29559.099999999995 10723.800000000001" stroke-linecap="round" />
</g>
		<g transform="matrix(0.06 0 0 -0.06 20.98 -101.85)" id="JEyb-NDg77FuqdAUgaCZh"  >
<path style="stroke: none; stroke-width: 1; stroke-dasharray: none; stroke-linecap: butt; stroke-dashoffset: 0; stroke-linejoin: miter; stroke-miterlimit: 4; fill: rgb(245,129,97); fill-rule: nonzero; opacity: 1;" vector-effect="non-scaling-stroke"  transform=" translate(-29550.1, -10649)" d="M 29529 10618.5 C 29502.7 10618.5 29480.9 10626.2 29482.7 10647.9 C 29484.7 10670.8 29509.100000000002 10679.5 29536.9 10679.5 C 29569.800000000003 10679.5 29607.4 10667.3 29617.600000000002 10652.3 L 29609.800000000003 10639.5 C 29595.800000000003 10628.7 29559.300000000003 10618.5 29529.000000000004 10618.5" stroke-linecap="round" />
</g>
		<g transform="matrix(0.06 0 0 -0.06 20.63 -95.58)" id="Dt2NLC1bMizHVrtkv-t8x"  >
<path style="stroke: none; stroke-width: 1; stroke-dasharray: none; stroke-linecap: butt; stroke-dashoffset: 0; stroke-linejoin: miter; stroke-miterlimit: 4; fill: rgb(245,129,97); fill-rule: nonzero; opacity: 1;" vector-effect="non-scaling-stroke"  transform=" translate(-29544.05, -10539.45)" d="M 29520.3 10509.1 C 29486.8 10509.1 29461.3 10519.9 29477.7 10548.2 C 29486.4 10563.2 29513.4 10569.800000000001 29541.5 10569.800000000001 C 29573.6 10569.800000000001 29607 10561.2 29615.5 10546.900000000001 L 29612.3 10536.600000000002 C 29598.3 10520.800000000003 29555 10509.100000000002 29520.3 10509.100000000002" stroke-linecap="round" />
</g>
		<g transform="matrix(0.06 0 0 -0.06 76.86 -36.43)" id="fwVSAg5uF2166p4aqWRaq"  >
<path style="stroke: none; stroke-width: 1; stroke-dasharray: none; stroke-linecap: butt; stroke-dashoffset: 0; stroke-linejoin: miter; stroke-miterlimit: 4; fill: rgb(226,39,39); fill-rule: nonzero; opacity: 1;" vector-effect="non-scaling-stroke"  transform=" translate(-30524.73, -9507.9)" d="M 30275.3 9968.1 C 30254.3 9962.4 30185 9994.6 30085.6 10026.800000000001 C 29916.399999999998 10081.6 29660.199999999997 10136.400000000001 29407.5 10004.300000000001 C 29277.5 9936.300000000001 29176.9 9659.6 29196 9440.000000000002 C 29215.1 9220.500000000002 29434.1 8942.300000000001 29786.7 8796.200000000003 C 30450.3 8521.300000000003 30999.4 8652.100000000002 31267.100000000002 8745.600000000002 C 31687.800000000003 8892.500000000002 31942.500000000004 9444.100000000002 31828.600000000002 9816.200000000003 C 31802.300000000003 9902.000000000002 31713.4 9980.600000000002 31646.300000000003 10054.900000000003 C 31201.4 10546.800000000003 30749.300000000003 10358.700000000003 30588.9 10300.900000000003 C 30351.4 10215.200000000003 30355.5 9989.800000000003 30275.300000000003 9968.100000000004" stroke-linecap="round" />
</g>
		<g transform="matrix(0.06 0 0 -0.06 78.11 -46.06)" id="2"  >
<path style="stroke: none; stroke-width: 1; stroke-dasharray: none; stroke-linecap: butt; stroke-dashoffset: 0; stroke-linejoin: miter; stroke-miterlimit: 4; fill: rgb(255,106,95); fill-rule: nonzero; opacity: 1;" vector-effect="non-scaling-stroke"  transform=" translate(-30546.61, -9675.76)" d="M 30260.7 10156.2 C 30243 10151.400000000001 30198.8 10162.300000000001 30134.2 10173.1 C 29991.5 10197.1 29749.2 10221 29473.100000000002 10076.6 C 29213.100000000002 9940.6 29067.000000000004 9276.4 29772.100000000002 8984.300000000001 C 30435.7 8709.400000000001 30984.800000000003 8840.2 31252.500000000004 8933.7 C 31770.200000000004 9114.5 32026.300000000003 9738.400000000001 31668.200000000004 10134.5 C 31223.300000000003 10626.4 30734.700000000004 10546.8 30574.300000000003 10488.9 C 30336.800000000003 10403.3 30340.9 10177.9 30260.700000000004 10156.199999999999" stroke-linecap="round" />
</g>
		<g transform="matrix(0.06 0 0 -0.06 91.27 -46.28)" id="oI9gcl7kVqHkleWx1b5tr"  >
<path style="stroke: none; stroke-width: 1; stroke-dasharray: none; stroke-linecap: butt; stroke-dashoffset: 0; stroke-linejoin: miter; stroke-miterlimit: 4; fill: rgb(251,84,75); fill-rule: nonzero; opacity: 1;" vector-effect="non-scaling-stroke"  transform=" translate(-30776.12, -9679.6)" d="M 30577.3 8906.1 C 30369.6 8906.1 30128.6 8942 29867.399999999998 9048 C 29935.499999999996 9085.7 30004.399999999998 9128.5 30073.499999999996 9177.3 C 30236.199999999997 9120.199999999999 30391.299999999996 9099.5 30525.999999999996 9099.5 C 30764.999999999996 9099.5 30939.399999999998 9164.9 30975.399999999998 9208.6 C 31019.899999999998 9262.6 30709.899999999998 9516.6 30482.3 9690 C 30514.399999999998 9782.3 30525.3 9870.6 30514.3 9946.6 C 30501.1 10037.300000000001 30465.5 10132.9 30418.3 10216.4 C 30444.2 10282.1 30485.899999999998 10351.8 30570.6 10398.5 C 30625.6 10428.8 30719.399999999998 10453.1 30834.1 10453.1 C 30924.6 10453.1 31028.199999999997 10437.9 31135.8 10398.5 C 31272 10348.6 31423.899999999998 10268.3 31558.8 10083.9 C 31836.7 9703.8 31631.7 9165.6 31172.6 9006.6 C 31041.699999999997 8961.300000000001 30835.1 8906.1 30577.3 8906.1 M 30917.1 10298.6 C 30897.399999999998 10298.6 30879 10296.9 30862.3 10293.6 C 30680 10257.5 30575.5 10062.2 30625.3 9910.2 C 30691.8 9707.6 31149.399999999998 9286.800000000001 31237.8 9286.800000000001 C 31240.6 9286.800000000001 31243.1 9287.2 31245.2 9288.1 C 31310.8 9317.1 31459.100000000002 9530 31445.7 9834.300000000001 C 31432.5 10136.6 31112.3 10298.6 30917.100000000002 10298.6" stroke-linecap="round" />
</g>
		<g transform="matrix(0.06 0 0 -0.06 62.67 -35.85)" id="sM5C8fR2-iW4jbGONYWlZ"  >
<path style="stroke: none; stroke-width: 1; stroke-dasharray: none; stroke-linecap: butt; stroke-dashoffset: 0; stroke-linejoin: miter; stroke-miterlimit: 4; fill: rgb(255,106,95); fill-rule: nonzero; opacity: 1;" vector-effect="non-scaling-stroke"  transform=" translate(-30277.25, -9497.7)" d="M 30260.7 9852.4 C 30336.7 9802.1 31041 9288.1 30975.4 9208.6 C 30909.7 9129 30384.7 8977.1 29845 9280.9 C 29530.2 9458.199999999999 29516.9 9743.9 29670 9830.699999999999 C 29823.2 9917.499999999998 30173.2 9910.199999999999 30260.7 9852.4" stroke-linecap="round" />
</g>
		<g transform="matrix(0.06 0 0 -0.06 105.81 -52.76)" id="RkCRFlzebzdUDz1AAbw8I"  >
<path style="stroke: none; stroke-width: 1; stroke-dasharray: none; stroke-linecap: butt; stroke-dashoffset: 0; stroke-linejoin: miter; stroke-miterlimit: 4; fill: rgb(255,106,95); fill-rule: nonzero; opacity: 1;" vector-effect="non-scaling-stroke"  transform=" translate(-31029.73, -9792.65)" d="M 30625.3 9910.2 C 30693.899999999998 9701.1 31179.6 9259.2 31245.2 9288.1 C 31310.8 9317.1 31459.100000000002 9530 31445.7 9834.300000000001 C 31431.2 10167.000000000002 31044.600000000002 10329.800000000001 30862.3 10293.6 C 30680 10257.5 30575.5 10062.2 30625.3 9910.2" stroke-linecap="round" />
</g>
		<g transform="matrix(0.06 0 0 -0.06 57.84 -20.76)" id="q_qyXTUZg9Kywrzuqf1NC"  >
<path style="stroke: none; stroke-width: 1; stroke-dasharray: none; stroke-linecap: butt; stroke-dashoffset: 0; stroke-linejoin: miter; stroke-miterlimit: 4; fill: rgb(248,146,112); fill-rule: nonzero; opacity: 1;" vector-effect="non-scaling-stroke"  transform=" translate(-30192.96, -9234.45)" d="M 30178.6 9169.9 C 30150.3 9169.9 30139.5 9198.3 30141 9227.8 C 30169.6 9250.8 30196.7 9274.5 30222.2 9299 C 30258.3 9296.6 30250.7 9197.5 30206.100000000002 9176.9 C 30195.500000000004 9172.1 30186.4 9169.9 30178.600000000002 9169.9" stroke-linecap="round" />
</g>
		<g transform="matrix(0.06 0 0 -0.06 67.42 -18.85)" id="iYy5g0bXv4uLF43tszV7t"  >
<path style="stroke: none; stroke-width: 1; stroke-dasharray: none; stroke-linecap: butt; stroke-dashoffset: 0; stroke-linejoin: miter; stroke-miterlimit: 4; fill: rgb(248,146,112); fill-rule: nonzero; opacity: 1;" vector-effect="non-scaling-stroke"  transform=" translate(-30360.21, -9201.25)" d="M 30358.2 9139.7 C 30287.8 9139.7 30300.3 9261.1 30359.2 9262.800000000001 L 30384.7 9255.6 C 30419.8 9238.7 30424.5 9144.300000000001 30362.8 9139.800000000001 C 30361.2 9139.7 30359.7 9139.7 30358.2 9139.7" stroke-linecap="round" />
</g>
		<g transform="matrix(0.06 0 0 -0.06 76.88 -18.3)" id="ExluLinLg1X1oMIlCwCTi"  >
<path style="stroke: none; stroke-width: 1; stroke-dasharray: none; stroke-linecap: butt; stroke-dashoffset: 0; stroke-linejoin: miter; stroke-miterlimit: 4; fill: rgb(248,146,112); fill-rule: nonzero; opacity: 1;" vector-effect="non-scaling-stroke"  transform=" translate(-30525.21, -9191.7)" d="M 30532.8 9136 C 30490.5 9136 30466 9228 30497.7 9241.1 L 30512.3 9244.7 C 30516 9246.6 30519.7 9247.400000000001 30523.2 9247.400000000001 C 30560.3 9247.400000000001 30588.2 9157.400000000001 30545.9 9138.900000000001 C 30541.4 9136.900000000001 30537 9136.000000000002 30532.800000000003 9136.000000000002" stroke-linecap="round" />
</g>
		<g transform="matrix(0.06 0 0 -0.06 83.8 -18.34)" id="YC5JqGpQXL1qUxhX9gu_L"  >
<path style="stroke: none; stroke-width: 1; stroke-dasharray: none; stroke-linecap: butt; stroke-dashoffset: 0; stroke-linejoin: miter; stroke-miterlimit: 4; fill: rgb(248,146,112); fill-rule: nonzero; opacity: 1;" vector-effect="non-scaling-stroke"  transform=" translate(-30645.84, -9192.4)" d="M 30660.1 9128.7 C 30612.1 9128.7 30575.699999999997 9225.1 30618 9255.6 L 30625.3 9255.6 C 30627 9255.9 30628.6 9256.1 30630.3 9256.1 C 30671.8 9256.1 30717.1 9151.4 30676.399999999998 9132.4 C 30670.899999999998 9129.9 30665.399999999998 9128.699999999999 30660.1 9128.699999999999" stroke-linecap="round" />
</g>
		<g transform="matrix(0.06 0 0 -0.06 91.83 -20.12)" id="yeK_q-_fDQ8LBknnV2AGA"  >
<path style="stroke: none; stroke-width: 1; stroke-dasharray: none; stroke-linecap: butt; stroke-dashoffset: 0; stroke-linejoin: miter; stroke-miterlimit: 4; fill: rgb(248,146,112); fill-rule: nonzero; opacity: 1;" vector-effect="non-scaling-stroke"  transform=" translate(-30785.93, -9223.35)" d="M 30812.3 9169.4 C 30775.8 9169.4 30715.8 9240.8 30738.2 9273.199999999999 C 30739.9 9273.999999999998 30741 9274.4 30741.8 9274.4 C 30744.399999999998 9274.4 30743.2 9270.8 30745.6 9270 L 30756.6 9277.3 C 30780.8 9273.099999999999 30872.699999999997 9206.3 30825 9173.099999999999 C 30821.3 9170.499999999998 30817 9169.399999999998 30812.3 9169.399999999998" stroke-linecap="round" />
</g>
		<g transform="matrix(0.06 0 0 -0.06 85.88 -62.66)" id="cCArxItqsBZ8EWuhEPXXA"  >
<path style="stroke: none; stroke-width: 1; stroke-dasharray: none; stroke-linecap: butt; stroke-dashoffset: 0; stroke-linejoin: miter; stroke-miterlimit: 4; fill: rgb(248,146,112); fill-rule: nonzero; opacity: 1;" vector-effect="non-scaling-stroke"  transform=" translate(-30682.13, -9965.45)" d="M 30712 9921.6 C 30683.5 9926.2 30654.2 9958.5 30647.2 9986.2 C 30642.3 9988.5 30644.600000000002 10009.300000000001 30660.2 10009.300000000001 C 30666.600000000002 10009.300000000001 30675.2 10005.800000000001 30686.4 9996.2 C 30706.300000000003 9979.1 30732.300000000003 9946.7 30712 9921.6" stroke-linecap="round" />
</g>
		<g transform="matrix(0.06 0 0 -0.06 88.42 -69.38)" id="Vk9OTrg1b81hQlDquBxzP"  >
<path style="stroke: none; stroke-width: 1; stroke-dasharray: none; stroke-linecap: butt; stroke-dashoffset: 0; stroke-linejoin: miter; stroke-miterlimit: 4; fill: rgb(248,146,112); fill-rule: nonzero; opacity: 1;" vector-effect="non-scaling-stroke"  transform=" translate(-30726.37, -10082.55)" d="M 30747.6 10031.6 C 30717.199999999997 10031.7 30670.399999999998 10089.4 30687.3 10120 L 30687.3 10116.4 C 30692.7 10128.6 30700.3 10133.5 30708.7 10133.5 C 30738 10133.5 30777 10073.7 30767.600000000002 10047.7 C 30763.500000000004 10036.300000000001 30756.2 10031.6 30747.600000000002 10031.6" stroke-linecap="round" />
</g>
		<g transform="matrix(0.06 0 0 -0.06 92.03 -74.32)" id="daTo51UUmjxSymT5_Aclz"  >
<path style="stroke: none; stroke-width: 1; stroke-dasharray: none; stroke-linecap: butt; stroke-dashoffset: 0; stroke-linejoin: miter; stroke-miterlimit: 4; fill: rgb(248,146,112); fill-rule: nonzero; opacity: 1;" vector-effect="non-scaling-stroke"  transform=" translate(-30789.25, -10168.75)" d="M 30802 10101.7 C 30764.7 10101.7 30738.9 10216.1 30763.9 10235.800000000001 L 30771.2 10221.300000000001 C 30775.9 10223.900000000001 30780.3 10225.1 30784.5 10225.1 C 30826.2 10225.1 30839.6 10105.7 30804 10101.800000000001 C 30803.3 10101.7 30802.7 10101.7 30802 10101.7" stroke-linecap="round" />
</g>
		<g transform="matrix(0.06 0 0 -0.06 98.73 -76.29)" id="2"  >
<path style="stroke: none; stroke-width: 1; stroke-dasharray: none; stroke-linecap: butt; stroke-dashoffset: 0; stroke-linejoin: miter; stroke-miterlimit: 4; fill: rgb(248,146,112); fill-rule: nonzero; opacity: 1;" vector-effect="non-scaling-stroke"  transform=" translate(-30906.25, -10203)" d="M 30899.1 10137.7 C 30899 10137.7 30898.899999999998 10137.7 30898.8 10137.7 C 30856.5 10138.5 30878.7 10264.900000000001 30898.8 10268.300000000001 L 30909.7 10264.7 C 30960.5 10255.300000000001 30933.4 10137.6 30899.100000000002 10137.7" stroke-linecap="round" />
</g>
		<g transform="matrix(0.06 0 0 -0.06 104.22 -76.32)" id="JobZAkvu3l51i2NPue6Fx"  >
<path style="stroke: none; stroke-width: 1; stroke-dasharray: none; stroke-linecap: butt; stroke-dashoffset: 0; stroke-linejoin: miter; stroke-miterlimit: 4; fill: rgb(248,146,112); fill-rule: nonzero; opacity: 1;" vector-effect="non-scaling-stroke"  transform=" translate(-31001.88, -10203.6)" d="M 30984.8 10141.3 C 30979 10141.3 30973.3 10143.3 30968 10148 C 30942.4 10170.3 30988 10265.9 31017.3 10265.9 C 31019.2 10265.9 31021 10265.5 31022.8 10264.699999999999 L 31030.1 10253.9 C 31065.199999999997 10232.4 31023.3 10141.199999999999 30984.8 10141.3" stroke-linecap="round" />
</g>
		<g transform="matrix(0.06 0 0 -0.06 109.95 -73.82)" id="BvPYusXwLhS7oyodaefDl"  >
<path style="stroke: none; stroke-width: 1; stroke-dasharray: none; stroke-linecap: butt; stroke-dashoffset: 0; stroke-linejoin: miter; stroke-miterlimit: 4; fill: rgb(248,146,112); fill-rule: nonzero; opacity: 1;" vector-effect="non-scaling-stroke"  transform=" translate(-31101.86, -10160.05)" d="M 31079.1 10113.6 C 31059 10113.6 31039.5 10120.5 31059.199999999997 10141.7 L 31066.499999999996 10148.900000000001 C 31071.099999999995 10170.100000000002 31114.299999999996 10206.500000000002 31137.699999999997 10206.500000000002 C 31149.199999999997 10206.500000000002 31155.899999999998 10197.800000000001 31151.199999999997 10174.300000000001 C 31146.1 10149.2 31129.299999999996 10126.900000000001 31102.899999999998 10117.1 C 31097.199999999997 10115 31088.1 10113.6 31079.1 10113.6" stroke-linecap="round" />
</g>
		<g transform="matrix(0.06 0 0 -0.06 115.6 -69.63)" id="8"  >
<path style="stroke: none; stroke-width: 1; stroke-dasharray: none; stroke-linecap: butt; stroke-dashoffset: 0; stroke-linejoin: miter; stroke-miterlimit: 4; fill: rgb(248,146,112); fill-rule: nonzero; opacity: 1;" vector-effect="non-scaling-stroke"  transform=" translate(-31200.5, -10087)" d="M 31167.5 10042.5 C 31139.3 10042.5 31116.9 10055 31154 10080.2 L 31157.7 10091.1 C 31183.5 10102.4 31208 10131.5 31242.100000000002 10131.5 C 31249.7 10131.5 31257.800000000003 10130 31266.4 10126.6 C 31268.2 10096.1 31230.300000000003 10063.5 31205.2 10050.5 C 31194.9 10045.2 31180.600000000002 10042.5 31167.5 10042.5" stroke-linecap="round" />
</g>
		<g transform="matrix(0.06 0 0 -0.06 120.37 -65.12)" id="xYGint_8zknMJfpHrKcoR"  >
<path style="stroke: none; stroke-width: 1; stroke-dasharray: none; stroke-linecap: butt; stroke-dashoffset: 0; stroke-linejoin: miter; stroke-miterlimit: 4; fill: rgb(248,146,112); fill-rule: nonzero; opacity: 1;" vector-effect="non-scaling-stroke"  transform=" translate(-31283.65, -10008.25)" d="M 31256.5 9974 C 31240 9974 31226.8 9977.7 31223.3 9986.2 L 31219.7 9989.800000000001 C 31229.9 10008.000000000002 31286.8 10042.500000000002 31321.2 10042.500000000002 C 31335.100000000002 10042.500000000002 31345.4 10036.900000000001 31347.4 10022.300000000001 C 31351.4 9994.1 31294.800000000003 9974.000000000002 31256.5 9974.000000000002" stroke-linecap="round" />
</g>
		<g transform="matrix(0.06 0 0 -0.06 122.87 -60.29)" id="kObh_kEVUi5AyOKrqHj7G"  >
<path style="stroke: none; stroke-width: 1; stroke-dasharray: none; stroke-linecap: butt; stroke-dashoffset: 0; stroke-linejoin: miter; stroke-miterlimit: 4; fill: rgb(248,146,112); fill-rule: nonzero; opacity: 1;" vector-effect="non-scaling-stroke"  transform=" translate(-31327.25, -9923.95)" d="M 31325.5 9897.4 C 31295.3 9897.4 31265.9 9904.1 31259.8 9913.9 L 31256.1 9924.699999999999 C 31268 9931.699999999999 31326.5 9950.499999999998 31364.699999999997 9950.499999999998 C 31384.1 9950.499999999998 31398.299999999996 9945.599999999999 31398.399999999998 9931.799999999997 C 31398.6 9906.899999999998 31361.499999999996 9897.399999999998 31325.499999999996 9897.399999999998" stroke-linecap="round" />
</g>
		<g transform="matrix(0.06 0 0 -0.06 123.51 -55.04)" id="rFtY3qqv0aLu6ZGgXbfmE"  >
<path style="stroke: none; stroke-width: 1; stroke-dasharray: none; stroke-linecap: butt; stroke-dashoffset: 0; stroke-linejoin: miter; stroke-miterlimit: 4; fill: rgb(248,146,112); fill-rule: nonzero; opacity: 1;" vector-effect="non-scaling-stroke"  transform=" translate(-31338.36, -9832.5)" d="M 31359.6 9799.6 C 31323.899999999998 9799.6 31280.199999999997 9820.300000000001 31267.1 9841.5 L 31274.399999999998 9848.7 C 31273.999999999996 9849.2 31273.399999999998 9849.400000000001 31272.8 9849.400000000001 C 31272.1 9849.400000000001 31271.3 9849.2 31270.6 9849.100000000002 C 31269.899999999998 9848.900000000001 31269.3 9848.800000000003 31268.899999999998 9848.800000000003 C 31268.1 9848.800000000003 31268.199999999997 9849.300000000003 31270.199999999997 9851.400000000003 C 31283.1 9857.600000000004 31320.699999999997 9865.400000000003 31353.6 9865.400000000003 C 31390.199999999997 9865.400000000003 31420.899999999998 9855.700000000003 31405.6 9823.300000000003 C 31397.6 9806.200000000003 31379.899999999998 9799.600000000002 31359.6 9799.600000000002" stroke-linecap="round" />
</g>
		<g transform="matrix(0.06 0 0 -0.06 123.4 -48.63)" id="yQOeV2SMB8vW17SAq3Awx"  >
<path style="stroke: none; stroke-width: 1; stroke-dasharray: none; stroke-linecap: butt; stroke-dashoffset: 0; stroke-linejoin: miter; stroke-miterlimit: 4; fill: rgb(248,146,112); fill-rule: nonzero; opacity: 1;" vector-effect="non-scaling-stroke"  transform=" translate(-31336.57, -9720.7)" d="M 31363.1 9684.5 C 31323.199999999997 9684.5 31271.699999999997 9708.8 31267.1 9736.6 L 31263.399999999998 9747.5 C 31271.8 9752.2 31299.6 9756.9 31328.8 9756.9 C 31370.1 9756.9 31414.1 9747.4 31409.399999999998 9714.699999999999 C 31406.399999999998 9693.099999999999 31386.8 9684.499999999998 31363.1 9684.499999999998" stroke-linecap="round" />
</g>
		<g transform="matrix(0.06 0 0 -0.06 122.05 -42.42)" id="OcNOva1e18Q481hHDqLqk"  >
<path style="stroke: none; stroke-width: 1; stroke-dasharray: none; stroke-linecap: butt; stroke-dashoffset: 0; stroke-linejoin: miter; stroke-miterlimit: 4; fill: rgb(248,146,112); fill-rule: nonzero; opacity: 1;" vector-effect="non-scaling-stroke"  transform=" translate(-31313.01, -9612.4)" d="M 31348.9 9576.6 C 31316.4 9576.6 31265.9 9605.6 31252.5 9624.5 L 31248.8 9639 C 31256.5 9645.1 31271.5 9648.2 31288.7 9648.2 C 31330.2 9648.2 31384.100000000002 9630.300000000001 31376.5 9595.6 C 31373.4 9581.9 31362.8 9576.6 31348.9 9576.6" stroke-linecap="round" />
</g>
		<g transform="matrix(0.06 0 0 -0.06 120.53 -36.39)" id="d4aUaHXH_n0yTASO_bHMt"  >
<path style="stroke: none; stroke-width: 1; stroke-dasharray: none; stroke-linecap: butt; stroke-dashoffset: 0; stroke-linejoin: miter; stroke-miterlimit: 4; fill: rgb(248,146,112); fill-rule: nonzero; opacity: 1;" vector-effect="non-scaling-stroke"  transform=" translate(-31286.35, -9507.2)" d="M 31327.9 9468.9 C 31292.5 9468.9 31231 9501.8 31219.7 9526.9 L 31219.7 9537.699999999999 C 31225.7 9543.099999999999 31236.8 9545.499999999998 31250.3 9545.499999999998 C 31288.8 9545.499999999998 31345.7 9525.699999999999 31351.8 9498.799999999997 C 31356.8 9477.199999999997 31345.6 9468.899999999998 31327.899999999998 9468.899999999998" stroke-linecap="round" />
</g>
		<g transform="matrix(0.06 0 0 -0.06 117.44 -30.73)" id="-gvegDUrvEbcryLUUWCAS"  >
<path style="stroke: none; stroke-width: 1; stroke-dasharray: none; stroke-linecap: butt; stroke-dashoffset: 0; stroke-linejoin: miter; stroke-miterlimit: 4; fill: rgb(248,146,112); fill-rule: nonzero; opacity: 1;" vector-effect="non-scaling-stroke"  transform=" translate(-31232.51, -9408.4)" d="M 31266.8 9365.8 C 31237.1 9365.8 31182.3 9424.9 31179.6 9450.9 C 31180.8 9451 31182.3 9451 31183.8 9451 C 31213.6 9451 31288.7 9431.8 31285.3 9389.4 C 31283.899999999998 9372.5 31276.8 9365.8 31266.8 9365.8" stroke-linecap="round" />
</g>
		<g transform="matrix(0.06 0 0 -0.06 0.38 -43.95)" id="qkPNuIBJKnIcqkgmSFYDX"  >
<path style="stroke: none; stroke-width: 1; stroke-dasharray: none; stroke-linecap: butt; stroke-dashoffset: 0; stroke-linejoin: miter; stroke-miterlimit: 4; fill: rgb(226,39,39); fill-rule: nonzero; opacity: 1;" vector-effect="non-scaling-stroke"  transform=" translate(-29190.81, -9638.93)" d="M 29342.3 10217.6 C 29367.6 10216.7 29445.1 10280.6 29560.1 10344.5 C 29712 10428.9 29929.5 10513.2 30179.1 10448.4 C 30321.3 10411.5 30482.6 10164.8 30514.3 9946.6 C 30546 9728.5 30396.399999999998 9408.2 30086.5 9186.5 C 29503.3 8769.2 28938.5 8772.8 28656.5 8803.5 C 28213.2 8851.8 27838.7 9331.5 27864.4 9719.5 C 27870.300000000003 9809.1 27938.9 9905.6 27987.300000000003 9993.1 C 28307.800000000003 10572.4 28791.200000000004 10491.2 28960.700000000004 10471 C 29211.600000000006 10441.1 29259.200000000004 10220.7 29342.300000000003 10217.6" stroke-linecap="round" />
</g>
		<g transform="matrix(0.06 0 0 -0.06 -2.24 -54.31)" id="txCj6J4vlsWZMq2sRprvd"  >
<path style="stroke: none; stroke-width: 1; stroke-dasharray: none; stroke-linecap: butt; stroke-dashoffset: 0; stroke-linejoin: miter; stroke-miterlimit: 4; fill: rgb(255,106,95); fill-rule: nonzero; opacity: 1;" vector-effect="non-scaling-stroke"  transform=" translate(-29145.05, -9819.68)" d="M 29313.4 10404 C 29336.800000000003 10403.2 29396.5 10436.9 29487.5 10470.6 C 29625.2 10521.6 29834.6 10572.6 30098.6 10504.1 C 30383 10430.300000000001 30677.399999999998 9816.300000000001 30057.699999999997 9373 C 29474.399999999998 8955.7 28909.699999999997 8959.2 28627.6 8990 C 28082 9049.4 27689.699999999997 9599.2 27947.699999999997 10065.7 C 28268.299999999996 10645 28762.299999999996 10677.6 28931.799999999996 10657.400000000001 C 29182.699999999997 10627.500000000002 29230.299999999996 10407.100000000002 29313.399999999994 10404.000000000002" stroke-linecap="round" />
</g>
		<g transform="matrix(0.06 0 0 -0.06 -2.07 -54.66)" id="DjCmA7TePZuKmtTCPPFli"  >
<path style="stroke: none; stroke-width: 1; stroke-dasharray: none; stroke-linecap: butt; stroke-dashoffset: 0; stroke-linejoin: miter; stroke-miterlimit: 4; fill: rgb(251,84,75); fill-rule: nonzero; opacity: 1;" vector-effect="non-scaling-stroke"  transform=" translate(-29148.03, -9825.95)" d="M 28882.7 9068.7 C 28808 9068.7 28742.600000000002 9073.300000000001 28688.7 9079 C 28205.2 9130.3 27882.2 9608.3 28065.9 10041 C 28155 10251.1 28284.4 10363.5 28405.7 10442.8 C 28564.600000000002 10546.699999999999 28728 10583.199999999999 28846.600000000002 10583.199999999999 C 28889.9 10583.199999999999 28927.100000000002 10578.4 28956.100000000002 10570.199999999999 C 29171.300000000003 10509.3 29191.7 10276.599999999999 29265.300000000003 10274.099999999999 C 29265.500000000004 10274.099999999999 29265.700000000004 10274.099999999999 29265.9 10274.099999999999 C 29288.100000000002 10274.099999999999 29350.5 10314.8 29443.600000000002 10355.599999999999 C 29536.600000000002 10396.3 29660.2 10437.099999999999 29804.7 10437.099999999999 C 29864.8 10437.099999999999 29928.5 10429.999999999998 29995.2 10412.999999999998 C 30247.2 10348.599999999999 30507.100000000002 9809.199999999999 29957 9418.299999999997 C 29550.7 9129.599999999997 29155.1 9068.699999999997 28882.7 9068.699999999997 M 29840.3 10235.099999999997 C 29665.2 10235.099999999997 29440.1 10168.499999999996 29383 10108.199999999997 C 29320.5 10042.099999999997 28752.4 9382.799999999997 28834.5 9320.099999999997 C 28860.6 9300.199999999997 28933.4 9283.699999999997 29035.2 9283.699999999997 C 29254.2 9283.699999999997 29607.4 9360.299999999997 29918.7 9645.299999999997 C 30184.7 9888.999999999998 30132.2 10170.199999999997 29963.2 10220.199999999997 C 29928.2 10230.499999999996 29886 10235.099999999997 29840.3 10235.099999999997 M 28705.6 10402.399999999996 C 28702.399999999998 10402.399999999996 28699.199999999997 10402.399999999996 28696 10402.299999999996 C 28510.2 10396.399999999996 28171.1 10150.799999999996 28233.1 9823.499999999996 C 28289.8 9524.099999999997 28483 9350.199999999997 28553.5 9336.799999999996 C 28554.4 9336.599999999995 28555.3 9336.499999999996 28556.2 9336.499999999996 C 28633.100000000002 9336.499999999996 28996 9865.899999999996 29014.600000000002 10082.299999999996 C 29028.100000000002 10238.799999999996 28886.800000000003 10402.399999999996 28705.600000000002 10402.399999999996" stroke-linecap="round" />
</g>
		<g transform="matrix(0.06 0 0 -0.06 16.11 -50.85)" id="ny-1mi2nKBWQwg3-hS5fx"  >
<path style="stroke: none; stroke-width: 1; stroke-dasharray: none; stroke-linecap: butt; stroke-dashoffset: 0; stroke-linejoin: miter; stroke-miterlimit: 4; fill: rgb(255,106,95); fill-rule: nonzero; opacity: 1;" vector-effect="non-scaling-stroke"  transform=" translate(-29465.25, -9759.36)" d="M 29383 10108.2 C 29320.5 10042.1 28752.4 9382.800000000001 28834.5 9320.1 C 28916.6 9257.4 29462.8 9227.800000000001 29918.7 9645.300000000001 C 30184.7 9889.000000000002 30132.2 10170.2 29963.2 10220.2 C 29794.2 10270.2 29455 10184.300000000001 29383 10108.2" stroke-linecap="round" />
</g>
		<g transform="matrix(0.06 0 0 -0.06 -32.31 -57.16)" id="ses4YXEmnZDG-xVIkgEm9"  >
<path style="stroke: none; stroke-width: 1; stroke-dasharray: none; stroke-linecap: butt; stroke-dashoffset: 0; stroke-linejoin: miter; stroke-miterlimit: 4; fill: rgb(255,106,95); fill-rule: nonzero; opacity: 1;" vector-effect="non-scaling-stroke"  transform=" translate(-28620.57, -9869.5)" d="M 29014.6 10082.3 C 28995.8 9863.199999999999 28624.1 9323.4 28553.5 9336.8 C 28483 9350.199999999999 28289.8 9524.099999999999 28233.1 9823.5 C 28171.1 10150.8 28510.199999999997 10396.4 28696 10402.3 C 28881.8 10408.199999999999 29028.4 10241.599999999999 29014.6 10082.3" stroke-linecap="round" />
</g>
		<g transform="matrix(0.06 0 0 -0.06 38.46 -72.58)" id="gryKA5t0Xv1Hzws7t7AAn"  >
<path style="stroke: none; stroke-width: 1; stroke-dasharray: none; stroke-linecap: butt; stroke-dashoffset: 0; stroke-linejoin: miter; stroke-miterlimit: 4; fill: rgb(248,146,112); fill-rule: nonzero; opacity: 1;" vector-effect="non-scaling-stroke"  transform=" translate(-29855.05, -10138.4)" d="M 29817.4 10092.4 C 29807.9 10092.4 29799.2 10096.6 29792.100000000002 10107 C 29772.100000000002 10136.4 29860.800000000003 10184.4 29902.2 10184.4 C 29911.2 10184.4 29918 10182.199999999999 29920.9 10177 L 29917.4 10176.2 C 29906.100000000002 10160.1 29855.4 10092.400000000001 29817.4 10092.400000000001" stroke-linecap="round" />
</g>
		<g transform="matrix(0.06 0 0 -0.06 43.53 -67.4)" id="hQ7zdg7KNStTU0numdirB"  >
<path style="stroke: none; stroke-width: 1; stroke-dasharray: none; stroke-linecap: butt; stroke-dashoffset: 0; stroke-linejoin: miter; stroke-miterlimit: 4; fill: rgb(248,146,112); fill-rule: nonzero; opacity: 1;" vector-effect="non-scaling-stroke"  transform=" translate(-29943.42, -10048.05)" d="M 29905.1 10007.9 C 29903.6 10007.9 29902.199999999997 10007.9 29900.8 10008 C 29865.5 10009.4 29829.399999999998 10037.2 29878.3 10055.7 L 29874.8 10054.900000000001 C 29899.8 10071.300000000001 29952.8 10087.500000000002 29983 10088.2 C 29983.9 10088.2 29984.8 10088.2 29985.7 10088.2 C 30028.8 10088.2 30052.9 10065.6 30009.2 10040.6 C 29981 10024.5 29939.5 10007.9 29905.100000000002 10007.9" stroke-linecap="round" />
</g>
		<g transform="matrix(0.06 0 0 -0.06 41.5 -58.24)" id="4"  >
<path style="stroke: none; stroke-width: 1; stroke-dasharray: none; stroke-linecap: butt; stroke-dashoffset: 0; stroke-linejoin: miter; stroke-miterlimit: 4; fill: rgb(248,146,112); fill-rule: nonzero; opacity: 1;" vector-effect="non-scaling-stroke"  transform=" translate(-29907.92, -9888.25)" d="M 29938.2 9837.4 C 29907 9837.4 29860.2 9851.1 29840.7 9869.6 C 29800.2 9908 29833.4 9929.300000000001 29872.2 9939.1 L 29872.2 9939.1 L 29872.2 9939.1 C 29900.9 9937.6 29947.100000000002 9932.4 29971.7 9914 C 30008.9 9886.1 29996.4 9846.6 29951.7 9838.5 C 29947.7 9837.8 29943.100000000002 9837.4 29938.2 9837.4" stroke-linecap="round" />
</g>
		<g transform="matrix(0.06 0 0 -0.06 39.54 -61.18)" id="U3Rf6lNv4YxtEN8KSXBLq"  >
<path style="stroke: none; stroke-width: 1; stroke-dasharray: none; stroke-linecap: butt; stroke-dashoffset: 0; stroke-linejoin: miter; stroke-miterlimit: 4; fill: rgb(248,146,112); fill-rule: nonzero; opacity: 1;" vector-effect="non-scaling-stroke"  transform=" translate(-29873.85, -9939.5)" d="M 29872.2 9939.1 L 29872.2 9939.1 L 29872.100000000002 9939.1 L 29875.600000000002 9939.9 C 29874.500000000004 9939.699999999999 29873.300000000003 9939.4 29872.2 9939.1 L 29872.2 9939.1" stroke-linecap="round" />
</g>
		<g transform="matrix(0.06 0 0 -0.06 36.79 -50.36)" id="_4JlRjfOfO8I2QZKpVFne"  >
<path style="stroke: none; stroke-width: 1; stroke-dasharray: none; stroke-linecap: butt; stroke-dashoffset: 0; stroke-linejoin: miter; stroke-miterlimit: 4; fill: rgb(248,146,112); fill-rule: nonzero; opacity: 1;" vector-effect="non-scaling-stroke"  transform=" translate(-29825.93, -9750.95)" d="M 29847.2 9697.5 C 29815.2 9697.5 29771.600000000002 9712.9 29759.9 9734.9 C 29746.600000000002 9759.9 29764.100000000002 9798 29791.100000000002 9798 C 29794.2 9798 29797.500000000004 9797.4 29800.800000000003 9796.3 L 29787.700000000004 9804.4 C 29788.000000000004 9804.4 29788.300000000003 9804.4 29788.600000000006 9804.4 C 29832.700000000004 9804.4 29950.000000000007 9729.6 29868.300000000007 9700.5 C 29862.400000000005 9698.5 29855.200000000008 9697.5 29847.200000000008 9697.5" stroke-linecap="round" />
</g>
		<g transform="matrix(0.06 0 0 -0.06 30.87 -42.05)" id="VymcGzaRs5osnLJzCuC-6"  >
<path style="stroke: none; stroke-width: 1; stroke-dasharray: none; stroke-linecap: butt; stroke-dashoffset: 0; stroke-linejoin: miter; stroke-miterlimit: 4; fill: rgb(248,146,112); fill-rule: nonzero; opacity: 1;" vector-effect="non-scaling-stroke"  transform=" translate(-29722.69, -9605.85)" d="M 29745.1 9552.2 C 29704.199999999997 9552.2 29641.5 9609.300000000001 29675.5 9644.800000000001 L 29683.6 9657.800000000001 C 29687.399999999998 9659.000000000002 29691.399999999998 9659.500000000002 29695.5 9659.500000000002 C 29743.8 9659.500000000002 29813.4 9585.000000000002 29760.9 9555.900000000001 C 29756.300000000003 9553.400000000001 29750.9 9552.2 29745.100000000002 9552.2" stroke-linecap="round" />
</g>
		<g transform="matrix(0.06 0 0 -0.06 23.23 -37.2)" id="pWZBC_eQj7Uis56U1UATT"  >
<path style="stroke: none; stroke-width: 1; stroke-dasharray: none; stroke-linecap: butt; stroke-dashoffset: 0; stroke-linejoin: miter; stroke-miterlimit: 4; fill: rgb(248,146,112); fill-rule: nonzero; opacity: 1;" vector-effect="non-scaling-stroke"  transform=" translate(-29589.33, -9521.35)" d="M 29607.7 9460.8 C 29602.600000000002 9460.8 29597.100000000002 9461.4 29590.9 9462.699999999999 C 29539.9 9473.3 29509.100000000002 9578.9 29554.100000000002 9578.9 C 29561.9 9578.9 29572.100000000002 9575.6 29584.9 9568.1 L 29578.9 9577.800000000001 C 29583.5 9580.6 29588.2 9581.900000000001 29592.800000000003 9581.900000000001 C 29615.500000000004 9581.900000000001 29637.100000000002 9551.600000000002 29644.000000000004 9521.400000000001 C 29651.000000000004 9491.100000000002 29643.400000000005 9460.800000000001 29607.700000000004 9460.800000000001" stroke-linecap="round" />
</g>
		<g transform="matrix(0.06 0 0 -0.06 14.43 -33.21)" id="AU5aCBy19saU8if2rcfQw"  >
<path style="stroke: none; stroke-width: 1; stroke-dasharray: none; stroke-linecap: butt; stroke-dashoffset: 0; stroke-linejoin: miter; stroke-miterlimit: 4; fill: rgb(248,146,112); fill-rule: nonzero; opacity: 1;" vector-effect="non-scaling-stroke"  transform=" translate(-29435.88, -9451.65)" d="M 29438.2 9390.6 C 29384.2 9390.6 29370.100000000002 9475.800000000001 29399 9499.1 L 29422.2 9511.800000000001 C 29424.9 9512.400000000001 29427.600000000002 9512.7 29430.3 9512.7 C 29484.6 9512.7 29518.1 9402.5 29446.8 9391.300000000001 C 29443.8 9390.800000000001 29440.899999999998 9390.6 29438.2 9390.6" stroke-linecap="round" />
</g>
		<g transform="matrix(0.06 0 0 -0.06 5.27 -30.5)" id="gpH5NveJPX05u8TYY_iPB"  >
<path style="stroke: none; stroke-width: 1; stroke-dasharray: none; stroke-linecap: butt; stroke-dashoffset: 0; stroke-linejoin: miter; stroke-miterlimit: 4; fill: rgb(248,146,112); fill-rule: nonzero; opacity: 1;" vector-effect="non-scaling-stroke"  transform=" translate(-29276.11, -9404.4)" d="M 29275.2 9348.4 C 29273.100000000002 9348.4 29271 9348.6 29268.7 9349 C 29221.100000000002 9358 29230.5 9460.4 29271.100000000002 9460.4 C 29273.100000000002 9460.4 29275.100000000002 9460.199999999999 29277.2 9459.699999999999 L 29292.2 9459.499999999998 C 29327.9 9453.599999999999 29323 9348.399999999998 29275.2 9348.399999999998" stroke-linecap="round" />
</g>
		<g transform="matrix(0.06 0 0 -0.06 -1.38 -29.07)" id="jzcDWO9u_ftrEg-Zc6h87"  >
<path style="stroke: none; stroke-width: 1; stroke-dasharray: none; stroke-linecap: butt; stroke-dashoffset: 0; stroke-linejoin: miter; stroke-miterlimit: 4; fill: rgb(248,146,112); fill-rule: nonzero; opacity: 1;" vector-effect="non-scaling-stroke"  transform=" translate(-29160.14, -9379.5)" d="M 29151.6 9312.5 C 29148.8 9312.5 29146 9312.8 29143.1 9313.4 C 29097.3 9323.1 29120.899999999998 9443.9 29164.6 9444.8 L 29171.699999999997 9446.5 C 29222.699999999997 9425.2 29204.899999999998 9312.5 29151.6 9312.5" stroke-linecap="round" />
</g>
		<g transform="matrix(0.06 0 0 -0.06 -9.69 -28.96)" id="A3CaPeewsCKxb_oSqvUvo"  >
<path style="stroke: none; stroke-width: 1; stroke-dasharray: none; stroke-linecap: butt; stroke-dashoffset: 0; stroke-linejoin: miter; stroke-miterlimit: 4; fill: rgb(248,146,112); fill-rule: nonzero; opacity: 1;" vector-effect="non-scaling-stroke"  transform=" translate(-29015.13, -9377.5)" d="M 28996.7 9318.1 C 28994.100000000002 9318.1 28991.600000000002 9318.5 28989.100000000002 9319.5 C 28935.000000000004 9341 29009.2 9426.8 29031.800000000003 9436.3 L 29044.100000000002 9431.8 C 29046.500000000004 9433.199999999999 29043.9 9436.9 29047.800000000003 9436.9 C 29048.500000000004 9436.9 29049.500000000004 9436.8 29050.700000000004 9436.5 C 29081.500000000004 9408.6 29033.200000000004 9318.1 28996.700000000004 9318.1" stroke-linecap="round" />
</g>
		<g transform="matrix(0.06 0 0 -0.06 29.71 -73.1)" id="pOknINWR6Cqq0b2Y0MqbM"  >
<path style="stroke: none; stroke-width: 1; stroke-dasharray: none; stroke-linecap: butt; stroke-dashoffset: 0; stroke-linejoin: miter; stroke-miterlimit: 4; fill: rgb(248,146,112); fill-rule: nonzero; opacity: 1;" vector-effect="non-scaling-stroke"  transform=" translate(-29702.27, -10147.5)" d="M 29683.7 10097.6 C 29676.9 10097.6 29670.5 10100.300000000001 29665 10106.7 C 29644.7 10130.2 29698.6 10197.1 29728.5 10197.1 C 29730 10197.1 29731.5 10196.9 29732.9 10196.6 L 29736.4 10197.4 C 29761.800000000003 10169.1 29718.2 10097.6 29683.7 10097.6" stroke-linecap="round" />
</g>
		<g transform="matrix(0.06 0 0 -0.06 21.24 -71.69)" id="1"  >
<path style="stroke: none; stroke-width: 1; stroke-dasharray: none; stroke-linecap: butt; stroke-dashoffset: 0; stroke-linejoin: miter; stroke-miterlimit: 4; fill: rgb(248,146,112); fill-rule: nonzero; opacity: 1;" vector-effect="non-scaling-stroke"  transform=" translate(-29554.72, -10122.95)" d="M 29533.5 10070.8 C 29529.8 10070.8 29526.2 10071.9 29522.7 10074.4 C 29473.5 10110.199999999999 29577.8 10166.6 29591.9 10175.1 L 29599.800000000003 10173.2 C 29601.100000000002 10152.2 29564.600000000002 10070.800000000001 29533.500000000004 10070.800000000001" stroke-linecap="round" />
</g>
		<g transform="matrix(0.06 0 0 -0.06 -13.66 -71.67)" id="BZD3eSxTzQ7mJGtybwHF7"  >
<path style="stroke: none; stroke-width: 1; stroke-dasharray: none; stroke-linecap: butt; stroke-dashoffset: 0; stroke-linejoin: miter; stroke-miterlimit: 4; fill: rgb(248,146,112); fill-rule: nonzero; opacity: 1;" vector-effect="non-scaling-stroke"  transform=" translate(-28945.97, -10122.55)" d="M 28927.6 10073.8 C 28902.1 10093.699999999999 28920.1 10131.099999999999 28935.5 10152.199999999999 C 28946 10166.499999999998 28954.8 10171.3 28961.5 10171.3 C 28974.2 10171.3 28979.8 10154.4 28975.9 10151.4 C 28975.5 10122.9 28954.300000000003 10084.699999999999 28927.600000000002 10073.8" stroke-linecap="round" />
</g>
		<g transform="matrix(0.06 0 0 -0.06 -17.6 -77.66)" id="cZeFodb3A7LYBfvF_OHSX"  >
<path style="stroke: none; stroke-width: 1; stroke-dasharray: none; stroke-linecap: butt; stroke-dashoffset: 0; stroke-linejoin: miter; stroke-miterlimit: 4; fill: rgb(248,146,112); fill-rule: nonzero; opacity: 1;" vector-effect="non-scaling-stroke"  transform=" translate(-28877.12, -10227)" d="M 28863 10172.5 C 28856.3 10172.5 28849.9 10175.9 28844.6 10184.1 C 28828.699999999997 10208.5 28856.399999999998 10281.5 28886.699999999997 10281.5 C 28893.499999999996 10281.5 28900.499999999996 10277.9 28906.999999999996 10269.1 L 28906.199999999997 10272.7 C 28930.999999999996 10245.2 28893.6 10172.5 28862.999999999996 10172.5" stroke-linecap="round" />
</g>
		<g transform="matrix(0.06 0 0 -0.06 -22.33 -81.75)" id="f6XKSgS5rkvlvreXyVGjx"  >
<path style="stroke: none; stroke-width: 1; stroke-dasharray: none; stroke-linecap: butt; stroke-dashoffset: 0; stroke-linejoin: miter; stroke-miterlimit: 4; fill: rgb(248,146,112); fill-rule: nonzero; opacity: 1;" vector-effect="non-scaling-stroke"  transform=" translate(-28794.68, -10298.3)" d="M 28795 10228.5 C 28777.1 10228.5 28765 10259.8 28763.2 10291.1 C 28761.3 10322.4 28769.7 10353.7 28792.8 10353.7 C 28795.399999999998 10353.7 28798.3 10353.300000000001 28801.399999999998 10352.400000000001 L 28805.1 10368.100000000002 C 28834.5 10354.300000000003 28835.1 10233.100000000002 28796.8 10228.600000000002 C 28796.2 10228.500000000002 28795.6 10228.500000000002 28795 10228.500000000002" stroke-linecap="round" />
</g>
		<g transform="matrix(0.06 0 0 -0.06 -29.2 -82.16)" id="XG4cV8M89BleLLub-MMTA"  >
<path style="stroke: none; stroke-width: 1; stroke-dasharray: none; stroke-linecap: butt; stroke-dashoffset: 0; stroke-linejoin: miter; stroke-miterlimit: 4; fill: rgb(248,146,112); fill-rule: nonzero; opacity: 1;" vector-effect="non-scaling-stroke"  transform=" translate(-28674.81, -10305.55)" d="M 28692.4 10241.7 C 28659 10241.7 28610.9 10343.5 28656.5 10363.400000000001 L 28666.3 10369.400000000001 C 28666.399999999998 10369.400000000001 28666.5 10369.400000000001 28666.6 10369.400000000001 C 28687.199999999997 10369.400000000001 28737 10252.500000000002 28696.199999999997 10242.2 C 28694.999999999996 10241.900000000001 28693.699999999997 10241.7 28692.399999999998 10241.7" stroke-linecap="round" />
</g>
		<g transform="matrix(0.06 0 0 -0.06 -34.52 -80.88)" id="7"  >
<path style="stroke: none; stroke-width: 1; stroke-dasharray: none; stroke-linecap: butt; stroke-dashoffset: 0; stroke-linejoin: miter; stroke-miterlimit: 4; fill: rgb(248,146,112); fill-rule: nonzero; opacity: 1;" vector-effect="non-scaling-stroke"  transform=" translate(-28582.15, -10283.15)" d="M 28605.7 10225.6 C 28568.100000000002 10225.6 28514 10298.4 28541.8 10325.7 L 28546.399999999998 10337.900000000001 C 28548.8 10339.900000000001 28551.6 10340.7 28554.8 10340.7 C 28584.899999999998 10340.7 28645.6 10263.1 28626.5 10236.6 C 28620.9 10228.9 28613.7 10225.6 28605.7 10225.6" stroke-linecap="round" />
</g>
		<g transform="matrix(0.06 0 0 -0.06 -39.59 -77.03)" id="t_j7bgbG6janB2ADBv-FJ"  >
<path style="stroke: none; stroke-width: 1; stroke-dasharray: none; stroke-linecap: butt; stroke-dashoffset: 0; stroke-linejoin: miter; stroke-miterlimit: 4; fill: rgb(248,146,112); fill-rule: nonzero; opacity: 1;" vector-effect="non-scaling-stroke"  transform=" translate(-28493.67, -10216)" d="M 28507.6 10175.9 C 28505.6 10175.9 28503.8 10175.9 28502.199999999997 10176.199999999999 C 28474.199999999997 10179.8 28452.699999999997 10197.699999999999 28442.1 10220.9 C 28430.199999999997 10246.8 28438.8 10256.1 28454.6 10256.1 C 28479.3 10256.1 28521.8 10233.1 28530.3 10215.4 L 28539.1 10210 C 28571.1 10188.4 28529.699999999997 10175.9 28507.6 10175.9" stroke-linecap="round" />
</g>
		<g transform="matrix(0.06 0 0 -0.06 -44.21 -71.72)" id="jyfmZ2FVd414xhjV6iDQE"  >
<path style="stroke: none; stroke-width: 1; stroke-dasharray: none; stroke-linecap: butt; stroke-dashoffset: 0; stroke-linejoin: miter; stroke-miterlimit: 4; fill: rgb(248,146,112); fill-rule: nonzero; opacity: 1;" vector-effect="non-scaling-stroke"  transform=" translate(-28413.03, -10123.35)" d="M 28434.3 10086.4 C 28428.399999999998 10086.4 28422.8 10087 28417.899999999998 10088.199999999999 C 28390.399999999998 10095.199999999999 28345.999999999996 10118.499999999998 28340.699999999997 10148.599999999999 C 28353.299999999996 10157.199999999999 28365.499999999996 10160.3 28377.299999999996 10160.3 C 28405.099999999995 10160.3 28430.999999999996 10142.9 28454.799999999996 10138.5 L 28460.799999999996 10128.7 C 28513.599999999995 10108.300000000001 28470.099999999995 10086.400000000001 28434.299999999996 10086.400000000001" stroke-linecap="round" />
</g>
		<g transform="matrix(0.06 0 0 -0.06 -47.73 -66.21)" id="ygpDFCM430bQrw0IBzvi3"  >
<path style="stroke: none; stroke-width: 1; stroke-dasharray: none; stroke-linecap: butt; stroke-dashoffset: 0; stroke-linejoin: miter; stroke-miterlimit: 4; fill: rgb(248,146,112); fill-rule: nonzero; opacity: 1;" vector-effect="non-scaling-stroke"  transform=" translate(-28351.63, -10027.35)" d="M 28352.4 9998.7 C 28320.4 9998.7 28287.7 10007.900000000001 28285.800000000003 10028.7 C 28283.9 10048.800000000001 28300.9 10056 28323.4 10056 C 28358 10056 28405.600000000002 10039 28417.600000000002 10025.9 L 28414.9 10021.5 C 28412.5 10006.9 28382.800000000003 9998.7 28352.4 9998.7" stroke-linecap="round" />
</g>
		<g transform="matrix(0.06 0 0 -0.06 -49.17 -60.83)" id="VuO7jwlPOFFSAXDe3JJow"  >
<path style="stroke: none; stroke-width: 1; stroke-dasharray: none; stroke-linecap: butt; stroke-dashoffset: 0; stroke-linejoin: miter; stroke-miterlimit: 4; fill: rgb(248,146,112); fill-rule: nonzero; opacity: 1;" vector-effect="non-scaling-stroke"  transform=" translate(-28326.68, -9933.5)" d="M 28299.1 9907.4 C 28277.8 9907.4 28260.399999999998 9913.3 28256.8 9929.1 C 28251.399999999998 9953.1 28295.899999999998 9959.6 28336.6 9959.6 C 28363.699999999997 9959.6 28389.1 9956.7 28397 9954.2 L 28396 9942.900000000001 C 28390.7 9927.300000000001 28338.2 9907.400000000001 28299.1 9907.400000000001" stroke-linecap="round" />
</g>
		<g transform="matrix(0.06 0 0 -0.06 -48.63 -55.71)" id="7"  >
<path style="stroke: none; stroke-width: 1; stroke-dasharray: none; stroke-linecap: butt; stroke-dashoffset: 0; stroke-linejoin: miter; stroke-miterlimit: 4; fill: rgb(248,146,112); fill-rule: nonzero; opacity: 1;" vector-effect="non-scaling-stroke"  transform=" translate(-28336.04, -9844.2)" d="M 28308 9807 C 28294.8 9807 28283 9811.3 28274.7 9821.8 C 28239.4 9866.3 28329.3 9881.4 28377.4 9881.4 C 28387.2 9881.4 28395.2 9880.8 28400.100000000002 9879.699999999999 C 28406.4 9875.599999999999 28397.7 9878.699999999999 28396.7 9876.199999999999 L 28405.4 9870.8 C 28396.300000000003 9843.199999999999 28346.300000000003 9807 28308 9807" stroke-linecap="round" />
</g>
		<g transform="matrix(0.06 0 0 -0.06 -47.13 -49.6)" id="yzoCnUmbSqytGgiu14ErR"  >
<path style="stroke: none; stroke-width: 1; stroke-dasharray: none; stroke-linecap: butt; stroke-dashoffset: 0; stroke-linejoin: miter; stroke-miterlimit: 4; fill: rgb(248,146,112); fill-rule: nonzero; opacity: 1;" vector-effect="non-scaling-stroke"  transform=" translate(-28362.09, -9737.6)" d="M 28330.5 9694 C 28314.7 9694 28301.7 9700.1 28295.8 9715.2 C 28278 9761.1 28377.2 9781.2 28417.399999999998 9781.2 C 28423.199999999997 9781.2 28427.699999999997 9780.800000000001 28430.499999999996 9780 L 28429.499999999996 9768.6 C 28431.599999999995 9736.1 28371.699999999997 9694 28330.499999999996 9694" stroke-linecap="round" />
</g>
		<g transform="matrix(0.06 0 0 -0.06 -44.33 -43.83)" id="y18zEYep6m3hI1RspjQMP"  >
<path style="stroke: none; stroke-width: 1; stroke-dasharray: none; stroke-linecap: butt; stroke-dashoffset: 0; stroke-linejoin: miter; stroke-miterlimit: 4; fill: rgb(248,146,112); fill-rule: nonzero; opacity: 1;" vector-effect="non-scaling-stroke"  transform=" translate(-28410.98, -9636.9)" d="M 28376.9 9593.1 C 28367.5 9593.1 28359.800000000003 9597 28355.300000000003 9606.6 C 28336.600000000002 9645.5 28411.700000000004 9680.7 28452.600000000002 9680.7 C 28459.4 9680.7 28465.300000000003 9679.7 28469.600000000002 9677.6 L 28469.4 9662.7 C 28459.7 9639 28408.800000000003 9593.1 28376.9 9593.1" stroke-linecap="round" />
</g>
		<g transform="matrix(0.06 0 0 -0.06 -41.37 -38.32)" id="600000000"  >
<path style="stroke: none; stroke-width: 1; stroke-dasharray: none; stroke-linecap: butt; stroke-dashoffset: 0; stroke-linejoin: miter; stroke-miterlimit: 4; fill: rgb(248,146,112); fill-rule: nonzero; opacity: 1;" vector-effect="non-scaling-stroke"  transform=" translate(-28462.55, -9540.75)" d="M 28422 9493 C 28409.8 9493 28401.5 9500.1 28401.4 9517.9 C 28401.2 9550.1 28470.7 9588.5 28507 9588.5 C 28512.7 9588.5 28517.5 9587.6 28521.2 9585.6 L 28523.7 9575 C 28517.8 9545.4 28455.3 9493 28422 9493" stroke-linecap="round" />
</g>
		<g transform="matrix(0.06 0 0 -0.06 -37.22 -33.6)" id="gfvummu9-iNBIJI0Fo5wZ"  >
<path style="stroke: none; stroke-width: 1; stroke-dasharray: none; stroke-linecap: butt; stroke-dashoffset: 0; stroke-linejoin: miter; stroke-miterlimit: 4; fill: rgb(248,146,112); fill-rule: nonzero; opacity: 1;" vector-effect="non-scaling-stroke"  transform=" translate(-28534.95, -9458.55)" d="M 28510.4 9407 C 28502.5 9407 28495.7 9412.6 28491.2 9426.4 C 28477.600000000002 9469 28554.3 9506.199999999999 28580.100000000002 9510.1 C 28583.600000000002 9482.800000000001 28539.500000000004 9407 28510.4 9407" stroke-linecap="round" />
</g>
		<g transform="matrix(0.06 0 0 -0.06 27.43 -2.16)" id="DscYnlyktwYv4XSWB4AGo"  >
<path style="stroke: none; stroke-width: 1; stroke-dasharray: none; stroke-linecap: butt; stroke-dashoffset: 0; stroke-linejoin: miter; stroke-miterlimit: 4; fill: rgb(198,36,36); fill-rule: nonzero; opacity: 1;" vector-effect="non-scaling-stroke"  transform=" translate(-29662.7, -8910.15)" d="M 29757.5 8987.9 L 29710.1 8832.4 L 29567.899999999998 8908.3 z" stroke-linecap="round" />
</g>
</g>
</g>
</svg>