<svg height="22" viewBox="0 0 198 22" width="198" xmlns="http://www.w3.org/2000/svg"><g transform="matrix(.1 0 0 -.1 -141.87 147.531)"><path d="m1450 1278.61h1920v160h-1920z" fill="#d14624"/><path d="m3370 1438.61v30h-1920c-7.9 0-15.63-3.2-21.21-8.79-5.59-5.59-8.79-13.31-8.79-21.21v-160c0-7.9 3.2-15.63 8.79-21.22 5.58-5.58 13.31-8.78 21.21-8.78h1920c7.9 0 15.63 3.2 21.21 8.78 5.59 5.59 8.79 13.32 8.79 21.22v160c0 7.9-3.2 15.62-8.79 21.21-5.58 5.59-13.31 8.79-21.21 8.79v-30h-30v-130h-1860v100h1890v30h-30z" fill="#091019"/><path d="m1450 1278.61h970v160h-970z" fill="#d14624"/><path d="m2420 1438.61v30h-970c-7.9 0-15.63-3.2-21.21-8.79-5.59-5.59-8.79-13.31-8.79-21.21v-160c0-7.9 3.2-15.63 8.79-21.22 5.58-5.58 13.31-8.78 21.21-8.78h970c7.9 0 15.63 3.2 21.21 8.78 5.59 5.59 8.79 13.32 8.79 21.22v160c0 7.9-3.2 15.62-8.79 21.21-5.58 5.59-13.31 8.79-21.21 8.79v-30h-30v-130h-910v100h940v30h-30z" fill="#091019"/><path d="m1890 1308.61h120v100h-120z" fill="#e67b48"/><path d="m1890 1298.61h120v10h-120z" fill="#1c3154"/><path d="m2120 1308.61h50v100h-50z" fill="#e67b48"/><path d="m2120 1298.61h50v10h-50z" fill="#1c3154"/></g><path d="m2930 1358.37v50.24h27.86c-5.95-11.17-12.06-22.3-18.33-33.39v-.3c-2.56-4.53-5.14-9.05-7.75-13.56-.59-1-1.19-2-1.78-2.99" fill="#e67b48" transform="matrix(.1 0 0 -.1 -141.863 147.539)"/><path d="m2969.7 1431.16h-.09c6.34 12.43 12.47 24.91 18.41 37.45h366.74 15.24v-29.53h-396.29c-1.33-2.65-2.66-5.29-4.01-7.92m404.37 7.92h-4.07v29.53c7.9 0 15.63-3.2 21.21-8.79 1.04-1.03 1.99-2.14 2.85-3.31-5.34-7.12-12.16-13.09-19.99-17.43" fill="#070b0e" transform="matrix(.1 0 0 -.1 -141.864 147.539)"/><path d="m3340 1308.61h-23.25c-.02 0-.03 0-.05 0h-106.7v100h-50v-100h-101.7v100h281.7z" fill="#bb2f22" transform="matrix(.1 0 0 -.1 -141.865 147.531)"/><path d="m3390.9 1280.7h-6.23c-8.07 7.73-17.43 14.24-27.84 19.05-12.16 5.61-25.81 8.86-40.08 8.86h23.25v100h-281.7v6.71h-96.78c2.76 5.27 5.49 10.55 8.18 15.84h373.68c11.13 0 21.59 2.87 30.69 7.92h16.83z" fill="#070c0f" transform="matrix(.1 0 0 -.1 -141.861 147.539)"/><path d="m2930 1308.61h-31.01c10.62 16.3 20.97 32.87 31.01 49.76z" fill="#bb2f22" transform="matrix(.1 0 0 -.1 -141.869 147.539)"/><path d="m3384.67 1280.7h-504.3c6.3 9.21 12.51 18.52 18.62 27.91h31.01v-10h120v5.84h8.3v4.16h101.7v-10h50v10h106.7.05c14.27 0 27.92-3.25 40.08-8.86 10.41-4.81 19.77-11.32 27.84-19.05" fill="#070c0f" transform="matrix(.1 0 0 -.1 -141.862 147.536)"/><path d="m2939.53 1308.61h-9.53v49.76c.59.99 1.19 1.99 1.78 2.99 2.61 4.51 5.19 9.03 7.75 13.56z" fill="#d04f2f" transform="matrix(.1 0 0 -.1 -141.867 147.536)"/><path d="m3050 1298.61h-120v10h9.53v-4.16h110.47z" fill="#0f1c2a" transform="matrix(.1 0 0 -.1 -141.87 147.531)"/><path d="m3343.38 1431.16h-373.68c1.35 2.63 2.68 5.27 4.01 7.92h396.29v-.47.47h4.07c-9.1-5.05-19.56-7.92-30.69-7.92" fill="#07090a" transform="matrix(.1 0 0 -.1 -141.869 147.532)"/><path d="m2957.98 1408.61h-.12c1.19 2.23 2.37 4.47 3.55 6.71h.11c-1.18-2.24-2.36-4.48-3.54-6.71" fill="#091019" transform="matrix(.1 0 0 -.1 -141.869 147.536)"/><path d="m2939.53 1374.92v.3c6.27 11.09 12.38 22.22 18.33 33.39h.12c-5.99-11.28-12.13-22.51-18.45-33.69" fill="#e67b48" transform="matrix(.1 0 0 -.1 -141.866 147.537)"/><path d="m3058.3 1308.61h-8.3v100h-92.02 100.32z" fill="#bb2f22" transform="matrix(.1 0 0 -.1 -141.864 147.531)"/><path d="m3058.3 1408.61h-100.32c1.18 2.23 2.36 4.47 3.54 6.71h96.78z" fill="#070c0f" transform="matrix(.1 0 0 -.1 -141.864 147.536)"/><path d="m3050 1304.45h8.3008v4.1602h-8.3008z" fill="#070c0f" transform="matrix(.1 0 0 -.1 -141.865 147.533)"/><path d="m3050 1308.61h-110.47v66.31c6.32 11.18 12.46 22.41 18.45 33.69h92.02z" fill="#d04f2f" transform="matrix(.1 0 0 -.1 -141.867 147.531)"/><path d="m2939.53 1304.45h110.469v4.1602h-110.469z" fill="#0f1c2a" transform="matrix(.1 0 0 -.1 -141.866 147.533)"/><path d="m3160 1308.61h50v100h-50z" fill="#d04f2f" transform="matrix(.1 0 0 -.1 -141.87 147.531)"/><path d="m3160 1298.61h50v10h-50z" fill="#0f1c2a" transform="matrix(.1 0 0 -.1 -141.87 147.531)"/></svg>